<svg fill="none" height="64" viewBox="0 0 64 64" width="64" xmlns="http://www.w3.org/2000/svg"><circle cx="32" cy="32" fill="#814625" r="32"/><g fill="#fff"><path d="m30.8066 30.3796c-.0352-.1063-.0598-.2153-.0788-.3254-.0087-.051-.0189-.1018-.0304-.1522-.0251-.1095-.053-.2184-.0831-.3267v-.0003c.499-.7276 2.8845-4.5225.1699-6.9583-3.0128-2.7034-6.533.84-6.533.84l.0109.0157c-1.5822-.4631-3.2978-.5174-4.9669-.0159-.0002 0-.0003 0-.0003 0-.0206-.0207-3.529-3.5353-6.5329-.8398-3.00494 2.6963.2399 7.0585.2568 7.0813v.0003c-.0345.1025-.0624.2071-.0808.3134-.3251 1.8667-2.5381 2.4428-2.5381 5.6944 0 3.2515 2.3151 5.926 7.0405 5.926h1.939.0003c.0087.0119.807 1.1018 2.4463 1.1006 1.5218-.0011 2.5268-1.0913 2.5355-1.1006h.0003 1.8499c4.7254 0 7.0405-2.6117 7.0405-5.926 0-3.028-1.9191-3.7359-2.4454-5.3265z"/><path d="m53.3886 26.6644s.3514-3.1339-2.3199-3.8073v-1.2569h-2.0688v1.2255c-2.8179.6004-2.4548 3.8387-2.4548 3.8387v.5373s-.3633 3.239 2.4558 3.8388h-.0003v2.6903c-2.9702.5212-2.5949 3.8658-2.5949 3.8658v.5373s-.3633 3.2383 2.4547 3.8386v1.2256h2.0688v-1.2569c2.6715-.6734 2.3199-3.8073 2.3199-3.8073.1168 0 .2115-.0912.2115-.2036v-.13c0-.1125-.0947-.2037-.2115-.2037 0 0 .3486-3.1067-2.2853-3.7982v-2.7579h-.0311c2.8191-.5998 2.4558-3.8388 2.4558-3.8388.1167 0 .2114-.0912.2114-.2037v-.13c0-.1124-.0947-.2036-.2114-.2036zm-1.6859 10.9322h-.1893c-.1167 0-.2114.0912-.2114.2037v.13c0 .1124.0947.2036.2114.2036h.1893c0 1.944-.6703 2.2711-.8958 2.3262-.0371.009-.0731-.0175-.0731-.0543v-.6196c0-.3426-.2266-.5302-.4532-.6323-.2865-.129-.6201-.129-.9065 0-.2266.1021-.4533.2897-.4533.6323v.6196c0 .0363-.0353.0634-.0718.0545-.2242-.0541-.897-.3786-.897-2.3264v-.5373c0-1.944.6702-2.2711.8958-2.3261.037-.009.073.0174.073.0542v.6197c0 .3425.2267.5302.4533.6323.2864.1289.62.1289.9065 0 .2266-.1021.4532-.2898.4532-.6323v-.6197c0-.0362.0353-.0634.0718-.0545.2243.0541.8971.3787.8971 2.3264zm-.0498-10.3949h.1892c0 1.9477-.6727 2.2724-.897 2.3264-.0365.0089-.0718-.0183-.0718-.0545v-.6197c0-.3425-.2266-.5302-.4533-.6323-.2864-.1289-.62-.1289-.9065 0-.2266.1021-.4532.2898-.4532.6323v.6197c0 .0368-.036.0632-.0731.0542-.2255-.055-.8957-.3821-.8957-2.3261v-.5373c0-1.9478.6727-2.2725.897-2.3265.0365-.0088.0718.0185.0718.0546v.6196c0 .3426.2266.5302.4532.6323.2865.129.6201.129.9065 0 .2267-.1021.4533-.2897.4533-.6323v-.6196c0-.0368.036-.0633.0731-.0543.2255.0551.8957.3822.8957 2.3262h-.1892c-.1168 0-.2115.0912-.2115.2036v.13c0 .1125.0947.2037.2115.2037z"/><path d="m43.036 32.1987s.3653-3.2571-2.4794-3.8437v-2.9262c2.769-.625 2.4097-3.8286 2.4097-3.8286h-1.5465c0 1.9478-.6727 2.2724-.897 2.3264-.0365.0089-.0718-.0184-.0718-.0545v-.6197c0-.3425-.2266-.5301-.4533-.6322-.2864-.129-.62-.129-.9065 0-.2266.1021-.4532.2897-.4532.6322v.6197c0 .0368-.036.0633-.0731.0543-.2255-.0551-.8957-.3822-.8957-2.3262h-1.5465s-.3728 3.3244 2.5681 3.8609v2.8899c-2.8653.576-2.4984 3.8475-2.4984 3.8475v.5373s-.3669 3.2716 2.4984 3.8476v2.7556c-2.9409.5366-2.5681 3.8608-2.5681 3.8608s1.5529 0 1.5465 0c0-1.9477.6727-2.2724.897-2.3264.0365-.0089.0718.0183.0718.0545v.6197c0 .3425.2266.5302.4532.6323.2865.1289.6201.1289.9065 0 .2267-.1021.4533-.2898.4533-.6323v-.6197c0-.0368.036-.0632.0731-.0542.2255.055.8957.3821.8957 2.3261-.0065 0 1.5465 0 1.5465 0s.3593-3.2036-2.4097-3.8286v-2.7918c2.8447-.5867 2.4794-3.8437 2.4794-3.8437.1168 0 .2115-.0912.2115-.2036v-.1301c0-.1124-.0947-.2036-.2115-.2036zm-1.7357.5373h.1892c0 1.9477-.6727 2.2724-.897 2.3264-.0365.0089-.0718-.0183-.0718-.0545v-.6197c0-.3425-.2266-.5302-.4532-.6323-.2865-.1289-.6201-.1289-.9065 0-.2267.1021-.4533.2898-.4533.6323v.6197c0 .0368-.036.0632-.0731.0542-.2255-.0551-.8957-.3821-.8957-2.3261v-.5373c0-1.9478.6727-2.2725.897-2.3265.0365-.0088.0718.0184.0718.0546v.6196c0 .3426.2266.5302.4533.6323.2864.129.62.129.9065 0 .2266-.1021.4532-.2897.4532-.6323v-.6196c0-.0368.036-.0633.0731-.0543.2255.0551.8957.3822.8957 2.3262h-.1892c-.1167 0-.2114.0912-.2114.2036v.13c0 .1125.0947.2037.2114.2037z"/></g></svg>
