<svg enable-background="new 0 0 256 256" viewBox="0 0 256 256" xmlns="http://www.w3.org/2000/svg"><g transform="scale(2.56)"><circle cx="50" cy="50" fill="#00ef8b" r="50"/><g fill="#fff"><path d="m57.8 42.2h14.1v14.1h-14.1z"/><path d="m43.7 61.6c0 2.9-2.4 5.3-5.3 5.3s-5.3-2.4-5.3-5.3 2.4-5.3 5.3-5.3h5.3v-14.1h-5.3c-10.7 0-19.4 8.7-19.4 19.4s8.7 19.4 19.4 19.4 19.4-8.7 19.4-19.4v-5.3h-14.1z"/><path d="m63.1 35.1h15.9v-14.1h-15.9c-10.7 0-19.4 8.7-19.4 19.4v1.8h14.1v-1.8c-0-2.9 2.4-5.3 5.3-5.3z"/></g><path d="m57.8 42.2h-14.1v14.1h14.1z" fill="#16ff99"/></g></svg>