<svg width="170" height="170" viewBox="0 0 170 170" fill="none" xmlns="http://www.w3.org/2000/svg">
<g clip-path="url(#clip0_643_18719)">
<path d="M85 0C38.0559 0 0 38.0559 0 85C0 131.944 38.0559 170 85 170C131.944 170 170 131.944 170 85C170 38.0559 131.944 0 85 0ZM81.7125 32.4632C84.0732 31.3066 86.5606 31.3858 88.85 32.685C96.7875 37.2083 104.701 41.7712 112.575 46.3816C115.11 47.8709 116.41 50.2554 116.418 53.1864C116.465 63.4609 116.449 73.7274 116.418 84.0019C116.418 84.3821 116.172 84.9366 115.863 85.1188C112.813 86.9408 109.724 88.6915 106.373 90.6244V89.0084C106.373 78.4408 106.341 67.8812 106.397 57.3136C106.404 55.2856 105.707 53.9786 103.909 52.9567C94.6962 47.7204 85.5308 42.3891 76.3495 37.0895C75.9534 36.8597 75.5652 36.6142 74.9632 36.2498C77.3239 34.911 79.4469 33.5643 81.6966 32.4632H81.7125ZM80.0252 137.576C79.5102 137.315 79.13 137.133 78.7577 136.919C66.5979 129.908 54.4539 122.85 42.2544 115.895C38.8322 113.946 37.2717 111.165 37.3113 107.26C37.3826 98.9581 37.3588 90.6561 37.3192 82.3462C37.3034 78.5993 38.8243 75.8821 42.1198 74.0126C50.6831 69.1407 59.199 64.1976 67.7148 59.2465C68.4515 58.8187 68.9902 58.7474 69.7586 59.2069C72.6976 60.9734 75.692 62.6608 78.8211 64.4669C78.2269 64.8234 77.7754 65.0927 77.3159 65.3621C68.0951 70.6855 58.89 76.0247 49.6454 81.3164C48.1323 82.1799 47.4273 83.3047 47.4431 85.0634C47.4907 91.6067 47.4986 98.15 47.4431 104.693C47.4273 106.5 48.1482 107.648 49.7008 108.535C59.4525 114.112 69.1645 119.753 78.9082 125.345C79.7321 125.821 80.0806 126.312 80.0648 127.294C79.9935 130.645 80.041 134.004 80.041 137.584L80.0252 137.576ZM80.0252 118.834C79.1775 118.35 78.5676 118.01 77.9576 117.653C70.226 113.193 62.5023 108.718 54.7549 104.289C53.9152 103.814 53.6062 103.299 53.6142 102.325C53.6696 97.2945 53.6459 92.2642 53.63 87.2339C53.63 86.5527 53.733 86.0853 54.4063 85.705C57.2582 84.1128 60.0783 82.4492 62.9063 80.8253C63.1123 80.7064 63.3341 80.6193 63.7064 80.4371V86.0853C63.7064 89.1431 63.754 92.2088 63.6906 95.2665C63.651 97.0093 64.3243 98.1897 65.8453 99.0452C70.226 101.517 74.5513 104.083 78.932 106.547C79.7954 107.03 80.0568 107.569 80.041 108.52C79.9856 111.863 80.0172 115.213 80.0172 118.826L80.0252 118.834ZM71.0974 52.8062C69.4576 51.8397 68.0555 51.8476 66.4157 52.8062C57.2265 58.1771 47.9977 63.4767 38.7768 68.8001C38.3886 69.0298 37.9846 69.2358 37.2954 69.6081C37.541 66.1067 36.7884 62.8034 37.9846 59.603C38.6342 57.8523 39.8541 56.5373 41.4702 55.6025C49.1622 51.1584 56.8462 46.7064 64.5541 42.2861C67.3663 40.6701 70.2339 40.7097 73.0461 42.3336C81.7996 47.3719 90.5452 52.4259 99.2749 57.4958C99.6472 57.7097 100.115 58.1929 100.115 58.5573C100.178 62.1538 100.154 65.7582 100.154 69.616C96.9776 67.7861 94.0466 66.0909 91.1156 64.3956C84.4376 60.5377 77.7437 56.7195 71.0974 52.8062ZM132.609 109.359C132.38 112.187 130.724 114.192 128.276 115.602C118.905 120.988 109.541 126.407 100.178 131.809C97.2391 133.505 94.3001 135.2 91.3532 136.895C90.9967 137.101 90.6323 137.275 90.1491 137.529C90.1174 137.038 90.0778 136.681 90.0778 136.325C90.0778 133.219 90.0937 130.122 90.062 127.017C90.062 126.312 90.2283 125.884 90.8779 125.512C104.535 117.653 118.184 109.771 131.825 101.897C132.031 101.778 132.261 101.683 132.649 101.501C132.649 104.258 132.808 106.824 132.609 109.359ZM132.681 89.8085C132.657 93.0247 130.922 95.2824 128.173 96.8667C117.495 103.006 106.824 109.177 96.1538 115.34C94.205 116.465 92.2484 117.582 90.157 118.786C90.1254 118.255 90.0857 117.907 90.0857 117.55C90.0857 114.493 90.1174 111.427 90.062 108.369C90.0461 107.498 90.3392 107.038 91.0918 106.603C100.796 101.034 110.468 95.4012 120.188 89.8639C121.915 88.8816 122.676 87.6696 122.66 85.6417C122.589 75.0741 122.628 64.5065 122.628 53.939V52.0932C125.163 53.6221 127.54 54.8816 129.71 56.4185C131.691 57.8206 132.689 59.9436 132.697 62.3914C132.728 71.5331 132.752 80.6747 132.689 89.8164L132.681 89.8085Z" fill="#F3F3F3"/>
</g>
<defs>
<clipPath id="clip0_643_18719">
<rect width="170" height="170" fill="white"/>
</clipPath>
</defs>
</svg>
