<svg width="397" height="397" viewBox="0 0 397 397" fill="none" xmlns="http://www.w3.org/2000/svg">
<path d="M198.5 0C88.8718 0 0 88.8718 0 198.5C0 308.128 88.8718 397 198.5 397C308.128 397 397 308.128 397 198.5C397 88.8718 308.128 0 198.5 0ZM189.898 80.214C195.411 77.513 201.219 77.698 206.566 80.7319C225.102 91.2952 243.583 101.951 261.972 112.718C267.892 116.196 270.926 121.764 270.944 128.609C271.055 152.603 271.018 176.578 270.944 200.572C270.944 201.46 270.371 202.755 269.649 203.18C262.527 207.435 255.312 211.524 247.487 216.038C247.487 214.465 247.487 213.374 247.487 212.264C247.487 187.585 247.413 162.925 247.542 138.247C247.561 133.511 245.933 130.459 241.733 128.072C220.218 115.844 198.815 103.394 177.374 91.0177C176.449 90.4812 175.542 89.9077 174.136 89.0567C179.686 85.9303 184.644 82.7854 189.898 80.214ZM185.957 325.684C184.755 325.074 183.867 324.648 182.997 324.149C154.601 307.777 126.241 291.294 97.7515 275.051C89.7597 270.5 86.1153 264.007 86.2078 254.887C86.3743 235.499 86.3188 216.112 86.2263 196.706C86.1893 187.955 89.7412 181.61 97.437 177.244C117.435 165.867 137.322 154.323 157.209 142.761C158.929 141.762 160.187 141.595 161.982 142.668C168.845 146.794 175.838 150.734 183.145 154.952C181.758 155.785 180.703 156.414 179.63 157.043C158.097 169.474 136.601 181.943 115.012 194.301C111.478 196.317 109.832 198.944 109.869 203.051C109.98 218.332 109.998 233.612 109.869 248.893C109.832 253.111 111.515 255.793 115.141 257.865C137.914 270.889 160.594 284.06 183.349 297.121C185.273 298.231 186.087 299.378 186.05 301.672C185.846 309.479 185.957 317.304 185.957 325.684ZM185.957 281.914C183.978 280.786 182.553 279.99 181.129 279.158C163.073 268.743 145.036 258.29 126.944 247.949C124.983 246.839 124.261 245.637 124.28 243.361C124.409 231.614 124.354 219.867 124.317 208.12C124.317 206.529 124.557 205.437 126.13 204.549C132.79 200.831 139.375 196.946 145.98 193.154C146.461 192.876 146.979 192.673 147.848 192.247C147.848 196.891 147.848 201.164 147.848 205.437C147.848 212.578 147.959 219.738 147.811 226.878C147.719 230.948 149.291 233.705 152.843 235.703C163.073 241.474 173.174 247.468 183.404 253.222C185.421 254.35 186.031 255.608 185.994 257.828C185.865 265.653 185.957 273.479 185.957 281.914ZM165.108 127.721C161.279 125.464 158.004 125.482 154.175 127.721C132.716 140.263 111.164 152.64 89.6303 165.071C88.7238 165.589 87.7803 166.089 86.1709 166.958C86.7444 158.782 84.9869 151.067 87.7803 143.593C89.2973 139.505 92.1461 136.434 95.9201 134.251C113.883 123.873 131.828 113.476 149.828 103.153C156.395 99.3795 163.092 99.472 169.659 103.264C190.101 115.03 210.525 126.833 230.911 138.673C231.781 139.172 232.872 140.3 232.872 141.151C233.02 149.55 232.965 157.968 232.965 166.977C225.546 162.703 218.702 158.744 211.857 154.786C196.262 145.776 180.629 136.841 165.108 127.721ZM308.757 259.789C308.221 266.393 304.354 271.074 298.638 274.367C276.753 286.946 254.887 299.6 233.02 312.217C226.157 316.176 219.294 320.134 212.412 324.093C211.579 324.574 210.728 324.981 209.6 325.573C209.526 324.426 209.433 323.594 209.433 322.761C209.415 315.51 209.47 308.276 209.396 301.024C209.378 299.378 209.785 298.379 211.302 297.51C243.195 279.158 275.07 260.751 306.926 242.362C307.407 242.085 307.943 241.863 308.85 241.437C308.85 247.875 309.238 253.869 308.757 259.789ZM308.924 214.132C308.868 221.643 304.817 226.915 298.398 230.615C273.46 244.952 248.541 259.363 223.622 273.756C219.072 276.383 214.502 278.992 209.618 281.803C209.544 280.564 209.452 279.75 209.452 278.917C209.433 271.777 209.526 264.617 209.396 257.477C209.359 255.442 210.044 254.369 211.801 253.351C234.463 240.346 257.051 227.193 279.75 214.262C283.783 211.968 285.559 209.137 285.522 204.401C285.355 179.723 285.448 155.045 285.448 130.366C285.448 129.201 285.448 128.017 285.448 126.056C291.368 129.626 296.918 132.568 301.986 136.157C306.611 139.431 308.942 144.389 308.961 150.105C309.016 171.435 309.072 192.784 308.924 214.132Z" fill="black"/>
</svg>
