<svg width="256" height="256" viewBox="0 0 256 256" fill="none" xmlns="http://www.w3.org/2000/svg">
<circle cx="128" cy="128" r="128" fill="black"/>
<path d="M180.231 149.355L129.991 124.159L127.99 125.412L126.467 123.923L75.75 149.355L73.749 152.619L74.9691 155.488L123.491 179.816H127.99H132.49L181.001 155.488L182.231 152.619L180.231 149.355Z" fill="#95001A"/>
<path d="M73.749 152.619L127.99 179.816V182.074L92.8411 199.707H88.3317L73.749 192.29L71.748 189.273V155.873L73.749 152.619Z" fill="#40004D"/>
<path d="M182.231 152.619L128.01 179.816V182.074L163.159 199.707H167.668L182.25 192.29L184.252 189.273V155.873L182.231 152.619Z" fill="#520033"/>
<path d="M182.251 98.5293L180.25 99.7918V149.354L182.231 152.619L184.252 155.872L217.039 172.311H221.538L228 169.027L182.251 98.5293Z" fill="#FFA80A"/>
<path d="M73.7491 98.5293L75.7501 99.7918V149.354L73.7491 152.619L71.7482 155.872L38.9614 172.311H34.4617L28 169.027L73.7491 98.5293Z" fill="#FF3417"/>
<path d="M73.7494 192.29L34.4619 172.312L73.7494 152.619V192.29Z" fill="#6D0044"/>
<path d="M127.99 219.862L167.639 199.705L127.99 179.815L88.332 199.705L127.99 219.862Z" fill="#6D0074"/>
<path d="M182.251 192.29L221.538 172.312L182.231 152.619L182.251 192.29Z" fill="#6D0044"/>
<path d="M128 36.1377H114.247L73.749 98.5298L75.75 99.7923L127.99 73.5907V71.3324L129.991 69.9223L130.001 37.9029L128 36.1377Z" fill="#FFA80A"/>
<path d="M127.99 71.332L73.749 98.5293V152.618L127.99 125.411L129.991 124.159V74.5862L127.99 71.332Z" fill="#D7001F"/>
<path d="M128 36.1377H141.753L182.251 98.5298L180.25 99.7923L129.991 74.5867L127.99 71.3324L128 36.1377Z" fill="#FFE50A"/>
<path d="M182.231 152.618L127.99 125.411V71.332L182.231 98.5293V152.618Z" fill="#EF8109"/>
</svg>
