<?xml version="1.0" encoding="UTF-8"?>
<svg version="1.1" xmlns="http://www.w3.org/2000/svg" width="150" height="150">
<path d="M0 0 C0.33 24.09 0.66 48.18 1 73 C6.25808594 67.7303125 11.51617187 62.460625 16.93359375 57.03125 C20.25558512 53.70415221 23.57772162 50.37720196 26.90039062 47.05078125 C32.1802352 41.76494693 37.45951845 36.47855989 42.7355957 31.18896484 C46.98683711 26.92689899 51.24048013 22.66724398 55.49583626 18.4092865 C57.12309538 16.78017232 58.7494707 15.15017488 60.37496758 13.51930237 C62.6427819 11.24428349 64.91365086 8.97235795 67.18530273 6.70117188 C67.86431137 6.01856796 68.54332001 5.33596405 69.24290466 4.63267517 C70.16631653 3.7113253 70.16631653 3.7113253 71.10838318 2.7713623 C71.91449114 1.96387165 71.91449114 1.96387165 72.73688412 1.14006805 C74 0 74 0 75 0 C77.30790005 11.06453986 78.78178588 22.10904068 79.625 33.375 C79.68819805 34.21432571 79.7513961 35.05365143 79.81650925 35.91841125 C81.27831811 57.98273016 77.82877266 75.07831105 63.32666016 92.22879028 C55.36753144 101.21683339 46.86096819 109.58989111 38.0625 117.75 C36.73823376 118.97973164 36.73823376 118.97973164 35.38721466 120.23430634 C3.16066068 150 3.16066068 150 0 150 C-0.33 125.91 -0.66 101.82 -1 77 C-6.25808594 82.2696875 -11.51617187 87.539375 -16.93359375 92.96875 C-20.25558512 96.29584779 -23.57772162 99.62279804 -26.90039062 102.94921875 C-32.1802352 108.23505307 -37.45951845 113.52144011 -42.7355957 118.81103516 C-46.98683711 123.07310101 -51.24048013 127.33275602 -55.49583626 131.5907135 C-57.12309538 133.21982768 -58.7494707 134.84982512 -60.37496758 136.48069763 C-62.6427819 138.75571651 -64.91365086 141.02764205 -67.18530273 143.29882812 C-67.86431137 143.98143204 -68.54332001 144.66403595 -69.24290466 145.36732483 C-69.85851257 145.98155807 -70.47412048 146.59579132 -71.10838318 147.2286377 C-71.91449114 148.03612835 -71.91449114 148.03612835 -72.73688412 148.85993195 C-74 150 -74 150 -75 150 C-77.30790005 138.93546014 -78.78178588 127.89095932 -79.625 116.625 C-79.68819805 115.78567429 -79.7513961 114.94634857 -79.81650925 114.08158875 C-81.27831811 92.01726984 -77.82877266 74.92168895 -63.32666016 57.77120972 C-55.36753144 48.78316661 -46.86096819 40.41010889 -38.0625 32.25 C-37.17965584 31.43017891 -36.29681168 30.61035782 -35.38721466 29.76569366 C-3.16066068 0 -3.16066068 0 0 0 Z " fill="#0071BB" transform="translate(75,0)"/>
</svg>
