<svg fill="none" height="225" viewBox="0 0 298 225" width="298" xmlns="http://www.w3.org/2000/svg"><g fill="#000"><path d="m68.5456 13.9416h5.4217v-13.94146076h-5.4217c-5.7481-.00509365-11.4409 1.12334076-16.7525 3.32072076s-10.1378 5.42058-14.2024 9.48514c-4.0645 4.0646-7.2877 8.8908-9.4851 14.2024s-3.3258 11.0043-3.3207 16.7525v31.7556c.0116 6.7239-2.5492 13.1976-7.1576 18.094-4.6083 4.8963-10.91503 7.8445-17.6273 8.2395l.387264 6.971-.387264 6.971c6.71227.395 13.019 3.344 17.6273 8.24 4.6084 4.896 7.1692 11.37 7.1576 18.094v36.596c-.0206 12.144 4.7811 23.799 13.3499 32.404 8.5687 8.605 20.2034 13.456 32.3472 13.487v-13.942c-8.4206-.005-16.4948-3.352-22.449-9.306s-9.3015-14.029-9.3066-22.449v-36.79c.0058-6.568-1.5971-13.038-4.6687-18.844-3.0717-5.805-7.5185-10.77-12.9518-14.461 5.4178-3.706 9.8529-8.674 12.9226-14.4764 3.0698-5.8021 4.6821-12.2639 4.6979-18.8281v-31.7556c.0356-7.8976 3.1887-15.4615 8.7732-21.046s13.1485-8.7376 21.046-8.7733z"/><path d="m229.648 13.9414h-5.421v-13.94146104h5.421c11.579.03077664 22.672 4.65733104 30.841 12.86296104 8.17 8.2056 12.747 19.319 12.726 30.8978v31.7556c-.011 6.7239 2.55 13.1976 7.158 18.094 4.608 4.8963 10.915 7.8447 17.627 8.2397l-.387 6.971.387 6.971c-6.712.395-13.019 3.343-17.627 8.24-4.608 4.896-7.169 11.37-7.158 18.094v36.596c.021 12.144-4.781 23.799-13.35 32.404-8.568 8.605-20.203 13.456-32.347 13.487v-13.942c8.421-.005 16.495-3.352 22.449-9.306 5.954-5.955 9.302-14.029 9.307-22.449v-36.79c-.006-6.569 1.597-13.038 4.669-18.844 3.071-5.806 7.518-10.771 12.951-14.461-5.417-3.706-9.853-8.674-12.922-14.4766-3.07-5.8021-4.682-12.2639-4.698-18.8281v-31.7556c.02-3.9053-.731-7.7763-2.21-11.3907s-3.657-6.9012-6.41-9.6717c-2.752-2.7705-6.025-4.9702-9.63-6.4729-3.604-1.5028-7.47-2.2789-11.376-2.284z"/><path d="m199.828 56.1533h20.719l-43.18 40.4691c-7.747 7.0096-17.823 10.8916-28.27 10.8916-10.448 0-20.524-3.882-28.271-10.8916l-43.1795-40.4691h20.7186l32.7239 30.5938c4.887 4.4849 11.278 6.9733 17.911 6.9733s13.024-2.4884 17.911-6.9733z"/><path d="m98.1717 168.459h-20.7186l43.3739-40.663c7.704-7.096 17.795-11.035 28.27-11.035 10.474 0 20.566 3.939 28.27 11.035l43.374 40.663h-20.719l-32.917-30.981c-4.887-4.485-11.279-6.973-17.911-6.973-6.633 0-13.025 2.488-17.911 6.973z"/></g></svg>