<svg width="200" height="200" viewBox="0 0 200 200" fill="white" xmlns="http://www.w3.org/2000/svg">
  <rect width="200" height="200" fill="white"/>
  <g transform="translate(-37 -47)">
    <path d="M144.147 151.589C153.523 151.589 162.617 154.919 169.543 161.445L208.356 197.96H189.745L160.316 170.282C155.987 166.224 150.215 164.053 144.154 164.053C138.094 164.053 132.322 166.224 127.993 170.282L98.5635 197.96H79.9527L118.765 161.445C125.692 154.926 134.779 151.589 144.162 151.589H144.147ZM144.147 142.9C134.771 142.9 125.677 139.571 118.751 133.045L79.9453 96.5222H98.5561L127.985 124.2C132.314 128.259 138.086 130.429 144.147 130.429C150.208 130.429 155.98 128.259 160.309 124.2L189.738 96.5222H208.349L169.536 133.038C162.61 139.556 153.523 142.893 144.139 142.893L144.147 142.9Z" fill="black"/>
    <path d="M111.684 147.249L71.1394 181.735C68.1128 184.485 64.6497 183.185 64.6497 179.127V115.364C64.6497 111.305 68.1128 110.005 71.1394 112.755L111.684 147.241V147.249Z" fill="black"/>
  </g>
</svg>