<svg height="99.97" viewBox="42.8194 26.8927 142.2 99.97" width="142.2" xmlns="http://www.w3.org/2000/svg"><g transform="translate(-75.836601 -44.798302)"><path d="m197.32 125.961c9.277 0 18.277 3.282 25.13 9.713l38.406 35.987h-18.416l-29.121-27.278c-4.283-3.999-9.995-6.138-15.992-6.138s-11.708 2.139-15.992 6.138l-29.121 27.278h-18.416l38.406-35.987c6.854-6.424 15.846-9.713 25.131-9.713zm0-8.562c-9.278 0-18.277-3.282-25.13-9.713l-38.399-35.995h18.416l29.121 27.278c4.283 4 9.995 6.138 15.992 6.138s11.708-2.138 15.992-6.138l29.121-27.278h18.416l-38.406 35.987c-6.854 6.425-15.846 9.713-25.13 9.713z"/><path d="m165.197 121.684-40.119 33.987c-2.995 2.71-6.422 1.428-6.422-2.571v-62.84c0-3.999 3.427-5.281 6.422-2.571l40.119 33.987z"/></g></svg>