<?xml version="1.0" encoding="utf-8"?>
<!-- Generator: Adobe Illustrator 25.4.5, SVG Export Plug-In . SVG Version: 6.00 Build 0)  -->
<svg version="1.1" id="Layer_1" xmlns="http://www.w3.org/2000/svg" xmlns:xlink="http://www.w3.org/1999/xlink" x="0px" y="0px"
	 viewBox="0 0 2000 2000" style="enable-background:new 0 0 2000 2000;" xml:space="preserve">
<style type="text/css">
	.st0{fill:none;stroke:#0C00FF;stroke-width:4;stroke-miterlimit:10;}
	.st1{fill:#FFFFFF;}
	.st2{fill:#0C00FF;}
	.st3{fill:#F6F6F6;}
	.st4{fill:#282828;}
</style>
<g>
	<path class="st2" d="M1704.2,664.7c-0.8,27.5-13.1,55.4-36.5,78.8c-81,80.7-161.8,161.7-242.6,242.5c-12,12-11.9,12-0.2,23.7
		c81.6,82,163.2,163.9,244.7,246c32.2,32.5,45.2,71,32.7,115.9c-24,85.9-129.3,112.7-193.4,49.1c-89.4-88.8-178.3-178.1-267.4-267.2
		c-39.7-39.7-79.4-79.3-119-119c-24.7-24.8-24.8-48.4,0-73c127.8-127.3,255.6-254.5,383.6-381.7c35.2-35,83.4-44.7,127.5-26.3
		C1675.7,571.1,1704.2,613.7,1704.2,664.7z"/>
	<path class="st2" d="M1025.7,889c-14.3,14.1-37.2,14.1-51.5,0c-46.6-46.2-104.5-103.2-147.1-145.4c-23.5-23.3-35.9-51.2-36.8-78.7
		c-0.2-51,28.1-93.6,70.4-111.4c44.1-18.6,92.3-9.1,127.6,25.8c41.1,40.6,100.6,101.3,147.7,148.5c14.3,14.3,14.3,37.6-0.1,51.8
		L1025.7,889z"/>
	<path class="st2" d="M295.8,664.7c0.8,27.5,13.1,55.4,36.5,78.8c81,80.7,161.8,161.7,242.6,242.5c12,12,11.9,12,0.2,23.7
		c-81.6,82-163.2,163.9-244.7,246c-32.2,32.5-45.2,71-32.7,115.9c24,85.9,129.3,112.7,193.4,49.1c89.4-88.8,178.3-178.1,267.4-267.2
		c39.7-39.7,79.4-79.3,119-119c24.7-24.8,24.8-48.4,0-73C749.9,834.2,622.1,706.9,494.1,579.8c-35.2-35-83.4-44.7-127.5-26.3
		C324.3,571.1,295.8,613.7,295.8,664.7z"/>
	<path class="st2" d="M1025,1108.6c-14.3-14.1-37.2-14.1-51.5,0c-46.6,46.2-104.5,103.2-147.1,145.4c-23.5,23.3-35.9,51.2-36.8,78.7
		c-0.2,51,28.1,93.6,70.4,111.4c44.1,18.6,92.3,9.1,127.6-25.8c41.1-40.6,100.6-101.3,147.7-148.5c14.3-14.3,14.3-37.6-0.1-51.8
		L1025,1108.6z"/>
</g>
</svg>
