<svg width="24" height="25" viewBox="0 0 24 25" fill="none" xmlns="http://www.w3.org/2000/svg">
  <path d="M0 1.39704V8.70729V8.42088C0.0556199 14.6673 5.39513 20 12 20C18.6049 20 23.9444 14.9537 24 8.70729V1.39704C24 1.39704 22.3314 0.606004 20.4403 2.50176C19.2306 3.71559 18.2572 8.1072 15.657 8.13447C12.1808 8.18903 9.81692 3.66104 6.99421 1.96986C4.03245 0.196848 0 1.39704 0 1.39704Z" fill="url(#paint0_linear_2350_19924)" />
  <path d="M0 1.39704V8.70729V8.42088C0.0556199 14.6673 5.39513 20 12 20C18.6049 20 23.9444 14.9537 24 8.70729V1.39704C24 1.39704 22.3314 0.606004 20.4403 2.50176C19.2306 3.71559 18.2572 8.1072 15.657 8.13447C12.1808 8.18903 9.81692 3.66104 6.99421 1.96986C4.03245 0.196848 0 1.39704 0 1.39704Z" fill="url(#paint1_linear_2350_19924)" />
  <path d="M24 8.8329V3.3045C23.3191 3.42339 22.4852 3.78006 21.6097 4.64202C20.2478 5.97953 19.1639 10.8095 16.2455 10.854C12.3544 10.9135 9.70006 5.92009 6.53156 4.04756C4.32195 2.76949 1.58425 2.91811 0 3.17075V8.84776V8.50595C0.0555877 15.788 5.40591 22 11.9931 22C18.5941 22 23.9444 16.1149 24 8.8329V8.8329Z" fill="url(#paint2_linear_2350_19924)" />
  <path d="M24 8.8329V3.3045C23.3191 3.42339 22.4852 3.78006 21.6097 4.64202C20.2478 5.97953 19.1639 10.8095 16.2455 10.854C12.3544 10.9135 9.70006 5.92009 6.53156 4.04756C4.32195 2.76949 1.58425 2.91811 0 3.17075V8.84776V8.50595C0.0555877 15.788 5.40591 22 11.9931 22C18.5941 22 23.9444 16.1149 24 8.8329V8.8329Z" fill="url(#paint3_linear_2350_19924)" />
  <path d="M24 8.81421V7.54921C23.4858 7.75756 22.916 8.09986 22.3324 8.63563C20.8593 9.97504 19.692 14.8118 16.5512 14.8565C12.3544 14.916 9.5055 9.91551 6.08686 8.04033C4.11349 6.98368 1.72322 6.90927 0 7.05809V8.8291V8.4868C0.0555877 15.7792 5.40591 22 11.9931 22C18.5941 22 23.9444 16.1066 24 8.81421V8.81421Z" fill="url(#paint4_linear_2350_19924)" />
  <defs>
    <linearGradient id="paint0_linear_2350_19924" x1="-1.86202" y1="15.503" x2="28.5532" y2="-0.711852" gradientUnits="userSpaceOnUse">
      <stop stop-color="#FDA9FF" />
      <stop offset="0.028" stop-color="#F9AAFF" />
      <stop offset="0.243" stop-color="#DCB3FF" />
      <stop offset="0.367" stop-color="#D1B6FF" />
      <stop offset="0.89" stop-color="#4DFFE5" />
    </linearGradient>
    <linearGradient id="paint1_linear_2350_19924" x1="10.6539" y1="10.5726" x2="13.7029" y2="-0.825445" gradientUnits="userSpaceOnUse">
      <stop stop-color="#16183C" stop-opacity="0.3" />
      <stop offset="0.867" stop-color="#16183C" stop-opacity="0" />
    </linearGradient>
    <linearGradient id="paint2_linear_2350_19924" x1="-0.830481" y1="16.3964" x2="27.2429" y2="4.77853" gradientUnits="userSpaceOnUse">
      <stop stop-color="#FDA9FF" />
      <stop offset="0.028" stop-color="#F9AAFF" />
      <stop offset="0.243" stop-color="#DCB3FF" />
      <stop offset="0.367" stop-color="#D1B6FF" />
      <stop offset="0.89" stop-color="#4DFFE5" />
    </linearGradient>
    <linearGradient id="paint3_linear_2350_19924" x1="9.24882" y1="13.5699" x2="13.937" y2="4.55841" gradientUnits="userSpaceOnUse">
      <stop stop-color="#16183C" stop-opacity="0.3" />
      <stop offset="0.867" stop-color="#16183C" stop-opacity="0" />
    </linearGradient>
    <linearGradient id="paint4_linear_2350_19924" x1="-2.00936" y1="18.2621" x2="23.0914" y2="9.26428" gradientUnits="userSpaceOnUse">
      <stop stop-color="#FDA9FF" />
      <stop offset="0.028" stop-color="#F9AAFF" />
      <stop offset="0.243" stop-color="#DCB3FF" />
      <stop offset="0.367" stop-color="#D1B6FF" />
      <stop offset="0.89" stop-color="#4DFFE5" />
    </linearGradient>
  </defs>
</svg>
  