<svg width="250" height="250" viewBox="0 0 250 250" fill="none" xmlns="http://www.w3.org/2000/svg">
  <path d="M133.709 147.653C133.709 147.653 108.875 160.784 110.04 181.406C111.204 202.028 138.675 233.423 155.248 227.197C171.821 220.966 217.946 194.073 222.66 167.605C227.378 141.132 181.5 128 181.5 128L133.705 147.653H133.709Z" fill="#2844AD" />
  <path d="M197 35.4637C165.939 10.2049 123.205 4.89199 86.916 21.7047L60 60.0968C62.6389 68.8806 69.5021 75.7377 78.2488 78.3296C93.6549 83.434 160.458 57.7135 160.458 57.7135L197 35.4637V35.4637Z" fill="#2844AD" />
  <path d="M21 74.9097C21 74.9097 43.6571 31.9317 73.88 21.9379C104.143 11.9441 99.8558 43.2308 73.88 55.9179C47.9041 68.6049 31.595 75.9055 21 74.9097V74.9097Z" fill="#5493F7" />
  <path d="M17.1315 86C17.1315 86 -17.2942 183.539 76.9988 228C76.9988 228 84.3143 189.042 70.9715 164.374C61.0743 144.666 49.1433 126.05 35.3809 108.862C28.8107 101.632 22.6996 94.028 17.1265 86H17.1315Z" fill="#5493F7" />
  <path d="M225 180C225 180 200.39 228 164.803 228C161.185 226.859 159.191 222.964 160.312 219.28C160.395 219.069 160.435 218.858 160.563 218.647C162.765 211.662 185.05 186.94 225 180Z" fill="#5493F7" />
  <path d="M198.096 36.5429C211.917 47.1545 222.73 61.202 229.452 77.3111C240.393 103.693 241.979 133.093 233.963 160.521C227.91 176.585 218.595 172.392 198.473 168.11C178.346 163.832 101.769 142.191 82.0191 115.809C62.2689 89.4266 77.5079 68.2482 103.103 54.5741C128.698 40.9 181.142 26.0558 198.091 36.5379L198.096 36.5429Z" fill="#5493F7" />
  <path d="M90.7856 200.968L89 157.512L146 154V196.816C146 198.615 146 196.816 146 196.816L90.6623 200.242C90.6623 200.242 91.121 201.182 90.7856 200.968Z" fill="#3C3B6E" />
  <path d="M236.995 222.071V228.07C236.995 230.012 236.995 228.07 236.995 228.07L94 237V231.134H94.9603L236.748 222.332C236.787 222.332 236.663 221.815 237 222.071H236.995Z" fill="#B12234" />
  <path d="M236.623 222.383H236.038L93 230V224.59H93.9622L236.038 217.082C236.33 216.973 236.663 216.973 237 217.082L236.623 222.383Z" fill="#FEFEFE" />
  <path d="M236 205V210.778H235.294L93.9572 218.912C93.6661 219.029 93.3355 219.029 93 218.912V213.135H94.0806L235.418 205C235.418 205 235.793 205 236 205Z" fill="#FEFEFE" />
  <path d="M235.995 203.767L93 212V206.233L234.832 198H235.916L236 203.767H235.995Z" fill="#B12234" />
  <path d="M236 197.675H235.418L93 206V200.087L149.436 196.91H150.847L235.043 192H236V197.675V197.675Z" fill="#FEFEFE" />
  <path d="M93 219.409L236 210V216.591L93 226V219.409Z" fill="#B12234" />
  <path d="M148 160.892V155.006L234 150V155.567H232.915L148.917 160.892C148.917 160.892 148.208 161.135 148 160.892V160.892Z" fill="#B12234" />
  <path d="M148.045 159.973L158.459 159.298L234 155V160.766L148.963 165.819C148.71 166.06 148.293 166.06 148 165.819V159.973H148.04H148.045Z" fill="#FEFEFE" />
  <path d="M149 190.908V184.473H149.968L235.032 179H236V185.435L150.682 190.779C150.682 190.779 149 191.174 149 190.908Z" fill="#FEFEFE" />
  <path d="M235.87 180.424L149 186V179.444H149.968L235.032 174H236L235.875 180.424H235.87Z" fill="#B12234" />
  <path d="M236 173.85L218.524 174.921L149 179V173.028L234.777 168H235.619L236 173.85V173.85Z" fill="#FEFEFE" />
  <path d="M149.005 191.124L234 186V191.954L149.25 197L149 191.129L149.005 191.124Z" fill="#B12234" />
  <path d="M234 166.824H233.421L149 172V166.013L175.225 164.558L233.75 161L234 166.824V166.824Z" fill="#B12234" />
  <path d="M132.934 187V185.026C132.568 184.86 132.246 184.616 132 184.327H133.257V184C133.257 184.371 133.257 184.577 134.066 184H135L134.066 184.821C134.027 185.231 134.027 185.686 134.066 186.096L132.929 185.397V187H132.934Z" fill="#FDFDFD" />
  <path d="M103.072 186.841H104.656C104.576 186.57 104.576 186.271 104.656 186V186.93C104.656 187.261 104.656 186.93 104.656 186.93H106C106 186.93 106 187.35 105.088 187.439C104.176 187.529 105.088 187.439 105.088 188.131C105.126 188.369 105.126 188.64 105.088 188.911L104.059 188.401C103.781 188.64 103.424 188.85 103.029 189C103.067 188.701 103.067 188.369 103.029 188.07V187.65L102 187.14L103.067 186.841H103.072Z" fill="#FDFDFD" />
  <path d="M121 174.724L119.667 173.951L118.333 175C118.285 174.497 118.285 173.951 118.333 173.454L117 172.546H118.589C118.54 172.043 118.54 171.497 118.589 171V172.184H120.793L119.612 173.092C119.508 173.276 119.508 173.546 119.612 173.73C120.178 173.957 120.586 174.319 120.994 174.73L121 174.724Z" fill="#FDFDFD" />
  <path d="M103.677 163V161.785ZM103.677 161.235L103 160.569H103.764C103.764 160.569 104.176 160.569 104.176 160.02C104.204 159.708 104.204 159.354 104.176 159C104.204 159.391 104.204 159.824 104.176 160.215H105C104.822 160.49 104.62 160.765 104.414 160.998M104.442 161.547C104.414 161.938 104.414 162.371 104.442 162.763L103.618 162.097L104.442 161.547Z" fill="#FDFDFD" />
  <path d="M135 159.316L134.202 159.658C133.96 159.78 133.884 160 134.083 160.145L134.202 160.217V160.852L133.081 160.438L132.04 161V160.171L131 159.684H132.682C132.644 159.464 132.644 159.22 132.682 159V159.414C132.682 159.829 132.682 159.901 133.722 159.829H134.52L135 159.316Z" fill="#FDFDFD" />
  <path d="M98.1319 173.567H99.5659V172C99.6099 172.504 99.6099 173.062 99.5659 173.567H101C100.72 173.921 100.352 174.221 99.9341 174.425M99.978 175.433V176.85L98.7747 175.992H98.1264L96.9231 177C96.8297 176.544 96.8297 176.04 96.9231 175.583V174.575H96L99.978 175.433Z" fill="#FDFDFD" />
  <path d="M131 171.986L129.87 172.691C129.958 173.043 129.958 173.434 129.87 173.786L128.74 173.186H128.131C127.827 173.505 127.434 173.786 127.001 174V172.8C127.001 172.519 127.001 172.8 127.001 172.8C126.609 172.624 126.263 172.376 126 172.095H127.218C127.176 171.743 127.176 171.352 127.218 171V171.814C127.218 172.214 127.507 172.379 128.085 172.309H129.086L131 171.99V171.986Z" fill="#FDFDFD" />
  <path d="M143.736 181C143.775 181.624 143.775 182.314 143.736 182.938H145L144.061 184V185.062C144.182 185.626 144.182 186.25 144.061 186.814L143 185.752C142.714 186.317 142.39 186.755 141.939 187V184.186C141.571 183.933 141.247 183.562 141 183.124H142.264L143.731 181H143.736Z" fill="#FDFDFE" />
  <path d="M112.828 185.252H113.685C113.656 184.849 113.656 184.403 113.685 184V185.132M114.205 185.132H115L114.295 185.938V186.504C114.324 186.906 114.324 187.353 114.295 187.755L113.5 187.07L112.705 188V186.628C112.766 186.465 112.766 186.225 112.705 186.062H112L114.201 185.132H114.205Z" fill="#FDFDFE" />
  <path d="M94.3516 160V160.904H96L94.8265 161.452V163L93.1781 162.356L91.6484 162.904V162L90 161.452H92.6473C93.0594 160.935 93.6461 160.452 94.3516 160V160Z" fill="#FDFDFD" />
  <path d="M115 161.852L114 161.438L113 162C112.963 161.73 112.963 161.438 113 161.171L112 160.684H113V160C113.037 160.243 113.037 160.513 113 160.757H114.192L113.192 161.243V161.586C113.886 161.562 114.461 161.658 115 161.855V161.852Z" fill="#FDFDFD" />
  <path d="M122.913 158C122.946 158.352 122.946 158.742 122.913 159.094H124L123.088 159.906V161L122.279 160.401H121.579L120.879 161C120.808 160.682 120.808 160.33 120.879 160.011M120.913 159.412L120 158.813H121.192L120.913 159.412Z" fill="#FDFDFD" />
  <path d="M144 160.786L142.988 160.186L141.897 161C141.934 160.61 141.934 160.186 141.897 159.8C141.545 159.624 141.236 159.376 141 159.095H142.091C142.012 158.743 142.012 158.352 142.091 158C142.012 158.352 142.012 158.743 142.091 159.095C142.479 158.99 142.909 158.99 143.297 159.095L142.401 159.8C142.438 160.119 142.438 160.471 142.401 160.79H143.995L144 160.786Z" fill="#FDFDFD" />
  <path d="M123.042 187.683V186.7L122.314 186H123.119C123.119 186.279 123.119 186 123.119 186H124L123.325 186.808C123.3 187.158 123.3 187.546 123.325 187.896L122.598 187.3L122 188L123.039 187.683H123.042Z" fill="#FDFDFD" />
  <path d="M97 187.314L96.1335 187.938C96.2008 188.283 96.2008 188.658 96.1335 189L95.366 188.469H94.7013L93.9337 189C93.9654 188.688 93.9654 188.343 93.9337 188.031V187.593L93 187.062H94.1316C94.1632 186.717 94.1632 186.342 94.1316 186V187.062H95.1642L96.996 187.311L97 187.314Z" fill="#FDFDFD" />
  <path d="M136.245 174C136.122 173.573 136.122 173.101 136.245 172.675V171.222H138.122V171.095C138.727 170.968 139.396 170.968 140 171.095L138.604 171.948C138.547 172.375 138.547 172.847 138.604 173.274L137.029 172.548H136L136.245 174Z" fill="#FDFDFD" />
  <path d="M109.347 171C109.347 171.868 109.898 172.302 111 172.302L109.972 173.3C110.063 173.799 110.063 174.352 109.972 174.851L108.813 174.001H108.187L107.16 175C107.07 174.501 107.07 173.948 107.16 173.449L106 172.45H107.25L109.347 171V171Z" fill="#FDFDFD" />
  <path d="M115.45 192C115.498 192.484 115.498 193.021 115.45 193.505H117L116.002 194.474V195.443C116.05 195.829 116.05 196.268 116.002 196.706L114.702 195.881C114.352 196.319 113.9 196.706 113.401 197V195.351C113.401 194.814 113.401 195.351 113.401 195.351L112 194.382H113.3C113.799 194.382 114.203 194.042 114.298 193.557C114.601 192.975 114.999 192.438 115.45 192V192Z" fill="#FEFEFE" />
  <path d="M94.3769 196.106H95.2255V196H96L95.3501 196.404C95.3264 196.579 95.3264 196.773 95.3501 196.948L94.6499 196.65L94 197V196.456L94.3739 196.106H94.3769Z" fill="#FDFDFE" />
  <path d="M123.245 196V194.768C123.245 194.371 123.245 194.768 123.245 194.768L122 193.89H123.509L124.755 192C124.797 192.439 124.797 192.924 124.755 193.363C125.156 193.232 125.599 193.232 126 193.363L124.844 194.24C124.887 194.679 124.887 195.164 124.844 195.603L124.712 195.117H124.09L123.066 195.864L123.245 195.995V196Z" fill="#FDFDFE" />
  <path d="M143.422 191V191.979C143.422 192.298 143.422 191.979 143.422 191.979H145L143.792 192.613V193.911L142.49 193.336L141.281 194V193.048L141 192.24H142.44C142.721 191.777 143.041 191.373 143.417 191H143.422Z" fill="#FDFDFE" />
  <path d="M106 169.081C105.728 169.274 105.508 169.528 105.291 169.817C105.317 170.135 105.317 170.488 105.291 170.807L104.528 170.264L103.764 171C103.79 170.647 103.79 170.264 103.764 169.915L103 169.278C103.272 169.248 103.573 169.248 103.845 169.278L104.227 168.831C104.201 168.576 104.201 168.288 104.227 168C104.282 168.288 104.282 168.607 104.227 168.895L105.997 169.088L106 169.081Z" fill="#FEFEFE" />
  <path d="M135 169.916L133.634 169.376L132.366 170V169.08L131 168.54H132.123C132.675 168.54 133.049 168.36 133.246 168V168.299H134.757L133.489 168.923L135 169.926V169.916Z" fill="#FEFEFE" />
  <path d="M102 185.831V184.865H100.971L99.5755 186V184.068C99.5755 183.439 99.5755 184.068 99.5755 184.068L98 182.932H99.8777C99.6978 182.304 99.6978 181.622 99.8777 181V182.764H101.935L100.237 184.074C100.842 184.642 101.446 185.209 101.993 185.838L102 185.831Z" fill="#FEFEFE" />
  <path d="M145 166.238L143.928 167.362C143.967 167.849 143.967 168.388 143.928 168.875H143.228L142.155 170V168.342L141 167.513H142.278C142.317 167.026 142.317 166.487 142.278 166C142.317 166.539 142.317 167.125 142.278 167.658L145 166.243V166.238Z" fill="#FEFEFE" />
  <path d="M127.177 180.544H128.653V179C128.694 179.453 128.694 179.955 128.653 180.409H130L128.87 181.456C128.828 181.958 128.828 182.503 128.87 183L127.739 182.093H127.13L126 183V180.911L127.172 180.549L127.177 180.544Z" fill="#FEFEFE" />
  <path d="M112 169.424H113.065C113.065 169.424 113.597 169.424 113.71 169V169.183C113.71 169.517 113.71 169.183 113.71 169.183H115L114.012 169.88C114.048 170.181 114.048 170.515 114.012 170.817L113.024 170.303C112.758 170.576 112.415 170.817 112.036 171V169.973C112.036 169.639 112.036 169.973 112.036 169.973L112 169.427V169.424Z" fill="#FEFEFE" />
  <path d="M103.151 194.846H104.202C104.202 194.846 104.727 194.846 104.838 194.231C104.803 193.834 104.803 193.396 104.838 193C104.874 193.438 104.874 193.923 104.838 194.361H106L105.025 195.373C104.99 195.811 104.99 196.296 105.025 196.734L103.975 195.988L103 197V194.893L103.151 194.851V194.846Z" fill="#FDFDFE" />
  <path d="M135.041 195.871L134.077 195.04L133.038 196V194.124L132 193.292H133.259C133.149 192.876 133.149 192.416 133.259 192V192.832C133.259 193.304 133.58 193.54 134.222 193.54H136L135.036 194.5V195.084C135.072 195.337 135.072 195.584 135.036 195.876L135.041 195.871Z" fill="#FDFDFE" />
  <path d="M107.128 181.419H108.878V181C108.878 181.581 108.878 181 108.878 181H111L109.375 182.212C109.316 182.737 109.316 183.319 109.375 183.844L107.625 182.95C107.128 183.319 106.623 183.688 106 184V182.312L107.128 181.419V181.419Z" fill="#FEFEFE" />
  <path d="M116.434 180.156H118.299V180H120L118.572 181.213V182.687L117.145 181.95M116.265 181.95L115 183V181.213C115 180.631 115 181.213 115 181.213L116.265 181.95Z" fill="#FEFEFE" />
  <path d="M140 183L138.7 181.87H138L136.7 183C136.653 182.435 136.653 181.809 136.7 181.244L136 180.451H137.697V180C137.697 180 137.697 180.962 138.546 180.794H139.846L138.694 181.924V182.886L139.994 183H140Z" fill="#FEFEFE" />
  <path d="M126 168.065L124.889 168.904V170L123.779 169.356M123.094 169.356L122.111 170C122.024 169.678 122.024 169.322 122.111 169V168.548L121 168H122.197L123.094 169.356Z" fill="#FEFEFE" />
  <path d="M94.052 171.996C94.0163 171.678 94.0163 171.326 94.052 171.008L93 170.371H93.9762C94.3269 170.371 94.5765 170.159 94.7251 169.735C94.6894 169.481 94.6894 169.258 94.7251 169V169.989H96L94.948 170.723C95.0238 171.042 95.0238 171.394 94.948 171.712L93.9718 171.17H93.4458C93.6731 171.424 93.896 171.712 94.0476 172L94.052 171.996Z" fill="#FEFEFE" />
  <path d="M122 188.922C122 188.922 120.917 189.606 120.833 190.191C120.793 190.777 120.793 191.414 120.833 192L119.75 191.026H119.166L118.083 192V190.342C118.083 189.803 118.083 190.342 118.083 190.342L117 189.513H118.291V188C118.33 188.441 118.33 188.928 118.291 189.368H118.874L122 188.928V188.922Z" fill="#FEFEFE" />
  <path d="M103.032 177.999H103.971V177C104 177.325 104 177.678 103.971 177.999H105L104.212 178.676C104.183 179.001 104.183 179.354 104.212 179.675L103.424 179.088H103L103.698 180V179.001L103.032 178.002V177.999Z" fill="#FEFEFE" />
  <path d="M135 178.872L133.87 178.142H133.261L132.13 179V177.064L131 176.333H132.476C132.435 175.904 132.435 175.429 132.476 175V176.206H134.432L133.431 176.936V177.794L134.995 178.872H135Z" fill="#FEFEFE" />
  <path d="M112 164.311L110.619 165.444V168L108.94 166.867L107.559 168V166.071L106 165.106H107.858V163.177C107.858 162.381 107.858 164.486 107.858 165.106C107.858 165.727 107.858 165.106 107.858 165.106H109.715L111.993 164.311H112Z" fill="#FEFEFE" />
  <path d="M140 162.454L139.262 163.339V164.224C139.336 164.694 139.336 165.214 139.262 165.684L138.299 164.8H137.78L136.818 166C136.782 165.425 136.782 164.8 136.818 164.23M136.853 163.5L136 162.615H137.037V161C137.073 161.52 137.073 162.095 137.037 162.615H138.075L136.853 163.5V163.5Z" fill="#FEFEFE" />
  <path d="M93.8813 180.447V179.117C93.8813 178.685 93.8813 179.117 93.8813 179.117L93 178.452H94.0503V177.123C94.0503 176.574 94.0503 178.025 94.0503 178.336C94.0503 178.648 94.0503 178.336 94.0503 178.336H95L94.5251 179.001C94.0503 179.666 94.5251 179.001 94.5251 180.098V181L93.5754 180.219L93.8813 180.456V180.447Z" fill="#FEFEFE" />
  <path d="M122.676 179V177.064C122.417 176.89 122.207 176.676 122 176.333H122.728C122.753 175.904 122.753 175.429 122.728 175V176.461H123.611L122.883 177.452V178.913L124 178.055L122.673 179H122.676Z" fill="#FEFEFE" />
  <path d="M136.53 188H137.719V188.168C137.719 188.791 137.719 188.168 137.719 188.168H139C138.815 188.616 138.495 188.958 138.088 189.126V191.832L137.035 191.042H135.981L135.069 192C134.977 191.491 134.977 190.928 135.069 190.419M135.113 189.4L136.53 188.1L135.113 189.4Z" fill="#FEFEFE" />
  <path d="M131 188.684L130.199 189.658V190.342C130.166 190.829 130.166 191.368 130.199 191.855L129.295 191.026H128.705L127.904 192V190.342C127.59 190.145 127.277 189.855 127 189.513H128.077C128.044 189.026 128.044 188.487 128.077 188C128.11 188.441 128.11 188.928 128.077 189.368L130.996 188.684H131Z" fill="#FEFEFE" />
  <path d="M113 189.603L111.631 190.594V191.197C111.738 191.626 111.738 192.101 111.631 192.53L110.738 192.142H109.844L108.475 193V191.064L107 190.333H108.631C108.681 189.904 108.681 189.429 108.631 189C108.681 189.429 108.681 189.904 108.631 190.333H109.369L113 189.603Z" fill="#FEFEFE" />
  <path d="M100.122 189C100.18 189.421 100.18 189.878 100.122 190.294H102L100.424 191.172C100.482 191.593 100.482 192.05 100.424 192.466L101.273 192.122C100.849 192.466 100.302 192.769 99.6978 193V191.706C99.6978 191.285 99.6978 191.706 99.6978 191.706L98 191.059H100.058C100.115 191.059 99.9353 189.534 100.115 189H100.122Z" fill="#FEFEFE" />
  <path d="M116.965 163.821H118.483C118.436 163.235 118.436 162.586 118.483 162C118.529 162.586 118.529 163.235 118.483 163.821H120L118.727 165.174M118.773 165.998C118.727 166.584 118.727 167.233 118.773 167.819L117.401 166.647L116.128 168V165.356L115 164.533L118.773 166.005V165.998Z" fill="#FEFEFE" />
  <path d="M128.695 161.004C128.735 161.381 128.735 161.789 128.695 162.162H130L129.03 162.842V163.899L127.935 163.32L126.84 164C126.755 163.692 126.755 163.352 126.84 163.045V162.364L126 161.887H127.18C127.265 161.887 128.57 161.51 128.695 161V161.004Z" fill="#FEFEFE" />
  <path d="M102 167.855L100.748 167.026ZM99.8258 167.026L98.4129 168V166.487C98.4129 166.099 98.4129 166.487 98.4129 166.487L97 165.658H98.6839C98.6323 165.119 98.6323 164.533 98.6839 164V165.513H100.368L99.1161 166.487V167.461C100.039 167.461 101.019 167.606 101.89 167.901L99.8258 167.02V167.026Z" fill="#FEFEFE" />
  <path d="M112.12 177.325H113.327V177C113.364 177.265 113.678 177.471 114.066 177.44C114.103 177.44 114.182 177.44 114.223 177.412H115L114.103 177.998C114.14 178.291 114.14 178.616 114.103 178.909L113.012 178.323L112 179V178.002L112.116 177.325H112.12Z" fill="#FEFEFE" />
  <path d="M145 175.206L144.061 175.936V177.872L143 177.142L142.061 178C141.978 177.571 141.978 177.096 142.061 176.667C142.143 176.493 142.143 176.238 142.061 176.064C141.654 175.89 141.324 175.676 141 175.333H142.264C142.182 174.904 142.182 174.429 142.264 174V175.206H143.978H145V175.206Z" fill="#FEFEFE" />
</svg>
  