<svg version="1.1" xmlns="http://www.w3.org/2000/svg" width="400" height="400">
<path d="M0 0 C132 0 264 0 400 0 C400 132 400 264 400 400 C268 400 136 400 0 400 C0 268 0 136 0 0 Z " fill="#FEFEFE" transform="translate(0,0)"/>
<path d="M0 0 C3.15595698 1.57797849 3.91691921 4.76323309 5.30078125 7.859375 C5.77815987 8.90970917 5.77815987 8.90970917 6.2651825 9.98126221 C6.94147874 11.47294412 7.61463007 12.96605518 8.28491211 14.46044922 C9.29113157 16.70238938 10.30770917 18.93938106 11.32617188 21.17578125 C14.78206541 28.80509384 17.98765726 36.4545398 20.93334961 44.29589844 C22.25603242 47.64907646 23.825656 50.62690954 25.625 53.75 C31.08234455 63.54048685 35.34085384 73.89817528 39.77856445 84.17749023 C42.72690795 90.99056222 45.79646941 97.69682362 49.14453125 104.32421875 C50.22923476 107.71701285 50.02843833 109.59721057 49 113 C47.14453125 115.4921875 47.14453125 115.4921875 44.8125 117.875 C42.03837861 120.80639442 39.37806753 123.67519328 37 126.9375 C34.01316966 131.0341908 30.81202616 134.92912934 27.58203125 138.8359375 C25.62888716 141.21119531 23.72069756 143.61833993 21.82421875 146.0390625 C21.28361816 146.72605225 20.74301758 147.41304199 20.18603516 148.12084961 C19.11437835 149.4849962 18.04753302 150.85293813 16.98583984 152.22485352 C15.70257594 153.85335135 14.35644812 155.43193751 13 157 C12.34 157 11.68 157 11 157 C11 157.99 11 158.98 11 160 C10.01902344 159.96519531 9.03804688 159.93039063 8.02734375 159.89453125 C-4.88607268 159.57842914 -17.43410351 160.73176939 -29 167 C-29.94359375 167.48210937 -30.8871875 167.96421875 -31.859375 168.4609375 C-49.85947937 178.19195839 -58.20778722 193.81817017 -66 212 C-75.57 212 -85.14 212 -95 212 C-94.17951572 207.8975786 -93.34158888 205.26188928 -91.5859375 201.58203125 C-90.82627686 199.972677 -90.82627686 199.972677 -90.05126953 198.33081055 C-89.49810059 197.16976807 -88.94493164 196.00872559 -88.375 194.8125 C-87.18772502 192.29659573 -86.00668388 189.77781045 -84.828125 187.2578125 C-84.51912262 186.59728378 -84.21012024 185.93675507 -83.89175415 185.25621033 C-79.53518642 175.90400457 -75.42103718 166.44311014 -71.29052734 156.98950195 C-67.81830734 149.05339583 -64.24718902 141.17419563 -60.56298828 133.33422852 C-58.62478121 129.19956841 -56.73960223 125.04323823 -54.875 120.875 C-54.51446533 120.07151123 -54.15393066 119.26802246 -53.7824707 118.44018555 C-52.97735263 116.64541186 -52.17277181 114.8503971 -51.36865234 113.05517578 C-50.09442827 110.21078762 -48.8190389 107.36692433 -47.54321289 104.52325439 C-41.16838629 90.34008392 -41.16838629 90.34008392 -34.84765625 76.1328125 C-33.04770336 72.07720473 -31.15762682 68.06832237 -29.25 64.0625 C-23.89966528 52.75458398 -18.8260404 41.3271522 -13.9375 29.8125 C-9.63483074 19.7182269 -4.98706887 9.77465499 0 0 Z " fill="#3D85B4" transform="translate(195,88)"/>
<path d="M0 0 C0.33 0.66 0.66 1.32 1 2 C0.1706543 3.79321289 0.1706543 3.79321289 -1.17578125 5.97265625 C-1.66916992 6.7814624 -2.16255859 7.59026855 -2.67089844 8.42358398 C-3.21262695 9.29442627 -3.75435547 10.16526855 -4.3125 11.0625 C-5.42911059 12.88757736 -6.54498434 14.71310571 -7.66015625 16.5390625 C-8.2236377 17.45719727 -8.78711914 18.37533203 -9.36767578 19.32128906 C-11.71014936 23.1653842 -13.98227579 27.04901204 -16.25 30.9375 C-19.63050183 36.70916898 -23.09123475 42.422663 -26.61328125 48.109375 C-34.80962872 61.41337954 -42.78987584 74.85859294 -50.67919922 88.34667969 C-55.03558255 95.79271062 -59.49222649 103.17660646 -63.98828125 110.5390625 C-73.81749583 126.60668511 -73.81749583 126.60668511 -83.16894531 142.95507812 C-85.69253014 147.51493485 -88.43473063 151.88957407 -91.2734375 156.2578125 C-93.1805981 159.28683228 -94.93576181 162.37858997 -96.6875 165.5 C-97.20993286 166.34933105 -97.20993286 166.34933105 -97.74291992 167.21582031 C-99.9085835 170.77914035 -101.41812397 174.14218807 -102.69921875 178.1171875 C-104.99453959 184.12430346 -107.15831283 188.84819289 -113 192 C-126.40319953 195.07092435 -141.43264924 193.11615229 -155 192 C-153.28267704 188.38523876 -151.17323022 185.6743329 -148.5625 182.625 C-144.84245673 178.23666517 -141.22246395 173.78869529 -137.6875 169.25 C-129.84798001 159.20976583 -121.85232599 149.29748218 -113.5625 139.625 C-109.24531727 134.5856502 -105.16828186 129.38586421 -101.125 124.125 C-96.16023191 117.6667927 -91.00664552 111.44840835 -85.62036133 105.33911133 C-81.32242018 100.44044645 -77.35509643 95.35580806 -73.4296875 90.15625 C-70.06037435 85.77939305 -66.50790224 81.57327019 -62.93359375 77.36328125 C-60.99160092 75.16675256 -60.99160092 75.16675256 -60 73 C-59.34 73 -58.68 73 -58 73 C-57.34 71.35 -56.68 69.7 -56 68 C-55.34 68 -54.68 68 -54 68 C-53.75121094 67.44054687 -53.50242187 66.88109375 -53.24609375 66.3046875 C-51.78798449 63.607871 -50.03567626 61.47282998 -48.0625 59.125 C-44.48884916 54.82401958 -40.99848614 50.47403148 -37.5625 46.0625 C-33.12883019 40.37806695 -28.55950876 34.82730686 -23.8984375 29.328125 C-21.98838915 27.15899011 -21.98838915 27.15899011 -21 25 C-20.34 25 -19.68 25 -19 25 C-18.731875 24.4225 -18.46375 23.845 -18.1875 23.25 C-13.69190471 14.73202998 -6.18940548 7.3600375 0 0 Z " fill="#556CC4" transform="translate(329,108)"/>
<path d="M0 0 C0.495 0.99 0.495 0.99 1 2 C0.30014446 3.69636626 -0.40783317 5.39010016 -1.16748047 7.06054688 C-11.00008969 29.96677785 -13.65988796 65.15780963 -4.97460938 88.79003906 C-2.79414864 94.05315781 -0.37161942 99.1826755 2.22143555 104.25439453 C3 106 3 106 3 108 C-6.57 108 -16.14 108 -26 108 C-30 100 -30 100 -31.67578125 96.47265625 C-34.78043238 90.00401559 -37.91409269 84.29608446 -42.8125 78.96484375 C-44 77 -44 77 -43.74584961 74.68359375 C-42.93909598 71.78086515 -41.82634545 69.66442101 -40.25390625 67.09765625 C-39.67261963 66.13964111 -39.09133301 65.18162598 -38.49243164 64.19458008 C-37.8555542 63.16099365 -37.21867676 62.12740723 -36.5625 61.0625 C-35.55099393 59.39898343 -34.53950715 57.73545496 -33.52879333 56.07145691 C-32.44584101 54.2904492 -31.35980435 52.51134852 -30.2734375 50.73242188 C-26.72769054 44.91933175 -23.2245501 39.08059259 -19.72116089 33.24191284 C-18.59732914 31.37049781 -17.47090654 29.50066463 -16.34399414 27.63110352 C-12.00908368 20.42711919 -7.78273913 13.17105566 -3.64428711 5.85229492 C-2.49655323 3.86135581 -1.27474059 1.91211088 0 0 Z " fill="#427EB8" transform="translate(289,192)"/>
<path d="M0 0 C0.495 0.99 0.495 0.99 1 2 C0.1706543 3.79321289 0.1706543 3.79321289 -1.17578125 5.97265625 C-1.66916992 6.7814624 -2.16255859 7.59026855 -2.67089844 8.42358398 C-3.21262695 9.29442627 -3.75435547 10.16526855 -4.3125 11.0625 C-5.42911059 12.88757736 -6.54498434 14.71310571 -7.66015625 16.5390625 C-8.2236377 17.45719727 -8.78711914 18.37533203 -9.36767578 19.32128906 C-11.71014936 23.1653842 -13.98227579 27.04901204 -16.25 30.9375 C-19.63050183 36.70916898 -23.09123475 42.422663 -26.61328125 48.109375 C-34.80962872 61.41337954 -42.78987584 74.85859294 -50.67919922 88.34667969 C-53.18113421 92.62304472 -55.72145787 96.87499809 -58.27563477 101.12036133 C-59.89322826 103.82169437 -61.49757083 106.53058105 -63.09861755 109.241745 C-64.5757306 111.73779961 -66.06264024 114.22793923 -67.55102539 116.71728516 C-68.31795751 118.00467668 -69.08089154 119.29445724 -69.84008789 120.58642578 C-70.94961951 122.47274769 -72.07283287 124.3502695 -73.19921875 126.2265625 C-74.18668091 127.89066162 -74.18668091 127.89066162 -75.1940918 129.58837891 C-76.08801636 130.78213135 -76.08801636 130.78213135 -77 132 C-77.99 132 -78.98 132 -80 132 C-80.82638376 129.10765685 -81 127.11257569 -81 124 C-80.1028125 124.2784375 -80.1028125 124.2784375 -79.1875 124.5625 C-76.83591238 125.22093687 -76.83591238 125.22093687 -74 124 C-73.855625 123.195625 -73.71125 122.39125 -73.5625 121.5625 C-73 119 -73 119 -72 118 C-71.85363946 114.63370749 -71.92806521 112.21580438 -73 109 C-68.25 108 -68.25 108 -66 108 C-64.18397483 103.46167247 -64.18397483 103.46167247 -65 99 C-64.67 98.34 -64.34 97.68 -64 97 C-61.4375 96.375 -61.4375 96.375 -59 96 C-58.34 93.69 -57.68 91.38 -57 89 C-55.02 88.505 -55.02 88.505 -53 88 C-53.495 87.01 -53.495 87.01 -54 86 C-54.99 86 -55.98 86 -57 86 C-57 85.01 -57 84.02 -57 83 C-56.34 83 -55.68 83 -55 83 C-55.66 81.35 -56.32 79.7 -57 78 C-57.33 79.98 -57.66 81.96 -58 84 C-61.465 84.495 -61.465 84.495 -65 85 C-65 86.32 -65 87.64 -65 89 C-66.97946592 90.36363208 -68.9819245 91.69418644 -71 93 C-71.53625 93.9075 -72.0725 94.815 -72.625 95.75 C-73.07875 96.4925 -73.5325 97.235 -74 98 C-75.32 98 -76.64 98 -78 98 C-78 98.66 -78 99.32 -78 100 C-78.66 99.67 -79.32 99.34 -80 99 C-75.17946738 92.10760522 -70.0956432 85.59711181 -64.59448242 79.24145508 C-62.02511495 76.30984238 -62.02511495 76.30984238 -60 73 C-59.34 73 -58.68 73 -58 73 C-57.34 71.35 -56.68 69.7 -56 68 C-55.34 68 -54.68 68 -54 68 C-53.75121094 67.44054687 -53.50242187 66.88109375 -53.24609375 66.3046875 C-51.78798449 63.607871 -50.03567626 61.47282998 -48.0625 59.125 C-44.48884916 54.82401958 -40.99848614 50.47403148 -37.5625 46.0625 C-33.12883019 40.37806695 -28.55950876 34.82730686 -23.8984375 29.328125 C-21.98838915 27.15899011 -21.98838915 27.15899011 -21 25 C-20.34 25 -19.68 25 -19 25 C-18.731875 24.4225 -18.46375 23.845 -18.1875 23.25 C-13.69190471 14.73202998 -6.18940548 7.3600375 0 0 Z " fill="#269C9F" transform="translate(329,108)"/>
<path d="M0 0 C0.66 0 1.32 0 2 0 C2.85712696 2.39995548 3.22584094 3.51605512 2.125 5.875 C1.75375 6.57625 1.3825 7.2775 1 8 C0.814375 9.546875 0.814375 9.546875 0.625 11.125 C0.41875 12.07375 0.2125 13.0225 0 14 C-0.65097656 14.30550781 -1.30195313 14.61101562 -1.97265625 14.92578125 C-4.1528905 15.79869199 -4.1528905 15.79869199 -4.72265625 17.84765625 C-4.83480469 18.57855469 -4.94695312 19.30945313 -5.0625 20.0625 C-5.68392066 23.4312541 -6.41073138 26.66665977 -7.4375 29.9375 C-7.66308594 30.66839844 -7.88867188 31.39929688 -8.12109375 32.15234375 C-9 34 -9 34 -12 36 C-14.41349654 40.31888854 -14.16319869 44.18563858 -14 49 C-15.175625 49.2475 -15.175625 49.2475 -16.375 49.5 C-19.08589146 50.69983896 -19.08589146 50.69983896 -19.77734375 52.80859375 C-20.56887753 55.957396 -21 58.74311372 -21 62 C-21.66 62.66 -22.32 63.32 -23 64 C-23.28875 64.825 -23.5775 65.65 -23.875 66.5 C-25 69 -25 69 -27.125 70.3125 C-27.74375 70.539375 -28.3625 70.76625 -29 71 C-28.896875 71.70125 -28.79375 72.4025 -28.6875 73.125 C-29.14210034 77.30732311 -31.16466151 78.95201113 -34 82 C-32.515 81.505 -32.515 81.505 -31 81 C-31 82.32 -31 83.64 -31 85 C-31.61875 85.04125 -32.2375 85.0825 -32.875 85.125 C-35.31634509 85.84987129 -35.31634509 85.84987129 -36.3125 88.8125 C-37.2163126 91.83275723 -37.2163126 91.83275723 -36.4375 94.125 C-36.293125 94.74375 -36.14875 95.3625 -36 96 C-37.4375 98.25 -37.4375 98.25 -39 100 C-39.495 99.01 -39.495 99.01 -40 98 C-42.7819018 101.99142433 -43.38088063 105.22393633 -44 110 C-44.66 110.99 -45.32 111.98 -46 113 C-45.70630173 114.34262065 -45.3721042 115.67696283 -45 117 C-46 120 -46 120 -48 121 C-45.67553136 124.68040867 -43.92034525 126.2994906 -39.75 127.3125 C-38.5125 127.539375 -37.275 127.76625 -36 128 C-36 127.34 -36 126.68 -36 126 C-32.535 125.01 -32.535 125.01 -29 124 C-29 120.7 -29 117.4 -29 114 C-27.02 113.01 -27.02 113.01 -25 112 C-24.505 110.515 -24.505 110.515 -24 109 C-23.01 108.67 -22.02 108.34 -21 108 C-21 105.69 -21 103.38 -21 101 C-19 101 -17 101 -15 101 C-15 100.01 -15 99.02 -15 98 C-14.34 97.34 -13.68 96.68 -13 96 C-13 95.01 -13 94.02 -13 93 C-11.68 93 -10.36 93 -9 93 C-6.70784955 91.20808968 -6.70784955 91.20808968 -5 89 C-5 88.34 -5 87.68 -5 87 C-1.77208445 84.8480563 -0.71599191 84.79913557 3 85 C3.33 84.34 3.66 83.68 4 83 C5.8125 81.8125 5.8125 81.8125 8 81 C10.13671875 81.44921875 10.13671875 81.44921875 12 82 C11.03320312 82.53367187 10.06640625 83.06734375 9.0703125 83.6171875 C-10.16549575 94.51145398 -19.42361077 108.98842513 -28 129 C-37.57 129 -47.14 129 -57 129 C-56.17951572 124.8975786 -55.34158888 122.26188928 -53.5859375 118.58203125 C-52.82627686 116.972677 -52.82627686 116.972677 -52.05126953 115.33081055 C-51.49810059 114.16976807 -50.94493164 113.00872559 -50.375 111.8125 C-49.18772502 109.29659573 -48.00668388 106.77781045 -46.828125 104.2578125 C-46.51912262 103.59728378 -46.21012024 102.93675507 -45.89175415 102.25621033 C-41.53518642 92.90400457 -37.42103718 83.44311014 -33.29052734 73.98950195 C-29.81963135 66.0564051 -26.25021513 58.17999726 -22.56738281 50.34301758 C-20.60777419 46.16343488 -18.69941629 41.96278148 -16.8125 37.75 C-16.4522876 36.94788086 -16.0920752 36.14576172 -15.72094727 35.31933594 C-10.44776957 23.56093343 -5.22574086 11.77954114 0 0 Z " fill="#725EC0" transform="translate(157,171)"/>
<path d="M0 0 C0.93423645 3.01031744 1.04449911 3.86650268 0 7 C1.32 7.33 2.64 7.66 4 8 C2.4025692 13.97557446 -0.70579819 18.87981975 -3.875 24.125 C-4.74729248 25.58425903 -4.74729248 25.58425903 -5.63720703 27.07299805 C-7.41947291 30.05190054 -9.20936457 33.02612309 -11 36 C-12.00055954 37.67023785 -13.00059199 39.34079161 -14 41.01171875 C-16.43514128 45.08017644 -18.87731895 49.14436081 -21.32128906 53.20751953 C-24.29064419 58.14694419 -27.25463417 63.08958938 -30.21929932 68.03182983 C-31.85955489 70.76612335 -33.50010213 73.50024185 -35.140625 76.234375 C-35.69266602 77.15444336 -36.24470703 78.07451172 -36.81347656 79.02246094 C-37.2050293 79.67504883 -37.59658203 80.32763672 -38 81 C-38.66 80.67 -39.32 80.34 -40 80 C-39.67 79.01 -39.34 78.02 -39 77 C-38.34 77 -37.68 77 -37 77 C-37 75.35 -37 73.7 -37 72 C-40.88734369 75.20818244 -40.88734369 75.20818244 -42.3125 79.8125 C-42.209375 80.534375 -42.10625 81.25625 -42 82 C-42.99 82 -43.98 82 -45 82 C-45.99 82.99 -45.99 82.99 -47 84 C-47.66 84 -48.32 84 -49 84 C-47.74097453 79.08980066 -45.47853749 75.53152882 -42.64453125 71.421875 C-39.01315782 66.07400914 -35.80396649 60.46817641 -32.6875 54.80859375 C-29.92658098 49.82315694 -27.00868776 44.94011943 -24.0625 40.0625 C-23.31323242 38.81823242 -23.31323242 38.81823242 -22.54882812 37.54882812 C-21.53795626 35.87012865 -20.52656112 34.19174416 -19.51464844 32.51367188 C-17.00348809 28.34621427 -14.50224552 24.17281405 -12 20 C-10.92973564 18.21611695 -9.8594226 16.4322631 -8.7890625 14.6484375 C-8.26699219 13.77832031 -7.74492187 12.90820312 -7.20703125 12.01171875 C-4.8046875 8.0078125 -2.40234375 4.00390625 0 0 Z " fill="#EEF6F9" transform="translate(284,185)"/>
<path d="M0 0 C2.80482075 3.739761 4.08163132 6.491839 5.6875 10.8125 C7.94561112 16.69511787 10.61153891 22.14031785 13.67749023 27.65600586 C18.68160738 36.85279352 22.63250398 46.57374064 26.77856445 56.17749023 C29.72690795 62.99056222 32.79646941 69.69682362 36.14453125 76.32421875 C37.22923476 79.71701285 37.02843833 81.59721057 36 85 C34.14453125 87.4921875 34.14453125 87.4921875 31.8125 89.875 C29.03837861 92.80639442 26.37806753 95.67519328 24 98.9375 C21.01262499 103.03493786 17.80989188 106.93011818 14.58203125 110.83984375 C12.63601686 113.20719986 10.7249045 115.60001409 8.82421875 118.00390625 C8.01331787 119.02762329 8.01331787 119.02762329 7.18603516 120.07202148 C6.11633969 121.42466347 5.04953163 122.77959466 3.98583984 124.13696289 C0.22144673 128.88927663 0.22144673 128.88927663 -2 130 C-4.3329866 130.04022391 -6.66706666 130.04320247 -9 130 C-8.67 128.68 -8.34 127.36 -8 126 C-6.8553125 125.7834375 -6.8553125 125.7834375 -5.6875 125.5625 C-2.91827092 125.0367406 -2.91827092 125.0367406 0 124 C0 123.34 0 122.68 0 122 C0.99 121.505 0.99 121.505 2 121 C1.505 118.525 1.505 118.525 1 116 C2.423125 115.690625 2.423125 115.690625 3.875 115.375 C7.29166667 114.29166667 7.29166667 114.29166667 8.375 110.875 C8.58125 109.92625 8.7875 108.9775 9 108 C9.763125 107.938125 10.52625 107.87625 11.3125 107.8125 C14.16768644 107.21821802 14.16768644 107.21821802 15.875 104.75 C17.15774716 101.61439583 17.00023253 100.18255804 16 97 C16.99 96.505 16.99 96.505 18 96 C18.65213292 93.97536745 18.65213292 93.97536745 19 92 C20.32 92.33 21.64 92.66 23 93 C23.66 91.68 24.32 90.36 25 89 C25.66 89 26.32 89 27 89 C26.01 88.01 26.01 88.01 25 87 C24.67 86.01 24.34 85.02 24 84 C26.01822917 84.09765625 28.03645833 84.1953125 30.0546875 84.29296875 C30.69664062 84.19628906 31.33859375 84.09960938 32 84 C32.99 82.515 32.99 82.515 34 81 C33.34 81 32.68 81 32 81 C32.33 79.35 32.66 77.7 33 76 C32.01 76 31.02 76 30 76 C29.67 74.68 29.34 73.36 29 72 C26.525 72.495 26.525 72.495 24 73 C24 71.02 24 69.04 24 67 C24.66 67 25.32 67 26 67 C25.690625 66.319375 25.38125 65.63875 25.0625 64.9375 C23.86561336 61.62846046 23.49678027 58.47746186 23 55 C22.36784258 52.25141979 22.36784258 52.25141979 21 50 C20.154375 49.62875 19.30875 49.2575 18.4375 48.875 C16 47 16 47 15.453125 44.37109375 C15.21034797 41.57558765 15.05238871 38.80517743 15 36 C13.02 36 11.04 36 9 36 C9.309375 34.88625 9.309375 34.88625 9.625 33.75 C10.06551348 30.51956782 9.55376881 29.78042841 8 27 C7.30269194 24.6756398 6.63087848 22.34326294 6 20 C4.68 19.67 3.36 19.34 2 19 C2.33 16.69 2.66 14.38 3 12 C2.01 11.67 1.02 11.34 0 11 C0 7.37 0 3.74 0 0 Z " fill="#2DAB97" transform="translate(208,116)"/>
<path d="M0 0 C2.82378039 1.03538614 3.8243145 1.66619755 5.25 4.375 C6 7 6 7 6 11 C6.66 11 7.32 11 8 11 C8 11.66 8 12.32 8 13 C8.99 13 9.98 13 11 13 C11.66 14.98 12.32 16.96 13 19 C14.32 18.67 15.64 18.34 17 18 C13.33349111 23.95268503 9.22694884 29.0742142 4.48828125 34.203125 C0.67802274 38.48592734 -2.78887443 43.02224059 -6.3046875 47.546875 C-10.10936066 52.44130174 -14.05765258 57.21634035 -18 62 C-19.68910462 64.06119155 -21.37571313 66.12440967 -23.0625 68.1875 C-24.375 69.79166667 -25.6875 71.39583333 -27 73 C-28 70 -28 70 -27.0625 67.8125 C-26.711875 67.214375 -26.36125 66.61625 -26 66 C-25.34 66 -24.68 66 -24 66 C-24.66 65.34 -25.32 64.68 -26 64 C-28.97 64.99 -28.97 64.99 -32 66 C-32 64 -32 64 -29.765625 61.6953125 C-28.85296875 60.80585938 -27.9403125 59.91640625 -27 59 C-25.55915819 57.31200649 -24.1426746 55.60294811 -22.75 53.875 C-21.97269531 52.91464844 -21.19539062 51.95429688 -20.39453125 50.96484375 C-19.60433594 49.98644531 -18.81414062 49.00804687 -18 48 C-16.48031078 46.1448955 -14.95949838 44.29071046 -13.4375 42.4375 C-9.90616896 38.12006396 -6.38825513 33.79321073 -2.93359375 29.4140625 C-1.62392939 27.77896639 -0.28131594 26.16981917 1.08984375 24.5859375 C4.83290217 20.34304711 4.83290217 20.34304711 6.25 15.0625 C4.72171267 11.31819605 2.9657098 7.73758773 1.05859375 4.171875 C0 2 0 2 0 0 Z " fill="#ECF7F8" transform="translate(238,181)"/>
<path d="M0 0 C1.24766416 3.60436313 0.75399309 6.30543384 0 10 C-0.2784375 11.423125 -0.2784375 11.423125 -0.5625 12.875 C-0.706875 13.57625 -0.85125 14.2775 -1 15 C-0.01 14.67 0.98 14.34 2 14 C2.495 14.495 2.495 14.495 3 15 C3.33 14.34 3.66 13.68 4 13 C4.66 13 5.32 13 6 13 C4.32103768 17.74773233 1.82366298 21.88657213 -0.75 26.1875 C-1.16765625 26.89197266 -1.5853125 27.59644531 -2.015625 28.32226562 C-4.76101798 32.94674618 -7.53390511 37.5547189 -10.30419922 42.16430664 C-11.91068314 44.85064565 -13.50508881 47.54390629 -15.09683228 50.23899841 C-16.57465931 52.7358973 -18.06208071 55.2270034 -19.55102539 57.71728516 C-20.31795751 59.00467668 -21.08089154 60.29445724 -21.84008789 61.58642578 C-22.94961951 63.47274769 -24.07283287 65.3502695 -25.19921875 67.2265625 C-25.85752686 68.33596191 -26.51583496 69.44536133 -27.1940918 70.58837891 C-28.08801636 71.78213135 -28.08801636 71.78213135 -29 73 C-29.99 73 -30.98 73 -32 73 C-32.82638376 70.10765685 -33 68.11257569 -33 65 C-32.1028125 65.2784375 -32.1028125 65.2784375 -31.1875 65.5625 C-28.83591238 66.22093687 -28.83591238 66.22093687 -26 65 C-25.855625 64.195625 -25.71125 63.39125 -25.5625 62.5625 C-25 60 -25 60 -24 59 C-23.85363946 55.63370749 -23.92806521 53.21580438 -25 50 C-20.25 49 -20.25 49 -18 49 C-16.18397483 44.46167247 -16.18397483 44.46167247 -17 40 C-16.67 39.34 -16.34 38.68 -16 38 C-13.4375 37.375 -13.4375 37.375 -11 37 C-10.34 34.69 -9.68 32.38 -9 30 C-7.68 29.67 -6.36 29.34 -5 29 C-5.33 28.34 -5.66 27.68 -6 27 C-6.99 27 -7.98 27 -9 27 C-9 26.01 -9 25.02 -9 24 C-8.34 24 -7.68 24 -7 24 C-7.66 22.35 -8.32 20.7 -9 19 C-9.33 20.98 -9.66 22.96 -10 25 C-12.31 25.33 -14.62 25.66 -17 26 C-17 27.32 -17 28.64 -17 30 C-18.97946592 31.36363208 -20.9819245 32.69418644 -23 34 C-23.53625 34.9075 -24.0725 35.815 -24.625 36.75 C-25.07875 37.4925 -25.5325 38.235 -26 39 C-27.32 39 -28.64 39 -30 39 C-30 39.66 -30 40.32 -30 41 C-30.66 40.67 -31.32 40.34 -32 40 C-27.17946738 33.10760522 -22.0956432 26.59711181 -16.59448242 20.24145508 C-14.02511495 17.30984238 -14.02511495 17.30984238 -12 14 C-11.34 14 -10.68 14 -10 14 C-9.34 12.35 -8.68 10.7 -8 9 C-7.34 9 -6.68 9 -6 9 C-5.7525 8.443125 -5.505 7.88625 -5.25 7.3125 C-3.78393985 4.60028873 -1.97010529 2.36412635 0 0 Z " fill="#428BAD" transform="translate(281,167)"/>
<path d="M0 0 C0.33 0.66 0.66 1.32 1 2 C0.30014446 3.69636626 -0.40783317 5.39010016 -1.16748047 7.06054688 C-11.00008969 29.96677785 -13.65988796 65.15780963 -4.97460938 88.79003906 C-2.79414864 94.05315781 -0.37161942 99.1826755 2.22143555 104.25439453 C3 106 3 106 3 108 C-6.57 108 -16.14 108 -26 108 C-26 107.67 -26 107.34 -26 107 C-19.73 107 -13.46 107 -7 107 C-7.66 105.35 -8.32 103.7 -9 102 C-8.01 101.01 -7.02 100.02 -6 99 C-6.515625 98.5875 -7.03125 98.175 -7.5625 97.75 C-8.036875 97.1725 -8.51125 96.595 -9 96 C-8.625 94 -8.625 94 -8 92 C-8.33 91.01 -8.66 90.02 -9 89 C-8.34 89 -7.68 89 -7 89 C-7.474375 88.62875 -7.94875 88.2575 -8.4375 87.875 C-11.18369848 84.57956182 -11.03472643 80.90288726 -10.875 76.75 C-10.91625 75.8425 -10.9575 74.935 -11 74 C-11.99 73.34 -12.98 72.68 -14 72 C-14 70.68 -14 69.36 -14 68 C-14.33 67.01 -14.66 66.02 -15 65 C-14.34 64.34 -13.68 63.68 -13 63 C-12.7933628 60.34519574 -12.7933628 60.34519574 -12.9375 57.25 C-13.05457931 51.06545762 -12.64546269 45.04957548 -12.0234375 38.8984375 C-11.72717152 35.80104854 -11.72717152 35.80104854 -14 33 C-14.598125 33.66 -15.19625 34.32 -15.8125 35 C-18 37 -18 37 -21 37 C-19.38426351 32.35026943 -16.89624719 28.4848168 -14.25 24.375 C-10.70538572 18.79540817 -7.34028481 13.18233091 -4.25390625 7.33203125 C-2.9127717 4.83777167 -1.47323425 2.41816584 0 0 Z " fill="#489CA8" transform="translate(289,192)"/>
<path d="M0 0 C0.99 0 1.98 0 3 0 C3 3 3 3 0.5 5.6875 C-0.325 6.450625 -1.15 7.21375 -2 8 C-1.34 8.66 -0.68 9.32 0 10 C-0.495 10.4125 -0.99 10.825 -1.5 11.25 C-3.43386092 13.12202338 -3.43386092 13.12202338 -3 17 C-3.33 17.66 -3.66 18.32 -4 19 C-6.31 18.67 -8.62 18.34 -11 18 C-11.66 20.97 -12.32 23.94 -13 27 C-13.78375 27.103125 -14.5675 27.20625 -15.375 27.3125 C-18.33045181 27.77595022 -18.33045181 27.77595022 -20 31 C-20 32.32 -20 33.64 -20 35 C-20.61875 35.12375 -21.2375 35.2475 -21.875 35.375 C-24.19120832 35.87197356 -24.19120832 35.87197356 -26 38 C-25.34 38.66 -24.68 39.32 -24 40 C-24.66 40.66 -25.32 41.32 -26 42 C-25.34 42.99 -24.68 43.98 -24 45 C-21.67699616 45.41609272 -21.67699616 45.41609272 -18.9921875 45.29296875 C-18.00605469 45.28330078 -17.01992187 45.27363281 -16.00390625 45.26367188 C-14.97136719 45.23853516 -13.93882812 45.21339844 -12.875 45.1875 C-11.83472656 45.17396484 -10.79445312 45.16042969 -9.72265625 45.14648438 C-7.14792373 45.11105228 -4.5742167 45.06165221 -2 45 C-1.505 44.01 -1.505 44.01 -1 43 C-1.66 43 -2.32 43 -3 43 C-3 42.34 -3 41.68 -3 41 C-1.68 41 -0.36 41 1 41 C1.495 40.01 1.495 40.01 2 39 C2 39.66 2 40.32 2 41 C2.99 41 3.98 41 5 41 C5.66 39.02 6.32 37.04 7 35 C9.475 34.505 9.475 34.505 12 34 C11.41646396 35.6975594 10.71949183 37.35544725 10 39 C9.70901932 39.66511597 9.41803864 40.33023193 9.11824036 41.01550293 C6.24906381 46.57602358 6.24906381 46.57602358 2.92782593 47.70336914 C0.35843971 47.92723778 -2.0993478 47.90039278 -4.67578125 47.78125 C-5.6009404 47.76993042 -6.52609955 47.75861084 -7.47929382 47.74694824 C-10.42582913 47.70226534 -13.36744387 47.60192668 -16.3125 47.5 C-18.3130806 47.45986215 -20.31373773 47.4233619 -22.31445312 47.390625 C-27.21152285 47.30255706 -32.10492822 47.16457214 -37 47 C-35.28267704 43.38523876 -33.17323022 40.6743329 -30.5625 37.625 C-26.84246579 33.23667586 -23.22219828 28.78889593 -19.6875 24.25 C-15.4741879 18.84837657 -11.19624248 13.50320552 -6.875 8.1875 C-6.30612061 7.4872168 -5.73724121 6.78693359 -5.15112305 6.06542969 C-1.13591074 1.13591074 -1.13591074 1.13591074 0 0 Z " fill="#6A5FCA" transform="translate(211,253)"/>
<path d="M0 0 C0.66 0 1.32 0 2 0 C2.85712696 2.39995548 3.22584094 3.51605512 2.125 5.875 C1.75375 6.57625 1.3825 7.2775 1 8 C0.87625 9.03125 0.7525 10.0625 0.625 11.125 C0.315625 12.548125 0.315625 12.548125 0 14 C-0.65097656 14.30550781 -1.30195313 14.61101562 -1.97265625 14.92578125 C-4.1528905 15.79869199 -4.1528905 15.79869199 -4.72265625 17.84765625 C-4.83480469 18.57855469 -4.94695312 19.30945313 -5.0625 20.0625 C-5.68392066 23.4312541 -6.41073138 26.66665977 -7.4375 29.9375 C-7.66308594 30.66839844 -7.88867188 31.39929688 -8.12109375 32.15234375 C-9 34 -9 34 -12 36 C-14.41349654 40.31888854 -14.16319869 44.18563858 -14 49 C-15.1446875 49.2475 -15.1446875 49.2475 -16.3125 49.5 C-19.43043167 51.24024093 -19.51626766 51.81336736 -20.5625 55.0625 C-20.74941406 55.77535156 -20.93632812 56.48820312 -21.12890625 57.22265625 C-21.56009766 58.10244141 -21.56009766 58.10244141 -22 59 C-24.05444336 59.61108398 -24.05444336 59.61108398 -26 60 C-23.74460464 52.68520425 -20.76765497 45.91475931 -17.5 39 C-11.46383956 26.08694152 -5.68876975 13.06925352 0 0 Z " fill="#6B74BC" transform="translate(157,171)"/>
<path d="M0 0 C0.66 0 1.32 0 2 0 C2.75 1.6875 2.75 1.6875 3 4 C1.1875 6.75 1.1875 6.75 -1 9 C-1.66 9 -2.32 9 -3 9 C-3 12.3 -3 15.6 -3 19 C-2.34 19 -1.68 19 -1 19 C-0.01 15.535 -0.01 15.535 1 12 C1.66 12 2.32 12 3 12 C3.33 10.02 3.66 8.04 4 6 C4.99 7.485 4.99 7.485 6 9 C4.24736275 12.17707194 2.470001 15.339601 0.6875 18.5 C0.18798828 19.40621094 -0.31152344 20.31242187 -0.82617188 21.24609375 C-1.31279297 22.10332031 -1.79941406 22.96054688 -2.30078125 23.84375 C-2.74591064 24.63974609 -3.19104004 25.43574219 -3.6496582 26.25585938 C-4.095271 26.83142578 -4.54088379 27.40699219 -5 28 C-5.99 28 -6.98 28 -8 28 C-8.33 28.99 -8.66 29.98 -9 31 C-10.32 30.67 -11.64 30.34 -13 30 C-13.0272415 28.58344207 -13.04650467 27.16672955 -13.0625 25.75 C-13.07410156 24.96109375 -13.08570313 24.1721875 -13.09765625 23.359375 C-12.79679135 16.09047902 -8.94975705 10.61107199 -4.4375 5.125 C-3.65246094 4.15820312 -2.86742187 3.19140625 -2.05859375 2.1953125 C-1.37925781 1.47085938 -0.69992187 0.74640625 0 0 Z " fill="#3193A8" transform="translate(293,152)"/>
<path d="M0 0 C-0.96679688 0.53367188 -1.93359375 1.06734375 -2.9296875 1.6171875 C-22.16549575 12.51145398 -31.42361077 26.98842513 -40 47 C-47.59 47 -55.18 47 -63 47 C-63 46.67 -63 46.34 -63 46 C-58.05 46 -53.1 46 -48 46 C-48 45.34 -48 44.68 -48 44 C-45.69 43.34 -43.38 42.68 -41 42 C-41 38.7 -41 35.4 -41 32 C-39.68 31.34 -38.36 30.68 -37 30 C-36.67 29.01 -36.34 28.02 -36 27 C-35.01 26.67 -34.02 26.34 -33 26 C-33 23.69 -33 21.38 -33 19 C-31 19 -29 19 -27 19 C-27 18.01 -27 17.02 -27 16 C-26.34 15.34 -25.68 14.68 -25 14 C-25 13.01 -25 12.02 -25 11 C-23.68 11 -22.36 11 -21 11 C-18.70784955 9.20808968 -18.70784955 9.20808968 -17 7 C-17 6.34 -17 5.68 -17 5 C-13.77208445 2.8480563 -12.71599191 2.79913557 -9 3 C-8.67 2.34 -8.34 1.68 -8 1 C-4.91025722 -1.02431423 -3.46521435 -1.02430865 0 0 Z " fill="#6C68C0" transform="translate(169,253)"/>
<path d="M0 0 C2.80482075 3.739761 4.08163132 6.491839 5.6875 10.8125 C7.69927254 16.05337986 9.95641096 20.95568184 12.6875 25.875 C16.54939628 32.83989623 19.83236232 40.03579922 23.0625 47.3125 C23.56418701 48.42931152 24.06587402 49.54612305 24.58276367 50.69677734 C25.04142822 51.74172363 25.50009277 52.78666992 25.97265625 53.86328125 C26.38781494 54.80469971 26.80297363 55.74611816 27.23071289 56.71606445 C27.48457764 57.46976318 27.73844238 58.22346191 28 59 C27.67 59.66 27.34 60.32 27 61 C23.18604651 55.53333333 23.18604651 55.53333333 22.0625 52.3125 C21.19363744 49.74667106 21.19363744 49.74667106 18.4375 48.875 C16 47 16 47 15.453125 44.37109375 C15.21034797 41.57558765 15.05238871 38.80517743 15 36 C13.02 36 11.04 36 9 36 C9.20625 35.2575 9.4125 34.515 9.625 33.75 C10.06551348 30.51956782 9.55376881 29.78042841 8 27 C7.30269194 24.6756398 6.63087848 22.34326294 6 20 C4.68 19.67 3.36 19.34 2 19 C2.33 16.69 2.66 14.38 3 12 C2.01 11.67 1.02 11.34 0 11 C0 7.37 0 3.74 0 0 Z " fill="#2EA1A0" transform="translate(208,116)"/>
<path d="M0 0 C0.66 0.66 1.32 1.32 2 2 C1.6070459 5.66757163 -0.37243948 8.74487896 -2 12 C-3.01442703 14.76661918 -2.97689659 17.09326579 -2.875 20 C-2.81942052 22.97906037 -2.90862553 23.84770922 -4.5 26.5 C-4.995 26.995 -5.49 27.49 -6 28 C-4.68 28 -3.36 28 -2 28 C-2 30.66666667 -2 33.33333333 -2 36 C-1.34 36.33 -0.68 36.66 0 37 C-1.32 37 -2.64 37 -4 37 C-5.82917129 35.12905318 -7.28827746 33.40615833 -8.8125 31.3125 C-9.23208984 30.78205078 -9.65167969 30.25160156 -10.08398438 29.70507812 C-13.06513129 25.70238499 -13.06513129 25.70238499 -12.77832031 22.609375 C-11.93773082 19.7912381 -10.8129281 17.64214585 -9.27734375 15.13671875 C-8.47006836 13.80737305 -8.47006836 13.80737305 -7.64648438 12.45117188 C-7.08251953 11.53916016 -6.51855469 10.62714844 -5.9375 9.6875 C-5.36966797 8.75615234 -4.80183594 7.82480469 -4.21679688 6.86523438 C-2.81775907 4.57269344 -1.41201519 2.28456247 0 0 Z M-7 28 C-6 30 -6 30 -6 30 Z " fill="#765FBE" transform="translate(258,244)"/>
<path d="M0 0 C0.99 0 1.98 0 3 0 C3.33 0.99 3.66 1.98 4 3 C3.071875 3.495 2.14375 3.99 1.1875 4.5 C-2.87736839 7.15225455 -3.64166675 10.4722225 -5 15 C-4.01 15.33 -3.02 15.66 -2 16 C-2.33 16.66 -2.66 17.32 -3 18 C-5.64 17.67 -8.28 17.34 -11 17 C-11 18.65 -11 20.3 -11 22 C-11.66 22 -12.32 22 -13 22 C-13 22.66 -13 23.32 -13 24 C-13.78375 23.938125 -14.5675 23.87625 -15.375 23.8125 C-16.674375 23.9053125 -16.674375 23.9053125 -18 24 C-18.66 24.99 -19.32 25.98 -20 27 C-20.66 26.34 -21.32 25.68 -22 25 C-17.75002368 19.34334138 -13.29589769 13.85760879 -8.75 8.4375 C-8.23083008 7.80569824 -7.71166016 7.17389648 -7.17675781 6.52294922 C-5.85046509 4.95695986 -4.4310864 3.4708388 -3 2 C-2.01 2 -1.02 2 0 2 C0 1.34 0 0.68 0 0 Z " fill="#617CBA" transform="translate(251,206)"/>
<path d="M0 0 C1.25240315 3.75720944 0.4357968 4.41050801 -1 8 C-1.45555876 10.66402839 -1.72626593 13.30828164 -2 16 C-4.31 16.33 -6.62 16.66 -9 17 C-9 18.32 -9 19.64 -9 21 C-10.97946592 22.36363208 -12.9819245 23.69418644 -15 25 C-15.53625 25.9075 -16.0725 26.815 -16.625 27.75 C-17.07875 28.4925 -17.5325 29.235 -18 30 C-19.32 30 -20.64 30 -22 30 C-22 30.66 -22 31.32 -22 32 C-22.66 31.67 -23.32 31.34 -24 31 C-19.17946738 24.10760522 -14.0956432 17.59711181 -8.59448242 11.24145508 C-6.02511495 8.30984238 -6.02511495 8.30984238 -4 5 C-3.34 5 -2.68 5 -2 5 C-1.34 3.35 -0.68 1.7 0 0 Z " fill="#4C86AE" transform="translate(273,176)"/>
<path d="M0 0 C1.32 0.66 2.64 1.32 4 2 C4.1875 4.375 4.1875 4.375 4 7 C3.01 7.66 2.02 8.32 1 9 C3.58590343 12.50944037 4.9915966 13.9957983 9 16 C0.585 16.495 0.585 16.495 -8 17 C-7.12495039 12.62475197 -6.45180005 10.53059208 -4 7 C-3.34 6.67 -2.68 6.34 -2 6 C-1.27306096 4.02111039 -0.60183749 2.02045442 0 0 Z " fill="#7652CE" transform="translate(108,283)"/>
<path d="M0 0 C0.33 0.66 0.66 1.32 1 2 C0.07543945 3.96777344 0.07543945 3.96777344 -1.38671875 6.359375 C-1.91330078 7.22820312 -2.43988281 8.09703125 -2.98242188 8.9921875 C-3.82643555 10.35730469 -3.82643555 10.35730469 -4.6875 11.75 C-5.23083984 12.64460938 -5.77417969 13.53921875 -6.33398438 14.4609375 C-9.12761214 19.04154119 -11.98165157 23.56427627 -15 28 C-15.33 27.01 -15.66 26.02 -16 25 C-18.31 26.98 -20.62 28.96 -23 31 C-23.66 30.67 -24.32 30.34 -25 30 C-23.71937515 28.2925002 -22.38232443 26.62626404 -21 25 C-20.34 25 -19.68 25 -19 25 C-18.5978125 24.13375 -18.5978125 24.13375 -18.1875 23.25 C-13.69190471 14.73202998 -6.18940548 7.3600375 0 0 Z " fill="#41A89F" transform="translate(329,108)"/>
<path d="M0 0 C-0.58353604 1.6975594 -1.28050817 3.35544725 -2 5 C-2.43647102 5.99767395 -2.43647102 5.99767395 -2.88175964 7.01550293 C-5.75093619 12.57602358 -5.75093619 12.57602358 -9.07217407 13.70336914 C-11.64156029 13.92723778 -14.0993478 13.90039278 -16.67578125 13.78125 C-17.6009404 13.76993042 -18.52609955 13.75861084 -19.47929382 13.74694824 C-22.42582913 13.70226534 -25.36744387 13.60192668 -28.3125 13.5 C-30.3130806 13.45986215 -32.31373773 13.4233619 -34.31445312 13.390625 C-39.21152285 13.30255706 -44.10492822 13.16457214 -49 13 C-48.67 12.34 -48.34 11.68 -48 11 C-36.78 11 -25.56 11 -14 11 C-13.67 10.34 -13.34 9.68 -13 9 C-13.66 9 -14.32 9 -15 9 C-15 8.34 -15 7.68 -15 7 C-13.68 7 -12.36 7 -11 7 C-10.67 6.34 -10.34 5.68 -10 5 C-10 5.66 -10 6.32 -10 7 C-9.01 7 -8.02 7 -7 7 C-6.731875 6.030625 -6.46375 5.06125 -6.1875 4.0625 C-5.795625 3.051875 -5.40375 2.04125 -5 1 C-2 0 -2 0 0 0 Z " fill="#6D6CBF" transform="translate(223,287)"/>
<path d="M0 0 C0.99 0.33 1.98 0.66 3 1 C3.48987856 3.68912063 3.33241129 5.45162535 1.90722656 7.80273438 C0.36782074 9.83676558 -1.23201486 11.79872016 -2.875 13.75 C-3.43058594 14.43449219 -3.98617187 15.11898437 -4.55859375 15.82421875 C-8.68080357 20.84040179 -8.68080357 20.84040179 -11 22 C-13.3329866 22.04022391 -15.66706666 22.04320247 -18 22 C-17.67 20.68 -17.34 19.36 -17 18 C-16.236875 17.855625 -15.47375 17.71125 -14.6875 17.5625 C-11.91827092 17.0367406 -11.91827092 17.0367406 -9 16 C-9 15.34 -9 14.68 -9 14 C-8.34 13.67 -7.68 13.34 -7 13 C-7.33 11.35 -7.66 9.7 -8 8 C-7.05125 7.79375 -6.1025 7.5875 -5.125 7.375 C-1.70833333 6.29166667 -1.70833333 6.29166667 -0.625 2.875 C-0.315625 1.451875 -0.315625 1.451875 0 0 Z " fill="#2F99A3" transform="translate(217,224)"/>
<path d="M0 0 C3 1 3 1 4.4921875 3.6328125 C5 7 5 7 3.0078125 10.4296875 C2.0675356 11.59510113 1.10561799 12.74332075 0.125 13.875 C-0.36097656 14.46796875 -0.84695312 15.0609375 -1.34765625 15.671875 C-2.54688597 17.12976211 -3.77112073 18.56701622 -5 20 C-5.99 19.67 -6.98 19.34 -8 19 C-8.33 17.35 -8.66 15.7 -9 14 C-8.34 14 -7.68 14 -7 14 C-6.9175 13.4225 -6.835 12.845 -6.75 12.25 C-6 10 -6 10 -4.0625 8.125 C-1.60204921 5.58999009 -0.91956427 3.37173564 0 0 Z " fill="#F5F9FA" transform="translate(231,216)"/>
<path d="M0 0 C0.33 0 0.66 0 1 0 C1.13153626 7.13218849 0.76798386 13.83124978 -0.52685547 20.85986328 C-0.99341929 23.95632551 -1.12930752 26.86324158 -1.1328125 29.9921875 C-1.13410156 31.10980469 -1.13539063 32.22742188 -1.13671875 33.37890625 C-1.13285156 34.53261719 -1.12898438 35.68632812 -1.125 36.875 C-1.12886719 38.02097656 -1.13273437 39.16695312 -1.13671875 40.34765625 C-1.13114506 45.19119056 -1.10085171 49.90160681 -0.3671875 54.6953125 C-0.24601562 55.78585937 -0.12484375 56.87640625 0 58 C-0.66 58.66 -1.32 59.32 -2 60 C-6.03199131 40.27204253 -4.51047238 19.52938571 0 0 Z " fill="#DBF7F9" transform="translate(283,211)"/>
<path d="M0 0 C0 0.99 0 1.98 0 3 C-0.66 3.66 -1.32 4.32 -2 5 C-2.433125 6.2375 -2.433125 6.2375 -2.875 7.5 C-4 10 -4 10 -6.125 11.3125 C-7.053125 11.6528125 -7.053125 11.6528125 -8 12 C-7.896875 12.70125 -7.79375 13.4025 -7.6875 14.125 C-8.14210034 18.30732311 -10.16466151 19.95201113 -13 23 C-12.01 22.67 -11.02 22.34 -10 22 C-10 23.32 -10 24.64 -10 26 C-11.65 26.33 -13.3 26.66 -15 27 C-15.56413455 21.1612074 -13.62053118 16.99488466 -11.25 11.8125 C-10.90195313 11.00619141 -10.55390625 10.19988281 -10.1953125 9.36914062 C-5.98971322 0 -5.98971322 0 0 0 Z " fill="#6E63C4" transform="translate(136,230)"/>
<path d="M0 0 C2.3431213 0.25561323 4.67843403 0.59270772 7 1 C7.33 1.66 7.66 2.32 8 3 C3.4933133 9.1113403 -1.05206035 15.23724452 -6 21 C-6.33 21 -6.66 21 -7 21 C-7.3125 18.8125 -7.3125 18.8125 -7 16 C-5.33333333 14.33333333 -3.66666667 12.66666667 -2 11 C-2.07606836 8.86196946 -2.07606836 8.86196946 -3 7 C-3 6.01 -3 5.02 -3 4 C-2.34 4 -1.68 4 -1 4 C-0.67 2.68 -0.34 1.36 0 0 Z " fill="#32A69D" transform="translate(227,208)"/>
<path d="M0 0 C0.66 0 1.32 0 2 0 C2.85712696 2.39995548 3.22584094 3.51605512 2.125 5.875 C1.75375 6.57625 1.3825 7.2775 1 8 C0.87625 9.03125 0.7525 10.0625 0.625 11.125 C0.41875 12.07375 0.2125 13.0225 0 14 C-0.64710938 14.29390625 -1.29421875 14.5878125 -1.9609375 14.890625 C-4.20095564 15.82322791 -4.20095564 15.82322791 -4.828125 18.1640625 C-4.96734375 18.97617188 -5.1065625 19.78828125 -5.25 20.625 C-5.39953125 21.44226563 -5.5490625 22.25953125 -5.703125 23.1015625 C-5.80109375 23.72804687 -5.8990625 24.35453125 -6 25 C-6.66 24.67 -7.32 24.34 -8 24 C-8.66 26.31 -9.32 28.62 -10 31 C-10.66 31 -11.32 31 -12 31 C-12 31.66 -12 32.32 -12 33 C-12.66 33 -13.32 33 -14 33 C-12.63568604 28.70326019 -11.02112055 24.6216523 -9.1796875 20.5078125 C-8.64472656 19.30898437 -8.10976562 18.11015625 -7.55859375 16.875 C-6.99745717 15.62497246 -6.43625849 14.3749728 -5.875 13.125 C-5.30573112 11.85167802 -4.73671824 10.57824156 -4.16796875 9.3046875 C-2.78115731 6.20199072 -1.39175486 3.10048172 0 0 Z " fill="#6676B6" transform="translate(157,171)"/>
<path d="M0 0 C0.33 0.66 0.66 1.32 1 2 C1.66 2.33 2.32 2.66 3 3 C2.67 3.99 2.34 4.98 2 6 C2.66 6 3.32 6 4 6 C4 7.98 4 9.96 4 12 C3.34 12 2.68 12 2 12 C1.34 13.32 0.68 14.64 0 16 C-0.66 16 -1.32 16 -2 16 C-2.144375 16.78375 -2.28875 17.5675 -2.4375 18.375 C-3 21 -3 21 -4 23 C-4.66 23 -5.32 23 -6 23 C-6 19.7 -6 16.4 -6 13 C-5.34 13 -4.68 13 -4 13 C-3.67 12.01 -3.34 11.02 -3 10 C-2.34 10 -1.68 10 -1 10 C-1.20625 8.906875 -1.4125 7.81375 -1.625 6.6875 C-2 3 -2 3 0 0 Z " fill="#2D9AA9" transform="translate(296,148)"/>
<path d="M0 0 C0.66 0 1.32 0 2 0 C3.67357513 5.28497409 3.67357513 5.28497409 4 8 C2.625 10.5 2.625 10.5 1 12 C2.32 12 3.64 12 5 12 C5 14.66666667 5 17.33333333 5 20 C5.66 20.33 6.32 20.66 7 21 C5.68 21 4.36 21 3 21 C-1.29811124 16.70188876 -2.34234666 13.76999449 -2.4375 7.6875 C-2.32307692 2.32307692 -2.32307692 2.32307692 0 0 Z M0 12 C1 14 1 14 1 14 Z " fill="#6957D3" transform="translate(251,260)"/>
<path d="M0 0 C-0.96679688 0.53367188 -1.93359375 1.06734375 -2.9296875 1.6171875 C-11.57974241 6.5214448 -18.31525271 11.5553025 -25 19 C-25.66 19.66 -26.32 20.32 -27 21 C-27.125 18.625 -27.125 18.625 -27 16 C-26.34 15.34 -25.68 14.68 -25 14 C-25 13.01 -25 12.02 -25 11 C-23.68 11 -22.36 11 -21 11 C-18.70784955 9.20808968 -18.70784955 9.20808968 -17 7 C-17 6.34 -17 5.68 -17 5 C-13.77208445 2.8480563 -12.71599191 2.79913557 -9 3 C-8.67 2.34 -8.34 1.68 -8 1 C-4.91025722 -1.02431423 -3.46521435 -1.02430865 0 0 Z " fill="#6776BE" transform="translate(169,253)"/>
<path d="M0 0 C0.33 0 0.66 0 1 0 C1.66 3.63 2.32 7.26 3 11 C1.02 11.33 -0.96 11.66 -3 12 C-2.938125 13.11375 -2.87625 14.2275 -2.8125 15.375 C-2.874375 16.57125 -2.93625 17.7675 -3 19 C-3.99 19.66 -4.98 20.32 -6 21 C-7.42834382 18.73145393 -8.0448337 17.45305634 -7.77734375 14.75 C-6.82071377 11.36574118 -5.29875241 8.70630784 -3.5 5.6875 C-2.8709375 4.61886719 -2.241875 3.55023438 -1.59375 2.44921875 C-1.0678125 1.64097656 -0.541875 0.83273438 0 0 Z " fill="#5981BA" transform="translate(267,229)"/>
<path d="M0 0 C3.84082413 1.92041207 5.03591408 7.0409868 6.75 10.8125 C7.18699219 11.72837891 7.62398437 12.64425781 8.07421875 13.58789062 C8.67943359 14.91530273 8.67943359 14.91530273 9.296875 16.26953125 C9.67166992 17.08010986 10.04646484 17.89068848 10.43261719 18.72583008 C11 21 11 21 10.23144531 23.2331543 C9 25 9 25 7 26 C6.731875 24.7625 6.46375 23.525 6.1875 22.25 C4.90642184 16.47132371 3.45600583 10.73666298 2 5 C1.01 5 0.02 5 -1 5 C-1.33 6.65 -1.66 8.3 -2 10 C-2.66 10 -3.32 10 -4 10 C-3.52449439 8.51965236 -3.04448784 7.04074979 -2.5625 5.5625 C-2.29566406 4.73878906 -2.02882812 3.91507812 -1.75390625 3.06640625 C-1 1 -1 1 0 0 Z " fill="#4F99A8" transform="translate(195,88)"/>
<path d="M0 0 C0.66 0.33 1.32 0.66 2 1 C1.34 1.66 0.68 2.32 0 3 C0.66 3.66 1.32 4.32 2 5 C1.34 5.66 0.68 6.32 0 7 C0.66 8.32 1.32 9.64 2 11 C-1.96 11 -5.92 11 -10 11 C-7.62051223 6.24102445 -5.27524012 1.75841337 0 0 Z " fill="#7558BF" transform="translate(185,288)"/>
<path d="M0 0 C0.33 0 0.66 0 1 0 C1.05872928 3.8124338 1.09383916 7.62474906 1.125 11.4375 C1.14175781 12.50677734 1.15851563 13.57605469 1.17578125 14.67773438 C1.21520778 21.12397159 0.66458433 26.76763898 -1 33 C-1.66 32.67 -2.32 32.34 -3 32 C-3 30.68 -3 29.36 -3 28 C-3.33 27.01 -3.66 26.02 -4 25 C-3.34 24.34 -2.68 23.68 -2 23 C-1.83242243 20.20870233 -1.83242243 20.20870233 -2 17 C-2.10570163 11.06088971 -1.45272133 5.74603171 0 0 Z " fill="#3D8CA1" transform="translate(278,232)"/>
<path d="M0 0 C0.33 0 0.66 0 1 0 C1.33 2.97 1.66 5.94 2 9 C1.01 9.66 0.02 10.32 -1 11 C-1.12375 11.78375 -1.2475 12.5675 -1.375 13.375 C-2.22342151 16.93837036 -4.06213127 17.96609088 -7 20 C-8.37774473 15.8667658 -6.79115924 13.26383819 -5.1875 9.4375 C-4.91357422 8.75236328 -4.63964844 8.06722656 -4.35742188 7.36132812 C-3.17066391 4.46131286 -2.2368565 2.2368565 0 0 Z " fill="#5276AD" transform="translate(167,151)"/>
<path d="M0 0 C0.99 0 1.98 0 3 0 C3.33 0.99 3.66 1.98 4 3 C1.525 4.485 1.525 4.485 -1 6 C-1.33 4.68 -1.66 3.36 -2 2 C-1.34 2 -0.68 2 0 2 C0 1.34 0 0.68 0 0 Z M-4 6 C-3.34 6.33 -2.68 6.66 -2 7 C-2.99 9.64 -3.98 12.28 -5 15 C-4.01 15.33 -3.02 15.66 -2 16 C-2.33 16.66 -2.66 17.32 -3 18 C-5.64 17.67 -8.28 17.34 -11 17 C-10.67 15.68 -10.34 14.36 -10 13 C-9.01 13 -8.02 13 -7 13 C-6.814375 11.824375 -6.814375 11.824375 -6.625 10.625 C-6 8 -6 8 -4 6 Z " fill="#487ABB" transform="translate(251,206)"/>
<path d="M0 0 C-0.53115106 4.51478398 -2.36620292 7.34666857 -5 11 C-6.9375 10.3125 -6.9375 10.3125 -9 9 C-10.046426 6.15970087 -10.20991431 4.62974294 -9.25 1.75 C-6.7016549 -1.81768313 -3.77262979 -0.91766671 0 0 Z " fill="#4B77BA" transform="translate(250,241)"/>
<path d="M0 0 C-0.061875 0.94875 -0.12375 1.8975 -0.1875 2.875 C-0.125625 3.90625 -0.06375 4.9375 0 6 C0.99 6.66 1.98 7.32 3 8 C2.79375 8.556875 2.5875 9.11375 2.375 9.6875 C1.89304789 12.659538 2.73434972 14.31979941 4 17 C3.34 17 2.68 17 2 17 C1.67 17.66 1.34 18.32 1 19 C-1.31 13.39 -3.62 7.78 -6 2 C-2 0 -2 0 0 0 Z " fill="#5D70B6" transform="translate(261,280)"/>
<path d="M0 0 C0.66 0.99 1.32 1.98 2 3 C0.35 5.64 -1.3 8.28 -3 11 C-3.495 10.01 -3.495 10.01 -4 9 C-17.2 9 -30.4 9 -44 9 C-44 8.67 -44 8.34 -44 8 C-42.80922852 8.00636475 -41.61845703 8.01272949 -40.39160156 8.01928711 C-35.97051553 8.03372495 -31.55072931 8.00239381 -27.12988281 7.95727539 C-25.21716738 7.94414128 -23.30432491 7.94339633 -21.39160156 7.95532227 C-18.64000168 7.9703232 -15.89193519 7.94067766 -13.140625 7.90234375 C-12.28631897 7.91659897 -11.43201294 7.93085419 -10.55181885 7.94554138 C-8.16453667 7.88741351 -6.25715939 7.78518828 -4 7 C-1.98448067 4.75696707 -1.177586 2.83832033 0 0 Z " fill="#F6F2FF" transform="translate(220,292)"/>
<path d="M0 0 C0 8.01833079 -4.67400042 14.43190953 -10 20 C-11 17 -11 17 -10.0625 14.8125 C-9.5365625 13.9153125 -9.5365625 13.9153125 -9 13 C-8.34 13 -7.68 13 -7 13 C-7.226875 12.46375 -7.45375 11.9275 -7.6875 11.375 C-8.1528547 7.83830431 -6.86734965 5.96200289 -5 3 C-2.875 1.6875 -2.875 1.6875 -1 1 C-0.67 0.67 -0.34 0.34 0 0 Z " fill="#FAF9F9" transform="translate(221,234)"/>
<path d="M0 0 C0.33 0.99 0.66 1.98 1 3 C0.3503125 3.5259375 0.3503125 3.5259375 -0.3125 4.0625 C-3.68339413 7.93278585 -5 11.93064364 -5 17 C-8.96 17.495 -8.96 17.495 -13 18 C-9.56063777 11.27081302 -4.86702853 5.75099739 0 0 Z " fill="#6E54D3" transform="translate(196,271)"/>
<path d="M0 0 C0.93779297 0.00322266 1.87558594 0.00644531 2.84179688 0.00976562 C4.30649414 0.02233398 4.30649414 0.02233398 5.80078125 0.03515625 C6.78884766 0.03966797 7.77691406 0.04417969 8.79492188 0.04882812 C11.23443599 0.06061322 13.67382814 0.07706614 16.11328125 0.09765625 C16.11328125 0.75765625 16.11328125 1.41765625 16.11328125 2.09765625 C14.64181641 2.04544922 14.64181641 2.04544922 13.140625 1.9921875 C3.32953433 1.75579043 -5.32738854 2.91686342 -14.88671875 5.09765625 C-16.8842048 5.44573753 -18.88352503 5.78408641 -20.88671875 6.09765625 C-20.22671875 5.76765625 -19.56671875 5.43765625 -18.88671875 5.09765625 C-18.55671875 4.10765625 -18.22671875 3.11765625 -17.88671875 2.09765625 C-17.19964844 2.03707031 -16.51257813 1.97648438 -15.8046875 1.9140625 C-14.90363281 1.83027344 -14.00257813 1.74648437 -13.07421875 1.66015625 C-11.73423828 1.53833984 -11.73423828 1.53833984 -10.3671875 1.4140625 C-6.72247791 0.94914679 -3.73252396 -0.02262136 0 0 Z " fill="#51859F" transform="translate(189.88671875,245.90234375)"/>
<path d="M0 0 C0.99 0.33 1.98 0.66 3 1 C1.72984669 3.22955653 0.45889952 5.45865426 -0.8125 7.6875 C-1.16892578 8.31333984 -1.52535156 8.93917969 -1.89257812 9.58398438 C-2.59562046 10.81592095 -3.30146234 12.04626458 -4.01025391 13.27490234 C-4.90078783 14.82707618 -5.77012245 16.39136681 -6.63671875 17.95703125 C-7.08660156 18.63121094 -7.53648437 19.30539062 -8 20 C-8.66 20 -9.32 20 -10 20 C-10.25 17.75 -10.25 17.75 -10 15 C-8.66666667 13.66666667 -7.33333333 12.33333333 -6 11 C-5.66501699 8.33165034 -5.66501699 8.33165034 -6 6 C-4.68 6.33 -3.36 6.66 -2 7 C-1.855625 6.21625 -1.71125 5.4325 -1.5625 4.625 C-1 2 -1 2 0 0 Z " fill="#6273B5" transform="translate(233,266)"/>
<path d="M0 0 C1.5 1.375 1.5 1.375 3 3 C3 3.66 3 4.32 3 5 C2.01 5.33 1.02 5.66 0 6 C-0.309375 7.093125 -0.61875 8.18625 -0.9375 9.3125 C-2.03793873 13.13166972 -2.87459375 14.632268 -6 17 C-6.99 17 -7.98 17 -9 17 C-7.51481201 12.95698825 -5.57122002 9.38853744 -3.375 5.6875 C-2.74335938 4.61886719 -2.11171875 3.55023438 -1.4609375 2.44921875 C-0.97882813 1.64097656 -0.49671875 0.83273438 0 0 Z " fill="#4E8FAB" transform="translate(277,212)"/>
<path d="M0 0 C2.57992865 3.43990487 4.10494075 6.15790348 5.75 10.0625 C6.19859375 11.10535156 6.6471875 12.14820313 7.109375 13.22265625 C8 16 8 16 7 19 C6.54625 18.505 6.0925 18.01 5.625 17.5 C4.12364481 15.77390663 4.12364481 15.77390663 2 16 C2.33 14.68 2.66 13.36 3 12 C2.01 11.67 1.02 11.34 0 11 C0 7.37 0 3.74 0 0 Z " fill="#3899A3" transform="translate(208,116)"/>
<path d="M0 0 C0.33 0 0.66 0 1 0 C1.223293 2.06093408 1.42802887 4.1238839 1.625 6.1875 C1.74101562 7.33605469 1.85703125 8.48460938 1.9765625 9.66796875 C2.00023426 13.03330416 1.47419799 15.01221706 0 18 C-2 17 -2 17 -3.375 13.5 C-4.62886985 8.25654426 -2.53707307 4.52898994 0 0 Z " fill="#368BAF" transform="translate(190,98)"/>
<path d="M0 0 C0.99 0.33 1.98 0.66 3 1 C-1 8 -5 15 -9 22 C-9.93423645 18.98968256 -10.04449911 18.13349732 -9 15 C-8.34 15 -7.68 15 -7 15 C-7.33 13.35 -7.66 11.7 -8 10 C-6.68 10 -5.36 10 -4 10 C-3.71125 9.0925 -3.4225 8.185 -3.125 7.25 C-2.23468224 4.67797092 -1.28505587 2.38653234 0 0 Z " fill="#46A1A0" transform="translate(310,137)"/>
<path d="M0 0 C0.33 0.66 0.66 1.32 1 2 C0.67 2.66 0.34 3.32 0 4 C-0.66 4 -1.32 4 -2 4 C-2.0825 4.515625 -2.165 5.03125 -2.25 5.5625 C-3.69735188 10.2663936 -6.21847266 14.78570176 -10 18 C-10.33 17.34 -10.66 16.68 -11 16 C-10.01979742 13.58354893 -8.98444396 11.32058884 -7.8125 9 C-7.50763672 8.35804688 -7.20277344 7.71609375 -6.88867188 7.0546875 C-5.48465225 4.24076139 -4.44098143 2.28321321 -1.76171875 0.5625 C-1.18035156 0.376875 -0.59898437 0.19125 0 0 Z " fill="#EDEFFA" transform="translate(143,275)"/>
<path d="M0 0 C2.82378039 1.03538614 3.8243145 1.66619755 5.25 4.375 C6 7 6 7 6 11 C6.66 11 7.32 11 8 11 C9.35015859 15.05047576 8.62084998 17.7920168 8 22 C6.35 22.33 4.7 22.66 3 23 C3.515625 22.29875 4.03125 21.5975 4.5625 20.875 C6.41672751 17.16654499 6.19646952 15.9633053 5 12 C3.75428821 9.34928867 2.43990714 6.7545006 1.05859375 4.171875 C0 2 0 2 0 0 Z " fill="#D1F5F2" transform="translate(238,181)"/>
<path d="M0 0 C1.9375 1 1.9375 1 4 3 C4.41796875 4.9453125 4.41796875 4.9453125 4.625 7.125 C4.74875 8.40375 4.8725 9.6825 5 11 C5.66 11.33 6.32 11.66 7 12 C4.66785852 13.20628008 2.50357861 14.1654738 0 15 C0 13.02 0 11.04 0 9 C0.66 9 1.32 9 2 9 C1.67 8.2575 1.34 7.515 1 6.75 C0 4 0 4 0 0 Z " fill="#17AC9A" transform="translate(232,174)"/>
<path d="M0 0 C0.99 0.66 1.98 1.32 3 2 C1.99806563 5.79303725 1.18975773 8.71536341 -1 12 C-1.99 12 -2.98 12 -4 12 C-4.66 14.31 -5.32 16.62 -6 19 C-6.66 18.67 -7.32 18.34 -8 18 C-5.36 12.06 -2.72 6.12 0 0 Z " fill="#7A62C4" transform="translate(112,271)"/>
<path d="M0 0 C0.99 0.33 1.98 0.66 3 1 C3 1.66 3 2.32 3 3 C3.99 3.33 4.98 3.66 6 4 C6 5.32 6 6.64 6 8 C3.69 8 1.38 8 -1 8 C-1.66 6.35 -2.32 4.7 -3 3 C-2.01 2.01 -1.02 1.02 0 0 Z " fill="#249EA4" transform="translate(283,291)"/>
<path d="M0 0 C0.66 0 1.32 0 2 0 C2.85712696 2.39995548 3.22584094 3.51605512 2.125 5.875 C1.75375 6.57625 1.3825 7.2775 1 8 C0.61709538 9.99110401 0.27395385 11.99100513 0 14 C-1.32 14.33 -2.64 14.66 -4 15 C-2.07289294 4.44191344 -2.07289294 4.44191344 0 0 Z " fill="#5B79B5" transform="translate(157,171)"/>
<path d="M0 0 C0.66 0.33 1.32 0.66 2 1 C-0.57052071 3.01969485 -3.08509955 4.54254977 -6 6 C-6.66 6.66 -7.32 7.32 -8 8 C-8.66 8 -9.32 8 -10 8 C-10.4125 8.474375 -10.825 8.94875 -11.25 9.4375 C-13.65788428 11.58739668 -15.85408584 11.65045398 -19 12 C-15.96650331 8.68873735 -12.82942784 6.53576981 -8.9375 4.3125 C-7.89464844 3.71050781 -6.85179687 3.10851562 -5.77734375 2.48828125 C-3 1 -3 1 0 0 Z " fill="#E3EEF8" transform="translate(172,251)"/>
<path d="M0 0 C2.06568201 3.09852301 3.60295419 6.19392874 5.1875 9.5625 C5.73792969 10.71878906 6.28835937 11.87507812 6.85546875 13.06640625 C7.23316406 14.03449219 7.61085937 15.00257813 8 16 C7.67 16.66 7.34 17.32 7 18 C6.34 17.67 5.68 17.34 5 17 C5 16.34 5 15.68 5 15 C4.01 15 3.02 15 2 15 C2.04125 14.113125 2.0825 13.22625 2.125 12.3125 C1.99944579 8.98531353 1.27344719 7.02443707 0 4 C0 2.68 0 1.36 0 0 Z " fill="#31AD97" transform="translate(236,177)"/>
<path d="M0 0 C0.33 0.66 0.66 1.32 1 2 C0.22265625 4.1640625 0.22265625 4.1640625 -0.9375 6.625 C-1.31777344 7.44226563 -1.69804687 8.25953125 -2.08984375 9.1015625 C-2.39019531 9.72804687 -2.69054687 10.35453125 -3 11 C-3.33 10.34 -3.66 9.68 -4 9 C-5.11375 10.175625 -5.11375 10.175625 -6.25 11.375 C-8.59421977 13.61266433 -10.14324985 14.69370826 -13 16 C-8.93866463 10.40636594 -4.6208599 5.14036486 0 0 Z " fill="#6772B6" transform="translate(226,235)"/>
<path d="M0 0 C0.6875 1.625 0.6875 1.625 1 4 C-0.34805991 7.20966645 -1.53401431 9.53401431 -4 12 C-4.33 12.66 -4.66 13.32 -5 14 C-5.66 14 -6.32 14 -7 14 C-7.33 15.65 -7.66 17.3 -8 19 C-8.99 19 -9.98 19 -11 19 C-9.54312342 16.39500876 -8.08456349 13.79098518 -6.625 11.1875 C-6.2125 10.44951172 -5.8 9.71152344 -5.375 8.95117188 C-4.77558594 7.88286133 -4.77558594 7.88286133 -4.1640625 6.79296875 C-3.79748535 6.1383667 -3.4309082 5.48376465 -3.05322266 4.80932617 C-2.09793201 3.16823694 -1.0533104 1.5799656 0 0 Z " fill="#DAF9F8" transform="translate(311,140)"/>
<path d="M0 0 C1.14513535 2.81930984 1.05065512 3.86977029 -0.07421875 6.76171875 C-0.60660156 7.72722656 -1.13898438 8.69273438 -1.6875 9.6875 C-2.20699219 10.66074219 -2.72648437 11.63398438 -3.26171875 12.63671875 C-5 15 -5 15 -7.20703125 15.83203125 C-7.79871094 15.88746094 -8.39039063 15.94289062 -9 16 C-8.06758496 14.08085447 -7.12885525 12.16477614 -6.1875 10.25 C-5.66542969 9.18265625 -5.14335937 8.1153125 -4.60546875 7.015625 C-3.2383308 4.44766758 -1.82284537 2.25529217 0 0 Z " fill="#D0F4F2" transform="translate(325,117)"/>
<path d="M0 0 C0.33 1.32 0.66 2.64 1 4 C0.360625 4.4125 -0.27875 4.825 -0.9375 5.25 C-3.20990931 7.17810487 -3.60196439 8.11424181 -4 11 C-4.99 11 -5.98 11 -7 11 C-7.33 12.32 -7.66 13.64 -8 15 C-8.66 15 -9.32 15 -10 15 C-9.53234153 10.2809009 -7.65065406 8.08167683 -4.4375 4.6875 C-3.61121094 3.80449219 -2.78492188 2.92148438 -1.93359375 2.01171875 C-1.29550781 1.34785156 -0.65742188 0.68398437 0 0 Z " fill="#5B7CAE" transform="translate(248,208)"/>
<path d="M0 0 C0.33 0.66 0.66 1.32 1 2 C-0.41097867 4.45669355 -1.86043594 6.77914624 -3.4375 9.125 C-4.0881543 10.11306641 -4.0881543 10.11306641 -4.75195312 11.12109375 C-5.82749114 12.75212943 -6.91284486 14.37668453 -8 16 C-8.66 15.67 -9.32 15.34 -10 15 C-9.45230629 10.81761166 -7.10111111 8.40131455 -4.4375 5.25 C-3.19806641 3.77273437 -3.19806641 3.77273437 -1.93359375 2.265625 C-1.29550781 1.51796875 -0.65742188 0.7703125 0 0 Z " fill="#41A291" transform="translate(329,108)"/>
<path d="M0 0 C1.54070648 4.80075206 0.71200654 9.32490521 -1 14 C-3.625 15.625 -3.625 15.625 -6 16 C-4.25192871 10.53262809 -2.34205919 5.24175152 0 0 Z " fill="#7171BA" transform="translate(137,215)"/>
<path d="M0 0 C1.20628008 2.33214148 2.1654738 4.49642139 3 7 C0.03 8.65 -2.94 10.3 -6 12 C-4.68139111 7.38486888 -2.78644563 3.90102388 0 0 Z " fill="#E1F4F5" transform="translate(299,160)"/>
<path d="M0 0 C2.1519437 3.22791555 2.20086443 4.28400809 2 8 C1.01 7.67 0.02 7.34 -1 7 C-1.433125 8.6396875 -1.433125 8.6396875 -1.875 10.3125 C-3 14 -3 14 -5 17 C-5.66 17 -6.32 17 -7 17 C-5.24009216 11.08030998 -2.60305395 5.58365008 0 0 Z " fill="#578CB0" transform="translate(182,116)"/>
<path d="M0 0 C0 2.66666667 0 5.33333333 0 8 C0.66 8.33 1.32 8.66 2 9 C0.68 9 -0.64 9 -2 9 C-3.484375 7.25 -3.484375 7.25 -4.75 5 C-5.17796875 4.2575 -5.6059375 3.515 -6.046875 2.75 C-6.36140625 2.1725 -6.6759375 1.595 -7 1 C-4 0 -4 0 0 0 Z " fill="#6862C0" transform="translate(256,272)"/>
<path d="M0 0 C0.66 0.99 1.32 1.98 2 3 C-3.445 12.405 -3.445 12.405 -9 22 C-9.33 20.68 -9.66 19.36 -10 18 C-9.34 18 -8.68 18 -8 18 C-8 16.35 -8 14.7 -8 13 C-7.01 13 -6.02 13 -5 13 C-4.34 10.69 -3.68 8.38 -3 6 C-2.34 6 -1.68 6 -1 6 C-0.67 4.02 -0.34 2.04 0 0 Z " fill="#4697A0" transform="translate(297,158)"/>
<path d="M0 0 C0.66 0.66 1.32 1.32 2 2 C1.60761402 5.66226912 -0.31566883 8.77780124 -2 12 C-3.32 12 -4.64 12 -6 12 C-4.43358249 7.69235185 -2.31663844 3.93828536 0 0 Z " fill="#6A6DBD" transform="translate(258,244)"/>
<path d="M0 0 C0.33 0.66 0.66 1.32 1 2 C0.30202313 3.69508669 -0.40514725 5.38746714 -1.17578125 7.05078125 C-1.99216192 8.9814635 -2.50917613 10.84038825 -3 12.875 C-3.33 13.90625 -3.66 14.9375 -4 16 C-4.99 16.33 -5.98 16.66 -7 17 C-7.89434171 14.55146689 -8.2064946 13.45555607 -7.109375 11.03515625 C-6.66078125 10.38417969 -6.2121875 9.73320312 -5.75 9.0625 C-5.28722656 8.37285156 -4.82445312 7.68320313 -4.34765625 6.97265625 C-3.90292969 6.32167969 -3.45820313 5.67070312 -3 5 C-1.99490786 3.33639922 -0.99230897 1.67125722 0 0 Z " fill="#68A8A9" transform="translate(289,192)"/>
<path d="M0 0 C0 0.99 0 1.98 0 3 C-0.66 3.66 -1.32 4.32 -2 5 C-2.70710678 6.64991582 -3.37943989 8.31562256 -4 10 C-4.99 10 -5.98 10 -7 10 C-6.51171875 3.9453125 -6.51171875 3.9453125 -6 2 C-3 0 -3 0 0 0 Z " fill="#6160C5" transform="translate(136,230)"/>
<path d="M0 0 C2.31 0 4.62 0 7 0 C5.66666667 3.33333333 4.33333333 6.66666667 3 10 C2.01 9.67 1.02 9.34 0 9 C0.33 7.68 0.66 6.36 1 5 C1.66 5 2.32 5 3 5 C2.34 4.34 1.68 3.68 1 3 C0.67 2.01 0.34 1.02 0 0 Z " fill="#15AA95" transform="translate(232,200)"/>
<path d="M0 0 C2.44168979 3.03056792 4.13027389 6.09018596 5.75 9.625 C6.19859375 10.58664063 6.6471875 11.54828125 7.109375 12.5390625 C7.40328125 13.35117188 7.6971875 14.16328125 8 15 C7.67 15.66 7.34 16.32 7 17 C5.01954978 14.16135468 3.21353429 11.54011614 1.9375 8.3125 C0.96287541 5.90842602 -0.05557074 4.67927982 -2 3 C-1.34 3 -0.68 3 0 3 C0 2.01 0 1.02 0 0 Z " fill="#41A69C" transform="translate(228,160)"/>
<path d="M0 0 C1.32 0 2.64 0 4 0 C3.67 1.32 3.34 2.64 3 4 C2.34 4 1.68 4 1 4 C0.7834375 5.175625 0.7834375 5.175625 0.5625 6.375 C0 9 0 9 -1 11 C-1.66 11 -2.32 11 -3 11 C-2.69217504 9.35328588 -2.37860766 7.70764424 -2.0625 6.0625 C-1.88847656 5.14597656 -1.71445312 4.22945312 -1.53515625 3.28515625 C-1 1 -1 1 0 0 Z " fill="#279AA6" transform="translate(293,160)"/>
<path d="M0 0 C2.31 0 4.62 0 7 0 C6.67 1.65 6.34 3.3 6 5 C4.02 5 2.04 5 0 5 C0 3.35 0 1.7 0 0 Z " fill="#358DAD" transform="translate(272,294)"/>
<path d="M0 0 C0.99 0 1.98 0 3 0 C3 0.99 3 1.98 3 3 C-0.30690825 6.15659424 -2.47723524 8.11511124 -7 9 C-6.02180976 7.68677212 -5.0424189 6.37443848 -4.0625 5.0625 C-3.51722656 4.33160156 -2.97195312 3.60070312 -2.41015625 2.84765625 C-1 1 -1 1 0 0 Z " fill="#7071C4" transform="translate(211,253)"/>
<path d="M0 0 C0.88672454 2.4828287 1.14518218 3.62029277 0.1875 6.125 C-1.52197002 8.82416318 -2.47014794 9.87384475 -5.625 10.625 C-6.800625 10.810625 -6.800625 10.810625 -8 11 C-8 9 -8 9 -5.6875 6.625 C-4.800625 5.75875 -3.91375 4.8925 -3 4 C-1.97186389 2.68824014 -0.95915568 1.3630107 0 0 Z " fill="#D6F3F4" transform="translate(214,236)"/>
<path d="M0 0 C1.180933 3.542799 1.27028374 6.28359861 1 10 C0.01 10.66 -0.98 11.32 -2 12 C-3.61949011 9.42786866 -4.04408751 8.32330841 -3.625 5.25 C-3.41875 4.5075 -3.2125 3.765 -3 3 C-2.01 2.67 -1.02 2.34 0 2 C0 1.34 0 0.68 0 0 Z " fill="#5771B8" transform="translate(263,238)"/>
<path d="M0 0 C0.66 0.33 1.32 0.66 2 1 C1.34 1.66 0.68 2.32 0 3 C0.66 3.66 1.32 4.32 2 5 C0.75 7 0.75 7 -1 9 C-2.32 9 -3.64 9 -5 9 C-4.5206753 4.68607774 -3.2542015 2.83430453 0 0 Z " fill="#734EDA" transform="translate(185,288)"/>
<path d="M0 0 C0 0.66 0 1.32 0 2 C1.32 2.33 2.64 2.66 4 3 C-5.405 3.495 -5.405 3.495 -15 4 C-15 3.67 -15 3.34 -15 3 C-13.25183142 2.49363393 -11.50137737 1.99515381 -9.75 1.5 C-8.77546875 1.2215625 -7.8009375 0.943125 -6.796875 0.65625 C-4 0 -4 0 0 0 Z " fill="#378AAC" transform="translate(192,243)"/>
<path d="M0 0 C1.67542976 0.28604898 3.34385343 0.61781233 5 1 C4.67 3.31 4.34 5.62 4 8 C3.01 8.33 2.02 8.66 1 9 C0.855625 8.236875 0.71125 7.47375 0.5625 6.6875 C0.0367406 3.91827092 0.0367406 3.91827092 -1 1 C-0.67 0.67 -0.34 0.34 0 0 Z " fill="#4081B3" transform="translate(257,216)"/>
<path d="M0 0 C0.33 0 0.66 0 1 0 C0.92981522 3.40077179 0.75964864 6.6778746 0 10 C-2.5625 12.125 -2.5625 12.125 -5 13 C-5.33 12.01 -5.66 11.02 -6 10 C-5.34 10 -4.68 10 -4 10 C-4 9.34 -4 8.68 -4 8 C-3.34 8 -2.68 8 -2 8 C-1.855625 6.865625 -1.71125 5.73125 -1.5625 4.5625 C-1 1 -1 1 0 0 Z " fill="#566CBE" transform="translate(149,194)"/>
<path d="M0 0 C0.99 0 1.98 0 3 0 C3.73679858 1.70803308 4.47228553 3.41665123 5.19921875 5.12890625 C5.84397614 6.63543694 6.51207936 8.13196491 7.1875 9.625 C8.07530939 12.22013513 8.15563499 14.27638769 8 17 C5.83424381 13.75136571 4.37647589 10.39377143 2.875 6.8125 C2.59785156 6.15830078 2.32070312 5.50410156 2.03515625 4.83007812 C1.35402955 3.22120988 0.67664597 1.61075785 0 0 Z " fill="#D7FAF8" transform="translate(230,163)"/>
<path d="M0 0 C0.99 0 1.98 0 3 0 C3.103125 0.639375 3.20625 1.27875 3.3125 1.9375 C3.539375 2.618125 3.76625 3.29875 4 4 C4.99 4.33 5.98 4.66 7 5 C7 6.98 7 8.96 7 11 C6.01 11.495 6.01 11.495 5 12 C4.34 9.69 3.68 7.38 3 5 C1.68 4.67 0.36 4.34 -1 4 C-0.67 2.68 -0.34 1.36 0 0 Z " fill="#2B9EA2" transform="translate(211,131)"/>
<path d="M0 0 C0.99 0.33 1.98 0.66 3 1 C2.32829194 4.8063457 1.27253436 8.35206816 0 12 C-0.33 12 -0.66 12 -1 12 C-1.22162329 10.37675914 -1.42689803 8.751279 -1.625 7.125 C-1.74101562 6.22007812 -1.85703125 5.31515625 -1.9765625 4.3828125 C-1.98429688 3.59648437 -1.99203125 2.81015625 -2 2 C-1.34 1.34 -0.68 0.68 0 0 Z " fill="#635EC9" transform="translate(130,283)"/>
<path d="M0 0 C2.475 0.99 2.475 0.99 5 2 C5 2.99 5 3.98 5 5 C2.125 5.625 2.125 5.625 -1 6 C-1.66 5.34 -2.32 4.68 -3 4 C-2.34 4 -1.68 4 -1 4 C-0.67 2.68 -0.34 1.36 0 0 Z " fill="#19A99C" transform="translate(227,208)"/>
<path d="M0 0 C1.41573582 4.24720747 -0.23670387 6.4310024 -2.125 10.3125 C-2.41375 10.869375 -2.7025 11.42625 -3 12 C-4.32 11.01 -5.64 10.02 -7 9 C-5.625 7 -5.625 7 -4 5 C-3.34 5 -2.68 5 -2 5 C-1.34 3.35 -0.68 1.7 0 0 Z " fill="#5793B2" transform="translate(273,176)"/>
<path d="M0 0 C-1.62170379 1.00533667 -3.24747237 2.00411907 -4.875 3 C-6.23238281 3.8353125 -6.23238281 3.8353125 -7.6171875 4.6875 C-10 6 -10 6 -12 6 C-12 5.01 -12 4.02 -12 3 C-11.01 3 -10.02 3 -9 3 C-8.67 2.34 -8.34 1.68 -8 1 C-4.91025722 -1.02431423 -3.46521435 -1.02430865 0 0 Z " fill="#627EB1" transform="translate(169,253)"/>
<path d="M0 0 C0.66 0.66 1.32 1.32 2 2 C0.35 5.63 -1.3 9.26 -3 13 C-3.66 12.67 -4.32 12.34 -5 12 C-4.67 10.35 -4.34 8.7 -4 7 C-3.34 7 -2.68 7 -2 7 C-2.061875 5.824375 -2.061875 5.824375 -2.125 4.625 C-2 2 -2 2 0 0 Z " fill="#EFF5FD" transform="translate(141,202)"/>
<path d="M0 0 C0.99 0 1.98 0 3 0 C2.34 3.3 1.68 6.6 1 10 C-2.375 5.5 -2.375 5.5 -3 2 C-2.01 2 -1.02 2 0 2 C0 1.34 0 0.68 0 0 Z " fill="#E6FBF9" transform="translate(211,112)"/>
<path d="M0 0 C1.32 0.66 2.64 1.32 4 2 C3.67 3.32 3.34 4.64 3 6 C2.34 5.67 1.68 5.34 1 5 C0.34 5.66 -0.32 6.32 -1 7 C-1.66 7 -2.32 7 -3 7 C-1.125 1.125 -1.125 1.125 0 0 Z " fill="#E9EEF5" transform="translate(238,262)"/>
<path d="M0 0 C0.66 0.33 1.32 0.66 2 1 C0.54955729 5.10958767 -1.51110752 8.43258745 -4 12 C-4.66 11.34 -5.32 10.68 -6 10 C-4.02 6.7 -2.04 3.4 0 0 Z " fill="#E5F4F9" transform="translate(270,209)"/>
<path d="M0 0 C3 1 3 1 4 3 C4.039992 4.99960012 4.04346799 7.00047242 4 9 C3.01 9.33 2.02 9.66 1 10 C-0.04005702 6.61981469 -0.08004482 3.5219721 0 0 Z " fill="#30A59C" transform="translate(224,154)"/>
<path d="M0 0 C2.50037734 2.17424117 3.43628586 3.73045798 4 7 C2.68 7.99 1.36 8.98 0 10 C-1.125 3.375 -1.125 3.375 0 0 Z " fill="#3C96A3" transform="translate(202,104)"/>
<path d="M0 0 C0.99 0.99 1.98 1.98 3 3 C2.34 3 1.68 3 1 3 C0.67 5.31 0.34 7.62 0 10 C-0.99 9.34 -1.98 8.68 -3 8 C-1.125 1.125 -1.125 1.125 0 0 Z " fill="#F9FCF8" transform="translate(281,195)"/>
<path d="M0 0 C0.66 0 1.32 0 2 0 C2 1.32 2 2.64 2 4 C1.01 4 0.02 4 -1 4 C-1.144375 4.61875 -1.28875 5.2375 -1.4375 5.875 C-2 8 -2 8 -3 10 C-3.66 10 -4.32 10 -5 10 C-4.38479725 6.00118212 -2.39731331 3.19641774 0 0 Z " fill="#1FA39D" transform="translate(311,133)"/>
<path d="M0 0 C2.475 0.99 2.475 0.99 5 2 C4.34 4.31 3.68 6.62 3 9 C2.01 8.67 1.02 8.34 0 8 C0.185625 7.236875 0.37125 6.47375 0.5625 5.6875 C1.22819173 2.91032625 1.22819173 2.91032625 0 0 Z " fill="#2D9BA6" transform="translate(280,281)"/>
<path d="M0 0 C0.33 0.99 0.66 1.98 1 3 C0.3503125 3.5878125 0.3503125 3.5878125 -0.3125 4.1875 C-2.14164898 6.00305796 -2.14164898 6.00305796 -3.4375 8.625 C-5 11 -5 11 -7.09765625 11.6484375 C-7.72542969 11.76445312 -8.35320312 11.88046875 -9 12 C-6 8 -3 4 0 0 Z " fill="#7869B9" transform="translate(196,271)"/>
<path d="M0 0 C0.33 0.99 0.66 1.98 1 3 C0.67 3.66 0.34 4.32 0 5 C-0.66 5 -1.32 5 -2 5 C-2.2475 5.804375 -2.495 6.60875 -2.75 7.4375 C-3.1625 8.283125 -3.575 9.12875 -4 10 C-6.078125 10.66015625 -6.078125 10.66015625 -8 11 C-7.04454634 9.53977837 -6.08553322 8.08188532 -5.125 6.625 C-4.59132813 5.81289062 -4.05765625 5.00078125 -3.5078125 4.1640625 C-2 2 -2 2 0 0 Z " fill="#509DA7" transform="translate(293,152)"/>
<path d="M0 0 C-0.97528737 1.33617352 -1.95533319 2.6688751 -2.9375 4 C-3.48277344 4.7425 -4.02804688 5.485 -4.58984375 6.25 C-5.28787109 7.11625 -5.28787109 7.11625 -6 8 C-6.33 8 -6.66 8 -7 8 C-6.75 4.625 -6.75 4.625 -6 1 C-3.56217182 -0.88735085 -2.80901846 -1.40450923 0 0 Z " fill="#3D99A4" transform="translate(214,237)"/>
<path d="M0 0 C0.33 0.99 0.66 1.98 1 3 C-1.22592999 6.38011591 -3.21282653 8.51218185 -7 10 C-6.42865502 6.6861991 -5.50248134 5.21373349 -3 3 C-2.1646875 2.1646875 -2.1646875 2.1646875 -1.3125 1.3125 C-0.879375 0.879375 -0.44625 0.44625 0 0 Z " fill="#D6E3E2" transform="translate(334,100)"/>
<path d="M0 0 C0.66 0.99 1.32 1.98 2 3 C0.35 5.64 -1.3 8.28 -3 11 C-4 7 -4 7 -3.22265625 5.078125 C-1.61132812 2.5390625 -1.61132812 2.5390625 0 0 Z " fill="#EBEEF6" transform="translate(220,292)"/>
<path d="M0 0 C0.66 0.99 1.32 1.98 2 3 C-1.61973402 4.31626692 -4.09567131 5 -8 5 C-7.67 3.68 -7.34 2.36 -7 1 C-6.401875 1.20625 -5.80375 1.4125 -5.1875 1.625 C-2.71549154 2.30671915 -2.71549154 2.30671915 0 0 Z " fill="#4C79BC" transform="translate(169,248)"/>
<path d="M0 0 C1.42944945 2.35438733 2.08661261 3.48032433 1.625 6.25 C1.41875 6.8275 1.2125 7.405 1 8 C0.01 8 -0.98 8 -2 8 C-1.125 1.125 -1.125 1.125 0 0 Z " fill="#5A64CA" transform="translate(141,213)"/>
<path d="M0 0 C0.99 0 1.98 0 3 0 C2.67 2.97 2.34 5.94 2 9 C1.67 7.68 1.34 6.36 1 5 C-0.32 4.67 -1.64 4.34 -3 4 C-1.6875 2 -1.6875 2 0 0 Z " fill="#41999C" transform="translate(281,207)"/>
<path d="M0 0 C0.33 0.99 0.66 1.98 1 3 C0.04906703 4.69514137 -0.95107762 6.36368108 -2 8 C-2 8.66 -2 9.32 -2 10 C-3.65 10.66 -5.3 11.32 -7 12 C-4.69 8.04 -2.38 4.08 0 0 Z " fill="#D8F0F4" transform="translate(292,172)"/>
<path d="M0 0 C1.32 0.33 2.64 0.66 4 1 C2.02 3.31 0.04 5.62 -2 8 C-2.33 7.01 -2.66 6.02 -3 5 C-1.5625 2.3125 -1.5625 2.3125 0 0 Z " fill="#D7F6F7" transform="translate(300,139)"/>
<path d="M0 0 C3.06775511 1.42431487 5.21040099 2.90780074 8 5 C4.37 5 0.74 5 -3 5 C-2.01 4.67 -1.02 4.34 0 4 C0 2.68 0 1.36 0 0 Z " fill="#7053CA" transform="translate(109,294)"/>
<path d="M0 0 C0.33 0.66 0.66 1.32 1 2 C1.99 2.33 2.98 2.66 4 3 C2.75 4.5 2.75 4.5 1 6 C-0.32 6 -1.64 6 -3 6 C-3 4.68 -3 3.36 -3 2 C-2.01 1.34 -1.02 0.68 0 0 Z " fill="#635CC9" transform="translate(207,260)"/>
<path d="M0 0 C0.66 0 1.32 0 2 0 C2.1953125 6.0546875 2.1953125 6.0546875 2 8 C1.34 8.66 0.68 9.32 0 10 C0 8.68 0 7.36 0 6 C-0.33 5.67 -0.66 5.34 -1 5 C-1.33 4.01 -1.66 3.02 -2 2 C-1.34 1.34 -0.68 0.68 0 0 Z " fill="#3390AB" transform="translate(276,255)"/>
<path d="M0 0 C1.32 0 2.64 0 4 0 C4.33 0.99 4.66 1.98 5 3 C3.5625 5.1875 3.5625 5.1875 2 7 C2 6.01 2 5.02 2 4 C1.01 4.33 0.02 4.66 -1 5 C-0.67 3.35 -0.34 1.7 0 0 Z " fill="#675EC2" transform="translate(251,256)"/>
<path d="M0 0 C1.98 0.99 1.98 0.99 4 2 C3.67 4.31 3.34 6.62 3 9 C1.5 7.875 1.5 7.875 0 6 C-0.1875 2.8125 -0.1875 2.8125 0 0 Z " fill="#437CB7" transform="translate(248,232)"/>
<path d="M0 0 C0.99 0.33 1.98 0.66 3 1 C-0.61328125 5.6875 -0.61328125 5.6875 -2 7 C-2.99 7 -3.98 7 -5 7 C-4.6875 5.0625 -4.6875 5.0625 -4 3 C-3.01 2.67 -2.02 2.34 -1 2 C-0.67 1.34 -0.34 0.68 0 0 Z " fill="#EDF5FD" transform="translate(252,199)"/>
<path d="M0 0 C0.33 1.32 0.66 2.64 1 4 C-0.4375 6.25 -0.4375 6.25 -2 8 C-3.32 7.67 -4.64 7.34 -6 7 C-4.02 4.69 -2.04 2.38 0 0 Z " fill="#5296AA" transform="translate(281,167)"/>
<path d="M0 0 C0.66 1.32 1.32 2.64 2 4 C0.71937515 5.7074998 -0.61767557 7.37373596 -2 9 C-2.66 9 -3.32 9 -4 9 C-3.67 7.68 -3.34 6.36 -3 5 C-2.34 5 -1.68 5 -1 5 C-0.67 3.35 -0.34 1.7 0 0 Z M-5 9 C-4 13 -4 13 -4 13 Z " fill="#2A97A2" transform="translate(294,152)"/>
<path d="M0 0 C0.33 0 0.66 0 1 0 C1.25 2.75 1.25 2.75 1 6 C-1 8.375 -1 8.375 -3 10 C-3.33 9.34 -3.66 8.68 -4 8 C-3.22265625 6.0546875 -3.22265625 6.0546875 -2.0625 3.875 C-1.49208984 2.78832031 -1.49208984 2.78832031 -0.91015625 1.6796875 C-0.60980469 1.12539062 -0.30945313 0.57109375 0 0 Z " fill="#6286B1" transform="translate(166,152)"/>
<path d="M0 0 C0.99 0.33 1.98 0.66 3 1 C3 1.66 3 2.32 3 3 C3.99 3.33 4.98 3.66 6 4 C5.67 5.32 5.34 6.64 5 8 C4.67 7.01 4.34 6.02 4 5 C2.68 5 1.36 5 0 5 C0 3.35 0 1.7 0 0 Z " fill="#1CA49A" transform="translate(283,291)"/>
<path d="M0 0 C1.32 0 2.64 0 4 0 C3.34 1.98 2.68 3.96 2 6 C0.68 5.34 -0.64 4.68 -2 4 C-2 3.34 -2 2.68 -2 2 C-1.34 2 -0.68 2 0 2 C0 1.34 0 0.68 0 0 Z " fill="#F6F1F9" transform="translate(100,289)"/>
<path d="M0 0 C0.99 0.33 1.98 0.66 3 1 C1.02 3.31 -0.96 5.62 -3 8 C-4 5 -4 5 -3.1875 2.875 C-2 1 -2 1 0 0 Z " fill="#E9EDF9" transform="translate(214,246)"/>
<path d="M0 0 C0.99 0.33 1.98 0.66 3 1 C1.7260411 3.03833424 0.38938077 5.03852126 -1 7 C-1.66 7 -2.32 7 -3 7 C-3.33 7.66 -3.66 8.32 -4 9 C-4 7.35 -4 5.7 -4 4 C-3.01 4 -2.02 4 -1 4 C-0.67 2.68 -0.34 1.36 0 0 Z " fill="#DDF7F6" transform="translate(311,126)"/>
<path d="M0 0 C0.66 0.33 1.32 0.66 2 1 C2 3.31 2 5.62 2 8 C1.01 8 0.02 8 -1 8 C-1 7.34 -1 6.68 -1 6 C-1.66 5.67 -2.32 5.34 -3 5 C-2.01 3.35 -1.02 1.7 0 0 Z " fill="#3B89A4" transform="translate(275,175)"/>
<path d="M0 0 C0.33 0 0.66 0 1 0 C1.65273326 3.02454618 2.1493847 5.90026751 2 9 C-0.4375 11.5625 -0.4375 11.5625 -3 13 C-2.85691406 12.43796875 -2.71382812 11.8759375 -2.56640625 11.296875 C-1.98879098 8.95454547 -1.45716693 6.60582341 -0.9375 4.25 C-0.76089844 3.45078125 -0.58429688 2.6515625 -0.40234375 1.828125 C-0.26957031 1.22484375 -0.13679687 0.6215625 0 0 Z " fill="#4A78B4" transform="translate(167,151)"/>
<path d="M0 0 C0.66 0 1.32 0 2 0 C1.54738642 1.43931117 1.08767021 2.87638999 0.625 4.3125 C0.36976563 5.11300781 0.11453125 5.91351563 -0.1484375 6.73828125 C-1 9 -1 9 -3 12 C-3.34833144 7.12335991 -2.41685712 4.22949995 0 0 Z " fill="#DCECF7" transform="translate(163,154)"/>
<path d="M0 0 C-1.65 1.98 -3.3 3.96 -5 6 C-6.0625 4.125 -6.0625 4.125 -7 2 C-5.26578631 -1.46842738 -3.40984787 -1.13661596 0 0 Z " fill="#D8F5F1" transform="translate(327,112)"/>
<path d="M0 0 C0.33 0 0.66 0 1 0 C1.17942163 3.94727588 1.09350689 6.5980513 -1 10 C-1.99 9.67 -2.98 9.34 -4 9 C-2.68 6.03 -1.36 3.06 0 0 Z " fill="#5B93AF" transform="translate(190,98)"/>
<path d="M0 0 C0.66 0.33 1.32 0.66 2 1 C2 1.99 2 2.98 2 4 C1.01 4.495 1.01 4.495 0 5 C-0.72159424 6.64363134 -1.39351421 8.31050386 -2 10 C-2.66 10 -3.32 10 -4 10 C-3.52449439 8.51965236 -3.04448784 7.04074979 -2.5625 5.5625 C-2.29566406 4.73878906 -2.02882812 3.91507812 -1.75390625 3.06640625 C-1 1 -1 1 0 0 Z " fill="#6295AA" transform="translate(195,88)"/>
<path d="M0 0 C-0.33 1.65 -0.66 3.3 -1 5 C-2.32 5.33 -3.64 5.66 -5 6 C-5 4.68 -5 3.36 -5 2 C-2 0 -2 0 0 0 Z " fill="#5973BC" transform="translate(157,256)"/>
<path d="M0 0 C0.33 0.66 0.66 1.32 1 2 C-0.73397418 5.65047197 -2.19333016 7.55609075 -6 9 C-4.47291037 5.56404834 -2.40072955 2.88087546 0 0 Z " fill="#C3EEEC" transform="translate(240,204)"/>
<path d="M0 0 C1 3 1 3 1 5 C-1.31 5.66 -3.62 6.32 -6 7 C-4.02 4.69 -2.04 2.38 0 0 Z " fill="#EDF1FB" transform="translate(149,266)"/>
<path d="M0 0 C0.99 0.33 1.98 0.66 3 1 C2.38722388 3.96175123 1.74627478 5.38058783 0 8 C-1.125 2.25 -1.125 2.25 0 0 Z " fill="#6B53DC" transform="translate(118,263)"/>
<path d="M0 0 C0.66 0.33 1.32 0.66 2 1 C1.1875 4.4375 1.1875 4.4375 0 8 C-0.99 8.33 -1.98 8.66 -3 9 C-2.01 6.03 -1.02 3.06 0 0 Z " fill="#7875C1" transform="translate(129,233)"/>
<path d="M0 0 C-0.33 1.98 -0.66 3.96 -1 6 C-2.32 6.33 -3.64 6.66 -5 7 C-4.625 4.0625 -4.625 4.0625 -4 1 C-2 0 -2 0 0 0 Z " fill="#5170BB" transform="translate(158,179)"/>
<path d="M0 0 C1.485 0.99 1.485 0.99 3 2 C2.01 4.31 1.02 6.62 0 9 C-0.33 9 -0.66 9 -1 9 C-0.67 6.03 -0.34 3.06 0 0 Z " fill="#DFF0F8" transform="translate(169,138)"/>
<path d="M0 0 C0.66 0 1.32 0 2 0 C1.5206753 4.31392226 0.2542015 6.16569547 -3 9 C-3 7.35 -3 5.7 -3 4 C-2.01 4 -1.02 4 0 4 C0 2.68 0 1.36 0 0 Z " fill="#5F7AB0" transform="translate(239,256)"/>
<path d="M0 0 C0.33 0 0.66 0 1 0 C1 2.31 1 4.62 1 7 C-0.98 7.99 -0.98 7.99 -3 9 C-2.01 6.03 -1.02 3.06 0 0 Z " fill="#766ABC" transform="translate(120,253)"/>
<path d="M0 0 C1.5 1.375 1.5 1.375 3 3 C3 3.66 3 4.32 3 5 C1.02 5.66 -0.96 6.32 -3 7 C-1.125 2.25 -1.125 2.25 0 0 Z " fill="#4C9BAE" transform="translate(277,212)"/>
<path d="M0 0 C2.64465038 3.1254959 3.84414715 6.08788267 5 10 C0.07692308 5.69230769 0.07692308 5.69230769 -0.3125 2.1875 C-0.209375 1.465625 -0.10625 0.74375 0 0 Z " fill="#5AA9A8" transform="translate(220,142)"/>
<path d="M0 0 C0 3.15081975 -0.27898465 4.41847698 -2 7 C-4.125 7.75 -4.125 7.75 -6 8 C-4.73058503 4.08597051 -3.48832306 2.20927127 0 0 Z " fill="#E3F9F7" transform="translate(322,125)"/>
<path d="M0 0 C2.11180592 2.57089417 3.66306057 4.63060567 4 8 C3.34 8.66 2.68 9.32 2 10 C0.39644899 6.49223216 -0.22036864 3.85645121 0 0 Z " fill="#4C9EA5" transform="translate(208,116)"/>
<path d="M0 0 C0.33 0.66 0.66 1.32 1 2 C0.22265625 3.7265625 0.22265625 3.7265625 -0.9375 5.625 C-1.618125 6.73875 -2.29875 7.8525 -3 9 C-3.99 8.34 -4.98 7.68 -6 7 C-4.02 4.69 -2.04 2.38 0 0 Z " fill="#6BA69A" transform="translate(329,108)"/>
<path d="M0 0 C0.8353125 0.7734375 0.8353125 0.7734375 1.6875 1.5625 C-1.2825 1.5625 -4.2525 1.5625 -7.3125 1.5625 C-7.3125 0.9025 -7.3125 0.2425 -7.3125 -0.4375 C-2.88173077 -1.79134615 -2.88173077 -1.79134615 0 0 Z " fill="#4B7BA8" transform="translate(270.3125,297.4375)"/>
<path d="M0 0 C0.66 0.33 1.32 0.66 2 1 C0.02 5.455 0.02 5.455 -2 10 C-3.26066301 6.21801096 -2.42292658 4.63636792 -1 1 C-0.67 0.67 -0.34 0.34 0 0 Z " fill="#756FB9" transform="translate(132,288)"/>
<path d="M0 0 C0.66 1.32 1.32 2.64 2 4 C0.02 4.66 -1.96 5.32 -4 6 C-1.125 1.125 -1.125 1.125 0 0 Z " fill="#6E56C2" transform="translate(187,283)"/>
<path d="M0 0 C1.32 0.33 2.64 0.66 4 1 C3.01 2.98 2.02 4.96 1 7 C0.67 7 0.34 7 0 7 C0 4.69 0 2.38 0 0 Z " fill="#5B80B6" transform="translate(246,242)"/>
<path d="M0 0 C0.99 0.33 1.98 0.66 3 1 C3 2.32 3 3.64 3 5 C1.68 5.33 0.36 5.66 -1 6 C-1.042721 4.33388095 -1.04063832 2.66617115 -1 1 C-0.67 0.67 -0.34 0.34 0 0 Z " fill="#26A0A6" transform="translate(217,224)"/>
<path d="M0 0 C1.32 0 2.64 0 4 0 C4 1.98 4 3.96 4 6 C3.34 6 2.68 6 2 6 C1.34 4.02 0.68 2.04 0 0 Z " fill="#309699" transform="translate(278,212)"/>
<path d="M0 0 C2.31 0 4.62 0 7 0 C6.01 0.495 6.01 0.495 5 1 C4.67 1.99 4.34 2.98 4 4 C2.68 3.67 1.36 3.34 0 3 C0 2.01 0 1.02 0 0 Z " fill="#10B19B" transform="translate(232,200)"/>
<path d="M0 0 C0.33 0.66 0.66 1.32 1 2 C1.66 2.33 2.32 2.66 3 3 C2.01 4.32 1.02 5.64 0 7 C-0.66 5.68 -1.32 4.36 -2 3 C-1.34 2.01 -0.68 1.02 0 0 Z " fill="#3DA3AE" transform="translate(296,148)"/>
<path d="M0 0 C0.33 1.32 0.66 2.64 1 4 C0.34 4 -0.32 4 -1 4 C-1 4.99 -1 5.98 -1 7 C-2.32 6.67 -3.64 6.34 -5 6 C-3.35 4.02 -1.7 2.04 0 0 Z " fill="#45A5A4" transform="translate(302,141)"/>
</svg>
