<svg width="940" height="940" viewBox="0 0 940 940" fill="none" xmlns="http://www.w3.org/2000/svg">
<g clip-path="url(#clip0_11098_4262)">
<rect width="940" height="940" rx="470" fill="#11411C"/>
<circle cx="470" cy="470" r="470" fill="#11431D"/>
<path d="M5.99988 867.201C89.5199 868.641 203.727 826.16 180.687 913.28C162.687 978.8 117.327 1042.88 58.2866 1076C46.7666 1082.48 34.5266 1088.96 22.2866 1094C25.8866 1128.56 38.8466 1223.6 83.4866 1225.04C175.647 1227.92 256.287 934.88 256.287 752L322.527 752C322.527 848.48 306.687 952.88 278.607 1046.48C246.207 1153.04 179.967 1302.8 69.0865 1290.56C-13.7135 1281.2 -33.8734 1167.44 -41.7934 1110.56C-59.0734 1112.72 -76.3534 1113.44 -93.6334 1113.44L-92.9134 1047.2C-77.0734 1047.92 -61.9534 1046.48 -48.2734 1044.32C-48.9934 1018.4 -48.2734 990.32 -46.1134 963.68C-43.2334 921.2 -120.72 864.321 5.99988 867.201ZM120.927 867.2C123.807 839.84 33.3599 937.761 5.99986 933.441C-29.2802 927.681 35.9666 842 26.6066 900.32C18.6866 950 17.2466 1002.56 17.2466 1022.72C78.4466 990.32 114.447 930.56 120.927 867.2Z" fill="#9CFFBE"/>
<path d="M1012.76 39.4814C1014.03 123.004 925.594 213.367 1012.76 190.5C1078.32 172.63 995.301 205.211 1028.54 146.237C1035.04 134.73 1041.55 122.503 1046.61 110.273C1081.16 113.941 1176.18 127.09 1177.53 171.733C1180.23 263.898 887.026 343.956 704.146 343.593L704.015 409.833C800.494 410.025 904.926 394.392 998.581 366.498C1105.21 334.309 1255.1 268.367 1243.08 157.463C1233.88 74.6442 1120.16 54.2585 1063.3 46.2256C1065.49 28.9499 1066.25 11.6714 1066.28 -5.60856L1000.04 -5.02004C1000.73 10.8214 999.257 25.9385 997.07 39.6141C971.151 38.8427 943.07 39.507 916.426 41.6141C873.94 44.4098 1010.13 -87.2441 1012.76 39.4814ZM951 137.5C923.634 140.326 1083.27 66.9813 1079 39.6128C1073.31 4.32145 794.583 123.452 852.922 114.208C902.617 106.387 955.18 105.051 975.34 105.091C942.819 166.227 1014.37 131.146 951 137.5Z" fill="#9CFFBE"/>
<path d="M494.56 730.465C411.04 729.025 380.8 631.105 403.84 543.985C421.84 478.465 467.2 414.385 526.24 381.265C537.76 374.785 550 368.305 562.24 363.265C558.64 328.705 545.68 233.665 501.04 232.225C408.88 229.345 328.24 522.385 328.24 705.265H262C262 608.785 277.84 504.385 305.92 410.785C338.32 304.225 404.56 154.465 515.44 166.705C598.24 176.065 618.4 289.825 626.32 346.705C643.6 344.545 660.88 343.825 678.16 343.825L677.44 410.065C661.6 409.345 646.48 410.785 632.8 412.945C633.52 438.865 632.8 466.945 630.64 493.585C627.76 536.065 621.28 733.345 494.56 730.465ZM463.6 590.065C460.72 617.425 467.2 659.905 494.56 664.225C529.84 669.985 548.56 615.265 557.92 556.945C565.84 507.265 567.28 454.705 567.28 434.545C506.08 466.945 470.08 526.705 463.6 590.065Z" fill="#9CFFBE"/>
</g>
<defs>
<clipPath id="clip0_11098_4262">
<rect width="940" height="940" rx="470" fill="white"/>
</clipPath>
</defs>
</svg>
