<svg version="1.1" xmlns="http://www.w3.org/2000/svg" width="400" height="400">
<path d="M0 0 C132 0 264 0 400 0 C400 132 400 264 400 400 C268 400 136 400 0 400 C0 268 0 136 0 0 Z " fill="#FEE033" transform="translate(0,0)"/>
<path d="M0 0 C13.86 0 27.72 0 42 0 C42 54.78 42 109.56 42 166 C28.47 166 14.94 166 1 166 C1 159.07 1 152.14 1 145 C-35.72832913 140.51067002 -35.72832913 140.51067002 -68.609375 153.47265625 C-71.95303352 156.44754508 -75.03976192 159.57639869 -78.0625 162.875 C-79.15759384 164.05758896 -79.15759384 164.05758896 -80.27481079 165.2640686 C-82.34440313 167.56394799 -84.33267837 169.90485023 -86.28515625 172.3046875 C-86.8614679 173.01049454 -87.43777954 173.71630157 -88.03155518 174.4434967 C-92.28192469 180.18533099 -92.79548168 184.9023404 -93 192 C-97.62 192 -102.24 192 -107 192 C-107 188.04 -107 184.08 -107 180 C-103.04 180 -99.08 180 -95 180 C-94.34 178.68 -93.68 177.36 -93 176 C-91.00740166 173.83278889 -88.99611721 171.75389034 -86.90136719 169.69018555 C-86.2767308 169.0668634 -85.65209442 168.44354126 -85.00852966 167.80133057 C-82.94253495 165.74182598 -80.86965789 163.68938926 -78.796875 161.63671875 C-77.35628251 160.20239975 -75.91620602 158.76756232 -74.47662354 157.33222961 C-70.68225769 153.55117175 -66.88237415 149.77571208 -63.08087158 146.00183105 C-57.00946342 139.97350733 -50.94465734 133.93856153 -44.88321686 127.90021706 C-42.77079654 125.79796498 -40.65496355 123.69919387 -38.53875732 121.60075378 C-37.23112318 120.2999545 -35.92360188 118.99904177 -34.61621094 117.69799805 C-34.03312668 117.12165115 -33.45004242 116.54530426 -32.84928894 115.95149231 C-29.4668155 112.57830164 -26.34084099 109.10262039 -23.35260201 105.37337875 C-22 104 -22 104 -19.20751953 103.20532227 C-18.27536621 103.24197998 -17.34321289 103.2786377 -16.3828125 103.31640625 C-15.46387207 103.33388916 -14.54493164 103.35137207 -13.59814453 103.36938477 C-12.45200684 103.43311279 -11.30586914 103.49684082 -10.125 103.5625 C-6.45375 103.706875 -2.7825 103.85125 1 104 C0.67 90.8 0.34 77.6 0 64 C-2.86993652 67.08988281 -5.73987305 70.17976563 -8.69677734 73.36328125 C-18.27123932 83.63848093 -27.96478125 93.79514001 -37.72133446 103.89744568 C-43.62618671 110.01730023 -49.48605798 116.17017108 -55.25244141 122.42089844 C-97.26777195 167.89627436 -97.26777195 167.89627436 -117.74296761 169.4108429 C-126.68931477 169.60244411 -135.37956833 168.32210793 -144 166 C-144.09273985 163.35691431 -144.18515579 160.71382728 -144.27520752 158.07064819 C-144.34880506 156.03649778 -144.43985046 154.00296078 -144.54052734 151.9699707 C-144.66094009 144.89216131 -144.66094009 144.89216131 -142.7277832 142.28271484 C-141.13671875 140.98046875 -141.13671875 140.98046875 -138 139 C-136.30911778 137.02043058 -134.64169528 135.02054804 -133 133 C-130.42386387 130.29175432 -127.83484565 127.86518012 -124.9375 125.5 C-122.18754889 123.15961608 -120.2017103 120.84091652 -118 118 C-115.32457439 115.17995679 -112.5485537 112.60460847 -109.5625 110.125 C-106.50017344 107.54095438 -103.95787103 104.74154098 -101.40234375 101.6640625 C-98.72217763 98.48369825 -95.85745344 95.65957957 -92.5625 93.125 C-89.84133864 90.86842716 -87.73131032 88.43782796 -85.47265625 85.734375 C-82.73884086 82.51470913 -79.83735503 79.64895015 -76.5 77.0625 C-73.57679375 74.65085484 -71.39404964 71.9327108 -69 69 C-66.42386387 66.29175432 -63.83484565 63.86518012 -60.9375 61.5 C-58.18754889 59.15961608 -56.2017103 56.84091652 -54 54 C-51.12904527 50.96954779 -48.10316059 48.21342336 -44.9375 45.5 C-41.9058646 42.87712443 -39.43755654 40.19403961 -37 37 C-34.28509102 34.13833918 -31.46039445 31.52553788 -28.4375 29 C-25.55772117 26.56804854 -23.30342609 23.99445392 -21 21 C-18.30483379 18.15914913 -15.50444254 15.56511591 -12.5 13.0625 C-9.22851586 10.30196349 -6.68061639 7.33265821 -4 4 C-2.68 2.68 -1.36 1.36 0 0 Z " fill="#010000" transform="translate(207,114)"/>
<path d="M0 0 C13.86 0 27.72 0 42 0 C42 54.78 42 109.56 42 166 C28.14 166 14.28 166 0 166 C0 111.22 0 56.44 0 0 Z " fill="#050401" transform="translate(266,114)"/>
<path d="M0 0 C0 13.53 0 27.06 0 41 C-7.59 41 -15.18 41 -23 41 C-23.66 42.32 -24.32 43.64 -25 45 C-26.62001094 46.71205144 -28.29518194 48.37237875 -30 50 C-31.02326973 51.01593849 -32.04385966 52.03458105 -33.06219482 53.0554657 C-34.21429864 54.20455516 -35.36641958 55.35362746 -36.51855469 56.50268555 C-42.94242321 62.91025567 -49.36377727 69.32033954 -55.78368759 75.73187542 C-59.66388467 79.60683164 -63.54502041 83.48083838 -67.42822266 87.3527832 C-71.1903211 91.10404809 -74.94999946 94.85772261 -78.70798492 98.61310768 C-80.14089454 100.04416637 -81.57468554 101.4743431 -83.00936127 102.90363121 C-85.00823162 104.89528338 -87.00399211 106.89000141 -88.99902344 108.88549805 C-89.59537094 109.47825027 -90.19171844 110.0710025 -90.80613708 110.68171692 C-93.76669374 113.56483071 -93.76669374 113.56483071 -96 117 C-99.96 117 -103.92 117 -108 117 C-108 120.96 -108 124.92 -108 129 C-108.33 127.68 -108.66 126.36 -109 125 C-109.66 125 -110.32 125 -111 125 C-110.67 122.69 -110.34 120.38 -110 118 C-110.66 118 -111.32 118 -112 118 C-112 117.34 -112 116.68 -112 116 C-111.34 115.67 -110.68 115.34 -110 115 C-110 114.34 -110 113.68 -110 113 C-109.27554688 112.93941406 -108.55109375 112.87882812 -107.8046875 112.81640625 C-102.82883467 112.38516567 -97.91319609 111.92952359 -93 111 C-93.33 109.68 -93.66 108.36 -94 107 C-93.401875 106.938125 -92.80375 106.87625 -92.1875 106.8125 C-89.11208657 105.67020358 -88.54522728 103.82171939 -87 101 C-86.46375 100.505 -85.9275 100.01 -85.375 99.5 C-83.77382618 98.0322063 -83.77382618 98.0322063 -83.625 95.5625 C-82.76043579 92.01778673 -80.98103954 90.9631236 -78 89 C-77.34 89 -76.68 89 -76 89 C-75.67 88.34 -75.34 87.68 -75 87 C-75.99 87 -76.98 87 -78 87 C-78 86.34 -78 85.68 -78 85 C-79.65 85.66 -81.3 86.32 -83 87 C-83 88.65 -83 90.3 -83 92 C-85.475 92.495 -85.475 92.495 -88 93 C-88 92.34 -88 91.68 -88 91 C-88.66 91 -89.32 91 -90 91 C-90.33 93.31 -90.66 95.62 -91 98 C-91.99 98.33 -92.98 98.66 -94 99 C-94 99.66 -94 100.32 -94 101 C-94.804375 101.12375 -95.60875 101.2475 -96.4375 101.375 C-97.7059375 101.684375 -97.7059375 101.684375 -99 102 C-99.33 102.66 -99.66 103.32 -100 104 C-114.52 104 -129.04 104 -144 104 C-144 103.67 -144 103.34 -144 103 C-142.55723694 103.35566795 -142.55723694 103.35566795 -141.08532715 103.71852112 C-127.43277356 106.70959553 -112.16205759 107.51901417 -99.80529785 100.07558441 C-91.40677956 94.0342587 -83.99976437 86.91411663 -76.71875 79.58984375 C-76.16335289 79.03122792 -75.60795578 78.47261209 -75.03572845 77.8970685 C-68.10783355 70.89528672 -61.36328438 63.72861589 -54.67447472 56.49899733 C-48.89527859 50.26067225 -42.99975006 44.13738774 -37.09268093 38.02039897 C-29.89109959 30.56152833 -22.70628188 23.08810734 -15.61315918 15.52586365 C-15.11641095 14.99637214 -14.61966272 14.46688063 -14.10786152 13.92134392 C-11.78121038 11.43919538 -9.45922201 8.95293913 -7.14202881 6.46194458 C-6.34166199 5.60514603 -5.54129517 4.74834747 -4.7166748 3.86558533 C-4.01866508 3.11470107 -3.32065536 2.36381681 -2.60149384 1.59017849 C-1 0 -1 0 0 0 Z " fill="#F9E037" transform="translate(208,177)"/>
<path d="M0 0 C0 3.6513433 -1.22810498 4.68314241 -3.61328125 7.3046875 C-5.08696567 8.98879395 -5.08696567 8.98879395 -6.11938477 11.1484375 C-8.73012539 15.10708355 -12.03463191 18.08245186 -15.4765625 21.3203125 C-16.96734313 22.75657079 -18.45688887 24.19411175 -19.9453125 25.6328125 C-22.28212277 27.88325599 -24.62506354 30.12505966 -26.99023438 32.34570312 C-29.2800373 34.50159945 -31.53604021 36.68858787 -33.7890625 38.8828125 C-34.49632477 39.53218781 -35.20358704 40.18156311 -35.93228149 40.85061646 C-41.40396658 46.26168846 -41.92454195 50.36080662 -42 58 C-46.62 58 -51.24 58 -56 58 C-56 54.04 -56 50.08 -56 46 C-52.04 46 -48.08 46 -44 46 C-43.34 44.68 -42.68 43.36 -42 42 C-40.68933844 40.51755238 -39.32086938 39.08541507 -37.91748047 37.69042969 C-37.07675995 36.84986023 -36.23603943 36.00929077 -35.36984253 35.14324951 C-34.46146637 34.24519592 -33.55309021 33.34714233 -32.6171875 32.421875 C-31.68778351 31.4953009 -30.75837952 30.56872681 -29.80081177 29.61407471 C-27.3359615 27.15684211 -24.86516334 24.70567639 -22.39306641 22.2557373 C-19.86909235 19.75226191 -17.35080612 17.24307937 -14.83203125 14.734375 C-9.89356403 9.81732475 -4.948788 4.90666212 0 0 Z " fill="#2D1E03" transform="translate(156,248)"/>
<path d="M0 0 C13.86 0 27.72 0 42 0 C42 54.78 42 109.56 42 166 C28.47 166 14.94 166 1 166 C1 159.4 1 152.8 1 146 C1.33 146 1.66 146 2 146 C2 152.27 2 158.54 2 165 C14.87 164.67 27.74 164.34 41 164 C40.67 110.54 40.34 57.08 40 2 C26.47 2 12.94 2 -1 2 C-0.67 1.34 -0.34 0.68 0 0 Z " fill="#0E0600" transform="translate(207,114)"/>
<path d="M0 0 C0.33 0 0.66 0 1 0 C1.04666698 21.47877643 1.08196278 42.95754452 1.10362434 64.43636131 C1.11394835 74.4087633 1.12803008 84.38113383 1.15087891 94.35351562 C1.17077845 103.04280576 1.18370825 111.73207312 1.18817699 120.42138541 C1.19079021 125.02468981 1.19695561 129.62792905 1.21146011 134.23121262 C1.22498983 138.56001495 1.22923204 142.888725 1.22621536 147.21754646 C1.2267676 148.80991809 1.23077243 150.40229267 1.23841095 151.99464607 C1.24830025 154.16169672 1.2459912 156.32839479 1.24050903 158.49545288 C1.24235262 159.71037603 1.24419621 160.92529919 1.24609566 162.17703819 C1 165 1 165 -1 167 C-4.08943916 167.10470753 -7.08073522 167.08854402 -10.1640625 166.9765625 C-11.07127045 166.95153656 -11.97847839 166.92651062 -12.91317749 166.90072632 C-15.81749134 166.81839936 -18.72113795 166.72185934 -21.625 166.625 C-23.59111837 166.56677339 -25.55726431 166.50946985 -27.5234375 166.453125 C-32.34934373 166.31280169 -37.17469862 166.15972802 -42 166 C-42 165.34 -42 164.68 -42 164 C-28.14 164 -14.28 164 0 164 C0 109.88 0 55.76 0 0 Z " fill="#F4E05E" transform="translate(250,116)"/>
<path d="M0 0 C0.33 0 0.66 0 1 0 C1.1771236 21.47870237 1.34280772 42.95746563 1.49477577 64.43636131 C1.56560138 74.4087966 1.6402072 84.38117713 1.72363281 94.35351562 C1.79631494 103.04276024 1.86198539 111.73202429 1.91914403 120.42138541 C1.94967212 125.02472154 1.98377347 129.62797007 2.02626419 134.23121262 C2.06611059 138.55996274 2.09661334 142.88867609 2.11981392 147.21754646 C2.13002038 148.80993957 2.14370033 150.40231461 2.16103554 151.99464607 C2.18411783 154.16164208 2.19492674 156.32835562 2.20254517 158.49545288 C2.2117631 159.71037603 2.22098103 160.92529919 2.23047829 162.17703819 C2 165 2 165 0 167 C-2.57715302 167.11699727 -5.03499366 167.11358178 -7.60546875 167.01171875 C-8.36289871 166.98906448 -9.12032867 166.96641022 -9.90071106 166.94306946 C-11.5072882 166.89305329 -13.11371739 166.83807908 -14.7199707 166.77856445 C-17.16009509 166.68851138 -19.6003091 166.61337493 -22.04101562 166.54101562 C-23.60419555 166.49046889 -25.16734799 166.43906338 -26.73046875 166.38671875 C-27.45364792 166.36373215 -28.17682709 166.34074554 -28.92192078 166.31706238 C-33.35447176 166.14838009 -37.62779038 165.6973923 -42 165 C-42 164.67 -42 164.34 -42 164 C-28.14 164 -14.28 164 0 164 C0 109.88 0 55.76 0 0 Z " fill="#F1E357" transform="translate(308,116)"/>
<path d="M0 0 C1.9204438 0.01273453 1.9204438 0.01273453 3.87968445 0.02572632 C7.27189303 0.04855842 10.66254263 0.10742678 14.05413818 0.1739502 C17.51960156 0.23549795 20.98531865 0.26276757 24.45117188 0.29296875 C31.24286153 0.35909859 38.03339885 0.45948686 44.82421875 0.5859375 C44.82421875 0.9159375 44.82421875 1.2459375 44.82421875 1.5859375 C40.20421875 1.5859375 35.58421875 1.5859375 30.82421875 1.5859375 C30.49421875 2.5759375 30.16421875 3.5659375 29.82421875 4.5859375 C28.90608398 4.61099365 27.98794922 4.6360498 27.04199219 4.66186523 C23.6276485 4.7571402 20.21346672 4.85636528 16.79931641 4.95825195 C15.32312485 5.00149785 13.8468866 5.04318006 12.37060547 5.08325195 C10.24562527 5.14120596 8.12087782 5.20482696 5.99609375 5.26953125 C4.71831055 5.30618896 3.44052734 5.34284668 2.12402344 5.38061523 C-0.49487998 5.54357009 -2.68594841 5.81540553 -5.17578125 6.5859375 C-5.17578125 5.5959375 -5.17578125 4.6059375 -5.17578125 3.5859375 C-5.83578125 4.0809375 -6.49578125 4.5759375 -7.17578125 5.0859375 C-11.14211366 7.06910371 -13.77881387 6.80951211 -18.17578125 6.5859375 C-13.81562412 -1.1210069 -8.22481761 -0.2049315 0 0 Z " fill="#FBDF3B" transform="translate(162.17578125,259.4140625)"/>
<path d="M0 0 C0.33 0 0.66 0 1 0 C1 13.53 1 27.06 1 41 C-6.59 41 -14.18 41 -22 41 C-22.66 42.32 -23.32 43.64 -24 45 C-27.39934952 48.68262864 -31.12200496 51.84349241 -35 55 C-34.67 53.35 -34.34 51.7 -34 50 C-33.01 50 -32.02 50 -31 50 C-31 49.01 -31 48.02 -31 47 C-29.625 45.3125 -29.625 45.3125 -28 44 C-27.34 44 -26.68 44 -26 44 C-26 43.01 -26 42.02 -26 41 C-25.01 41 -24.02 41 -23 41 C-23 40.34 -23 39.68 -23 39 C-13.1 38.505 -13.1 38.505 -3 38 C-2.01729084 28.29574708 -1.89614796 18.73901314 -2 9 C-4.49092811 7.75453595 -5.41080733 8.2232422 -8 9 C-7.04270084 7.87411986 -6.08412105 6.7493285 -5.125 5.625 C-4.59132812 4.99851563 -4.05765625 4.37203125 -3.5078125 3.7265625 C-2.38567993 2.44163349 -1.20628025 1.20628025 0 0 Z " fill="#DDC848" transform="translate(207,177)"/>
<path d="M0 0 C-0.33 0.99 -0.66 1.98 -1 3 C-1.22179785 4.89212737 -1.40614015 6.78884472 -1.5625 8.6875 C-1.706875 10.440625 -1.85125 12.19375 -2 14 C-6.62 14 -11.24 14 -16 14 C-16 10.04 -16 6.08 -16 2 C-12.94010417 1.77213542 -9.88020833 1.54427083 -6.8203125 1.31640625 C-4.26398303 1.02961583 -2.50524575 0 0 0 Z " fill="#1C1304" transform="translate(116,292)"/>
<path d="M0 0 C1.078125 3.7578125 1.078125 3.7578125 0.375 5.9375 C-2.38448356 10.07672534 -5.51163724 12.91611729 -10 15 C-10.33 15.66 -10.66 16.32 -11 17 C-11.66 17 -12.32 17 -13 17 C-13.309375 17.61875 -13.61875 18.2375 -13.9375 18.875 C-14.625 20.25 -15.3125 21.625 -16 23 C-15.34 22.67 -14.68 22.34 -14 22 C-11.33358336 21.9008767 -8.69392185 21.86018445 -6.02734375 21.8671875 C-5.23026505 21.86623077 -4.43318634 21.86527405 -3.61195374 21.86428833 C-1.91976849 21.86360683 -0.22758064 21.865459 1.46459961 21.86962891 C4.02789371 21.87492845 6.59100861 21.86970863 9.15429688 21.86328125 C10.80208371 21.863943 12.44987044 21.86522616 14.09765625 21.8671875 C14.85426041 21.86516327 15.61086456 21.86313904 16.39039612 21.86105347 C21.65931111 21.88369214 26.77081978 22.34801158 32 23 C32 23.33 32 23.66 32 24 C15.17 24 -1.66 24 -19 24 C-17.14337552 19.35843881 -16.3304725 18.2295491 -13 15 C-12.56945312 14.24332031 -12.13890625 13.48664063 -11.6953125 12.70703125 C-9.73374453 9.57485014 -7.45728968 7.26359385 -4.8125 4.6875 C-3.91144531 3.80449219 -3.01039063 2.92148438 -2.08203125 2.01171875 C-1.39496094 1.34785156 -0.70789063 0.68398437 0 0 Z " fill="#0C0401" transform="translate(169,235)"/>
<path d="M0 0 C0.33 0 0.66 0 1 0 C1 54.45 1 108.9 1 165 C0.01 165 -0.98 165 -2 165 C-1.67 164.01 -1.34 163.02 -1 162 C-0.89628344 159.83153489 -0.85353443 157.6600022 -0.84178162 155.48908997 C-0.83684364 154.82499121 -0.83190566 154.16089245 -0.82681805 153.47666949 C-0.81143702 151.24722555 -0.80308081 149.01781043 -0.79467773 146.78833008 C-0.78509968 145.19184617 -0.77508965 143.5953648 -0.76467896 141.99888611 C-0.73761591 137.66037538 -0.71661392 133.32185376 -0.69667697 128.98330522 C-0.67482606 124.45090128 -0.64743299 119.91853098 -0.62062073 115.38615417 C-0.57068174 106.801442 -0.52574738 98.21671117 -0.48259836 89.63196248 C-0.4332363 79.85938435 -0.37831435 70.08683996 -0.32291877 60.31429446 C-0.20908021 40.20956107 -0.10224524 20.10479547 0 0 Z " fill="#F8E156" transform="translate(264,115)"/>
<path d="M0 0 C0.495 1.98 0.495 1.98 1 4 C0.01 4.33 -0.98 4.66 -2 5 C-2 5.66 -2 6.32 -2 7 C-3.98260426 8.68732277 -5.9832342 10.35366057 -8 12 C-8.33 12.66 -8.66 13.32 -9 14 C-9.99 14 -10.98 14 -12 14 C-12.0825 14.763125 -12.165 15.52625 -12.25 16.3125 C-13.15269355 19.54715191 -14.13593461 20.35099265 -17 22 C-17.66 22 -18.32 22 -19 22 C-19.33 24.64 -19.66 27.28 -20 30 C-19.13375 28.9790625 -19.13375 28.9790625 -18.25 27.9375 C-17.5075 27.298125 -16.765 26.65875 -16 26 C-13.9375 26.1875 -13.9375 26.1875 -12 27 C-11.01 27.33 -10.02 27.66 -9 28 C-9.33 28.99 -9.66 29.98 -10 31 C-11.98 30.67 -13.96 30.34 -16 30 C-16.33 31.98 -16.66 33.96 -17 36 C-18.98 36 -20.96 36 -23 36 C-23 35.34 -23 34.68 -23 34 C-23.69867188 34.02320313 -24.39734375 34.04640625 -25.1171875 34.0703125 C-26.02726562 34.08835937 -26.93734375 34.10640625 -27.875 34.125 C-28.77992187 34.14820313 -29.68484375 34.17140625 -30.6171875 34.1953125 C-33 34 -33 34 -35 32 C-30.38 32 -25.76 32 -21 32 C-21.2165625 30.41574219 -21.433125 28.83148438 -21.65625 27.19921875 C-21.65625 21.70391407 -20.139366 19.30193902 -16.40625 15.33203125 C-14.45860244 13.45725486 -12.50079554 11.62689991 -10.5 9.8125 C-9.48578243 8.8535474 -8.4740353 7.89197489 -7.46484375 6.92773438 C-4.99959055 4.59161349 -2.51253338 2.28501801 0 0 Z " fill="#FCE03C" transform="translate(135,274)"/>
<path d="M0 0 C0.99 0.33 1.98 0.66 3 1 C2.78216961 4.81203175 2.13727362 5.8752058 -0.75 8.5 C-1.29140625 8.91507813 -1.8328125 9.33015625 -2.390625 9.7578125 C-6.05247246 12.58418991 -9.04658425 16.02894902 -12 19.5625 C-14.43195146 22.44227883 -17.00554608 24.69657391 -20 27 C-21.68615782 28.64694485 -23.35570171 30.31126121 -25 32 C-25.66 32.66 -26.32 33.32 -27 34 C-27.37051993 36.3245339 -27.37051993 36.3245339 -27.4140625 39.0078125 C-27.45273437 39.99394531 -27.49140625 40.98007812 -27.53125 41.99609375 C-27.5621875 43.02863281 -27.593125 44.06117188 -27.625 45.125 C-27.68300781 46.68541016 -27.68300781 46.68541016 -27.7421875 48.27734375 C-27.83664766 50.85138311 -27.92221214 53.42541155 -28 56 C-28.33 56 -28.66 56 -29 56 C-29 48.08 -29 40.16 -29 32 C-28.34 32 -27.68 32 -27 32 C-27.0825 31.236875 -27.165 30.47375 -27.25 29.6875 C-27 27 -27 27 -25.1875 25.125 C-24.465625 24.75375 -23.74375 24.3825 -23 24 C-22.01 24.33 -21.02 24.66 -20 25 C-20 23.68 -20 22.36 -20 21 C-19.01 21 -18.02 21 -17 21 C-16.67 20.01 -16.34 19.02 -16 18 C-15.67 18.33 -15.34 18.66 -15 19 C-13.824375 17.7625 -13.824375 17.7625 -12.625 16.5 C-10 14 -10 14 -8 14 C-8 13.34 -8 12.68 -8 12 C-8.66 11.67 -9.32 11.34 -10 11 C-8.68 11 -7.36 11 -6 11 C-6 10.34 -6 9.68 -6 9 C-5.34 9 -4.68 9 -4 9 C-3.67 7.68 -3.34 6.36 -3 5 C-2.01 5 -1.02 5 0 5 C-0.185625 4.360625 -0.37125 3.72125 -0.5625 3.0625 C-0.706875 2.381875 -0.85125 1.70125 -1 1 C-0.67 0.67 -0.34 0.34 0 0 Z " fill="#E3D14C" transform="translate(91,224)"/>
<path d="M0 0 C2.1519437 3.22791555 2.20086443 4.28400809 2 8 C0.35 8.33 -1.3 8.66 -3 9 C-3 8.34 -3 7.68 -3 7 C-3.66 7 -4.32 7 -5 7 C-5.33 9.31 -5.66 11.62 -6 14 C-6.99 14.33 -7.98 14.66 -9 15 C-9 15.66 -9 16.32 -9 17 C-9.804375 17.12375 -10.60875 17.2475 -11.4375 17.375 C-12.283125 17.58125 -13.12875 17.7875 -14 18 C-14.33 18.66 -14.66 19.32 -15 20 C-29.52 20 -44.04 20 -59 20 C-59 19.67 -59 19.34 -59 19 C-57.85225098 19.06396973 -56.70450195 19.12793945 -55.52197266 19.19384766 C-32.311414 21.32179895 -32.311414 21.32179895 -11.26953125 13.92578125 C-6.85717131 9.77957686 -3.15984203 5.16217917 0 0 Z " fill="#DECB45" transform="translate(123,261)"/>
<path d="M0 0 C0.66 0.33 1.32 0.66 2 1 C1.71241619 4.45100574 1.35802248 5.69035894 -1.3125 8 C-2.199375 8.66 -3.08625 9.32 -4 10 C-4.99 11.2684375 -4.99 11.2684375 -6 12.5625 C-8.11230342 15.13686979 -10.07555793 16.45654447 -13 18 C-13.08074168 12.26734086 -12.7517874 8.10258114 -8.6875 3.8125 C-6.88671875 2.08203125 -6.88671875 2.08203125 -5 1 C-2.76953125 1.32421875 -2.76953125 1.32421875 -1 2 C-0.67 1.34 -0.34 0.68 0 0 Z " fill="#F2DC37" transform="translate(188,128)"/>
<path d="M0 0 C-0.66 1.98 -1.32 3.96 -2 6 C-2.66 6 -3.32 6 -4 6 C-6.013841 12.04152299 -5.60275484 18.64407742 -6 25 C6.87 24.67 19.74 24.34 33 24 C33.33 23.34 33.66 22.68 34 22 C34.66 22 35.32 22 36 22 C36.495 20.515 36.495 20.515 37 19 C37.99 19.66 38.98 20.32 40 21 C36.39257365 25.70038871 36.39257365 25.70038871 32.92269897 26.44692993 C30.3768188 26.57792185 27.87246749 26.56193089 25.32421875 26.48828125 C24.3990596 26.48120651 23.47390045 26.47413177 22.52070618 26.46684265 C19.57546997 26.43892815 16.63215827 26.37619557 13.6875 26.3125 C11.68687648 26.2874133 9.68622306 26.26460078 7.68554688 26.24414062 C2.78962684 26.18911108 -2.10486068 26.10285901 -7 26 C-7.14533755 22.417094 -7.23407931 18.83494583 -7.3125 15.25 C-7.35439453 14.23421875 -7.39628906 13.2184375 -7.43945312 12.171875 C-7.56339834 4.63600596 -7.56339834 4.63600596 -4.60546875 1.296875 C-2 0 -2 0 0 0 Z " fill="#180E00" transform="translate(70,254)"/>
<path d="M0 0 C0.66 0.33 1.32 0.66 2 1 C1.78216961 4.81203175 1.13727362 5.8752058 -1.75 8.5 C-2.29011719 8.91378906 -2.83023438 9.32757813 -3.38671875 9.75390625 C-6.85227873 12.43069471 -9.68537668 15.6127713 -12.4375 19 C-15.11532298 22.13501227 -17.80177573 24.41420165 -21 27 C-22.35099103 28.31543863 -23.69205669 29.64175118 -25 31 C-25 30.01 -25 29.02 -25 28 C-25.66 27.67 -26.32 27.34 -27 27 C-26.01 27 -25.02 27 -24 27 C-23.67 26.34 -23.34 25.68 -23 25 C-22.34 25 -21.68 25 -21 25 C-20.67 23.68 -20.34 22.36 -20 21 C-18.68 21 -17.36 21 -16 21 C-16.33 19.35 -16.66 17.7 -17 16 C-15.35 16 -13.7 16 -12 16 C-12 14.35 -12 12.7 -12 11 C-11.01 10.67 -10.02 10.34 -9 10 C-8.34 10.33 -7.68 10.66 -7 11 C-7 10.34 -7 9.68 -7 9 C-6.34 9 -5.68 9 -5 9 C-4.67 7.68 -4.34 6.36 -4 5 C-2.68 4.67 -1.36 4.34 0 4 C0 2.68 0 1.36 0 0 Z " fill="#EAD64D" transform="translate(140,176)"/>
<path d="M0 0 C13.86 0 27.72 0 42 0 C42 3.96 42 7.92 42 12 C41.67 12 41.34 12 41 12 C40.67 8.7 40.34 5.4 40 2 C26.47 2 12.94 2 -1 2 C-0.67 1.34 -0.34 0.68 0 0 Z " fill="#281A00" transform="translate(207,114)"/>
<path d="M0 0 C14.19 0 28.38 0 43 0 C42.34 0.99 41.68 1.98 41 3 C37.87175721 3.19501281 34.95470322 3.20564503 31.8359375 3.07421875 C30.47512558 3.03455742 30.47512558 3.03455742 29.08682251 2.99409485 C26.18222562 2.90615109 23.27885399 2.79706582 20.375 2.6875 C18.40889842 2.62425998 16.44275214 2.56239331 14.4765625 2.50195312 C9.65037829 2.35058122 4.82518878 2.18024223 0 2 C0 1.34 0 0.68 0 0 Z " fill="#E5CF46" transform="translate(208,280)"/>
<path d="M0 0 C0.33 0 0.66 0 1 0 C1.05399736 1.45792884 1.09279177 2.91642712 1.125 4.375 C1.14820313 5.18710937 1.17140625 5.99921875 1.1953125 6.8359375 C1 9 1 9 -1 11 C-3.57715302 11.11699727 -6.03499366 11.11358178 -8.60546875 11.01171875 C-9.74161369 10.97773735 -9.74161369 10.97773735 -10.90071106 10.94306946 C-12.5072882 10.89305329 -14.11371739 10.83807908 -15.7199707 10.77856445 C-18.16009509 10.68851138 -20.6003091 10.61337493 -23.04101562 10.54101562 C-24.60419555 10.49046889 -26.16734799 10.43906338 -27.73046875 10.38671875 C-28.8152375 10.35223885 -28.8152375 10.35223885 -29.92192078 10.31706238 C-34.35447176 10.14838009 -38.62779038 9.6973923 -43 9 C-43 8.67 -43 8.34 -43 8 C-28.81 8 -14.62 8 0 8 C0 5.36 0 2.72 0 0 Z " fill="#E4CE48" transform="translate(309,272)"/>
<path d="M0 0 C0.02934711 3.49998201 0.04691445 6.99993179 0.0625 10.5 C0.07087891 11.48226562 0.07925781 12.46453125 0.08789062 13.4765625 C0.10659124 19.08674757 -0.161121 24.45150899 -1 30 C-1.33 30 -1.66 30 -2 30 C-2.33 21.75 -2.66 13.5 -3 5 C-5.475 4.01 -5.475 4.01 -8 3 C-8.0825 3.763125 -8.165 4.52625 -8.25 5.3125 C-9 8 -9 8 -10.75 9.75 C-13.18691588 11.10384216 -15.25094301 11.61818653 -18 12 C-6.15789474 -2.05263158 -6.15789474 -2.05263158 0 0 Z " fill="#FAE03F" transform="translate(206,185)"/>
<path d="M0 0 C0.33 0.99 0.66 1.98 1 3 C1.99 3 2.98 3 4 3 C3.42655063 5.86724686 3.1385485 6.8614515 1 9 C-0.32 9 -1.64 9 -3 9 C-3 9.66 -3 10.32 -3 11 C-4.61992165 11.86375896 -6.24611861 12.71575854 -7.875 13.5625 C-9.23238281 14.27599609 -9.23238281 14.27599609 -10.6171875 15.00390625 C-11.40351563 15.33261719 -12.18984375 15.66132813 -13 16 C-13.66 15.67 -14.32 15.34 -15 15 C-10.05 10.05 -5.1 5.1 0 0 Z " fill="#F0DA3F" transform="translate(187,197)"/>
<path d="M0 0 C1.28029587 0.00707474 2.56059174 0.01414948 3.87968445 0.0214386 C7.27167187 0.04046411 10.66257649 0.08952287 14.05413818 0.1449585 C17.51966709 0.19624926 20.98537222 0.21897336 24.45117188 0.24414062 C31.24265562 0.29924715 38.03333904 0.38290479 44.82421875 0.48828125 C44.82421875 0.81828125 44.82421875 1.14828125 44.82421875 1.48828125 C26.34421875 1.81828125 7.86421875 2.14828125 -11.17578125 2.48828125 C-11.17578125 3.14828125 -11.17578125 3.80828125 -11.17578125 4.48828125 C-12.98828125 5.55078125 -12.98828125 5.55078125 -15.17578125 6.48828125 C-16.16578125 6.15828125 -17.15578125 5.82828125 -18.17578125 5.48828125 C-13.59935745 -1.25273036 -7.55496571 -0.15686776 0 0 Z " fill="#F2E359" transform="translate(162.17578125,259.51171875)"/>
<path d="M0 0 C1.03125 0.01804688 2.0625 0.03609375 3.125 0.0546875 C5.66761064 0.10177288 8.20833162 0.1675195 10.75 0.25 C10.75 0.58 10.75 0.91 10.75 1.25 C10.17032471 1.24887207 9.59064941 1.24774414 8.9934082 1.24658203 C6.34860966 1.25874202 3.70666162 1.31644417 1.0625 1.375 C0.15048828 1.37242187 -0.76152344 1.36984375 -1.70117188 1.3671875 C-6.64544855 1.43181063 -6.64544855 1.43181063 -10.97290039 3.52709961 C-13.15372619 6.05443745 -14.29540949 8.39157075 -15.3125 11.5625 C-15.621875 12.449375 -15.93125 13.33625 -16.25 14.25 C-18 15 -18 15 -20.25 15.25 C-22.25382009 15.90509503 -24.25458132 16.56974363 -26.25 17.25 C-25.87488281 16.81429687 -25.49976563 16.37859375 -25.11328125 15.9296875 C-22.59102569 12.99446818 -20.08070611 10.05371835 -17.625 7.0625 C-16.84125 6.134375 -16.0575 5.20625 -15.25 4.25 C-14.77304688 3.53714844 -14.29609375 2.82429687 -13.8046875 2.08984375 C-9.59819515 -0.93960257 -5.03227858 -0.16603965 0 0 Z " fill="#221602" transform="translate(196.25,217.75)"/>
<path d="M0 0 C0.33 1.32 0.66 2.64 1 4 C0.01 4.33 -0.98 4.66 -2 5 C-2 5.66 -2 6.32 -2 7 C-3.98260426 8.68732277 -5.9832342 10.35366057 -8 12 C-8.33 12.66 -8.66 13.32 -9 14 C-9.99 14 -10.98 14 -12 14 C-12.0825 14.763125 -12.165 15.52625 -12.25 16.3125 C-13 19 -13 19 -14.8125 20.875 C-17 22 -17 22 -21 21 C-14.07 14.07 -7.14 7.14 0 0 Z " fill="#DACC4B" transform="translate(135,274)"/>
<path d="M0 0 C0 0.66 0 1.32 0 2 C0.66 2.33 1.32 2.66 2 3 C1.01 3.33 0.02 3.66 -1 4 C-2.58509851 5.72458718 -3.97553847 7.54950073 -5.40234375 9.40625 C-7.23646622 11.23588806 -8.47457033 11.6072766 -11 12 C-11 9.36 -11 6.72 -11 4 C-9.35 3.67 -7.7 3.34 -6 3 C-6 2.34 -6 1.68 -6 1 C-4 0 -4 0 0 0 Z " fill="#FBE02B" transform="translate(162,230)"/>
<path d="M0 0 C-1.45745424 3.36335594 -3.31117854 5.54534005 -5.9140625 8.109375 C-6.67460937 8.86347656 -7.43515625 9.61757812 -8.21875 10.39453125 C-9.0128125 11.17183594 -9.806875 11.94914063 -10.625 12.75 C-11.42679688 13.54277344 -12.22859375 14.33554688 -13.0546875 15.15234375 C-15.03202846 17.10614493 -17.01388909 19.05512103 -19 21 C-19.33 19.68 -19.66 18.36 -20 17 C-19.34 17 -18.68 17 -18 17 C-18 16.34 -18 15.68 -18 15 C-17.01 15 -16.02 15 -15 15 C-14.67 14.01 -14.34 13.02 -14 12 C-13.34 12 -12.68 12 -12 12 C-12 11.01 -12 10.02 -12 9 C-10.68 8.67 -9.36 8.34 -8 8 C-8.33 6.68 -8.66 5.36 -9 4 C-8.01 4 -7.02 4 -6 4 C-5.67 3.01 -5.34 2.02 -5 1 C-2 0 -2 0 0 0 Z " fill="#E4D252" transform="translate(171,232)"/>
<path d="M0 0 C0.66 0.33 1.32 0.66 2 1 C1.71700909 4.39589098 1.38080547 5.67208418 -1.25 7.9375 C-2.1575 8.618125 -3.065 9.29875 -4 10 C-5.76333636 11.93536917 -7.36854927 13.94903337 -9 16 C-9.99 15.34 -10.98 14.68 -12 14 C-12 13.34 -12 12.68 -12 12 C-11.34 12 -10.68 12 -10 12 C-9.67 10.68 -9.34 9.36 -9 8 C-7.68 7.67 -6.36 7.34 -5 7 C-5 6.34 -5 5.68 -5 5 C-4.01 5 -3.02 5 -2 5 C-1.67 4.01 -1.34 3.02 -1 2 C-0.67 1.34 -0.34 0.68 0 0 Z " fill="#EBD943" transform="translate(172,144)"/>
<path d="M0 0 C0.33 0 0.66 0 1 0 C1.3125 2.3125 1.3125 2.3125 1 5 C-1.25 6.5 -1.25 6.5 -4 8 C-6.21239022 10.47267142 -7.85564683 12.70441969 -9.3125 15.6875 C-11.68437345 18.93784509 -14.16406306 19.20386214 -18 20 C-15.87155831 15.96716312 -13.56623252 13.78340099 -10 11 C-8.64613064 9.34997172 -7.31321858 7.6825613 -6 6 C-4.35259924 4.3142876 -2.68933922 2.6436814 -1 1 C-0.67 0.67 -0.34 0.34 0 0 Z " fill="#281C08" transform="translate(95,226)"/>
<path d="M0 0 C0.33 0 0.66 0 1 0 C1 6.27 1 12.54 1 19 C12.22 19.33 23.44 19.66 35 20 C35 20.33 35 20.66 35 21 C30.49765878 21.14301599 25.99529866 21.2854161 21.49291992 21.42724609 C19.96133905 21.47557937 18.42976347 21.52408078 16.89819336 21.57275391 C14.69646555 21.64269534 12.49471939 21.71203162 10.29296875 21.78125 C9.26625313 21.81406067 9.26625313 21.81406067 8.21879578 21.84753418 C5.47747521 21.93323076 2.74289945 22 0 22 C0 14.74 0 7.48 0 0 Z " fill="#F7E04F" transform="translate(61,261)"/>
<path d="M0 0 C0.66 0.33 1.32 0.66 2 1 C1.78216961 4.81203175 1.13727362 5.8752058 -1.75 8.5 C-2.28753906 8.90863281 -2.82507813 9.31726563 -3.37890625 9.73828125 C-5.25779143 11.14697348 -5.25779143 11.14697348 -7.6875 13.6875 C-10 16 -10 16 -13 18 C-12.6875 14.625 -12.6875 14.625 -12 11 C-9 9 -9 9 -5 9 C-4.67 7.68 -4.34 6.36 -4 5 C-3.34 5 -2.68 5 -2 5 C-1.67 4.01 -1.34 3.02 -1 2 C-0.67 1.34 -0.34 0.68 0 0 Z " fill="#EBD84C" transform="translate(156,160)"/>
<path d="M0 0 C0.99 0 1.98 0 3 0 C3.33 0.99 3.66 1.98 4 3 C3.319375 3.66 2.63875 4.32 1.9375 5 C-1.56725347 8.49468234 -4.77221788 12.25130779 -8 16 C-8.99 15.01 -9.98 14.02 -11 13 C-10.34 11.68 -9.68 10.36 -9 9 C-7.33333333 9 -5.66666667 9 -4 9 C-3.34 7.68 -2.68 6.36 -2 5 C-1.34 5 -0.68 5 0 5 C-0.2784375 4.0409375 -0.2784375 4.0409375 -0.5625 3.0625 C-0.706875 2.381875 -0.85125 1.70125 -1 1 C-0.67 0.67 -0.34 0.34 0 0 Z " fill="#E7D347" transform="translate(107,208)"/>
<path d="M0 0 C0.33 1.32 0.66 2.64 1 4 C0.01 4.33 -0.98 4.66 -2 5 C-2.12375 5.598125 -2.2475 6.19625 -2.375 6.8125 C-3.29671512 10.03850291 -5.29628009 11.15355714 -8 13 C-8.66 13 -9.32 13 -10 13 C-10 13.66 -10 14.32 -10 15 C-11.65 15.33 -13.3 15.66 -15 16 C-10.30233025 10.33870569 -5.25276628 5.14771096 0 0 Z " fill="#E6D44D" transform="translate(166,218)"/>
<path d="M0 0 C0.66 0.33 1.32 0.66 2 1 C2.625 3.0625 2.625 3.0625 3 5 C2.02804688 5.59167969 1.05609375 6.18335938 0.0546875 6.79296875 C-2.15450047 8.63395873 -2.91610418 9.64737321 -3.58886719 12.47509766 C-3.81476522 15.43272638 -3.88259091 18.34635259 -3.875 21.3125 C-3.895625 22.33923828 -3.91625 23.36597656 -3.9375 24.42382812 C-3.98449913 26.95003129 -4.00445095 29.47344998 -4 32 C-4.33 32 -4.66 32 -5 32 C-5 24.08 -5 16.16 -5 8 C-4.34 8 -3.68 8 -3 8 C-3.0928125 6.8553125 -3.0928125 6.8553125 -3.1875 5.6875 C-3 3 -3 3 -1.5 1.1875 C-1.005 0.795625 -0.51 0.40375 0 0 Z " fill="#D5C247" transform="translate(67,248)"/>
<path d="M0 0 C-1.65863505 4.32504836 -4.871041 7.09418825 -8.125 10.25 C-8.68832031 10.80429688 -9.25164062 11.35859375 -9.83203125 11.9296875 C-11.21686028 13.29104485 -12.60783204 14.64614859 -14 16 C-14.625 14.14453125 -14.625 14.14453125 -15 12 C-13 9.6875 -13 9.6875 -11.6015625 8.4375 C-9.13550104 6.22405947 -6.9202488 3.76605585 -4.6484375 1.35546875 C-3 0 -3 0 0 0 Z " fill="#170B01" transform="translate(207,176)"/>
<path d="M0 0 C13.2 0 26.4 0 40 0 C39.67 0.99 39.34 1.98 39 3 C38.34 2.67 37.68 2.34 37 2 C32.48673434 1.78749758 27.96961925 1.81420519 23.4519043 1.81469727 C21.20667346 1.8125186 18.96194024 1.79438173 16.71679688 1.77539062 C15.28385584 1.77245499 13.85091248 1.77047133 12.41796875 1.76953125 C11.11625732 1.76542236 9.8145459 1.76131348 8.47338867 1.75708008 C5.17937915 1.98745468 2.94916421 2.57262008 0 4 C0 2.68 0 1.36 0 0 Z M37 3 C39 4 39 4 39 4 Z " fill="#0D0400" transform="translate(267,115)"/>
<path d="M0 0 C0 4.53846154 0 4.53846154 -1 7 C-3.5625 8.75 -3.5625 8.75 -6 10 C-5.67 10.66 -5.34 11.32 -5 12 C-6.4540625 12.680625 -6.4540625 12.680625 -7.9375 13.375 C-11.07079582 14.65786221 -11.07079582 14.65786221 -12 17 C-14.5625 17.625 -14.5625 17.625 -17 18 C-13.50894415 13.67774038 -9.89783654 9.9559206 -5.61328125 6.421875 C-3.43783569 4.50453315 -1.71366371 2.33058264 0 0 Z " fill="#2B210B" transform="translate(113,208)"/>
<path d="M0 0 C0.55171875 0.31710937 1.1034375 0.63421875 1.671875 0.9609375 C4.28477989 2.12709975 6.40579002 2.40045711 9.25 2.625 C10.14203125 2.69976562 11.0340625 2.77453125 11.953125 2.8515625 C12.96632813 2.92503906 12.96632813 2.92503906 14 3 C14 3.33 14 3.66 14 4 C10.04 4 6.08 4 2 4 C2 7.96 2 11.92 2 16 C1.67 14.68 1.34 13.36 1 12 C0.34 12 -0.32 12 -1 12 C-0.67 9.69 -0.34 7.38 0 5 C-0.66 5 -1.32 5 -2 5 C-2 4.34 -2 3.68 -2 3 C-1.34 2.67 -0.68 2.34 0 2 C0 1.34 0 0.68 0 0 Z " fill="#E4D146" transform="translate(98,290)"/>
<path d="M0 0 C-0.66 1.98 -1.32 3.96 -2 6 C-2.66 6 -3.32 6 -4 6 C-4.86419223 8.59257669 -5.17580932 10.34037707 -5.31640625 13.01171875 C-5.35830078 13.76904297 -5.40019531 14.52636719 -5.44335938 15.30664062 C-5.48267578 16.09232422 -5.52199219 16.87800781 -5.5625 17.6875 C-5.62727539 18.88342773 -5.62727539 18.88342773 -5.69335938 20.10351562 C-5.79927368 22.06881447 -5.90012551 24.03438496 -6 26 C-6.33 26 -6.66 26 -7 26 C-7.14533755 22.417094 -7.23407931 18.83494583 -7.3125 15.25 C-7.35439453 14.23421875 -7.39628906 13.2184375 -7.43945312 12.171875 C-7.56339834 4.63600596 -7.56339834 4.63600596 -4.60546875 1.296875 C-2 0 -2 0 0 0 Z " fill="#211604" transform="translate(70,254)"/>
<path d="M0 0 C0.33 0 0.66 0 1 0 C1.33 3.63 1.66 7.26 2 11 C-2.00709648 13.00354824 -2.9413036 13.22456855 -7.125 12.75 C-7.99382812 12.66234375 -8.86265625 12.5746875 -9.7578125 12.484375 C-12 12 -12 12 -14 10 C-9.38 10 -4.76 10 0 10 C0 6.7 0 3.4 0 0 Z " fill="#ECDD55" transform="translate(114,296)"/>
<path d="M0 0 C1 3 1 3 1 6 C0.01 6 -0.98 6 -2 6 C-2.20625 6.639375 -2.4125 7.27875 -2.625 7.9375 C-4 10 -4 10 -7.125 10.75 C-8.548125 10.87375 -8.548125 10.87375 -10 11 C-6.79239749 7.19364503 -3.59253891 3.45436433 0 0 Z " fill="#E2D04D" transform="translate(134,250)"/>
<path d="M0 0 C0 4.1316808 -0.6420985 5.60539065 -3.4375 8.6875 C-6 11 -6 11 -8 11 C-8.66 12.65 -9.32 14.3 -10 16 C-10.99 15.34 -11.98 14.68 -13 14 C-9.83663828 10.11358417 -6.59585192 6.50122424 -3 3 C-2.401875 2.401875 -1.80375 1.80375 -1.1875 1.1875 C-0.795625 0.795625 -0.40375 0.40375 0 0 Z " fill="#31260B" transform="translate(186,135)"/>
<path d="M0 0 C0.625 1.8125 0.625 1.8125 1 4 C0.01 5.485 0.01 5.485 -1 7 C-1 7.66 -1 8.32 -1 9 C-1.804375 9.12375 -2.60875 9.2475 -3.4375 9.375 C-4.283125 9.58125 -5.12875 9.7875 -6 10 C-6.33 10.66 -6.66 11.32 -7 12 C-7.66 12 -8.32 12 -9 12 C-8.45015228 8.12488273 -6.72444669 6.40423494 -3.9375 3.75 C-3.20402344 3.04359375 -2.47054687 2.3371875 -1.71484375 1.609375 C-1.14894531 1.07828125 -0.58304688 0.5471875 0 0 Z " fill="#E6D250" transform="translate(115,269)"/>
<path d="M0 0 C0.66 0.33 1.32 0.66 2 1 C-2.24860632 6.2042199 -6.36629298 10.32084439 -12 14 C-12 13.01 -12 12.02 -12 11 C-11.34 11 -10.68 11 -10 11 C-10 9.68 -10 8.36 -10 7 C-9.01 7 -8.02 7 -7 7 C-6.67 6.01 -6.34 5.02 -6 4 C-5.67 4.33 -5.34 4.66 -5 5 C-3.35 3.35 -1.7 1.7 0 0 Z " fill="#E8D651" transform="translate(81,238)"/>
<path d="M0 0 C0.6015625 1.8359375 0.6015625 1.8359375 1 4 C-1.45280324 7.96222062 -3.62214781 9.57719804 -8 11 C-9.34006144 11.65303719 -10.67462181 12.31765487 -12 13 C-8.19524578 8.43969176 -4.25030379 4.14910608 0 0 Z " fill="#211501" transform="translate(169,235)"/>
<path d="M0 0 C1.32 0 2.64 0 4 0 C1.51712435 6.09433114 -4.03391309 9.95783623 -9 14 C-8.67 12.35 -8.34 10.7 -8 9 C-7.01 9 -6.02 9 -5 9 C-5 8.01 -5 7.02 -5 6 C-3.625 4.3125 -3.625 4.3125 -2 3 C-1.34 3 -0.68 3 0 3 C0 2.01 0 1.02 0 0 Z " fill="#DECD57" transform="translate(181,218)"/>
<path d="M0 0 C0.66 0.33 1.32 0.66 2 1 C1.77938101 4.86083225 1.11427194 5.89588557 -1.8125 8.5625 C-2.34746094 8.96984375 -2.88242188 9.3771875 -3.43359375 9.796875 C-5.46934808 11.36049678 -7.22195497 13.15356862 -9 15 C-9.33 13.35 -9.66 11.7 -10 10 C-9.01 10.33 -8.02 10.66 -7 11 C-7 10.34 -7 9.68 -7 9 C-6.34 9 -5.68 9 -5 9 C-4.67 7.68 -4.34 6.36 -4 5 C-2.68 4.67 -1.36 4.34 0 4 C0 2.68 0 1.36 0 0 Z " fill="#E1D04A" transform="translate(140,176)"/>
<path d="M0 0 C0.33 0.99 0.66 1.98 1 3 C1.66 3 2.32 3 3 3 C2.42655063 5.86724686 2.1385485 6.8614515 0 9 C-2.125 8.625 -2.125 8.625 -4 8 C-3.50168276 4.31245243 -2.89932357 2.39509338 0 0 Z " fill="#F0D941" transform="translate(171,213)"/>
<path d="M0 0 C0.33 1.32 0.66 2.64 1 4 C-0.65 5.32 -2.3 6.64 -4 8 C-3.67 8.66 -3.34 9.32 -3 10 C-5.31 10.66 -7.62 11.32 -10 12 C-7.88111872 7.98527758 -5.57459994 5.74969226 -2 3 C-1.34 2.01 -0.68 1.02 0 0 Z " fill="#2E2209" transform="translate(127,194)"/>
<path d="M0 0 C0.33 0.66 0.66 1.32 1 2 C-0.42514969 5.94011972 -1.48607389 7.67486308 -5.0625 9.9375 C-6.031875 10.288125 -7.00125 10.63875 -8 11 C-8.66 10.67 -9.32 10.34 -10 10 C-6.7 6.7 -3.4 3.4 0 0 Z " fill="#E0CD4E" transform="translate(198,186)"/>
<path d="M0 0 C0 1.32 0 2.64 0 4 C-3.63 4 -7.26 4 -11 4 C-10.67 3.01 -10.34 2.02 -10 1 C-3.375 0 -3.375 0 0 0 Z " fill="#F7E145" transform="translate(112,289)"/>
<path d="M0 0 C0.66 0.66 1.32 1.32 2 2 C-1.15221101 6.41309542 -4.55463907 9.00793014 -9 12 C-9.66 11.67 -10.32 11.34 -11 11 C-10.54109375 10.62488281 -10.0821875 10.24976563 -9.609375 9.86328125 C-5.96703891 6.82545052 -2.82808093 3.84619007 0 0 Z " fill="#31260B" transform="translate(153,168)"/>
<path d="M0 0 C-0.1875 1.8125 -0.1875 1.8125 -1 4 C-5.28571429 7 -5.28571429 7 -7 7 C-7 5.35 -7 3.7 -7 2 C-2.25 0 -2.25 0 0 0 Z " fill="#FAE13B" transform="translate(158,232)"/>
<path d="M0 0 C0.33 0.99 0.66 1.98 1 3 C-2.49359465 6.59634744 -6.11098131 9.83451967 -10 13 C-10.66 12.67 -11.32 12.34 -12 12 C-11.46890625 11.55269531 -10.9378125 11.10539063 -10.390625 10.64453125 C-6.52111681 7.33285362 -3.01412695 4.14442456 0 0 Z " fill="#32260B" transform="translate(170,151)"/>
<path d="M0 0 C0.1875 2.375 0.1875 2.375 0 5 C-3 7 -3 7 -6 7 C-6.66 6.67 -7.32 6.34 -8 6 C-7.0479279 4.99403703 -6.08812654 3.99538437 -5.125 3 C-4.59132812 2.443125 -4.05765625 1.88625 -3.5078125 1.3125 C-2 0 -2 0 0 0 Z " fill="#E4D253" transform="translate(207,179)"/>
<path d="M0 0 C0.99 0 1.98 0 3 0 C3 0.99 3 1.98 3 3 C2.34 3 1.68 3 1 3 C1 3.66 1 4.32 1 5 C-0.32 5 -1.64 5 -3 5 C-3 6.98 -3 8.96 -3 11 C-3.33 11 -3.66 11 -4 11 C-4 8.36 -4 5.72 -4 3 C-2.68 2.34 -1.36 1.68 0 1 C0 0.67 0 0.34 0 0 Z " fill="#F6E03B" transform="translate(119,293)"/>
<path d="M0 0 C1.32 0.33 2.64 0.66 4 1 C1.69 3.31 -0.62 5.62 -3 8 C-3.33 6.68 -3.66 5.36 -4 4 C-3.01 3.67 -2.02 3.34 -1 3 C-0.67 2.01 -0.34 1.02 0 0 Z " fill="#190C00" transform="translate(156,224)"/>
<path d="M0 0 C1.65 0 3.3 0 5 0 C3.75 2 3.75 2 2 4 C0.68 4 -0.64 4 -2 4 C-1.34 2.68 -0.68 1.36 0 0 Z M-3 4 C-2.67 4.66 -2.34 5.32 -2 6 C-2.99 6.99 -3.98 7.98 -5 9 C-4.125 5.125 -4.125 5.125 -3 4 Z " fill="#09030A" transform="translate(186,220)"/>
<path d="M0 0 C0 1.65 0 3.3 0 5 C-1.96466413 6.06775224 -3.96855359 7.06553465 -6 8 C-6.66 7.67 -7.32 7.34 -8 7 C-6.8572081 5.83035398 -5.71068285 4.66435444 -4.5625 3.5 C-3.92441406 2.8503125 -3.28632813 2.200625 -2.62890625 1.53125 C-1 0 -1 0 0 0 Z " fill="#DECC52" transform="translate(180,205)"/>
<path d="M0 0 C0.99 1.32 1.98 2.64 3 4 C1.68 5.32 0.36 6.64 -1 8 C-1.66 6.35 -2.32 4.7 -3 3 C-2.01 2.01 -1.02 1.02 0 0 Z " fill="#E1CE40" transform="translate(99,216)"/>
<path d="M0 0 C0.66 0.33 1.32 0.66 2 1 C0.35 2.98 -1.3 4.96 -3 7 C-3.99 6.34 -4.98 5.68 -6 5 C-6 4.34 -6 3.68 -6 3 C-5.34 3 -4.68 3 -4 3 C-3.67 2.34 -3.34 1.68 -3 1 C-2.01 1.33 -1.02 1.66 0 2 C0 1.34 0 0.68 0 0 Z " fill="#D9C648" transform="translate(166,153)"/>
<path d="M0 0 C0.66 0 1.32 0 2 0 C2 0.99 2 1.98 2 3 C1.34 3 0.68 3 0 3 C-0.66 4.65 -1.32 6.3 -2 8 C-2.99 7.34 -3.98 6.68 -5 6 C-3.38405168 3.95880212 -1.7143618 1.95927063 0 0 Z " fill="#261E0A" transform="translate(194,127)"/>
<path d="M0 0 C0.66 1.32 1.32 2.64 2 4 C0.50260417 5.23697917 -0.99479167 6.47395833 -2.4921875 7.7109375 C-3.71051161 8.75250992 -4.86660097 9.86660097 -6 11 C-6.33 9.35 -6.66 7.7 -7 6 C-5.68 6 -4.36 6 -3 6 C-3 5.34 -3 4.68 -3 4 C-2.01 4 -1.02 4 0 4 C0 2.68 0 1.36 0 0 Z " fill="#E2D14F" transform="translate(204,113)"/>
<path d="M0 0 C0.721875 0.268125 1.44375 0.53625 2.1875 0.8125 C1.1975 1.1425 0.2075 1.4725 -0.8125 1.8125 C-0.8125 2.4725 -0.8125 3.1325 -0.8125 3.8125 C-2.625 4.875 -2.625 4.875 -4.8125 5.8125 C-5.8025 5.4825 -6.7925 5.1525 -7.8125 4.8125 C-3.50480769 -0.23365385 -3.50480769 -0.23365385 0 0 Z " fill="#E4D34F" transform="translate(151.8125,260.1875)"/>
<path d="M0 0 C1.32 0.33 2.64 0.66 4 1 C0.535 3.97 0.535 3.97 -3 7 C-3.33 6.01 -3.66 5.02 -4 4 C-2.25 1.9375 -2.25 1.9375 0 0 Z " fill="#180C01" transform="translate(140,240)"/>
<path d="M0 0 C0.33 1.32 0.66 2.64 1 4 C0.01 4.33 -0.98 4.66 -2 5 C-2 5.66 -2 6.32 -2 7 C-3.65 7.33 -5.3 7.66 -7 8 C-6.02133662 6.85373678 -5.04205413 5.70800212 -4.0625 4.5625 C-3.51722656 3.92441406 -2.97195312 3.28632813 -2.41015625 2.62890625 C-1.63204305 1.73008851 -0.84063472 0.84063472 0 0 Z " fill="#DDCC50" transform="translate(150,234)"/>
<path d="M0 0 C0.33 1.32 0.66 2.64 1 4 C0.01 4.33 -0.98 4.66 -2 5 C-2 5.66 -2 6.32 -2 7 C-3.65 7.33 -5.3 7.66 -7 8 C-6.02133662 6.85373678 -5.04205413 5.70800212 -4.0625 4.5625 C-3.51722656 3.92441406 -2.97195312 3.28632813 -2.41015625 2.62890625 C-1.63204305 1.73008851 -0.84063472 0.84063472 0 0 Z " fill="#DCCB50" transform="translate(166,218)"/>
<path d="M0 0 C0.6875 1.8125 0.6875 1.8125 1 4 C-0.64504011 6.46756016 -1.80299352 6.94960299 -4.6875 7.6875 C-5.8321875 7.8421875 -5.8321875 7.8421875 -7 8 C-6.02133662 6.85373678 -5.04205413 5.70800212 -4.0625 4.5625 C-3.51722656 3.92441406 -2.97195312 3.28632813 -2.41015625 2.62890625 C-1.63204305 1.73008851 -0.84063472 0.84063472 0 0 Z " fill="#DACB4E" transform="translate(142,242)"/>
<path d="M0 0 C0.99 0.33 1.98 0.66 3 1 C2.6875 3.375 2.6875 3.375 2 6 C1.01 6.66 0.02 7.32 -1 8 C-1.33 7.01 -1.66 6.02 -2 5 C-1.34 5 -0.68 5 0 5 C-0.2784375 4.0409375 -0.2784375 4.0409375 -0.5625 3.0625 C-0.7790625 2.0415625 -0.7790625 2.0415625 -1 1 C-0.67 0.67 -0.34 0.34 0 0 Z " fill="#DDCB46" transform="translate(91,224)"/>
<path d="M0 0 C1.65 0.33 3.3 0.66 5 1 C2.25 5.875 2.25 5.875 0 7 C0 6.34 0 5.68 0 5 C-0.66 4.67 -1.32 4.34 -2 4 C-1.34 3.67 -0.68 3.34 0 3 C0 2.01 0 1.02 0 0 Z " fill="#DDCC49" transform="translate(179,136)"/>
<path d="M0 0 C0.99 0 1.98 0 3 0 C3 2.31 3 4.62 3 7 C2.01 7 1.02 7 0 7 C0 4.69 0 2.38 0 0 Z " fill="#F9E140" transform="translate(309,118)"/>
<path d="M0 0 C0.66 0.33 1.32 0.66 2 1 C1.67 2.32 1.34 3.64 1 5 C-0.32 5.33 -1.64 5.66 -3 6 C-3 3 -3 3 -1.5 1.3125 C-0.7575 0.6628125 -0.7575 0.6628125 0 0 Z " fill="#F5DE44" transform="translate(123,276)"/>
<path d="M0 0 C0 3 0 3 -1 6 C-4.0625 7.1875 -4.0625 7.1875 -7 8 C-6.02133662 6.85373678 -5.04205413 5.70800212 -4.0625 4.5625 C-3.51722656 3.92441406 -2.97195312 3.28632813 -2.41015625 2.62890625 C-1.63204305 1.73008851 -0.84063472 0.84063472 0 0 Z " fill="#DACC51" transform="translate(143,266)"/>
<path d="M0 0 C0.33 0.66 0.66 1.32 1 2 C1.66 2.33 2.32 2.66 3 3 C1.68 3.99 0.36 4.98 -1 6 C-1.66 5.67 -2.32 5.34 -3 5 C-2.625 3.0625 -2.625 3.0625 -2 1 C-1.34 0.67 -0.68 0.34 0 0 Z " fill="#FBE342" transform="translate(138,273)"/>
<path d="M0 0 C0.66 0.33 1.32 0.66 2 1 C1.6875 3.375 1.6875 3.375 1 6 C0.01 6.66 -0.98 7.32 -2 8 C-2 4.8424015 -1.40407719 2.80815437 0 0 Z " fill="#D6C543" transform="translate(156,160)"/>
<path d="M0 0 C0.99 0.33 1.98 0.66 3 1 C1.75023244 4.65316671 1.32901247 5.78065836 -2 8 C-1.125 1.125 -1.125 1.125 0 0 Z " fill="#F4DF4C" transform="translate(177,138)"/>
<path d="M0 0 C0.33 0.99 0.66 1.98 1 3 C-0.65 4.65 -2.3 6.3 -4 8 C-4.66 7.67 -5.32 7.34 -6 7 C-4.02 4.69 -2.04 2.38 0 0 Z " fill="#34260A" transform="translate(203,118)"/>
<path d="M0 0 C1.65 0.33 3.3 0.66 5 1 C5.33 1.99 5.66 2.98 6 4 C3.69 3.67 1.38 3.34 -1 3 C-0.67 2.01 -0.34 1.02 0 0 Z " fill="#FAE042" transform="translate(144,266)"/>
<path d="M0 0 C0 0.99 0 1.98 0 3 C-2.31 3.66 -4.62 4.32 -7 5 C-6.1875 3.0625 -6.1875 3.0625 -5 1 C-2 0 -2 0 0 0 Z " fill="#1A1404" transform="translate(84,241)"/>
<path d="M0 0 C-1.36983503 3.16115776 -1.9890638 3.9927092 -5 6 C-5 4.35 -5 2.7 -5 1 C-2 0 -2 0 0 0 Z " fill="#DED146" transform="translate(171,232)"/>
<path d="M0 0 C0.99 0.33 1.98 0.66 3 1 C-0.465 3.97 -0.465 3.97 -4 7 C-4 6.01 -4 5.02 -4 4 C-3.34 4 -2.68 4 -2 4 C-1.34 2.68 -0.68 1.36 0 0 Z " fill="#F1E159" transform="translate(105,213)"/>
<path d="M0 0 C0.6875 1.8125 0.6875 1.8125 1 4 C-0.3125 5.75 -0.3125 5.75 -2 7 C-2.66 7 -3.32 7 -4 7 C-4 4 -4 4 -2 1.8125 C-1.34 1.214375 -0.68 0.61625 0 0 Z " fill="#251907" transform="translate(127,194)"/>
<path d="M0 0 C0.66 0.33 1.32 0.66 2 1 C0.35 2.32 -1.3 3.64 -3 5 C-1.125 1.125 -1.125 1.125 0 0 Z M-4 5 C-3.34 5.33 -2.68 5.66 -2 6 C-2 6.66 -2 7.32 -2 8 C-2.99 7.67 -3.98 7.34 -5 7 C-4.67 6.34 -4.34 5.68 -4 5 Z " fill="#0E0501" transform="translate(142,180)"/>
<path d="M0 0 C2 1 2 1 2 1 Z M-3 1 C-2.01 1 -1.02 1 0 1 C-0.66 2.65 -1.32 4.3 -2 6 C-2.99 5.34 -3.98 4.68 -5 4 C-4.34 3.01 -3.68 2.02 -3 1 Z " fill="#1B1304" transform="translate(178,145)"/>
</svg>