<svg width="1000" height="1000" viewBox="0 0 1000 1000" fill="none" xmlns="http://www.w3.org/2000/svg">
<circle cx="500" cy="500" r="500" fill="#101229"/>
<path d="M329.871 628.375L332.228 632.648H233.814L150.427 490.625C139.01 470.435 133.089 447.603 133.255 424.41C133.421 401.216 139.668 378.472 151.372 358.447C163.077 338.423 179.829 321.819 199.957 310.294C220.085 298.768 242.884 292.724 266.078 292.764L468.653 294.827L330.46 528.193C321.578 543.371 316.847 560.619 316.743 578.205C316.64 595.791 321.167 613.094 329.871 628.375Z" fill="#01FAD5"/>
<path d="M796.279 405.905L692.414 582.698L565.418 361.707L556.136 345.354C547.298 330.423 534.77 318.014 519.755 309.32C504.74 300.625 487.741 295.937 470.392 295.705H468.182L519.894 207.309H682.69C705.817 207.554 728.477 213.844 748.421 225.554C768.365 237.265 784.899 253.988 796.382 274.064C807.864 294.14 813.896 316.871 813.878 339.998C813.86 363.126 807.793 385.847 796.279 405.905Z" fill="#8A15D5"/>
<path d="M741.551 669.034L659.49 807.521C647.725 827.494 630.929 844.033 610.779 855.489C590.628 866.946 567.826 872.92 544.647 872.816C521.467 872.712 498.72 866.532 478.673 854.895C458.626 843.257 441.981 826.567 430.396 806.49L332.276 632.497L605.715 631.613C623.24 631.646 640.469 627.095 655.691 618.411C670.914 609.727 683.6 597.213 692.491 582.111L741.551 669.034Z" fill="#1863FF"/>
<path d="M329.871 628.375L332.228 632.648H233.814L150.427 490.625C139.01 470.435 133.089 447.603 133.255 424.41C133.421 401.216 139.668 378.472 151.372 358.447C163.077 338.423 179.829 321.819 199.957 310.294C220.085 298.768 242.884 292.724 266.078 292.764L468.653 294.827L330.46 528.193C321.578 543.371 316.847 560.619 316.743 578.205C316.64 595.791 321.167 613.094 329.871 628.375Z" fill="url(#paint0_linear_3539_4500)"/>
<path d="M796.279 405.905L692.414 582.698L565.418 361.707L556.136 345.354C547.298 330.423 534.77 318.014 519.755 309.32C504.74 300.625 487.741 295.937 470.392 295.705H468.182L519.894 207.309H682.69C705.817 207.554 728.477 213.844 748.421 225.554C768.365 237.265 784.899 253.988 796.382 274.064C807.864 294.14 813.896 316.871 813.878 339.998C813.86 363.126 807.793 385.847 796.279 405.905Z" fill="url(#paint1_linear_3539_4500)"/>
<path d="M741.551 669.034L659.49 807.521C647.725 827.494 630.929 844.033 610.779 855.489C590.628 866.946 567.826 872.92 544.647 872.816C521.467 872.712 498.72 866.532 478.673 854.895C458.626 843.257 441.981 826.567 430.396 806.49L332.276 632.497L605.715 631.613C623.24 631.646 640.469 627.095 655.691 618.411C670.914 609.727 683.6 597.213 692.491 582.111L741.551 669.034Z" fill="url(#paint2_linear_3539_4500)"/>
<defs>
<linearGradient id="paint0_linear_3539_4500" x1="132.158" y1="540.274" x2="814.871" y2="540.274" gradientUnits="userSpaceOnUse">
<stop stop-color="#8A15D5"/>
<stop offset="1" stop-color="#FB3FFF"/>
</linearGradient>
<linearGradient id="paint1_linear_3539_4500" x1="132.129" y1="540.268" x2="814.842" y2="540.268" gradientUnits="userSpaceOnUse">
<stop stop-color="#8A15D5"/>
<stop offset="1" stop-color="#FB3FFF"/>
</linearGradient>
<linearGradient id="paint2_linear_3539_4500" x1="132.206" y1="540.27" x2="814.92" y2="540.27" gradientUnits="userSpaceOnUse">
<stop stop-color="#8A15D5"/>
<stop offset="1" stop-color="#FB3FFF"/>
</linearGradient>
</defs>
</svg>
