<?xml version="1.0" encoding="utf-8"?>
<!DOCTYPE svg PUBLIC "-//W3C//DTD SVG 1.0//EN" "http://www.w3.org/TR/2001/REC-SVG-20010904/DTD/svg10.dtd">
<svg version="1.0" xmlns="http://www.w3.org/2000/svg" width="1024px" height="1024px" viewBox="0 0 1024 1024" preserveAspectRatio="xMidYMid meet">
 <g fill="#0f3b24">
  <path d="M0 512 l0 -512 512 0 512 0 0 512 0 512 -512 0 -512 0 0 -512z m536.3 341.5 c12.2 -7.9 31 -20.2 41.7 -27.2 44.9 -29.4 84 -61.6 120.4 -99.1 15.3 -15.8 22.1 -24 36.6 -44.2 23.6 -32.9 32.6 -48.7 47.4 -82.8 10.8 -25 16.8 -44.5 24.5 -79.2 7.3 -32.7 12.5 -80.5 14 -128 1.3 -38.9 -0.8 -122.6 -3.5 -138.7 l-0.5 -3.3 -6.9 0 c-10.6 0 -63.2 -11.6 -88 -19.5 -6.3 -2 -18 -5.7 -26 -8.1 -8 -2.5 -20.6 -6.8 -28 -9.6 -18.6 -6.9 -71.4 -32.5 -117.7 -56.9 -5 -2.7 -14.2 -8.3 -20.3 -12.4 -10 -6.7 -11.7 -7.5 -15.9 -7.5 -5.9 0.1 -10.4 2.1 -23.4 10.9 -12.5 8.4 -38.8 22.1 -80.2 41.9 -43.4 20.8 -54.7 25 -103.8 39.3 -27.5 8 -76.4 19.6 -90.2 21.3 -2.7 0.4 -6.4 0.9 -8.1 1.2 l-3.1 0.4 -0.6 23.8 c-0.4 13 -1.1 34.7 -1.8 48.2 -2.7 59.5 2.7 138.9 12.7 188 14.3 69.8 35 117.3 75.4 172.9 22.1 30.3 38.1 47.7 69 75.2 30.7 27.3 54.9 46 85.7 66.2 61.5 40.4 63.4 41.6 66.6 41.7 1.1 0 11.9 -6.5 24 -14.5z"/>
  <path d="M505.5 802.3 c-1.6 -0.9 -6.4 -4 -10.5 -6.8 -4.1 -2.9 -13.3 -8.8 -20.5 -13.1 -38.1 -22.8 -64.3 -44.1 -104 -84.5 -32.8 -33.4 -49.2 -55.9 -68.4 -93.8 -10.3 -20.2 -14.6 -30.5 -21.7 -51.6 -14.5 -43.2 -21 -80.4 -24.5 -140 -1.7 -28.7 0 -99.7 2.7 -114.3 0.6 -2.9 1.2 -3.4 5.8 -4.7 2.8 -0.8 12.5 -2.9 21.6 -4.5 9.1 -1.7 24.6 -5.4 34.5 -8.1 29.5 -8.1 41.5 -12.5 98.2 -35.8 18.5 -7.5 62.9 -29.5 73.2 -36.1 9.4 -6.1 17.7 -10 21.1 -10 3.5 0 8.9 2.5 17 8 8.4 5.5 13.1 8.1 34.7 18.9 23.1 11.5 38.4 18.1 79.3 34.3 36.1 14.3 70 23.9 103.5 29.3 13.5 2.1 16.8 3.8 17.7 9 3.4 20.3 3.6 121 0.4 152.3 -3.9 37.7 -8.6 62.2 -17.3 90.2 -15.5 50.1 -30.3 79.9 -57.8 116.5 -25.3 33.5 -83.3 88 -119.8 112.4 -4.3 2.9 -14.5 9.2 -22.6 14.1 -8.2 4.9 -18.4 11.4 -22.6 14.4 -6.8 4.9 -8.4 5.6 -12.4 5.6 -2.5 -0.1 -5.9 -0.8 -7.6 -1.7z m23.8 -105.9 l3.7 -0.7 0 -19.9 c0 -15 0.3 -20 1.3 -20.2 0.6 -0.2 5.3 -1.1 10.2 -2.1 31.4 -5.7 59.6 -22 75.6 -43.6 5.9 -8 13 -22.8 15.5 -32.4 2.7 -10.5 2.6 -28.6 -0.4 -39 -4.9 -17.1 -14.7 -32.2 -27.5 -42.4 -7.7 -6.2 -30.7 -18.1 -42.4 -22.1 -4.9 -1.6 -13.3 -3.9 -18.8 -5.1 -5.5 -1.2 -10.6 -2.6 -11.2 -3.1 -1 -0.8 -1.3 -12.3 -1.3 -51.6 l0 -50.5 5.9 0.6 c8.2 0.7 18.5 6.3 27.1 14.7 7.5 7.4 12 15.5 14.6 26.3 l1.7 6.7 24.3 0 24.4 0 0 -2.9 c0 -10.4 -9.6 -35.3 -18.4 -47.5 -14.8 -20.7 -41.7 -36.2 -72.3 -41.6 l-7.3 -1.3 0 -20.4 c0 -11.1 -0.1 -20.3 -0.2 -20.3 -0.2 0 -10.1 -0.3 -22 -0.7 l-21.8 -0.6 0 20.4 0 20.4 -9.8 1.7 c-18.1 3.1 -40.7 11.9 -54.2 21.1 -16.7 11.4 -29.9 31 -35.2 52.3 -1.7 6.8 -2.2 12 -2.2 21.9 -0.1 15.5 1.3 21.8 8.1 35.5 4 8.1 6 10.9 14.2 19.1 10.9 10.8 19.2 16.3 36.2 23.6 15 6.6 21.6 8.8 38.7 13.3 l4.2 1.1 0 50.9 0 51 -3.9 0 c-6.4 0 -18.6 -6.9 -29.7 -16.6 -8 -7.1 -16.7 -20.3 -19.9 -30.1 l-1.7 -5.3 -22.1 0.1 c-12.2 0.1 -24.5 0.4 -27.4 0.7 l-5.1 0.7 2.3 9 c11.1 42.6 41.9 71.6 89.2 84 5 1.3 11.2 2.7 13.7 3 l4.6 0.7 0 20.9 0 20.9 17.8 0 c9.7 0 19.4 -0.3 21.5 -0.6z"/>
  <path d="M533 564.5 l0 -46.5 5.1 0 c11.3 0 33.2 9.8 40.3 18.2 6.2 7.1 7.8 13.4 7.4 27.3 -0.3 11.4 -0.5 12.3 -3.7 18.3 -8 14.7 -30.5 29.2 -45.5 29.2 l-3.6 0 0 -46.5z"/>
  <path d="M473 449.6 c-16.5 -5.8 -28.6 -14.9 -33.1 -24.9 -2 -4.3 -2.4 -6.9 -2.4 -15.2 0 -9.4 0.2 -10.5 3.3 -16.8 7.6 -15.4 26.7 -28.7 44 -30.4 l5.2 -0.6 0 45.2 0 45.1 -5.2 -0.1 c-2.9 0 -8.2 -1.1 -11.8 -2.3z"/>
 </g>
 <g fill="#f4efe1">
  <path d="M510 871.1 c-5.4 -1.1 -4.5 -0.5 -67.3 -41.8 -50.5 -33.1 -105.1 -79.8 -133.8 -114.5 -45 -54.3 -74.2 -109.3 -88.7 -167.3 -8.9 -35.3 -13.5 -62.1 -16.7 -96 -3.8 -40.6 -5.2 -94.1 -3.6 -130.5 0.7 -13.5 1.4 -35.3 1.8 -48.6 l0.6 -24.1 5 -0.2 c5 -0.1 18.1 -2.7 49.5 -9.5 19.2 -4.2 71.8 -19.3 91.7 -26.4 20.7 -7.4 26.1 -9.7 59 -25.4 41.4 -19.8 67.7 -33.5 80.2 -41.9 12.5 -8.4 16.9 -10.5 24.4 -11.3 7.1 -0.9 9.4 0 22 8.6 5.2 3.6 13.8 8.8 19 11.6 46.4 24.5 99.3 50.1 117.9 57 7.4 2.8 20 7.1 28 9.6 8 2.4 19.7 6.1 26 8.1 24.8 7.9 77.4 19.5 88 19.5 l6.9 0 0.5 3.3 c2.7 16.5 4.9 103.6 3.6 143.5 -1.6 48.9 -6.8 96.2 -14.1 129.2 -7.7 34.7 -13.7 54.2 -24.5 79.2 -14.8 34.1 -23.8 49.9 -47.4 82.8 -14.5 20.2 -21.3 28.4 -36.6 44.2 -36.4 37.5 -75.5 69.7 -120.4 99.1 -52.8 34.5 -65.5 42.7 -66.4 42.6 -0.6 -0.1 -2.7 -0.4 -4.6 -0.8z m12.5 -75.7 c4.2 -3 14.4 -9.5 22.6 -14.4 8.1 -4.9 18.3 -11.2 22.6 -14.1 36.5 -24.4 94.5 -78.9 119.8 -112.4 27.5 -36.6 42.3 -66.4 57.8 -116.5 8.7 -28 13.4 -52.6 17.3 -90.2 3.2 -31.3 2.9 -126.1 -0.4 -146.3 -0.9 -5.2 -4.2 -6.9 -17.7 -9 -33.5 -5.4 -67.4 -15 -103.5 -29.3 -40.9 -16.2 -56.2 -22.8 -79.3 -34.3 -21.6 -10.8 -26.3 -13.4 -34.7 -18.9 -3 -2.1 -7.4 -4.7 -9.7 -5.9 l-4.3 -2.1 -5.9 3 c-3.3 1.6 -8.8 4.8 -12.2 7 -10.3 6.6 -54.7 28.6 -73.2 36.1 -56.7 23.3 -68.7 27.7 -98.2 35.8 -9.9 2.7 -25.4 6.4 -34.5 8.1 -9.1 1.6 -18.8 3.7 -21.6 4.5 -6.1 1.8 -5.9 1.1 -7.4 22.5 -5.1 71.8 0.3 146.3 14.6 202 3.5 13.5 14.5 45.8 19.4 57 14.3 32.5 31.9 62 51.9 87 10.2 12.7 44 47.1 62.6 63.5 26.9 23.9 40.3 33.7 69 50.9 7.2 4.3 16.4 10.2 20.5 13.1 8.8 6.1 12.9 8.4 15.1 8.5 0.9 0 5.1 -2.5 9.4 -5.6z"/>
  <path d="M487 679.1 l0 -20.9 -4.6 -0.7 c-7.3 -1.1 -22.2 -5.2 -30.6 -8.4 -18 -7 -30.8 -15.1 -42.9 -27.1 -16.1 -15.9 -25.7 -33.9 -30.9 -58 -1.1 -4.6 -1.7 -8.7 -1.4 -8.9 0.3 -0.3 14.2 -0.7 30.8 -0.9 l30.4 -0.4 1.7 5.3 c3.2 10 11.9 23.2 19.9 30.3 8.4 7.4 19.2 14.2 25.4 16.1 l2.2 0.6 0 -48 0 -48 -4.2 -1.1 c-17.1 -4.5 -23.7 -6.7 -38.7 -13.3 -17 -7.3 -25.3 -12.8 -36.2 -23.6 -8.2 -8.2 -10.2 -11 -14.2 -19.1 -7.1 -14.4 -8.2 -19.7 -8.2 -38.5 0.1 -13.1 0.5 -17.6 2.3 -24.9 5.4 -21.4 18.5 -40.9 35.2 -52.3 13.5 -9.2 36.1 -18 54.2 -21.1 l9.8 -1.7 0 -20.3 0 -20.3 24.8 0.3 24.7 0.3 0.3 20.6 0.2 20.6 7.3 1.3 c30.6 5.4 57.5 20.9 72.3 41.6 9.3 13.1 17 33.3 18.9 50.2 l0.7 6.2 -28 0 -27.9 0 -1.7 -6.7 c-2.6 -10.8 -7.1 -18.9 -14.6 -26.3 -6.7 -6.6 -17.6 -13.2 -23.7 -14.5 l-3.3 -0.7 0 47.5 c0 36.8 0.3 47.7 1.3 48.5 0.6 0.5 5.7 1.9 11.2 3.1 5.5 1.2 13.9 3.5 18.8 5.1 11.7 4 34.7 15.9 42.4 22.1 12.8 10.1 22.6 25.3 27.5 42.4 3.1 10.7 3.3 34.2 0.4 45 -2.5 9.6 -9.6 24.4 -15.5 32.4 -16 21.6 -44.2 37.9 -75.6 43.6 -4.9 1 -9.6 1.9 -10.2 2.1 -1 0.2 -1.3 5.2 -1.3 20.2 l0 19.9 -3.7 0.7 c-2.1 0.3 -13.1 0.6 -24.5 0.6 l-20.8 0 0 -20.9z m55.8 -72.7 c14.7 -4.2 29.9 -15.8 36.3 -27.6 2.9 -5.5 3.4 -7.4 3.7 -15.3 0.3 -7.4 0 -10 -1.7 -14.6 -4.2 -11.1 -14.3 -19 -31.7 -24.8 -14.9 -5 -13.3 -10.1 -13.4 40.4 0 23.9 0.2 43.5 0.6 43.5 0.3 0 3.1 -0.7 6.2 -1.6z m-55.8 -199.4 l0 -42 -2.7 0.6 c-17.7 4.2 -33.5 15.9 -40.5 30.1 -4.2 8.6 -4.6 17.8 -0.9 26 2.9 6.6 11.7 15.1 20.2 19.3 7.5 3.8 18.4 7.8 21.7 7.9 l2.2 0.1 0 -42z"/>
 </g>
</svg>