<svg width="400" height="400" viewBox="0 0 400 400" fill="none" xmlns="http://www.w3.org/2000/svg">
<rect x="0.5" y="0.5" width="399" height="399" rx="199.5" fill="#1C2925" stroke="#D7FE51"/>
<g clip-path="url(#clip0_795_600)">
<path d="M222.791 115H177.197C171.945 115 167.159 118.005 164.881 122.729L141.571 171.06C138.654 177.104 143.063 184.115 149.785 184.115H181.241C185.616 184.115 189.604 181.611 191.506 177.673L199.994 160.075L243.481 250.226L184.727 207.746C182.392 206.061 179.589 205.151 176.707 205.151H133.698C128.446 205.151 123.661 208.156 121.382 212.879L92.9112 271.944C89.9946 277.988 94.4037 285 101.126 285H132.582C136.957 285 140.944 282.496 142.847 278.557L165.963 230.636L229.65 279.047C234.731 282.906 240.929 285 247.309 285H298.874C305.596 285 310.005 277.988 307.088 271.944L235.107 122.729C232.829 118.005 228.044 115 222.791 115Z" fill="#D7FE51"/>
</g>
<defs>
<clipPath id="clip0_795_600">
<rect width="216" height="170" fill="white" transform="translate(92 115)"/>
</clipPath>
</defs>
</svg>
