<svg width="1000" height="1000" viewBox="0 0 1000 1000" fill="none" xmlns="http://www.w3.org/2000/svg">
<g clip-path="url(#clip0_580_73)">
<rect width="1000" height="1000" rx="500" fill="url(#paint0_linear_580_73)"/>
<g filter="url(#filter0_d_580_73)">
<path d="M500.104 607.583C559.451 607.583 607.565 559.471 607.565 500.121C607.565 440.772 559.451 392.66 500.104 392.66C440.757 392.66 392.643 440.772 392.643 500.121C392.643 559.471 440.757 607.583 500.104 607.583Z" fill="white"/>
<path fill-rule="evenodd" clip-rule="evenodd" d="M581.804 185.699C559.573 204.129 531.025 215.206 499.894 215.206C468.915 215.206 440.501 204.24 418.316 185.976C394.78 166.601 357.022 158.355 335.273 179.713C282.957 231.084 231.07 282.974 179.694 335.29C158.34 357.038 166.585 394.799 185.961 418.331C204.221 440.516 215.19 468.932 215.19 499.909C215.19 531.044 204.112 559.59 185.684 581.823C166.228 605.293 157.862 643.022 179.199 664.791C230.524 717.153 282.542 768.913 334.879 820.27C356.698 841.682 394.641 833.367 418.228 813.914C440.426 795.61 468.873 784.614 499.894 784.614C531.067 784.614 559.649 795.721 581.896 814.193C605.416 833.727 643.326 842.165 665.166 820.771C717.545 769.467 769.45 717.564 820.754 665.186C842.149 643.343 833.712 605.433 814.176 581.914C795.702 559.668 784.595 531.086 784.595 499.909C784.595 468.89 795.593 440.44 813.899 418.243C833.351 394.656 841.667 356.717 820.254 334.896C768.9 282.559 717.138 230.538 664.772 179.215C643.002 157.876 605.273 166.246 581.804 185.699ZM439.641 279.167C473.08 245.728 527.293 245.728 560.732 279.167L721.537 439.972C754.976 473.411 754.976 527.625 721.537 561.064L560.732 721.871C527.293 755.308 473.08 755.308 439.641 721.871L278.835 561.064C245.397 527.625 245.397 473.411 278.835 439.972L439.641 279.167Z" fill="white"/>
</g>
</g>
<rect x="16.6667" y="16.6667" width="966.667" height="966.667" rx="483.333" stroke="url(#paint1_linear_580_73)" stroke-width="33.3333"/>
<g clip-path="url(#clip1_580_73)">
<path d="M926 509H546V889H926V509Z" fill="black"/>
<path d="M735.999 882.348C837.259 882.348 919.348 800.259 919.348 698.999C919.348 597.738 837.259 515.65 735.999 515.65C634.738 515.65 552.65 597.738 552.65 698.999C552.65 800.259 634.738 882.348 735.999 882.348Z" fill="white"/>
<path d="M752.562 676.498L839.561 589.502L806.555 556.5L736.061 626.993L665.568 556.5L632.564 589.502L719.561 676.498C724.118 681.054 730.09 683.333 736.061 683.333C742.033 683.333 748.005 681.056 752.562 676.498ZM878.502 769.434L808.008 698.941L878.502 628.446L845.499 595.444L758.504 682.44C749.392 691.554 749.392 706.329 758.504 715.442L845.499 802.438L878.502 769.434ZM735.941 771.007L806.434 841.5L839.436 808.498L752.442 721.502C743.326 712.388 728.554 712.388 719.438 721.502L632.443 808.498L665.447 841.5L735.941 771.007ZM713.498 715.562C717.876 711.184 720.334 705.25 720.334 699.061C720.334 692.872 717.876 686.935 713.498 682.56L626.504 595.564L593.5 628.568L663.994 699.061L593.5 769.556L626.504 802.558L713.498 715.562Z" fill="black"/>
</g>
<defs>
<filter id="filter0_d_580_73" x="133.317" y="150" width="733.333" height="733.333" filterUnits="userSpaceOnUse" color-interpolation-filters="sRGB">
<feFlood flood-opacity="0" result="BackgroundImageFix"/>
<feColorMatrix in="SourceAlpha" type="matrix" values="0 0 0 0 0 0 0 0 0 0 0 0 0 0 0 0 0 0 127 0" result="hardAlpha"/>
<feOffset dy="16.6667"/>
<feGaussianBlur stdDeviation="16.6667"/>
<feComposite in2="hardAlpha" operator="out"/>
<feColorMatrix type="matrix" values="0 0 0 0 0 0 0 0 0 0 0 0 0 0 0 0 0 0 1 0"/>
<feBlend mode="normal" in2="BackgroundImageFix" result="effect1_dropShadow_580_73"/>
<feBlend mode="normal" in="SourceGraphic" in2="effect1_dropShadow_580_73" result="shape"/>
</filter>
<linearGradient id="paint0_linear_580_73" x1="500" y1="0" x2="500" y2="1000" gradientUnits="userSpaceOnUse">
<stop stop-color="#1A1A1A"/>
<stop offset="1"/>
</linearGradient>
<linearGradient id="paint1_linear_580_73" x1="500" y1="0" x2="500" y2="1000" gradientUnits="userSpaceOnUse">
<stop/>
<stop offset="1" stop-color="#1A1A1A"/>
</linearGradient>
<clipPath id="clip0_580_73">
<rect width="1000" height="1000" rx="500" fill="white"/>
</clipPath>
<clipPath id="clip1_580_73">
<rect x="546" y="509" width="380" height="380" rx="190" fill="white"/>
</clipPath>
</defs>
</svg>
