<svg version="1.1" id="Layer_1" xmlns="http://www.w3.org/2000/svg" xmlns:xlink="http://www.w3.org/1999/xlink" x="0px" y="0px"
	 width="100%" viewBox="0 0 1600 1600" xml:space="preserve">
<path fill="#1C293C" opacity="1.000000" stroke="none" 
	d="
M745.000000,1.000001 
	C782.020874,1.000000 819.041809,1.000000 856.611206,1.396407 
	C857.840393,2.181134 858.494995,2.850098 859.205505,2.915850 
	C870.744385,3.983817 882.340332,4.588459 893.823425,6.071612 
	C912.691284,8.508569 931.607971,10.864750 950.287781,14.398314 
	C987.972839,21.526987 1025.211304,30.698978 1061.210449,44.064880 
	C1087.500610,53.825993 1113.763672,63.857883 1139.301880,75.399643 
	C1175.836182,91.911049 1210.757812,111.623077 1243.993896,134.110184 
	C1260.055176,144.977097 1275.915649,156.228622 1291.123413,168.247101 
	C1309.319702,182.627457 1327.052979,197.641876 1344.351685,213.092758 
	C1356.225464,223.698120 1367.343140,235.210785 1378.212402,246.864899 
	C1393.147461,262.878357 1408.470215,278.673340 1421.917358,295.896576 
	C1440.470215,319.659180 1458.066650,344.238861 1474.857056,369.283569 
	C1487.130371,387.590668 1498.224487,406.804230 1508.424927,426.354279 
	C1519.795532,448.146942 1530.476807,470.402588 1539.778687,493.143768 
	C1550.138306,518.471680 1559.855347,544.206421 1567.561279,570.437073 
	C1575.957397,599.017029 1582.230347,628.261597 1588.441162,657.426758 
	C1591.983032,674.058777 1593.789062,691.080750 1595.929810,707.983765 
	C1597.364014,719.306824 1597.969971,730.733521 1599.089111,742.099792 
	C1599.189575,743.119324 1600.338135,744.035706 1601.000000,745.000000 
	C1601.000000,782.020874 1601.000000,819.041809 1600.603638,856.611206 
	C1599.818970,857.840393 1599.149902,858.494995 1599.084229,859.205444 
	C1598.016113,870.744324 1597.411377,882.340210 1595.928223,893.823303 
	C1593.491211,912.691223 1591.135254,931.607971 1587.601440,950.287842 
	C1580.472534,987.973083 1571.300537,1025.211914 1557.934814,1061.211060 
	C1548.173706,1087.501465 1538.154053,1113.770752 1526.596924,1139.301270 
	C1510.064453,1175.822998 1490.635620,1210.941406 1467.814331,1243.941650 
	C1452.269409,1266.420288 1435.841187,1288.362671 1418.639893,1309.598633 
	C1403.309082,1328.525269 1386.697632,1346.455933 1370.023438,1364.237427 
	C1360.271362,1374.637207 1349.562988,1384.198242 1338.796875,1393.576172 
	C1321.801636,1408.380005 1304.851196,1423.298706 1287.066040,1437.119141 
	C1253.324951,1463.338257 1217.531250,1486.626465 1179.677368,1506.437744 
	C1155.835693,1518.915405 1131.456177,1530.562012 1106.602173,1540.852661 
	C1082.091309,1551.001343 1057.029663,1560.180786 1031.568237,1567.576660 
	C1002.958618,1575.886963 973.738281,1582.229980 944.573303,1588.441162 
	C927.941284,1591.983032 910.919312,1593.789307 894.016296,1595.929932 
	C882.693237,1597.364136 871.266479,1597.970093 859.900269,1599.088989 
	C858.880737,1599.189453 857.964355,1600.338257 857.000000,1601.000000 
	C819.979126,1601.000000 782.958191,1601.000000 745.388794,1600.603516 
	C744.159546,1599.818848 743.504883,1599.149902 742.794312,1599.084229 
	C731.254944,1598.016113 719.658569,1597.411499 708.174988,1595.928101 
	C689.306519,1593.490601 670.389404,1591.133057 651.708618,1587.600464 
	C614.021851,1580.473389 576.782837,1571.298096 540.782471,1557.932617 
	C514.491150,1548.171875 488.228333,1538.136963 462.688904,1526.595459 
	C426.153503,1510.084351 391.232910,1490.369141 357.994263,1467.885254 
	C341.931580,1457.019775 326.078552,1445.758667 310.863617,1433.748047 
	C292.789886,1419.480835 275.164551,1404.595581 257.993866,1389.251831 
	C245.999878,1378.534058 234.768616,1366.901855 223.784317,1355.129761 
	C208.846146,1339.120239 193.525909,1323.323486 180.079193,1306.100708 
	C161.526871,1282.338501 143.931564,1257.758545 127.141708,1232.714233 
	C114.868752,1214.407471 103.769791,1195.197021 93.575470,1175.644775 
	C82.134216,1153.701050 71.382324,1131.295166 62.012257,1108.401855 
	C51.709957,1083.230835 42.079628,1057.640503 34.434952,1031.564819 
	C26.054579,1002.979797 19.770000,973.739746 13.559437,944.574890 
	C10.017648,927.942566 8.210807,910.920471 6.069785,894.017334 
	C4.635527,882.693970 4.029741,871.266968 2.910840,859.900269 
	C2.810477,858.880737 1.661815,857.964294 0.999998,857.000000 
	C1.000000,819.979126 1.000000,782.958191 1.396395,745.388794 
	C2.181099,744.159485 2.850054,743.504761 2.915823,742.794128 
	C3.983807,731.255188 4.588730,719.659180 6.071623,708.175964 
	C8.508146,689.308044 10.861700,670.390930 14.396845,651.711548 
	C21.528641,614.027771 30.697981,576.788818 44.064804,540.790466 
	C53.826668,514.500549 63.845333,488.231049 75.402115,462.700500 
	C91.934341,426.178406 111.363708,391.060272 134.184509,358.059631 
	C149.729141,335.580872 166.157562,313.638519 183.359070,292.402649 
	C198.690002,273.476013 215.301743,255.545502 231.975952,237.764053 
	C241.728226,227.364212 252.436111,217.802811 263.202271,208.424683 
	C280.197418,193.620667 297.147736,178.701981 314.932739,164.881561 
	C348.673889,138.661926 384.467621,115.373672 422.321747,95.562386 
	C446.163452,83.084648 470.542999,71.437843 495.397095,61.147121 
	C519.908020,50.998501 544.969482,41.818752 570.431030,34.422962 
	C599.040771,26.112724 628.261169,19.769829 657.426331,13.558959 
	C674.058472,10.017063 691.080566,8.210720 707.983643,6.069785 
	C719.306702,4.635614 730.733398,4.029721 742.099792,2.910809 
	C743.119324,2.810445 744.035706,1.661804 745.000000,1.000001 
M704.806152,599.305603 
	C678.220764,613.547302 653.588196,630.420776 632.571045,654.077087 
	C632.571045,512.872742 632.571045,373.101562 632.571045,233.081177 
	C564.318665,233.081177 496.420197,233.081177 428.071106,233.081177 
	C428.071106,235.270950 428.067078,237.227768 428.071686,239.184570 
	C428.324402,346.669159 428.700836,454.153595 428.800323,561.638306 
	C428.927460,698.963684 429.122375,836.290161 428.693787,973.614258 
	C428.511810,1031.930786 440.236481,1087.637207 462.232330,1141.305054 
	C479.421082,1183.244019 503.009033,1221.296631 534.599304,1254.038940 
	C568.382812,1289.054443 606.914062,1317.802979 650.216431,1340.043213 
	C700.853333,1366.050659 754.643555,1380.076294 811.557922,1382.001221 
	C842.142395,1383.035645 872.464050,1380.614868 902.534485,1374.967163 
	C946.764465,1366.660156 989.463867,1353.225708 1028.926270,1331.681885 
	C1096.320557,1294.888916 1147.045654,1240.953613 1184.015015,1174.014771 
	C1211.587524,1124.090210 1226.602173,1070.346680 1231.296997,1013.551147 
	C1234.847046,970.604675 1233.145752,927.939148 1224.555054,885.745300 
	C1207.749756,803.203735 1171.311157,730.926331 1111.534058,670.777832 
	C1083.901245,642.973206 1054.392334,617.923401 1019.286987,600.002258 
	C975.947937,577.877625 929.728638,566.876831 881.361755,563.709106 
	C819.515564,559.658569 760.827148,570.891907 704.806152,599.305603 
z"/>
<path fill="#FFFFFF" opacity="1.000000" stroke="none" 
	d="
M705.143433,599.155396 
	C760.827148,570.891907 819.515564,559.658569 881.361755,563.709106 
	C929.728638,566.876831 975.947937,577.877625 1019.286987,600.002258 
	C1054.392334,617.923401 1083.901245,642.973206 1111.534058,670.777832 
	C1171.311157,730.926331 1207.749756,803.203735 1224.555054,885.745300 
	C1233.145752,927.939148 1234.847046,970.604675 1231.296997,1013.551147 
	C1226.602173,1070.346680 1211.587524,1124.090210 1184.015015,1174.014771 
	C1147.045654,1240.953613 1096.320557,1294.888916 1028.926270,1331.681885 
	C989.463867,1353.225708 946.764465,1366.660156 902.534485,1374.967163 
	C872.464050,1380.614868 842.142395,1383.035645 811.557922,1382.001221 
	C754.643555,1380.076294 700.853333,1366.050659 650.216431,1340.043213 
	C606.914062,1317.802979 568.382812,1289.054443 534.599304,1254.038940 
	C503.009033,1221.296631 479.421082,1183.244019 462.232330,1141.305054 
	C440.236481,1087.637207 428.511810,1031.930786 428.693787,973.614258 
	C429.122375,836.290161 428.927460,698.963684 428.800323,561.638306 
	C428.700836,454.153595 428.324402,346.669159 428.071686,239.184570 
	C428.067078,237.227768 428.071106,235.270950 428.071106,233.081177 
	C496.420197,233.081177 564.318665,233.081177 632.571045,233.081177 
	C632.571045,373.101562 632.571045,512.872742 632.571045,654.077087 
	C653.588196,630.420776 678.220764,613.547302 705.143433,599.155396 
M733.656982,1164.878174 
	C775.169922,1189.626099 819.759583,1197.853882 867.114319,1188.302368 
	C923.627686,1176.903564 966.471313,1145.050659 996.326294,1096.486572 
	C1034.503296,1034.385254 1041.362061,967.509583 1020.619019,898.172424 
	C1005.202942,846.641479 975.099915,805.088318 928.900879,776.604126 
	C885.619446,749.918884 838.676208,740.927490 789.059082,753.810364 
	C729.398315,769.301086 687.393127,807.511475 659.053833,861.043335 
	C629.882263,916.147705 624.583557,974.536011 640.169006,1034.544556 
	C654.443054,1089.503662 684.522156,1133.721069 733.656982,1164.878174 
z"/>
<path fill="#1C293C" opacity="1.000000" stroke="none" 
	d="
M733.359009,1164.667969 
	C684.522156,1133.721069 654.443054,1089.503662 640.169006,1034.544556 
	C624.583557,974.536011 629.882263,916.147705 659.053833,861.043335 
	C687.393127,807.511475 729.398315,769.301086 789.059082,753.810364 
	C838.676208,740.927490 885.619446,749.918884 928.900879,776.604126 
	C975.099915,805.088318 1005.202942,846.641479 1020.619019,898.172424 
	C1041.362061,967.509583 1034.503296,1034.385254 996.326294,1096.486572 
	C966.471313,1145.050659 923.627686,1176.903564 867.114319,1188.302368 
	C819.759583,1197.853882 775.169922,1189.626099 733.359009,1164.667969 
z"/>
</svg>
