<svg xmlns="http://www.w3.org/2000/svg" width="233" height="229" viewBox="0 0 233 229" fill="none"><script xmlns=""/>
<g clip-path="url(#clip0_1483_50)">
<ellipse cx="116.5" cy="114" rx="115.5" ry="113" fill="#D9D9D9"/>
<path d="M116.281 0.368164C107.538 0.368164 98.7955 1.23399 90.0525 3.39856C90.0525 3.83148 90.0525 4.26439 90.0525 4.6973V145.394C90.0525 148.425 87.4296 150.589 84.8067 150.589H74.3152C72.1295 150.589 70.3809 148.858 70.3809 146.693V9.45935C28.8518 26.7759 0 67.4698 0 114.224C0 177.43 52.0206 228.514 116.719 228.514C181.417 228.514 233 177.43 233 114.657C233 51.8849 180.542 0.368164 116.281 0.368164ZM114.096 161.845C114.096 164.442 111.91 166.607 109.287 166.607H98.7955C96.1726 166.607 93.9869 164.442 93.9869 161.845V89.5484C93.9869 86.9509 96.1726 84.7863 98.7955 84.7863H109.287C111.91 84.7863 114.096 86.9509 114.096 89.5484V161.845ZM137.702 168.772C137.702 171.369 135.516 173.534 132.893 173.534H122.402C119.779 173.534 117.593 171.369 117.593 168.772V82.6218C117.593 80.0243 119.779 77.8597 122.402 77.8597H132.893C135.516 77.8597 137.702 80.0243 137.702 82.6218V168.772ZM161.308 155.784C161.308 158.382 159.122 160.546 156.499 160.546H146.008C143.385 160.546 141.199 158.382 141.199 155.784V96.475C141.199 93.8775 143.385 91.7129 146.008 91.7129H156.499C159.122 91.7129 161.308 93.8775 161.308 96.475V155.784Z" fill="#FF005C"/>
<path d="M116.281 0C107.538 0 98.7955 0.865826 90.0525 3.0304C90.0525 3.46332 90.0525 3.89623 90.0525 4.32914V145.026C90.0525 148.057 87.4296 150.221 84.8067 150.221H74.3152C72.1295 150.221 70.3809 148.49 70.3809 146.325V9.09119C28.8518 26.4077 0 67.1016 0 113.856C0 177.062 52.0206 228.146 116.719 228.146C181.417 228.146 233 177.062 233 114.289C233 51.5167 180.542 0 116.281 0ZM114.096 161.477C114.096 164.074 111.91 166.239 109.287 166.239H98.7955C96.1726 166.239 93.9869 164.074 93.9869 161.477V89.1802C93.9869 86.5827 96.1726 84.4181 98.7955 84.4181H109.287C111.91 84.4181 114.096 86.5827 114.096 89.1802V161.477ZM137.702 168.404C137.702 171.001 135.516 173.166 132.893 173.166H122.402C119.779 173.166 117.593 171.001 117.593 168.404V82.2536C117.593 79.6561 119.779 77.4915 122.402 77.4915H132.893C135.516 77.4915 137.702 79.6561 137.702 82.2536V168.404ZM161.308 155.416C161.308 158.014 159.122 160.178 156.499 160.178H146.008C143.385 160.178 141.199 158.014 141.199 155.416V96.1068C141.199 93.5093 143.385 91.3447 146.008 91.3447H156.499C159.122 91.3447 161.308 93.5093 161.308 96.1068V155.416Z" fill="url(#paint0_linear_1483_50)" fill-opacity="0.4"/>
</g>
<defs>
<linearGradient id="paint0_linear_1483_50" x1="116.5" y1="0" x2="116.5" y2="228.146" gradientUnits="userSpaceOnUse">
<stop stop-color="#00E0FF"/>
<stop offset="1" stop-color="#00E0FF" stop-opacity="0"/>
</linearGradient>
<clipPath id="clip0_1483_50">
<rect width="233" height="229" fill="white"/>
</clipPath>
</defs>
</svg>