<svg width="200" height="200" viewBox="0 0 200 200" fill="none" xmlns="http://www.w3.org/2000/svg">
<g clip-path="url(#clip0_179_37)">
<rect width="200" height="200" fill="#6366F1"/>
<g filter="url(#filter0_d_179_37)">
<path d="M108.669 23.7051C109.597 23.8015 110.785 24.3585 112.125 26.0143C113.48 27.6871 114.775 30.2421 115.818 33.6627C117.897 40.4873 118.731 49.9833 117.643 60.4731C116.554 70.9629 113.787 80.0851 110.35 86.3371C108.628 89.4708 106.835 91.7052 105.166 93.0641C103.514 94.4093 102.237 94.7105 101.309 94.6142C100.38 94.5178 99.1924 93.9608 97.8518 92.305C96.4975 90.6322 95.2018 88.0772 94.1596 84.6566C92.0805 77.832 91.2457 68.336 92.3345 57.8462C93.4233 47.3564 96.1906 38.2342 99.6271 31.9822C101.35 28.8485 103.142 26.6141 104.811 25.2552C106.464 23.91 107.74 23.6088 108.669 23.7051Z" fill="white" stroke="white" stroke-width="8"/>
<path fill-rule="evenodd" clip-rule="evenodd" d="M105.26 96.9645C104.061 97.7765 102.425 96.4532 101.248 95.2451C98.545 92.4677 93.7447 71.9364 95.5078 56.7604C97.9105 36.0818 105.819 24.8719 110.52 25.5255C115.351 33.2184 112.208 52.176 108.926 71.9757C107.525 80.4227 106.103 89.0204 105.26 96.9645Z" fill="url(#paint0_linear_179_37)"/>
<path d="M142.13 31.2324C142.958 31.6631 143.858 32.6176 144.497 34.6502C145.142 36.7036 145.408 39.5559 145.12 43.1201C144.547 50.2313 141.834 59.3698 136.967 68.7258C132.1 78.0818 126.175 85.5491 120.681 90.1011C117.928 92.3827 115.439 93.802 113.388 94.4527C111.357 95.0967 110.059 94.9077 109.231 94.477C108.403 94.0463 107.503 93.0918 106.864 91.0592C106.219 89.0059 105.953 86.1535 106.241 82.5893C106.815 75.4781 109.527 66.3396 114.394 56.9836C119.261 47.6277 125.187 40.1604 130.68 35.6083C133.433 33.3267 135.922 31.9074 137.973 31.2567C140.004 30.6127 141.302 30.8017 142.13 31.2324Z" fill="white" stroke="white" stroke-width="8"/>
<path fill-rule="evenodd" clip-rule="evenodd" d="M132.876 114.479C134.144 104.648 132.876 97.4425 126.456 87.4527C98.7372 65.1032 52.1157 106.513 52.1157 128.309C53.035 153.123 121.397 165.472 132.876 114.479ZM87.2182 120.957C90.8913 120.957 93.8689 119.457 93.8689 115.784C93.8689 112.111 90.8913 109.133 87.2182 109.133C83.545 109.133 80.5674 112.111 80.5674 115.784C80.5674 119.457 83.545 120.957 87.2182 120.957Z" fill="white"/>
<path d="M159.146 129.867C145.933 128.916 136.281 136.214 126.685 143.469C115.953 151.584 105.29 159.646 89.7949 156.047C98.9483 166.942 120.829 168.851 136.395 160.725C146.243 155.597 150.475 146.869 154.402 138.767C155.925 135.624 157.403 132.575 159.146 129.867Z" fill="white"/>
<path d="M83.9522 157.875C89.7027 157.522 93.2386 161.794 96.7538 166.041C100.685 170.791 104.592 175.51 111.541 173.689C106.707 179.734 97.1567 180.507 91.1514 175.683C87.3509 172.638 86.2605 167.632 85.2487 162.986C84.8561 161.183 84.4752 159.434 83.9522 157.875Z" fill="white"/>
<path fill-rule="evenodd" clip-rule="evenodd" d="M114.579 97.0308C113.177 97.3966 112.076 95.6037 111.369 94.0727C109.746 90.5531 112.062 69.5957 118.782 55.8748C127.939 37.179 139.13 29.2453 143.345 31.4281C145.336 40.2914 136.055 57.118 126.362 74.692C122.227 82.1894 118.021 89.8217 114.579 97.0308Z" fill="url(#paint1_linear_179_37)"/>
<path fill-rule="evenodd" clip-rule="evenodd" d="M50.2247 54.3195C48.9275 52.3544 51.5006 50.1534 53.2409 51.7394L61.169 58.9644C60.4299 59.9381 58.0806 61.6008 54.7027 61.1027L50.2247 54.3195ZM58.0806 66.2196C59.7874 66.2102 63.7554 65.6217 65.9724 63.342L77.4417 73.7943C72.9929 78.413 68.7436 78.8318 66.1302 78.413L58.0806 66.2196ZM70.7648 85.4335L77.5859 95.7661C78.2486 96.77 79.641 96.966 80.5551 96.1841L89.9009 88.1897C90.8149 87.4079 90.837 86.0019 89.948 85.1917L82.9693 78.8318C82.0997 80.6044 78.4414 84.4064 70.7648 85.4335Z" fill="white"/>
</g>
</g>
<defs>
<filter id="filter0_d_179_37" x="25.8721" y="11.688" width="157.274" height="207.14" filterUnits="userSpaceOnUse" color-interpolation-filters="sRGB">
<feFlood flood-opacity="0" result="BackgroundImageFix"/>
<feColorMatrix in="SourceAlpha" type="matrix" values="0 0 0 0 0 0 0 0 0 0 0 0 0 0 0 0 0 0 127 0" result="hardAlpha"/>
<feOffset dy="16"/>
<feGaussianBlur stdDeviation="12"/>
<feComposite in2="hardAlpha" operator="out"/>
<feColorMatrix type="matrix" values="0 0 0 0 0 0 0 0 0 0 0 0 0 0 0 0 0 0 0.25 0"/>
<feBlend mode="normal" in2="BackgroundImageFix" result="effect1_dropShadow_179_37"/>
<feBlend mode="normal" in="SourceGraphic" in2="effect1_dropShadow_179_37" result="shape"/>
</filter>
<linearGradient id="paint0_linear_179_37" x1="117.238" y1="136.47" x2="93.5741" y2="4.28661" gradientUnits="userSpaceOnUse">
<stop stop-color="#CDCED8"/>
<stop offset="1" stop-color="#8697FF" stop-opacity="0"/>
</linearGradient>
<linearGradient id="paint1_linear_179_37" x1="112.707" y1="138.27" x2="134.446" y2="5.75614" gradientUnits="userSpaceOnUse">
<stop stop-color="#CDCED8"/>
<stop offset="1" stop-color="#8697FF" stop-opacity="0"/>
</linearGradient>
<clipPath id="clip0_179_37">
<rect width="200" height="200" fill="white"/>
</clipPath>
</defs>
</svg>
