<svg version="1.0" xmlns="http://www.w3.org/2000/svg"
 width="250.000000pt" height="250.000000pt" viewBox="0 0 250.000000 250.000000"
 preserveAspectRatio="xMidYMid meet">

<g transform="translate(0.000000,250.000000) scale(0.100000,-0.100000)"
fill="#000000" stroke="none">
<path d="M1115 2013 c-240 -38 -472 -171 -619 -354 -118 -148 -199 -355 -208
-529 l-3 -75 198 -3 197 -2 0 -43 c0 -119 62 -250 170 -357 86 -87 147 -122
256 -150 98 -25 190 -25 288 0 109 28 170 63 256 150 108 107 170 238 170 357
l0 43 198 2 197 3 -3 75 c-15 323 -231 641 -537 790 -140 68 -239 92 -400 95
-71 2 -143 1 -160 -2z m275 -408 c183 -49 339 -194 398 -370 11 -33 24 -88 28
-122 l7 -63 -573 0 -573 0 7 63 c27 232 196 430 422 492 66 18 216 18 284 0z"/>
</g>
</svg>