<svg id="Layer_1" data-name="Layer 1" xmlns="http://www.w3.org/2000/svg" viewBox="0 0 500 500"><defs><style>.cls-1{fill:#ecdce6;}.cls-2,.cls-6{fill:#faa500;}.cls-2,.cls-7,.cls-8,.cls-9{stroke:#551a3b;}.cls-2,.cls-7{stroke-linecap:round;stroke-width:6.24px;}.cls-2,.cls-7,.cls-9{stroke-linejoin:round;}.cls-3{fill:#fff;}.cls-4{fill:#fc6b8f;}.cls-5{fill:#ffaca7;}.cls-12,.cls-5{opacity:0.5;}.cls-7{fill:none;}.cls-8,.cls-9{fill:#551a3b;stroke-width:2.08px;}.cls-8{stroke-miterlimit:10;}.cls-10{fill:#fc6b8e;}.cls-11{fill:#d0792c;}.cls-12{fill:#facc7a;}</style></defs><circle class="cls-1" cx="251" cy="250" r="230.47"/><path class="cls-2" d="M316.86,160.53s33.59-32,60.14-41.39,33.59-3.13,35.93,20.69S411.37,206.62,409,223c-1.82,12.75-4.66,25.09-4.66,25.09"/><path class="cls-3" d="M67.69,341s14.84-8.6,21.09-25,6.25-50.77,16.4-74.2,49.21-89.05,145.29-89.05,149.18,53.12,159.34,118,14.06,58.84,18,63S442.61,341,442.61,341s-52.33,94.51-198.39,94.51S67.69,341,67.69,341Z"/><path class="cls-1" d="M442.61,341s-52.33,94.51-198.39,94.51c-73,0-125.74-27.23-143-47.26C235.14,456.56,403.34,397,442.61,341Z"/><path class="cls-2" d="M187.35,166.77s-33.58-32-60.14-41.4-33.59-3.12-35.93,20.7,1.56,66.78,3.9,83.19C97,242,99.85,254.35,99.85,254.35"/><path class="cls-4" d="M162.86,179.68s-2.52-3.33-12.12-11.09-33.26-22.54-44-27.71-12.19,1.85-12.19,1.85-3,1.61-1.16,38.81,7.26,63.37,7.26,63.37,12.12-25.13,27.17-40.68S162.86,179.68,162.86,179.68Z"/><path class="cls-4" d="M341.35,175.93s2.52-3.33,12.12-11.09,33.26-22.54,44-27.71S409.64,139,409.64,139s3,1.61,1.16,38.81-7.25,63.37-7.25,63.37S391.42,216,376.37,200.48,341.35,175.93,341.35,175.93Z"/><path class="cls-5" d="M106.76,140.88c-6.19-10.16-12.19,1.85-12.19,1.85s-3,1.61-1.16,38.81,7.26,63.37,7.26,63.37c-2.28-3.1,8,.59,6.28-11.67C100.45,187.78,108.22,143.26,106.76,140.88Z"/><path class="cls-6" d="M442.61,341s-10.93-3.13-14.84-7.29-7.81,1.82-18-63-63.27-118-159.34-118-135.13,65.61-145.29,89.05S95,299.57,88.78,316s-21.09,25-21.09,25,15.33-7.88,31.5-7.29,61.35,18,84.53,18S218.11,310,243.37,310s45.81,44.48,67.21,44.48,22.88-35.72,54.68-35.72S399.21,341,442.61,341Z"/><path class="cls-7" d="M409.64,136.49s-1.48-7-12.19-1.85-34.37,20-44,27.72-12.12,11.08-12.12,11.08"/><path class="cls-7" d="M94.57,142.73s1.48-7,12.19-1.85,26.33,13.84,35.94,21.6S160.4,177,160.4,177"/><ellipse class="cls-8" cx="306.42" cy="300.76" rx="17.27" ry="32.05"/><ellipse class="cls-3" cx="314.57" cy="291.56" rx="4.67" ry="8.67"/><ellipse class="cls-8" cx="183.42" cy="300.76" rx="17.27" ry="32.05"/><ellipse class="cls-3" cx="191.57" cy="291.56" rx="4.67" ry="8.67"/><path class="cls-7" d="M209,347.8s1.77,11.7,14.54,11.7S243,343.9,243,343.9s6.39,15.6,20.57,15.6S279.19,346,279.19,346"/><path class="cls-9" d="M227.93,334.92s4.79-5,15-5,13.76,5,13.76,5-7.71,9-13.63,9S227.93,334.92,227.93,334.92Z"/><path class="cls-8" d="M221.6,360.68s-3.54,36.89,23.41,36.89,25-38.07,25-38.07-7.48,1.37-12.18-.94-6.61-1.24-10.69-7.95L243,343.9S239,353.66,233,356.39,225.57,360.23,221.6,360.68Z"/><path class="cls-10" d="M230,386.39a15.78,15.78,0,0,1,14.1-8.61c10.42-.23,16.83,7.51,16.83,7.51s-2.77,8.83-15.2,8.61S230,386.39,230,386.39Z"/><path class="cls-11" d="M287.72,155.64a173.74,173.74,0,0,1-8.2,61.21,6.31,6.31,0,0,1-12.06-.18c-6.64-22.6-10.38-44-9.49-63.58Z"/><path class="cls-11" d="M202.12,159c-1,21.47,2.24,38.44,8.39,57.88a6.31,6.31,0,0,0,12.06-.18c6.64-22.6,10.38-41.94,9.49-61.5Z"/><path class="cls-12" d="M250.47,152.72c-96.08,0-135.13,65.61-145.29,89.05S95,299.57,88.78,316s-21.09,25-21.09,25,15.33-7.88,31.5-7.29c0,0,9.12-12.26,9.12-26.69s-.93-38.28,14.7-69.35C150.78,182.45,240.19,147.19,250.47,152.72Z"/><path class="cls-7" d="M176.24,168.66c19.75-9.53,44.2-15.94,74.23-15.94,28,0,52.43,4.53,73.15,12.55"/><path class="cls-7" d="M341.35,173.44c39.34,21.32,62.16,57,68.46,97.23,10.15,64.83,14.06,58.84,18,63S442.61,341,442.61,341s-52.33,94.51-198.39,94.51S67.69,341,67.69,341s14.84-8.6,21.09-25,6.25-50.77,16.4-74.2c6.09-14.05,22.55-43.24,55.45-64.38"/></svg>