<svg version="1.1" id="Layer_1" xmlns="http://www.w3.org/2000/svg" xmlns:xlink="http://www.w3.org/1999/xlink" x="0px"
	y="0px" viewBox="0 0 320 320" enable-background="new 0 0 320 320" xml:space="preserve" fill="none">
	<circle cx="160" cy="160" r="160" fill="#0253FF" />
	<path fill="#FEFEFF" opacity="1.000000" stroke="none" d="
M123.863434,20.861660 
	C203.539719,-1.039069 287.866821,51.566051 303.090240,132.322815 
	C317.837921,210.556030 270.347290,284.373230 193.777313,302.233673 
	C110.667107,321.619598 28.469507,264.838440 17.191290,180.250046 
	C7.563582,108.040703 52.971657,39.978348 123.863434,20.861660 
M93.899612,173.306168 
	C93.446754,173.285431 92.993896,173.264694 92.541046,173.243958 
	C92.802979,173.708649 93.064911,174.173340 93.648582,175.231979 
	C115.072006,205.689209 136.483215,236.155060 157.964584,266.571381 
	C158.802521,267.757812 160.312149,268.469910 162.108505,269.115051 
	C184.069305,237.980362 206.032181,206.847122 227.974884,175.699677 
	C228.377655,175.127930 228.540588,174.387222 229.276413,172.615295 
	C205.783356,186.540039 183.353561,199.834579 160.295639,212.846512 
	C154.484985,209.363693 148.696198,205.843796 142.859512,202.405151 
	C126.644592,192.852219 110.409775,183.333069 93.899612,173.306168 
M161.798141,198.928299 
	C163.293915,198.207901 164.855194,197.597382 166.275528,196.750458 
	C184.424042,185.928879 202.579468,175.118317 220.661255,164.186050 
	C223.995377,162.170258 227.010788,159.627304 229.949677,156.621017 
	C207.876801,119.603256 185.807510,82.583351 163.707443,45.581833 
	C163.226166,44.776043 162.392563,44.180698 161.516418,42.827171 
	C160.520538,43.619957 159.191772,44.212608 158.577286,45.234688 
	C141.363342,73.866875 124.195068,102.526657 107.084450,131.220764 
	C102.018448,139.716324 97.148399,148.328720 92.110199,157.605423 
	C92.970833,158.500183 93.686134,159.636917 94.713547,160.253983 
	C115.605186,172.801376 136.526581,185.299332 157.469833,197.760452 
	C158.553772,198.405396 159.885315,198.634201 161.798141,198.928299 
z" />
	<path fill="#0153FF" opacity="1.000000" stroke="none" d="
M92.188553,156.887573 
	C97.148399,148.328720 102.018448,139.716324 107.084450,131.220764 
	C124.195068,102.526657 141.363342,73.866875 158.577286,45.234688 
	C159.191772,44.212608 160.520538,43.619957 161.401474,43.619545 
	C161.216034,71.634216 161.145538,98.856514 160.965698,126.244614 
	C160.856354,126.410408 160.688278,126.770302 160.326721,126.797516 
	C146.193619,133.048828 132.447159,139.329330 118.641418,145.476654 
	C109.869354,149.382614 101.009193,153.090729 92.188553,156.887573 
z" />
	<path fill="#6798FF" opacity="1.000000" stroke="none" d="
M161.075043,126.078812 
	C161.145538,98.856514 161.216034,71.634216 161.504913,43.949547 
	C162.392563,44.180698 163.226166,44.776043 163.707443,45.581833 
	C185.807510,82.583351 207.876801,119.603256 229.672684,156.882019 
	C228.307251,156.752167 227.183014,156.439346 226.135620,155.958969 
	C204.443512,146.010361 182.760147,136.042694 161.075043,126.078812 
z" />
	<path fill="#CCDCFF" opacity="1.000000" stroke="none" d="
M160.965698,126.244606 
	C182.760147,136.042694 204.443512,146.010361 226.135620,155.958969 
	C227.183014,156.439346 228.307251,156.752167 229.784500,157.235352 
	C227.010788,159.627304 223.995377,162.170258 220.661255,164.186050 
	C202.579468,175.118317 184.424042,185.928879 166.275528,196.750458 
	C164.855194,197.597382 163.293915,198.207901 161.416977,198.520798 
	C161.023743,192.623688 161.026016,187.134003 160.996948,181.644485 
	C160.900116,163.353073 160.792038,145.061691 160.688278,126.770302 
	C160.688278,126.770302 160.856354,126.410408 160.965698,126.244606 
z" />
	<path fill="#6697FF" opacity="1.000000" stroke="none" d="
M160.326721,126.797516 
	C160.792038,145.061691 160.900116,163.353073 160.996948,181.644485 
	C161.026016,187.134003 161.023743,192.623688 161.068695,198.585022 
	C159.885315,198.634201 158.553772,198.405396 157.469833,197.760452 
	C136.526581,185.299332 115.605186,172.801376 94.713547,160.253983 
	C93.686134,159.636917 92.970833,158.500183 92.149368,157.246490 
	C101.009193,153.090729 109.869354,149.382614 118.641418,145.476654 
	C132.447159,139.329330 146.193619,133.048828 160.326721,126.797516 
z" />
	<path fill="#0354FF" opacity="1.000000" stroke="none" d="
M161.508804,269.403015 
	C160.312149,268.469910 158.802521,267.757812 157.964584,266.571381 
	C136.483215,236.155060 115.072006,205.689209 93.703316,174.727280 
	C93.899643,174.081909 94.041229,173.941223 94.182823,173.800552 
	C110.409775,183.333069 126.644592,192.852219 142.859512,202.405151 
	C148.696198,205.843796 154.484985,209.363693 160.629181,213.447845 
	C160.980789,223.367172 160.941818,232.685730 161.033157,242.002991 
	C161.122696,251.136993 161.344849,260.269714 161.508804,269.403015 
z" />
	<path fill="#6898FF" opacity="1.000000" stroke="none" d="
M161.808655,269.259033 
	C161.344849,260.269714 161.122696,251.136993 161.033157,242.002991 
	C160.941818,232.685730 160.980789,223.367172 160.943237,213.589157 
	C183.353561,199.834579 205.783356,186.540039 229.276413,172.615295 
	C228.540588,174.387222 228.377655,175.127930 227.974884,175.699677 
	C206.032181,206.847122 184.069305,237.980362 161.808655,269.259033 
z" />
	<path fill="#0354FF" opacity="1.000000" stroke="none" d="
M93.542450,174.430298 
	C93.064911,174.173340 92.802979,173.708649 92.541046,173.243958 
	C92.993896,173.264694 93.446754,173.285431 94.041214,173.553360 
	C94.041229,173.941223 93.899643,174.081909 93.542450,174.430298 
z" />
</svg>