<?xml version="1.0" encoding="UTF-8"?><svg id="_Слой_2" xmlns="http://www.w3.org/2000/svg" viewBox="0 0 1076.37 935.52"><g id="_Слой_1-2"><path d="M516.47,607.08v161.7h43.6v-161.7h-43.6Zm-.88-82.71v46.51h45.2v-46.51h-45.2Zm-84.47-152.26v198.78h43.66v-74.82h150.73v-43.44h-150.51v-35.32h150.51v-45.2h-194.39Zm138.66-205.36v161.48h99.39v278.86h-67.57v161.7h109.26l172.89-301.02-172.89-301.02h-141.07Zm-66.04-100.92h264.81l231.69,401.94-231.9,402.16H474.78v-262.84h-88.2V328.22h117.16V65.82Zm-43.88,0v102.46l-94.34-1.54L192.63,467.76l172.89,301.02h65.16v101.14l-122.64-.22L75.91,467.76,308.04,65.82h151.82ZM269.73,0L0,467.76l269.86,467.76H806.51l269.86-467.76L806.51,0H269.73Z"/></g></svg>