<?xml version="1.0" encoding="utf-8"?>
<!-- Generator: Adobe Illustrator 26.1.0, SVG Export Plug-In . SVG Version: 6.00 Build 0)  -->
<svg version="1.1" id="Layer_1" xmlns="http://www.w3.org/2000/svg" xmlns:xlink="http://www.w3.org/1999/xlink" x="0px" y="0px"
	 viewBox="0 0 213 213" style="enable-background:new 0 0 213 213;" xml:space="preserve">
<style type="text/css">
	.st0{fill:#FFFFFF;stroke:#F24139;stroke-width:0.75;}
	.st1{fill:#F24139;}
	.st2{fill:none;stroke:#F24139;stroke-width:8;}
</style>
<circle class="st0" cx="106.5" cy="106.5" r="102.5"/>
<path class="st1" d="M71.3,99l-55.9-2.2c-2,18.8,1.9,38.6,10.2,54.5l83.4,0.2c-5,6.2-59.1,11-80.5,5c14.7,22.6,26,34.9,54.6,28.8
	C131.9,171.3,116.4,98.4,71.3,99z"/>
<path class="st1" d="M198,104l-11.9,2.1l-20.3,14.8c-0.4-5.5-1.4-11-2.8-16.3c-6.2,10.2-20.7,5-35.3-6.8
	c20.1,5.1,24.4-27.1,3.8-27.9c-9.2-0.2-16.1,9.7-13.1,18.7c-49.5-61.3,52.6-52.8,47.7,2.1l31.8,9.9C194.2,11.7,75.9-20.3,30.5,53.8
	c14.6-10.6,32.8-16.7,51.8-16.2c1.7,0,2.5,2.2,1.2,3.5c-9.6,9.8,1.5,37.2,24.6,61.1c23.7,24.9,49.4,34.1,59.4,25.9
	c0,27-11.4,51.2-29.5,67.7C173.8,182.4,199.3,145.7,198,104z M135.1,81.8c3.7,0,3.7,5.9,0,5.9C131.3,87.7,131.4,81.8,135.1,81.8z
	 M120.5,81c0-7.6,11.1-7.6,11.2,0C131.6,88.5,120.5,88.5,120.5,81z"/>
<path class="st1" d="M185,96.5c0,0,6.6,2.3,1.1,9.6c-7.6,10.2,11.9-2.1,11.9-2.1C199.3,93.3,188.9,95.4,185,96.5z"/>
<circle class="st2" cx="106.5" cy="106.5" r="102.5"/>
</svg>
