<svg width="1080" height="1080" version="1.1" viewBox="0 0 285.75 285.75" xml:space="preserve" xmlns="http://www.w3.org/2000/svg"><g><rect width="285.75" height="285.75" fill="#333"/><circle cx="142.88" cy="142.88" r="142.88" fill="#1a1a1a" stroke-linecap="round" stroke-width=".75"/><circle cx="142.88" cy="142.88" r="135.89" fill="#da575d" stroke-linecap="round" stroke-width=".71335"/><path d="m134.49 76.302-59.861 32.766-7.1463 143.92 7.2528 7.9804 61.746 15.978 64.01-32.941 14.024-137.77z" fill="#f4e3d7"/><path d="m95.458 35.644c-4.1919-3.3046 22.592-9.5614 47.327-6.3084 18.633 2.4506 40.834 3.2382 40.834 3.2382l-15.998 42.076-61.243-7.5551z" fill="#1a1a1a"/><path d="m109.1 42.196c17.852 5.5644 36.691 6.2521 55.793 5.6361l15.536 26.484-68.51 1.7822z" fill="#333"/><path d="m94.081 32.297c-14.023-0.24486-22.456 34.675-17.016 58.06 1.577 2.2432 8.4417 33.232 11.541 37.238 1.0359 1.3393 4.1577-1.713 4.7044-7.1644 0.31986-3.1899-2.1466-8.2267-1.3803-10.967 1.3611-4.8678 5.7554-6.3229 6.7028-6.4616 3.6279-0.53131 9.3255-1.8352 10.657-4.8057 7.2226-16.118 21.424-3.8821 18.075 6.8185-0.58294 1.8627-4.0993 5.2528-7.2796 5.9983-3.7746 0.88474-7.7381-2.1901-6.5808-0.77878 5.1291 6.255 0.64987 14.647-1.2312 16.397 0 0 1.8705 5.21 3.6913 4.8436 8.4249-1.3406 14.936-2.7632 23.035-2.7721 7.6628-9e-3 15.623 1.2736 23.035 2.7721 1.8208 0.36638 3.6913-4.8436 3.6913-4.8436-1.8811-1.7496-6.3604-10.142-1.2312-16.397 1.1573-1.4113-2.8062 1.6635-6.5808 0.77878-3.1803-0.74544-6.6966-4.1356-7.2796-5.9983-3.3488-10.701 10.853-22.936 18.075-6.8185 1.3311 2.9704 7.0287 4.2744 10.657 4.8057 0.94748 0.13875 5.3418 1.5939 6.7028 6.4616 0.76632 2.7407-1.7001 7.7775-1.3803 10.967 0.54664 5.4514 3.1256 7.7762 4.7044 7.1644 6.8673-2.6611 14.284-35.588 11.327-39.45 3.2207-37.317-10.797-88.511-43.292-28.362-6.9058-0.48602-12.362-1.2755-18.428-1.2243-6.1432 0.05182-12.328 0.39953-18.428 1.2243-10.663-19.737-19.641-27.366-26.49-27.486z" fill="#db7801"/><path d="m80.408 46.04c-8.1714 5.805-9.673 16.732-18.816 33.497-13.915 25.515-0.89912 56.824-9.4516 84.019-7.1985 22.889-12.898 46.402-17.325 72.634a142.88 142.88 0 0 0 3.3249 3.8638 142.88 142.88 0 0 0 7.5551 7.5551 142.88 142.88 0 0 0 8.0987 6.9696 142.88 142.88 0 0 0 8.5964 6.3443 142.88 142.88 0 0 0 9.047 5.6849 142.88 142.88 0 0 0 9.4465 4.9925 142.88 142.88 0 0 0 9.7932 4.2726 142.88 142.88 0 0 0 10.085 3.529 142.88 142.88 0 0 0 10.32 2.7652 142.88 142.88 0 0 0 10.499 1.9864 142.88 142.88 0 0 0 10.617 1.1963 142.88 142.88 0 0 0 0.23461 0.00879 142.88 142.88 0 0 0 0.2496 0.02687 142.88 142.88 0 0 0 10.193 0.3638 142.88 142.88 0 0 0 10.193-0.3638 142.88 142.88 0 0 0 10.14-1.0904 142.88 142.88 0 0 0 10.037-1.8108 142.88 142.88 0 0 0 9.8821-2.5223 142.88 142.88 0 0 0 9.6774-3.221 142.88 142.88 0 0 0 9.4227-3.9031 142.88 142.88 0 0 0 9.1204-4.5651 142.88 142.88 0 0 0 8.771-5.2043 142.88 142.88 0 0 0 8.3778-5.8167 142.88 142.88 0 0 0 7.9416-6.3996 142.88 142.88 0 0 0 7.4647-6.95 142.88 142.88 0 0 0 4.7222-5.072c-5.7013-15.358-11.658-29.184-12.402-42.749l-5.347-97.547c-1.2797-23.347-14.924-41.144-33.798-51.49 7.3335 57.557-5.2773 67.211-10.043 79.371-16.949 43.249-38.627 90.964-51.237 139.92-5.8475-49.905-33.735-106.15-45.424-141.1-8.6-24.355-13.748-54.011-9.9658-79.197z" fill="#333"/><ellipse cx="106.6" cy="117.9" rx="9.8674" ry="10.957" fill="#1a1a1a"/><ellipse cx="171.29" cy="117.9" rx="9.8674" ry="10.957" fill="#1a1a1a"/><path d="m82.634 86.569c7.71-10.564 18.581-17.84 31.537-22.949 0 0-7.3963-29.73-18.713-27.977-17.713 2.7439-12.824 50.925-12.824 50.925z" fill="#f4e3d7"/><path d="m195.36 86.569c-7.71-10.564-18.581-17.84-31.537-22.949 0 0 7.3963-29.73 18.713-27.977 17.713 2.7439 12.824 50.925 12.824 50.925z" fill="#f4e3d7"/><path d="m139 162.16c-5.9649 0.97023-14.788-7.22-14.492-12.187 0.6532-10.941 24.107-10.46 24.479 0 0.15475 4.3503-5.3677 11.435-9.9877 12.187z" fill="#1a1a1a"/><path d="m112.38 161.76c3.3851 2.9996 7.5274 6.0682 11.614 5.9112 4.3083-0.16542 8.6074-3.6302 14.006-3.1265 3.6775 0.34317 6.9424 2.5778 9.9282 2.7366 4.0338 0.21453 7.558-1.889 10.902-3.7391-2.8515 3.2424-4.9377 6.6024-10.481 6.3925-2.8028-0.10615-7.6307-3.0719-11.6-3.2736-5.5056-0.27975-9.1358 3.0855-12.447 3.1508-5.6669 0.11172-9.1603-2.6974-11.922-8.0519z" fill="#1a1a1a"/><path d="m106.38 67.095s-3.5509-14.831-9.3767-14.028c-9.4186 1.2975-8.2847 26.45-8.2847 26.45 5.0484-4.8895 10.877-9.082 17.661-12.422z" fill="#dfc9c5"/><path d="m171.62 67.095s3.5509-14.831 9.3767-14.028c9.4186 1.2975 8.2847 26.45 8.2847 26.45-5.0484-4.8895-10.877-9.082-17.661-12.422z" fill="#dfc9c5"/><path d="m80.408 46.04c-8.1714 5.805-11.441 19.09-20.584 35.855-13.915 25.515-0.89963 56.824-9.4521 84.019-6.8608 21.816-12.363 44.191-16.697 68.952a142.88 142.88 0 0 0 4.4654 5.1883 142.88 142.88 0 0 0 7.5551 7.5551 142.88 142.88 0 0 0 8.0987 6.9696 142.88 142.88 0 0 0 8.5964 6.3443 142.88 142.88 0 0 0 9.047 5.6849 142.88 142.88 0 0 0 9.4465 4.9925 142.88 142.88 0 0 0 9.7932 4.2726 142.88 142.88 0 0 0 10.085 3.529 142.88 142.88 0 0 0 10.32 2.7652 142.88 142.88 0 0 0 10.499 1.9864 142.88 142.88 0 0 0 10.617 1.1963 142.88 142.88 0 0 0 1.7766 0.0667l-3e-3 0.015a142.88 142.88 0 0 0 8.9033 0.31781 142.88 142.88 0 0 0 10.193-0.3638 142.88 142.88 0 0 0 10.14-1.0904 142.88 142.88 0 0 0 10.037-1.8108 142.88 142.88 0 0 0 9.8821-2.5223 142.88 142.88 0 0 0 9.6774-3.221 142.88 142.88 0 0 0 9.4227-3.9031 142.88 142.88 0 0 0 9.1204-4.5651 142.88 142.88 0 0 0 8.771-5.2043 142.88 142.88 0 0 0 8.3778-5.8167 142.88 142.88 0 0 0 7.9416-6.3996 142.88 142.88 0 0 0 7.4647-6.95 142.88 142.88 0 0 0 6.0958-6.5474c-5.3832-14.308-10.717-27.312-11.418-40.095l-5.347-97.546c-1.2797-23.347-17.282-42.324-36.156-52.669 7.3335 57.557-2.9198 68.39-7.6853 80.551-18.466 47.121-42.553 99.542-54.401 153.09-2.1851-52.642-33.748-115.32-46.385-153.09-8.6-24.355-11.98-56.369-8.1979-81.555z" fill="#1a1a1a"/></g></svg>