<svg width="400" height="400" viewBox="0 0 400 400" fill="none" xmlns="http://www.w3.org/2000/svg">
<g clip-path="url(#clip0_169_252)">
<path d="M400 200C400 89.543 310.457 0 200 0C89.543 0 0 89.543 0 200C0 310.457 89.543 400 200 400C310.457 400 400 310.457 400 200Z" fill="#FF4219"/>
<path opacity="0.6" d="M200.5 380C299.635 380 380 299.635 380 200.5C380 101.365 299.635 21 200.5 21C101.365 21 21 101.365 21 200.5C21 299.635 101.365 380 200.5 380Z" stroke="#201402" stroke-width="7.61737"/>
<path d="M225.398 75.1652C265.696 72.3861 346.295 104.34 346.297 196.051C346.297 299.436 265.696 325.287 225.398 325.287H107.381C98.8881 325.285 92.0023 318.4 92 309.906V90.5461C92.0006 82.0518 98.8871 75.1683 107.381 75.1652H225.398ZM221.162 116.791C207.267 125.128 180.306 150.971 183.638 187.654C175.303 179.32 175.303 183.484 166.963 170.979C148.898 207.106 136.112 279.362 212.813 279.365C256.944 279.365 262.85 237.684 262.85 216.84C262.85 211.282 262.844 200.16 241.999 170.979C225.328 147.636 221.163 125.129 221.162 116.791Z" fill="#201402"/>
</g>
<defs>
<clipPath id="clip0_169_252">
<rect width="400" height="400" fill="white"/>
</clipPath>
</defs>
</svg>
