<svg width="32" height="32" viewBox="0 0 32 32" fill="none" xmlns="http://www.w3.org/2000/svg">
<rect width="32" height="32" rx="16" fill="#FF4219"/>
<circle opacity="0.6" cx="15.7067" cy="15.9996" r="14.1685" stroke="#201402" stroke-width="0.615385"/>
<path d="M17.6328 5.99173C20.8566 5.7694 27.3045 8.32574 27.3047 15.6626C27.3047 23.9334 20.8566 26.0015 17.6328 26.0015H8.19141C7.51199 26.0013 6.96112 25.4505 6.96094 24.771V7.2222C6.96099 6.54266 7.51191 5.99198 8.19141 5.99173H17.6328ZM17.2939 9.32181C16.1823 9.98878 14.0254 12.0562 14.292 14.9908C13.6252 14.3241 13.6252 14.6572 12.958 13.6568C11.5128 16.547 10.4899 22.3275 16.626 22.3277C20.1565 22.3277 20.6289 18.9932 20.6289 17.3257C20.6289 16.8811 20.6285 15.9913 18.9609 13.6568C17.6272 11.7894 17.294 9.98887 17.2939 9.32181Z" fill="#201402"/>
</svg>
