<svg width="28" height="28" viewBox="0 0 28 28" fill="none" xmlns="http://www.w3.org/2000/svg">
<circle cx="14" cy="14" r="14" fill="url(#paint0_linear_12_508)"/>
<circle cx="14" cy="14" r="13.5" stroke="white" stroke-opacity="0.1"/>
<path fill-rule="evenodd" clip-rule="evenodd" d="M15.832 7.87161C15.832 5.53211 17.0289 5.19678 18.5054 5.19678V15.6414C18.5054 16.8659 18.1379 18.0046 17.5072 18.9531H17.6142C19.7846 18.9531 20.2876 20.1506 20.2876 21.6279L12.5222 21.6279C9.21782 21.6279 6.53906 18.9476 6.53906 15.6414C6.53906 12.3351 9.21782 9.65483 12.5222 9.65483C13.7461 9.65483 14.8841 10.0225 15.832 10.6535V7.87161ZM12.5222 18.9531C14.3502 18.9531 15.832 17.4704 15.832 15.6414C15.832 13.8124 14.3502 12.3297 12.5222 12.3297C10.6942 12.3297 9.21238 13.8124 9.21238 15.6414C9.21238 17.4704 10.6942 18.9531 12.5222 18.9531Z" fill="white"/>
<defs>
<linearGradient id="paint0_linear_12_508" x1="4.08829" y1="23.8919" x2="24.2009" y2="3.77929" gradientUnits="userSpaceOnUse">
<stop stop-color="#CA1856"/>
<stop offset="1" stop-color="#391475"/>
</linearGradient>
</defs>
</svg>
