<svg width="47" height="48" viewBox="0 0 47 48" fill="none" xmlns="http://www.w3.org/2000/svg">
  <g clip-path="url(#clip0_1651_337)">
    <path d="M25.6189 11.4483L12.85 17.8813L7.39429 6.01384L20.2878 0L25.6189 11.4483Z" fill="#D1E2FE" />
    <path d="M37.4108 24.0354L38.4137 19.0519L34.0815 9.77701L40.9971 6.48828L46.2155 18.7651L37.4108 24.0354Z" fill="#D1E2FE" />
    <path d="M38.9774 26.1538V28.0602L35.4444 29.7115L34.6829 28.0701L38.9774 26.1538Z" fill="#669BFF" />
    <path d="M13.6175 34.3113L7.9541 22.2085L8.13016 19.6416L13.3347 30.7477L13.6175 34.3113Z" fill="#669BFF" />
    <path d="M13.6175 34.3132V34.3448L5.86322 37.9618L0 25.9875L7.97785 22.2598L13.6175 34.3132Z" fill="#D1E2FE" />
    <path d="M38.4116 19.0522L37.4127 24.0358L33.5731 25.693L19.6687 31.7187L19.6509 31.7266L13.6176 34.3133L13.3367 30.7477L38.4116 19.0522Z" fill="#B8CAFE" />
    <path d="M39.4423 38.0923V41.6856L25.8999 48L26.2758 44.2446L39.4423 38.0923Z" fill="#447AD3" />
    <path d="M26.2757 44.2444L25.8999 47.9999L20.3789 36.9748L19.0891 34.2537L19.3799 31.5325L19.5065 31.4712L26.2757 44.2444Z" fill="#1F54FE" />
    <path d="M5.8652 37.9616L5.42605 40.6274L0.120667 30.3538L0 25.9893L5.8652 37.9616Z" fill="#1F54FE" />
    <path d="M19.3799 31.5327L19.0891 34.2539L11.8313 37.6395L11.4238 37.8294L5.42603 40.6276L5.86517 37.9619" fill="#669BFF" />
    <path d="M20.282 36.7674L11.8314 40.6257L11.7463 37.6791L19.0892 34.2539L20.282 36.7674Z" fill="#669BFF" />
    <path d="M12.7234 17.6043L11.1488 18.3518L7.39429 10.6788V6.01367L12.7234 17.6043Z" fill="#1F54FE" />
    <path d="M46.2054 18.7773L33.1912 24.9613L33.5433 25.7127L34.6807 28.072L38.9654 26.3456L46.4922 22.8274L46.2034 18.7793L46.2054 18.7773Z" fill="#669BFF" />
    <path d="M10.3337 38.3377L11.7461 37.6792L11.8312 40.6258L10.3337 38.3377Z" fill="#669BFF" />
    <path d="M39.4364 38.0962L26.2699 44.2485L19.5066 31.4713L33.2151 24.9512L35.6522 30.1285L35.7511 30.3421H35.7531L39.4364 38.0962Z" fill="#B8CAFE" />
    <path d="M8.13013 19.6416L33.1576 7.76025L38.4135 19.0523L13.3346 30.7477" fill="#FFFEFF" />
  </g>
  <defs>
    <clipPath id="clip0_1651_337">
      <rect width="46.4943" height="48" fill="white" />
    </clipPath>
  </defs>
</svg>
  