<?xml version="1.0" encoding="UTF-8"?>
<svg version="1.1" xmlns="http://www.w3.org/2000/svg" width="816" height="816">
<path d="M0 0 C1.69339005 -0.0146228 1.69339005 -0.0146228 3.42098999 -0.02954102 C29.1654671 -0.20595008 54.39267244 0.16849892 79.84375 4.23828125 C81.02372559 4.42551758 82.20370117 4.61275391 83.41943359 4.80566406 C118.94511529 10.65172622 153.0091604 21.61418587 185.84375 36.23828125 C187.03701904 36.76156006 187.03701904 36.76156006 188.25439453 37.29541016 C223.92390527 52.99190617 257.79772982 75.64735967 286.4375 102.04296875 C287.78059241 103.26832254 289.13214608 104.48509837 290.51342773 105.66723633 C296.08052125 110.43731175 301.2922287 115.53354804 306.4621582 120.72631836 C307.90400221 122.1735251 309.35112116 123.61530151 310.79882812 125.05664062 C316.02600114 130.2793366 321.07932349 135.58891737 325.84375 141.23828125 C326.38427002 141.87209717 326.92479004 142.50591309 327.48168945 143.15893555 C345.5661733 164.47899909 360.89167016 187.356659 374.46972656 211.76904297 C375.3257915 213.30746529 376.18633953 214.84341216 377.05371094 216.37548828 C406.58144566 268.60603031 423.64838732 332.34234371 424.08203125 392.39453125 C424.09177979 393.52345795 424.10152832 394.65238464 424.11157227 395.81552124 C424.28798133 421.55999835 423.91353233 446.78720369 419.84375 472.23828125 C419.56289551 474.00824463 419.56289551 474.00824463 419.27636719 475.81396484 C413.43030503 511.33964654 402.46784538 545.40369165 387.84375 578.23828125 C387.49489746 579.03379395 387.14604492 579.82930664 386.78662109 580.64892578 C371.09012508 616.31843652 348.43467158 650.19226107 322.0390625 678.83203125 C320.81370871 680.17512366 319.59693288 681.52667733 318.41479492 682.90795898 C313.6447195 688.4750525 308.54848321 693.68675995 303.35571289 698.85668945 C301.90850615 700.29853346 300.46672974 701.74565241 299.02539062 703.19335938 C293.80269465 708.42053239 288.49311388 713.47385474 282.84375 718.23828125 C282.20993408 718.77880127 281.57611816 719.31932129 280.9230957 719.8762207 C259.60303216 737.96070455 236.72537225 753.28620141 212.31298828 766.86425781 C210.77456596 767.72032275 209.23861909 768.58087078 207.70654297 769.44824219 C155.47600094 798.97597691 91.73968754 816.04291857 31.6875 816.4765625 C30.5585733 816.48631104 29.42964661 816.49605957 28.26651001 816.50610352 C2.5220329 816.68251258 -22.70517244 816.30806358 -48.15625 812.23828125 C-49.92621338 811.95742676 -49.92621338 811.95742676 -51.73193359 811.67089844 C-87.25761529 805.82483628 -121.3216604 794.86237663 -154.15625 780.23828125 C-154.9517627 779.88942871 -155.74727539 779.54057617 -156.56689453 779.18115234 C-192.23640527 763.48465633 -226.11022982 740.82920283 -254.75 714.43359375 C-256.09309241 713.20823996 -257.44464608 711.99146413 -258.82592773 710.80932617 C-264.39302125 706.03925075 -269.6047287 700.94301446 -274.7746582 695.75024414 C-276.21650221 694.3030374 -277.66362116 692.86126099 -279.11132812 691.41992188 C-284.33850114 686.1972259 -289.39182349 680.88764513 -294.15625 675.23828125 C-294.69677002 674.60446533 -295.23729004 673.97064941 -295.79418945 673.31762695 C-313.8786733 651.99756341 -329.20417016 629.1199035 -342.78222656 604.70751953 C-343.6382915 603.16909721 -344.49883953 601.63315034 -345.36621094 600.10107422 C-374.89394566 547.87053219 -391.96088732 484.13421879 -392.39453125 424.08203125 C-392.40427979 422.95310455 -392.41402832 421.82417786 -392.42407227 420.66104126 C-392.60048133 394.91656415 -392.22603233 369.68935881 -388.15625 344.23828125 C-387.96901367 343.05830566 -387.78177734 341.87833008 -387.58886719 340.66259766 C-381.74280503 305.13691596 -370.78034538 271.07287085 -356.15625 238.23828125 C-355.80739746 237.44276855 -355.45854492 236.64725586 -355.09912109 235.82763672 C-339.40262508 200.15812598 -316.74717158 166.28430143 -290.3515625 137.64453125 C-289.12620871 136.30143884 -287.90943288 134.94988517 -286.72729492 133.56860352 C-281.9572195 128.00151 -276.86098321 122.78980255 -271.66821289 117.61987305 C-270.22100615 116.17802904 -268.77922974 114.73091009 -267.33789062 113.28320312 C-262.11519465 108.05603011 -256.80561388 103.00270776 -251.15625 98.23828125 C-250.52243408 97.69776123 -249.88861816 97.15724121 -249.2355957 96.6003418 C-227.91553216 78.51585795 -205.03787225 63.19036109 -180.62548828 49.61230469 C-179.08706596 48.75623975 -177.55111909 47.89569172 -176.01904297 47.02832031 C-123.78850094 17.50058559 -60.05218754 0.43364393 0 0 Z " fill="#FEFEFE" transform="translate(392.15625,-0.23828125)"/>
<path d="M0 0 C1.69339005 -0.0146228 1.69339005 -0.0146228 3.42098999 -0.02954102 C29.1654671 -0.20595008 54.39267244 0.16849892 79.84375 4.23828125 C81.02372559 4.42551758 82.20370117 4.61275391 83.41943359 4.80566406 C118.94511529 10.65172622 153.0091604 21.61418587 185.84375 36.23828125 C187.03701904 36.76156006 187.03701904 36.76156006 188.25439453 37.29541016 C223.92390527 52.99190617 257.79772982 75.64735967 286.4375 102.04296875 C287.78059241 103.26832254 289.13214608 104.48509837 290.51342773 105.66723633 C296.08052125 110.43731175 301.2922287 115.53354804 306.4621582 120.72631836 C307.90400221 122.1735251 309.35112116 123.61530151 310.79882812 125.05664062 C316.02600114 130.2793366 321.07932349 135.58891737 325.84375 141.23828125 C326.38427002 141.87209717 326.92479004 142.50591309 327.48168945 143.15893555 C345.5661733 164.47899909 360.89167016 187.356659 374.46972656 211.76904297 C375.3257915 213.30746529 376.18633953 214.84341216 377.05371094 216.37548828 C406.58144566 268.60603031 423.64838732 332.34234371 424.08203125 392.39453125 C424.09177979 393.52345795 424.10152832 394.65238464 424.11157227 395.81552124 C424.28798133 421.55999835 423.91353233 446.78720369 419.84375 472.23828125 C419.56289551 474.00824463 419.56289551 474.00824463 419.27636719 475.81396484 C413.43030503 511.33964654 402.46784538 545.40369165 387.84375 578.23828125 C387.49489746 579.03379395 387.14604492 579.82930664 386.78662109 580.64892578 C371.09012508 616.31843652 348.43467158 650.19226107 322.0390625 678.83203125 C320.81370871 680.17512366 319.59693288 681.52667733 318.41479492 682.90795898 C313.6447195 688.4750525 308.54848321 693.68675995 303.35571289 698.85668945 C301.90850615 700.29853346 300.46672974 701.74565241 299.02539062 703.19335938 C293.80269465 708.42053239 288.49311388 713.47385474 282.84375 718.23828125 C282.20993408 718.77880127 281.57611816 719.31932129 280.9230957 719.8762207 C259.60303216 737.96070455 236.72537225 753.28620141 212.31298828 766.86425781 C210.77456596 767.72032275 209.23861909 768.58087078 207.70654297 769.44824219 C155.47600094 798.97597691 91.73968754 816.04291857 31.6875 816.4765625 C30.5585733 816.48631104 29.42964661 816.49605957 28.26651001 816.50610352 C2.5220329 816.68251258 -22.70517244 816.30806358 -48.15625 812.23828125 C-49.92621338 811.95742676 -49.92621338 811.95742676 -51.73193359 811.67089844 C-87.25761529 805.82483628 -121.3216604 794.86237663 -154.15625 780.23828125 C-154.9517627 779.88942871 -155.74727539 779.54057617 -156.56689453 779.18115234 C-192.23640527 763.48465633 -226.11022982 740.82920283 -254.75 714.43359375 C-256.09309241 713.20823996 -257.44464608 711.99146413 -258.82592773 710.80932617 C-264.39302125 706.03925075 -269.6047287 700.94301446 -274.7746582 695.75024414 C-276.21650221 694.3030374 -277.66362116 692.86126099 -279.11132812 691.41992188 C-284.33850114 686.1972259 -289.39182349 680.88764513 -294.15625 675.23828125 C-294.69677002 674.60446533 -295.23729004 673.97064941 -295.79418945 673.31762695 C-313.8786733 651.99756341 -329.20417016 629.1199035 -342.78222656 604.70751953 C-343.6382915 603.16909721 -344.49883953 601.63315034 -345.36621094 600.10107422 C-374.89394566 547.87053219 -391.96088732 484.13421879 -392.39453125 424.08203125 C-392.40427979 422.95310455 -392.41402832 421.82417786 -392.42407227 420.66104126 C-392.60048133 394.91656415 -392.22603233 369.68935881 -388.15625 344.23828125 C-387.96901367 343.05830566 -387.78177734 341.87833008 -387.58886719 340.66259766 C-381.74280503 305.13691596 -370.78034538 271.07287085 -356.15625 238.23828125 C-355.80739746 237.44276855 -355.45854492 236.64725586 -355.09912109 235.82763672 C-339.40262508 200.15812598 -316.74717158 166.28430143 -290.3515625 137.64453125 C-289.12620871 136.30143884 -287.90943288 134.94988517 -286.72729492 133.56860352 C-281.9572195 128.00151 -276.86098321 122.78980255 -271.66821289 117.61987305 C-270.22100615 116.17802904 -268.77922974 114.73091009 -267.33789062 113.28320312 C-262.11519465 108.05603011 -256.80561388 103.00270776 -251.15625 98.23828125 C-250.52243408 97.69776123 -249.88861816 97.15724121 -249.2355957 96.6003418 C-227.91553216 78.51585795 -205.03787225 63.19036109 -180.62548828 49.61230469 C-179.08706596 48.75623975 -177.55111909 47.89569172 -176.01904297 47.02832031 C-123.78850094 17.50058559 -60.05218754 0.43364393 0 0 Z M-40.15625 19.23828125 C-41.29191406 19.41520508 -42.42757813 19.59212891 -43.59765625 19.77441406 C-64.69137437 23.09684681 -87.39643776 26.76979029 -107.15625 35.23828125 C-110.43719721 36.59467908 -113.67511891 37.71986071 -117.09375 38.67578125 C-121.71834456 40.00841364 -125.92449061 41.88315024 -130.26953125 43.9375 C-133.19265456 45.25468547 -136.13899875 46.34354791 -139.15625 47.42578125 C-145.94966265 49.97331099 -152.24707409 53.3089563 -158.62109375 56.76049805 C-159.78318359 57.38952026 -159.78318359 57.38952026 -160.96875 58.03125 C-161.65582031 58.40789795 -162.34289062 58.7845459 -163.05078125 59.17260742 C-165.15625 60.23828125 -165.15625 60.23828125 -167.56225586 61.17602539 C-172.89971977 63.36174826 -177.76731921 66.54949121 -182.71875 69.48828125 C-183.61755386 70.0206691 -183.61755386 70.0206691 -184.53451538 70.56381226 C-200.91256845 80.29435553 -216.42387302 91.15593549 -231.15625 103.23828125 C-231.68734375 103.67172852 -232.2184375 104.10517578 -232.765625 104.55175781 C-250.04202758 118.71463396 -267.33413684 134.1884638 -281.18359375 151.765625 C-283.09267523 154.15859248 -285.09134988 156.41691791 -287.15625 158.67578125 C-291.85976845 163.92557448 -296.01961308 169.53827867 -300.15625 175.23828125 C-300.61016113 175.85703125 -301.06407227 176.47578125 -301.53173828 177.11328125 C-349.85154437 243.13342972 -376.25358516 324.00033178 -376.46875 405.73828125 C-376.47136841 406.69593384 -376.47398682 407.65358643 -376.47668457 408.64025879 C-376.48231248 428.04770031 -374.873899 447.03641328 -372.15625 466.23828125 C-371.9907666 467.42373535 -371.8252832 468.60918945 -371.65478516 469.83056641 C-360.85867311 544.96314232 -325.41550447 616.79481503 -273.85546875 672.3203125 C-271.3614926 675.01640539 -268.90999381 677.74450809 -266.46875 680.48828125 C-260.7400932 686.85911844 -254.76648265 692.82508732 -248.265625 698.40625 C-245.97995454 700.39139712 -243.75923622 702.43867955 -241.53125 704.48828125 C-215.28371161 728.10308783 -184.72883237 746.96738261 -153.04150391 762.32226562 C-151.24512188 763.19509978 -149.45632136 764.08348653 -147.66796875 764.97265625 C-96.98236391 789.5543289 -39.96949039 800.37788871 16.09375 800.55078125 C17.33767014 800.55470886 17.33767014 800.55470886 18.60671997 800.55871582 C37.19350196 800.56489736 55.44949269 798.79470785 73.84375 796.23828125 C75.03645508 796.07279785 76.22916016 795.90731445 77.45800781 795.73681641 C152.69013188 784.91847667 224.47472536 749.40670764 280.06640625 697.796875 C282.33305455 695.70875315 284.62707891 693.67821629 286.96875 691.67578125 C293.83335437 685.71028307 300.1761361 679.18820475 306.08203125 672.27734375 C308.03980739 670.01135895 310.06603948 667.81684631 312.09375 665.61328125 C327.6008014 648.37740317 340.86607249 629.04295595 352.84375 609.23828125 C353.33198242 608.43616211 353.82021484 607.63404297 354.32324219 606.80761719 C367.3420942 585.25828468 377.54328415 562.38735623 385.96386719 538.68701172 C386.69857274 536.6423123 387.47336213 534.61207313 388.2578125 532.5859375 C397.74103803 507.83777798 402.09044776 481.08201528 405.59375 454.92578125 C405.70944336 454.06243164 405.82513672 453.19908203 405.94433594 452.30957031 C407.78260289 437.66489648 408.0301764 423.06318676 408.02905273 408.32519531 C408.03123183 405.13983637 408.04943438 401.954829 408.06835938 398.76953125 C408.11629309 381.35552319 407.08944092 364.31670588 403.6171875 347.23046875 C402.90591792 343.69519551 402.37748977 340.14960484 401.86889648 336.58032227 C399.40037595 319.45774998 395.68513616 301.20151561 388.84375 285.23828125 C387.48735217 281.95733404 386.36217054 278.71941234 385.40625 275.30078125 C384.07856109 270.69334191 382.21303125 266.50151183 380.16796875 262.171875 C378.7306262 258.98767367 377.49999399 255.7620151 376.28125 252.48828125 C374.97391837 249.01976701 373.69490659 245.7277502 371.78125 242.55078125 C369.29122641 238.29364415 367.58521902 233.84205839 365.84375 229.23828125 C365.18375 229.23828125 364.52375 229.23828125 363.84375 229.23828125 C363.61042969 228.27019531 363.37710938 227.30210937 363.13671875 226.3046875 C361.77753084 221.58360921 359.53367061 217.45530872 357.15625 213.17578125 C356.68074707 212.31597656 356.20524414 211.45617187 355.71533203 210.5703125 C347.3275069 195.7251722 337.34166285 181.66389888 326.84375 168.23828125 C326.21726562 167.43132812 325.59078125 166.624375 324.9453125 165.79296875 C317.09181991 155.82384142 308.9207841 146.11360348 299.84375 137.23828125 C299.51375 136.57828125 299.18375 135.91828125 298.84375 135.23828125 C298.18375 135.23828125 297.52375 135.23828125 296.84375 135.23828125 C296.84375 134.57828125 296.84375 133.91828125 296.84375 133.23828125 C295.20023543 131.87651203 293.52852344 130.54866059 291.84375 129.23828125 C289.30293132 126.74802613 286.81654263 124.21031106 284.3359375 121.66015625 C279.06566795 116.27976167 273.70699494 111.27050629 267.796875 106.58203125 C265.75517417 104.96163377 263.75320008 103.32765834 261.765625 101.64453125 C244.06966064 86.83039207 224.05572362 74.30674299 203.84375 63.23828125 C203.06 62.8 202.27625 62.36171875 201.46875 61.91015625 C162.60102279 40.23392376 118.66509508 26.11609996 74.71386719 19.66015625 C72.81930377 19.3816767 70.92659128 19.09025981 69.03613281 18.78515625 C33.91213275 13.24366151 -5.07864788 13.46276523 -40.15625 19.23828125 Z " fill="#AA61C7" transform="translate(392.15625,-0.23828125)"/>
<path d="M0 0 C7.92 0 15.84 0 24 0 C24 10.23 24 20.46 24 31 C27.63 31.33 31.26 31.66 35 32 C56.48250096 35.82315695 74.38552247 47.19954736 90 62 C90.84691406 62.7940625 91.69382812 63.588125 92.56640625 64.40625 C107.86225885 79.16499632 107.86225885 79.16499632 108.07421875 85.06640625 C106.41580254 88.05155543 103.99686524 89.27533206 101.125 91.0625 C97.73011513 93.19350604 94.78985014 95.14301443 92 98 C90.189508 99.32349257 88.35193477 100.61014764 86.5 101.875 C85.95045654 102.25140625 85.40091309 102.6278125 84.8347168 103.015625 C83.59692762 103.86296835 82.35817745 104.708909 81.11865234 105.55371094 C78.73808914 107.17879234 76.36302892 108.81174532 73.98828125 110.4453125 C72.2631358 111.63037571 70.5378759 112.81527233 68.8125 114 C67.55566406 114.86407471 67.55566406 114.86407471 66.2734375 115.74560547 C65.48839844 116.28330566 64.70335937 116.82100586 63.89453125 117.375 C62.84036011 118.09816406 62.84036011 118.09816406 61.76489258 118.8359375 C60 120 60 120 58 121 C57.57589844 120.35933594 57.15179688 119.71867187 56.71484375 119.05859375 C48.33585127 106.70188176 38.86854526 99.54741811 25 94 C25 106.54 25 119.08 25 132 C28.3 132.99 31.6 133.98 35 135 C57.01823458 141.88965467 57.01823458 141.88965467 67 147 C67.70898438 147.35465332 68.41796875 147.70930664 69.1484375 148.07470703 C78.34890806 152.68796886 87.21828678 157.16976263 95 164 C96.22589844 164.928125 96.22589844 164.928125 97.4765625 165.875 C107.46840717 174.28918499 114.34496064 188.14758499 116 201 C116.22617786 205.08425016 116.29367026 209.1599345 116.3125 213.25 C116.31805908 214.28012207 116.32361816 215.31024414 116.3293457 216.37158203 C116.27353351 222.27050178 115.69861213 227.35026836 114 233 C113.75121094 233.88945312 113.50242187 234.77890625 113.24609375 235.6953125 C106.66170342 255.48029215 92.08239698 268.90355932 74.08203125 278.56640625 C71.41967419 279.82089946 68.74345004 280.93503205 66 282 C64.45505859 282.62648438 64.45505859 282.62648438 62.87890625 283.265625 C56.05768739 285.88371131 49.25863682 287.77404934 42.125 289.3125 C41.34060547 289.48402588 40.55621094 289.65555176 39.74804688 289.83227539 C38.60819336 290.06418579 38.60819336 290.06418579 37.4453125 290.30078125 C36.78031738 290.43653564 36.11532227 290.57229004 35.43017578 290.7121582 C31.97627019 291.12125552 28.47804894 291 25 291 C25 300.9 25 310.8 25 321 C16.75 321 8.5 321 0 321 C0 311.1 0 301.2 0 291 C-4.29 290.67 -8.58 290.34 -13 290 C-45.37676237 284.1379121 -74.70912083 266.59578993 -93.73828125 239.52734375 C-97 234.46478873 -97 234.46478873 -97 232 C-95.48144531 230.70996094 -95.48144531 230.70996094 -93.328125 229.234375 C-92.12833008 228.40413818 -92.12833008 228.40413818 -90.90429688 227.55712891 C-90.02837891 226.96077637 -89.15246094 226.36442383 -88.25 225.75 C-86.41129514 224.48200745 -84.57275825 223.21377129 -82.734375 221.9453125 C-81.3102832 220.96739746 -81.3102832 220.96739746 -79.85742188 219.96972656 C-76.23736993 217.47429089 -72.64083883 214.94635535 -69.0456543 212.4152832 C-65.76914281 210.1110098 -62.48336677 207.82020261 -59.19580078 205.53173828 C-57.79851312 204.55702372 -56.40340313 203.57917437 -55.01123047 202.59716797 C-53.3266419 201.40944977 -51.63248977 200.23532686 -49.9375 199.0625 C-48.58978516 198.12083984 -48.58978516 198.12083984 -47.21484375 197.16015625 C-46.48394531 196.77730469 -45.75304687 196.39445313 -45 196 C-41.48279764 197.17240079 -40.93593435 198.12197214 -38.8125 201.0625 C-28.21339561 214.9820707 -16.37726633 221.70105141 0 228 C0 214.8 0 201.6 0 188 C-2.31 187.67 -4.62 187.34 -7 187 C-8.6854077 186.54093583 -10.35837123 186.0324707 -12.01171875 185.46875 C-12.92453613 185.15752197 -13.83735352 184.84629395 -14.77783203 184.52563477 C-15.73802246 184.18717529 -16.69821289 183.84871582 -17.6875 183.5 C-18.69409668 183.14542725 -19.70069336 182.79085449 -20.73779297 182.42553711 C-43.98116739 174.0774104 -70.60587959 162.57823317 -82 139 C-89.43058124 120.93160025 -90.98992606 100.45946418 -84 82 C-74.55094568 60.73282011 -56.58241117 45.84802309 -35.41796875 37.21484375 C-31.08098196 35.67335473 -26.72515883 34.52265681 -22.23046875 33.54296875 C-20.04152545 33.2147902 -20.04152545 33.2147902 -19 32 C-17.13489211 31.59697196 -15.25694038 31.25271334 -13.375 30.9375 C-12.35148437 30.76089844 -11.32796875 30.58429688 -10.2734375 30.40234375 C-7 30 -7 30 0 30 C0 20.1 0 10.2 0 0 Z " fill="#CA55C6" transform="translate(397,240)"/>
<path d="M0 0 C2.48134611 0.83858317 4.8577319 1.82362078 7.26171875 2.86328125 C10.13735436 4.05701872 13.03050538 5.00357679 16 5.9375 C20.76668615 7.49172116 25.12823218 9.39984435 29.55078125 11.75390625 C31.42281089 12.70634238 33.34216029 13.56629886 35.27734375 14.3828125 C39.39707826 16.12324103 43.31210375 18.19815125 47.25 20.3125 C47.99652832 20.71130371 48.74305664 21.11010742 49.51220703 21.52099609 C50.99944308 22.31647951 52.48595589 23.11331682 53.97167969 23.91162109 C55.69942433 24.83871373 57.43131756 25.75806819 59.1640625 26.67578125 C69.2543822 32.06988587 78.7026605 38.34672614 88 45 C88.88558594 45.62777344 89.77117187 46.25554687 90.68359375 46.90234375 C112.12523578 62.26125046 132.94204919 80.9916212 149 102 C149.78246094 102.98871094 150.56492187 103.97742188 151.37109375 104.99609375 C162.09106042 118.59564274 171.51632709 132.91093238 180 148 C180.37866211 148.66547852 180.75732422 149.33095703 181.14746094 150.01660156 C188.22441673 162.53170378 193.71169161 175.6460347 199 189 C199.27328125 189.6815918 199.5465625 190.36318359 199.828125 191.06542969 C207.68398181 210.84691357 212.22635264 232.64860846 215.6875 253.625 C215.86671997 254.67929199 215.86671997 254.67929199 216.04956055 255.75488281 C218.27922626 270.03378471 218.18647377 284.5683286 218.18530273 298.98144531 C218.18749679 301.99558493 218.20575304 305.00936176 218.22460938 308.0234375 C218.25788205 319.20689968 217.7400152 329.94727999 216 341 C215.83363037 342.15967285 215.66726074 343.3193457 215.49584961 344.51416016 C212.85998722 362.53206194 208.70279729 379.71722732 203 397 C202.69755371 397.93827637 202.39510742 398.87655273 202.08349609 399.84326172 C191.09137342 433.596544 173.13142241 465.34492807 151 493 C150.29746094 493.89589844 149.59492187 494.79179688 148.87109375 495.71484375 C131.13060926 517.96395966 109.80033226 538.32661047 86 554 C85.41202637 554.39364746 84.82405273 554.78729492 84.21826172 555.19287109 C60.38411197 571.13147928 35.33272529 583.4896272 8.32397461 593.10546875 C5.99427317 593.95716392 5.99427317 593.95716392 3.84375 595.09228516 C0.15367416 596.90898298 -4.00482783 596.51885353 -8 596 C-12.42714091 593.55094332 -14.06156081 590.58631938 -16 586 C-16.52706271 581.44528646 -16.47331578 576.89541717 -16.44604492 572.31494141 C-16.4375483 570.1373798 -16.46630993 567.96245848 -16.49804688 565.78515625 C-16.5803272 551.3415394 -16.5803272 551.3415394 -12 546 C-6.98505966 541.12369212 -1.30740208 538.6429205 5.1875 536.3125 C27.27408424 527.89551405 47.46310223 515.59287696 66 501 C66.89847656 500.29488281 67.79695312 499.58976562 68.72265625 498.86328125 C86.86713856 484.32158823 102.38120594 467.83202908 116 449 C116.4444043 448.38576172 116.88880859 447.77152344 117.34667969 447.13867188 C155.51995342 393.67848376 171.86473023 323.47612965 161.453125 258.68408203 C161.22882813 257.35546143 161.22882813 257.35546143 161 256 C160.86078125 255.17226074 160.7215625 254.34452148 160.578125 253.49169922 C148.74601075 186.12807654 109.69902783 126.88172674 54.34765625 87.37109375 C38.99845759 76.67226738 22.25690804 68.14543848 5 61 C-4.04562725 57.2273646 -10.01078326 53.79125576 -15 45 C-15.38381431 42.1148751 -15.56281114 39.62536122 -15.53125 36.75 C-15.5350769 35.97366211 -15.53890381 35.19732422 -15.54284668 34.39746094 C-15.54555654 32.7636586 -15.53826031 31.1298122 -15.52148438 29.49609375 C-15.50005871 27.00682104 -15.52131466 24.52043382 -15.546875 22.03125 C-15.54423156 20.43749368 -15.53910623 18.84373915 -15.53125 17.25 C-15.53934692 16.51233398 -15.54744385 15.77466797 -15.55578613 15.01464844 C-15.44630976 8.92874171 -13.33751869 5.41812279 -9.1875 1.125 C-5.8694032 -0.58144978 -3.71425412 -0.41935127 0 0 Z " fill="#D257C3" transform="translate(502,110)"/>
<path d="M0 0 C4.26511521 3.69643318 5.59740169 7.06552046 6.09741211 12.5793457 C6.21666207 16.32841054 6.22139219 20.06176396 6.1875 23.8125 C6.19910156 25.08867187 6.21070313 26.36484375 6.22265625 27.6796875 C6.19815371 35.58583887 6.11722918 43.16034477 1.11328125 49.63671875 C-4.21841326 53.6276335 -9.77417915 55.9888791 -16.02001953 58.16210938 C-21.78916751 60.18826765 -26.90574955 62.78498824 -32.22265625 65.82421875 C-35.1875 67.4375 -35.1875 67.4375 -38.69140625 68.9296875 C-57.48081738 77.03327711 -75.35475188 91.88530556 -90.15625 105.75 C-92.1875 107.4375 -92.1875 107.4375 -94.1875 107.4375 C-94.1875 108.0975 -94.1875 108.7575 -94.1875 109.4375 C-95.5859375 110.77734375 -95.5859375 110.77734375 -97.5625 112.375 C-124.33100306 135.29933975 -143.89792477 170.0910414 -156.1875 202.625 C-156.53071289 203.53209717 -156.87392578 204.43919434 -157.22753906 205.3737793 C-163.29137043 221.58155058 -168.13179348 238.08590753 -170.875 255.1875 C-170.99439941 255.93104736 -171.11379883 256.67459473 -171.23681641 257.44067383 C-173.18553446 270.32731225 -173.42880587 283.18152032 -173.4375 296.1875 C-173.43817474 297.09690338 -173.43884949 298.00630676 -173.43954468 298.94326782 C-173.42265894 313.30198207 -172.82967836 327.28940267 -170.1875 341.4375 C-170.0318457 342.31148438 -169.87619141 343.18546875 -169.71582031 344.0859375 C-162.01941442 385.99371252 -142.63361095 426.851481 -115.1875 459.4375 C-114.74825195 459.96553223 -114.30900391 460.49356445 -113.85644531 461.03759766 C-104.70362938 472.02779336 -95.21973636 482.27438424 -83.98046875 491.19921875 C-82.09905644 492.70697994 -80.2474287 494.25258304 -78.42578125 495.83203125 C-58.26005006 513.30166195 -33.15070076 526.63170272 -8.3125 536.125 C-2.53094913 538.45413907 1.50684912 541.84047188 4.87084961 547.08862305 C6.89446832 552.1363896 6.22471036 558.01144302 6.23803711 563.39892578 C6.24989181 565.66680297 6.29905505 567.9319188 6.34960938 570.19921875 C6.49688302 583.31943426 6.49688302 583.31943426 2.18383789 589.08105469 C-0.60161068 591.83625359 -2.19190691 592.437942 -6.12109375 592.83203125 C-12.29112131 592.67899366 -17.59224375 590.41975428 -23.25 588.125 C-24.38397217 587.67495605 -25.51794434 587.22491211 -26.6862793 586.76123047 C-58.87723075 573.8222781 -88.34437234 557.50231162 -115.1875 535.4375 C-115.72584473 535.00211914 -116.26418945 534.56673828 -116.81884766 534.11816406 C-131.94786601 521.84359239 -146.37278779 507.95012411 -158.1875 492.4375 C-159.03345748 491.38949765 -159.8826247 490.34408101 -160.734375 489.30078125 C-201.43055861 439.14662428 -227.80370406 372.08211051 -228.42578125 307.14453125 C-228.44040405 305.85996033 -228.44040405 305.85996033 -228.45532227 304.54943848 C-228.6454446 283.47342737 -227.85173355 263.23059523 -224.1875 242.4375 C-224.00558105 241.3762793 -223.82366211 240.31505859 -223.63623047 239.22167969 C-214.62914926 188.04471601 -191.72441045 138.66370043 -158.25390625 98.90625 C-156.91631724 97.30822306 -155.60902168 95.68413289 -154.33984375 94.03125 C-143.46790346 80.02525138 -130.23938241 67.22293606 -116.1875 56.4375 C-115.06468617 55.51800101 -113.9451217 54.59452564 -112.828125 53.66796875 C-103.38957835 45.88113615 -93.46131373 39.06989845 -83.1875 32.4375 C-82.13175781 31.74527344 -81.07601562 31.05304688 -79.98828125 30.33984375 C-65.45466556 20.9064698 -49.86984813 13.17599758 -33.46875 7.58984375 C-30.2111329 6.44579965 -27.05149653 5.16411532 -23.875 3.8125 C-6.8675108 -3.36642686 -6.8675108 -3.36642686 0 0 Z " fill="#9350D3" transform="translate(325.1875,111.5625)"/>
<path d="M0 0 C14.83018868 4.94339623 14.83018868 4.94339623 19 12 C19.58675736 16.62071418 19.4603613 18.9327988 17.625 23.1875 C12.77323234 28.3858225 6.87814698 30.6243706 0 32 C0 21.44 0 10.88 0 0 Z " fill="#FEFDFE" transform="translate(422,437)"/>
<path d="M0 0 C0 10.56 0 21.12 0 32 C-11.33333333 26.33333333 -11.33333333 26.33333333 -14 22 C-14.4125 21.38125 -14.825 20.7625 -15.25 20.125 C-16.84193354 15.61452162 -16.5187052 12.10224854 -14.5 7.8125 C-11.21479833 4.11664812 -5.25246655 0 0 0 Z " fill="#FEFAFD" transform="translate(397,332)"/>
</svg>
