<svg width="256" height="256" viewBox="0 0 256 256" fill="none" xmlns="http://www.w3.org/2000/svg">
<circle cx="128" cy="128" r="128" fill="#F1E1D4"/>
<mask id="mask0_69_802" style="mask-type:luminance" maskUnits="userSpaceOnUse" x="28" y="28" width="201" height="200">
<path d="M228.054 28H28V228H228.054V28Z" fill="white"/>
</mask>
<g mask="url(#mask0_69_802)">
<path d="M38.8506 152.728C34.3756 148.254 31.3745 143.086 29.8473 137.226C28.3556 131.331 28.3556 125.436 29.8473 119.541C31.3745 113.61 34.3578 108.425 38.7973 103.986C43.3079 99.4757 48.511 96.4748 54.4068 94.9832C60.3025 93.4916 66.1982 93.4916 72.0939 94.9832C77.9896 96.4748 83.175 99.458 87.65 103.933L98.7311 115.013L115.14 98.6056L104.058 87.5253C99.5834 83.0506 96.5822 77.8833 95.055 72.0235C93.5633 66.1282 93.5457 60.2507 95.0019 54.3909C96.4936 48.4956 99.4947 43.2928 104.005 38.7825C108.48 34.3078 113.666 31.3247 119.561 29.8331C125.457 28.3415 131.335 28.3592 137.195 29.8863C143.091 31.3779 148.276 34.3611 152.752 38.8359C157.227 43.3106 160.21 48.4956 161.702 54.3909C163.229 60.2507 163.246 66.1282 161.755 72.0235C160.299 77.9543 157.333 83.1571 152.858 87.6319L141.83 98.6589L158.185 115.013L169.213 103.986C173.688 99.5112 178.856 96.5103 184.716 94.9832C190.612 93.4916 196.49 93.5093 202.35 95.0364C208.246 96.528 213.449 99.529 217.959 104.039C222.434 108.514 225.418 113.699 226.909 119.594C228.437 125.454 228.437 131.313 226.909 137.173C225.418 143.069 222.434 148.254 217.959 152.728C213.449 157.239 208.246 160.239 202.35 161.731C196.49 163.187 190.612 163.169 184.716 161.678C178.891 160.186 173.742 157.203 169.266 152.728L158.239 141.701L141.83 158.109L152.858 169.136C157.333 173.61 160.299 178.778 161.755 184.637C163.246 190.533 163.246 196.428 161.755 202.323C160.263 208.219 157.262 213.421 152.752 217.932C148.312 222.371 143.126 225.354 137.195 226.881C131.3 228.373 125.404 228.373 119.508 226.881C113.683 225.39 108.534 222.406 104.058 217.932C99.5478 213.421 96.5291 208.236 95.0019 202.377C93.5102 196.481 93.5102 190.586 95.0019 184.691C96.5646 178.795 99.5657 173.628 104.005 169.189L115.14 158.055L98.7844 141.701L87.65 152.835C83.2105 157.274 78.0073 160.239 72.0406 161.731C66.1449 163.223 60.2492 163.223 54.3535 161.731C48.4933 160.204 43.3257 157.203 38.8506 152.728ZM52.1692 139.411C54.1936 141.435 56.5377 142.784 59.2014 143.459C61.9007 144.169 64.5822 144.187 67.2459 143.512C69.9096 142.838 72.2537 141.488 74.2781 139.464L85.4125 128.33L74.3314 117.25C72.3069 115.226 69.9451 113.894 67.2459 113.255C64.5822 112.58 61.9185 112.58 59.2547 113.255C56.591 113.93 54.2291 115.297 52.1692 117.357C50.1448 119.381 48.7774 121.707 48.0671 124.335C47.3923 126.999 47.3923 129.662 48.0671 132.326C48.7774 135.025 50.1448 137.386 52.1692 139.411ZM117.377 74.2076L128.458 85.2879L139.486 74.2609C141.546 72.2011 142.896 69.8572 143.535 67.2292C144.21 64.5656 144.192 61.8843 143.482 59.1852C142.807 56.5217 141.457 54.1778 139.433 52.1535C137.408 50.1292 135.064 48.7797 132.401 48.1049C129.737 47.4302 127.073 47.4302 124.409 48.1049C121.781 48.7442 119.437 50.0937 117.377 52.1535C115.353 54.1778 113.968 56.5217 113.222 59.1852C112.547 61.8488 112.547 64.5123 113.222 67.1758C113.968 69.8394 115.353 72.1833 117.377 74.2076ZM168.437 128.384L179.465 139.411C181.489 141.435 183.816 142.802 186.444 143.512C189.108 144.187 194.874 144.169 197.502 143.459C200.166 142.784 202.527 141.417 204.587 139.357C206.647 137.298 207.997 134.954 208.636 132.326C209.347 129.698 209.365 127.052 208.69 124.389C208.015 121.725 206.665 119.381 204.641 117.357C202.581 115.297 200.219 113.93 197.555 113.255C194.891 112.58 189.108 112.58 186.444 113.255C183.851 113.93 181.525 115.297 179.465 117.357L168.437 128.384ZM117.377 204.614C119.402 206.638 121.746 207.988 124.409 208.663C127.073 209.337 129.719 209.319 132.347 208.609C135.011 207.934 137.355 206.585 139.379 204.561C141.439 202.501 142.807 200.139 143.482 197.476C144.192 194.848 144.21 192.202 143.535 189.538C142.896 186.839 141.564 184.478 139.539 182.453L128.512 171.426L117.377 182.56C115.353 184.584 113.985 186.91 113.275 189.538C112.6 192.202 112.6 194.865 113.275 197.529C113.95 200.192 115.317 202.554 117.377 204.614ZM112.103 128.384L128.458 144.738L144.867 128.33L128.512 111.977L112.103 128.384Z" fill="#24201F"/>
</g>
</svg>
