<svg version="1.0" xmlns="http://www.w3.org/2000/svg" width="400.000000pt" height="400.000000pt" viewBox="0 0 400.000000 400.000000" preserveAspectRatio="xMidYMid meet">
  <g transform="translate(0.000000,400.000000) scale(0.100000,-0.100000)" fill="#000000" stroke="none">
    <path d="M0 2000 l0 -2000 2000 0 2000 0 0 2000 0 2000 -2000 0 -2000 0 0
-2000z m2235 1965 c55 -8 130 -19 166 -24 73 -12 372 -108 377 -122 2 -5 10
-9 17 -9 20 0 129 -57 119 -62 -5 -3 -3 -3 4 -2 15 4 45 -11 85 -43 16 -13 35
-23 43 -23 8 0 25 -11 38 -25 13 -14 28 -25 33 -25 5 0 26 -16 47 -35 21 -19
41 -35 44 -35 14 0 130 -107 127 -117 -2 -7 6 -15 18 -19 29 -9 69 -53 61 -66
-5 -7 -1 -9 9 -5 12 4 14 2 10 -10 -4 -10 -2 -14 4 -10 11 7 81 -65 110 -113
9 -17 21 -30 25 -30 4 0 8 -7 8 -15 0 -8 11 -25 24 -36 14 -12 22 -28 19 -35
-3 -8 1 -14 10 -14 9 0 18 -13 22 -30 4 -16 10 -32 15 -35 11 -7 70 -94 70
-103 0 -4 13 -34 30 -67 16 -33 30 -66 30 -73 0 -7 8 -25 18 -39 9 -15 22 -45
28 -68 48 -175 65 -249 61 -266 -3 -10 -2 -17 3 -14 18 11 35 -167 35 -360 0
-200 -19 -400 -36 -373 -5 8 -7 -4 -5 -27 2 -22 0 -48 -5 -57 -5 -10 -21 -61
-34 -114 -14 -54 -31 -104 -38 -113 -8 -9 -17 -29 -21 -46 -9 -38 -58 -149
-68 -153 -4 -2 -4 -11 -1 -19 5 -13 2 -15 -11 -10 -9 4 -15 3 -11 -2 6 -10
-27 -75 -51 -98 -7 -8 -14 -19 -14 -25 0 -6 -11 -26 -25 -44 -14 -18 -25 -35
-25 -38 0 -3 -9 -16 -19 -28 -40 -47 -107 -131 -129 -160 -12 -17 -22 -27 -22
-23 0 4 -11 -4 -25 -19 -14 -15 -25 -32 -25 -38 0 -6 -3 -8 -6 -5 -4 4 -23
-11 -44 -31 -20 -21 -74 -69 -121 -106 -46 -37 -95 -76 -107 -87 -13 -10 -25
-19 -27 -19 -2 0 -39 -21 -82 -46 -83 -50 -266 -135 -332 -156 -23 -7 -41 -17
-41 -21 0 -5 -14 -6 -31 -2 -18 4 -29 3 -26 -2 6 -9 -45 -26 -113 -38 -19 -4
-62 -13 -95 -20 -139 -33 -573 -36 -685 -6 -19 6 -87 22 -150 36 -63 14 -135
35 -160 47 -25 11 -67 28 -95 38 -82 29 -236 108 -300 155 -33 24 -64 44 -68
44 -7 1 -20 10 -52 38 -7 7 -17 13 -21 13 -25 0 -308 275 -319 311 -4 11 -10
19 -15 19 -5 0 -24 21 -41 48 -18 26 -37 49 -41 50 -4 2 -6 8 -2 13 3 5 1 9
-5 9 -5 0 -22 22 -38 50 -15 27 -31 50 -35 50 -5 0 -8 5 -8 10 0 6 -11 28 -25
50 -14 22 -25 47 -25 55 0 9 -4 13 -10 10 -5 -3 -10 1 -10 9 0 14 -20 62 -71
171 -27 57 -82 262 -83 311 0 23 -3 40 -6 37 -11 -11 -29 134 -35 282 -6 149
0 239 30 420 4 27 28 134 39 175 2 8 9 35 16 60 18 67 76 204 133 310 27 52
56 107 64 121 7 15 20 32 28 39 8 7 15 19 15 26 0 8 4 14 9 14 5 0 19 16 32
36 12 20 38 55 58 79 20 23 50 59 66 79 45 57 175 181 186 179 5 -2 9 3 9 11
0 8 18 25 40 37 22 13 40 26 40 31 0 4 5 8 10 8 5 0 19 8 29 18 36 32 50 42
60 42 6 0 14 6 18 13 14 23 266 157 295 157 10 0 18 4 18 8 0 4 26 16 58 27
31 10 64 23 72 27 40 21 219 60 375 83 122 17 358 17 480 0z"/>
    <path d="M1850 3439 c-226 -26 -460 -113 -647 -241 -102 -70 -259 -222 -339
-328 -68 -90 -168 -281 -204 -390 -61 -183 -87 -449 -61 -632 86 -604 526
-1073 1131 -1204 120 -26 419 -27 539 -1 327 71 585 220 801 465 81 92 129
163 187 277 60 118 93 207 93 251 0 49 -53 104 -102 104 -63 0 -92 -29 -131
-131 -180 -463 -624 -769 -1116 -769 -325 0 -620 127 -851 366 -227 235 -340
509 -340 822 0 327 118 610 350 843 417 417 1039 473 1527 137 189 -130 359
-353 438 -573 10 -27 26 -58 34 -69 66 -79 191 -31 191 73 0 33 -43 147 -89
240 -132 260 -386 506 -652 630 -241 113 -508 158 -759 130z"/>
    <path d="M1795 2871 c-127 -33 -221 -78 -326 -157 -101 -77 -216 -219 -233
-286 -17 -70 50 -135 128 -125 44 6 50 11 130 122 78 107 198 186 342 226 99
27 255 23 354 -9 204 -67 370 -243 426 -452 25 -94 22 -245 -6 -335 -54 -171
-176 -317 -330 -392 -110 -53 -173 -68 -290 -67 -208 1 -412 109 -523 277 -51
76 -72 92 -122 92 -79 0 -131 -78 -100 -151 21 -51 79 -127 152 -197 280 -272
700 -323 1033 -127 72 42 92 59 173 138 115 112 186 234 229 396 31 113 30
306 -1 421 -84 312 -327 551 -634 625 -108 26 -301 26 -402 1z"/>
    <path d="M1945 2291 c-122 -32 -204 -133 -205 -252 0 -109 49 -191 144 -239
177 -90 381 36 379 234 0 33 -7 77 -16 97 -21 52 -85 119 -132 140 -48 21
-129 31 -170 20z"/>
    <path d="M1185 2176 c-56 -25 -95 -85 -95 -144 0 -15 9 -45 19 -68 52 -114
220 -116 279 -3 54 102 -10 217 -125 226 -28 2 -61 -2 -78 -11z"/>
    <path d="M3229 2169 c-54 -32 -83 -89 -77 -151 9 -84 69 -140 153 -140 118 0
190 120 139 228 -36 76 -142 107 -215 63z"/>
  </g>
</svg>