<svg xmlns="http://www.w3.org/2000/svg" xmlns:xlink="http://www.w3.org/1999/xlink" width="1024" zoomAndPan="magnify" viewBox="0 0 768 767.999994" height="1024" preserveAspectRatio="xMidYMid meet" version="1.0"><rect x="-76.8" width="921.6" fill="#ffffff" y="-76.799999" height="921.599993" fill-opacity="1"/><rect x="-76.8" width="921.6" fill="#ffffff" y="-76.799999" height="921.599993" fill-opacity="1"/><path fill="#000000" d="M 0 384 L 0 768 L 768 768 L 768 0 L 0 0 Z M 480.382812 114.046875 C 493.441406 118.65625 505.535156 123.070312 507.457031 123.839844 C 510.527344 125.183594 510.71875 131.136719 510.71875 211.390625 C 510.71875 267.648438 510.144531 297.601562 508.800781 297.601562 C 507.839844 297.601562 506.878906 295.488281 506.878906 292.800781 C 506.878906 285.3125 501.695312 276.863281 495.359375 273.601562 C 490.753906 271.296875 480.769531 270.71875 439.871094 270.71875 C 412.414062 270.71875 389.566406 271.488281 388.992188 272.257812 C 388.609375 273.023438 387.457031 352.320312 386.496094 448.320312 C 385.726562 544.511719 384.574219 613.054688 383.808594 600.960938 C 383.230469 588.863281 382.078125 511.488281 381.3125 429.121094 C 380.542969 346.753906 379.390625 277.441406 378.816406 274.945312 L 377.855469 270.527344 L 326.207031 271.105469 L 274.558594 271.679688 L 269.566406 276.863281 C 266.6875 279.742188 263.808594 285.121094 263.230469 289.152344 C 262.65625 292.992188 260.929688 296.640625 259.585938 297.214844 C 257.855469 297.792969 257.28125 283.96875 257.28125 233.28125 L 257.28125 168.574219 L 263.039062 173.566406 C 268.992188 178.367188 277.054688 181.441406 290.304688 183.550781 C 298.945312 185.089844 298.175781 188.160156 289.34375 188.160156 C 274.367188 188.160156 268.800781 198.71875 268.800781 227.519531 L 268.800781 247.679688 L 378.238281 247.679688 L 378.238281 173.183594 L 372.289062 168.191406 C 368.832031 165.3125 364.03125 163.199219 360.769531 163.199219 C 357.695312 163.199219 355.199219 162.238281 355.199219 161.28125 C 355.199219 160.128906 366.144531 159.359375 384 159.359375 C 411.648438 159.359375 421.054688 161.472656 405.3125 163.96875 C 400.320312 164.734375 396.289062 166.847656 393.792969 170.113281 C 389.953125 174.910156 389.761719 177.792969 389.761719 211.390625 L 389.761719 247.679688 L 499.199219 247.679688 L 499.199219 202.945312 C 499.199219 150.71875 497.664062 142.847656 485.566406 129.601562 C 481.34375 124.992188 472.320312 118.464844 465.601562 114.816406 C 454.273438 109.054688 450.238281 105.601562 454.847656 105.601562 C 455.808594 105.601562 467.328125 109.441406 480.382812 114.046875 Z M 91.777344 372.289062 C 91.777344 372.863281 91.777344 376.703125 91.96875 380.542969 C 92.160156 387.457031 92.542969 387.839844 98.496094 388.222656 L 104.640625 388.414062 L 98.304688 389.183594 C 92.160156 389.953125 91.96875 390.335938 92.542969 398.015625 C 93.121094 405.3125 93.695312 406.273438 98.878906 407.230469 C 103.105469 408.191406 101.953125 408.382812 95.039062 408.191406 L 85.441406 408 L 85.441406 388.609375 C 85.441406 371.328125 85.824219 369.40625 88.703125 370.175781 C 90.625 370.558594 91.96875 371.519531 91.777344 372.289062 Z M 103.679688 370.558594 C 103.679688 371.519531 102.335938 372.480469 100.609375 372.480469 C 99.070312 372.480469 98.304688 371.519531 98.878906 370.558594 C 99.457031 369.40625 100.800781 368.640625 101.953125 368.640625 C 102.910156 368.640625 103.679688 369.40625 103.679688 370.558594 Z M 263.039062 372.480469 C 270.335938 376.320312 272.449219 380.351562 272.640625 389.566406 C 272.640625 396.480469 271.679688 398.976562 266.6875 403.585938 C 261.3125 408.769531 259.96875 409.152344 249.023438 408.574219 L 237.121094 408 L 237.121094 369.40625 L 247.679688 369.792969 C 253.632812 369.792969 260.542969 371.136719 263.039062 372.480469 Z M 349.441406 384.960938 C 352.703125 393.40625 356.734375 402.433594 358.464844 404.734375 C 360.960938 408.960938 360.960938 409.152344 357.886719 408.574219 C 356.160156 408.382812 354.046875 406.65625 353.089844 405.121094 C 350.785156 400.894531 346.175781 389.566406 344.0625 383.039062 C 343.105469 379.777344 341.183594 377.472656 340.03125 377.664062 C 338.878906 378.046875 337.921875 377.664062 337.921875 377.089844 C 337.921875 375.359375 341.953125 368.257812 342.71875 369.023438 C 343.105469 369.214844 345.984375 376.511719 349.441406 384.960938 Z M 431.425781 370.175781 C 436.222656 370.945312 438.144531 378.046875 435.070312 384.191406 C 432.191406 389.761719 432.382812 390.527344 436.992188 396.480469 C 439.488281 399.9375 444.480469 404.160156 447.9375 405.886719 L 454.078125 408.960938 L 448.511719 408.960938 C 444.289062 408.960938 441.023438 406.847656 435.070312 400.320312 C 430.65625 395.519531 425.472656 391.679688 423.550781 391.679688 C 420.671875 391.679688 420.289062 393.023438 420.863281 400.320312 C 421.441406 408 421.054688 408.960938 417.601562 408.960938 C 413.953125 408.960938 413.761719 408 414.335938 390.527344 C 414.71875 377.472656 414.335938 371.519531 412.609375 370.558594 C 410.6875 369.214844 422.59375 369.214844 431.425781 370.175781 Z M 505.535156 385.152344 C 505.152344 403.390625 506.878906 406.078125 518.59375 406.078125 C 522.625 406.078125 524.929688 406.65625 523.582031 407.425781 C 519.742188 409.921875 509.761719 409.152344 505.726562 406.273438 C 502.65625 403.96875 501.886719 400.511719 501.121094 386.304688 C 500.351562 371.710938 500.542969 369.023438 503.039062 369.214844 C 505.34375 369.40625 505.921875 372.289062 505.535156 385.152344 Z M 534.144531 389.953125 C 534.527344 404.160156 534.144531 408.960938 532.414062 408.960938 C 531.070312 408.960938 529.921875 408.382812 529.921875 407.425781 C 528.769531 385.34375 529.34375 369.214844 531.265625 369.984375 C 532.800781 370.558594 533.761719 377.472656 534.144531 389.953125 Z M 616.320312 391.296875 L 626.878906 401.855469 L 627.457031 396.097656 C 627.839844 393.023438 627.265625 385.921875 626.304688 379.96875 C 624.960938 370.945312 625.152344 369.40625 627.648438 369.40625 C 630.335938 369.40625 630.71875 372.289062 630.144531 388.222656 C 629.761719 398.59375 628.992188 407.039062 628.222656 407.039062 C 627.457031 407.039062 620.542969 400.703125 612.863281 393.023438 L 598.847656 379.199219 L 599.425781 393.984375 C 600 406.847656 599.617188 408.574219 596.734375 408.382812 C 595.007812 408.191406 593.855469 407.617188 594.238281 406.847656 C 594.816406 406.273438 595.199219 397.054688 595.390625 386.6875 L 595.582031 367.679688 L 600.769531 374.207031 C 603.457031 377.855469 610.558594 385.535156 616.320312 391.296875 Z M 695.230469 370.558594 C 696.382812 370.558594 696.960938 371.710938 696.769531 372.863281 C 696.574219 374.207031 696.574219 378.238281 696.769531 381.503906 C 696.960938 387.265625 697.535156 387.839844 703.296875 388.222656 L 709.441406 388.414062 L 703.105469 389.183594 C 696.960938 389.953125 696.769531 390.335938 697.34375 398.015625 C 697.921875 405.121094 698.496094 406.273438 703.679688 407.230469 C 708.097656 408.191406 707.328125 408.574219 700.414062 408.191406 L 691.199219 408 L 691.390625 389.953125 C 691.390625 377.089844 690.816406 371.519531 688.894531 370.175781 C 687.167969 368.832031 687.359375 368.640625 689.855469 369.40625 C 691.777344 369.984375 694.273438 370.558594 695.230469 370.558594 Z M 710.398438 371.328125 C 710.398438 373.054688 709.054688 373.632812 706.558594 373.054688 C 704.449219 372.480469 703.296875 371.328125 703.871094 370.367188 C 705.40625 367.679688 710.398438 368.449219 710.398438 371.328125 Z M 168.960938 387.839844 C 168.960938 404.542969 169.152344 405.121094 173.566406 406.273438 C 176.257812 406.847656 179.328125 406.847656 180.289062 406.078125 C 181.441406 405.503906 182.398438 405.886719 182.398438 406.847656 C 182.398438 408.191406 178.753906 408.769531 173.375 408.382812 L 164.160156 408 L 164.734375 389.183594 C 165.121094 379.007812 166.273438 370.558594 167.230469 370.558594 C 168.191406 370.558594 168.960938 378.238281 168.960938 387.839844 Z M 337.921875 384 C 336.769531 386.113281 336.382812 388.609375 336.960938 389.566406 C 337.535156 390.527344 336.960938 391.679688 335.617188 392.0625 C 333.503906 392.832031 332.542969 395.902344 331.585938 404.160156 C 331.390625 406.464844 329.855469 408.191406 328.320312 408.191406 C 325.824219 408.191406 326.398438 405.503906 331.007812 394.175781 C 334.273438 386.496094 337.535156 380.160156 338.304688 380.160156 C 339.265625 380.160156 339.070312 381.886719 337.921875 384 Z M 337.921875 384 " fill-opacity="1" fill-rule="nonzero"/><path fill="#000000" d="M 244.609375 373.054688 C 244.03125 374.59375 243.839844 382.464844 244.222656 390.910156 L 244.800781 406.078125 L 252.863281 406.65625 C 263.230469 407.425781 268.800781 402.046875 268.800781 390.71875 C 268.800781 380.734375 264.769531 374.976562 255.742188 372.480469 C 246.527344 369.984375 245.761719 369.984375 244.609375 373.054688 Z M 244.609375 373.054688 " fill-opacity="1" fill-rule="nonzero"/><path fill="#000000" d="M 420.480469 380.160156 C 420.480469 389.183594 420.863281 389.761719 425.28125 389.761719 C 434.304688 389.761719 435.839844 375.167969 427.007812 371.710938 C 421.246094 369.601562 420.480469 370.558594 420.480469 380.160156 Z M 420.480469 380.160156 " fill-opacity="1" fill-rule="nonzero"/></svg>