<svg xmlns="http://www.w3.org/2000/svg" width="48" height="48" viewBox="0 0 48 48" fill="none">
<g clip-path="url(#clip0_13076_15310)">
<path d="M23.9937 47.9874C37.245 47.9874 47.9874 37.245 47.9874 23.9937C47.9874 10.7423 37.245 0 23.9937 0C10.7423 0 0 10.7423 0 23.9937C0 37.245 10.7423 47.9874 23.9937 47.9874Z" fill="url(#paint0_radial_13076_15310)"/>
<g clip-path="url(#clip1_13076_15310)">
<path d="M23.3512 35.1304C23.3548 33.3972 23.344 31.6639 23.3135 29.9316C23.2867 28.3542 23.2625 26.7768 23.2418 25.1995C23.2114 22.8223 23.1827 20.4451 23.1603 18.0679C23.1585 17.9075 23.1074 17.871 22.956 17.8719C21.3305 17.8773 19.7049 17.8924 18.0803 17.8675C17.4378 17.8577 16.8643 18.3351 16.8428 18.9933C16.8401 19.0743 16.8248 19.1554 16.8222 19.2364C16.8195 19.3041 16.7827 19.3255 16.7236 19.3273C16.6519 19.3291 16.6393 19.2818 16.6385 19.2248C16.6376 19.1874 16.6393 19.1509 16.6393 19.1135C16.6376 16.9287 16.6358 14.743 16.634 12.5582C16.634 12.5306 16.625 12.4976 16.6725 12.4843C17.1564 13.0062 17.798 13.1585 18.4764 13.2297C18.5552 13.2378 18.6861 13.1843 18.6905 13.3179C18.695 13.4595 18.5615 13.4114 18.4844 13.4097C17.6752 13.3829 17.1976 13.9797 17.2227 14.6762C17.2433 15.2605 17.2344 15.8465 17.2272 16.4317C17.2254 16.5796 17.2559 16.6428 17.419 16.6419C19.2757 16.6374 21.1315 16.6383 22.9883 16.6419C23.1316 16.6419 23.1621 16.5849 23.1612 16.4558C23.1567 15.3522 23.1549 14.2487 23.1576 13.1442C23.1585 12.5252 22.7293 12.1164 22.1226 12.12C22.0706 12.12 22.0178 12.1191 21.9667 12.1137C21.9228 12.1093 21.9058 12.0772 21.9049 12.0371C21.904 11.9944 21.9255 11.965 21.9676 11.9596C22.0115 11.9543 22.0572 11.9561 22.102 11.9561C22.982 11.9561 23.862 11.9561 24.741 11.9561C24.7563 11.9561 24.7706 11.9543 24.7858 11.9561C24.8548 11.9632 24.9633 11.9347 24.957 12.0407C24.9516 12.136 24.8468 12.1155 24.7751 12.1182C24.6344 12.1235 24.4982 12.1387 24.3593 12.1796C23.9507 12.299 23.7248 12.5911 23.7159 12.9777C23.6872 14.1552 23.7024 15.3326 23.698 16.511C23.698 16.6125 23.7419 16.641 23.8315 16.6383C23.8763 16.6366 23.9211 16.6383 23.9659 16.6383C25.7778 16.6383 27.5897 16.6357 29.4008 16.6428C29.5845 16.6437 29.6391 16.6009 29.6373 16.4121C29.6275 15.101 29.6266 13.79 29.6311 12.4789C29.6338 11.7655 29.5146 11.0912 29.0773 10.499C28.6794 9.96009 28.1274 9.63233 27.5315 9.36335C27.4114 9.30901 27.2985 9.24578 27.1919 9.17096C27.1516 9.14246 27.0942 9.10505 27.1229 9.04627C27.1569 8.97501 27.225 9.00351 27.2788 9.02222C27.6202 9.14335 27.9598 9.26893 28.3013 9.39096C28.7726 9.56018 29.244 9.72674 29.7162 9.89508C29.8345 9.93694 29.9519 9.98236 30.0711 10.0224C30.1947 10.0634 30.2422 10.1436 30.2395 10.2736C30.2324 10.5773 30.235 10.881 30.235 11.1848C30.235 13.8149 30.235 16.4442 30.235 19.0743C30.235 19.1037 30.235 19.134 30.2359 19.1634C30.2377 19.2329 30.2386 19.305 30.141 19.305C30.0442 19.305 30.0442 19.2302 30.046 19.1625C30.0504 18.9229 30.0218 18.686 29.8963 18.4794C29.6517 18.0786 29.2941 17.8737 28.812 17.8755C27.3505 17.8799 25.8898 17.8764 24.4283 17.8755C24.2419 17.8755 24.0546 17.8871 23.8691 17.8719C23.698 17.8577 23.7024 17.9485 23.7015 18.0714C23.6693 20.7817 23.6325 23.492 23.5985 26.2032C23.5546 29.7285 23.4838 33.2538 23.4757 36.7791C23.4757 36.853 23.4793 36.9269 23.4811 37.0008C23.3503 36.9813 23.4049 36.877 23.3987 36.8094C23.3539 36.3239 23.3816 35.8376 23.3736 35.3513C23.3655 35.2765 23.3798 35.2017 23.3512 35.1304Z" fill="#FEFEFE"/>
<path d="M26.9329 24.4529C26.5996 24.5214 26.3576 24.427 26.1641 24.1972C26.0126 24.0182 25.845 23.8499 25.7124 23.6584C25.5977 23.4918 25.4427 23.5355 25.2939 23.5301C25.2447 23.5283 25.2115 23.5684 25.2169 23.6201C25.2456 23.8953 25.1972 24.1803 25.3271 24.452C25.1828 24.452 25.0377 24.452 24.8997 24.452C25.0278 23.7653 24.9678 23.0786 24.9247 22.3794C25.1613 22.399 25.423 22.3161 25.69 22.3776C26.1246 22.4773 26.2886 22.9067 25.9804 23.2273C25.7985 23.417 25.8406 23.5114 25.9956 23.6735C26.2734 23.963 26.5225 24.2801 26.9329 24.4529Z" fill="#F2F2F2"/>
<path d="M34.9736 24.4654C34.8123 24.4574 34.6913 24.4191 34.5327 24.4681C34.6618 24.3158 34.6689 24.1706 34.6698 24.0219C34.6707 23.5338 34.6716 23.0448 34.6815 22.5567C34.6824 22.5033 34.642 22.4133 34.7325 22.3893C34.8132 22.3679 34.8168 22.4588 34.8508 22.4997C35.3123 23.0528 35.8043 23.5765 36.3724 24.1145C36.3473 23.5017 36.4011 22.9406 36.2658 22.3795C36.3545 22.375 36.4638 22.3697 36.574 22.3652C36.4208 23.0689 36.5624 23.7769 36.4826 24.4904C36.4065 24.5064 36.3652 24.4307 36.3133 24.3773C35.8679 23.9141 35.4243 23.4501 34.9772 22.9896C34.9467 22.9575 34.9279 22.8827 34.8589 22.9174C34.8051 22.9442 34.841 22.9976 34.8419 23.0377C34.8481 23.4082 34.8598 23.7787 34.8652 24.1484C34.867 24.2535 34.893 24.3496 34.9736 24.4654Z" fill="#E7E7E7"/>
<path d="M22.0501 24.4585C21.6334 24.4736 21.6101 24.4567 21.5007 24.1138C21.4577 23.9811 21.4111 23.8492 21.3645 23.7183C21.3377 23.6444 21.2946 23.5918 21.2032 23.5936C21.0473 23.5972 20.8905 23.599 20.7346 23.5927C20.6423 23.5892 20.5975 23.6328 20.5733 23.7112C20.5312 23.8519 20.4657 23.99 20.4532 24.1325C20.4317 24.3747 20.291 24.446 20.0652 24.4513C20.4702 23.7735 20.6297 22.9924 21.05 22.2656C21.2158 22.6931 21.361 23.0681 21.5061 23.4422C21.6065 23.7014 21.7095 23.9606 21.809 24.2198C21.8466 24.3213 21.9327 24.3756 22.0501 24.4585Z" fill="#F0F0F0"/>
<path d="M7.22847 24.3276C7.31091 23.6738 7.267 22.5899 7.11914 22.3529C7.47669 22.3529 7.80466 22.3556 8.13174 22.3521C8.24554 22.3512 8.21866 22.4251 8.21418 22.4865C8.2088 22.564 8.17386 22.5756 8.1183 22.5195C8.11382 22.5151 8.10486 22.5124 8.09769 22.5124C7.91936 22.5088 7.71684 22.4518 7.56899 22.5168C7.38887 22.597 7.51343 22.8161 7.50805 22.9711C7.4964 23.3158 7.50895 23.306 7.85843 23.3202C7.957 23.3238 8.15056 23.216 8.14966 23.3852C8.14876 23.5482 7.95879 23.436 7.86201 23.4405C7.50447 23.4547 7.50447 23.444 7.50447 23.8092C7.50447 23.8537 7.50447 23.8983 7.50357 23.9419C7.50178 24.2643 7.54748 24.3151 7.8638 24.3418C7.86739 24.3997 7.82706 24.4202 7.78136 24.4229C7.62723 24.4336 7.4731 24.4344 7.31987 24.4229C7.26431 24.4184 7.2195 24.3961 7.22847 24.3276Z" fill="#F0F0F0"/>
<path d="M39.8439 24.329C39.8744 23.7599 39.8592 23.1907 39.8538 22.6207C39.8529 22.5236 39.7991 22.4604 39.7292 22.3633C40.0778 22.3633 40.3968 22.366 40.7159 22.3606C40.7642 22.3597 40.81 22.3499 40.8207 22.4043C40.8288 22.4443 40.827 22.4978 40.8064 22.5307C40.7768 22.5788 40.7472 22.5165 40.715 22.512C40.7078 22.5111 40.7006 22.5058 40.6935 22.5058C40.5223 22.504 40.3252 22.4479 40.1872 22.5138C40.0106 22.5975 40.1316 22.8149 40.1253 22.9698C40.1119 23.3127 40.1235 23.3038 40.4739 23.3172C40.5761 23.3216 40.7768 23.2076 40.7732 23.3947C40.7705 23.5318 40.577 23.4348 40.4739 23.4383C40.1217 23.4499 40.1208 23.441 40.1208 23.7839C40.1208 23.8356 40.1208 23.8872 40.12 23.9389C40.1191 24.2675 40.1558 24.3085 40.4802 24.3388C40.4838 24.3967 40.4434 24.4172 40.3986 24.4198C40.2454 24.4305 40.0922 24.4305 39.9389 24.4207C39.8816 24.419 39.8359 24.3976 39.8439 24.329Z" fill="#EEEEEE"/>
<path d="M16.6948 24.3934C16.4314 24.5457 16.1473 24.4851 15.8695 24.4691C15.6912 24.4584 15.5183 24.3408 15.3328 24.4744C15.4708 24.2135 15.4959 22.686 15.3641 22.3813C15.5066 22.3813 15.6446 22.3813 15.7835 22.3813C15.96 22.4348 16.1446 22.3938 16.3239 22.4277C16.4126 22.4446 16.504 22.441 16.5058 22.5657C16.3642 22.6494 16.2163 22.5871 16.072 22.5826C15.8211 22.5737 15.779 22.604 15.7763 22.8454C15.7719 23.2061 15.771 23.5668 15.7763 23.9276C15.7799 24.1903 15.8498 24.2598 16.1142 24.2963C16.2835 24.3203 16.4547 24.2722 16.6241 24.3088C16.6608 24.3257 16.6859 24.3524 16.6948 24.3934Z" fill="#E7E7E7"/>
<path d="M30.9654 24.234C30.9986 24.266 30.9995 24.3008 30.96 24.3239C30.6554 24.5039 30.3247 24.5315 29.9949 24.4299C29.7163 24.3435 29.5962 24.1075 29.5783 23.8332C29.5478 23.3691 29.6051 22.9015 29.5505 22.4375C29.5415 22.3627 29.5863 22.3698 29.6266 22.3698C29.7073 22.3698 29.7888 22.3769 29.8704 22.3814C29.7404 22.9087 29.7207 23.4377 29.8372 23.965C29.8847 24.1779 30.1079 24.3231 30.3641 24.3355C30.5729 24.3462 30.779 24.3311 30.9699 24.2349L30.9654 24.234Z" fill="#E8E8E8"/>
<path d="M11.3542 24.4711C11.4949 24.0907 11.5406 22.8215 11.434 22.3887C11.5388 22.3887 11.641 22.3887 11.7449 22.3887C11.6428 22.8723 11.6957 23.3631 11.6957 23.8512C11.6957 24.3357 11.8919 24.4586 12.3633 24.2947C12.3812 24.2885 12.3991 24.2822 12.4314 24.2715C12.4439 24.406 12.383 24.4639 12.2683 24.4622C12.1195 24.4604 11.9708 24.4515 11.8229 24.4381C11.6697 24.4256 11.5155 24.3971 11.3542 24.4711Z" fill="#EFEFEF"/>
<path d="M16.4996 22.5559C16.3616 22.4187 16.1743 22.4659 16.0094 22.4294C15.9342 22.4125 15.8472 22.4517 15.7827 22.3804C16.0811 22.3332 16.3777 22.3644 16.6618 22.4499C17.195 22.6102 17.4307 23.0965 17.2828 23.7093C17.2048 24.0326 17.0265 24.2802 16.6941 24.3933C16.6734 24.3755 16.6528 24.3577 16.6331 24.3399C16.7003 24.16 16.876 24.0558 16.9441 23.867C17.1009 23.4377 17.0005 23.0066 16.6439 22.7153C16.5883 22.6699 16.5184 22.6352 16.4996 22.5559Z" fill="#ECECEC"/>
<path d="M30.9691 24.2356C31.0677 24.2152 31.1232 24.1662 31.1223 24.0539C31.1196 23.565 31.1232 23.076 31.125 22.5879C31.125 22.5184 31.1223 22.449 31.0686 22.383C31.1761 22.4392 31.332 22.2753 31.3903 22.473C31.3132 22.6707 31.3311 22.8774 31.3311 23.0822C31.3302 23.4848 31.2173 23.882 31.2729 24.2873C31.289 24.4031 31.2397 24.4405 31.1313 24.3844C31.1465 24.2597 31.0569 24.2481 30.9673 24.2348C30.9655 24.2339 30.9691 24.2356 30.9691 24.2356Z" fill="#FAFAFA"/>
<path d="M31.1304 24.3846C31.1626 24.3775 31.2307 24.3873 31.2146 24.3463C31.0632 23.9428 31.3024 23.5634 31.2845 23.1671C31.2773 23.0183 31.2953 22.8607 31.3042 22.7075C31.3087 22.6211 31.2935 22.5276 31.3902 22.4741C31.3302 23.045 31.2917 23.6169 31.3831 24.1887C31.3992 24.2884 31.4126 24.3846 31.4951 24.4648C31.3741 24.4051 31.2182 24.5574 31.1304 24.3846Z" fill="#DDDDDD"/>
<path d="M39.8439 24.3291C40.0536 24.4208 40.2651 24.4182 40.4783 24.3416C40.6576 24.3086 40.8744 24.3906 40.9963 24.167C41.016 24.3754 40.9416 24.4778 40.7239 24.4761C40.3852 24.4734 40.0473 24.436 39.6934 24.4761C39.7319 24.387 39.7776 24.346 39.8439 24.3291Z" fill="#BABABA"/>
<path d="M7.22861 24.3273C7.4383 24.4262 7.65068 24.4119 7.86485 24.3416C8.04228 24.3086 8.25734 24.3914 8.37652 24.1821C8.37294 24.436 8.3371 24.4671 8.07991 24.4752C7.7851 24.485 7.49028 24.4262 7.19546 24.4752C7.08165 24.4324 7.18919 24.3843 7.19187 24.3389C7.20173 24.3282 7.21338 24.3246 7.22861 24.3273Z" fill="#B9B9B9"/>
<path d="M7.19087 24.3389C7.19894 24.3843 7.14786 24.4306 7.19445 24.4751C7.1371 24.5393 7.07258 24.5268 7 24.5045C7.02419 24.3914 7.12635 24.387 7.19087 24.3389Z" fill="#545454"/>
<path d="M25.199 22.9235C25.199 22.8425 25.199 22.7614 25.199 22.6804C25.1981 22.4426 25.2599 22.4007 25.4947 22.4639C25.9499 22.5869 26.0135 22.9832 25.7868 23.327C25.6694 23.5051 25.483 23.4553 25.3209 23.4348C25.1613 23.4143 25.2124 23.27 25.2079 23.1676C25.2044 23.0865 25.207 23.0055 25.207 22.9244C25.2053 22.9235 25.2026 22.9235 25.199 22.9235Z" fill="#1F1F1F"/>
<path d="M20.9173 22.6665C21.1028 22.9257 21.1369 23.1786 21.2354 23.4031C21.2498 23.436 21.2462 23.4868 21.2005 23.493C21.0383 23.5144 20.8725 23.5224 20.713 23.4841C20.644 23.4681 20.6933 23.396 20.7049 23.3505C20.7614 23.1386 20.8797 22.9471 20.9173 22.6665Z" fill="#1C1C1C"/>
<path d="M16.4996 22.5559C17.2425 22.9309 17.3123 23.8581 16.634 24.3399C16.392 24.4103 16.1528 24.4067 15.9099 24.3355C15.7764 24.2963 15.7101 24.2197 15.7092 24.0843C15.7047 23.6033 15.7038 23.1215 15.6949 22.6405C15.6931 22.5328 15.7343 22.5007 15.8365 22.4971C16.0596 22.4891 16.2809 22.5043 16.4996 22.5559Z" fill="#171717"/>
</g>
</g>
<defs>
<radialGradient id="paint0_radial_13076_15310" cx="0" cy="0" r="1" gradientUnits="userSpaceOnUse" gradientTransform="translate(24 24) rotate(108.435) scale(22.1359)">
<stop stop-color="#131313"/>
<stop offset="1" stop-color="#313131"/>
</radialGradient>
<clipPath id="clip0_13076_15310">
<rect width="48" height="48" fill="white"/>
</clipPath>
<clipPath id="clip1_13076_15310">
<rect width="34" height="28" fill="white" transform="translate(7 9)"/>
</clipPath>
</defs>
</svg>