<?xml version="1.0" encoding="UTF-8"?>
<svg version="1.1" xmlns="http://www.w3.org/2000/svg" width="500" height="500">
<path d="M0 0 C165 0 330 0 500 0 C500 165 500 330 500 500 C335 500 170 500 0 500 C0 335 0 170 0 0 Z " fill="#010101" transform="translate(0,0)"/>
<path d="M0 0 C165 0 330 0 500 0 C500 165 500 330 500 500 C335 500 170 500 0 500 C0 335 0 170 0 0 Z M202 23 C200.74018311 23.28254639 199.48036621 23.56509277 198.18237305 23.85620117 C195.08182076 24.59770281 192.00969744 25.39919464 188.9375 26.25 C187.31074341 26.6982312 187.31074341 26.6982312 185.65112305 27.15551758 C162.32504335 33.75343164 139.61752139 43.58712714 120 58 C119.1030542 58.6487207 119.1030542 58.6487207 118.18798828 59.31054688 C100.17524527 72.36027572 83.84302039 86.49114273 70 104 C69.34515625 104.78761719 68.6903125 105.57523437 68.015625 106.38671875 C34.59777697 146.82231486 18.22183385 198.79639597 18.5625 250.8125 C18.56587372 251.81880463 18.56924744 252.82510925 18.57272339 253.86190796 C18.6457355 268.92255967 19.23403819 283.34469937 23 298 C23.39396973 299.55750977 23.39396973 299.55750977 23.79589844 301.14648438 C25.68835251 308.48651815 27.79237918 315.74937806 30 323 C30.22300781 323.75667969 30.44601563 324.51335937 30.67578125 325.29296875 C33.45977528 334.72262595 37.32815463 343.26081774 41.90429688 351.91894531 C43.0315249 354.05987483 44.13438017 356.21215414 45.234375 358.3671875 C49.65177432 366.95668111 54.36843145 375.13108348 60 383 C60.68578125 383.96035156 61.3715625 384.92070312 62.078125 385.91015625 C74.54507591 402.92888959 88.93925507 419.46365151 106 432 C106.62712891 432.47115234 107.25425781 432.94230469 107.90039062 433.42773438 C137.0601947 455.3177812 169.95585881 471.28708109 206 478 C206.85658203 478.16226074 207.71316406 478.32452148 208.59570312 478.49169922 C222.4659284 480.9787918 236.32521574 481.28307688 250.375 481.3125 C251.21423004 481.31617584 252.05346008 481.31985168 252.91812134 481.32363892 C269.02465796 481.36047614 284.79260927 480.17363702 300.5 476.4375 C302.13775391 476.04896851 302.13775391 476.04896851 303.80859375 475.65258789 C330.92958155 468.97136517 357.11161973 458.17651741 380 442 C381.43085937 441.00419922 381.43085937 441.00419922 382.890625 439.98828125 C393.95698634 432.12127298 404.1321745 423.29959398 414 414 C414.7321875 413.31035156 415.464375 412.62070312 416.21875 411.91015625 C421.62978899 406.66016009 426.3270072 400.9072218 431 395 C431.81726563 393.98808594 432.63453125 392.97617187 433.4765625 391.93359375 C447.51356371 374.35737193 459.39060211 353.12263896 467 332 C467.25555664 331.3198584 467.51111328 330.6397168 467.77441406 329.93896484 C475.64394713 308.83268019 481.10161912 286.01438891 481.203125 263.421875 C481.20882507 262.4152179 481.21452515 261.40856079 481.22039795 260.37139893 C481.22980906 258.24337805 481.23636639 256.11534286 481.24023438 253.98730469 C481.24984568 250.80115696 481.28086742 247.61568166 481.3125 244.4296875 C481.40203415 227.29281765 479.63376057 210.87432197 475.375 194.25 C475.12411621 193.26249756 474.87323242 192.27499512 474.61474609 191.25756836 C466.66585738 161.22975144 452.9219609 133.54881315 434 109 C433.32324219 108.10925781 432.64648438 107.21851562 431.94921875 106.30078125 C426.38944851 99.15250523 420.2209912 92.56989576 414 86 C413.360625 85.31808594 412.72125 84.63617188 412.0625 83.93359375 C407.11727026 78.81005044 401.56526892 74.42691846 396 70 C394.88625 69.1028125 394.88625 69.1028125 393.75 68.1875 C356.64573593 38.72234912 309.16590331 19.13934686 261.39453125 18.76171875 C260.39403244 18.753647 259.39353363 18.74557526 258.36271667 18.73725891 C256.24907114 18.72349401 254.13540409 18.71273829 252.02172852 18.70483398 C249.90544908 18.69340334 247.78919639 18.67309624 245.6730957 18.64331055 C230.6523833 18.43267933 216.65825063 19.68468879 202 23 Z " fill="#FEFEFE" transform="translate(0,0)"/>
<path d="M0 0 C2.79542249 1.27584406 5.34565064 2.8556126 7.9375 4.5 C9.45703498 5.42531259 10.97789304 6.3484556 12.5 7.26953125 C13.25796875 7.73182129 14.0159375 8.19411133 14.796875 8.67041016 C38.30760783 22.85917911 63.58125247 30.82173272 91.11010742 31.57104492 C100.90714704 31.90714704 100.90714704 31.90714704 104 35 C104.11653589 37.67818697 104.16801699 40.33091747 104.17700195 43.01025391 C104.18357315 43.85127655 104.19014435 44.69229919 104.19691467 45.55880737 C104.21674066 48.36472666 104.22834599 51.17059153 104.23828125 53.9765625 C104.24235678 54.93986858 104.2464323 55.90317467 104.25063133 56.89567184 C104.27155578 62.01849912 104.28581591 67.14129931 104.29516602 72.26416016 C104.30394327 76.46548338 104.32460845 80.66646688 104.35668945 84.86767578 C104.69300576 129.8389602 104.69300576 129.8389602 100 148 C99.83045303 148.69404434 99.66090607 149.38808868 99.48622131 150.10316467 C94.676562 169.76742626 85.71330497 189.1948931 73 205 C72.59023926 205.5151416 72.18047852 206.0302832 71.75830078 206.56103516 C65.45145072 214.44401312 58.75293865 221.49306935 51 228 C50.0615625 228.79792969 49.123125 229.59585938 48.15625 230.41796875 C35.23661134 240.89020163 20.10068348 249.09541117 5 256 C4.21625 256.37898438 3.4325 256.75796875 2.625 257.1484375 C-2.92639127 258.94933526 -7.22608038 258.2957029 -12.38916016 255.66479492 C-13.0238623 255.3216626 -13.65856445 254.97853027 -14.3125 254.625 C-14.99618652 254.26704346 -15.67987305 253.90908691 -16.38427734 253.5402832 C-17.8438334 252.77088818 -19.29949104 251.99405922 -20.75146484 251.21044922 C-23.00757982 249.99591957 -25.27792989 248.8117613 -27.55078125 247.62890625 C-61.70320621 229.57566027 -89.24011174 199.35254407 -101.31787109 162.3918457 C-102.27488998 159.27682088 -103.14372452 156.14435586 -104 153 C-104.29390625 152.030625 -104.5878125 151.06125 -104.890625 150.0625 C-109.16900216 135.63346331 -109.31258834 121.26741937 -109.30078125 106.359375 C-109.30467538 104.29909174 -109.30901151 102.23880928 -109.31376648 100.17852783 C-109.32117689 95.89226658 -109.32097159 91.60608783 -109.31567383 87.31982422 C-109.30983119 81.81841242 -109.32694961 76.31733206 -109.3500185 70.81597519 C-109.36470281 66.57647725 -109.36563576 62.33706067 -109.36250877 58.09754181 C-109.36302287 56.06727685 -109.36827708 54.03700745 -109.37832069 52.00676727 C-109.39058901 49.18494936 -109.38395603 46.36379853 -109.37231445 43.54199219 C-109.37995819 42.70155869 -109.38760193 41.86112518 -109.39547729 40.995224 C-109.3742218 38.67694092 -109.3742218 38.67694092 -109 35 C-106.04690186 33.03126791 -105.28153429 32.73147937 -101.95703125 32.5078125 C-101.14298828 32.44513184 -100.32894531 32.38245117 -99.49023438 32.31787109 C-98.60658203 32.25422363 -97.72292969 32.19057617 -96.8125 32.125 C-76.78214644 30.38610883 -58.44568986 27.24103969 -40 19 C-39.28408691 18.68015137 -38.56817383 18.36030273 -37.83056641 18.03076172 C-28.81043945 13.91283122 -20.38265124 8.97074175 -12.11254883 3.50463867 C-7.97420829 0.8510857 -5.05570211 -1.00981172 0 0 Z " fill="#F7F7F7" transform="translate(250,128)"/>
<path d="M0 0 C3.76009148 1.01968583 6.63437041 2.76443384 9.8515625 4.875 C35.74627576 21.04125865 63.04793161 27.00084468 93.2265625 29.875 C93.2265625 46.705 93.2265625 63.535 93.2265625 80.875 C83.8215625 81.865 83.8215625 81.865 74.2265625 82.875 C71.03302485 83.29015989 67.89322832 83.71262641 64.7265625 84.25 C64.02660156 84.35054688 63.32664062 84.45109375 62.60546875 84.5546875 C59.49979927 85.07925355 57.56166051 85.56031071 55.23828125 87.7421875 C53.71663769 90.94997663 54.51056005 93.49026113 55.2265625 96.875 C61.34678062 97.09882512 66.60306471 96.29689672 72.5390625 94.875 C79.59453628 93.27401091 85.95526587 92.45347556 93.2265625 92.875 C93.2265625 97.495 93.2265625 102.115 93.2265625 106.875 C92.12699219 106.91238281 91.02742187 106.94976562 89.89453125 106.98828125 C82.21550504 107.30776913 75.1794777 107.86800565 67.78515625 110.109375 C59.16795841 112.68795634 50.60425611 113.0938667 41.6640625 113.1875 C40.70661133 113.20514404 39.74916016 113.22278809 38.76269531 113.2409668 C29.03523628 113.2318088 20.52144626 110.79162235 11.7890625 106.625 C11.15347412 106.32271484 10.51788574 106.02042969 9.86303711 105.70898438 C5.88319313 103.78262622 2.07720951 101.66024086 -1.7109375 99.375 C-8.80464865 95.16222347 -16.05247405 91.76600998 -23.7734375 88.875 C-24.80694336 88.48320557 -24.80694336 88.48320557 -25.86132812 88.08349609 C-37.89697943 83.7632196 -49.88017067 83.42596013 -62.5234375 83.4375 C-63.31633179 83.43718781 -64.10922607 83.43687561 -64.92614746 83.43655396 C-67.22468269 83.44342564 -69.52204512 83.46896552 -71.8203125 83.50390625 C-72.50303223 83.50950562 -73.18575195 83.51510498 -73.88916016 83.52087402 C-77.37229969 83.60446766 -80.54624627 83.99825919 -83.89550781 84.89819336 C-87.7734375 85.875 -87.7734375 85.875 -93.7734375 85.875 C-93.7734375 67.395 -93.7734375 48.915 -93.7734375 29.875 C-82.8834375 28.885 -82.8834375 28.885 -71.7734375 27.875 C-69.1334375 27.215 -66.4934375 26.555 -63.7734375 25.875 C-62.48824219 25.56820312 -61.20304687 25.26140625 -59.87890625 24.9453125 C-51.97108078 23.05106146 -44.31790927 20.9539601 -36.7734375 17.875 C-35.55140625 17.38257813 -34.329375 16.89015625 -33.0703125 16.3828125 C-24.29055174 12.74611101 -8.61473189 -0.38826961 0 0 Z " fill="#030303" transform="translate(247.7734375,143.125)"/>
<path d="M0 0 C1.093125 0.00531738 2.18625 0.01063477 3.3125 0.01611328 C10.92594138 0.10572321 18.10670577 0.64255812 25.5625 2.25 C26.30242187 2.35957031 27.04234375 2.46914062 27.8046875 2.58203125 C38.04719422 4.2891157 47.64542479 10.05450724 56.5 15.25 C79.35995074 28.64069821 103.39908783 32.90047514 129.5625 27.25 C131.40033359 26.72380463 133.23393557 26.1825536 135.0625 25.625 C141.50745741 23.7078901 147.89805918 23.98731401 154.5625 24.25 C154.25261716 33.7014267 151.38976985 42.17671046 148.30615234 51.03417969 C147.66265376 52.9515773 147.11329053 54.90008419 146.58203125 56.8515625 C145.57977731 59.95241348 144.83420783 61.90609806 142.5625 64.25 C138.22676627 65.61833181 134.01217233 65.87670295 129.51171875 66.08886719 C126.6188664 66.32800578 123.92052799 67.11445194 121.125 67.875 C96.83637223 73.24493471 73.19703973 67.83035198 52.1875 55.3125 C40.92641823 48.75842602 30.38344088 44.0039902 17.5625 41.25 C16.46808594 40.96962891 16.46808594 40.96962891 15.3515625 40.68359375 C11.03422169 40.01241052 6.73734559 40.06561374 2.375 40.0625 C1.00311523 40.04413086 1.00311523 40.04413086 -0.39648438 40.02539062 C-1.70649414 40.02249023 -1.70649414 40.02249023 -3.04296875 40.01953125 C-3.83856201 40.01542236 -4.63415527 40.01131348 -5.45385742 40.00708008 C-7.66988807 40.07177992 -7.66988807 40.07177992 -9.4375 42.25 C-9.46125926 44.2431567 -9.46125926 44.2431567 -9.0625 46.375 C-8.753125 48.293125 -8.753125 48.293125 -8.4375 50.25 C-7.86942627 50.26458252 -7.30135254 50.27916504 -6.71606445 50.29418945 C15.2204239 50.92170651 31.25215033 55.64529438 50 66.8125 C65.57777564 76.06126497 80.60101382 80.62518069 98.79248047 80.56567383 C100.79530274 80.56252702 102.79810659 80.58680958 104.80078125 80.61132812 C112.84887644 80.6152927 119.89147289 79.80702144 127.66308594 77.79760742 C130.45870465 77.26960365 131.92944543 77.28638516 134.5625 78.25 C118.24095703 102.63093841 95.56053698 119.32844884 69.5625 132.25 C68.71816406 132.67410156 67.87382812 133.09820312 67.00390625 133.53515625 C61.31591032 135.20060146 56.38557285 132.50184209 51.375 129.9375 C50.69010498 129.58848633 50.00520996 129.23947266 49.29956055 128.87988281 C35.64032969 121.75812823 23.00053811 113.76351538 12.1171875 102.80615234 C10.47659109 101.16401014 8.80425413 99.55957058 7.125 97.95703125 C0.88665979 91.94641904 -5.17670922 85.88843584 -9.4375 78.25 C-9.4375 77.59 -9.4375 76.93 -9.4375 76.25 C2.64422842 72.22275719 17.82313812 77.47566421 28.8125 82.875 C35.40098436 86.23106225 41.00532633 90.43272174 46.59765625 95.24609375 C50.00271218 97.54753472 52.50226594 97.9712074 56.5625 98.25 C57.71654904 95.10056294 58.1444672 92.57480391 57.5625 89.25 C54.49458047 85.4716149 50.59547254 82.90461484 46.5625 80.25 C45.98838379 79.85748047 45.41426758 79.46496094 44.82275391 79.06054688 C32.24459671 70.53415759 18.59801179 65.46410189 3.2890625 64.93359375 C2.13535156 64.89169922 0.98164063 64.84980469 -0.20703125 64.80664062 C-1.39683594 64.76732422 -2.58664063 64.72800781 -3.8125 64.6875 C-5.02550781 64.64431641 -6.23851562 64.60113281 -7.48828125 64.55664062 C-10.47125032 64.45094487 -13.45429742 64.34884679 -16.4375 64.25 C-27.62568873 38.47009586 -27.62568873 38.47009586 -27.4375 28.25 C2.54299717 22.66604931 27.86303878 25.5688405 54.328125 41.33203125 C63.02328204 46.48821737 71.84216225 50.46510985 81.5625 53.25 C82.31273437 53.476875 83.06296875 53.70375 83.8359375 53.9375 C101.2443123 58.33540521 123.87762557 55.57303773 140.5625 49.25 C142.74581689 47.48863645 142.74581689 47.48863645 142.7578125 45.3046875 C142.73460937 44.58539063 142.71140625 43.86609375 142.6875 43.125 C142.64625 41.84625 142.605 40.5675 142.5625 39.25 C134.78540176 38.68439286 127.93500175 40.39513209 120.453125 42.27734375 C93.1949491 49.11857337 70.82860493 38.36818262 47.890625 24.65234375 C33.20739333 16.54338389 15.35716678 14.07181569 -1.1875 14.0625 C-2.31671875 14.05025391 -3.4459375 14.03800781 -4.609375 14.02539062 C-10.66699617 14.01487392 -16.24144168 14.35340153 -22.12988281 15.8190918 C-24.4375 16.25 -24.4375 16.25 -30.4375 16.25 C-30.4375 12.29 -30.4375 8.33 -30.4375 4.25 C-20.69440756 0.46101961 -10.34097199 -0.0913004 0 0 Z " fill="#060606" transform="translate(184.4375,237.75)"/>
<path d="M0 0 C3.20817633 2.85171229 5.30821573 5.30089435 7.171875 9.1875 C7.51831055 9.90292969 7.86474609 10.61835938 8.22167969 11.35546875 C8.47852539 11.89816406 8.73537109 12.44085938 9 13 C7.89140625 13.60328125 6.7828125 14.2065625 5.640625 14.828125 C4.17688567 15.63505822 2.71335492 16.44236986 1.25 17.25 C0.52039063 17.64574219 -0.20921875 18.04148438 -0.9609375 18.44921875 C-1.66992188 18.84238281 -2.37890625 19.23554688 -3.109375 19.640625 C-3.75874023 19.99672852 -4.40810547 20.35283203 -5.07714844 20.71972656 C-7.49873991 22.33207111 -9.16490933 23.71137434 -11 26 C-11.3952994 28.61770661 -11.54542134 30.81680366 -11.5146637 33.432724 C-11.52160922 34.1839875 -11.52855475 34.93525101 -11.53571075 35.70928007 C-11.55401669 38.22828175 -11.54370694 40.74634544 -11.53344727 43.26538086 C-11.54050396 45.07065029 -11.54924793 46.8759138 -11.55955505 48.6811676 C-11.5820872 53.58616537 -11.57910034 58.49084106 -11.57023358 63.39587092 C-11.56512907 67.48895833 -11.57241192 71.58198491 -11.57970566 75.67506605 C-11.59671693 85.33022489 -11.59312657 94.98522573 -11.57641602 104.64038086 C-11.55949293 114.6050359 -11.57532907 124.56925295 -11.6076389 134.53386015 C-11.63431951 143.08599815 -11.64161494 151.63799967 -11.63312382 160.19017512 C-11.62819019 165.29940259 -11.63043374 170.40836647 -11.65091133 175.51756096 C-11.66924443 180.32185212 -11.66333884 185.12551242 -11.63871193 189.92976952 C-11.63369649 191.69341974 -11.63721279 193.45711783 -11.64986038 195.22072983 C-11.66575859 197.62797887 -11.65087336 200.03314223 -11.62818909 202.44029236 C-11.64594268 203.48825506 -11.64594268 203.48825506 -11.66405493 204.55738872 C-11.59182801 208.32765057 -11.09219294 209.88746418 -8.67265224 212.84088993 C-5.55273991 215.36132039 -2.27656332 217.31122632 1.25 219.1875 C2.69615562 219.97893009 4.1414422 220.77194984 5.5859375 221.56640625 C6.32295898 221.97004395 7.05998047 222.37368164 7.81933594 222.78955078 C11.20911329 224.67115805 14.54165939 226.64563853 17.875 228.625 C25.07439615 232.88545299 32.31275418 237.07585549 39.5625 241.25 C48.0166622 246.1177519 56.4552423 251.01049201 64.875 255.9375 C73.65751551 261.07379466 82.47486994 266.14687344 91.3125 271.1875 C91.91008118 271.52834625 92.50766235 271.8691925 93.12335205 272.22036743 C93.71638123 272.55861542 94.3094104 272.8968634 94.92041016 273.24536133 C101.54028584 277.0214178 108.15373224 280.8078378 114.75 284.625 C115.84163452 285.25233032 115.84163452 285.25233032 116.95532227 285.89233398 C121.42749417 288.47154895 125.84796172 291.12293294 130.25 293.8203125 C131.32797852 294.47177246 132.40595703 295.12323242 133.51660156 295.79443359 C135.62702805 297.07082413 137.72847817 298.36221041 139.81933594 299.67041016 C145.33411792 303.00290573 145.33411792 303.00290573 151.55078125 304.24609375 C156.5110895 302.45409111 160.90222789 299.9868306 165.4375 297.3125 C166.44176025 296.73234131 167.44602051 296.15218262 168.48071289 295.55444336 C171.66032612 293.7139265 174.83040361 291.85770318 178 290 C179.99951255 288.8377027 181.9995037 287.6762283 184 286.515625 C190.00829681 283.02454453 196.00508328 279.51399419 202 276 C214.83568041 268.47620802 227.68966525 260.9959208 240.66333008 253.71191406 C245.31927107 251.0948439 249.95596296 248.45210961 254.55859375 245.7421875 C255.87283325 244.97007935 255.87283325 244.97007935 257.21362305 244.18237305 C258.86295128 243.2103029 260.50914047 242.23288004 262.15161133 241.24926758 C262.88017334 240.82025146 263.60873535 240.39123535 264.359375 239.94921875 C264.99327148 239.57112061 265.62716797 239.19302246 266.28027344 238.8034668 C268 238 268 238 271 238 C272.67578125 240.046875 272.67578125 240.046875 274.3125 242.75 C274.86550781 243.63171875 275.41851562 244.5134375 275.98828125 245.421875 C277 248 277 248 276.64453125 250.0546875 C274.10719431 253.05609794 270.80799744 254.5902545 267.375 256.375 C265.72255805 257.26302425 264.07158951 258.15379409 262.421875 259.046875 C261.53951172 259.52318359 260.65714844 259.99949219 259.74804688 260.49023438 C254.98514564 263.10695268 250.30904092 265.87036552 245.625 268.625 C236.78330773 273.80933687 227.90594138 278.92718874 219 284 C211.19950233 288.44363914 203.41223681 292.90729708 195.66577148 297.44482422 C193.69514296 298.59789795 191.72202707 299.74673218 189.74633789 300.89111328 C184.75973128 303.78053329 179.81821261 306.721504 174.921875 309.76171875 C156.22008557 321.20987582 156.22008557 321.20987582 147.15234375 320.36328125 C136.69632533 317.53350269 127.11931251 310.63576447 118 305 C110.93574111 300.72319465 103.82191387 296.53351504 96.6875 292.375 C95.64062012 291.76454834 94.59374023 291.15409668 93.51513672 290.52514648 C86.0546942 286.18139828 78.57045552 281.88118279 71.0703125 277.60644531 C54.68257355 268.26395995 38.35415591 258.81788244 22.07495117 249.28759766 C16.73254712 246.16342096 11.37617207 243.0656841 6 240 C4.82026204 239.32560909 3.64057421 238.6511305 2.4609375 237.9765625 C0.21871336 236.69601463 -2.02593474 235.41969801 -4.2734375 234.1484375 C-22.81846473 223.54460581 -22.81846473 223.54460581 -26 214 C-26.10406125 211.46137043 -26.15217407 208.94973058 -26.15390015 206.41073608 C-26.1582824 205.63048085 -26.16266465 204.85022561 -26.1671797 204.04632628 C-26.18056881 201.42329712 -26.18674685 198.80030157 -26.19287109 196.17724609 C-26.20077206 194.29980314 -26.20904101 192.42236171 -26.21765137 190.54492188 C-26.24387518 184.37110851 -26.25918078 178.19728836 -26.2734375 172.0234375 C-26.2787973 169.89791484 -26.28417481 167.77239223 -26.28956985 165.64686966 C-26.31120036 156.80419948 -26.32993639 147.96153112 -26.34119225 139.11884117 C-26.35742646 126.44847242 -26.39058967 113.77841057 -26.44759309 101.10815752 C-26.48630984 92.19847592 -26.50582709 83.28887635 -26.51111281 74.37911284 C-26.51476426 69.05843305 -26.52676372 63.73808058 -26.55921555 58.41749191 C-26.58932598 53.40889878 -26.59559728 48.40083051 -26.58383179 43.39216614 C-26.58361129 41.55760872 -26.59189628 39.72302673 -26.60948563 37.88855362 C-26.77448358 19.68361983 -26.77448358 19.68361983 -21 13 C-18.45703125 10.80078125 -18.45703125 10.80078125 -15.8125 9.3125 C-14.86375 8.76078125 -13.915 8.2090625 -12.9375 7.640625 C-11.968125 7.09921875 -10.99875 6.5578125 -10 6 C-8.10137199 4.85880338 -6.20534475 3.71326357 -4.3125 2.5625 C-2.87591086 1.70680227 -1.43876967 0.85202629 0 0 Z " fill="#FAFAFA" transform="translate(99,132)"/>
<path d="M0 0 C6.04223185 2.49661663 11.61888485 5.96017678 17.20800781 9.32324219 C20.02716332 11.01631319 22.86488627 12.67290339 25.7109375 14.3203125 C29.72567851 16.64592059 33.73306817 18.98338289 37.734375 21.33203125 C44.09771192 25.06326062 50.48359648 28.75460319 56.875 32.4375 C57.94532471 33.05471924 59.01564941 33.67193848 60.1184082 34.30786133 C65.14917215 37.20803742 70.1816921 40.10511277 75.21748352 42.99655151 C97.66330939 55.88641224 97.66330939 55.88641224 105.99609375 61.19140625 C109.56996507 63.34316492 113.22595132 65.31527101 116.89331055 67.30249023 C130.58284217 74.78251486 144.19903381 82.53431355 157.5 90.6875 C158.12092529 91.06036133 158.74185059 91.43322266 159.3815918 91.81738281 C164.25750788 94.86265765 167.90015179 98.61026893 170 104 C170.19149093 106.63763704 170.27418018 109.16869288 170.26069641 111.80563354 C170.26452196 112.59702701 170.26834751 113.38842047 170.27228898 114.20379555 C170.28261642 116.85842455 170.27862732 119.51283716 170.2746582 122.16748047 C170.27900485 124.06964315 170.28418783 125.97180408 170.29014587 127.8739624 C170.30355294 133.04340471 170.30411259 138.21277398 170.30158257 143.38223028 C170.30051392 147.69640128 170.30539358 152.01055744 170.310188 156.32472527 C170.3212893 166.50246482 170.32171722 176.68016747 170.31567383 186.85791016 C170.30963385 197.35979885 170.32194426 207.86155358 170.3432439 218.36341941 C170.36085434 227.37754066 170.36686209 236.39161925 170.36360615 245.40575707 C170.36179211 250.79049897 170.36444151 256.17514533 170.37832069 261.55987167 C170.39088515 266.62420097 170.38896797 271.68832135 170.37590981 276.7526474 C170.37354138 278.61102239 170.3762882 280.46941202 170.38453293 282.32777023 C170.39497976 284.86555621 170.38691648 287.40263852 170.3742218 289.94039917 C170.38159609 290.67503761 170.38897037 291.40967605 170.39656812 292.16657627 C170.33852112 297.68616905 169.00345409 301.6875795 165.37890625 305.87109375 C151.31421446 318 151.31421446 318 145 318 C143.2734375 315.6640625 143.2734375 315.6640625 141.375 312.625 C140.42753906 311.12839844 140.42753906 311.12839844 139.4609375 309.6015625 C138 307 138 307 138 305 C140.28874173 303.66141476 142.58069656 302.32898986 144.875 301 C145.52597656 300.6184375 146.17695313 300.236875 146.84765625 299.84375 C151.7734375 297 151.7734375 297 154 297 C155.17432307 293.47703079 155.16417571 290.28508089 155.18081665 286.61833191 C155.18802117 285.86046129 155.19522568 285.10259067 155.20264852 284.32175428 C155.2254234 281.77465779 155.24095656 279.22757099 155.25634766 276.68041992 C155.27079502 274.85722109 155.28555265 273.03402469 155.30059814 271.21083069 C155.43079114 254.57768456 155.49671416 237.9438684 155.54844093 221.31031322 C155.5873826 209.01198919 155.65580148 196.71457855 155.76298869 184.41665572 C155.83579823 175.77200168 155.8742685 167.12759784 155.88746679 158.48264962 C155.89633908 153.31765327 155.92065008 148.15378669 155.98213577 142.98912621 C156.03932369 138.13041969 156.05407205 133.27342707 156.03626251 128.41443443 C156.03714186 126.63177336 156.05343519 124.8490429 156.08630753 123.06668472 C156.61014864 113.7717329 156.61014864 113.7717329 153.03091526 105.64322662 C150.72751995 104.07877748 148.58680213 103.00847529 146 102 C145.02184326 101.40461426 144.04368652 100.80922852 143.03588867 100.19580078 C142.1719751 99.70063965 141.30806152 99.20547852 140.41796875 98.6953125 C139.41838135 98.12047119 138.41879395 97.54562988 137.38891602 96.95336914 C136.33244873 96.35000732 135.27598145 95.74664551 134.1875 95.125 C133.05948975 94.47716553 131.93147949 93.82933105 130.76928711 93.16186523 C124.86175782 89.77008168 118.9435676 86.39707181 113.0234375 83.02734375 C110.70292792 81.70607492 108.38265588 80.38438982 106.0625 79.0625 C105.48322754 78.73263092 104.90395508 78.40276184 104.30712891 78.06289673 C94.40292592 72.41897773 84.59217978 66.62918328 74.79980469 60.79370117 C66.75914077 56.01316313 58.64983069 51.37135563 50.49316406 46.79223633 C43.60580276 42.92123328 36.76116551 38.98216488 29.9375 35 C28.45817993 34.14015503 28.45817993 34.14015503 26.94897461 33.26293945 C21.86417399 30.29781373 16.81656027 27.2847248 11.80859375 24.19140625 C10.31307983 23.2777832 10.31307983 23.2777832 8.78735352 22.34570312 C6.89235878 21.18541797 5.00557273 20.01158191 3.12866211 18.82226562 C2.27925049 18.30470703 1.42983887 17.78714844 0.5546875 17.25390625 C-0.18281738 16.79314697 -0.92032227 16.3323877 -1.68017578 15.85766602 C-4.85396363 14.68427971 -6.75373004 15.12720171 -10 16 C-12.74049153 17.24319769 -12.74049153 17.24319769 -15.4296875 18.88671875 C-16.46061523 19.48863037 -17.49154297 20.09054199 -18.55371094 20.71069336 C-19.64973633 21.36303955 -20.74576172 22.01538574 -21.875 22.6875 C-23.02844617 23.36490872 -24.18242618 24.04140919 -25.33691406 24.71704102 C-27.71737095 26.11191714 -30.09477302 27.51179038 -32.46972656 28.91601562 C-36.86506886 31.5136331 -41.27651095 34.08346814 -45.68798828 36.65356445 C-48.7048463 38.41119334 -51.71962357 40.17235479 -54.734375 41.93359375 C-58.81060818 44.31139644 -62.89815063 46.66670162 -67 49 C-73.18977841 52.52306563 -79.34664339 56.10123548 -85.5 59.6875 C-86.52005127 60.27990479 -87.54010254 60.87230957 -88.59106445 61.48266602 C-93.84910029 64.54405161 -99.07661993 67.64456393 -104.26171875 70.828125 C-105.75638672 71.73751831 -105.75638672 71.73751831 -107.28125 72.6652832 C-109.18064941 73.82352752 -111.07296484 74.99349136 -112.95703125 76.17651367 C-113.81039062 76.6944751 -114.66375 77.21243652 -115.54296875 77.74609375 C-116.28571045 78.20685303 -117.02845215 78.6676123 -117.79370117 79.14233398 C-120.62347759 80.24236768 -122.15247269 79.97280588 -125 79 C-126.80078125 76.49609375 -126.80078125 76.49609375 -128.3125 73.4375 C-129.08013672 71.91962891 -129.08013672 71.91962891 -129.86328125 70.37109375 C-130.23839844 69.58863281 -130.61351562 68.80617188 -131 68 C-130.48953125 67.7097998 -129.9790625 67.41959961 -129.453125 67.12060547 C-117.74636493 60.46031001 -106.08222016 53.73143914 -94.45507812 46.93310547 C-89.3171387 43.93042441 -84.17309678 40.94168808 -79 38 C-72.92991237 34.54809475 -66.9023163 31.02598004 -60.875 27.5 C-52.21880869 22.44178065 -43.54471595 17.41578678 -34.84527588 12.43237305 C-33.62947152 11.7356974 -32.41408798 11.03828676 -31.19915771 10.34008789 C-9.48162891 -2.13540996 -9.48162891 -2.13540996 0 0 Z " fill="#FAFAFA" transform="translate(256,49)"/>
<path d="M0 0 C4.02771628 1.5026138 5.48215259 3.8352731 7.6875 7.4375 C8.28949219 8.40558594 8.89148438 9.37367188 9.51171875 10.37109375 C11.98147358 14.73367905 12.33724658 18.02561293 12 23 C10.55458923 26.57911238 9.0776622 29.5913948 6 32 C5.34 32 4.68 32 4 32 C3.34 29.36 2.68 26.72 2 24 C1.34 24 0.68 24 0 24 C-0.66 26.64 -1.32 29.28 -2 32 C-5.40091535 30.59272468 -7.0693195 29.13331109 -9 26 C-10.52073209 18.06625817 -8.65103529 12.07988898 -4.60546875 5.27734375 C-3.1977598 3.28052059 -1.79626575 1.64522839 0 0 Z " fill="#F4F4F4" transform="translate(246,166)"/>
<path d="M0 0 C-0.58548262 7.02579147 -2.75429259 12.32942903 -7.3125 17.75 C-13.45012856 22.88847973 -18.10371754 24.64189195 -26 25 C-26.51418443 18.14420758 -26.86406475 12.37329727 -22.59375 6.69140625 C-15.86675911 -0.44777771 -9.54609789 -0.65483903 0 0 Z " fill="#F6F6F6" transform="translate(277,197)"/>
<path d="M0 0 C8.4238789 -0.41129246 13.62817249 0.11856823 20.75 4.8125 C24.30867903 8.27232684 25.88358191 11.02089251 26.1796875 16.0546875 C26.1867188 19.04299072 26.13042213 22.01478228 26 25 C17.62599975 24.73415872 12.62324744 22.16322282 6.4296875 16.5859375 C2.26312476 12.11998103 0 6.06829319 0 0 Z " fill="#F7F7F7" transform="translate(217,197)"/>
<path d="M0 0 C1.32 0.99 2.64 1.98 4 3 C2.35 4.32 0.7 5.64 -1 7 C-1.66 6.01 -2.32 5.02 -3 4 C-2.01 2.68 -1.02 1.36 0 0 Z " fill="#F3F3F3" transform="translate(84,82)"/>
<path d="M0 0 C0.66 0.33 1.32 0.66 2 1 C0.74458443 3.51083114 -0.50063488 3.87125446 -3 5 C-2.67 5.66 -2.34 6.32 -2 7 C-2.99 7.33 -3.98 7.66 -5 8 C-5.33 6.68 -5.66 5.36 -6 4 C-4.02 2.68 -2.04 1.36 0 0 Z " fill="#151515" transform="translate(94,152)"/>
<path d="M0 0 C0.66 0.33 1.32 0.66 2 1 C0.35 2.98 -1.3 4.96 -3 7 C-4.32 6.01 -5.64 5.02 -7 4 C-1.7265625 0.77734375 -1.7265625 0.77734375 0 0 Z " fill="#E1E1E1" transform="translate(323,395)"/>
<path d="M0 0 C0.66 0.33 1.32 0.66 2 1 C2 1.99 2 2.98 2 4 C2.66 4.33 3.32 4.66 4 5 C2.02 5.66 0.04 6.32 -2 7 C-1.34 4.69 -0.68 2.38 0 0 Z " fill="#151515" transform="translate(35,163)"/>
<path d="M0 0 C3.39914975 1.13304992 4.05254451 2.12518475 6 5 C4.35 5.33 2.7 5.66 1 6 C-0.0625 4.125 -0.0625 4.125 -1 2 C-0.67 1.34 -0.34 0.68 0 0 Z " fill="#151515" transform="translate(128,125)"/>
<path d="M0 0 C1.33998047 0.31324219 1.33998047 0.31324219 2.70703125 0.6328125 C3.60808594 0.83648437 4.50914062 1.04015625 5.4375 1.25 C6.46810547 1.50136719 6.46810547 1.50136719 7.51953125 1.7578125 C7.51953125 2.0878125 7.51953125 2.4178125 7.51953125 2.7578125 C3.00335526 2.83435786 -1.07132092 2.86009946 -5.48046875 1.7578125 C-2.48046875 -0.2421875 -2.48046875 -0.2421875 0 0 Z " fill="#CBCBCB" transform="translate(277.48046875,265.2421875)"/>
<path d="M0 0 C1.98 0.495 1.98 0.495 4 1 C4.33 2.65 4.66 4.3 5 6 C2.5 4.6875 2.5 4.6875 0 3 C0 2.01 0 1.02 0 0 Z " fill="#E6E6E6" transform="translate(225,212)"/>
<path d="M0 0 C0.99 0.66 1.98 1.32 3 2 C0.03 4.475 0.03 4.475 -3 7 C-3.66 6.67 -4.32 6.34 -5 6 C-3.35 4.02 -1.7 2.04 0 0 Z " fill="#1E1E1E" transform="translate(324,331)"/>
<path d="M0 0 C1.65 1.32 3.3 2.64 5 4 C4.67 4.99 4.34 5.98 4 7 C1.53721199 5.768606 0.57502313 4.21935077 -1 2 C-0.67 1.34 -0.34 0.68 0 0 Z " fill="#DCDCDC" transform="translate(238,323)"/>
</svg>
