<svg width="853" height="854" viewBox="0 0 853 854" fill="none" xmlns="http://www.w3.org/2000/svg">
<circle cx="426.5" cy="426.567" r="426.5" fill="white"/>
<path d="M338.241 227.725C369.343 322.44 400.486 417.115 431.749 512.273C429.536 512.393 427.926 512.554 426.357 512.554C361.98 512.554 297.603 512.635 233.225 512.554C186.189 512.474 150.38 475.336 153.035 428.542C154.685 399.733 168.445 377.643 194.196 363.923C239.301 339.902 284.566 316.243 329.831 292.504C332.648 291.016 333.775 289.326 333.895 286.107C334.78 266.673 335.988 247.239 337.034 227.805C337.436 227.805 337.838 227.805 338.201 227.805L338.241 227.725ZM383.104 435.543C375.137 411.281 367.372 387.702 359.526 363.963C358.318 364.446 357.634 364.687 356.991 365.009C329.791 379.092 302.712 393.496 275.312 407.177C257.246 416.23 240.548 429.467 218.499 427.415C218.338 427.415 218.056 427.415 217.976 427.496C216.728 428.703 214.435 430.151 214.596 431.117C214.878 432.686 216.568 434.497 218.137 435.261C219.666 435.985 221.758 435.543 223.649 435.543H383.104Z" fill="black"/>
<path d="M424.867 339.737H432.029C496.044 339.737 560.06 339.737 624.075 339.737C661.011 339.737 692.194 363.839 701.529 399.488C710.743 434.613 694.689 471.51 662.581 488.449C617.758 512.148 572.855 535.807 527.911 559.304C524.29 561.195 522.841 563.368 522.681 567.432C521.876 586.504 520.789 605.576 518.617 624.889C487.474 530.174 456.332 435.458 424.907 339.737H424.867ZM473.633 416.708C481.68 441.172 489.405 464.67 497.211 488.449C499.183 487.483 500.511 486.88 501.798 486.236C536.401 468.291 571.044 450.386 605.607 432.36C614.338 427.814 623.27 424.756 633.249 424.997C636.669 425.078 641.859 426.486 641.94 420.933C642.02 415.34 636.789 416.789 633.329 416.789C582.391 416.708 531.452 416.749 480.513 416.749H473.633V416.708Z" fill="black"/>
<path d="M449.01 263.974V217.341H495.523V263.974H449.01Z" fill="black"/>
<path d="M360.893 634.786V588.475H407.205V634.786H360.893Z" fill="black"/>
</svg>
