<svg width="256" height="256" viewBox="0 0 256 256" fill="none" xmlns="http://www.w3.org/2000/svg">
<path d="M251 128C251 195.931 195.931 251 128 251C60.069 251 5 195.931 5 128C5 60.069 60.069 5 128 5C195.931 5 251 60.069 251 128Z" fill="white" stroke="black" stroke-width="10"/>
<path d="M101.512 68.3242C110.846 96.7498 120.193 125.163 129.575 153.722C128.911 153.758 128.428 153.806 127.957 153.806C108.636 153.806 89.3157 153.831 69.9947 153.806C55.8784 153.782 45.1315 142.637 45.9283 128.593C46.4235 119.947 50.5531 113.317 58.2814 109.2C71.8182 101.99 85.403 94.89 98.9878 87.7655C99.8333 87.3189 100.171 86.8117 100.208 85.8457C100.473 80.0132 100.836 74.1807 101.15 68.3482C101.27 68.3482 101.391 68.3482 101.5 68.3482L101.512 68.3242ZM114.976 130.694C112.585 123.413 110.255 116.336 107.9 109.212C107.537 109.357 107.332 109.429 107.139 109.526C98.9758 113.752 90.849 118.075 82.6257 122.181C77.2038 124.898 72.1925 128.87 65.5752 128.255C65.5269 128.255 65.4422 128.255 65.4182 128.279C65.0437 128.641 64.3555 129.076 64.4038 129.366C64.4885 129.837 64.9957 130.38 65.4665 130.609C65.9254 130.827 66.5533 130.694 67.1208 130.694H114.976Z" fill="black"/>
<path d="M127.51 101.94H129.659C148.871 101.94 168.084 101.94 187.296 101.94C198.381 101.94 207.739 109.174 210.541 119.873C213.306 130.414 208.488 141.488 198.852 146.571C185.4 153.684 171.924 160.784 158.435 167.836C157.348 168.404 156.913 169.056 156.865 170.276C156.624 175.999 156.298 181.723 155.646 187.519C146.299 159.094 136.953 130.668 127.522 101.94H127.51ZM142.145 125.041C144.56 132.383 146.879 139.435 149.221 146.571C149.813 146.282 150.212 146.101 150.598 145.907C160.983 140.522 171.38 135.148 181.753 129.738C184.373 128.374 187.054 127.456 190.049 127.528C191.075 127.553 192.633 127.975 192.657 126.309C192.681 124.63 191.111 125.065 190.073 125.065C174.785 125.041 159.498 125.053 144.21 125.053H142.145V125.041Z" fill="black"/>
<path d="M134.755 79.2024V65.207H148.715V79.2024H134.755Z" fill="black"/>
<path d="M108.31 190.49V176.591H122.209V190.49H108.31Z" fill="black"/>
</svg>
