<svg width="800" height="800" viewBox="0 0 800 800" fill="none" xmlns="http://www.w3.org/2000/svg">
<rect width="800" height="800" fill="black"/>
<g filter="url(#filter0_bdi_2001_41)" transform="translate(0,70)">
<path d="M637.485 369.321C587.837 514.433 449.105 541.857 332.369 521.485C303.617 516.471 218.461 489.987 195.68 417.431C193.637 411.006 181.068 368.694 202.121 327.636C235.115 263.386 322.628 256.647 371.334 252.886C443.449 247.245 492.94 269.654 502.995 274.355C521.063 282.818 533.161 291.75 541.174 297.078C527.976 283.601 473.772 218.567 353.894 215.276C247.056 212.142 176.983 273.415 163 286.109C212.648 141.153 351.38 113.572 468.116 133.944C496.868 138.959 582.024 165.443 604.805 237.999C606.848 244.424 619.417 286.735 598.364 327.793C565.37 392.044 477.857 398.782 429.152 402.7C356.879 408.342 307.545 385.932 297.49 381.231C279.265 372.455 267.167 363.679 259.154 358.351C272.194 371.828 326.556 436.863 446.277 440.153C553.429 443.288 623.502 382.014 637.485 369.321Z" fill="#AFEB00"/>
</g>
<defs>
<filter id="filter0_bdi_2001_41" x="106.464" y="85.5978" width="587.557" height="512.514" filterUnits="userSpaceOnUse" color-interpolation-filters="sRGB">
<feFlood flood-opacity="0" result="BackgroundImageFix"/>
<feGaussianBlur in="BackgroundImageFix" stdDeviation="5.655"/>
<feComposite in2="SourceAlpha" operator="in" result="effect1_backgroundBlur_2001_41"/>
<feColorMatrix in="SourceAlpha" type="matrix" values="0 0 0 0 0 0 0 0 0 0 0 0 0 0 0 0 0 0 127 0" result="hardAlpha"/>
<feOffset dy="14.1341"/>
<feGaussianBlur stdDeviation="28.2682"/>
<feComposite in2="hardAlpha" operator="out"/>
<feColorMatrix type="matrix" values="0 0 0 0 0.686275 0 0 0 0 0.921569 0 0 0 0 0 0 0 0 0.35 0"/>
<feBlend mode="normal" in2="effect1_backgroundBlur_2001_41" result="effect2_dropShadow_2001_41"/>
<feBlend mode="normal" in="SourceGraphic" in2="effect2_dropShadow_2001_41" result="shape"/>
<feColorMatrix in="SourceAlpha" type="matrix" values="0 0 0 0 0 0 0 0 0 0 0 0 0 0 0 0 0 0 127 0" result="hardAlpha"/>
<feOffset/>
<feGaussianBlur stdDeviation="5.5"/>
<feComposite in2="hardAlpha" operator="arithmetic" k2="-1" k3="1"/>
<feColorMatrix type="matrix" values="0 0 0 0 0.897872 0 0 0 0 1 0 0 0 0 0.6 0 0 0 1 0"/>
<feBlend mode="normal" in2="shape" result="effect3_innerShadow_2001_41"/>
</filter>
</defs>
</svg>
