<svg width="1580" height="514" viewBox="0 0 1580 514" fill="none" xmlns="http://www.w3.org/2000/svg">
<g filter="url(#filter0_bdi_2001_3)">
<path d="M531.485 284.321C481.837 429.433 343.105 456.857 226.369 436.485C197.617 431.471 112.461 404.987 89.6798 332.431C87.6373 326.006 75.0681 283.694 96.1215 242.636C129.115 178.386 216.628 171.647 265.334 167.886C337.449 162.245 386.94 184.654 396.995 189.355C415.063 197.818 427.161 206.75 435.174 212.078C421.976 198.601 367.772 133.567 247.894 130.276C141.056 127.142 70.9832 188.415 57 201.109C106.648 56.1528 245.38 28.5721 362.116 48.9442C390.868 53.9589 476.024 80.4427 498.805 152.999C500.848 159.424 513.417 201.735 492.364 242.793C459.37 307.044 371.857 313.782 323.152 317.7C250.879 323.342 201.545 300.932 191.49 296.231C173.265 287.455 161.167 278.679 153.154 273.351C166.194 286.828 220.556 351.863 340.277 355.153C447.429 358.288 517.502 297.014 531.485 284.321Z" fill="#AFEB00"/>
</g>
<path d="M805.901 196.258C798.212 183.298 787.502 173.095 774.32 165.926C760.864 158.757 746.035 155.172 729.558 155.172C712.257 155.172 696.879 159.032 683.148 166.477C669.417 173.923 658.707 184.401 651.018 197.637C643.329 210.872 639.484 225.763 639.484 242.583C639.484 259.404 643.604 274.57 651.567 287.53C659.531 300.765 670.79 310.968 685.07 318.689C699.625 326.134 716.377 329.994 735.6 329.994C750.978 329.994 764.434 327.513 776.243 322.825C788.051 318.137 797.663 311.244 805.352 302.42L779.538 274.294C773.771 279.809 767.73 283.945 760.864 286.702C753.999 289.46 746.31 290.839 737.522 290.839C727.087 290.839 718.299 288.908 711.159 285.324C703.744 281.739 697.977 276.224 693.858 269.33C691.661 265.47 689.739 261.334 688.915 256.646H816.886C817.16 254.44 817.16 252.234 817.435 249.753C817.709 247.271 817.709 245.065 817.709 243.135C817.435 224.935 813.59 209.218 805.901 196.258ZM688.091 227.969C688.915 222.729 690.563 217.766 692.76 213.63C696.33 207.012 701.273 201.773 707.589 198.188C713.905 194.603 721.32 192.673 729.833 192.673C738.071 192.673 745.486 194.603 751.802 198.188C758.118 201.773 763.061 207.012 766.631 213.63C769.103 218.042 770.476 222.729 771.3 228.244H688.091V227.969Z" fill="white"/>
<path d="M1004.24 196.258C996.555 183.298 985.845 173.095 972.663 165.926C959.207 158.757 944.378 155.172 927.626 155.172C910.326 155.172 894.947 159.032 881.216 166.477C867.486 173.923 856.776 184.401 849.087 197.637C841.397 210.872 837.553 226.038 837.553 242.859C837.553 259.679 841.397 274.845 849.636 287.805C857.6 301.041 868.859 311.244 883.413 318.965C897.968 326.41 914.72 330.27 933.943 330.27C949.321 330.27 962.777 327.788 974.586 323.101C986.394 318.413 996.005 311.519 1003.69 302.696L977.606 274.294C971.839 279.809 965.798 283.945 958.933 286.702C952.067 289.46 944.378 290.839 935.59 290.839C925.429 290.839 916.367 288.908 909.227 285.324C901.813 281.739 896.046 276.224 891.926 269.33C889.73 265.47 888.082 261.334 886.983 256.646H1014.95C1015.23 254.44 1015.5 252.234 1015.5 249.753C1015.78 247.271 1015.78 245.065 1015.78 243.135C1015.78 224.935 1011.93 209.218 1004.24 196.258ZM886.16 227.969C886.983 222.729 888.631 217.766 890.828 213.63C894.398 207.012 899.341 201.773 905.657 198.188C911.973 194.603 919.388 192.673 927.901 192.673C936.414 192.673 943.554 194.603 949.87 198.188C956.186 201.773 961.129 207.012 964.699 213.63C967.171 218.042 968.544 222.729 969.368 228.244H886.16V227.969Z" fill="white"/>
<path d="M1105.23 330.27C1090.71 330.27 1077 328.616 1063.85 325.031C1050.69 321.446 1040 317.31 1032.05 311.795L1047.95 276.776C1055.9 281.463 1065.22 285.324 1075.63 288.357C1086.32 291.39 1096.74 293.045 1106.88 293.045C1118.12 293.045 1126.06 291.666 1131 288.908C1135.66 286.151 1138.12 282.29 1138.12 277.603C1138.12 273.742 1136.21 270.709 1132.64 268.503C1129.08 266.573 1124.15 264.919 1118.12 263.816C1112.09 262.713 1105.51 261.61 1098.11 260.782C1090.71 259.679 1083.58 258.301 1076.18 256.37C1069.06 254.44 1062.2 251.683 1056.17 248.374C1049.87 244.789 1045.21 240.101 1041.37 234.035C1037.81 227.969 1035.89 219.972 1035.89 210.321C1035.89 199.567 1038.91 190.192 1045.21 181.643C1051.51 173.371 1060.28 166.753 1071.8 162.341C1083.58 157.378 1097.56 155.172 1114 155.172C1125.79 155.172 1137.58 156.551 1149.36 159.032C1161.15 161.79 1171.29 165.374 1179.24 170.062L1162.52 205.082C1154.57 200.394 1146.35 197.085 1138.12 195.155C1129.9 193.225 1121.95 192.397 1114.55 192.397C1103.32 192.397 1095.09 193.776 1090.16 196.809C1085.23 199.843 1082.76 203.427 1082.76 208.115C1082.76 212.251 1084.68 215.56 1088.52 217.766C1092.35 219.972 1097.29 221.627 1103.32 222.729C1109.35 223.832 1116.2 224.935 1123.32 225.763C1130.72 226.866 1137.85 228.244 1144.98 230.175C1152.1 232.105 1158.68 234.862 1164.98 238.171C1171.29 241.756 1175.95 246.444 1179.78 252.51C1183.35 258.576 1185.27 266.573 1185.27 276.224C1185.27 286.427 1182.25 295.802 1175.95 303.799C1169.64 311.795 1160.6 318.413 1148.81 322.825C1136.48 327.788 1121.95 330.27 1105.23 330.27Z" fill="white"/>
<path d="M1369.63 196.258C1361.92 183.298 1351.2 173.095 1338 165.926C1324.52 158.757 1309.67 155.172 1292.9 155.172C1275.57 155.172 1260.17 159.032 1246.42 166.477C1232.67 173.923 1221.94 184.401 1214.24 197.637C1206.54 210.872 1202.69 226.038 1202.69 242.859C1202.69 259.679 1206.54 274.845 1214.52 287.805C1222.49 301.041 1233.77 311.244 1248.34 318.965C1262.92 326.41 1279.69 330.27 1298.95 330.27C1314.35 330.27 1327.82 327.788 1339.65 323.101C1351.47 318.413 1361.1 311.519 1368.8 302.696L1342.67 274.294C1336.9 279.809 1330.85 283.945 1323.97 286.702C1317.1 289.46 1309.4 290.839 1300.6 290.839C1290.42 290.839 1281.62 288.908 1274.19 285.324C1266.77 281.739 1260.99 276.224 1256.87 269.33C1254.67 265.47 1253.02 261.334 1251.92 256.646H1380.08C1380.35 254.44 1380.35 252.234 1380.63 249.753C1380.9 247.271 1380.9 245.065 1380.9 243.135C1381.18 224.935 1377.33 209.218 1369.63 196.258ZM1251.37 227.969C1252.19 222.729 1253.84 217.766 1256.04 213.63C1259.62 207.012 1264.57 201.773 1270.89 198.188C1277.22 194.603 1284.64 192.673 1293.17 192.673C1301.7 192.673 1308.85 194.603 1315.17 198.188C1321.5 201.773 1326.45 207.012 1330.02 213.63C1332.5 218.042 1333.87 222.729 1334.7 228.244H1251.37V227.969Z" fill="white"/>
<path d="M1567.19 196.258C1559.52 183.298 1548.82 173.095 1535.66 165.926C1522.5 158.757 1507.69 155.172 1490.97 155.172C1473.69 155.172 1458.34 159.032 1444.63 166.477C1430.92 173.923 1420.23 184.401 1412.55 197.637C1404.87 210.872 1401.03 226.038 1401.03 242.859C1401.03 259.679 1405.15 274.845 1413.1 287.805C1421.05 301.041 1432.29 311.244 1446.82 318.965C1461.36 326.41 1478.08 330.27 1497.27 330.27C1512.63 330.27 1526.06 327.788 1537.86 323.101C1549.65 318.413 1559.24 311.519 1567.19 302.696L1541.15 274.294C1535.39 279.809 1529.36 283.945 1522.5 286.702C1515.65 289.46 1507.97 290.839 1499.19 290.839C1489.05 290.839 1480 288.908 1472.87 285.324C1465.47 281.739 1459.71 276.224 1455.6 269.33C1453.4 265.47 1451.48 261.334 1450.66 256.646H1578.44C1578.71 254.44 1578.71 252.234 1578.98 249.753C1579.26 247.271 1579.26 245.065 1579.26 243.135C1578.98 224.935 1575.15 209.218 1567.19 196.258ZM1449.57 227.969C1450.39 222.729 1452.03 217.766 1454.23 213.63C1457.79 207.012 1462.73 201.773 1469.03 198.188C1475.34 194.603 1482.74 192.673 1491.24 192.673C1499.47 192.673 1506.87 194.603 1513.18 198.188C1519.48 201.773 1524.42 207.012 1527.98 213.63C1530.45 218.042 1531.82 222.729 1532.65 228.244H1449.57V227.969Z" fill="white"/>
<defs>
<filter id="filter0_bdi_2001_3" x="0.463676" y="0.597757" width="587.557" height="512.514" filterUnits="userSpaceOnUse" color-interpolation-filters="sRGB">
<feFlood flood-opacity="0" result="BackgroundImageFix"/>
<feGaussianBlur in="BackgroundImageFix" stdDeviation="5.655"/>
<feComposite in2="SourceAlpha" operator="in" result="effect1_backgroundBlur_2001_3"/>
<feColorMatrix in="SourceAlpha" type="matrix" values="0 0 0 0 0 0 0 0 0 0 0 0 0 0 0 0 0 0 127 0" result="hardAlpha"/>
<feOffset dy="14.1341"/>
<feGaussianBlur stdDeviation="28.2682"/>
<feComposite in2="hardAlpha" operator="out"/>
<feColorMatrix type="matrix" values="0 0 0 0 0.686275 0 0 0 0 0.921569 0 0 0 0 0 0 0 0 0.35 0"/>
<feBlend mode="normal" in2="effect1_backgroundBlur_2001_3" result="effect2_dropShadow_2001_3"/>
<feBlend mode="normal" in="SourceGraphic" in2="effect2_dropShadow_2001_3" result="shape"/>
<feColorMatrix in="SourceAlpha" type="matrix" values="0 0 0 0 0 0 0 0 0 0 0 0 0 0 0 0 0 0 127 0" result="hardAlpha"/>
<feOffset/>
<feGaussianBlur stdDeviation="5.5"/>
<feComposite in2="hardAlpha" operator="arithmetic" k2="-1" k3="1"/>
<feColorMatrix type="matrix" values="0 0 0 0 0.897872 0 0 0 0 1 0 0 0 0 0.6 0 0 0 1 0"/>
<feBlend mode="normal" in2="shape" result="effect3_innerShadow_2001_3"/>
</filter>
</defs>
</svg>
