<svg width="584" height="509" viewBox="0 0 584 509" fill="none" xmlns="http://www.w3.org/2000/svg">
<g filter="url(#filter0_bdi_2001_12)">
<path d="M527 281.637C477.821 425.135 340.401 452.254 224.768 432.109C196.288 427.15 111.937 400.96 89.3709 329.211C87.3477 322.858 74.8974 281.017 95.7517 240.416C128.434 176.88 215.119 170.216 263.364 166.497C334.798 160.918 383.821 183.079 393.781 187.727C411.679 196.096 423.662 204.929 431.599 210.198C418.526 196.87 364.834 132.56 246.089 129.305C140.262 126.206 70.851 186.798 57 199.35C106.179 56.0065 243.599 28.7325 359.232 48.8781C387.712 53.837 472.063 80.0262 494.629 151.775C496.652 158.129 509.103 199.97 488.248 240.571C455.566 304.107 368.881 310.77 320.636 314.645C249.046 320.223 200.179 298.063 190.219 293.414C172.166 284.736 160.182 276.058 152.245 270.789C165.162 284.116 219.01 348.427 337.599 351.681C443.738 354.781 513.149 294.189 527 281.637Z" fill="#AFEB00"/>
</g>
<defs>
<filter id="filter0_bdi_2001_12" x="0.463676" y="0.597757" width="583.073" height="508.073" filterUnits="userSpaceOnUse" color-interpolation-filters="sRGB">
<feFlood flood-opacity="0" result="BackgroundImageFix"/>
<feGaussianBlur in="BackgroundImageFix" stdDeviation="5.655"/>
<feComposite in2="SourceAlpha" operator="in" result="effect1_backgroundBlur_2001_12"/>
<feColorMatrix in="SourceAlpha" type="matrix" values="0 0 0 0 0 0 0 0 0 0 0 0 0 0 0 0 0 0 127 0" result="hardAlpha"/>
<feOffset dy="14.1341"/>
<feGaussianBlur stdDeviation="28.2682"/>
<feComposite in2="hardAlpha" operator="out"/>
<feColorMatrix type="matrix" values="0 0 0 0 0.686275 0 0 0 0 0.921569 0 0 0 0 0 0 0 0 0.35 0"/>
<feBlend mode="normal" in2="effect1_backgroundBlur_2001_12" result="effect2_dropShadow_2001_12"/>
<feBlend mode="normal" in="SourceGraphic" in2="effect2_dropShadow_2001_12" result="shape"/>
<feColorMatrix in="SourceAlpha" type="matrix" values="0 0 0 0 0 0 0 0 0 0 0 0 0 0 0 0 0 0 127 0" result="hardAlpha"/>
<feOffset/>
<feGaussianBlur stdDeviation="5.5"/>
<feComposite in2="hardAlpha" operator="arithmetic" k2="-1" k3="1"/>
<feColorMatrix type="matrix" values="0 0 0 0 0.897872 0 0 0 0 1 0 0 0 0 0.6 0 0 0 1 0"/>
<feBlend mode="normal" in2="shape" result="effect3_innerShadow_2001_12"/>
</filter>
</defs>
</svg>
