<svg version="1.1" id="Layer_1" xmlns="http://www.w3.org/2000/svg" xmlns:xlink="http://www.w3.org/1999/xlink" x="0px" y="0px"
	 width="100%" viewBox="0 0 400 400" enable-background="new 0 0 400 400" xml:space="preserve">
<path fill="#8DD5FD" opacity="1.000000" stroke="none" 
	d="
M0.999999,231.000000 
	C1.000000,211.312439 1.000000,191.624878 1.341222,171.411804 
	C1.688492,170.523346 1.694541,170.160416 1.700589,169.797470 
	C1.467059,169.864975 1.233529,169.932480 1.000000,170.000000 
	C1.000000,169.555557 1.000000,169.111099 1.305632,168.714050 
	C2.757494,165.529968 4.245073,162.375458 4.993949,159.054367 
	C9.481894,139.151245 16.393303,120.204102 26.499048,102.433655 
	C37.376698,83.305855 51.058937,66.511162 67.398888,51.767265 
	C84.004555,36.783588 102.781654,25.325741 123.496628,16.218145 
	C134.243683,12.761249 144.606964,9.332559 155.304016,5.910325 
	C156.067673,5.809095 156.497543,5.701409 157.326538,5.662035 
	C162.950912,4.801831 168.193237,3.956873 173.391190,2.894847 
	C174.989777,2.568230 176.467133,1.648269 178.000000,1.000001 
	C193.020889,1.000000 208.041794,1.000000 223.604813,1.399877 
	C226.828537,2.303806 229.500092,2.870353 232.193176,3.302844 
	C317.800171,17.050636 384.156189,83.044418 398.175201,168.325714 
	C398.876190,172.590027 400.047638,176.777008 401.000000,181.000000 
	C401.000000,195.354233 401.000000,209.708450 400.576355,224.407059 
	C399.562225,227.473465 399.045074,230.213837 398.368774,232.914352 
	C395.211243,245.523254 392.009796,258.121185 388.544556,270.947998 
	C387.177826,274.114746 386.090515,277.056580 384.897888,280.134613 
	C384.792542,280.270844 384.777161,280.614899 384.517578,280.752380 
	C384.178162,281.261108 384.098297,281.632324 383.899231,282.124634 
	C383.779999,282.245728 383.744507,282.583710 383.487915,282.793640 
	C383.127747,283.648926 383.024200,284.294250 382.960327,284.969177 
	C383.000000,284.998779 382.922638,284.935822 382.639709,285.119843 
	C380.688843,288.892761 379.020935,292.481659 377.198242,296.243286 
	C377.043457,296.415985 376.925629,296.864655 376.621948,296.977448 
	C375.908569,298.063263 375.498871,299.036285 374.956024,300.139465 
	C374.822876,300.269592 374.779663,300.639435 374.525574,300.770752 
	C374.181396,301.260437 374.091309,301.618774 373.874756,302.075806 
	C373.748291,302.174500 373.725555,302.494507 373.433105,302.679871 
	C371.330872,305.859650 369.521088,308.854095 367.505188,311.981628 
	C367.085297,312.383606 366.986176,312.689575 366.718262,313.173767 
	C365.666290,314.549835 364.897705,315.784851 363.892639,317.226013 
	C363.112549,318.311981 362.568909,319.191833 361.720459,320.201324 
	C359.289337,323.223175 357.163055,326.115356 354.804901,329.125122 
	C354.395203,329.532654 354.217346,329.822632 353.725708,330.209778 
	C351.942871,332.205017 350.473755,334.103058 348.711884,336.158691 
	C345.617981,339.231018 342.816864,342.145782 339.735504,345.141083 
	C338.987518,345.818390 338.519775,346.415192 337.815979,347.110291 
	C337.391449,347.486053 337.202972,347.763550 336.708466,348.125366 
	C335.499634,349.075195 334.596832,349.940674 333.480652,350.861145 
	C332.992218,351.077087 332.836395,351.315826 332.511597,351.754456 
	C331.515198,352.595581 330.807037,353.314545 329.829041,354.146149 
	C329.032776,354.830933 328.506378,355.403076 327.638336,356.022827 
	C324.101837,358.606903 320.906952,361.143433 317.850281,363.839478 
	C317.988464,363.999023 317.719330,363.674408 317.394562,363.732666 
	C315.723022,364.861115 314.376221,365.931305 312.790436,367.048431 
	C312.214142,367.196747 311.984894,367.412781 311.554077,367.780487 
	C310.964172,368.109711 310.683838,368.401978 310.089783,368.798492 
	C295.841461,375.908936 281.906891,382.915100 267.594727,389.896301 
	C265.158722,390.632416 263.100372,391.393494 260.685730,392.180939 
	C259.909088,392.428101 259.488770,392.648956 258.744385,392.783081 
	C256.966156,393.193878 255.512024,393.691406 253.704651,394.189911 
	C252.922440,394.372253 252.493454,394.553650 251.803314,394.650574 
	C251.053146,394.784698 250.564102,395.003265 249.719513,395.203491 
	C248.931091,395.355591 248.498215,395.526001 247.680542,395.650482 
	C241.124924,396.731750 234.953217,397.854065 228.783646,398.988037 
	C225.187317,399.649048 221.594437,400.328705 218.000000,401.000000 
	C204.312439,401.000000 190.624878,401.000000 176.490997,400.608154 
	C175.625443,400.211426 175.206238,400.206543 174.787018,400.201630 
	C174.858017,400.467743 174.929016,400.733887 175.000000,401.000000 
	C173.933334,401.000000 172.866653,401.000000 171.755310,400.665009 
	C171.257339,399.855652 170.842117,399.011871 170.345261,398.960724 
	C156.548859,397.539673 143.515045,393.110748 130.636688,388.401581 
	C121.661507,385.119629 113.091461,380.729767 104.179626,376.541412 
	C103.018982,375.805237 102.019165,375.362488 100.956192,374.785065 
	C100.893044,374.650421 100.595787,374.639343 100.391678,374.355225 
	C96.800751,372.037109 93.413925,370.003113 89.877060,367.747192 
	C89.248482,367.300568 88.769958,367.075867 88.156219,366.557526 
	C87.101204,365.721619 86.181404,365.179291 85.225777,364.732239 
	C85.189949,364.827484 85.315102,364.666992 85.163017,364.419922 
	C84.334732,363.829315 83.658524,363.485779 82.897163,362.988037 
	C82.812012,362.833801 82.464134,362.777740 82.331688,362.483521 
	C81.469215,361.787933 80.739182,361.386627 80.004730,360.993286 
	C80.000305,361.001221 80.015457,360.989471 79.892685,360.702759 
	C78.905228,359.871674 78.040550,359.327301 77.147346,358.838196 
	C77.118813,358.893524 77.225586,358.829529 77.138054,358.563049 
	C76.722076,358.144043 76.393631,357.991547 75.930481,357.582153 
	C75.156494,356.902252 74.517204,356.479248 73.732040,355.765137 
	C71.722878,353.990753 69.859612,352.507507 67.848022,350.723389 
	C67.049866,349.904083 66.362587,349.425842 65.755547,348.861328 
	C34.813999,320.090027 14.630260,285.114594 5.103432,243.944763 
	C4.086170,239.548721 2.384286,235.311111 0.999999,231.000000 
M245.713852,96.192780 
	C234.456512,92.275650 223.083267,88.922897 210.343658,88.952339 
	C209.905457,88.958817 209.467270,88.965286 208.351196,88.525299 
	C190.285294,87.472008 173.326523,92.017128 156.718369,98.552200 
	C152.949463,100.035210 148.918640,100.852539 144.613510,101.544296 
	C144.058502,101.395866 143.503494,101.247444 142.438202,100.583046 
	C119.916321,92.773247 96.636238,93.095848 73.353394,94.638893 
	C65.801323,95.139404 58.368279,97.423874 50.878437,98.880249 
	C47.207462,99.594070 45.401371,101.936111 45.427700,105.540222 
	C45.462814,110.347382 45.651867,115.157806 45.927235,119.958076 
	C47.145672,141.198349 51.989456,161.531204 63.244461,179.723541 
	C66.567665,185.095108 66.170845,188.921814 63.995907,194.215775 
	C55.656673,214.514069 49.585823,235.363129 52.030834,257.715240 
	C53.304085,269.355225 57.296005,279.947266 65.000496,288.990204 
	C65.000496,288.990204 65.062363,288.964752 65.296692,289.561523 
	C66.508690,290.765900 67.720688,291.970306 69.115303,293.563354 
	C69.279961,293.811218 69.502396,293.985229 70.120758,294.644653 
	C71.415756,295.757843 72.710754,296.871033 73.999496,298.001801 
	C73.999496,298.001801 74.016830,297.993530 74.326691,298.588074 
	C83.793434,307.077515 95.091423,312.367065 106.949699,316.281616 
	C125.447433,322.388000 144.470963,326.110352 164.658340,326.993744 
	C165.102554,326.995239 165.546783,326.996735 166.674118,327.457031 
	C194.127167,329.683350 221.559158,329.478210 249.597015,326.742859 
	C250.401749,326.530701 251.206467,326.318573 252.821625,326.200043 
	C254.651291,325.904541 256.480957,325.609070 259.165985,325.326965 
	C279.571869,322.835052 299.469208,318.446259 317.906250,308.963226 
	C338.700256,298.267944 352.423309,282.074280 355.624237,258.354828 
	C357.683716,243.093765 355.131653,228.111725 350.523926,213.606995 
	C346.913147,202.240433 342.275574,191.200043 338.605103,179.575287 
	C351.200836,157.635483 356.073486,133.787216 356.101501,108.743698 
	C356.110657,100.574585 355.767578,99.762543 347.645874,97.994453 
	C317.184662,91.363083 286.923706,92.046761 256.272919,100.929886 
	C252.945389,99.495995 249.617874,98.062103 245.713852,96.192780 
z"/>
<path fill="#010203" opacity="1.000000" stroke="none" 
	d="
M401.000000,180.531342 
	C400.047638,176.777008 398.876190,172.590027 398.175201,168.325714 
	C384.156189,83.044418 317.800171,17.050636 232.193176,3.302844 
	C229.500092,2.870353 226.828537,2.303806 224.073471,1.399877 
	C282.927612,1.000000 341.855255,1.000000 401.000000,1.000000 
	C401.000000,60.687386 401.000000,120.375031 401.000000,180.531342 
z"/>
<path fill="#010202" opacity="1.000000" stroke="none" 
	d="
M100.595787,374.639343 
	C100.595787,374.639343 100.893044,374.650421 101.039856,375.140015 
	C102.237930,376.031311 103.289185,376.433075 104.340439,376.834808 
	C113.091461,380.729767 121.661507,385.119629 130.636688,388.401581 
	C143.515045,393.110748 156.548859,397.539673 170.345261,398.960724 
	C170.842117,399.011871 171.257339,399.855652 171.355316,400.665009 
	C114.406319,401.000000 57.812634,401.000000 1.000000,401.000000 
	C1.000000,344.645966 1.000000,288.291626 0.999999,231.468658 
	C2.384286,235.311111 4.086170,239.548721 5.103432,243.944763 
	C14.630260,285.114594 34.813999,320.090027 65.755547,348.861328 
	C66.362587,349.425842 67.049866,349.904083 67.843033,351.081024 
	C68.951324,354.541718 69.749817,357.571136 73.877930,356.056213 
	C74.517204,356.479248 75.156494,356.902252 76.040459,357.831482 
	C76.598625,358.501617 76.912102,358.665588 77.225586,358.829529 
	C77.225586,358.829529 77.118813,358.893524 77.169327,359.186432 
	C78.151703,359.982727 79.083580,360.486115 80.015457,360.989471 
	C80.015457,360.989471 80.000305,361.001221 80.081963,361.333313 
	C80.930458,362.036163 81.697296,362.406952 82.464134,362.777740 
	C82.464134,362.777740 82.812012,362.833801 82.971352,363.305634 
	C83.858833,364.073975 84.586967,364.370483 85.315109,364.666992 
	C85.315102,364.666992 85.189949,364.827484 85.293228,365.078735 
	C86.361473,365.837036 87.326454,366.344086 88.291428,366.851135 
	C88.769958,367.075867 89.248482,367.300568 89.832451,368.053772 
	C91.431427,373.245300 95.665497,375.651581 100.595787,374.639343 
z"/>
<path fill="#010103" opacity="1.000000" stroke="none" 
	d="
M156.927414,5.593724 
	C156.497543,5.701409 156.067673,5.809095 155.042999,5.710199 
	C144.578064,8.148289 134.693985,10.743787 124.864525,13.531919 
	C124.086578,13.752580 123.687836,15.310114 123.112854,16.246353 
	C102.781654,25.325741 84.004555,36.783588 67.398888,51.767265 
	C51.058937,66.511162 37.376698,83.305855 26.499048,102.433655 
	C16.393303,120.204102 9.481894,139.151245 4.993949,159.054367 
	C4.245073,162.375458 2.757494,165.529968 1.305632,168.380737 
	C1.000000,112.406540 1.000000,56.813076 1.000000,1.000000 
	C56.020699,1.000000 111.041695,1.000000 166.450256,1.362387 
	C163.534363,3.014425 160.230896,4.304074 156.927414,5.593724 
z"/>
<path fill="#010102" opacity="1.000000" stroke="none" 
	d="
M340.015747,345.060547 
	C342.816864,342.145782 345.617981,339.231018 349.070953,336.159302 
	C351.161713,334.039124 352.600616,332.075867 354.039490,330.112610 
	C354.217346,329.822632 354.395203,329.532654 355.176758,329.121521 
	C360.987640,328.210175 361.000549,323.787079 362.025299,320.071686 
	C362.568909,319.191833 363.112549,318.311981 364.254944,317.214050 
	C365.569672,315.674896 366.285675,314.353790 367.001678,313.032684 
	C366.986176,312.689575 367.085297,312.383606 367.896027,311.994690 
	C372.750061,310.149658 374.233765,306.877655 373.725555,302.494507 
	C373.725555,302.494507 373.748291,302.174500 374.106445,301.921326 
	C374.569611,301.325256 374.674652,300.982330 374.779663,300.639435 
	C374.779663,300.639435 374.822876,300.269592 375.251617,300.000122 
	C376.095459,298.775299 376.510559,297.819977 376.925659,296.864655 
	C376.925629,296.864655 377.043457,296.415985 377.511719,296.148407 
	C379.627563,292.232513 381.275116,288.584167 382.922638,284.935822 
	C382.922638,284.935822 383.000000,284.998779 383.209229,284.746124 
	C383.527161,283.856873 383.635834,283.220306 383.744507,282.583710 
	C383.744507,282.583710 383.779999,282.245728 384.116760,281.948425 
	C384.561401,281.305725 384.669281,280.960297 384.777161,280.614899 
	C384.777161,280.614899 384.792542,280.270844 385.249878,280.048340 
	C389.598083,277.768066 388.873108,274.129822 388.824036,270.723022 
	C392.009796,258.121185 395.211243,245.523254 398.368774,232.914352 
	C399.045074,230.213837 399.562225,227.473465 400.576355,224.875717 
	C401.000000,283.591766 401.000000,342.183533 401.000000,401.000000 
	C345.645966,401.000000 290.291656,401.000000 234.568604,400.634338 
	C235.347092,399.840088 236.479904,399.367004 237.644165,398.991333 
	C241.111252,397.872498 244.590698,396.791931 248.065323,395.696411 
	C248.498215,395.526001 248.931091,395.355591 249.860306,395.374786 
	C250.925903,395.287933 251.495178,395.011475 252.064453,394.735016 
	C252.493454,394.553650 252.922440,394.372253 253.919220,394.374084 
	C256.014130,393.994781 257.541290,393.432281 259.068420,392.869781 
	C259.488770,392.648956 259.909088,392.428101 260.946930,392.389587 
	C263.700409,391.688385 265.836365,390.804840 267.972351,389.921265 
	C281.906891,382.915100 295.841461,375.908936 310.403381,368.770844 
	C311.308380,368.340485 311.586060,368.041992 311.863708,367.743530 
	C311.984894,367.412781 312.214142,367.196747 313.147156,367.071594 
	C315.068329,365.923370 316.393829,364.798889 317.719330,363.674408 
	C317.719330,363.674408 317.988464,363.999023 318.215515,363.897247 
	C321.621704,361.188751 324.800842,358.582001 327.979980,355.975250 
	C328.506378,355.403076 329.032776,354.830933 330.185791,354.138947 
	C331.474915,353.223541 332.137390,352.427948 332.799866,351.632355 
	C332.836395,351.315826 332.992218,351.077087 333.767578,350.995117 
	C335.183411,350.063019 336.098969,349.052002 337.014526,348.041016 
	C337.202972,347.763550 337.391449,347.486053 338.125092,347.075256 
	C339.118774,346.314819 339.567261,345.687683 340.015747,345.060547 
z"/>
<path fill="#0E1929" opacity="1.000000" stroke="none" 
	d="
M247.680542,395.650482 
	C244.590698,396.791931 241.111252,397.872498 237.644165,398.991333 
	C236.479904,399.367004 235.347092,399.840088 234.099945,400.634338 
	C228.977905,401.000000 223.955811,401.000000 218.466858,401.000000 
	C221.594437,400.328705 225.187317,399.649048 228.783646,398.988037 
	C234.953217,397.854065 241.124924,396.731750 247.680542,395.650482 
z"/>
<path fill="#122534" opacity="1.000000" stroke="none" 
	d="
M157.326538,5.662035 
	C160.230896,4.304074 163.534363,3.014425 166.918915,1.362387 
	C170.361282,1.000000 173.722580,1.000000 177.541931,1.000001 
	C176.467133,1.648269 174.989777,2.568230 173.391190,2.894847 
	C168.193237,3.956873 162.950912,4.801831 157.326538,5.662035 
z"/>
<path fill="#010103" opacity="1.000000" stroke="none" 
	d="
M1.000000,170.250000 
	C1.233529,169.932480 1.467059,169.864975 1.700589,169.797470 
	C1.694541,170.160416 1.688492,170.523346 1.341222,170.943146 
	C1.000000,171.000000 1.000000,170.500000 1.000000,170.250000 
z"/>
<path fill="#010202" opacity="1.000000" stroke="none" 
	d="
M175.250000,401.000000 
	C174.929016,400.733887 174.858017,400.467743 174.787018,400.201630 
	C175.206238,400.206543 175.625443,400.211426 176.022339,400.608154 
	C176.000000,401.000000 175.500000,401.000000 175.250000,401.000000 
z"/>
<path fill="#268EFE" opacity="1.000000" stroke="none" 
	d="
M209.029068,88.971756 
	C209.467270,88.965286 209.905457,88.958817 210.789612,89.356239 
	C216.002518,90.418533 219.899612,94.625847 225.246170,93.108734 
	C226.251450,92.823463 227.517960,93.226517 228.609512,93.516655 
	C234.084213,94.971909 239.540833,96.495193 245.282730,98.152313 
	C247.013428,99.545563 248.465195,100.781082 249.988800,102.360306 
	C257.065063,113.305969 264.328949,123.748314 270.983002,134.565765 
	C275.445770,141.820877 279.043915,149.607803 282.881775,157.498810 
	C279.870850,158.608383 277.007141,159.375900 273.741302,160.139587 
	C263.669922,162.926590 253.952515,165.564590 244.355972,168.586395 
	C240.717056,169.732254 239.490005,172.320206 242.425903,175.669800 
	C242.384628,175.701996 242.362366,175.599686 242.482758,175.934692 
	C244.080322,176.141037 245.557465,176.012360 247.173492,175.811157 
	C247.312363,175.738632 247.625671,175.733902 248.059219,175.798691 
	C250.334213,175.170456 252.175644,174.477417 254.120316,173.718201 
	C254.223541,173.651993 254.455460,173.731842 254.865112,173.796722 
	C256.829010,173.189972 258.383301,172.518341 259.956451,171.891266 
	C259.975342,171.935822 259.892059,171.886505 260.263367,171.934174 
	C261.704498,171.555786 262.774292,171.129730 263.841003,170.669952 
	C263.837891,170.636230 263.893768,170.597961 264.162659,170.801270 
	C269.563751,169.192444 274.695984,167.380295 280.087158,165.448822 
	C280.904053,165.220612 281.461975,165.111725 282.249146,165.203705 
	C283.913513,165.264572 285.348633,165.124557 287.075500,165.192871 
	C290.731598,173.862396 294.515137,182.184723 297.373688,190.813492 
	C303.488373,209.270981 307.005432,228.204254 303.766724,247.673264 
	C297.777466,283.676697 276.967834,308.626312 244.542511,324.999451 
	C240.125046,325.242035 236.172638,325.529205 232.215454,325.714630 
	C224.132202,326.093353 216.046646,326.694092 207.961563,326.701477 
	C194.553162,326.713715 181.144531,326.318481 167.735291,326.151520 
	C167.157471,326.144318 166.572601,326.703125 165.990997,326.998230 
	C165.546783,326.996735 165.102554,326.995239 164.216980,326.593018 
	C162.320007,325.498779 160.921707,324.390930 159.399338,324.180450 
	C150.875427,323.001923 142.282211,322.283813 133.792450,320.914001 
	C128.594284,320.075287 123.598946,317.695953 118.401672,317.220734 
	C113.861420,316.805573 112.536507,315.051666 113.309937,310.751282 
	C118.335899,310.800049 123.047859,311.170349 127.767021,311.338196 
	C128.710602,311.371765 130.313065,310.814819 130.487717,310.207123 
	C130.731812,309.357880 130.162003,307.554199 129.511566,307.312317 
	C127.967781,306.738312 126.099113,306.456085 124.493263,306.757202 
	C121.524956,307.313873 118.972130,308.032166 116.369049,305.282684 
	C115.464798,304.327545 111.146729,304.656006 110.852211,305.388763 
	C108.960068,310.096313 104.675056,309.891876 100.613914,310.995880 
	C99.257690,310.540344 98.285797,310.090149 97.313904,309.639923 
	C98.189613,308.327209 99.065315,307.014526 100.163788,305.367859 
	C98.424141,305.367859 95.796707,304.668365 95.183304,305.483826 
	C91.757851,310.037781 88.977646,306.282318 87.344398,304.466461 
	C83.644684,300.353058 78.652557,299.710388 74.016830,297.993530 
	C74.016830,297.993530 73.999496,298.001801 73.989464,297.617584 
	C72.580498,296.184021 71.181564,295.134705 69.782623,294.085388 
	C69.502396,293.985229 69.279961,293.811218 69.042206,292.965698 
	C69.261948,289.402557 67.443741,288.860413 65.062363,288.964752 
	C65.062363,288.964752 65.000496,288.990204 65.009872,288.559692 
	C64.610840,286.419495 64.768608,284.125305 63.703487,283.093536 
	C55.921879,275.555542 56.448708,264.985229 54.415623,255.747025 
	C52.501354,247.048691 53.651279,237.628311 56.457500,228.664398 
	C58.308178,222.752701 58.323730,216.248184 60.320084,210.405136 
	C62.740948,203.319595 63.788490,195.508591 69.506454,189.752487 
	C70.433243,188.819534 70.666794,186.230133 70.065254,184.948914 
	C68.825897,182.309189 66.830620,180.018265 65.103264,177.614822 
	C57.664215,167.264236 53.606247,155.736740 53.000153,142.999817 
	C53.000000,143.000000 52.999695,143.000610 53.368568,143.000061 
	C54.475197,142.998260 55.212944,142.996994 56.039215,143.358521 
	C57.768559,148.793945 59.409386,153.866562 60.872360,159.248810 
	C60.139671,160.723724 59.584835,161.889008 58.750618,163.641052 
	C61.055809,163.800522 62.455635,163.897354 64.035583,164.300110 
	C65.961197,167.418747 67.702065,170.234344 69.453537,173.043335 
	C71.134941,175.739990 72.938591,175.141525 74.588654,173.087402 
	C75.514252,171.935165 76.192230,170.578094 76.937263,169.287613 
	C85.910797,153.744354 97.269325,140.189484 110.817787,128.432419 
	C114.991707,124.810387 119.006386,121.004852 123.853859,116.591515 
	C119.929070,115.049507 117.219391,113.850662 114.423309,112.908142 
	C96.355820,106.817810 77.652992,107.828468 58.847008,107.853760 
	C58.114571,108.040421 57.559746,108.413948 56.609665,108.863533 
	C55.118065,110.666229 53.180386,112.345161 53.079266,114.128250 
	C52.743015,120.057266 53.066700,126.023705 52.798340,132.115707 
	C47.098919,133.432846 48.446644,128.771210 48.213875,126.613045 
	C47.646725,121.354637 48.527950,115.910332 47.703865,110.719009 
	C47.080578,106.792641 47.236122,103.300453 50.607010,101.648682 
	C53.938343,100.016304 58.068317,98.195244 61.569107,102.231644 
	C62.040508,102.775154 63.491753,102.468842 64.901077,102.592049 
	C64.383652,100.467079 64.027382,99.003975 63.607624,97.280098 
	C67.783607,96.824173 71.546707,96.107452 75.318512,96.058296 
	C87.111145,95.904617 98.926643,95.597023 110.693947,96.164551 
	C117.171951,96.476967 123.552422,98.539207 130.012314,99.595764 
	C134.291855,100.295708 138.634232,100.611343 142.948486,101.099030 
	C143.503494,101.247444 144.058502,101.395866 144.919434,102.120476 
	C148.151199,102.685211 151.561249,103.660446 153.923767,102.501068 
	C168.491821,95.351860 183.579636,90.806068 199.961868,90.884537 
	C202.981140,90.899002 206.006516,89.641930 209.029068,88.971756 
M125.095306,226.723831 
	C126.026787,227.747604 126.958267,228.771378 127.889740,229.795151 
	C128.255188,229.459473 128.620636,229.123795 128.986084,228.788116 
	C128.293915,227.852005 127.601746,226.915894 126.932205,225.121719 
	C126.881660,224.550415 126.831116,223.979095 126.720909,223.177109 
	C126.720909,223.177109 126.907639,223.029099 127.599937,222.883087 
	C130.463486,219.442215 133.876694,216.214828 132.201202,210.454315 
	C132.456909,209.972244 132.712631,209.490189 133.580032,208.670044 
	C135.039886,205.766342 136.499756,202.862640 138.421402,200.442108 
	C138.856476,201.428589 139.291550,202.415070 139.774475,203.510056 
	C144.228577,199.043152 144.236725,195.268906 140.884415,192.022583 
	C146.641281,192.345245 152.396042,192.791245 158.156723,192.889191 
	C159.346146,192.909424 161.319077,191.847000 161.583115,190.905563 
	C161.994614,189.438370 161.253082,187.647812 161.000595,185.999405 
	C161.000595,185.999405 161.006424,185.997498 160.793320,185.282120 
	C156.575226,184.192490 152.337021,183.173340 148.149002,181.978302 
	C146.489807,181.504868 144.376251,181.069962 143.462067,179.864716 
	C141.593674,177.401413 143.630417,173.935333 146.875732,174.095947 
	C150.486984,174.274658 154.049911,175.392349 157.662338,175.595627 
	C160.598724,175.760849 164.304413,176.430634 164.950424,171.899261 
	C165.617996,167.216629 164.036728,165.646866 158.972504,164.971405 
	C154.781494,164.412415 150.640335,163.479462 145.807510,162.588791 
	C148.205353,154.651459 149.971985,147.241119 152.756424,140.235306 
	C154.182663,136.646851 156.433441,132.467773 161.953156,133.860825 
	C163.356110,139.231796 168.315079,140.092773 172.978043,142.962997 
	C172.774078,140.478943 172.645432,138.912216 172.556381,137.102066 
	C172.556381,137.102066 172.738907,136.936203 173.470306,136.810471 
	C173.573029,134.780838 174.446091,132.352890 173.639694,130.793350 
	C170.773529,125.250465 156.020111,123.705757 151.650955,128.245636 
	C151.247208,128.665161 151.239624,129.465942 151.009003,130.020401 
	C151.009003,130.020401 151.081100,130.054062 150.454178,130.092194 
	C150.027466,130.502762 149.600754,130.913330 149.208588,131.240005 
	C149.208588,131.240005 149.274063,131.302811 148.624603,131.071182 
	C147.594009,130.684875 146.563416,130.298569 144.811813,129.642014 
	C141.473373,137.760559 138.333878,145.691986 134.955215,153.520187 
	C132.119354,160.090729 127.977440,161.746857 121.010811,159.434143 
	C119.751198,159.015976 118.516899,157.996765 117.309807,158.055450 
	C114.866127,158.174225 110.757271,158.255905 110.361259,159.400192 
	C109.439690,162.063110 109.688377,165.586823 110.722809,168.277313 
	C111.234993,169.609497 114.494164,170.333847 116.578613,170.505356 
	C119.513687,170.746826 122.560051,169.833939 125.461548,170.195435 
	C126.765152,170.357864 128.399414,172.227325 128.860962,173.653229 
	C129.404388,175.332138 128.838882,177.369995 128.770950,178.880234 
	C122.002052,178.053757 115.850388,177.302643 109.300079,176.502853 
	C108.169868,177.350540 106.374184,178.697327 103.559258,180.808563 
	C105.297394,182.253082 106.824028,183.521835 108.703003,184.794922 
	C108.703003,184.794922 109.006294,184.974335 109.015656,185.765244 
	C109.963356,186.767487 110.849358,188.554504 111.869553,188.634720 
	C116.051140,188.963455 120.273628,188.772003 125.293510,188.772003 
	C123.606758,198.036819 121.980751,206.968002 120.354744,215.899200 
	C120.071167,215.891953 119.787590,215.884689 119.504013,215.877441 
	C119.112419,214.793259 118.720825,213.709076 118.329239,212.624893 
	C116.452728,217.795929 117.085945,224.518311 108.414215,224.133972 
	C107.934219,223.618988 107.196930,222.127151 106.117233,221.813309 
	C103.762825,221.128952 100.922058,220.220291 98.882263,220.993011 
	C97.430885,221.542847 95.979538,224.867233 96.302361,226.628067 
	C96.711731,228.860901 98.549324,231.992798 100.426041,232.556580 
	C104.461067,233.768753 109.042931,234.386993 113.159996,233.732529 
	C116.805771,233.152969 121.674156,232.902267 122.922615,227.285950 
	C123.068695,227.050003 123.132820,226.793579 123.748474,226.229324 
	C124.007797,225.853546 124.267128,225.477783 124.740265,225.321793 
	C124.740265,225.321793 124.998116,225.487747 124.952461,225.774063 
	C124.952461,225.774063 125.000862,226.061676 125.095306,226.723831 
M139.152954,300.430328 
	C142.075027,302.000702 144.886765,303.839081 147.938141,305.095459 
	C161.679153,310.753296 176.331253,312.099670 190.889969,312.767029 
	C203.813477,313.359375 216.918564,313.194763 229.747162,311.690247 
	C241.015961,310.368652 252.308502,307.577728 263.038879,303.848389 
	C272.162659,300.677429 278.773804,293.737457 276.865479,282.887390 
	C275.622162,275.818298 273.680145,268.599640 270.521729,262.203156 
	C265.684662,252.407013 257.703888,244.954727 248.927399,238.453293 
	C233.066147,226.703659 215.302231,220.076981 195.678314,223.344604 
	C167.708130,228.001999 146.287552,243.025940 134.567429,269.370758 
	C128.490463,283.030670 129.341843,291.327332 139.152954,300.430328 
M282.031128,183.735580 
	C277.442535,176.921127 269.679230,176.345062 265.914581,182.594528 
	C263.609894,186.420380 263.849640,190.253098 266.749298,193.635590 
	C269.734894,197.118378 273.656891,197.371216 277.624756,195.721542 
	C281.812164,193.980606 283.257172,190.165039 282.031128,183.735580 
M148.212601,107.126617 
	C147.212219,107.421715 146.211853,107.716812 144.248169,108.296082 
	C148.878296,110.231514 148.878296,110.231514 148.212601,107.126617 
M160.381516,106.253555 
	C159.994064,105.680664 159.606598,105.107773 159.219162,104.534889 
	C158.911087,104.840927 158.603012,105.146965 158.294922,105.452988 
	C158.847778,105.845665 159.400620,106.238335 160.381516,106.253555 
z"/>
<path fill="#0380F3" opacity="1.000000" stroke="none" 
	d="
M245.005417,324.997986 
	C276.967834,308.626312 297.777466,283.676697 303.766724,247.673264 
	C307.005432,228.204254 303.488373,209.270981 297.373688,190.813492 
	C294.515137,182.184723 290.731598,173.862396 287.360840,164.947357 
	C289.506165,163.321884 291.657959,162.150208 293.873535,160.725250 
	C293.969269,160.300766 294.001190,160.129593 294.211487,159.708710 
	C293.584625,157.773575 292.779388,156.088120 291.974182,154.402649 
	C291.006592,155.007080 290.039032,155.611511 288.812622,156.511505 
	C286.712189,156.923615 284.870544,157.040192 283.028931,157.156769 
	C279.043915,149.607803 275.445770,141.820877 270.983002,134.565765 
	C264.328949,123.748314 257.065063,113.305969 250.436234,102.354065 
	C252.880722,101.998222 254.949615,101.992340 257.400574,102.006508 
	C261.814423,103.867043 265.846924,105.705948 269.877808,107.548401 
	C274.583832,109.699440 279.288422,111.853577 284.002686,114.363533 
	C284.736053,115.751610 285.274597,117.008186 286.212219,117.779945 
	C303.131958,131.706894 317.988892,147.470444 329.768036,166.044861 
	C330.762939,167.613739 332.563263,168.671860 333.993744,170.358826 
	C335.363464,173.838501 336.728851,176.926620 338.094208,180.014740 
	C342.275574,191.200043 346.913147,202.240433 350.523926,213.606995 
	C355.131653,228.111725 357.683716,243.093765 355.624237,258.354828 
	C352.423309,282.074280 338.700256,298.267944 317.906250,308.963226 
	C299.469208,318.446259 279.571869,322.835052 258.315948,325.234192 
	C255.647675,325.463104 253.829422,325.784760 252.011185,326.106445 
	C251.206467,326.318573 250.401749,326.530701 249.026260,326.562744 
	C247.305481,325.921082 246.155457,325.459534 245.005417,324.997986 
z"/>
<path fill="#288FF9" opacity="1.000000" stroke="none" 
	d="
M338.349670,179.795013 
	C336.728851,176.926620 335.363464,173.838501 334.147278,170.051605 
	C344.489777,152.796371 348.849518,134.664642 349.040253,115.360367 
	C349.079926,111.346504 347.735413,109.235641 343.473755,108.796852 
	C323.297699,106.719444 303.402618,107.490784 283.993652,114.006371 
	C279.288422,111.853577 274.583832,109.699440 269.877808,107.548401 
	C265.846924,105.705948 261.814423,103.867043 257.389130,101.782394 
	C256.995636,101.538216 256.973114,101.089676 256.973114,101.089676 
	C286.923706,92.046761 317.184662,91.363083 347.645874,97.994453 
	C355.767578,99.762543 356.110657,100.574585 356.101501,108.743698 
	C356.073486,133.787216 351.200836,157.635483 338.349670,179.795013 
z"/>
<path fill="#2D91F4" opacity="1.000000" stroke="none" 
	d="
M55.950695,142.995728 
	C55.212944,142.996994 54.475197,142.998260 53.365028,142.622559 
	C52.542900,141.290497 52.093185,140.335373 51.643475,139.380264 
	C51.174286,139.749527 50.705101,140.118774 50.235916,140.488037 
	C51.157379,141.325241 52.078842,142.162430 53.000305,142.999634 
	C53.606247,155.736740 57.664215,167.264236 65.103264,177.614822 
	C66.830620,180.018265 68.825897,182.309189 70.065254,184.948914 
	C70.666794,186.230133 70.433243,188.819534 69.506454,189.752487 
	C63.788490,195.508591 62.740948,203.319595 60.320084,210.405136 
	C58.323730,216.248184 58.308178,222.752701 56.457500,228.664398 
	C53.651279,237.628311 52.501354,247.048691 54.415623,255.747025 
	C56.448708,264.985229 55.921879,275.555542 63.703487,283.093536 
	C64.768608,284.125305 64.610840,286.419495 65.028336,288.531799 
	C57.296005,279.947266 53.304085,269.355225 52.030834,257.715240 
	C49.585823,235.363129 55.656673,214.514069 63.995907,194.215775 
	C66.170845,188.921814 66.567665,185.095108 63.244461,179.723541 
	C51.989456,161.531204 47.145672,141.198349 45.927235,119.958076 
	C45.651867,115.157806 45.462814,110.347382 45.427700,105.540222 
	C45.401371,101.936111 47.207462,99.594070 50.878437,98.880249 
	C58.368279,97.423874 65.801323,95.139404 73.353394,94.638893 
	C96.636238,93.095848 119.916321,92.773247 142.693344,100.841034 
	C138.634232,100.611343 134.291855,100.295708 130.012314,99.595764 
	C123.552422,98.539207 117.171951,96.476967 110.693947,96.164551 
	C98.926643,95.597023 87.111145,95.904617 75.318512,96.058296 
	C71.546707,96.107452 67.783607,96.824173 63.607624,97.280098 
	C64.027382,99.003975 64.383652,100.467079 64.901077,102.592049 
	C63.491753,102.468842 62.040508,102.775154 61.569107,102.231644 
	C58.068317,98.195244 53.938343,100.016304 50.607010,101.648682 
	C47.236122,103.300453 47.080578,106.792641 47.703865,110.719009 
	C48.527950,115.910332 47.646725,121.354637 48.213875,126.613045 
	C48.446644,128.771210 47.098919,133.432846 53.021233,132.398529 
	C54.372330,136.026199 55.161510,139.510956 55.950695,142.995728 
z"/>
<path fill="#2D91F4" opacity="1.000000" stroke="none" 
	d="
M74.171761,298.290802 
	C78.652557,299.710388 83.644684,300.353058 87.344398,304.466461 
	C88.977646,306.282318 91.757851,310.037781 95.183304,305.483826 
	C95.796707,304.668365 98.424141,305.367859 100.163788,305.367859 
	C99.065315,307.014526 98.189613,308.327209 97.313904,309.639923 
	C98.285797,310.090149 99.257690,310.540344 100.844528,311.252075 
	C103.973320,312.009918 106.487183,312.506195 109.306175,312.936340 
	C110.075180,312.247192 110.539055,311.624207 111.335533,311.001617 
	C112.111580,311.001892 112.555023,311.001770 112.998466,311.001648 
	C112.536507,315.051666 113.861420,316.805573 118.401672,317.220734 
	C123.598946,317.695953 128.594284,320.075287 133.792450,320.914001 
	C142.282211,322.283813 150.875427,323.001923 159.399338,324.180450 
	C160.921707,324.390930 162.320007,325.498779 163.888977,326.530884 
	C144.470963,326.110352 125.447433,322.388000 106.949699,316.281616 
	C95.091423,312.367065 83.793434,307.077515 74.171761,298.290802 
z"/>
<path fill="#2D91F4" opacity="1.000000" stroke="none" 
	d="
M244.542511,324.999451 
	C246.155457,325.459534 247.305481,325.921082 248.712387,326.563599 
	C221.559158,329.478210 194.127167,329.683350 166.332550,327.227661 
	C166.572601,326.703125 167.157471,326.144318 167.735291,326.151520 
	C181.144531,326.318481 194.553162,326.713715 207.961563,326.701477 
	C216.046646,326.694092 224.132202,326.093353 232.215454,325.714630 
	C236.172638,325.529205 240.125046,325.242035 244.542511,324.999451 
z"/>
<path fill="#2D91F4" opacity="1.000000" stroke="none" 
	d="
M208.690125,88.748528 
	C206.006516,89.641930 202.981140,90.899002 199.961868,90.884537 
	C183.579636,90.806068 168.491821,95.351860 153.923767,102.501068 
	C151.561249,103.660446 148.151199,102.685211 145.116852,102.336464 
	C148.918640,100.852539 152.949463,100.035210 156.718369,98.552200 
	C173.326523,92.017128 190.285294,87.472008 208.690125,88.748528 
z"/>
<path fill="#2D91F4" opacity="1.000000" stroke="none" 
	d="
M245.003815,97.994576 
	C239.540833,96.495193 234.084213,94.971909 228.609512,93.516655 
	C227.517960,93.226517 226.251450,92.823463 225.246170,93.108734 
	C219.899612,94.625847 216.002518,90.418533 211.114258,89.410698 
	C223.083267,88.922897 234.456512,92.275650 245.761444,96.615982 
	C245.540619,97.357643 245.272217,97.676109 245.003815,97.994576 
z"/>
<path fill="#122534" opacity="1.000000" stroke="none" 
	d="
M123.496628,16.218147 
	C123.687836,15.310114 124.086578,13.752580 124.864525,13.531919 
	C134.693985,10.743787 144.578064,8.148289 154.709229,5.703743 
	C144.606964,9.332559 134.243683,12.761249 123.496628,16.218147 
z"/>
<path fill="#1282E3" opacity="1.000000" stroke="none" 
	d="
M245.282730,98.152313 
	C245.272217,97.676109 245.540619,97.357643 246.049683,96.833702 
	C249.617874,98.062103 252.945389,99.495995 256.623016,101.009781 
	C256.973114,101.089676 256.995636,101.538216 257.007080,101.762329 
	C254.949615,101.992340 252.880722,101.998222 250.364410,102.010353 
	C248.465195,100.781082 247.013428,99.545563 245.282730,98.152313 
z"/>
<path fill="#0F1821" opacity="1.000000" stroke="none" 
	d="
M100.391678,374.355225 
	C95.665497,375.651581 91.431427,373.245300 89.982498,368.275696 
	C93.413925,370.003113 96.800751,372.037109 100.391678,374.355225 
z"/>
<path fill="#0D1B25" opacity="1.000000" stroke="none" 
	d="
M373.433105,302.679871 
	C374.233765,306.877655 372.750061,310.149658 368.102173,311.861542 
	C369.521088,308.854095 371.330872,305.859650 373.433105,302.679871 
z"/>
<path fill="#111D29" opacity="1.000000" stroke="none" 
	d="
M327.638336,356.022827 
	C324.800842,358.582001 321.621704,361.188751 318.077332,363.737701 
	C320.906952,361.143433 324.101837,358.606903 327.638336,356.022827 
z"/>
<path fill="#101A25" opacity="1.000000" stroke="none" 
	d="
M361.720459,320.201324 
	C361.000549,323.787079 360.987640,328.210175 355.408630,329.003967 
	C357.163055,326.115356 359.289337,323.223175 361.720459,320.201324 
z"/>
<path fill="#132634" opacity="1.000000" stroke="none" 
	d="
M382.639709,285.119843 
	C381.275116,288.584167 379.627563,292.232513 377.666504,295.975708 
	C379.020935,292.481659 380.688843,288.892761 382.639709,285.119843 
z"/>
<path fill="#132634" opacity="1.000000" stroke="none" 
	d="
M388.544586,270.947998 
	C388.873108,274.129822 389.598083,277.768066 385.355225,279.912109 
	C386.090515,277.056580 387.177826,274.114746 388.544586,270.947998 
z"/>
<path fill="#0F1821" opacity="1.000000" stroke="none" 
	d="
M73.732040,355.765137 
	C69.749817,357.571136 68.951324,354.541718 67.991348,351.381866 
	C69.859612,352.507507 71.722878,353.990753 73.732040,355.765137 
z"/>
<path fill="#101A25" opacity="1.000000" stroke="none" 
	d="
M353.725708,330.209778 
	C352.600616,332.075867 351.161713,334.039124 349.363739,336.001740 
	C350.473755,334.103058 351.942871,332.205017 353.725708,330.209778 
z"/>
<path fill="#0E1929" opacity="1.000000" stroke="none" 
	d="
M267.594727,389.896301 
	C265.836365,390.804840 263.700409,391.688385 261.303223,392.363281 
	C263.100372,391.393494 265.158722,390.632416 267.594727,389.896301 
z"/>
<path fill="#2D91F4" opacity="1.000000" stroke="none" 
	d="
M65.179527,289.263123 
	C67.443741,288.860413 69.261948,289.402557 68.950897,292.771362 
	C67.720688,291.970306 66.508690,290.765900 65.179527,289.263123 
z"/>
<path fill="#2D91F4" opacity="1.000000" stroke="none" 
	d="
M69.951691,294.365021 
	C71.181564,295.134705 72.580498,296.184021 73.992592,297.608795 
	C72.710754,296.871033 71.415756,295.757843 69.951691,294.365021 
z"/>
<path fill="#0D1B25" opacity="1.000000" stroke="none" 
	d="
M366.718262,313.173767 
	C366.285675,314.353790 365.569672,315.674896 364.491394,317.007935 
	C364.897705,315.784851 365.666290,314.549835 366.718262,313.173767 
z"/>
<path fill="#0E1929" opacity="1.000000" stroke="none" 
	d="
M258.744385,392.783081 
	C257.541290,393.432281 256.014130,393.994781 254.272430,394.373108 
	C255.512024,393.691406 256.966156,393.193878 258.744385,392.783081 
z"/>
<path fill="#111D29" opacity="1.000000" stroke="none" 
	d="
M317.394562,363.732666 
	C316.393829,364.798889 315.068329,365.923370 313.386108,367.024658 
	C314.376221,365.931305 315.723022,364.861115 317.394562,363.732666 
z"/>
<path fill="#101A25" opacity="1.000000" stroke="none" 
	d="
M336.708466,348.125366 
	C336.098969,349.052002 335.183411,350.063019 333.980957,350.940063 
	C334.596832,349.940674 335.499634,349.075195 336.708466,348.125366 
z"/>
<path fill="#0F1821" opacity="1.000000" stroke="none" 
	d="
M104.179619,376.541412 
	C103.289185,376.433075 102.237930,376.031311 101.103012,375.274658 
	C102.019165,375.362488 103.018982,375.805237 104.179619,376.541412 
z"/>
<path fill="#2D91F4" opacity="1.000000" stroke="none" 
	d="
M252.416412,326.153229 
	C253.829422,325.784760 255.647675,325.463104 257.888245,325.227509 
	C256.480957,325.609070 254.651291,325.904541 252.416412,326.153229 
z"/>
<path fill="#0F1821" opacity="1.000000" stroke="none" 
	d="
M88.156219,366.557526 
	C87.326454,366.344086 86.361473,365.837036 85.329056,364.983521 
	C86.181404,365.179291 87.101204,365.721619 88.156219,366.557526 
z"/>
<path fill="#0F1821" opacity="1.000000" stroke="none" 
	d="
M79.892685,360.702759 
	C79.083580,360.486115 78.151703,359.982727 77.197861,359.131104 
	C78.040550,359.327301 78.905228,359.871674 79.892685,360.702759 
z"/>
<path fill="#111D29" opacity="1.000000" stroke="none" 
	d="
M332.511597,351.754456 
	C332.137390,352.427948 331.474915,353.223541 330.455688,354.026337 
	C330.807037,353.314545 331.515198,352.595581 332.511597,351.754456 
z"/>
<path fill="#132634" opacity="1.000000" stroke="none" 
	d="
M376.621948,296.977448 
	C376.510559,297.819977 376.095459,298.775299 375.384766,299.869965 
	C375.498871,299.036285 375.908569,298.063263 376.621948,296.977448 
z"/>
<path fill="#0F1821" opacity="1.000000" stroke="none" 
	d="
M85.163025,364.419891 
	C84.586967,364.370483 83.858833,364.073975 83.056503,363.459839 
	C83.658524,363.485779 84.334732,363.829315 85.163025,364.419891 
z"/>
<path fill="#0F1821" opacity="1.000000" stroke="none" 
	d="
M82.331688,362.483521 
	C81.697296,362.406952 80.930458,362.036163 80.086380,361.325348 
	C80.739182,361.386627 81.469215,361.787933 82.331688,362.483521 
z"/>
<path fill="#0E1929" opacity="1.000000" stroke="none" 
	d="
M251.803314,394.650574 
	C251.495178,395.011475 250.925903,395.287933 250.215851,395.393127 
	C250.564102,395.003265 251.053146,394.784698 251.803314,394.650574 
z"/>
<path fill="#101A25" opacity="1.000000" stroke="none" 
	d="
M339.735474,345.141052 
	C339.567261,345.687683 339.118774,346.314819 338.361145,346.976990 
	C338.519775,346.415192 338.987518,345.818390 339.735474,345.141052 
z"/>
<path fill="#132634" opacity="1.000000" stroke="none" 
	d="
M383.487915,282.793640 
	C383.635834,283.220306 383.527161,283.856873 383.169556,284.716553 
	C383.024200,284.294250 383.127747,283.648926 383.487915,282.793640 
z"/>
<path fill="#111D29" opacity="1.000000" stroke="none" 
	d="
M311.554077,367.780487 
	C311.586060,368.041992 311.308380,368.340485 310.717133,368.666595 
	C310.683838,368.401978 310.964172,368.109711 311.554077,367.780487 
z"/>
<path fill="#0F1821" opacity="1.000000" stroke="none" 
	d="
M77.138054,358.563049 
	C76.912102,358.665588 76.598625,358.501617 76.175156,358.088348 
	C76.393631,357.991547 76.722076,358.144043 77.138054,358.563049 
z"/>
<path fill="#132634" opacity="1.000000" stroke="none" 
	d="
M374.525574,300.770752 
	C374.674652,300.982330 374.569611,301.325256 374.232910,301.822632 
	C374.091309,301.618774 374.181396,301.260437 374.525574,300.770752 
z"/>
<path fill="#132634" opacity="1.000000" stroke="none" 
	d="
M384.517578,280.752380 
	C384.669281,280.960297 384.561401,281.305725 384.235992,281.827332 
	C384.098297,281.632324 384.178162,281.261108 384.517578,280.752380 
z"/>
<path fill="#5CB1FD" opacity="1.000000" stroke="none" 
	d="
M138.869904,300.203430 
	C129.341843,291.327332 128.490463,283.030670 134.567429,269.370758 
	C146.287552,243.025940 167.708130,228.001999 195.678314,223.344604 
	C215.302231,220.076981 233.066147,226.703659 248.927399,238.453293 
	C257.703888,244.954727 265.684662,252.407013 270.521729,262.203156 
	C273.680145,268.599640 275.622162,275.818298 276.865479,282.887390 
	C278.773804,293.737457 272.162659,300.677429 263.038879,303.848389 
	C252.308502,307.577728 241.015961,310.368652 229.747162,311.690247 
	C216.918564,313.194763 203.813477,313.359375 190.889969,312.767029 
	C176.331253,312.099670 161.679153,310.753296 147.938141,305.095459 
	C144.886765,303.839081 142.075027,302.000702 138.869904,300.203430 
M171.397507,253.780731 
	C164.921555,258.280579 160.840637,268.654846 162.958664,275.205811 
	C164.196533,279.034393 166.623886,281.552765 170.765472,281.864807 
	C174.712402,282.162140 177.504715,279.737885 178.137711,276.382965 
	C179.223083,270.630463 179.817291,264.669037 179.614166,258.830261 
	C179.477203,254.892838 176.419907,252.775848 171.397507,253.780731 
M229.068695,257.939941 
	C227.394409,264.088348 227.557098,270.156494 230.184387,276.004913 
	C231.845566,279.702820 234.255066,282.776001 238.940384,281.763947 
	C243.399948,280.800659 245.686569,277.574219 246.077591,273.202789 
	C246.638824,266.928406 244.474854,261.329620 240.664658,256.508453 
	C237.047729,251.931793 232.978561,252.330261 229.068695,257.939941 
z"/>
<path fill="#0271C8" opacity="1.000000" stroke="none" 
	d="
M56.039215,143.358521 
	C55.161510,139.510956 54.372330,136.026199 53.360256,132.258606 
	C53.066700,126.023705 52.743015,120.057266 53.079266,114.128250 
	C53.180386,112.345161 55.118065,110.666229 56.891888,108.875221 
	C58.054447,108.554115 58.539532,108.297363 59.024616,108.040619 
	C77.652992,107.828468 96.355820,106.817810 114.423309,112.908142 
	C117.219391,113.850662 119.929070,115.049507 123.853859,116.591515 
	C119.006386,121.004852 114.991707,124.810387 110.817787,128.432419 
	C97.269325,140.189484 85.910797,153.744354 76.937263,169.287613 
	C76.192230,170.578094 75.514252,171.935165 74.588654,173.087402 
	C72.938591,175.141525 71.134941,175.739990 69.453537,173.043335 
	C67.702065,170.234344 65.961197,167.418747 64.021790,163.970703 
	C62.901989,161.869980 61.976101,160.404572 61.050217,158.939178 
	C59.409386,153.866562 57.768559,148.793945 56.039215,143.358521 
z"/>
<path fill="#EEFAFC" opacity="1.000000" stroke="none" 
	d="
M124.998116,225.487747 
	C124.998116,225.487747 124.740265,225.321793 124.313416,225.353577 
	C123.629379,225.762466 123.372185,226.139572 123.114990,226.516663 
	C123.132820,226.793579 123.068695,227.050003 122.567825,227.577942 
	C121.174156,228.265182 120.135284,228.660416 118.754875,228.963867 
	C117.928680,227.886978 117.444031,226.901855 117.147057,225.628647 
	C124.566277,214.608994 124.449356,201.688141 127.791229,189.800842 
	C127.974113,189.150299 126.552406,187.359955 125.691734,187.216705 
	C120.158821,186.295609 114.574043,185.686157 109.006294,184.974335 
	C109.006294,184.974335 108.703003,184.794922 108.468872,184.391769 
	C107.609985,180.045029 109.053352,178.320847 113.176529,179.219528 
	C115.275131,179.676941 117.417007,179.984192 119.555321,180.202927 
	C131.102219,181.384125 129.307251,183.850266 131.869308,171.215866 
	C131.924973,170.941422 131.696930,170.609451 131.397247,169.653793 
	C126.036453,168.799484 120.334671,168.083847 114.741730,166.867661 
	C113.291862,166.552383 112.182678,164.670425 110.917007,163.508087 
	C112.326073,162.597061 113.762154,160.880051 115.139137,160.926193 
	C119.259575,161.064301 123.421150,161.609161 127.446945,162.522766 
	C132.455917,163.659485 134.885178,162.225403 136.027176,156.981750 
	C138.130066,147.326080 141.910385,138.338638 149.274063,131.302811 
	C149.274063,131.302811 149.208588,131.240005 149.488007,131.228455 
	C150.205322,130.829300 150.643219,130.441681 151.081100,130.054062 
	C151.081100,130.054062 151.009003,130.020401 151.293457,130.058472 
	C151.922531,130.023773 152.267166,129.951035 152.875092,129.827682 
	C153.418457,129.564484 153.698502,129.351883 154.177811,129.037720 
	C154.377075,128.936157 154.824249,128.925552 155.124268,128.930267 
	C155.940369,128.670471 156.456482,128.405945 157.413513,128.024246 
	C160.576385,127.979927 163.298325,128.052780 166.223480,128.321045 
	C166.783020,128.631699 167.139359,128.746933 167.737488,128.843109 
	C168.380249,129.067886 168.781219,129.311768 169.151459,129.953827 
	C169.627914,131.974854 170.135101,133.597687 170.779083,135.658295 
	C168.891785,135.792587 167.447983,135.895309 166.002090,135.999023 
	C166.000000,136.000000 166.001114,135.995300 165.894958,135.790436 
	C165.608490,135.328293 165.379074,135.126984 164.843140,134.811401 
	C164.070496,134.011108 163.555283,133.381012 162.925629,132.588593 
	C162.632568,132.224167 162.418884,132.070908 161.836472,131.873016 
	C160.377396,131.534744 159.252014,131.289948 157.959442,131.056610 
	C157.572052,131.111267 157.369095,131.195816 156.885818,131.514740 
	C156.370377,131.799561 156.152481,131.891357 155.748611,132.084839 
	C155.328918,132.355637 155.149490,132.570175 154.859360,133.058716 
	C154.410522,133.531891 154.126694,133.776443 153.661377,134.140045 
	C153.255722,134.454132 153.094681,134.691925 153.002396,134.987244 
	C153.007980,135.001953 152.976624,134.999039 152.771545,135.133957 
	C152.313858,135.492706 152.140747,135.766785 152.038605,136.056366 
	C152.030075,136.021652 152.100235,136.035431 151.857300,136.205719 
	C151.410919,136.917160 151.207474,137.458298 151.002319,137.999741 
	C151.000610,138.000031 151.001160,138.004501 150.627594,138.075409 
	C149.541641,140.525208 148.829269,142.904099 148.125244,145.472321 
	C148.133575,145.661667 147.959656,145.998474 147.727524,146.254669 
	C147.360733,147.411652 147.226074,148.312439 147.097443,149.503708 
	C146.823517,150.501663 146.543579,151.209137 145.971832,152.181168 
	C145.490128,153.721344 145.300262,154.996933 145.120422,156.576965 
	C145.009750,157.266617 144.889084,157.651855 144.593567,158.243744 
	C144.327255,158.798950 144.235794,159.147461 144.199677,159.619629 
	C144.255005,159.743256 144.116028,159.975784 143.856567,160.219666 
	C143.429230,161.379379 143.261368,162.295181 143.176544,163.519806 
	C143.865646,164.364792 144.471695,164.900986 145.281830,165.569061 
	C145.792419,165.834991 146.112244,165.886581 146.724487,165.839813 
	C147.354019,165.944794 147.704453,166.065689 148.361099,166.402756 
	C150.199158,166.710754 151.731018,166.802582 153.663300,166.889832 
	C155.389969,167.022644 156.716202,167.160019 158.260071,167.454498 
	C158.827560,167.683884 159.177414,167.756149 159.840805,167.788971 
	C160.765823,167.902267 161.377304,168.055008 162.048843,168.494415 
	C162.479279,169.214035 162.849670,169.647018 163.196564,170.448242 
	C162.973267,171.521866 162.773468,172.227234 162.260315,172.869293 
	C160.604843,172.930969 159.262726,173.055984 157.509659,173.179565 
	C155.741104,173.009918 154.383499,172.841705 152.865723,172.338348 
	C150.070847,171.696869 147.436127,171.390518 144.435394,171.129639 
	C139.616928,172.577255 141.506699,176.749176 140.670578,179.622604 
	C140.365601,180.670700 142.119217,183.390533 143.263382,183.607285 
	C149.118500,184.716629 155.081284,185.257736 161.006424,185.997498 
	C161.006424,185.997498 161.000595,185.999405 161.064285,186.396820 
	C161.323761,191.086258 159.248077,192.161743 155.233429,191.457428 
	C149.891434,190.520264 144.471329,190.028229 138.803345,189.309265 
	C136.797592,196.080612 134.882965,202.544373 132.968338,209.008118 
	C132.712631,209.490189 132.456909,209.972244 131.986496,210.951385 
	C131.454544,211.974869 131.137299,212.501251 130.543594,213.218933 
	C129.862900,214.651474 129.458664,215.892731 129.039810,217.371231 
	C129.025208,217.608475 128.808960,218.031845 128.628662,218.208527 
	C128.333847,218.699265 128.219345,219.013306 128.072266,219.653961 
	C127.662331,220.996765 127.284981,222.012924 126.907639,223.029099 
	C126.907639,223.029099 126.720909,223.177109 126.444504,223.469299 
	C125.778099,224.336914 125.388107,224.912323 124.998116,225.487747 
z"/>
<path fill="#3D93EA" opacity="1.000000" stroke="none" 
	d="
M109.010971,185.369781 
	C114.574043,185.686157 120.158821,186.295609 125.691734,187.216705 
	C126.552406,187.359955 127.974113,189.150299 127.791229,189.800842 
	C124.449356,201.688141 124.566277,214.608994 116.815506,225.758301 
	C113.865913,227.143311 111.435532,228.110580 108.692184,228.930298 
	C105.462990,226.872360 104.657021,221.389221 99.448891,223.252869 
	C97.364998,230.177185 101.308701,231.365997 109.389450,232.067902 
	C112.886002,231.156845 115.991203,230.106247 119.096405,229.055664 
	C120.135284,228.660416 121.174156,228.265182 122.538857,227.776596 
	C121.674156,232.902267 116.805771,233.152969 113.159996,233.732529 
	C109.042931,234.386993 104.461067,233.768753 100.426041,232.556580 
	C98.549324,231.992798 96.711731,228.860901 96.302361,226.628067 
	C95.979538,224.867233 97.430885,221.542847 98.882263,220.993011 
	C100.922058,220.220291 103.762825,221.128952 106.117233,221.813309 
	C107.196930,222.127151 107.934219,223.618988 108.414215,224.133972 
	C117.085945,224.518311 116.452728,217.795929 118.329239,212.624893 
	C118.720825,213.709076 119.112419,214.793259 119.504013,215.877441 
	C119.787590,215.884689 120.071167,215.891953 120.354744,215.899200 
	C121.980751,206.968002 123.606758,198.036819 125.293510,188.772003 
	C120.273628,188.772003 116.051140,188.963455 111.869553,188.634720 
	C110.849358,188.554504 109.963356,186.767487 109.010971,185.369781 
z"/>
<path fill="#E1F8FE" opacity="1.000000" stroke="none" 
	d="
M282.881775,157.498825 
	C284.870544,157.040192 286.712189,156.923615 289.182861,156.478455 
	C291.219025,157.419373 292.626068,158.688889 294.033112,159.958405 
	C294.001190,160.129593 293.969269,160.300766 293.506378,160.751068 
	C289.390259,162.354416 285.705048,163.678619 282.019867,165.002838 
	C281.461975,165.111725 280.904053,165.220612 279.683929,165.482208 
	C273.979065,167.289261 268.936401,168.943604 263.893768,170.597961 
	C263.893768,170.597961 263.837891,170.636230 263.483276,170.671356 
	C262.049805,171.099838 260.970917,171.493179 259.892059,171.886505 
	C259.892059,171.886505 259.975342,171.935822 259.588684,171.890076 
	C257.619843,172.473495 256.037659,173.102676 254.455460,173.731842 
	C254.455460,173.731842 254.223541,173.651993 253.733810,173.704895 
	C251.371277,174.416504 249.498474,175.075211 247.625671,175.733917 
	C247.625671,175.733902 247.312363,175.738632 246.773712,175.779999 
	C244.944168,175.747467 243.653259,175.673584 242.362366,175.599686 
	C242.362366,175.599686 242.384628,175.701996 242.391602,175.285828 
	C241.310471,171.972549 242.622681,170.766052 245.369019,169.989639 
	C252.040726,168.103561 258.671814,166.057281 265.253937,163.878174 
	C268.295837,162.871124 271.184998,161.402679 274.143402,160.143417 
	C277.007141,159.375900 279.870850,158.608383 282.881775,157.498825 
z"/>
<path fill="#4294E7" opacity="1.000000" stroke="none" 
	d="
M148.949341,131.186996 
	C141.910385,138.338638 138.130066,147.326080 136.027176,156.981750 
	C134.885178,162.225403 132.455917,163.659485 127.446945,162.522766 
	C123.421150,161.609161 119.259575,161.064301 115.139137,160.926193 
	C113.762154,160.880051 112.326073,162.597061 110.917007,163.508087 
	C112.182678,164.670425 113.291862,166.552383 114.741730,166.867661 
	C120.334671,168.083847 126.036453,168.799484 131.397247,169.653793 
	C131.696930,170.609451 131.924973,170.941422 131.869308,171.215866 
	C129.307251,183.850266 131.102219,181.384125 119.555321,180.202927 
	C117.417007,179.984192 115.275131,179.676941 113.176529,179.219528 
	C109.053352,178.320847 107.609985,180.045029 108.292694,184.389587 
	C106.824028,183.521835 105.297394,182.253082 103.559258,180.808563 
	C106.374184,178.697327 108.169868,177.350540 109.300079,176.502853 
	C115.850388,177.302643 122.002052,178.053757 128.770950,178.880234 
	C128.838882,177.369995 129.404388,175.332138 128.860962,173.653229 
	C128.399414,172.227325 126.765152,170.357864 125.461548,170.195435 
	C122.560051,169.833939 119.513687,170.746826 116.578613,170.505356 
	C114.494164,170.333847 111.234993,169.609497 110.722809,168.277313 
	C109.688377,165.586823 109.439690,162.063110 110.361259,159.400192 
	C110.757271,158.255905 114.866127,158.174225 117.309807,158.055450 
	C118.516899,157.996765 119.751198,159.015976 121.010811,159.434143 
	C127.977440,161.746857 132.119354,160.090729 134.955215,153.520187 
	C138.333878,145.691986 141.473373,137.760559 144.811813,129.642014 
	C146.563416,130.298569 147.594009,130.684875 148.949341,131.186996 
z"/>
<path fill="#EBF8FB" opacity="1.000000" stroke="none" 
	d="
M282.169556,184.094788 
	C283.257172,190.165039 281.812164,193.980606 277.624756,195.721542 
	C273.656891,197.371216 269.734894,197.118378 266.749298,193.635590 
	C263.849640,190.253098 263.609894,186.420380 265.914581,182.594528 
	C269.679230,176.345062 277.442535,176.921127 282.169556,184.094788 
z"/>
<path fill="#4294E7" opacity="1.000000" stroke="none" 
	d="
M146.263641,151.916595 
	C146.543579,151.209137 146.823517,150.501663 147.306030,149.230087 
	C147.658951,147.776810 147.809311,146.887650 147.959656,145.998474 
	C147.959656,145.998474 148.133575,145.661667 148.369934,145.205261 
	C149.404587,142.500732 150.202866,140.252609 151.001160,138.004501 
	C151.001160,138.004501 151.000610,138.000031 151.240173,137.827759 
	C151.686554,137.115448 151.893387,136.575439 152.100235,136.035431 
	C152.100235,136.035431 152.030075,136.021652 152.276932,135.957825 
	C152.674728,135.595673 152.825684,135.297348 152.976624,134.999039 
	C152.976624,134.999039 153.007980,135.001953 153.210419,134.895966 
	C153.682877,134.604492 153.826218,134.348175 153.842850,134.020996 
	C154.126694,133.776443 154.410522,133.531891 155.076691,133.002182 
	C155.738556,132.550858 155.897079,132.306229 155.934586,131.983170 
	C156.152481,131.891357 156.370377,131.799561 157.059296,131.569656 
	C157.797714,131.408859 157.996490,131.280060 158.126648,131.045151 
	C159.252014,131.289948 160.377396,131.534744 161.832977,132.078339 
	C162.163208,132.377121 162.202652,132.785889 162.105469,132.883408 
	C162.008270,132.980927 161.810059,133.172073 161.810059,133.172073 
	C156.433441,132.467773 154.182663,136.646851 152.756424,140.235306 
	C149.971985,147.241119 148.205353,154.651459 145.807510,162.588791 
	C150.640335,163.479462 154.781494,164.412415 158.972504,164.971405 
	C164.036728,165.646866 165.617996,167.216629 164.950424,171.899261 
	C164.304413,176.430634 160.598724,175.760849 157.662338,175.595627 
	C154.049911,175.392349 150.486984,174.274658 146.875732,174.095947 
	C143.630417,173.935333 141.593674,177.401413 143.462067,179.864716 
	C144.376251,181.069962 146.489807,181.504868 148.149002,181.978302 
	C152.337021,183.173340 156.575226,184.192490 160.899872,185.639801 
	C155.081284,185.257736 149.118500,184.716629 143.263382,183.607285 
	C142.119217,183.390533 140.365601,180.670700 140.670578,179.622604 
	C141.506699,176.749176 139.616928,172.577255 144.748520,171.357178 
	C147.960388,171.917343 150.493134,172.295410 153.025879,172.673492 
	C154.383499,172.841705 155.741104,173.009918 157.780731,173.363785 
	C159.833054,173.343826 161.203369,173.138229 162.573669,172.932617 
	C162.773468,172.227234 162.973267,171.521866 163.361237,170.230164 
	C163.029221,169.165161 162.509018,168.686447 161.988800,168.207764 
	C161.377304,168.055008 160.765823,167.902267 159.640366,167.591125 
	C158.765076,167.387604 158.403748,167.342499 158.042435,167.297409 
	C156.716202,167.160019 155.389969,167.022644 153.349091,166.664093 
	C151.107910,166.357483 149.581406,166.272034 148.054886,166.186584 
	C147.704453,166.065689 147.354019,165.944794 146.537445,165.661377 
	C145.740128,165.478302 145.408936,165.457748 145.077759,165.437180 
	C144.471695,164.900986 143.865646,164.364792 143.418976,163.265274 
	C143.757584,161.793228 143.936813,160.884506 144.116028,159.975784 
	C144.116028,159.975784 144.255005,159.743256 144.403763,159.424957 
	C144.624481,158.750137 144.696442,158.393600 144.768402,158.037079 
	C144.889084,157.651855 145.009750,157.266617 145.344086,156.267151 
	C145.793045,154.407471 146.028351,153.162033 146.263641,151.916595 
z"/>
<path fill="#278DFE" opacity="1.000000" stroke="none" 
	d="
M109.001053,313.002441 
	C106.487183,312.506195 103.973320,312.009918 101.228851,311.257446 
	C104.675056,309.891876 108.960068,310.096313 110.852211,305.388763 
	C111.146729,304.656006 115.464798,304.327545 116.369049,305.282684 
	C118.972130,308.032166 121.524956,307.313873 124.493263,306.757202 
	C126.099113,306.456085 127.967781,306.738312 129.511566,307.312317 
	C130.162003,307.554199 130.731812,309.357880 130.487717,310.207123 
	C130.313065,310.814819 128.710602,311.371765 127.767021,311.338196 
	C123.047859,311.170349 118.335899,310.800049 113.309937,310.751282 
	C112.555023,311.001770 112.111580,311.001892 111.029869,311.066895 
	C109.928085,311.755341 109.464569,312.378906 109.001053,313.002441 
z"/>
<path fill="#4294E7" opacity="1.000000" stroke="none" 
	d="
M133.274185,208.839081 
	C134.882965,202.544373 136.797592,196.080612 138.803345,189.309265 
	C144.471329,190.028229 149.891434,190.520264 155.233429,191.457428 
	C159.248077,192.161743 161.323761,191.086258 161.064072,186.394257 
	C161.253082,187.647812 161.994614,189.438370 161.583115,190.905563 
	C161.319077,191.847000 159.346146,192.909424 158.156723,192.889191 
	C152.396042,192.791245 146.641281,192.345245 140.204315,192.292831 
	C139.002701,195.028366 138.481171,197.493652 137.959625,199.958939 
	C136.499756,202.862640 135.039886,205.766342 133.274185,208.839081 
z"/>
<path fill="#589ADA" opacity="1.000000" stroke="none" 
	d="
M273.741302,160.139587 
	C271.184998,161.402679 268.295837,162.871124 265.253937,163.878174 
	C258.671814,166.057281 252.040726,168.103561 245.369019,169.989639 
	C242.622681,170.766052 241.310471,171.972549 242.432892,175.253632 
	C239.490005,172.320206 240.717056,169.732254 244.355972,168.586395 
	C253.952515,165.564590 263.669922,162.926590 273.741302,160.139587 
z"/>
<path fill="#4294E7" opacity="1.000000" stroke="none" 
	d="
M166.020279,128.125610 
	C163.298325,128.052780 160.576385,127.979927 157.115814,128.003296 
	C155.859543,128.374847 155.341904,128.650208 154.824249,128.925552 
	C154.824249,128.925552 154.377075,128.936157 153.906433,129.062561 
	C153.161118,129.418732 152.886459,129.648514 152.611786,129.878281 
	C152.267166,129.951035 151.922531,130.023773 151.313004,130.093109 
	C151.239624,129.465942 151.247208,128.665161 151.650955,128.245636 
	C156.020111,123.705757 170.773529,125.250465 173.639694,130.793350 
	C174.446091,132.352890 173.573029,134.780838 173.104050,136.484131 
	C173.387451,132.968918 172.122025,130.811401 169.182190,129.555634 
	C168.781219,129.311768 168.380249,129.067886 167.546204,128.621704 
	C166.748856,128.321457 166.384567,128.223541 166.020279,128.125610 
z"/>
<path fill="#2B8EF6" opacity="1.000000" stroke="none" 
	d="
M138.190521,200.200531 
	C138.481171,197.493652 139.002701,195.028366 139.778961,192.294907 
	C144.236725,195.268906 144.228577,199.043152 139.774475,203.510056 
	C139.291550,202.415070 138.856476,201.428589 138.190521,200.200531 
z"/>
<path fill="#4294E7" opacity="1.000000" stroke="none" 
	d="
M163.040054,132.750931 
	C163.555283,133.381012 164.070496,134.011108 164.904388,135.046936 
	C165.398163,135.754333 165.657516,135.935196 166.001114,135.995300 
	C166.001114,135.995300 166.000000,136.000000 166.130051,136.294907 
	C168.345657,136.841705 170.431229,137.093597 172.516785,137.345490 
	C172.645432,138.912216 172.774078,140.478943 172.978043,142.962997 
	C168.315079,140.092773 163.356110,139.231796 161.881607,133.516449 
	C161.810059,133.172073 162.008270,132.980927 162.314957,132.880676 
	C162.621643,132.780441 163.040054,132.750931 163.040054,132.750931 
z"/>
<path fill="#DEF6FE" opacity="1.000000" stroke="none" 
	d="
M172.536591,137.223785 
	C170.431229,137.093597 168.345657,136.841705 166.132141,136.293930 
	C167.447983,135.895309 168.891785,135.792587 170.779083,135.658295 
	C170.135101,133.597687 169.627914,131.974854 169.151459,129.953827 
	C172.122025,130.811401 173.387451,132.968918 172.738342,136.546997 
	C172.738907,136.936203 172.556381,137.102066 172.536591,137.223785 
z"/>
<path fill="#589ADA" opacity="1.000000" stroke="none" 
	d="
M264.162659,170.801270 
	C268.936401,168.943604 273.979065,167.289261 279.424927,165.601517 
	C274.695984,167.380295 269.563751,169.192444 264.162659,170.801270 
z"/>
<path fill="#4294E7" opacity="1.000000" stroke="none" 
	d="
M128.808960,218.031845 
	C128.808960,218.031845 129.025208,217.608475 129.268341,217.136292 
	C129.947678,215.451935 130.383865,214.239792 130.820053,213.027634 
	C131.137299,212.501251 131.454544,211.974869 131.990753,211.231400 
	C133.876694,216.214828 130.463486,219.442215 127.253784,222.956085 
	C127.284981,222.012924 127.662331,220.996765 128.274475,219.490051 
	C128.609146,218.676971 128.709045,218.354401 128.808960,218.031845 
z"/>
<path fill="#589ADA" opacity="1.000000" stroke="none" 
	d="
M282.249146,165.203705 
	C285.705048,163.678619 289.390259,162.354416 293.442596,161.004364 
	C291.657959,162.150208 289.506165,163.321884 287.069031,164.739044 
	C285.348633,165.124557 283.913513,165.264572 282.249146,165.203705 
z"/>
<path fill="#2D91F4" opacity="1.000000" stroke="none" 
	d="
M60.872360,159.248810 
	C61.976101,160.404572 62.901989,161.869980 63.841667,163.664780 
	C62.455635,163.897354 61.055809,163.800522 58.750618,163.641052 
	C59.584835,161.889008 60.139671,160.723724 60.872360,159.248810 
z"/>
<path fill="#2D91F4" opacity="1.000000" stroke="none" 
	d="
M148.552032,107.236671 
	C148.878296,110.231514 148.878296,110.231514 144.248169,108.296082 
	C146.211853,107.716812 147.212219,107.421715 148.552032,107.236671 
z"/>
<path fill="#3D93EA" opacity="1.000000" stroke="none" 
	d="
M126.909576,225.979767 
	C127.601746,226.915894 128.293915,227.852005 128.986084,228.788116 
	C128.620636,229.123795 128.255188,229.459473 127.889740,229.795151 
	C126.958267,228.771378 126.026787,227.747604 125.366692,226.371567 
	C126.061913,226.006134 126.485741,225.992950 126.909576,225.979767 
z"/>
<path fill="#589ADA" opacity="1.000000" stroke="none" 
	d="
M248.059219,175.798706 
	C249.498474,175.075211 251.371277,174.416504 253.630585,173.771103 
	C252.175644,174.477417 250.334213,175.170456 248.059219,175.798706 
z"/>
<path fill="#2D91F4" opacity="1.000000" stroke="none" 
	d="
M160.167480,106.442276 
	C159.400620,106.238335 158.847778,105.845665 158.294922,105.452995 
	C158.603012,105.146965 158.911087,104.840927 159.219147,104.534882 
	C159.606598,105.107773 159.994064,105.680664 160.167480,106.442276 
z"/>
<path fill="#589ADA" opacity="1.000000" stroke="none" 
	d="
M254.865112,173.796722 
	C256.037659,173.102676 257.619843,172.473495 259.569794,171.845520 
	C258.383301,172.518341 256.829010,173.189972 254.865112,173.796722 
z"/>
<path fill="#589ADA" opacity="1.000000" stroke="none" 
	d="
M242.482758,175.934692 
	C243.653259,175.673584 244.944168,175.747467 246.634842,175.852524 
	C245.557465,176.012360 244.080322,176.141037 242.482758,175.934692 
z"/>
<path fill="#2D91F4" opacity="1.000000" stroke="none" 
	d="
M58.847008,107.853760 
	C58.539532,108.297363 58.054447,108.554115 57.287140,108.799171 
	C57.559746,108.413948 58.114571,108.040421 58.847008,107.853760 
z"/>
<path fill="#589ADA" opacity="1.000000" stroke="none" 
	d="
M260.263367,171.934174 
	C260.970917,171.493179 262.049805,171.099838 263.486389,170.705078 
	C262.774292,171.129730 261.704498,171.555786 260.263367,171.934174 
z"/>
<path fill="#4294E7" opacity="1.000000" stroke="none" 
	d="
M126.920891,225.550751 
	C126.485741,225.992950 126.061913,226.006134 125.319473,226.040497 
	C125.000862,226.061676 124.952461,225.774063 124.975288,225.630905 
	C125.388107,224.912323 125.778099,224.336914 126.474335,223.584641 
	C126.831116,223.979095 126.881660,224.550415 126.920891,225.550751 
z"/>
<path fill="#4294E7" opacity="1.000000" stroke="none" 
	d="
M150.767639,130.073120 
	C150.643219,130.441681 150.205322,130.829300 149.470734,131.270401 
	C149.600754,130.913330 150.027466,130.502762 150.767639,130.073120 
z"/>
<path fill="#E0F7FE" opacity="1.000000" stroke="none" 
	d="
M123.431732,226.372986 
	C123.372185,226.139572 123.629379,225.762466 124.206512,225.243683 
	C124.267128,225.477783 124.007797,225.853546 123.431732,226.372986 
z"/>
<path fill="#0171C9" opacity="1.000000" stroke="none" 
	d="
M284.002686,114.363533 
	C303.402618,107.490784 323.297699,106.719444 343.473755,108.796852 
	C347.735413,109.235641 349.079926,111.346504 349.040253,115.360367 
	C348.849518,134.664642 344.489777,152.796371 334.142914,169.660049 
	C332.563263,168.671860 330.762939,167.613739 329.768036,166.044861 
	C317.988892,147.470444 303.131958,131.706894 286.212219,117.779945 
	C285.274597,117.008186 284.736053,115.751610 284.002686,114.363533 
z"/>
<path fill="#589ADA" opacity="1.000000" stroke="none" 
	d="
M294.211487,159.708710 
	C292.626068,158.688889 291.219025,157.419373 289.441711,156.182907 
	C290.039032,155.611511 291.006592,155.007080 291.974182,154.402649 
	C292.779388,156.088120 293.584625,157.773575 294.211487,159.708710 
z"/>
<path fill="#268EFE" opacity="1.000000" stroke="none" 
	d="
M53.000153,142.999817 
	C52.078842,142.162430 51.157379,141.325241 50.235916,140.488037 
	C50.705101,140.118774 51.174286,139.749527 51.643475,139.380264 
	C52.093185,140.335373 52.542900,141.290497 52.996155,142.623108 
	C52.999695,143.000610 53.000000,143.000000 53.000153,142.999817 
z"/>
<path fill="#268EFE" opacity="1.000000" stroke="none" 
	d="
M109.306183,312.936340 
	C109.464569,312.378906 109.928085,311.755341 110.697266,311.066528 
	C110.539055,311.624207 110.075180,312.247192 109.306183,312.936340 
z"/>
<path fill="#22242A" opacity="1.000000" stroke="none" 
	d="
M171.755798,253.692932 
	C176.419907,252.775848 179.477203,254.892838 179.614166,258.830261 
	C179.817291,264.669037 179.223083,270.630463 178.137711,276.382965 
	C177.504715,279.737885 174.712402,282.162140 170.765472,281.864807 
	C166.623886,281.552765 164.196533,279.034393 162.958664,275.205811 
	C160.840637,268.654846 164.921555,258.280579 171.755798,253.692932 
z"/>
<path fill="#22242C" opacity="1.000000" stroke="none" 
	d="
M229.200317,257.564697 
	C232.978561,252.330261 237.047729,251.931793 240.664658,256.508453 
	C244.474854,261.329620 246.638824,266.928406 246.077591,273.202789 
	C245.686569,277.574219 243.399948,280.800659 238.940384,281.763947 
	C234.255066,282.776001 231.845566,279.702820 230.184387,276.004913 
	C227.557098,270.156494 227.394409,264.088348 229.200317,257.564697 
z"/>
<path fill="#E0F7FE" opacity="1.000000" stroke="none" 
	d="
M109.005157,229.077850 
	C111.435532,228.110580 113.865913,227.143311 116.627838,226.046387 
	C117.444031,226.901855 117.928680,227.886978 118.754868,228.963867 
	C115.991203,230.106247 112.886002,231.156845 109.391205,231.711609 
	C109.002792,230.503128 109.003975,229.790482 109.005157,229.077850 
z"/>
<path fill="#DEF6FE" opacity="1.000000" stroke="none" 
	d="
M150.627579,138.075409 
	C150.202866,140.252609 149.404587,142.500732 148.361603,145.015915 
	C148.829269,142.904099 149.541641,140.525208 150.627579,138.075409 
z"/>
<path fill="#DEF6FE" opacity="1.000000" stroke="none" 
	d="
M152.865723,172.338348 
	C150.493134,172.295410 147.960388,171.917343 145.114532,171.311737 
	C147.436127,171.390518 150.070847,171.696869 152.865723,172.338348 
z"/>
<path fill="#DEF6FE" opacity="1.000000" stroke="none" 
	d="
M162.260315,172.869293 
	C161.203369,173.138229 159.833054,173.343826 158.191681,173.365219 
	C159.262726,173.055984 160.604843,172.930969 162.260315,172.869293 
z"/>
<path fill="#DEF6FE" opacity="1.000000" stroke="none" 
	d="
M148.361099,166.402771 
	C149.581406,166.272034 151.107910,166.357483 152.948639,166.668671 
	C151.731018,166.802582 150.199158,166.710754 148.361099,166.402771 
z"/>
<path fill="#E0F7FE" opacity="1.000000" stroke="none" 
	d="
M130.543594,213.218933 
	C130.383865,214.239792 129.947678,215.451935 129.282959,216.899048 
	C129.458664,215.892731 129.862900,214.651474 130.543594,213.218933 
z"/>
<path fill="#DEF6FE" opacity="1.000000" stroke="none" 
	d="
M162.048843,168.494415 
	C162.509018,168.686447 163.029221,169.165161 163.384750,169.861923 
	C162.849670,169.647018 162.479279,169.214035 162.048843,168.494415 
z"/>
<path fill="#DEF6FE" opacity="1.000000" stroke="none" 
	d="
M145.971817,152.181168 
	C146.028351,153.162033 145.793045,154.407471 145.334076,155.962723 
	C145.300262,154.996933 145.490128,153.721344 145.971817,152.181168 
z"/>
<path fill="#DEF6FE" opacity="1.000000" stroke="none" 
	d="
M143.856567,160.219666 
	C143.936813,160.884506 143.757584,161.793228 143.335938,162.956482 
	C143.261368,162.295181 143.429230,161.379379 143.856567,160.219666 
z"/>
<path fill="#DEF6FE" opacity="1.000000" stroke="none" 
	d="
M147.727524,146.254669 
	C147.809311,146.887650 147.658951,147.776810 147.300018,148.939606 
	C147.226074,148.312439 147.360733,147.411652 147.727524,146.254669 
z"/>
<path fill="#DEF6FE" opacity="1.000000" stroke="none" 
	d="
M151.857300,136.205719 
	C151.893387,136.575439 151.686554,137.115448 151.241882,137.827454 
	C151.207474,137.458298 151.410919,136.917160 151.857300,136.205719 
z"/>
<path fill="#DEF6FE" opacity="1.000000" stroke="none" 
	d="
M155.124268,128.930267 
	C155.341904,128.650208 155.859543,128.374847 156.674896,128.120453 
	C156.456482,128.405945 155.940369,128.670471 155.124268,128.930267 
z"/>
<path fill="#DEF6FE" opacity="1.000000" stroke="none" 
	d="
M158.260071,167.454498 
	C158.403748,167.342499 158.765076,167.387604 159.326828,167.630569 
	C159.177414,167.756149 158.827560,167.683884 158.260071,167.454498 
z"/>
<path fill="#DEF6FE" opacity="1.000000" stroke="none" 
	d="
M166.223480,128.321030 
	C166.384567,128.223541 166.748856,128.321457 167.304413,128.640778 
	C167.139359,128.746933 166.783020,128.631699 166.223480,128.321030 
z"/>
<path fill="#E0F7FE" opacity="1.000000" stroke="none" 
	d="
M128.628662,218.208527 
	C128.709045,218.354401 128.609146,218.676971 128.307037,219.163437 
	C128.219345,219.013306 128.333847,218.699265 128.628662,218.208527 
z"/>
<path fill="#DEF6FE" opacity="1.000000" stroke="none" 
	d="
M145.281830,165.569061 
	C145.408936,165.457748 145.740128,165.478302 146.258331,165.677307 
	C146.112244,165.886581 145.792419,165.834991 145.281830,165.569061 
z"/>
<path fill="#DEF6FE" opacity="1.000000" stroke="none" 
	d="
M144.593567,158.243744 
	C144.696442,158.393600 144.624481,158.750137 144.348419,159.301331 
	C144.235794,159.147461 144.327255,158.798950 144.593567,158.243744 
z"/>
<path fill="#DEF6FE" opacity="1.000000" stroke="none" 
	d="
M152.875092,129.827682 
	C152.886459,129.648514 153.161118,129.418732 153.707153,129.164108 
	C153.698502,129.351883 153.418457,129.564484 152.875092,129.827682 
z"/>
<path fill="#DEF6FE" opacity="1.000000" stroke="none" 
	d="
M157.959442,131.056610 
	C157.996490,131.280060 157.797714,131.408859 157.356842,131.376648 
	C157.369095,131.195816 157.572052,131.111267 157.959442,131.056610 
z"/>
<path fill="#DEF6FE" opacity="1.000000" stroke="none" 
	d="
M155.748611,132.084839 
	C155.897079,132.306229 155.738556,132.550858 155.241699,132.773575 
	C155.149490,132.570175 155.328918,132.355637 155.748611,132.084839 
z"/>
<path fill="#DEF6FE" opacity="1.000000" stroke="none" 
	d="
M162.925629,132.588593 
	C163.040054,132.750931 162.621643,132.780441 162.412140,132.783173 
	C162.202652,132.785889 162.163208,132.377121 162.166687,132.171814 
	C162.418884,132.070908 162.632568,132.224167 162.925629,132.588593 
z"/>
<path fill="#DEF6FE" opacity="1.000000" stroke="none" 
	d="
M153.661377,134.140045 
	C153.826218,134.348175 153.682877,134.604492 153.204834,134.881241 
	C153.094681,134.691925 153.255722,134.454132 153.661377,134.140045 
z"/>
<path fill="#DEF6FE" opacity="1.000000" stroke="none" 
	d="
M152.771545,135.133957 
	C152.825684,135.297348 152.674728,135.595673 152.285461,135.992523 
	C152.140747,135.766785 152.313858,135.492706 152.771545,135.133957 
z"/>
<path fill="#DEF6FE" opacity="1.000000" stroke="none" 
	d="
M165.894958,135.790436 
	C165.657516,135.935196 165.398163,135.754333 165.161804,135.217163 
	C165.379074,135.126984 165.608490,135.328293 165.894958,135.790436 
z"/>
<path fill="#F4FDF8" opacity="1.000000" stroke="none" 
	d="
M108.692184,228.930298 
	C109.003975,229.790482 109.002792,230.503128 108.999855,231.572067 
	C101.308701,231.365997 97.364998,230.177185 99.448891,223.252869 
	C104.657021,221.389221 105.462990,226.872360 108.692184,228.930298 
z"/>
</svg>