<svg version="1.1" id="Layer_1" xmlns="http://www.w3.org/2000/svg" xmlns:xlink="http://www.w3.org/1999/xlink" x="0px" y="0px" width="100%" viewBox="0 0 2048 2048" enable-background="new 0 0 2048 2048" xml:space="preserve">

<path fill="#EC1966" opacity="1.000000" stroke="none" d="
M294.046265,626.096252 
	C301.829010,603.527893 315.769623,585.442993 336.033722,573.188049 
	C372.922119,550.879456 410.266174,529.314209 447.637329,507.816345 
	C508.701416,472.689026 569.984192,437.942169 631.091858,402.890320 
	C692.618347,367.598236 754.046814,332.135254 815.512390,296.737061 
	C866.878174,267.155365 918.178040,237.458786 969.617004,208.004974 
	C1003.064575,188.852997 1037.301758,187.618591 1072.533691,203.515305 
	C1106.954102,219.045761 1138.530762,239.614395 1171.173584,258.263214 
	C1251.566650,304.191620 1331.598022,350.753418 1411.775269,397.059631 
	C1506.360107,451.687042 1601.014893,506.194092 1695.469360,561.045959 
	C1713.289307,571.394409 1730.732788,582.422668 1742.955811,599.995911 
	C1754.995605,617.305725 1761.801636,636.178345 1762.698242,657.793213 
	C1762.119141,658.981873 1761.836914,659.532898 1761.732178,659.737427 
	C1760.199341,657.232483 1758.683838,654.587646 1757.009155,652.047791 
	C1748.429199,639.034058 1736.474609,632.945740 1720.735718,632.789917 
	C1709.341187,632.677063 1700.029541,637.335999 1690.703247,642.612671 
	C1676.447998,650.678162 1662.251099,658.847168 1648.052002,667.011658 
	C1635.469604,674.246521 1622.930664,681.557129 1610.348877,688.793213 
	C1601.031738,694.151733 1591.686401,699.461853 1582.335693,704.761658 
	C1571.143188,711.105286 1559.924194,717.402039 1548.730835,723.744019 
	C1540.978149,728.136475 1533.262329,732.593933 1525.507080,736.981934 
	C1514.883301,742.992981 1504.197632,748.895264 1493.615479,754.978333 
	C1485.891846,759.418213 1478.365112,764.201965 1470.620483,768.603638 
	C1459.717773,774.800415 1448.655640,780.716431 1437.733643,786.880005 
	C1426.563110,793.183899 1415.491699,799.663147 1404.353394,806.024353 
	C1396.905518,810.277832 1389.370483,814.380249 1381.958618,818.694641 
	C1374.116089,823.259705 1366.450195,828.131104 1358.567749,832.624146 
	C1347.673462,838.833984 1336.564087,844.668518 1325.700928,850.931152 
	C1312.018188,858.819519 1298.573364,867.121521 1284.873291,874.978821 
	C1271.121460,882.865845 1257.121704,890.319763 1243.338745,898.153809 
	C1222.860474,909.793274 1202.491699,921.625305 1182.049438,933.328308 
	C1164.786621,943.211304 1147.500977,953.054810 1130.195068,962.862183 
	C1120.858276,968.153381 1111.453125,973.323730 1102.087891,978.564880 
	C1092.898926,983.707214 1083.682251,988.801575 1074.550293,994.043274 
	C1065.828125,999.049805 1057.389404,1004.582520 1048.486084,1009.233398 
	C1034.366699,1016.609131 1024.824463,1027.412842 1020.718628,1042.799316 
	C1020.046387,1041.845947 1019.491455,1041.155151 1019.292908,1040.373779 
	C1015.770691,1026.508911 1006.586609,1017.236633 994.652222,1010.359192 
	C977.854858,1000.679443 960.868591,991.326782 944.094788,981.606995 
	C932.841492,975.086060 921.923889,967.985291 910.660706,961.482300 
	C898.001709,954.173523 885.118958,947.252686 872.341492,940.148743 
	C865.050354,936.095154 857.704956,932.132690 850.511230,927.912415 
	C842.019958,922.930847 833.731262,917.603760 825.234192,912.632568 
	C816.955139,907.789062 808.495361,903.255615 800.165771,898.497192 
	C786.466675,890.671265 772.783691,882.816345 759.142761,874.889648 
	C751.390076,870.384460 743.699158,865.770081 736.046143,861.097229 
	C729.694885,857.219177 723.588196,852.919556 717.108704,849.277283 
	C706.132751,843.107483 694.828308,837.519775 683.881348,831.301208 
	C669.979614,823.404114 656.343628,815.040771 642.506653,807.027527 
	C627.286011,798.212830 611.961243,789.578064 596.693359,780.844727 
	C585.407959,774.389221 574.134216,767.913269 562.867859,761.424500 
	C550.048035,754.041016 537.235107,746.645508 524.432434,739.232178 
	C513.620056,732.971313 502.825836,726.679138 492.025208,720.398010 
	C484.060333,715.765991 476.085815,711.150269 468.138031,706.489197 
	C459.490692,701.417786 450.918427,696.216553 442.225006,691.225952 
	C429.231323,683.766785 416.121735,676.509338 403.138489,669.032288 
	C396.481842,665.198792 390.073212,660.933777 383.407043,657.117798 
	C374.705017,652.136475 365.418121,648.055115 357.161804,642.440918 
	C336.825348,628.612549 309.072815,631.341553 293.569824,651.975403 
	C292.655884,653.191772 291.208771,654.007568 290.007385,654.544556 
	C289.517578,646.289307 290.523834,638.799316 293.863556,631.619995 
	C294.578552,630.083008 294.018768,627.953064 294.046265,626.096252 
M799.643066,596.823730 
	C849.851440,625.430786 900.047180,654.060181 950.276733,682.630005 
	C963.585083,690.199524 976.466858,698.826965 990.465881,704.814148 
	C1026.504272,720.227112 1064.202637,723.124939 1102.631836,715.979858 
	C1134.807739,709.997437 1163.850830,697.312927 1186.501953,673.003967 
	C1208.725708,649.153687 1217.339966,621.237854 1207.863770,589.164307 
	C1199.797119,561.861816 1182.346802,542.727356 1157.424316,528.881531 
	C1113.913452,504.708862 1071.124634,479.236816 1028.019653,454.332886 
	C1013.314331,445.836975 998.774597,437.023010 983.781555,429.065857 
	C969.190247,421.321838 951.198181,427.514771 943.511353,442.095062 
	C935.990784,456.359924 940.975403,473.862610 955.017517,481.989624 
	C1010.355774,514.017273 1065.753662,545.942261 1121.036499,578.065125 
	C1128.324219,582.299805 1136.061401,586.498535 1141.829224,592.427368 
	C1149.295410,600.102051 1153.834229,609.837463 1149.076172,621.137878 
	C1145.301270,630.103149 1138.279663,636.213562 1130.324707,641.319824 
	C1112.446655,652.795532 1092.488647,657.498108 1071.594849,658.668518 
	C1051.536255,659.792236 1031.536377,657.942810 1013.647949,648.590149 
	C987.555176,634.948120 962.307129,619.690369 936.699829,605.119812 
	C893.857056,580.742188 851.081177,556.245972 808.136353,532.049316 
	C793.300659,523.690369 775.572998,529.157959 767.267944,543.945801 
	C759.258545,558.207214 764.257385,576.224487 778.660339,584.740723 
	C785.396790,588.723816 792.221008,592.558411 799.643066,596.823730 
z" data-index="1"></path>
<path fill="#BC1452" opacity="1.000000" stroke="none" d="
M1021.001770,1043.019531 
	C1024.824463,1027.412842 1034.366699,1016.609131 1048.486084,1009.233398 
	C1057.389404,1004.582520 1065.828125,999.049805 1074.550293,994.043274 
	C1083.682251,988.801575 1092.898926,983.707214 1102.087891,978.564880 
	C1111.453125,973.323730 1120.858276,968.153381 1130.195068,962.862183 
	C1147.500977,953.054810 1164.786621,943.211304 1182.049438,933.328308 
	C1202.491699,921.625305 1222.860474,909.793274 1243.338745,898.153809 
	C1257.121704,890.319763 1271.121460,882.865845 1284.873291,874.978821 
	C1298.573364,867.121521 1312.018188,858.819519 1325.700928,850.931152 
	C1336.564087,844.668518 1347.673462,838.833984 1358.567749,832.624146 
	C1366.450195,828.131104 1374.116089,823.259705 1381.958618,818.694641 
	C1389.370483,814.380249 1396.905518,810.277832 1404.353394,806.024353 
	C1415.491699,799.663147 1426.563110,793.183899 1437.733643,786.880005 
	C1448.655640,780.716431 1459.717773,774.800415 1470.620483,768.603638 
	C1478.365112,764.201965 1485.891846,759.418213 1493.615479,754.978333 
	C1504.197632,748.895264 1514.883301,742.992981 1525.507080,736.981934 
	C1533.262329,732.593933 1540.978149,728.136475 1548.730835,723.744019 
	C1559.924194,717.402039 1571.143188,711.105286 1582.335693,704.761658 
	C1591.686401,699.461853 1601.031738,694.151733 1610.348877,688.793213 
	C1622.930664,681.557129 1635.469604,674.246521 1648.052002,667.011658 
	C1662.251099,658.847168 1676.447998,650.678162 1690.703247,642.612671 
	C1700.029541,637.335999 1709.341187,632.677063 1720.735718,632.789917 
	C1736.474609,632.945740 1748.429199,639.034058 1757.009155,652.047791 
	C1758.683838,654.587646 1760.199341,657.232483 1761.732178,659.737427 
	C1761.836914,659.532898 1762.119141,658.981873 1762.610840,658.227417 
	C1762.913208,659.426270 1763.005981,660.828430 1762.728760,662.939697 
	C1762.239990,665.130615 1762.017578,666.612366 1762.017456,668.094177 
	C1762.000854,908.613464 1761.998779,1149.132690 1762.032593,1389.651978 
	C1762.032837,1391.412598 1762.536499,1393.173218 1762.805054,1394.933838 
	C1760.534424,1427.362305 1746.852661,1454.161743 1720.590698,1473.083252 
	C1703.101807,1485.683716 1683.868530,1495.919189 1665.137817,1506.731079 
	C1566.081299,1563.909058 1466.946533,1620.951416 1367.818848,1678.005737 
	C1305.654541,1713.785034 1243.447632,1749.489990 1181.275024,1785.254883 
	C1151.417969,1802.430298 1121.606567,1819.685059 1091.746948,1836.856445 
	C1087.449463,1839.327881 1082.998291,1841.532104 1077.965210,1843.769775 
	C1075.982788,1843.127808 1074.597656,1841.995605 1073.333008,1842.117188 
	C1064.143921,1843.000366 1055.849854,1840.008179 1048.638916,1835.081177 
	C1038.148560,1827.913330 1030.753662,1818.167603 1028.963867,1804.609131 
	C1028.644653,1802.062134 1028.088013,1799.945557 1028.037842,1797.817261 
	C1027.639160,1780.862427 1027.287476,1763.905884 1027.016479,1746.948486 
	C1026.636230,1723.160034 1026.273438,1699.370850 1026.020020,1675.580688 
	C1025.629761,1638.959351 1025.293335,1602.337402 1025.016357,1565.714966 
	C1024.638794,1515.760986 1024.385620,1465.806152 1023.987061,1415.852295 
	C1023.750732,1386.229248 1023.368896,1356.607178 1022.993469,1326.985352 
	C1022.713013,1304.862183 1022.210327,1282.740967 1022.030701,1260.617188 
	C1021.615601,1209.497925 1021.296448,1158.377686 1021.021484,1107.257324 
	C1020.906311,1085.845337 1021.001953,1064.432129 1021.001770,1043.019531 
M1394.252808,1244.254883 
	C1415.909790,1269.123901 1437.559814,1293.999023 1459.226562,1318.859375 
	C1470.058105,1331.287476 1480.803101,1343.793701 1491.808960,1356.065918 
	C1499.434692,1364.569092 1509.275146,1367.578857 1520.354004,1365.359497 
	C1536.126831,1362.199829 1545.306519,1350.180664 1545.269409,1333.281738 
	C1545.090332,1251.795898 1544.894653,1170.309814 1544.646240,1088.824219 
	C1544.599487,1073.499390 1545.039185,1058.119385 1543.908569,1042.864746 
	C1542.417725,1022.749512 1520.893433,1010.223572 1502.248047,1017.749695 
	C1489.055786,1023.074646 1482.309570,1033.688721 1482.360962,1049.270020 
	C1482.577271,1114.923462 1482.823853,1180.577026 1483.058594,1246.230469 
	C1483.063599,1247.628174 1483.059204,1249.026001 1483.059204,1251.784912 
	C1478.737061,1246.879883 1475.345581,1243.075684 1472.002075,1239.229614 
	C1437.144531,1199.132690 1402.374878,1158.958618 1367.334229,1119.022461 
	C1363.262573,1114.382080 1358.263794,1109.769531 1352.730713,1107.336792 
	C1331.982910,1098.214355 1309.796387,1113.598145 1309.895996,1136.605225 
	C1310.254639,1219.420044 1310.688599,1302.234619 1311.142578,1385.048950 
	C1311.238525,1402.539185 1310.900146,1420.066406 1311.933838,1437.506958 
	C1312.897095,1453.759033 1326.671387,1465.182617 1343.155518,1465.031006 
	C1358.828125,1464.886963 1372.071777,1452.587891 1373.170166,1436.592896 
	C1373.693848,1428.968384 1373.297119,1421.278320 1373.257568,1413.618042 
	C1372.969116,1357.631348 1372.660278,1301.644653 1372.373047,1245.657959 
	C1372.329956,1237.269165 1372.366943,1228.879761 1372.366943,1219.182861 
	C1380.065674,1228.002563 1386.926270,1235.861816 1394.252808,1244.254883 
z" data-index="2" style="opacity: 1;"></path>
<path fill="#D3155B" opacity="1.000000" stroke="none" d="
M1020.718628,1042.799316 
	C1021.001953,1064.432129 1020.906311,1085.845337 1021.021484,1107.257324 
	C1021.296448,1158.377686 1021.615601,1209.497925 1022.030701,1260.617188 
	C1022.210327,1282.740967 1022.713013,1304.862183 1022.993469,1326.985352 
	C1023.368896,1356.607178 1023.750732,1386.229248 1023.987061,1415.852295 
	C1024.385620,1465.806152 1024.638794,1515.760986 1025.016357,1565.714966 
	C1025.293335,1602.337402 1025.629761,1638.959351 1026.020020,1675.580688 
	C1026.273438,1699.370850 1026.636230,1723.160034 1027.016479,1746.948486 
	C1027.287476,1763.905884 1027.639160,1780.862427 1028.037842,1797.817261 
	C1028.088013,1799.945557 1028.644653,1802.062134 1028.581055,1804.611328 
	C1027.461914,1805.743896 1026.311035,1806.324829 1026.058105,1807.173462 
	C1022.613281,1818.726807 1016.877197,1828.445679 1005.963623,1834.630859 
	C998.196777,1839.032837 990.295837,1842.152588 981.147217,1841.093262 
	C978.391174,1840.774292 975.566895,1841.043945 972.588501,1841.043945 
	C974.434387,1843.247437 975.731812,1844.796265 977.029175,1846.345093 
	C960.361877,1836.942017 943.630005,1827.651611 927.037964,1818.117432 
	C836.661621,1766.185059 746.308899,1714.211304 655.968628,1662.216064 
	C557.544617,1605.568481 459.143188,1548.881958 360.732544,1492.211304 
	C359.001740,1491.214478 357.279419,1490.203125 355.273926,1488.750488 
	C354.656067,1488.204102 354.317413,1488.105591 353.978760,1488.007080 
	C353.446899,1487.783813 352.915039,1487.560669 352.227600,1486.792725 
	C352.001740,1480.419434 346.865479,1478.966797 343.149200,1477.214355 
	C335.687714,1473.695923 332.638824,1466.804077 327.917206,1461.270142 
	C325.742310,1460.087891 323.182007,1459.036499 321.863281,1457.127441 
	C313.639160,1445.220703 305.336334,1433.319458 301.002319,1419.252930 
	C300.231201,1416.750366 297.076996,1414.164795 301.606995,1411.927612 
	C301.979156,1411.743896 301.056091,1408.937378 300.734863,1407.349487 
	C300.369446,1407.388184 300.004059,1407.426880 299.638672,1407.465454 
	C299.186890,1408.829346 298.735138,1410.193237 297.934509,1412.610474 
	C297.382172,1410.916870 297.180359,1410.356567 297.015961,1409.785645 
	C291.989655,1392.333374 292.772736,1374.260376 292.240906,1356.473877 
	C291.122131,1319.059204 291.368652,1281.604492 290.987061,1244.166870 
	C290.717499,1217.721924 290.337372,1191.277954 290.005280,1164.833618 
	C289.666962,1137.891235 289.215637,1110.949585 289.022034,1084.006104 
	C288.859283,1061.352417 288.995758,1038.696411 288.997253,1015.568542 
	C288.996552,897.049072 288.998413,779.002563 288.995941,660.573120 
	C289.330963,658.463379 289.670349,656.736572 290.009766,655.009766 
	C291.208771,654.007568 292.655884,653.191772 293.569824,651.975403 
	C309.072815,631.341553 336.825348,628.612549 357.161804,642.440918 
	C365.418121,648.055115 374.705017,652.136475 383.407043,657.117798 
	C390.073212,660.933777 396.481842,665.198792 403.138489,669.032288 
	C416.121735,676.509338 429.231323,683.766785 442.225006,691.225952 
	C450.918427,696.216553 459.490692,701.417786 468.138031,706.489197 
	C476.085815,711.150269 484.060333,715.765991 492.025208,720.398010 
	C502.825836,726.679138 513.620056,732.971313 524.432434,739.232178 
	C537.235107,746.645508 550.048035,754.041016 562.867859,761.424500 
	C574.134216,767.913269 585.407959,774.389221 596.693359,780.844727 
	C611.961243,789.578064 627.286011,798.212830 642.506653,807.027527 
	C656.343628,815.040771 669.979614,823.404114 683.881348,831.301208 
	C694.828308,837.519775 706.132751,843.107483 717.108704,849.277283 
	C723.588196,852.919556 729.694885,857.219177 736.046143,861.097229 
	C743.699158,865.770081 751.390076,870.384460 759.142761,874.889648 
	C772.783691,882.816345 786.466675,890.671265 800.165771,898.497192 
	C808.495361,903.255615 816.955139,907.789062 825.234192,912.632568 
	C833.731262,917.603760 842.019958,922.930847 850.511230,927.912415 
	C857.704956,932.132690 865.050354,936.095154 872.341492,940.148743 
	C885.118958,947.252686 898.001709,954.173523 910.660706,961.482300 
	C921.923889,967.985291 932.841492,975.086060 944.094788,981.606995 
	C960.868591,991.326782 977.854858,1000.679443 994.652222,1010.359192 
	C1006.586609,1017.236633 1015.770691,1026.508911 1019.292908,1040.373779 
	C1019.491455,1041.155151 1020.046387,1041.845947 1020.718628,1042.799316 
M581.156250,1112.158691 
	C581.418518,1112.160156 581.680725,1112.161621 582.625854,1112.261353 
	C644.677856,1147.294434 706.722839,1182.339966 768.801880,1217.325195 
	C771.970642,1219.110962 775.307800,1220.797485 778.776062,1221.818481 
	C795.281616,1226.677734 812.667847,1218.501953 819.368164,1202.968262 
	C826.524719,1186.376831 820.486084,1168.100220 804.488586,1159.041870 
	C741.028625,1123.109131 677.498291,1087.300781 614.015381,1051.408569 
	C591.263306,1038.544800 568.571350,1025.574829 545.631714,1012.344727 
	C545.430237,1012.172729 545.197083,1012.081848 544.986938,1011.997253 
	C544.986938,1011.997253 544.922974,1012.068298 544.872681,1011.332764 
	C542.877808,1010.581238 540.882874,1009.829712 538.961304,1009.043579 
	C538.961304,1009.043579 538.970947,1009.124084 538.619324,1008.493896 
	C535.128967,1005.484741 531.418823,1003.928528 526.249573,1006.876465 
	C525.174683,1006.835144 524.099731,1006.793884 522.860840,1006.110291 
	C514.150330,1005.440857 507.370422,1009.737061 500.938812,1014.783813 
	C500.447113,1015.169739 500.722992,1016.533936 500.533661,1017.441040 
	C500.533661,1017.441040 500.536896,1017.549438 499.863770,1017.414490 
	C499.606842,1017.986877 499.349915,1018.559204 499.038239,1019.035767 
	C499.038239,1019.035767 499.136383,1019.086243 498.391968,1019.083984 
	C492.965759,1024.116455 490.084656,1030.545532 490.102844,1037.730713 
	C490.164276,1062.000000 490.737946,1086.267456 490.954193,1110.537109 
	C491.101807,1127.105591 490.976837,1143.676514 490.979065,1160.246338 
	C490.983063,1189.633667 490.992981,1219.021118 490.996948,1248.408447 
	C491.002472,1289.534424 490.985504,1330.660400 491.075928,1371.786255 
	C491.079742,1373.517090 492.070496,1375.245728 492.810852,1377.893677 
	C492.777283,1393.620483 492.743713,1409.347168 492.252380,1425.739258 
	C492.168396,1429.859253 492.093353,1433.979370 491.997894,1438.099121 
	C491.907959,1441.981689 496.242218,1448.344238 500.001221,1449.999634 
	C500.001221,1449.999634 500.067596,1449.921143 500.086243,1450.585938 
	C500.552765,1450.921387 501.019287,1451.256836 501.353424,1451.893188 
	C501.353424,1451.893188 501.430542,1451.573608 501.375000,1452.187378 
	C501.718658,1452.343506 502.062317,1452.499634 502.118713,1452.652100 
	C502.118713,1452.652100 502.401611,1452.602295 502.229370,1453.360596 
	C502.968475,1453.732056 503.707611,1454.103394 504.266876,1454.524048 
	C504.266876,1454.524048 504.452087,1454.544922 504.390137,1455.166382 
	C504.745422,1455.282715 505.100708,1455.398926 505.385437,1455.443359 
	C505.385437,1455.443359 505.479706,1455.479004 505.366516,1456.233643 
	C507.253326,1460.772583 510.868927,1461.661987 516.041687,1460.931641 
	C520.803528,1461.462524 525.676086,1462.916992 530.307861,1462.362061 
	C549.153320,1460.104492 561.074646,1446.362061 561.078369,1427.370117 
	C561.086060,1388.543091 560.955444,1349.715942 560.882446,1310.888916 
	C560.879211,1309.160645 560.882080,1307.432373 560.882080,1305.205322 
	C562.688171,1306.043945 563.753296,1306.463745 564.748047,1307.011353 
	C600.913757,1326.919434 637.065674,1346.852661 673.236023,1366.752441 
	C690.742126,1376.383667 708.016846,1386.484497 725.879578,1395.404907 
	C743.647766,1404.278320 765.115417,1395.208374 772.105530,1376.908813 
	C778.617065,1359.862183 771.449097,1342.772705 753.667236,1332.989502 
	C709.036743,1308.434692 664.388977,1283.911133 619.777039,1259.322632 
	C602.445007,1249.769775 585.190552,1240.076172 567.693237,1229.770996 
	C567.058533,1229.566528 566.423828,1229.362061 565.893372,1229.154175 
	C565.893372,1229.154175 565.844116,1229.246094 565.871460,1228.477905 
	C564.574341,1226.402954 562.158081,1224.334473 562.146118,1222.252075 
	C561.925171,1183.766968 561.965210,1145.279907 562.096252,1106.793945 
	C562.101196,1105.330933 563.570374,1103.872803 564.397888,1102.491333 
	C564.397888,1102.491333 564.456543,1102.424805 564.362427,1103.215698 
	C565.920166,1103.807373 567.477905,1104.398926 569.001587,1105.007690 
	C569.001587,1105.007690 568.998352,1104.969971 569.261414,1105.569336 
	C569.979919,1105.822510 570.698425,1106.075562 571.581543,1106.372070 
	C571.581543,1106.372070 571.745300,1106.418213 571.334656,1107.169556 
	C572.421265,1111.629517 576.296997,1110.190063 579.060791,1110.913818 
	C579.060791,1110.913818 579.052917,1110.798584 579.322021,1111.406982 
	C579.942627,1111.554321 580.563232,1111.701660 581.075745,1111.884399 
	C581.075745,1111.884399 581.129150,1111.783936 581.156250,1112.158691 
z" data-index="3" style="opacity: 1;"></path>
<path fill="#E91C66" opacity="1.000000" stroke="none" d="
M977.219849,1846.615234 
	C975.731812,1844.796265 974.434387,1843.247437 972.588501,1841.043945 
	C975.566895,1841.043945 978.391174,1840.774292 981.147217,1841.093262 
	C990.295837,1842.152588 998.196777,1839.032837 1005.963623,1834.630859 
	C1016.877197,1828.445679 1022.613281,1818.726807 1026.058105,1807.173462 
	C1026.311035,1806.324829 1027.461914,1805.743896 1028.578125,1805.036377 
	C1030.753662,1818.167603 1038.148560,1827.913330 1048.638916,1835.081177 
	C1055.849854,1840.008179 1064.143921,1843.000366 1073.333008,1842.117188 
	C1074.597656,1841.995605 1075.982788,1843.127808 1077.618530,1843.872437 
	C1065.053589,1852.229004 1050.804321,1856.296631 1035.801514,1857.790405 
	C1015.318359,1859.829590 995.799744,1856.273193 977.219849,1846.615234 
z" data-index="4"></path>
<path fill="#E41F67" opacity="1.000000" stroke="none" d="
M288.999817,1016.041504 
	C288.995758,1038.696411 288.859283,1061.352417 289.022034,1084.006104 
	C289.215637,1110.949585 289.666962,1137.891235 290.005280,1164.833618 
	C290.337372,1191.277954 290.717499,1217.721924 290.987061,1244.166870 
	C291.368652,1281.604492 291.122131,1319.059204 292.240906,1356.473877 
	C292.772736,1374.260376 291.989655,1392.333374 297.015961,1409.785645 
	C297.180359,1410.356567 297.382172,1410.916870 297.934509,1412.610474 
	C298.735138,1410.193237 299.186890,1408.829346 299.638672,1407.465454 
	C300.004059,1407.426880 300.369446,1407.388184 300.734863,1407.349487 
	C301.056091,1408.937378 301.979156,1411.743896 301.606995,1411.927612 
	C297.076996,1414.164795 300.231201,1416.750366 301.002319,1419.252930 
	C305.336334,1433.319458 313.639160,1445.220703 321.863281,1457.127441 
	C323.182007,1459.036499 325.742310,1460.087891 327.917206,1461.270142 
	C332.638824,1466.804077 335.687714,1473.695923 343.149200,1477.214355 
	C346.865479,1478.966797 352.001740,1480.419434 352.044922,1486.560791 
	C334.736816,1478.023560 321.190826,1464.994995 310.241272,1449.168823 
	C294.282623,1426.102783 287.232819,1400.375366 287.242157,1372.436035 
	C287.298950,1202.137695 287.260010,1031.839355 287.256592,861.541016 
	C287.256317,847.044739 287.282471,832.548401 287.604401,817.969238 
	C287.952759,819.716370 288.027649,821.546265 288.028290,823.376221 
	C288.049622,885.689087 288.055664,948.002014 288.117737,1010.314819 
	C288.119629,1012.223999 288.692902,1014.132629 288.999817,1016.041504 
M289.002441,1233.500000 
	C289.002441,1196.772583 289.002441,1160.045288 289.002441,1123.317871 
	C288.774872,1123.319458 288.547272,1123.321045 288.319702,1123.322510 
	C288.319702,1208.840332 288.319702,1294.358154 288.319702,1379.875977 
	C288.547272,1379.876099 288.774872,1379.876343 289.002441,1379.876465 
	C289.002441,1331.417603 289.002441,1282.958862 289.002441,1233.500000 
z" data-index="5"></path>
<path fill="#9E1C48" opacity="1.000000" stroke="none" d="
M1762.912598,1394.494385 
	C1762.536499,1393.173218 1762.032837,1391.412598 1762.032593,1389.651978 
	C1761.998779,1149.132690 1762.000854,908.613464 1762.017456,668.094177 
	C1762.017578,666.612366 1762.239990,665.130615 1762.643311,663.352905 
	C1763.128296,668.044067 1763.503418,673.031006 1763.504028,678.018005 
	C1763.532837,909.206909 1763.533813,1140.395752 1763.507690,1371.584717 
	C1763.506836,1379.074707 1763.189697,1386.564819 1762.912598,1394.494385 
z" data-index="6"></path>
<path fill="#B91851" opacity="1.000000" stroke="none" d="
M288.997253,1015.568542 
	C288.692902,1014.132629 288.119629,1012.223999 288.117737,1010.314819 
	C288.055664,948.002014 288.049622,885.689087 288.028290,823.376221 
	C288.027649,821.546265 287.952759,819.716370 287.742615,817.533203 
	C287.492828,800.718994 287.412933,784.258118 287.593597,767.094788 
	C287.754395,765.301147 287.654663,764.209961 287.554932,763.118713 
	C287.451324,750.978516 287.277802,738.838501 287.260132,726.698181 
	C287.231995,707.393066 287.307831,688.087891 287.615448,668.001587 
	C288.260895,665.132385 288.630585,663.044189 289.000305,660.956055 
	C288.998413,779.002563 288.996552,897.049072 288.997253,1015.568542 
z" data-index="7"></path>
<path fill="#E41F67" opacity="1.000000" stroke="none" d="
M288.995911,660.573120 
	C288.630585,663.044189 288.260895,665.132385 287.730896,667.537842 
	C286.479919,653.662476 288.905884,639.984192 293.822723,626.366882 
	C294.018768,627.953064 294.578552,630.083008 293.863556,631.619995 
	C290.523834,638.799316 289.517578,646.289307 290.007385,654.544556 
	C289.670349,656.736572 289.330963,658.463379 288.995911,660.573120 
z" data-index="8"></path>
<path fill="#E41F67" opacity="1.000000" stroke="none" d="
M287.415771,763.478577 
	C287.654663,764.209961 287.754395,765.301147 287.703857,766.630737 
	C287.461243,765.858826 287.368896,764.848633 287.415771,763.478577 
z" data-index="9"></path>
<path fill="#E41F67" opacity="1.000000" stroke="none" d="
M354.066284,1488.226807 
	C354.317413,1488.105591 354.656067,1488.204102 355.005737,1488.518555 
	C354.675110,1488.800293 354.387512,1488.704224 354.066284,1488.226807 
z" data-index="10"></path>
<path fill="#FEFCFE" opacity="1.000000" stroke="none" d="
M799.324219,596.641968 
	C792.221008,592.558411 785.396790,588.723816 778.660339,584.740723 
	C764.257385,576.224487 759.258545,558.207214 767.267944,543.945801 
	C775.572998,529.157959 793.300659,523.690369 808.136353,532.049316 
	C851.081177,556.245972 893.857056,580.742188 936.699829,605.119812 
	C962.307129,619.690369 987.555176,634.948120 1013.647949,648.590149 
	C1031.536377,657.942810 1051.536255,659.792236 1071.594849,658.668518 
	C1092.488647,657.498108 1112.446655,652.795532 1130.324707,641.319824 
	C1138.279663,636.213562 1145.301270,630.103149 1149.076172,621.137878 
	C1153.834229,609.837463 1149.295410,600.102051 1141.829224,592.427368 
	C1136.061401,586.498535 1128.324219,582.299805 1121.036499,578.065125 
	C1065.753662,545.942261 1010.355774,514.017273 955.017517,481.989624 
	C940.975403,473.862610 935.990784,456.359924 943.511353,442.095062 
	C951.198181,427.514771 969.190247,421.321838 983.781555,429.065857 
	C998.774597,437.023010 1013.314331,445.836975 1028.019653,454.332886 
	C1071.124634,479.236816 1113.913452,504.708862 1157.424316,528.881531 
	C1182.346802,542.727356 1199.797119,561.861816 1207.863770,589.164307 
	C1217.339966,621.237854 1208.725708,649.153687 1186.501953,673.003967 
	C1163.850830,697.312927 1134.807739,709.997437 1102.631836,715.979858 
	C1064.202637,723.124939 1026.504272,720.227112 990.465881,704.814148 
	C976.466858,698.826965 963.585083,690.199524 950.276733,682.630005 
	C900.047180,654.060181 849.851440,625.430786 799.324219,596.641968 
z" data-index="11"></path>
<path fill="#FEFDFE" opacity="1.000000" stroke="none" d="
M1394.019775,1243.988037 
	C1386.926270,1235.861816 1380.065674,1228.002563 1372.366943,1219.182861 
	C1372.366943,1228.879761 1372.329956,1237.269165 1372.373047,1245.657959 
	C1372.660278,1301.644653 1372.969116,1357.631348 1373.257568,1413.618042 
	C1373.297119,1421.278320 1373.693848,1428.968384 1373.170166,1436.592896 
	C1372.071777,1452.587891 1358.828125,1464.886963 1343.155518,1465.031006 
	C1326.671387,1465.182617 1312.897095,1453.759033 1311.933838,1437.506958 
	C1310.900146,1420.066406 1311.238525,1402.539185 1311.142578,1385.048950 
	C1310.688599,1302.234619 1310.254639,1219.420044 1309.895996,1136.605225 
	C1309.796387,1113.598145 1331.982910,1098.214355 1352.730713,1107.336792 
	C1358.263794,1109.769531 1363.262573,1114.382080 1367.334229,1119.022461 
	C1402.374878,1158.958618 1437.144531,1199.132690 1472.002075,1239.229614 
	C1475.345581,1243.075684 1478.737061,1246.879883 1483.059204,1251.784912 
	C1483.059204,1249.026001 1483.063599,1247.628174 1483.058594,1246.230469 
	C1482.823853,1180.577026 1482.577271,1114.923462 1482.360962,1049.270020 
	C1482.309570,1033.688721 1489.055786,1023.074646 1502.248047,1017.749695 
	C1520.893433,1010.223572 1542.417725,1022.749512 1543.908569,1042.864746 
	C1545.039185,1058.119385 1544.599487,1073.499390 1544.646240,1088.824219 
	C1544.894653,1170.309814 1545.090332,1251.795898 1545.269409,1333.281738 
	C1545.306519,1350.180664 1536.126831,1362.199829 1520.354004,1365.359497 
	C1509.275146,1367.578857 1499.434692,1364.569092 1491.808960,1356.065918 
	C1480.803101,1343.793701 1470.058105,1331.287476 1459.226562,1318.859375 
	C1437.559814,1293.999023 1415.909790,1269.123901 1394.019775,1243.988037 
z" data-index="12"></path>
<path fill="#FEFDFE" opacity="1.000000" stroke="none" d="
M567.900757,1230.446655 
	C585.190552,1240.076172 602.445007,1249.769775 619.777039,1259.322632 
	C664.388977,1283.911133 709.036743,1308.434692 753.667236,1332.989502 
	C771.449097,1342.772705 778.617065,1359.862183 772.105530,1376.908813 
	C765.115417,1395.208374 743.647766,1404.278320 725.879578,1395.404907 
	C708.016846,1386.484497 690.742126,1376.383667 673.236023,1366.752441 
	C637.065674,1346.852661 600.913757,1326.919434 564.748047,1307.011353 
	C563.753296,1306.463745 562.688171,1306.043945 560.882080,1305.205322 
	C560.882080,1307.432373 560.879211,1309.160645 560.882446,1310.888916 
	C560.955444,1349.715942 561.086060,1388.543091 561.078369,1427.370117 
	C561.074646,1446.362061 549.153320,1460.104492 530.307861,1462.362061 
	C525.676086,1462.916992 520.803528,1461.462524 515.406128,1460.665771 
	C511.673584,1458.759644 508.576630,1457.119385 505.479675,1455.479004 
	C505.479706,1455.479004 505.385437,1455.443359 505.334534,1455.246094 
	C505.086823,1454.748169 504.809631,1454.580322 504.452087,1454.544922 
	C504.452087,1454.544922 504.266876,1454.524048 504.226379,1454.247070 
	C503.591095,1453.514282 502.996338,1453.058350 502.401611,1452.602295 
	C502.401611,1452.602295 502.118713,1452.652100 502.186462,1452.405762 
	C501.979675,1451.964111 501.705109,1451.768921 501.430542,1451.573608 
	C501.430542,1451.573608 501.353424,1451.893188 501.323914,1451.475586 
	C500.885437,1450.679077 500.476501,1450.300171 500.067566,1449.921143 
	C500.067596,1449.921143 500.001221,1449.999634 499.931152,1449.635986 
	C494.477081,1442.092896 492.762512,1433.828979 492.710144,1425.073975 
	C492.743713,1409.347168 492.777283,1393.620483 492.800598,1376.977783 
	C492.637024,1339.789307 492.457306,1303.516846 492.336395,1267.244019 
	C492.145050,1209.838257 491.993103,1152.432495 491.934021,1094.567627 
	C491.954071,1087.064087 491.864594,1080.019653 491.810059,1072.509521 
	C491.826843,1063.428101 492.155396,1054.793945 491.699768,1046.201294 
	C491.171143,1036.231567 493.215546,1027.182129 499.136383,1019.086243 
	C499.136383,1019.086243 499.038239,1019.035767 499.316956,1018.960388 
	C499.909393,1018.439819 500.223145,1017.994629 500.536865,1017.549438 
	C500.536896,1017.549438 500.533661,1017.441040 500.861328,1017.287354 
	C507.308289,1011.234863 514.654175,1007.915894 523.024841,1006.752563 
	C524.099731,1006.793884 525.174683,1006.835144 527.043396,1006.920959 
	C531.548462,1007.684998 535.259705,1008.404541 538.970947,1009.124084 
	C538.970947,1009.124084 538.961304,1009.043579 539.136353,1009.327148 
	C541.181946,1010.429932 543.052490,1011.249146 544.922974,1012.068298 
	C544.922974,1012.068298 544.986938,1011.997253 545.057983,1012.208374 
	C545.321838,1012.646484 545.562805,1012.724426 545.851929,1012.653259 
	C568.571350,1025.574829 591.263306,1038.544800 614.015381,1051.408569 
	C677.498291,1087.300781 741.028625,1123.109131 804.488586,1159.041870 
	C820.486084,1168.100220 826.524719,1186.376831 819.368164,1202.968262 
	C812.667847,1218.501953 795.281616,1226.677734 778.776062,1221.818481 
	C775.307800,1220.797485 771.970642,1219.110962 768.801880,1217.325195 
	C706.722839,1182.339966 644.677856,1147.294434 582.110596,1112.054199 
	C581.595398,1111.847046 581.129150,1111.783936 581.129150,1111.783936 
	C581.129150,1111.783936 581.075745,1111.884399 580.954712,1111.605225 
	C580.240051,1111.150269 579.646484,1110.974487 579.052917,1110.798584 
	C579.052917,1110.798584 579.060791,1110.913818 578.937622,1110.598755 
	C576.458069,1108.995239 574.101685,1107.706665 571.745300,1106.418213 
	C571.745300,1106.418213 571.581543,1106.372070 571.348999,1106.115967 
	C570.410400,1105.563354 569.704346,1105.266602 568.998352,1104.969971 
	C568.998352,1104.969971 569.001587,1105.007690 568.827454,1104.717285 
	C567.254395,1103.759399 565.855469,1103.092163 564.456543,1102.424805 
	C564.456543,1102.424805 564.397888,1102.491333 564.198486,1102.182129 
	C562.899597,1101.352783 561.800049,1100.832397 560.330383,1100.136963 
	C560.265930,1101.534912 560.194397,1102.336426 560.197144,1103.137573 
	C560.331970,1143.013306 560.535522,1182.889160 560.520020,1222.764893 
	C560.518372,1226.895874 562.621643,1228.279297 565.844116,1229.246094 
	C565.844116,1229.246094 565.893372,1229.154175 565.995850,1229.442871 
	C566.699158,1229.969849 567.299988,1230.208252 567.900757,1230.446655 
z" data-index="13"></path>
<path fill="#B5265B" opacity="1.000000" stroke="none" d="
M491.824463,1095.026733 
	C491.993103,1152.432495 492.145050,1209.838257 492.336395,1267.244019 
	C492.457306,1303.516846 492.637024,1339.789307 492.695923,1376.518799 
	C492.070496,1375.245728 491.079742,1373.517090 491.075928,1371.786255 
	C490.985504,1330.660400 491.002472,1289.534424 490.996948,1248.408447 
	C490.992981,1219.021118 490.983063,1189.633667 490.979065,1160.246338 
	C490.976837,1143.676514 491.101807,1127.105591 490.954193,1110.537109 
	C490.737946,1086.267456 490.164276,1062.000000 490.102844,1037.730713 
	C490.084656,1030.545532 492.965759,1024.116455 498.764160,1019.085083 
	C493.215546,1027.182129 491.171143,1036.231567 491.699768,1046.201294 
	C492.155396,1054.793945 491.826843,1063.428101 491.576691,1072.848389 
	C491.480438,1080.777466 491.652466,1087.902100 491.824463,1095.026733 
z" data-index="14"></path>
<path fill="#B21951" opacity="1.000000" stroke="none" d="
M565.857788,1228.862061 
	C562.621643,1228.279297 560.518372,1226.895874 560.520020,1222.764893 
	C560.535522,1182.889160 560.331970,1143.013306 560.197144,1103.137573 
	C560.194397,1102.336426 560.265930,1101.534912 560.330383,1100.136963 
	C561.800049,1100.832397 562.899597,1101.352783 564.178223,1102.142822 
	C563.570374,1103.872803 562.101196,1105.330933 562.096252,1106.793945 
	C561.965210,1145.279907 561.925171,1183.766968 562.146118,1222.252075 
	C562.158081,1224.334473 564.574341,1226.402954 565.857788,1228.862061 
z" data-index="15"></path>
<path fill="#B5265B" opacity="1.000000" stroke="none" d="
M492.481262,1425.406616 
	C492.762512,1433.828979 494.477081,1442.092896 499.970032,1449.602539 
	C496.242218,1448.344238 491.907959,1441.981689 491.997894,1438.099121 
	C492.093353,1433.979370 492.168396,1429.859253 492.481262,1425.406616 
z" data-index="16"></path>
<path fill="#B5265B" opacity="1.000000" stroke="none" d="
M522.942871,1006.431396 
	C514.654175,1007.915894 507.308289,1011.234863 500.915527,1017.288574 
	C500.722992,1016.533936 500.447113,1015.169739 500.938812,1014.783813 
	C507.370422,1009.737061 514.150330,1005.440857 522.942871,1006.431396 
z" data-index="17"></path>
<path fill="#B5265B" opacity="1.000000" stroke="none" d="
M538.795166,1008.808960 
	C535.259705,1008.404541 531.548462,1007.684998 527.442322,1006.854370 
	C531.418823,1003.928528 535.128967,1005.484741 538.795166,1008.808960 
z" data-index="18"></path>
<path fill="#B5265B" opacity="1.000000" stroke="none" d="
M505.423096,1455.856323 
	C508.576630,1457.119385 511.673584,1458.759644 515.014160,1460.659546 
	C510.868927,1461.661987 507.253326,1460.772583 505.423096,1455.856323 
z" data-index="19"></path>
<path fill="#B21951" opacity="1.000000" stroke="none" d="
M571.539978,1106.793945 
	C574.101685,1107.706665 576.458069,1108.995239 578.991760,1110.578613 
	C576.296997,1110.190063 572.421265,1111.629517 571.539978,1106.793945 
z" data-index="20"></path>
<path fill="#B5265B" opacity="1.000000" stroke="none" d="
M544.897827,1011.700562 
	C543.052490,1011.249146 541.181946,1010.429932 539.099731,1009.344482 
	C540.882874,1009.829712 542.877808,1010.581238 544.897827,1011.700562 
z" data-index="21"></path>
<path fill="#B21951" opacity="1.000000" stroke="none" d="
M564.409485,1102.820312 
	C565.855469,1103.092163 567.254395,1103.759399 568.844482,1104.708740 
	C567.477905,1104.398926 565.920166,1103.807373 564.409485,1102.820312 
z" data-index="22"></path>
<path fill="#B5265B" opacity="1.000000" stroke="none" d="
M502.315491,1452.981445 
	C502.996338,1453.058350 503.591095,1453.514282 504.316284,1454.222412 
	C503.707611,1454.103394 502.968475,1453.732056 502.315491,1452.981445 
z" data-index="23"></path>
<path fill="#B21951" opacity="1.000000" stroke="none" d="
M569.129883,1105.269653 
	C569.704346,1105.266602 570.410400,1105.563354 571.266663,1106.094360 
	C570.698425,1106.075562 569.979919,1105.822510 569.129883,1105.269653 
z" data-index="24"></path>
<path fill="#B21951" opacity="1.000000" stroke="none" d="
M567.796997,1230.108887 
	C567.299988,1230.208252 566.699158,1229.969849 565.943726,1229.444580 
	C566.423828,1229.362061 567.058533,1229.566528 567.796997,1230.108887 
z" data-index="25"></path>
<path fill="#B5265B" opacity="1.000000" stroke="none" d="
M500.076904,1450.253540 
	C500.476501,1450.300171 500.885437,1450.679077 501.390076,1451.325195 
	C501.019287,1451.256836 500.552765,1450.921387 500.076904,1450.253540 
z" data-index="26"></path>
<path fill="#B21951" opacity="1.000000" stroke="none" d="
M579.187500,1111.102783 
	C579.646484,1110.974487 580.240051,1111.150269 581.008728,1111.587646 
	C580.563232,1111.701660 579.942627,1111.554321 579.187500,1111.102783 
z" data-index="27"></path>
<path fill="#B5265B" opacity="1.000000" stroke="none" d="
M500.200317,1017.481934 
	C500.223145,1017.994629 499.909393,1018.439819 499.344299,1019.008301 
	C499.349915,1018.559204 499.606842,1017.986877 500.200317,1017.481934 
z" data-index="28"></path>
<path fill="#B5265B" opacity="1.000000" stroke="none" d="
M545.741821,1012.499023 
	C545.562805,1012.724426 545.321838,1012.646484 545.030579,1012.245850 
	C545.197083,1012.081848 545.430237,1012.172729 545.741821,1012.499023 
z" data-index="29"></path>
<path fill="#B5265B" opacity="1.000000" stroke="none" d="
M501.402771,1451.880493 
	C501.705109,1451.768921 501.979675,1451.964111 502.330078,1452.407471 
	C502.062317,1452.499634 501.718658,1452.343506 501.402771,1451.880493 
z" data-index="30"></path>
<path fill="#B21951" opacity="1.000000" stroke="none" d="
M581.142700,1111.971313 
	C581.129150,1111.783936 581.595398,1111.847046 581.769165,1112.005005 
	C581.680725,1112.161621 581.418518,1112.160156 581.142700,1111.971313 
z" data-index="31"></path>
<path fill="#B5265B" opacity="1.000000" stroke="none" d="
M504.421112,1454.855713 
	C504.809631,1454.580322 505.086823,1454.748169 505.369812,1455.281982 
	C505.100708,1455.398926 504.745422,1455.282715 504.421112,1454.855713 
z" data-index="32"></path>
<path fill="#D3155B" opacity="1.000000" stroke="none" d="
M289.002441,1234.000000 
	C289.002441,1282.958862 289.002441,1331.417603 289.002441,1379.876465 
	C288.774872,1379.876343 288.547272,1379.876099 288.319702,1379.875977 
	C288.319702,1294.358154 288.319702,1208.840332 288.319702,1123.322510 
	C288.547272,1123.321045 288.774872,1123.319458 289.002441,1123.317871 
	C289.002441,1160.045288 289.002441,1196.772583 289.002441,1234.000000 
z" data-index="33"></path>
<path fill="#CF638C" opacity="1.000000" stroke="none" d="
M491.933990,1094.567627 
	C491.652466,1087.902100 491.480438,1080.777466 491.541748,1073.313965 
	C491.864594,1080.019653 491.954071,1087.064087 491.933990,1094.567627 
z" data-index="34"></path>
</svg>