<svg xmlns="http://www.w3.org/2000/svg" viewBox="0 0 600 600" width="600" height="600">
    <rect width="100%" height="100%" fill="black"/>
    <path d="M 330,252 L 329,253 L 328,253 L 327,254 L 326,254 L 325,255 L 324,255 L 323,256 L 322,256 L 321,257 L 321,258 L 319,260 L 319,261 L 316,264 L 316,265 L 315,266 L 315,267 L 313,269 L 313,270 L 311,272 L 311,273 L 310,274 L 310,275 L 308,277 L 308,278 L 307,279 L 307,280 L 306,281 L 306,282 L 304,284 L 304,285 L 303,286 L 303,287 L 302,288 L 302,289 L 301,290 L 302,291 L 302,293 L 300,295 L 301,296 L 301,297 L 302,298 L 302,300 L 304,302 L 305,302 L 306,303 L 308,303 L 309,304 L 309,305 L 308,306 L 307,306 L 306,307 L 305,307 L 304,308 L 303,308 L 303,309 L 302,310 L 302,316 L 300,318 L 287,318 L 287,319 L 286,320 L 286,321 L 284,323 L 284,324 L 282,326 L 282,327 L 280,329 L 280,331 L 281,332 L 279,334 L 276,334 L 276,335 L 274,337 L 274,338 L 273,339 L 273,340 L 272,341 L 272,342 L 271,343 L 271,344 L 270,345 L 270,346 L 268,348 L 268,349 L 267,350 L 267,351 L 266,352 L 266,353 L 265,354 L 265,356 L 263,358 L 263,359 L 260,362 L 260,363 L 258,365 L 258,366 L 256,368 L 256,369 L 255,370 L 255,371 L 254,372 L 254,373 L 255,372 L 255,371 L 261,365 L 261,364 L 264,361 L 266,361 L 267,360 L 269,360 L 271,358 L 271,357 L 272,356 L 272,355 L 273,354 L 273,353 L 274,352 L 274,351 L 275,350 L 275,349 L 276,348 L 277,348 L 278,347 L 278,343 L 280,341 L 280,339 L 282,337 L 282,336 L 283,335 L 283,334 L 284,333 L 285,334 L 285,336 L 284,337 L 284,340 L 283,341 L 283,343 L 282,344 L 282,347 L 281,348 L 281,351 L 282,352 L 281,353 L 281,356 L 280,357 L 282,359 L 284,359 L 285,360 L 291,360 L 292,359 L 295,359 L 296,360 L 334,360 L 335,359 L 337,359 L 338,358 L 339,358 L 344,353 L 344,352 L 345,351 L 345,350 L 346,349 L 346,307 L 345,306 L 345,304 L 341,304 L 340,305 L 337,305 L 336,306 L 334,306 L 333,305 L 335,303 L 335,301 L 338,298 L 339,298 L 340,297 L 341,297 L 341,296 L 342,295 L 342,293 L 343,292 L 343,291 L 344,290 L 344,288 L 345,287 L 345,284 L 346,283 L 346,256 L 345,255 L 345,254 L 340,254 L 338,252 L 336,252 L 335,253 L 333,253 L 332,252 Z" fill="white" /><path d="M 360,243 L 360,295 L 359,296 L 359,301 L 360,302 L 360,303 L 361,304 L 361,305 L 360,306 L 360,307 L 359,308 L 359,310 L 361,310 L 362,311 L 362,315 L 361,316 L 361,318 L 360,319 L 360,320 L 359,321 L 359,323 L 360,324 L 360,333 L 361,334 L 361,338 L 360,339 L 360,340 L 359,341 L 359,348 L 360,349 L 360,356 L 361,357 L 361,364 L 364,361 L 365,361 L 367,359 L 368,359 L 370,357 L 370,356 L 375,351 L 376,351 L 379,348 L 380,348 L 381,347 L 382,347 L 388,341 L 389,341 L 390,342 L 390,343 L 381,352 L 381,353 L 377,357 L 377,358 L 375,360 L 375,361 L 374,362 L 374,363 L 370,367 L 370,368 L 369,369 L 369,370 L 368,371 L 368,372 L 367,373 L 367,374 L 366,375 L 366,382 L 361,387 L 361,388 L 360,389 L 360,396 L 359,397 L 360,398 L 360,418 L 362,418 L 363,419 L 364,419 L 365,420 L 367,420 L 368,421 L 370,421 L 371,422 L 372,422 L 373,423 L 375,423 L 376,424 L 378,424 L 379,425 L 380,425 L 381,426 L 383,426 L 384,427 L 386,427 L 387,428 L 388,428 L 389,429 L 391,429 L 392,430 L 394,430 L 395,431 L 396,431 L 397,432 L 399,432 L 400,433 L 402,433 L 403,434 L 404,434 L 405,435 L 408,435 L 408,421 L 407,420 L 407,416 L 406,415 L 406,414 L 405,413 L 405,410 L 406,409 L 406,408 L 405,407 L 405,401 L 402,398 L 407,393 L 407,391 L 408,390 L 408,389 L 407,388 L 407,381 L 408,380 L 408,366 L 407,365 L 407,362 L 408,361 L 452,361 L 453,360 L 453,356 L 454,355 L 454,354 L 456,352 L 456,351 L 457,350 L 457,349 L 458,348 L 458,347 L 459,346 L 459,344 L 456,341 L 459,338 L 460,338 L 461,337 L 462,337 L 464,335 L 465,335 L 466,334 L 466,333 L 467,332 L 467,331 L 468,330 L 468,329 L 469,328 L 469,327 L 470,326 L 470,325 L 472,323 L 472,322 L 474,320 L 474,319 L 409,319 L 408,318 L 408,286 L 409,285 L 491,285 L 491,284 L 492,283 L 492,282 L 494,280 L 494,279 L 495,278 L 495,277 L 496,276 L 496,275 L 497,274 L 497,273 L 499,271 L 499,270 L 500,269 L 500,268 L 501,267 L 501,266 L 502,265 L 502,264 L 504,262 L 504,261 L 505,260 L 505,259 L 506,258 L 506,257 L 507,256 L 507,255 L 509,253 L 509,252 L 510,251 L 510,250 L 511,249 L 511,248 L 513,246 L 513,245 L 512,245 L 511,244 L 463,244 L 462,243 L 456,243 L 455,244 L 448,244 L 447,245 L 442,245 L 441,246 L 440,246 L 439,247 L 438,247 L 437,248 L 436,248 L 435,249 L 434,249 L 433,248 L 433,246 L 434,245 L 433,245 L 432,246 L 430,246 L 429,245 L 427,245 L 426,244 L 423,244 L 422,245 L 421,245 L 419,247 L 418,247 L 413,252 L 411,252 L 410,253 L 408,253 L 407,254 L 405,254 L 404,255 L 403,255 L 400,258 L 398,258 L 397,257 L 397,256 L 398,255 L 398,254 L 399,253 L 399,251 L 400,250 L 400,248 L 399,247 L 399,245 L 400,244 L 399,243 L 391,243 L 390,244 L 380,244 L 379,243 Z" fill="white" /><path d="M 312,242 L 311,243 L 240,243 L 239,244 L 237,244 L 236,245 L 235,245 L 231,249 L 231,250 L 230,251 L 230,252 L 229,253 L 229,256 L 228,257 L 228,292 L 229,293 L 229,303 L 230,304 L 230,308 L 231,309 L 233,309 L 235,311 L 234,312 L 234,313 L 229,318 L 229,322 L 230,323 L 230,326 L 229,327 L 229,346 L 235,340 L 236,340 L 237,339 L 238,339 L 237,338 L 237,336 L 242,331 L 243,331 L 253,321 L 254,322 L 254,323 L 252,325 L 252,326 L 250,328 L 250,329 L 248,331 L 248,332 L 245,335 L 245,336 L 244,337 L 244,339 L 245,340 L 243,342 L 241,342 L 239,344 L 239,345 L 236,348 L 236,349 L 234,351 L 234,352 L 233,353 L 234,354 L 234,357 L 235,358 L 235,366 L 234,367 L 234,369 L 233,370 L 233,374 L 232,375 L 232,380 L 232,378 L 233,377 L 233,374 L 234,373 L 234,372 L 235,371 L 236,371 L 237,370 L 239,370 L 239,368 L 240,367 L 240,366 L 241,365 L 241,363 L 242,362 L 242,361 L 243,360 L 243,359 L 245,357 L 245,356 L 247,354 L 247,353 L 248,352 L 248,350 L 249,349 L 249,348 L 250,347 L 250,345 L 252,343 L 253,343 L 254,342 L 255,343 L 256,342 L 256,341 L 258,339 L 258,338 L 259,337 L 259,335 L 266,328 L 266,327 L 268,325 L 268,324 L 270,322 L 270,321 L 272,319 L 272,317 L 271,316 L 271,313 L 275,309 L 275,284 L 276,283 L 290,283 L 292,281 L 292,280 L 295,277 L 295,276 L 297,274 L 297,273 L 300,270 L 300,269 L 302,267 L 302,266 L 304,264 L 304,263 L 313,254 L 313,253 L 315,251 L 315,250 L 318,247 L 318,246 L 319,245 L 317,245 L 315,243 L 314,243 L 313,242 Z" fill="white" /><path d="M 239,167 L 238,168 L 234,168 L 233,169 L 230,169 L 229,168 L 225,168 L 224,169 L 223,169 L 221,171 L 220,171 L 219,172 L 213,172 L 212,171 L 209,171 L 208,170 L 204,170 L 203,169 L 202,170 L 198,170 L 197,171 L 196,171 L 195,172 L 194,172 L 193,173 L 192,173 L 189,176 L 188,176 L 185,179 L 184,179 L 183,180 L 180,180 L 179,179 L 179,171 L 178,170 L 178,169 L 173,169 L 172,170 L 170,170 L 169,169 L 166,169 L 165,168 L 159,168 L 158,169 L 103,169 L 103,201 L 104,202 L 104,204 L 105,205 L 105,207 L 106,208 L 106,214 L 107,215 L 107,216 L 108,217 L 108,221 L 105,224 L 105,225 L 103,227 L 103,229 L 104,230 L 104,235 L 103,236 L 103,239 L 104,240 L 104,242 L 103,243 L 103,259 L 104,260 L 104,262 L 103,263 L 103,276 L 104,277 L 104,281 L 105,282 L 105,284 L 108,284 L 109,283 L 110,283 L 111,282 L 112,282 L 112,281 L 113,280 L 114,280 L 115,279 L 116,279 L 117,280 L 119,280 L 120,279 L 126,279 L 127,280 L 127,281 L 123,285 L 122,285 L 120,287 L 119,287 L 117,289 L 116,289 L 110,295 L 111,296 L 111,298 L 108,301 L 107,301 L 105,303 L 106,304 L 106,306 L 104,308 L 107,308 L 112,313 L 112,315 L 111,316 L 111,317 L 102,326 L 102,327 L 101,328 L 101,329 L 102,330 L 102,331 L 103,332 L 103,360 L 138,360 L 141,357 L 143,357 L 144,358 L 145,358 L 146,359 L 150,359 L 151,358 L 156,358 L 157,357 L 158,357 L 160,355 L 161,355 L 162,354 L 163,354 L 164,353 L 165,353 L 166,352 L 167,352 L 168,351 L 169,351 L 170,350 L 171,350 L 172,349 L 173,349 L 174,350 L 174,351 L 169,356 L 169,357 L 170,358 L 175,358 L 176,359 L 177,359 L 178,360 L 196,360 L 196,359 L 197,358 L 197,357 L 199,355 L 199,354 L 200,353 L 200,352 L 201,351 L 201,350 L 203,348 L 203,347 L 204,346 L 204,345 L 205,344 L 205,343 L 206,342 L 206,341 L 208,339 L 208,338 L 209,337 L 209,336 L 210,335 L 210,334 L 212,332 L 212,331 L 213,330 L 213,329 L 214,328 L 214,327 L 215,326 L 215,325 L 217,323 L 217,322 L 218,321 L 218,320 L 219,319 L 219,318 L 152,318 L 151,317 L 151,286 L 152,285 L 197,285 L 197,284 L 198,283 L 198,282 L 200,280 L 200,279 L 201,278 L 201,277 L 202,276 L 202,275 L 204,273 L 204,272 L 205,271 L 205,270 L 207,268 L 207,267 L 208,266 L 208,265 L 209,264 L 209,263 L 211,261 L 211,260 L 212,259 L 212,258 L 214,256 L 214,255 L 215,254 L 215,253 L 216,252 L 216,251 L 218,249 L 218,248 L 219,247 L 219,246 L 220,245 L 220,244 L 188,244 L 187,245 L 185,245 L 184,246 L 179,246 L 178,245 L 159,245 L 158,244 L 152,244 L 151,243 L 151,210 L 152,209 L 232,209 L 232,208 L 233,207 L 233,206 L 235,204 L 235,203 L 236,202 L 236,201 L 237,200 L 237,199 L 238,198 L 238,197 L 240,195 L 240,194 L 241,193 L 241,192 L 242,191 L 242,190 L 243,189 L 243,188 L 245,186 L 245,185 L 246,184 L 246,183 L 247,182 L 247,181 L 248,180 L 248,179 L 250,177 L 250,176 L 251,175 L 251,174 L 252,173 L 252,172 L 254,170 L 254,169 L 252,169 L 251,168 L 243,168 L 242,167 Z" fill="white" />
    </svg>