<svg version="1.1" xmlns="http://www.w3.org/2000/svg" width="400" height="400">
<path d="M0 0 C132 0 264 0 400 0 C400 132 400 264 400 400 C268 400 136 400 0 400 C0 268 0 136 0 0 Z " fill="#000000" transform="translate(0,0)"/>
<path d="M0 0 C1.33917261 0.30903983 2.67088318 0.65023242 4 1 C5.19625 1.103125 6.3925 1.20625 7.625 1.3125 C8.73875 1.539375 9.8525 1.76625 11 2 C12.125 4 12.125 4 13 6 C15.55519921 6.81171228 15.55519921 6.81171228 18 7 C18 7.66 18 8.32 18 9 C18.66 9 19.32 9 20 9 C20 9.66 20 10.32 20 11 C24.95 11 29.9 11 35 11 C47 33.10679612 47 33.10679612 47 37 C47.66 37 48.32 37 49 37 C49.350625 35.845 49.70125 34.69 50.0625 33.5 C52.50304063 26.1191417 55.84084455 19.09319808 59 12 C64.61 12 70.22 12 76 12 C74.45095332 16.64714005 73.09926342 19.8016493 70.625 23.875 C68.21075299 27.91873878 65.9382817 31.94835843 63.9140625 36.19921875 C62.95136448 38.09581614 61.83412907 39.83485462 60.6875 41.625 C58.63237204 45.73525592 58.76713583 46.62532069 60 51 C61.76401211 54.56248782 63.77681062 57.96215594 65.8125 61.375 C76 78.67777443 76 78.67777443 76 82 C70.39 82 64.78 82 59 82 C57.32645274 78.3988849 55.66093653 74.79442569 54 71.1875 C53.52304687 70.16333984 53.04609375 69.13917969 52.5546875 68.08398438 C52.10351562 67.10107422 51.65234375 66.11816406 51.1875 65.10546875 C50.76855469 64.19949951 50.34960938 63.29353027 49.91796875 62.36010742 C49 60 49 60 49 57 C48.34 57 47.68 57 47 57 C46.77054687 57.96292969 46.54109375 58.92585938 46.3046875 59.91796875 C44.9222446 64.74194129 42.56352153 68.95088788 40.125 73.3125 C39.69058594 74.12267578 39.25617188 74.93285156 38.80859375 75.76757812 C38.37933594 76.54166016 37.95007813 77.31574219 37.5078125 78.11328125 C37.12254395 78.81235596 36.73727539 79.51143066 36.34033203 80.23168945 C34.7492582 82.33080562 33.45249026 83.08172546 31 84 C28.203125 83.9765625 28.203125 83.9765625 25.25 83.625 C24.26515625 83.51414062 23.2803125 83.40328125 22.265625 83.2890625 C21.51796875 83.19367188 20.7703125 83.09828125 20 83 C19.67 83.66 19.34 84.32 19 85 C18.01 85 17.02 85 16 85 C14.31288577 86.6459651 12.6454378 88.31237149 11 90 C10.34 90 9.68 90 9 90 C9 90.66 9 91.32 9 92 C5.84584248 93.86913038 3.65246874 94.59806506 0 94 C-1.9594622 92.01940338 -3.46629739 90.24254037 -5.0625 88 C-5.50150635 87.40421143 -5.9405127 86.80842285 -6.39282227 86.19458008 C-9.42621622 82.00241257 -12.06730398 77.81623713 -14 73 C-14.27199219 72.35804688 -14.54398438 71.71609375 -14.82421875 71.0546875 C-18.03128326 63.07613678 -19.37304337 55.20373297 -19.3125 46.625 C-19.30758545 45.79282959 -19.3026709 44.96065918 -19.29760742 44.10327148 C-19.17532006 37.66719369 -18.29731007 32.04211225 -16 26 C-15.68289062 25.05253906 -15.36578125 24.10507813 -15.0390625 23.12890625 C-11.85829229 14.45510379 -6.55332382 6.55332382 0 0 Z " fill="#040302" transform="translate(204,186)"/>
<path d="M0 0 C-0.99 3.96 -1.98 7.92 -3 12 C-7.9053345 12.9810669 -9.31905555 12.86668257 -13.875 11.5625 C-25.12911055 8.80951259 -35.59481182 8.56948274 -46 14 C-46.72703125 14.32613281 -47.4540625 14.65226562 -48.203125 14.98828125 C-50.79645988 16.44844154 -51.03683773 18.23893483 -52 21 C-52.99 22.65 -53.98 24.3 -55 26 C-55.33 33.26 -55.66 40.52 -56 48 C-41.15 48 -26.3 48 -11 48 C-11 52.95 -11 57.9 -11 63 C-25.85 63 -40.7 63 -56 63 C-56 94.68 -56 126.36 -56 159 C-62.27 159 -68.54 159 -75 159 C-75 127.65 -75 96.3 -75 64 C-83.25 64 -91.5 64 -100 64 C-101.75559942 62.24440058 -101.13221919 59.96417558 -101.13671875 57.62890625 C-101.13285156 56.92636719 -101.12898438 56.22382813 -101.125 55.5 C-101.12886719 54.79746094 -101.13273437 54.09492188 -101.13671875 53.37109375 C-101.12661378 48.12661378 -101.12661378 48.12661378 -100 47 C-98.14630389 46.91262355 -96.28932459 46.89301847 -94.43359375 46.90234375 C-93.30888672 46.90556641 -92.18417969 46.90878906 -91.02539062 46.91210938 C-89.84138672 46.92048828 -88.65738281 46.92886719 -87.4375 46.9375 C-86.24962891 46.94201172 -85.06175781 46.94652344 -83.83789062 46.95117188 C-80.89187774 46.96300325 -77.94596319 46.97948713 -75 47 C-75.05220703 45.47632813 -75.05220703 45.47632813 -75.10546875 43.921875 C-75.44250593 29.89633786 -73.71699911 15.78269412 -63.625 5.125 C-47.29708604 -9.89809147 -19.07251759 -9.5362588 0 0 Z " fill="#F5F5F5" transform="translate(189,122)"/>
<path d="M0 0 C5.94 0 11.88 0 18 0 C21.8125 8.125 21.8125 8.125 22.99536133 10.64892578 C24.54020494 13.93627769 26.10171932 17.19802563 27.76171875 20.4296875 C29 23 29 23 29 25 C29.66 25 30.32 25 31 25 C31.350625 23.845 31.70125 22.69 32.0625 21.5 C34.50304063 14.1191417 37.84084455 7.09319808 41 0 C46.61 0 52.22 0 58 0 C56.45095332 4.64714005 55.09926342 7.8016493 52.625 11.875 C50.21075299 15.91873878 47.9382817 19.94835843 45.9140625 24.19921875 C44.95136448 26.09581614 43.83412907 27.83485462 42.6875 29.625 C40.63237204 33.73525592 40.76713583 34.62532069 42 39 C43.76401211 42.56248782 45.77681062 45.96215594 47.8125 49.375 C58 66.67777443 58 66.67777443 58 70 C52.39 70 46.78 70 41 70 C39.32645274 66.3988849 37.66093653 62.79442569 36 59.1875 C35.52304687 58.16333984 35.04609375 57.13917969 34.5546875 56.08398438 C34.10351562 55.10107422 33.65234375 54.11816406 33.1875 53.10546875 C32.76855469 52.19949951 32.34960938 51.29353027 31.91796875 50.36010742 C31 48 31 48 31 45 C30.34 45 29.68 45 29 45 C28.77570313 45.96035156 28.55140625 46.92070312 28.3203125 47.91015625 C26.91899224 52.81477716 24.40577722 57.03876817 21.875 61.4375 C21.17310547 62.67790039 21.17310547 62.67790039 20.45703125 63.94335938 C19.31126835 65.96598163 18.15654117 67.9835214 17 70 C11.39 70 5.78 70 0 70 C0.87775036 66.48899855 1.83584955 64.20059844 3.546875 61.078125 C4.0625 60.13453125 4.578125 59.1909375 5.109375 58.21875 C5.65078125 57.2390625 6.1921875 56.259375 6.75 55.25 C7.53890625 53.80367187 7.53890625 53.80367187 8.34375 52.328125 C11.10504697 47.29764338 13.90710621 42.46226242 17.32128906 37.84277344 C18.23163772 35.93066583 18.23163772 35.93066583 17.32324219 33.64013672 C15.88356561 30.76768976 14.38713715 27.94954403 12.8125 25.1484375 C12.19632813 24.05015625 11.58015625 22.951875 10.9453125 21.8203125 C10.30335938 20.68335938 9.66140625 19.54640625 9 18.375 C8.35804688 17.2303125 7.71609375 16.085625 7.0546875 14.90625 C3.67709645 8.86204938 3.67709645 8.86204938 0 3 C0 2.01 0 1.02 0 0 Z " fill="#F5D30E" transform="translate(222,198)"/>
<path d="M0 0 C4.31457305 0.319598 6.90647504 3.25801197 10 6 C8.6187244 8.93356627 7.00394678 11.48668613 5.125 14.125 C1.94592844 18.83157668 -0.13083171 23.65587792 -2 29 C-2.35707031 29.85207031 -2.71414062 30.70414063 -3.08203125 31.58203125 C-6.61452718 44.73494163 -5.3238215 60.96586207 1 73 C2.7232669 75.97688811 4.50470623 78.85830754 6.44921875 81.6953125 C7.82923049 83.74621156 8.95441508 85.76461154 10 88 C8.93106782 89.03590338 7.84421512 90.05333942 6.75 91.0625 C6.14671875 91.63097656 5.5434375 92.19945312 4.921875 92.78515625 C3 94 3 94 1.046875 94.03125 C-5.82072685 90.57123685 -11.14227607 79.92560646 -14 73 C-14.27328125 72.35675781 -14.5465625 71.71351563 -14.828125 71.05078125 C-18.02691333 63.06949076 -19.37304701 55.20424875 -19.3125 46.625 C-19.30758545 45.79282959 -19.3026709 44.96065918 -19.29760742 44.10327148 C-19.17532006 37.66719369 -18.29731007 32.04211225 -16 26 C-15.68289062 25.05253906 -15.36578125 24.10507813 -15.0390625 23.12890625 C-11.85829229 14.45510379 -6.55332382 6.55332382 0 0 Z " fill="#F5D40C" transform="translate(204,186)"/>
<path d="M0 0 C11.79657728 10.8811001 17.90670129 27.87683967 19.30859375 43.421875 C20.05493229 63.41470145 11.86174773 80.18950261 -1 95 C-7.42857143 90.85714286 -7.42857143 90.85714286 -10 88 C-8.6697856 84.27935082 -7.00442807 81.45563097 -4.625 78.3125 C4.5850434 65.41843924 5.38065309 50.40026571 4 35 C2.0719318 24.72605354 -3.35121069 15.88004659 -10 8 C-8.18341255 3.37595922 -5.13109685 0 0 0 Z " fill="#F6D40D" transform="translate(298,186)"/>
<path d="M0 0 C0.99 0 1.98 0 3 0 C1.96433355 2.09042353 0.91149382 4.16649677 -0.18359375 6.2265625 C-0.59738281 7.01804688 -1.01117188 7.80953125 -1.4375 8.625 C-1.84871094 9.40101563 -2.25992188 10.17703125 -2.68359375 10.9765625 C-6.27302887 19.22054702 -7.55679866 26.77509305 -7.5 35.75 C-7.49427979 36.80405029 -7.48855957 37.85810059 -7.48266602 38.9440918 C-7.2009059 51.28935917 -3.54875358 60.48541052 3.44921875 70.6953125 C4.82923049 72.74621156 5.95441508 74.76461154 7 77 C5.93106782 78.03590338 4.84421512 79.05333942 3.75 80.0625 C3.14671875 80.63097656 2.5434375 81.19945312 1.921875 81.78515625 C0 83 0 83 -1.953125 83.03125 C-8.82461516 79.56927786 -14.1366256 68.92705222 -17 62 C-17.29648438 61.31035156 -17.59296875 60.62070312 -17.8984375 59.91015625 C-19.4224846 56.15596683 -20.386358 53.12115196 -20 49 C-18 50 -18 50 -17.3671875 51.84765625 C-17.20476562 52.57855469 -17.04234375 53.30945313 -16.875 54.0625 C-16.62363281 55.16271484 -16.62363281 55.16271484 -16.3671875 56.28515625 C-16.24601563 56.85105469 -16.12484375 57.41695312 -16 58 C-14.515 57.505 -14.515 57.505 -13 57 C-13.01160156 56.0821875 -13.02320313 55.164375 -13.03515625 54.21875 C-13.11785521 42.97169131 -13.11785521 42.97169131 -12.4375 38.75 C-11.88763487 34.03687035 -12.37610741 29.6839936 -13 25 C-12.34 25 -11.68 25 -11 25 C-10.87625 24.2575 -10.7525 23.515 -10.625 22.75 C-10.03529939 20.1553173 -9.23827961 18.33087926 -8 16 C-7.32033324 14.33859237 -6.65061095 12.67299959 -6 11 C-5.34 11 -4.68 11 -4 11 C-4 9.68 -4 8.36 -4 7 C-3.34 7 -2.68 7 -2 7 C-2 5.68 -2 4.36 -2 3 C-1.34 3 -0.68 3 0 3 C0 2.01 0 1.02 0 0 Z " fill="#F3D016" transform="translate(207,197)"/>
<path d="M0 0 C5.94 0 11.88 0 18 0 C19.34041811 2.76760436 20.67252153 5.53869786 22 8.3125 C22.3815625 9.09818359 22.763125 9.88386719 23.15625 10.69335938 C23.5171875 11.45068359 23.878125 12.20800781 24.25 12.98828125 C24.58515625 13.68477783 24.9203125 14.38127441 25.265625 15.09887695 C26 17 26 17 26 20 C25.3503125 19.0409375 25.3503125 19.0409375 24.6875 18.0625 C23.08760823 15.73253997 23.08760823 15.73253997 20 15 C20 15.66 20 16.32 20 17 C19.34 17 18.68 17 18 17 C18.226875 16.360625 18.45375 15.72125 18.6875 15.0625 C19.14032683 10.62479709 17.58292318 7.10486859 16 3 C14.96939453 3.01740234 14.96939453 3.01740234 13.91796875 3.03515625 C13.01691406 3.04417969 12.11585938 3.05320313 11.1875 3.0625 C9.84751953 3.07990234 9.84751953 3.07990234 8.48046875 3.09765625 C6 3 6 3 3 2 C6.92066751 10.34546827 6.92066751 10.34546827 12 18 C12.99 18.33 13.98 18.66 15 19 C15 21.31 15 23.62 15 26 C16.32 26 17.64 26 19 26 C21.24112963 28.15551344 21.94077359 29.47880755 22.29296875 32.578125 C22.25816406 33.45984375 22.22335938 34.3415625 22.1875 35.25 C22.16042969 36.14203125 22.13335937 37.0340625 22.10546875 37.953125 C22.07066406 38.62859375 22.03585938 39.3040625 22 40 C21.34 40 20.68 40 20 40 C18.35 43.3 16.7 46.6 15 50 C16.32 50 17.64 50 19 50 C19 53.79040004 18.55421331 57.25906015 18 61 C18 61.66 18 62.32 18 63 C19.65 59.7 21.3 56.4 23 53 C23.66 53 24.32 53 25 53 C23.32713148 59.18961353 20.11786907 64.44205949 17 70 C11.39 70 5.78 70 0 70 C0.87775036 66.48899855 1.83584955 64.20059844 3.546875 61.078125 C4.0625 60.13453125 4.578125 59.1909375 5.109375 58.21875 C5.65078125 57.2390625 6.1921875 56.259375 6.75 55.25 C7.53890625 53.80367187 7.53890625 53.80367187 8.34375 52.328125 C11.10504697 47.29764338 13.90710621 42.46226242 17.32128906 37.84277344 C18.23163772 35.93066583 18.23163772 35.93066583 17.32324219 33.64013672 C15.88356561 30.76768976 14.38713715 27.94954403 12.8125 25.1484375 C12.19632813 24.05015625 11.58015625 22.951875 10.9453125 21.8203125 C10.30335938 20.68335938 9.66140625 19.54640625 9 18.375 C8.35804688 17.2303125 7.71609375 16.085625 7.0546875 14.90625 C3.67709645 8.86204938 3.67709645 8.86204938 0 3 C0 2.01 0 1.02 0 0 Z " fill="#F4D410" transform="translate(222,198)"/>
<path d="M0 0 C11.79657728 10.8811001 17.90670129 27.87683967 19.30859375 43.421875 C19.7474224 55.17716357 17.16029768 68.81091449 11 79 C10.03314873 80.0320846 9.04041109 81.04211443 8 82 C8.33 79.69 8.66 77.38 9 75 C9.66 75 10.32 75 11 75 C10.95875 74.2575 10.9175 73.515 10.875 72.75 C11.03559687 69.21686881 12.30829519 67.17996704 14.0625 64.1875 C16.39235655 58.75116806 16.19343706 52.52164916 16.1875 46.6875 C16.18741943 45.94274414 16.18733887 45.19798828 16.18725586 44.43066406 C16.1286698 38.75459972 15.41671792 33.50141556 14 28 C13.65898147 26.33488882 13.3237914 24.66854668 13 23 C11.02 22.34 9.04 21.68 7 21 C7.185625 20.071875 7.37125 19.14375 7.5625 18.1875 C8.24123881 14.98656229 8.24123881 14.98656229 7 12 C5.35 12 3.7 12 2 12 C1.9175 11.21625 1.835 10.4325 1.75 9.625 C1.26955803 6.88016246 1.26955803 6.88016246 -0.9375 5.6875 C-2.95388345 4.89459074 -2.95388345 4.89459074 -5 5 C-5 6.98 -5 8.96 -5 11 C-4.401875 11.061875 -3.80375 11.12375 -3.1875 11.1875 C-1 12 -1 12 0.6875 14.0625 C2.35435091 17.79307108 2.65550627 20.93497396 3 25 C3.66 24.67 4.32 24.34 5 24 C5.13277344 24.99902344 5.26554687 25.99804688 5.40234375 27.02734375 C5.57894531 28.31769531 5.75554687 29.60804688 5.9375 30.9375 C6.11152344 32.22527344 6.28554688 33.51304687 6.46484375 34.83984375 C6.66162423 37.85466313 6.66162423 37.85466313 8 39 C8.30980669 42.69973288 8.27855706 46.41390507 8.3125 50.125 C8.34150391 51.15882813 8.37050781 52.19265625 8.40039062 53.2578125 C8.45503201 59.84840459 7.70796292 63.55685443 4 69 C3.835 70.03125 3.67 71.0625 3.5 72.125 C2.87316158 75.72932089 1.56533533 77.43466467 -1 80 C-1.99 80 -2.98 80 -4 80 C-4 80.66 -4 81.32 -4 82 C-4.66 81.67 -5.32 81.34 -6 81 C-5.52820313 80.30777344 -5.52820313 80.30777344 -5.046875 79.6015625 C3.98343637 65.83849759 6.63082503 49.01867192 3.58544922 32.79101562 C1.09699369 23.37224604 -3.77613921 15.3764276 -10 8 C-8.18341255 3.37595922 -5.13109685 0 0 0 Z " fill="#DFC532" transform="translate(298,186)"/>
<path d="M0 0 C4.31457305 0.319598 6.90647504 3.25801197 10 6 C8.25 9.875 8.25 9.875 6 11 C6 9.35 6 7.7 6 6 C4.68 6 3.36 6 2 6 C2 5.34 2 4.68 2 4 C-0.06997885 5.78770901 -0.98326179 6.95424891 -1.9375 9.5625 C-3 12 -3 12 -5.125 13.3125 C-6.053125 13.6528125 -6.053125 13.6528125 -7 14 C-6.67 14.66 -6.34 15.32 -6 16 C-7.8125 19 -7.8125 19 -10 22 C-10.99 22 -11.98 22 -13 22 C-13 23.98 -13 25.96 -13 28 C-13.66 28 -14.32 28 -15 28 C-14.98839844 28.69867188 -14.97679687 29.39734375 -14.96484375 30.1171875 C-14.95130859 31.48230469 -14.95130859 31.48230469 -14.9375 32.875 C-14.92589844 33.77992188 -14.91429687 34.68484375 -14.90234375 35.6171875 C-15 38 -15 38 -16 40 C-16.15067214 41.4465242 -16.24861036 42.8987934 -16.31640625 44.3515625 C-16.37924805 45.62773437 -16.37924805 45.62773437 -16.44335938 46.9296875 C-16.48267578 47.81914062 -16.52199219 48.70859375 -16.5625 49.625 C-16.60568359 50.5221875 -16.64886719 51.419375 -16.69335938 52.34375 C-16.79956861 54.56234283 -16.90161194 56.7810488 -17 59 C-19.71294913 54.9305763 -19.3442185 51.78121905 -19.3125 47 C-19.30758545 46.14075928 -19.3026709 45.28151855 -19.29760742 44.39624023 C-19.17715493 37.84918407 -18.33730297 32.14729683 -16 26 C-15.68289062 25.05253906 -15.36578125 24.10507813 -15.0390625 23.12890625 C-11.85829229 14.45510379 -6.55332382 6.55332382 0 0 Z " fill="#CEB72B" transform="translate(204,186)"/>
<path d="M0 0 C1.98 0 3.96 0 6 0 C6.3403125 0.9590625 6.3403125 0.9590625 6.6875 1.9375 C7.85250896 4.27193661 7.85250896 4.27193661 10.625 4.75 C11.40875 4.8325 12.1925 4.915 13 5 C13 5.66 13 6.32 13 7 C13.66 7 14.32 7 15 7 C15 7.66 15 8.32 15 9 C19.95 9 24.9 9 30 9 C30 9.33 30 9.66 30 10 C24.39 10 18.78 10 13 10 C13.66 11.27875 14.32 12.5575 15 13.875 C17 17.75 17 17.75 17 20 C13 20 13 20 10 18 C10.33 16.35 10.66 14.7 11 13 C10.01 13.33 9.02 13.66 8 14 C5.3125 13.0625 5.3125 13.0625 3 12 C2.67 13.65 2.34 15.3 2 17 C2.66 17 3.32 17 4 17 C4.33 17.99 4.66 18.98 5 20 C2.03 19.67 -0.94 19.34 -4 19 C-2.77776169 13.98882292 -0.66964053 11.20443473 2.85546875 7.61328125 C3.23316406 7.08089844 3.61085937 6.54851562 4 6 C3.0022242 3.00667261 2.2477975 2.05233685 0 0 Z " fill="#0A0804" transform="translate(209,188)"/>
<path d="M0 0 C5.94 0 11.88 0 18 0 C19.34041811 2.76760436 20.67252153 5.53869786 22 8.3125 C22.3815625 9.09818359 22.763125 9.88386719 23.15625 10.69335938 C23.5171875 11.45068359 23.878125 12.20800781 24.25 12.98828125 C24.58515625 13.68477783 24.9203125 14.38127441 25.265625 15.09887695 C26 17 26 17 26 20 C25.3503125 19.0409375 25.3503125 19.0409375 24.6875 18.0625 C23.08760823 15.73253997 23.08760823 15.73253997 20 15 C20 15.66 20 16.32 20 17 C19.34 17 18.68 17 18 17 C18.226875 16.360625 18.45375 15.72125 18.6875 15.0625 C19.14032683 10.62479709 17.58292318 7.10486859 16 3 C14.96939453 3.01740234 14.96939453 3.01740234 13.91796875 3.03515625 C13.01691406 3.04417969 12.11585938 3.05320313 11.1875 3.0625 C9.84751953 3.07990234 9.84751953 3.07990234 8.48046875 3.09765625 C6 3 6 3 3 2 C6.92066751 10.34546827 6.92066751 10.34546827 12 18 C12.99 18.33 13.98 18.66 15 19 C15 21.31 15 23.62 15 26 C15.66 26 16.32 26 17 26 C17.66 27.98 18.32 29.96 19 32 C18.01 32.495 18.01 32.495 17 33 C16.5560791 32.19780029 16.1121582 31.39560059 15.65478516 30.5690918 C14.00460902 27.58853943 12.35328132 24.60863125 10.70117188 21.62915039 C9.98684276 20.34034381 9.27297143 19.05128338 8.55957031 17.76196289 C7.53310944 15.9070423 6.50499696 14.05304567 5.4765625 12.19921875 C4.85861816 11.08377686 4.24067383 9.96833496 3.60400391 8.8190918 C2.47568464 6.83603204 1.26559568 4.89839352 0 3 C0 2.01 0 1.02 0 0 Z " fill="#E1C72E" transform="translate(222,198)"/>
<path d="M0 0 C2.8125 0.5 2.8125 0.5 6 2 C7.012263 4.0159837 7.6099111 5.94051914 8.1640625 8.125 C8.99747816 10.52774909 8.99747816 10.52774909 13 12 C12.67 14.97 12.34 17.94 12 21 C11.34 21 10.68 21 10 21 C9.67 20.34 9.34 19.68 9 19 C8.195625 18.896875 7.39125 18.79375 6.5625 18.6875 C5.716875 18.460625 4.87125 18.23375 4 18 C2.8125 15.5 2.8125 15.5 2 13 C1.34 12.67 0.68 12.34 0 12 C0 8.04 0 4.08 0 0 Z " fill="#F5D40C" transform="translate(196,256)"/>
<path d="M0 0 C1.79244141 0.01740234 1.79244141 0.01740234 3.62109375 0.03515625 C5.41740234 0.04869141 5.41740234 0.04869141 7.25 0.0625 C8.17683594 0.07410156 9.10367187 0.08570313 10.05859375 0.09765625 C9.7109375 3.02734375 9.7109375 3.02734375 9.05859375 6.09765625 C6.62109375 7.22265625 6.62109375 7.22265625 4.05859375 8.09765625 C2.71449113 10.1150083 2.71449113 10.1150083 2.05859375 12.09765625 C0.73859375 12.09765625 -0.58140625 12.09765625 -1.94140625 12.09765625 C-1.94140625 13.08765625 -1.94140625 14.07765625 -1.94140625 15.09765625 C-3.26140625 15.09765625 -4.58140625 15.09765625 -5.94140625 15.09765625 C-5.63397722 12.78447664 -5.32032923 10.47212273 -5.00390625 8.16015625 C-4.82988281 6.87238281 -4.65585937 5.58460938 -4.4765625 4.2578125 C-3.77675801 0.12539037 -3.77675801 0.12539037 0 0 Z " fill="#F7D409" transform="translate(266.94140625,199.90234375)"/>
<path d="M0 0 C0.99 0 1.98 0 3 0 C1.96433355 2.09042353 0.91149382 4.16649677 -0.18359375 6.2265625 C-0.59738281 7.01804688 -1.01117188 7.80953125 -1.4375 8.625 C-1.84871094 9.40101563 -2.25992188 10.17703125 -2.68359375 10.9765625 C-6.32117197 19.33111902 -7.48544641 27.04990731 -7.6875 36.125 C-7.72166016 37.176875 -7.75582031 38.22875 -7.79101562 39.3125 C-7.87254632 41.87489313 -7.94199728 44.43698497 -8 47 C-10.3502448 44.20511429 -11.39285299 42.30773704 -11.73046875 38.671875 C-11.85131836 37.47304687 -11.85131836 37.47304687 -11.97460938 36.25 C-12.07999023 35.0125 -12.07999023 35.0125 -12.1875 33.75 C-12.26935547 32.90953125 -12.35121094 32.0690625 -12.43554688 31.203125 C-12.63516482 29.13649217 -12.81912511 27.06835752 -13 25 C-12.34 25 -11.68 25 -11 25 C-10.87625 24.2575 -10.7525 23.515 -10.625 22.75 C-10.03529939 20.1553173 -9.23827961 18.33087926 -8 16 C-7.32033324 14.33859237 -6.65061095 12.67299959 -6 11 C-5.34 11 -4.68 11 -4 11 C-4 9.68 -4 8.36 -4 7 C-3.34 7 -2.68 7 -2 7 C-2 5.68 -2 4.36 -2 3 C-1.34 3 -0.68 3 0 3 C0 2.01 0 1.02 0 0 Z " fill="#E4C628" transform="translate(207,197)"/>
<path d="M0 0 C3.78214542 4.2023838 9 11.09443215 9 17 C3.39 17 -2.22 17 -8 17 C-9.98 12.38 -11.96 7.76 -14 3 C-13.34 2.67 -12.68 2.34 -12 2 C-11.18162558 3.41328129 -10.37053781 4.83078346 -9.5625 6.25 C-9.11003906 7.03890625 -8.65757812 7.8278125 -8.19140625 8.640625 C-7.10688398 10.78833468 -6.46851284 12.65205061 -6 15 C-3.54368999 14.50452457 -3.54368999 14.50452457 -1 13 C0.34776978 10.72037377 1.11364216 8.51912228 2 6 C1.01 5.67 0.02 5.34 -1 5 C-0.67 3.35 -0.34 1.7 0 0 Z " fill="#F4D122" transform="translate(271,251)"/>
<path d="M0 0 C2.71489716 3.16232434 3.69737475 5.89570426 4.625 9.9375 C4.86476563 10.95714844 5.10453125 11.97679687 5.3515625 13.02734375 C5.56554687 14.00832031 5.77953125 14.98929688 6 16 C6.28037109 17.22976562 6.28037109 17.22976562 6.56640625 18.484375 C8.86950263 31.84648371 6.08387591 48.28332311 -1 60 C-1.96685127 61.0320846 -2.95958891 62.04211443 -4 63 C-3.67 60.69 -3.34 58.38 -3 56 C-2.34 56 -1.68 56 -1 56 C-1.04125 55.2575 -1.0825 54.515 -1.125 53.75 C-0.96440313 50.21686881 0.30829519 48.17996704 2.0625 45.1875 C4.39219595 39.75154279 4.19409645 33.52139723 4.1875 27.6875 C4.18669434 26.94274414 4.18588867 26.19798828 4.18505859 25.43066406 C4.10022678 17.77584071 2.91916538 11.08940165 0 4 C0 2.68 0 1.36 0 0 Z " fill="#CCBA3C" transform="translate(310,205)"/>
<path d="M0 0 C0.99 0 1.98 0 3 0 C3 1.32 3 2.64 3 4 C5.93720508 5.52299523 8.9168649 6.80100302 12 8 C11.85892253 9.45880109 11.71197585 10.91703551 11.5625 12.375 C11.48128906 13.18710938 11.40007812 13.99921875 11.31640625 14.8359375 C11 17 11 17 10 19 C10.66 19 11.32 19 12 19 C12 17.02 12 15.04 12 13 C13.32 12.67 14.64 12.34 16 12 C16 11.01 16 10.02 16 9 C16.66 9 17.32 9 18 9 C17.6596875 8.13375 17.6596875 8.13375 17.3125 7.25 C17 5 17 5 18.4375 2.75 C18.953125 2.1725 19.46875 1.595 20 1 C20.66 1.33 21.32 1.66 22 2 C19.03 8.93 16.06 15.86 13 23 C12.34 23 11.68 23 11 23 C7.13551184 15.4256032 3.57556597 7.71358052 0 0 Z " fill="#100A01" transform="translate(240,200)"/>
<path d="M0 0 C5.61 0 11.22 0 17 0 C15 6 15 6 13 8 C13.33 6.02 13.66 4.04 14 2 C7.565 2.495 7.565 2.495 1 3 C0.87625 4.464375 0.7525 5.92875 0.625 7.4375 C0.4140625 9.93359375 0.4140625 9.93359375 0 12 C-0.99 12.495 -0.99 12.495 -2 13 C-2.72159424 14.64363134 -3.39351421 16.31050386 -4 18 C-4.66 18 -5.32 18 -6 18 C-6.144375 18.5775 -6.28875 19.155 -6.4375 19.75 C-6.95833333 21.83333333 -7.47916667 23.91666667 -8 26 C-9.98 26 -11.96 26 -14 26 C-13.67 24.68 -13.34 23.36 -13 22 C-12.67 22.99 -12.34 23.98 -12 25 C-11.34 25 -10.68 25 -10 25 C-9.649375 23.845 -9.29875 22.69 -8.9375 21.5 C-6.49695937 14.1191417 -3.15915545 7.09319808 0 0 Z " fill="#DCC332" transform="translate(263,198)"/>
<path d="M0 0 C2.10740713 3.1611107 2.25551258 3.95367946 2.265625 7.5703125 C2.26820313 8.4675 2.27078125 9.3646875 2.2734375 10.2890625 C2.26570313 11.22492188 2.25796875 12.16078125 2.25 13.125 C2.25773437 14.03765625 2.26546875 14.9503125 2.2734375 15.890625 C2.23051396 30.95678739 -2.77222539 42.21890912 -12 54 C-13 52 -13 52 -12.1875 49.4375 C-11 47 -11 47 -9 46 C-8.67 45.01 -8.34 44.02 -8 43 C-7.34 43 -6.68 43 -6 43 C-5.896875 41.741875 -5.79375 40.48375 -5.6875 39.1875 C-5.25859129 35.63812502 -4.64052713 34.4204832 -2 32 C-1.1282499 27.90859611 -0.82822979 23.90034547 -0.68359375 19.7265625 C-0.64169922 18.57285156 -0.59980469 17.41914063 -0.55664062 16.23046875 C-0.51732422 15.04066406 -0.47800781 13.85085937 -0.4375 12.625 C-0.39431641 11.41199219 -0.35113281 10.19898438 -0.30664062 8.94921875 C-0.20094487 5.96624968 -0.09884679 2.98320258 0 0 Z " fill="#382903" transform="translate(301,218)"/>
<path d="M0 0 C2.38762181 2.38762181 3.37302257 4.69633285 4.8125 7.75 C7.11237161 12.45145744 9.41613756 16.20532212 13 20 C11.51014431 23.79235994 9.41341953 25.80565887 6 28 C3.875 28.0625 3.875 28.0625 2 27 C0.25 24.4375 0.25 24.4375 -1 22 C0.65 22 2.3 22 4 22 C4.33 22.99 4.66 23.98 5 25 C5.66 25 6.32 25 7 25 C7 22.03 7 19.06 7 16 C5.68 15.67 4.36 15.34 3 15 C0.41853928 10.42464984 -0.39960692 5.19488998 0 0 Z " fill="#E1C431" transform="translate(201,252)"/>
<path d="M0 0 C0.99 0.33 1.98 0.66 3 1 C2.979375 1.928125 2.95875 2.85625 2.9375 3.8125 C2.84230396 7.02286011 2.84230396 7.02286011 4 10 C5.32 10 6.64 10 8 10 C7.25 15.75 7.25 15.75 5 18 C3.68 18 2.36 18 1 18 C-0.65 14.7 -2.3 11.4 -4 8 C-3.34 8 -2.68 8 -2 8 C-1.855625 6.865625 -1.71125 5.73125 -1.5625 4.5625 C-1 1 -1 1 0 0 Z " fill="#FCD013" transform="translate(264,248)"/>
<path d="M0 0 C0.66 0 1.32 0 2 0 C0.32713148 6.18961353 -2.88213093 11.44205949 -6 17 C-11.61 17 -17.22 17 -23 17 C-22.20190089 13.80760355 -21.41362874 11.60702336 -19.9375 8.75 C-19.57527344 8.04359375 -19.21304688 7.3371875 -18.83984375 6.609375 C-18.56269531 6.07828125 -18.28554687 5.5471875 -18 5 C-17.67 5 -17.34 5 -17 5 C-16.95758277 7.33294775 -16.95907063 9.66702567 -17 12 C-17.33 12.33 -17.66 12.66 -18 13 C-14.04 13.33 -10.08 13.66 -6 14 C-5.67 12.68 -5.34 11.36 -5 10 C-4.1831056 8.23229408 -3.32656265 6.48253234 -2.4375 4.75 C-1.98246094 3.85796875 -1.52742188 2.9659375 -1.05859375 2.046875 C-0.70925781 1.37140625 -0.35992187 0.6959375 0 0 Z " fill="#EDD133" transform="translate(245,251)"/>
<path d="M0 0 C3.46923759 3.27099544 6.19512716 6.54281374 8.7890625 10.546875 C10.0383273 12.305195 10.0383273 12.305195 13 13 C13 13.66 13 14.32 13 15 C12.01 15 11.02 15 10 15 C9.67 15.66 9.34 16.32 9 17 C6 16 6 16 4 13 C3.34 13.66 2.68 14.32 2 15 C1.34 14.67 0.68 14.34 0 14 C0.33 12.35 0.66 10.7 1 9 C0.34 9 -0.32 9 -1 9 C-1 8.34 -1 7.68 -1 7 C-0.34 6.67 0.32 6.34 1 6 C0.649375 5.38125 0.29875 4.7625 -0.0625 4.125 C-0.371875 3.42375 -0.68125 2.7225 -1 2 C-0.67 1.34 -0.34 0.68 0 0 Z " fill="#0A0A04" transform="translate(194,267)"/>
<path d="M0 0 C0.33 0 0.66 0 1 0 C1.11701204 3.68722927 1.18752045 7.37397542 1.25 11.0625 C1.30027344 12.62000977 1.30027344 12.62000977 1.3515625 14.20898438 C1.43566215 20.83183209 0.73657411 24.53272586 -3 30 C-3.165 31.03125 -3.33 32.0625 -3.5 33.125 C-4.12683842 36.72932089 -5.43466467 38.43466467 -8 41 C-8.99 41 -9.98 41 -11 41 C-11 41.66 -11 42.32 -11 43 C-11.66 42.67 -12.32 42.34 -13 42 C-12.67386719 41.49210937 -12.34773438 40.98421875 -12.01171875 40.4609375 C-9.43411123 36.40063539 -7.06715166 32.35189823 -5 28 C-4.34 28 -3.68 28 -3 28 C-2.505 23.545 -2.505 23.545 -2 19 C-1.34 19 -0.68 19 0 19 C0 12.73 0 6.46 0 0 Z " fill="#F3D31C" transform="translate(305,225)"/>
<path d="M0 0 C4.48071284 0.84743917 6.63834347 3.02034989 10 6 C8.25 9.875 8.25 9.875 6 11 C6 9.35 6 7.7 6 6 C4.68 6 3.36 6 2 6 C2 5.34 2 4.68 2 4 C-0.08143847 5.79760595 -0.97163034 6.91691742 -1.875 9.5625 C-3 12 -3 12 -5.625 13.3125 C-6.40875 13.539375 -7.1925 13.76625 -8 14 C-6.7542451 7.89580099 -4.30284347 4.45168397 0 0 Z " fill="#F1D41D" transform="translate(204,186)"/>
<path d="M0 0 C2 3 2 3 2 6 C3.32 5.67 4.64 5.34 6 5 C6.33 5.66 6.66 6.32 7 7 C7.33 6.01 7.66 5.02 8 4 C9.32 4 10.64 4 12 4 C12 2.68 12 1.36 12 0 C12.99 0 13.98 0 15 0 C13.47987323 5.40489519 9.72614782 8.98492628 6 13 C-0.42857143 8.85714286 -0.42857143 8.85714286 -3 6 C-1.125 1.125 -1.125 1.125 0 0 Z " fill="#E6CB29" transform="translate(291,268)"/>
<path d="M0 0 C4.62 0 9.24 0 14 0 C15.53059918 2.78670493 17.0496902 5.57866212 18.5625 8.375 C19.00013672 9.1690625 19.43777344 9.963125 19.88867188 10.78125 C20.29794922 11.54179687 20.70722656 12.30234375 21.12890625 13.0859375 C21.51119385 13.7876709 21.89348145 14.4894043 22.28735352 15.21240234 C22.52252686 15.80230957 22.7577002 16.3922168 23 17 C22.67 17.66 22.34 18.32 22 19 C21.3503125 18.0409375 21.3503125 18.0409375 20.6875 17.0625 C19.08760823 14.73253997 19.08760823 14.73253997 16 14 C16 14.66 16 15.32 16 16 C15.34 16 14.68 16 14 16 C14.3403125 15.0409375 14.3403125 15.0409375 14.6875 14.0625 C15.14032683 9.62479709 13.58292318 6.10486859 12 2 C11.30132812 2.02320313 10.60265625 2.04640625 9.8828125 2.0703125 C8.97273437 2.08835938 8.06265625 2.10640625 7.125 2.125 C6.22007812 2.14820313 5.31515625 2.17140625 4.3828125 2.1953125 C2 2 2 2 0 0 Z " fill="#E6C833" transform="translate(226,199)"/>
<path d="M0 0 C0.33 0.99 0.66 1.98 1 3 C0.54625 3.53625 0.0925 4.0725 -0.375 4.625 C-2.78911758 8.15332569 -2.74038328 11.81032323 -3 16 C-4.65 16 -6.3 16 -8 16 C-7.67 15.34 -7.34 14.68 -7 14 C-7.66 14 -8.32 14 -9 14 C-10.33333333 12.66666667 -11.66666667 11.33333333 -13 10 C-13.721875 9.690625 -14.44375 9.38125 -15.1875 9.0625 C-17 8 -17 8 -17.75 5.375 C-17.8325 4.59125 -17.915 3.8075 -18 3 C-17.44570313 3.42152344 -16.89140625 3.84304688 -16.3203125 4.27734375 C-15.59585937 4.82519531 -14.87140625 5.37304688 -14.125 5.9375 C-13.40570313 6.48277344 -12.68640625 7.02804687 -11.9453125 7.58984375 C-10.05642921 9.03964624 -10.05642921 9.03964624 -8 10 C-5.36 6.7 -2.72 3.4 0 0 Z " fill="#100C07" transform="translate(305,270)"/>
<path d="M0 0 C0.99 0.495 0.99 0.495 2 1 C2.45703125 2.77734375 2.45703125 2.77734375 2.8125 4.9375 C3.23431849 7.11539158 3.23431849 7.11539158 4 9 C5.64363134 9.72159424 7.31050386 10.39351421 9 11 C10.22725349 14.94474337 10.04879027 18.03790343 9 22 C9.99 22.33 10.98 22.66 12 23 C12.33 24.65 12.66 26.3 13 28 C6.09986193 22.08559594 2.73932146 13.506314 0 5 C-0.1875 2 -0.1875 2 0 0 Z " fill="#F4D315" transform="translate(187,246)"/>
<path d="M0 0 C3.465 1.485 3.465 1.485 7 3 C6.45144652 7.571279 5.58255197 11.67435795 4 16 C2.97676564 14.68441297 1.98244845 13.34631825 1 12 C0.4225 11.21625 -0.155 10.4325 -0.75 9.625 C-2.33196434 6.30287488 -1.95349789 4.49615892 -1 1 C-0.67 0.67 -0.34 0.34 0 0 Z " fill="#060504" transform="translate(264,228)"/>
<path d="M0 0 C-1.53854398 4.092527 -3.44143884 7.89455918 -5.5 11.75 C-6.1084375 12.89984375 -6.716875 14.0496875 -7.34375 15.234375 C-9 18 -9 18 -11 19 C-11 17.68 -11 16.36 -11 15 C-10.34 15 -9.68 15 -9 15 C-9 13.35 -9 11.7 -9 10 C-9.66 10 -10.32 10 -11 10 C-11 8.68 -11 7.36 -11 6 C-10.38125 5.9175 -9.7625 5.835 -9.125 5.75 C-6.8234856 5.20005805 -6.8234856 5.20005805 -5.875 3 C-5.441875 2.01 -5.441875 2.01 -5 1 C-3 0 -3 0 0 0 Z " fill="#E6CC25" transform="translate(276,206)"/>
<path d="M0 0 C5.09844024 9.46853187 5.23442267 19.9450768 3.125 30.375 C2.75375 31.57125 2.3825 32.7675 2 34 C1.01 34.495 1.01 34.495 0 35 C0.0721875 34.44054687 0.144375 33.88109375 0.21875 33.3046875 C1.50693748 22.17617896 1.27071214 11.11873127 0 0 Z " fill="#1F1201" transform="translate(315,215)"/>
<path d="M0 0 C0.99 0.33 1.98 0.66 3 1 C2.67 3.31 2.34 5.62 2 8 C0.35 8.33 -1.3 8.66 -3 9 C-3.54372951 12.05847848 -4 14.88772805 -4 18 C-5.98 18.33 -7.96 18.66 -10 19 C-8.40376856 14.60616294 -6.21975667 10.71004193 -3.875 6.6875 C-3.50246094 6.04232422 -3.12992187 5.39714844 -2.74609375 4.73242188 C-1.83367787 3.15324055 -0.91724491 1.57638136 0 0 Z " fill="#2C1F05" transform="translate(275,208)"/>
<path d="M0 0 C1.0625 1.875 1.0625 1.875 2 4 C1.67 4.66 1.34 5.32 1 6 C0.01 6.33 -0.98 6.66 -2 7 C-2.33 8.98 -2.66 10.96 -3 13 C-2.34 13 -1.68 13 -1 13 C-0.67 13.99 -0.34 14.98 0 16 C-2.97 15.67 -5.94 15.34 -9 15 C-7.58399311 8.86397012 -3.9336625 4.73301638 0 0 Z " fill="#080302" transform="translate(214,192)"/>
<path d="M0 0 C0.66 0 1.32 0 2 0 C2 0.99 2 1.98 2 3 C2.66 3 3.32 3 4 3 C3.56303095 7.8066595 2.61918044 9.83321712 -1 13 C-1.33 13.66 -1.66 14.32 -2 15 C-2.66 15 -3.32 15 -4 15 C-2.8741386 11.46157845 -1.66905241 8.33810482 0 5 C-5.61 5 -11.22 5 -17 5 C-17 4.67 -17 4.34 -17 4 C-11.39 4 -5.78 4 0 4 C0 2.68 0 1.36 0 0 Z " fill="#1B1205" transform="translate(280,193)"/>
<path d="M0 0 C0.66 0.33 1.32 0.66 2 1 C-2.455 11.395 -2.455 11.395 -7 22 C-7.66 22 -8.32 22 -9 22 C-9.66 20.35 -10.32 18.7 -11 17 C-10.01 17.33 -9.02 17.66 -8 18 C-8 16.02 -8 14.04 -8 12 C-6.68 11.67 -5.36 11.34 -4 11 C-4 10.01 -4 9.02 -4 8 C-3.34 8 -2.68 8 -2 8 C-2.226875 7.4225 -2.45375 6.845 -2.6875 6.25 C-3 4 -3 4 -1.5625 1.75 C-1.046875 1.1725 -0.53125 0.595 0 0 Z " fill="#322503" transform="translate(260,201)"/>
<path d="M0 0 C0.66 0 1.32 0 2 0 C3.03040167 2.28779038 4.04952018 4.57951136 5.0625 6.875 C5.50432617 7.85146484 5.50432617 7.85146484 5.95507812 8.84765625 C6.69661513 10.54010541 7.35439001 12.26868575 8 14 C7.67 14.66 7.34 15.32 7 16 C6.608125 15.54625 6.21625 15.0925 5.8125 14.625 C3.69167513 12.72357081 1.66957765 11.93795972 -1 11 C-0.690625 10.401875 -0.38125 9.80375 -0.0625 9.1875 C1.10209704 6.91043228 1.10209704 6.91043228 2 4 C1.34 4 0.68 4 0 4 C0 4.66 0 5.32 0 6 C-0.66 6 -1.32 6 -2 6 C-1.34 4.02 -0.68 2.04 0 0 Z " fill="#271D03" transform="translate(251,243)"/>
<path d="M0 0 C2 3 2 3 1.6796875 5.6015625 C-2.73847675 22.20184954 -2.73847675 22.20184954 -8 27 C-7.67 24.69 -7.34 22.38 -7 20 C-6.34 20 -5.68 20 -5 20 C-5.04125 19.2575 -5.0825 18.515 -5.125 17.75 C-4.96440313 14.21686881 -3.69170481 12.17996704 -1.9375 9.1875 C-0.6532312 6.19087279 -0.37181126 3.22236424 0 0 Z " fill="#D8C237" transform="translate(314,241)"/>
<path d="M0 0 C5.61 0 11.22 0 17 0 C15 6 15 6 13 8 C13.33 6.02 13.66 4.04 14 2 C7.565 2.495 7.565 2.495 1 3 C0.67 3.99 0.34 4.98 0 6 C-0.66 6 -1.32 6 -2 6 C-1.34 4.02 -0.68 2.04 0 0 Z " fill="#B7A82E" transform="translate(263,198)"/>
<path d="M0 0 C5.94 0 11.88 0 18 0 C18 0.33 18 0.66 18 1 C12.39 1 6.78 1 1 1 C1.66 2.27875 2.32 3.5575 3 4.875 C5 8.75 5 8.75 5 11 C1 11 1 11 -2 9 C-1.34 6.03 -0.68 3.06 0 0 Z " fill="#1C1105" transform="translate(221,197)"/>
<path d="M0 0 C2.42857143 7.42857143 2.42857143 7.42857143 1 11 C0.34 11 -0.32 11 -1 11 C-1 11.66 -1 12.32 -1 13 C-2.98 13.66 -4.96 14.32 -7 15 C-6.175 14.2575 -5.35 13.515 -4.5 12.75 C-1.55155147 10.12612615 -1.55155147 10.12612615 -2 6 C-3.92293518 2.78170896 -3.92293518 2.78170896 -6 0 C-3.50907189 -1.24546405 -2.58919267 -0.7767578 0 0 Z " fill="#231706" transform="translate(214,265)"/>
<path d="M0 0 C0.93283339 2.52618235 1.09862128 3.71149595 0.21484375 6.296875 C-2.7305568 11.95348523 -5.97520513 17.04853415 -10 22 C-11 20 -11 20 -10.1875 17.4375 C-9 15 -9 15 -7 14 C-6.67 13.01 -6.34 12.02 -6 11 C-5.34 11 -4.68 11 -4 11 C-3.896875 9.741875 -3.79375 8.48375 -3.6875 7.1875 C-3.35141192 4.39500343 -3.19974124 3.25566879 -1.4375 1 C-0.963125 0.67 -0.48875 0.34 0 0 Z " fill="#1F1400" transform="translate(299,250)"/>
<path d="M0 0 C2.74999027 3.22824944 3.10429689 4.52148447 4 9 C9.61 9 15.22 9 21 9 C21 8.34 21 7.68 21 7 C21.66 7 22.32 7 23 7 C22.67 7.99 22.34 8.98 22 10 C12.595 10.495 12.595 10.495 3 11 C3 10.01 3 9.02 3 8 C2.01 7.67 1.02 7.34 0 7 C0 4.69 0 2.38 0 0 Z " fill="#150901" transform="translate(259,259)"/>
<path d="M0 0 C0.66 0 1.32 0 2 0 C2.81837442 1.41328129 3.62946219 2.83078346 4.4375 4.25 C4.88996094 5.03890625 5.34242188 5.8278125 5.80859375 6.640625 C6.89311602 8.78833468 7.53148716 10.65205061 8 13 C8.69867188 12.90460938 9.39734375 12.80921875 10.1171875 12.7109375 C11.02726562 12.60007812 11.93734375 12.48921875 12.875 12.375 C13.77992188 12.25898438 14.68484375 12.14296875 15.6171875 12.0234375 C16.40351563 12.01570313 17.18984375 12.00796875 18 12 C18.66 12.66 19.32 13.32 20 14 C15.38 14 10.76 14 6 14 C4.99770632 11.85521084 3.99807145 9.70925278 3 7.5625 C2.1646875 5.77005859 2.1646875 5.77005859 1.3125 3.94140625 C0 1 0 1 0 0 Z " fill="#EAD431" transform="translate(257,253)"/>
<path d="M0 0 C0.33 0 0.66 0 1 0 C1.14285714 7.42857143 1.14285714 7.42857143 0 11 C-0.66 11 -1.32 11 -2 11 C-2.33 13.31 -2.66 15.62 -3 18 C-4.65 18.66 -6.3 19.32 -8 20 C-6.76360138 16.80597022 -5.41200997 13.68156679 -4 10.5625 C-2.44671789 7.09659439 -1.1183678 3.63469535 0 0 Z " fill="#1A0F02" transform="translate(314,250)"/>
<path d="M0 0 C0.6875 1.625 0.6875 1.625 1 4 C-0.4375 7.25 -0.4375 7.25 -2 10 C-2.66 10 -3.32 10 -4 10 C-4.08636719 10.62648437 -4.17273438 11.25296875 -4.26171875 11.8984375 C-4.40222656 12.71570313 -4.54273438 13.53296875 -4.6875 14.375 C-4.81511719 15.18710938 -4.94273437 15.99921875 -5.07421875 16.8359375 C-6 19 -6 19 -8.58203125 20.2890625 C-9.37996094 20.52367187 -10.17789063 20.75828125 -11 21 C-3.70159453 6.21867882 -3.70159453 6.21867882 0 0 Z " fill="#D5C034" transform="translate(239,235)"/>
<path d="M0 0 C2.41147211 2.41147211 3.50213043 4.81185673 5 7.875 C5.515625 8.92429687 6.03125 9.97359375 6.5625 11.0546875 C7.2740625 12.51261719 7.2740625 12.51261719 8 14 C8.66491631 15.33420708 9.33076058 16.66795615 10 18 C9.34 18 8.68 18 8 18 C7 17 6 16 5 15 C4.34 15 3.68 15 3 15 C1.094753 9.89665983 -0.42589023 5.53657294 0 0 Z " fill="#DDC526" transform="translate(201,252)"/>
<path d="M0 0 C2.64752004 2.57784846 4.94432065 4.91648098 7 8 C7.99 8.33 8.98 8.66 10 9 C10 9.66 10 10.32 10 11 C9.01 11 8.02 11 7 11 C6.67 11.66 6.34 12.32 6 13 C5.01 12.67 4.02 12.34 3 12 C2.05078125 9.27734375 2.05078125 9.27734375 1.3125 5.9375 C1.06113281 4.83277344 0.80976563 3.72804688 0.55078125 2.58984375 C0.36902344 1.73519531 0.18726563 0.88054687 0 0 Z " fill="#110A08" transform="translate(197,271)"/>
<path d="M0 0 C1.485 0.99 1.485 0.99 3 2 C3 2.66 3 3.32 3 4 C4.32 4 5.64 4 7 4 C6.67 5.98 6.34 7.96 6 10 C4.68 10 3.36 10 2 10 C-1.125 3.375 -1.125 3.375 0 0 Z " fill="#F9D404" transform="translate(265,254)"/>
<path d="M0 0 C4.29 0 8.58 0 13 0 C12.67 1.98 12.34 3.96 12 6 C11.34 5.34 10.68 4.68 10 4 C9.01 4.495 9.01 4.495 8 5 C8 3.68 8 2.36 8 1 C7.62875 1.515625 7.2575 2.03125 6.875 2.5625 C5 4 5 4 1.8125 3.6875 C0.884375 3.460625 -0.04375 3.23375 -1 3 C-0.67 2.01 -0.34 1.02 0 0 Z " fill="#F4D21D" transform="translate(264,200)"/>
<path d="M0 0 C4.18659858 3.82774727 7.37820862 7.94607874 10 13 C10 13.66 10 14.32 10 15 C8.0625 14.3125 8.0625 14.3125 6 13 C5.25 10.375 5.25 10.375 5 8 C4.030625 7.7525 3.06125 7.505 2.0625 7.25 C1.051875 6.8375 0.04125 6.425 -1 6 C-1.875 3.875 -1.875 3.875 -2 2 C-1.34 2 -0.68 2 0 2 C0 1.34 0 0.68 0 0 Z " fill="#181106" transform="translate(288,194)"/>
<path d="M0 0 C0.33 0 0.66 0 1 0 C1 2.31 1 4.62 1 7 C0.01 7.33 -0.98 7.66 -2 8 C-2 8.66 -2 9.32 -2 10 C4.93 10.495 4.93 10.495 12 11 C12 11.33 12 11.66 12 12 C6.39 12 0.78 12 -5 12 C-4.20190089 8.80760355 -3.41362874 6.60702336 -1.9375 3.75 C-1.57527344 3.04359375 -1.21304688 2.3371875 -0.83984375 1.609375 C-0.56269531 1.07828125 -0.28554687 0.5471875 0 0 Z " fill="#BBA830" transform="translate(227,256)"/>
<path d="M0 0 C2.49552403 2.27597646 4.06622986 4.60721178 5.6875 7.5625 C6.12449219 8.34753906 6.56148437 9.13257813 7.01171875 9.94140625 C8 12 8 12 8 14 C7.01 14 6.02 14 5 14 C5 13.01 5 12.02 5 11 C4.34 11 3.68 11 3 11 C2.896875 10.360625 2.79375 9.72125 2.6875 9.0625 C2.460625 8.381875 2.23375 7.70125 2 7 C1.01 6.67 0.02 6.34 -1 6 C-0.67 4.02 -0.34 2.04 0 0 Z " fill="#231803" transform="translate(231,217)"/>
<path d="M0 0 C2.25 0 2.25 0 5 1 C6.76178014 3.48947194 8.08336933 6.0894 9 9 C8.67 9.66 8.34 10.32 8 11 C7.566875 10.360625 7.13375 9.72125 6.6875 9.0625 C5.08760823 6.73253997 5.08760823 6.73253997 2 6 C2 6.66 2 7.32 2 8 C1.34 8 0.68 8 0 8 C0.185625 7.236875 0.37125 6.47375 0.5625 5.6875 C1.22819173 2.91032625 1.22819173 2.91032625 0 0 Z " fill="#DEC124" transform="translate(240,207)"/>
<path d="M0 0 C0.55429687 0.42152344 1.10859375 0.84304688 1.6796875 1.27734375 C2.40414063 1.82519531 3.12859375 2.37304688 3.875 2.9375 C4.59429687 3.48277344 5.31359375 4.02804687 6.0546875 4.58984375 C7.94357079 6.03964624 7.94357079 6.03964624 10 7 C11.32 5.68 12.64 4.36 14 3 C14 4.65 14 6.3 14 8 C11.75 9.1875 11.75 9.1875 9 10 C6.9375 8.75 6.9375 8.75 5 7 C4.278125 6.71125 3.55625 6.4225 2.8125 6.125 C1 5 1 5 0.25 2.375 C0.1675 1.59125 0.085 0.8075 0 0 Z " fill="#251B03" transform="translate(287,273)"/>
<path d="M0 0 C0.99 0 1.98 0 3 0 C1.94652467 2.12158226 0.878426 4.23262716 -0.21875 6.33203125 C-2.71858636 11.17165348 -4.73237775 15.69903423 -6 21 C-7.2380014 17.42355152 -6.74926071 14.66305234 -6 11 C-5.34 11 -4.68 11 -4 11 C-4 9.68 -4 8.36 -4 7 C-3.34 7 -2.68 7 -2 7 C-2 5.68 -2 4.36 -2 3 C-1.34 3 -0.68 3 0 3 C0 2.01 0 1.02 0 0 Z " fill="#D4BB33" transform="translate(207,197)"/>
<path d="M0 0 C0.66 0.33 1.32 0.66 2 1 C2 1.66 2 2.32 2 3 C1.01 3 0.02 3 -1 3 C-0.67 3.99 -0.34 4.98 0 6 C-1.32 6 -2.64 6 -4 6 C-6.18490007 8.67642489 -6.18490007 8.67642489 -6 11 C-8.375 12.6875 -8.375 12.6875 -11 14 C-11.66 13.67 -12.32 13.34 -13 13 C-11.58791833 11.39179588 -10.17013964 9.78859292 -8.75 8.1875 C-7.96109375 7.29417969 -7.1721875 6.40085937 -6.359375 5.48046875 C-4.34120555 3.35871775 -2.40083295 1.65745577 0 0 Z " fill="#D8D8D8" transform="translate(133,121)"/>
<path d="M0 0 C2.61622844 3.00381784 4.82362669 6.15665829 6.875 9.5625 C7.32617188 10.30628906 7.77734375 11.05007812 8.2421875 11.81640625 C9 14 9 14 8.1328125 16.27734375 C7.57207031 17.13005859 7.57207031 17.13005859 7 18 C6.28385417 16.27473958 5.56770833 14.54947917 4.8515625 12.82421875 C3.93193308 10.73466068 3.93193308 10.73466068 2 8 C2 6.68 2 5.36 2 4 C1.01 4 0.02 4 -1 4 C-0.67 2.68 -0.34 1.36 0 0 Z " fill="#D0BD30" transform="translate(262,235)"/>
<path d="M0 0 C1.22376937 3.6713081 0.61664584 4.59653508 -1 8 C-1.99 9.485 -1.99 9.485 -3 11 C-3.66 11 -4.32 11 -5 11 C-5.33 9.02 -5.66 7.04 -6 5 C-5.34 5 -4.68 5 -4 5 C-4 4.34 -4 3.68 -4 3 C-3.01 2.67 -2.02 2.34 -1 2 C-0.67 1.34 -0.34 0.68 0 0 Z " fill="#F5D317" transform="translate(298,263)"/>
<path d="M0 0 C2.87760072 3.40080085 3.46951823 5.40855469 5 10 C-0.61 10 -6.22 10 -12 10 C-12 9.67 -12 9.34 -12 9 C-5.565 8.505 -5.565 8.505 1 8 C0.67 5.36 0.34 2.72 0 0 Z " fill="#BBA72B" transform="translate(275,258)"/>
<path d="M0 0 C2.1519437 3.22791555 2.20086443 4.28400809 2 8 C2.66 8 3.32 8 4 8 C6.32590854 11.63423209 6.16265833 14.77088331 6 19 C3.83424381 15.75136571 2.37647589 12.39377143 0.875 8.8125 C0.59785156 8.15830078 0.32070313 7.50410156 0.03515625 6.83007812 C-0.64597045 5.22120988 -1.32335403 3.61075785 -2 2 C-1.34 2 -0.68 2 0 2 C0 1.34 0 0.68 0 0 Z " fill="#201401" transform="translate(309,196)"/>
<path d="M0 0 C5.94 0 11.88 0 18 0 C18 0.33 18 0.66 18 1 C13.38 1.33 8.76 1.66 4 2 C4.33 4.31 4.66 6.62 5 9 C1.39760962 5.86243419 1.0042756 5.02137798 0 0 Z " fill="#AD982E" transform="translate(222,198)"/>
<path d="M0 0 C2.24452405 0.3869869 3.87054181 0.91964664 5.8125 2.125 C7.70700885 5.11632977 6.69092577 7.67099403 6 11 C0 3.28571429 0 3.28571429 0 0 Z " fill="#161005" transform="translate(272,251)"/>
<path d="M0 0 C0.33 0.99 0.66 1.98 1 3 C1.61875 3.12375 2.2375 3.2475 2.875 3.375 C5 4 5 4 6.75 6.4375 C8 9 8 9 8 11 C5.6875 10.8125 5.6875 10.8125 3 10 C0.31551796 6.66753954 -0.36325349 4.23795734 0 0 Z " fill="#EAD023" transform="translate(292,194)"/>
<path d="M0 0 C1.60080151 4.00200378 0.29279692 7.04556236 -1 11 C-2.32 11.33 -3.64 11.66 -5 12 C-5 12.66 -5 13.32 -5 14 C-5.66 13.67 -6.32 13.34 -7 13 C-6.66226562 12.48050781 -6.32453125 11.96101563 -5.9765625 11.42578125 C-3.60108299 7.71151993 -1.44237185 4.19599085 0 0 Z " fill="#D5B933" transform="translate(299,254)"/>
<path d="M0 0 C3.89635954 4.77618266 5.13469529 6.80401645 5 13 C2.525 12.01 2.525 12.01 0 11 C0.185625 10.113125 0.37125 9.22625 0.5625 8.3125 C0.98042484 5.14821189 0.80777742 3.05160358 0 0 Z " fill="#E4C626" transform="translate(305,196)"/>
<path d="M0 0 C1.33332095 2.6666419 0.67102033 4.16680303 0 7 C0.99 7.33 1.98 7.66 3 8 C3 8.66 3 9.32 3 10 C4.32 10 5.64 10 7 10 C6.67 10.99 6.34 11.98 6 13 C-0.42857143 8.85714286 -0.42857143 8.85714286 -3 6 C-1.125 1.125 -1.125 1.125 0 0 Z " fill="#CCB344" transform="translate(291,268)"/>
<path d="M0 0 C0.66 0.33 1.32 0.66 2 1 C1.01 4.3 0.02 7.6 -1 11 C-0.01 11.33 0.98 11.66 2 12 C0.68 12.33 -0.64 12.66 -2 13 C-3.25 10.4375 -3.25 10.4375 -4 7 C-2.97381014 4.34989114 -1.61515439 2.37522704 0 0 Z " fill="#E9CB21" transform="translate(262,228)"/>
<path d="M0 0 C1.98 0.495 1.98 0.495 4 1 C3.01 4.3 2.02 7.6 1 11 C0.34 10.34 -0.32 9.68 -1 9 C-0.9765625 6.8359375 -0.9765625 6.8359375 -0.625 4.375 C-0.51414062 3.55773437 -0.40328125 2.74046875 -0.2890625 1.8984375 C-0.19367188 1.27195313 -0.09828125 0.64546875 0 0 Z " fill="#F8D219" transform="translate(259,223)"/>
<path d="M0 0 C1.65 0 3.3 0 5 0 C2.79080336 3.75563429 0.43615728 7.38776679 -2 11 C-2.66 9.68 -3.32 8.36 -4 7 C-3.34 6.67 -2.68 6.34 -2 6 C-1.67 5.01 -1.34 4.02 -1 3 C-0.34 3.33 0.32 3.66 1 4 C0.67 2.68 0.34 1.36 0 0 Z " fill="#1B1101" transform="translate(197,188)"/>
<path d="M0 0 C1.875 0.3125 1.875 0.3125 4 1 C4.66 1.99 5.32 2.98 6 4 C4.9275 3.87625 3.855 3.7525 2.75 3.625 C1.5125 3.74875 0.275 3.8725 -1 4 C-3.35322796 6.90412546 -3.35322796 6.90412546 -5 10 C-5.66 10 -6.32 10 -7 10 C-5.33248852 6.05860922 -2.77289351 3.2107188 0 0 Z " fill="#C8B73C" transform="translate(204,186)"/>
<path d="M0 0 C0.33 0 0.66 0 1 0 C1 2.31 1 4.62 1 7 C1.66 7 2.32 7 3 7 C3 7.99 3 8.98 3 10 C3.66 10 4.32 10 5 10 C5.33 11.32 5.66 12.64 6 14 C5.01 14.495 5.01 14.495 4 15 C-1.05908096 7.12253829 -1.05908096 7.12253829 -0.8125 2.4375 C-0.544375 1.633125 -0.27625 0.82875 0 0 Z " fill="#2D2301" transform="translate(263,229)"/>
<path d="M0 0 C1.65 0 3.3 0 5 0 C4.01 0.495 4.01 0.495 3 1 C2.34786708 3.02463255 2.34786708 3.02463255 2 5 C1.34 5 0.68 5 0 5 C-0.33 5.99 -0.66 6.98 -1 8 C-1.66 8 -2.32 8 -3 8 C-2.67 6.35 -2.34 4.7 -2 3 C-1.34 3 -0.68 3 0 3 C0 2.01 0 1.02 0 0 Z " fill="#06050B" transform="translate(290,260)"/>
<path d="M0 0 C2 1 2 1 2.88671875 3.36328125 C3.15097656 4.33652344 3.41523438 5.30976563 3.6875 6.3125 C3.95949219 7.27800781 4.23148438 8.24351562 4.51171875 9.23828125 C4.99152353 11.95205711 4.90721887 13.43665005 4 16 C3.32320342 14.274773 2.65898 12.54461061 2 10.8125 C1.443125 9.36810547 1.443125 9.36810547 0.875 7.89453125 C0.02363228 5.07817642 -0.17072647 2.91835561 0 0 Z " fill="#D8C234" transform="translate(187,246)"/>
<path d="M0 0 C0.66 0 1.32 0 2 0 C1 8.57142857 1 8.57142857 0 12 C-0.66 11.67 -1.32 11.34 -2 11 C-1.85892253 9.54119891 -1.71197585 8.08296449 -1.5625 6.625 C-1.48128906 5.81289062 -1.40007812 5.00078125 -1.31640625 4.1640625 C-1 2 -1 2 0 0 Z " fill="#080208" transform="translate(252,208)"/>
<path d="M0 0 C0.99 0.33 1.98 0.66 3 1 C2.67 3.31 2.34 5.62 2 8 C0.68 7.67 -0.64 7.34 -2 7 C-1.125 1.125 -1.125 1.125 0 0 Z " fill="#1C1308" transform="translate(275,208)"/>
<path d="M0 0 C0.99 0 1.98 0 3 0 C3 1.32 3 2.64 3 4 C3.9590625 4.433125 3.9590625 4.433125 4.9375 4.875 C7 6 7 6 8 8 C7.67 8.66 7.34 9.32 7 10 C6.34 10 5.68 10 5 10 C3.35 6.7 1.7 3.4 0 0 Z " fill="#241802" transform="translate(240,200)"/>
<path d="M0 0 C1.32 0.33 2.64 0.66 4 1 C4.22036864 4.85645121 3.60355101 7.49223216 2 11 C1.34 11 0.68 11 0 11 C0 7.37 0 3.74 0 0 Z " fill="#08020D" transform="translate(185,202)"/>
<path d="M0 0 C0.66 0.33 1.32 0.66 2 1 C-0.475 6.94 -0.475 6.94 -3 13 C-3.33 13 -3.66 13 -4 13 C-4 11.35 -4 9.7 -4 8 C-3.34 8 -2.68 8 -2 8 C-2.226875 7.4225 -2.45375 6.845 -2.6875 6.25 C-3 4 -3 4 -1.5625 1.75 C-1.046875 1.1725 -0.53125 0.595 0 0 Z " fill="#291D01" transform="translate(260,201)"/>
<path d="M0 0 C1.125 1.6875 1.125 1.6875 2 4 C1.06552903 7.48302817 -0.28005005 9.65095231 -3 12 C-2.67 9.69 -2.34 7.38 -2 5 C-1.34 5 -0.68 5 0 5 C0 3.35 0 1.7 0 0 Z " fill="#D1BA2D" transform="translate(309,256)"/>
<path d="M0 0 C0.33 0.66 0.66 1.32 1 2 C1.66 2 2.32 2 3 2 C3 2.66 3 3.32 3 4 C1.02 4 -0.96 4 -3 4 C-2.67 5.32 -2.34 6.64 -2 8 C-2.66 8 -3.32 8 -4 8 C-4 6.02 -4 4.04 -4 2 C-2.68 1.34 -1.36 0.68 0 0 Z " fill="#F4D41B" transform="translate(232,254)"/>
<path d="M0 0 C0.66 0 1.32 0 2 0 C0.68938409 4.23429756 -0.94356259 8.07407404 -3 12 C-3.88336837 9.5332355 -4.1312406 8.36140628 -3.22265625 5.859375 C-2.83980469 5.16328125 -2.45695313 4.4671875 -2.0625 3.75 C-1.68222656 3.04359375 -1.30195313 2.3371875 -0.91015625 1.609375 C-0.60980469 1.07828125 -0.30945313 0.5471875 0 0 Z " fill="#DEC536" transform="translate(245,251)"/>
<path d="M0 0 C2.64836661 3.12988781 4.0048268 6.0193072 5 10 C4.546875 12.1875 4.546875 12.1875 4 14 C3.32471777 12.42032193 2.66010306 10.83608097 2 9.25 C1.62875 8.36828125 1.2575 7.4865625 0.875 6.578125 C0 4 0 4 0 0 Z " fill="#C5AF30" transform="translate(310,205)"/>
<path d="M0 0 C0.99 0.33 1.98 0.66 3 1 C3.33 2.65 3.66 4.3 4 6 C4.99 6.33 5.98 6.66 7 7 C7.33 8.65 7.66 10.3 8 12 C3.80186938 8.25572134 1.92223883 5.1596937 0 0 Z " fill="#DAC236" transform="translate(192,262)"/>
<path d="M0 0 C2 3 2 3 1.9375 5.0625 C1 7 1 7 -1.5625 8.25 C-2.366875 8.4975 -3.17125 8.745 -4 9 C-2.68 6.03 -1.36 3.06 0 0 Z " fill="#2E2106" transform="translate(243,259)"/>
<path d="M0 0 C1.32 0.33 2.64 0.66 4 1 C4.103125 1.639375 4.20625 2.27875 4.3125 2.9375 C4.539375 3.618125 4.76625 4.29875 5 5 C5.99 5.33 6.98 5.66 8 6 C6.35 6.33 4.7 6.66 3 7 C0 2.25 0 2.25 0 0 Z " fill="#F3D21B" transform="translate(262,259)"/>
<path d="M0 0 C0.144375 0.61875 0.28875 1.2375 0.4375 1.875 C0.93152225 4.03258322 0.93152225 4.03258322 2 6 C0.02 6.99 -1.96 7.98 -4 9 C-2.94124926 5.59687262 -1.99097846 2.98646769 0 0 Z " fill="#2C2405" transform="translate(248,250)"/>
<path d="M0 0 C0.66 0 1.32 0 2 0 C1.835 0.61875 1.67 1.2375 1.5 1.875 C0.79415848 4.87482646 0.99687437 5.9906231 2 9 C0.35 8.67 -1.3 8.34 -3 8 C-2.67 6.02 -2.34 4.04 -2 2 C-1.34 2 -0.68 2 0 2 C0 1.34 0 0.68 0 0 Z " fill="#080505" transform="translate(251,247)"/>
<path d="M0 0 C0.66 0.33 1.32 0.66 2 1 C0.66511872 4.59391114 -0.96022723 7.75490696 -3 11 C-4 8 -4 8 -3.22265625 5.95703125 C-2.83980469 5.24933594 -2.45695313 4.54164063 -2.0625 3.8125 C-1.68222656 3.09707031 -1.30195313 2.38164062 -0.91015625 1.64453125 C-0.60980469 1.10183594 -0.30945313 0.55914062 0 0 Z " fill="#312200" transform="translate(239,231)"/>
<path d="M0 0 C0.66 0 1.32 0 2 0 C2.20140476 3.62528568 1.85776765 5.86501708 0 9 C-0.66 9 -1.32 9 -2 9 C-2.20140476 5.37471432 -1.85776765 3.13498292 0 0 Z " fill="#02010F" transform="translate(246,195)"/>
<path d="M0 0 C0.66 0 1.32 0 2 0 C2.70226141 1.24176695 3.38629109 2.49385599 4.0625 3.75 C4.44535156 4.44609375 4.82820313 5.1421875 5.22265625 5.859375 C6.1312406 8.36140628 5.88336837 9.5332355 5 12 C4.16440201 10.18854294 3.33157951 8.37580533 2.5 6.5625 C2.0359375 5.55316406 1.571875 4.54382813 1.09375 3.50390625 C0 1 0 1 0 0 Z " fill="#D7C334" transform="translate(257,253)"/>
<path d="M0 0 C0.66 0 1.32 0 2 0 C2 2.64 2 5.28 2 8 C0.68 6.68 -0.64 5.36 -2 4 C-1.34 2.68 -0.68 1.36 0 0 Z " fill="#D3C03C" transform="translate(290,190)"/>
<path d="M0 0 C3.96 0 7.92 0 12 0 C12 0.99 12 1.98 12 3 C6.06 2.01 6.06 2.01 0 1 C0 0.67 0 0.34 0 0 Z " fill="#07020E" transform="translate(268,269)"/>
<path d="M0 0 C2.99324263 1.0975223 3.84610901 1.67682892 5.25 4.625 C5.4975 5.40875 5.745 6.1925 6 7 C4.02 6.34 2.04 5.68 0 5 C0 3.35 0 1.7 0 0 Z " fill="#05020B" transform="translate(272,246)"/>
<path d="M0 0 C1.65 1.65 3.3 3.3 5 5 C4.67 5.66 4.34 6.32 4 7 C2.5 5.625 2.5 5.625 1 4 C1 3.34 1 2.68 1 2 C-0.65 2.66 -2.3 3.32 -4 4 C-4.33 3.34 -4.66 2.68 -5 2 C-3.35 1.34 -1.7 0.68 0 0 Z " fill="#2E2504" transform="translate(297,184)"/>
<path d="M0 0 C4.875 4.625 4.875 4.625 6 8 C4.68 8 3.36 8 2 8 C1.34 5.36 0.68 2.72 0 0 Z " fill="#352905" transform="translate(197,271)"/>
<path d="M0 0 C0.33 0 0.66 0 1 0 C1.25 6.625 1.25 6.625 -1 10 C-1.66 10 -2.32 10 -3 10 C-2.01 6.7 -1.02 3.4 0 0 Z " fill="#3A2C06" transform="translate(314,250)"/>
<path d="M0 0 C0.99 0.66 1.98 1.32 3 2 C2.1875 4.4375 2.1875 4.4375 1 7 C0.01 7.33 -0.98 7.66 -2 8 C-1.125 2.25 -1.125 2.25 0 0 Z " fill="#211701" transform="translate(204,207)"/>
<path d="M0 0 C4 2 4 2 5.3125 3.875 C6 6 6 6 5 10 C3.35 6.7 1.7 3.4 0 0 Z " fill="#D4B938" transform="translate(226,207)"/>
<path d="M0 0 C2.15377564 2.62198774 3.40072174 4.64404172 4 8 C2.68 7.67 1.36 7.34 0 7 C0 4.69 0 2.38 0 0 Z " fill="#2F2201" transform="translate(259,259)"/>
<path d="M0 0 C0.66 0 1.32 0 2 0 C2 1.98 2 3.96 2 6 C1.01 6.33 0.02 6.66 -1 7 C-1.04254356 5.00045254 -1.04080783 2.99958364 -1 1 C-0.67 0.67 -0.34 0.34 0 0 Z " fill="#E9CF27" transform="translate(261,204)"/>
<path d="M0 0 C3.03869411 1.51934706 3.64410306 3.98004772 5 7 C5 7.66 5 8.32 5 9 C3.0625 8.4375 3.0625 8.4375 1 7 C0.25 3.375 0.25 3.375 0 0 Z " fill="#352902" transform="translate(293,200)"/>
<path d="M0 0 C1.0625 1.875 1.0625 1.875 2 4 C1.67 4.66 1.34 5.32 1 6 C-1.5625 6.625 -1.5625 6.625 -4 7 C-2.79618552 4.50638429 -1.54571278 2.31856917 0 0 Z " fill="#2B1D04" transform="translate(214,192)"/>
<path d="M0 0 C2.6855594 2.6855594 3.06049974 5.37621328 4 9 C3.01 8.67 2.02 8.34 1 8 C-0.35439668 5.29120665 -0.06501451 2.99066732 0 0 Z " fill="#C7B632" transform="translate(201,252)"/>
<path d="M0 0 C4 4.75 4 4.75 4 7 C1.525 6.01 1.525 6.01 -1 5 C-0.67 3.35 -0.34 1.7 0 0 Z " fill="#D0B92F" transform="translate(271,251)"/>
<path d="M0 0 C0.6875 1.75 0.6875 1.75 1 4 C-0.3125 6.25 -0.3125 6.25 -2 8 C-2.66 8 -3.32 8 -4 8 C-2.25 2.25 -2.25 2.25 0 0 Z " fill="#322302" transform="translate(209,199)"/>
<path d="M0 0 C1.98 0.99 1.98 0.99 4 2 C2.25 5.875 2.25 5.875 0 7 C0 4.69 0 2.38 0 0 Z " fill="#DABB47" transform="translate(210,190)"/>
</svg>
