<svg width="2779" height="1303" viewBox="0 0 2779 1303" fill="none" xmlns="http://www.w3.org/2000/svg">
<g clip-path="url(#clip0_346_32)">
<path d="M653.705 325.589H1307.57L1139.51 0H-0.645996V651.016C-0.646001 823.691 68.2214 989.296 190.811 1111.41C313.4 1233.53 479.673 1302.15 653.062 1302.19H1306.93V488.302H979.994V976.605H653.062C566.48 976.435 483.504 942.052 422.357 881.006C361.21 819.96 326.889 737.242 326.932 651.016V325.589H653.705Z" fill="white"/>
<path d="M2778.7 0H2451.76H1324.98L1484.82 325.588H2288.38L2245.35 488.302H1961.44V813.891H2245.35L2288.38 976.605H1471.12V1302.03H2778.7L2615.15 651.016L2778.7 0Z" fill="#23DB8C"/>
</g>
<defs>
<clipPath id="clip0_346_32">
<rect width="2778.7" height="1302.19" fill="white"/>
</clipPath>
</defs>
</svg>
