<?xml version="1.0" encoding="UTF-8"?>
<svg version="1.1" xmlns="http://www.w3.org/2000/svg" width="500" height="500">
<path d="M0 0 C165 0 330 0 500 0 C500 165 500 330 500 500 C335 500 170 500 0 500 C0 335 0 170 0 0 Z " fill="#60FFAF" transform="translate(0,0)"/>
<path d="M0 0 C6.90311901 3.19001276 12.22837139 6.93330528 15.70703125 13.890625 C16.05965335 21.28035776 13.32717248 25.43167957 8.70703125 30.890625 C6.32642962 33.49433615 3.85073704 35.98345139 1.33203125 38.453125 C0.71070313 39.07380859 0.089375 39.69449219 -0.55078125 40.33398438 C-3.58806126 43.34302522 -6.67081586 46.2434021 -9.92578125 49.015625 C-16.2033533 54.44299777 -21.94999031 60.44286394 -27.79296875 66.328125 C-29.00887989 67.5490619 -30.22502391 68.76976692 -31.44140625 69.99023438 C-34.39461841 72.95436513 -37.34466273 75.92161458 -40.29296875 78.890625 C-38.47863907 82.70240531 -36.10634636 85.85642878 -33.48046875 89.140625 C-32.99835938 89.7490625 -32.51625 90.3575 -32.01953125 90.984375 C-27.76719251 96.33514395 -23.45086409 101.6339816 -19.12939453 106.92895508 C-15.2080388 111.7405802 -11.36188764 116.60511715 -7.55151367 121.50488281 C-4.91879817 124.8728352 -2.23132281 128.18724527 0.50390625 131.47265625 C1.47179077 132.63583374 1.47179077 132.63583374 2.45922852 133.82250977 C3.73132909 135.34623816 5.00774249 136.86637817 6.28881836 138.38256836 C6.8638208 139.0710083 7.43882324 139.75944824 8.03125 140.46875 C8.54776123 141.08137695 9.06427246 141.69400391 9.59643555 142.32519531 C10.70703125 143.890625 10.70703125 143.890625 10.70703125 145.890625 C17.1996159 146.10413856 23.68733391 146.205561 30.18334961 146.23242188 C32.38817276 146.25436523 34.59290376 146.30112954 36.79663086 146.37402344 C48.74805669 147.18560892 48.74805669 147.18560892 59.76147461 143.53643799 C63.13700733 140.3361039 65.49899228 136.67790431 67.71304321 132.61412048 C69.21616735 130.00782386 71.12894599 127.79403138 73.08203125 125.515625 C82.76029243 113.7461681 92.3394458 101.90913288 101.70703125 89.890625 C102.44566406 88.94316406 103.18429687 87.99570313 103.9453125 87.01953125 C105.5345234 84.97807997 107.12207536 82.93538037 108.70703125 80.890625 C107.12203262 77.03377978 104.66270192 74.61118453 101.72241211 71.69482422 C101.21654068 71.19026703 100.71066925 70.68570984 100.18946838 70.16586304 C98.52149207 68.50436167 96.84665811 66.84994991 95.171875 65.1953125 C94.01076857 64.04047807 92.85017685 62.88512591 91.69007874 61.72927856 C88.63852963 58.69102016 85.58146051 55.65838244 82.52276611 52.62731934 C77.62211982 47.7698302 72.72821428 42.9055724 67.8374958 38.03808975 C66.12644058 36.33727593 64.41202351 34.63990486 62.69725037 32.94284058 C61.65213807 31.90455415 60.60713396 30.86615882 59.56225586 29.82763672 C58.64673447 28.92036835 57.73121307 28.01309998 56.78794861 27.07833862 C53.08445039 23.18477049 53.30028654 19.85409682 53.375 14.64453125 C53.86519542 10.57879273 55.60461385 8.34403094 58.70703125 5.890625 C64.92644346 1.27235744 69.45645394 -1.26376601 77.33203125 -1.546875 C79.08386719 -1.63775391 79.08386719 -1.63775391 80.87109375 -1.73046875 C91.06917738 -0.07925154 98.30732668 9.10570338 105.2421875 16.16796875 C106.330431 17.26437193 107.41943006 18.36002562 108.50914001 19.45497131 C111.35826579 22.32109262 114.19868473 25.1956772 117.0368042 28.07269287 C121.57881707 32.67422276 126.13371916 37.26298363 130.68935966 41.85101509 C132.26516762 43.44060327 133.83699124 45.03404401 135.40821838 46.62815857 C140.16375123 51.43898255 144.95305896 56.14071768 150.11756897 60.51522827 C152.28220902 62.388339 154.19280212 64.4305727 156.08203125 66.578125 C156.72914063 67.30386719 157.37625 68.02960938 158.04296875 68.77734375 C160.75951693 72.2272324 162.09003671 74.70414508 161.70703125 79.140625 C161.16485692 82.71643954 160.27151843 84.87953321 158.03125 87.7109375 C157.49032715 88.40123047 156.9494043 89.09152344 156.39208984 89.80273438 C155.83602051 90.49173828 155.27995117 91.18074219 154.70703125 91.890625 C154.20123535 92.52291016 153.69543945 93.15519531 153.17431641 93.80664062 C151.63297722 95.71824008 150.07805264 97.61801507 148.51953125 99.515625 C144.38129839 104.57857628 140.28763684 109.66935251 136.26953125 114.828125 C131.59007215 120.82919767 126.76343961 126.70026723 121.90966797 132.56079102 C117.71306094 137.63904302 113.59900219 142.7732608 109.56542969 147.98193359 C107.43189725 150.73019908 105.26796146 153.43024002 102.9921875 156.0625 C102.15558594 157.03703125 101.31898438 158.0115625 100.45703125 159.015625 C99.33554687 160.28792969 99.33554687 160.28792969 98.19140625 161.5859375 C96.48675344 163.69522898 96.48675344 163.69522898 96.92456055 165.72119141 C97.88516644 168.38451247 99.20706361 170.52506227 100.7421875 172.90625 C101.37850098 173.89786133 102.01481445 174.88947266 102.67041016 175.91113281 C103.7094751 177.50973145 103.7094751 177.50973145 104.76953125 179.140625 C105.49293122 180.26122837 106.21607171 181.38199929 106.93896484 182.50292969 C115.73341855 196.10979905 124.76112342 209.56330658 133.82421875 222.9921875 C134.80430908 224.44963379 134.80430908 224.44963379 135.80419922 225.93652344 C137.04656658 227.78365623 138.29281778 229.62818437 139.54345703 231.46972656 C140.09243652 232.28666992 140.64141602 233.10361328 141.20703125 233.9453125 C141.69171875 234.66187012 142.17640625 235.37842773 142.67578125 236.11669922 C143.70703125 237.890625 143.70703125 237.890625 143.70703125 239.890625 C149.52777896 236.73413899 154.80878351 233.05322004 160.14453125 229.140625 C160.97146484 228.53863281 161.79839844 227.93664062 162.65039062 227.31640625 C164.67160902 225.84430499 166.69039887 224.36899894 168.70703125 222.890625 C168.12599779 219.13638299 167.07382341 216.39743706 165.16015625 213.125 C164.64453125 212.23425781 164.12890625 211.34351563 163.59765625 210.42578125 C163.05625 209.50667969 162.51484375 208.58757812 161.95703125 207.640625 C160.37948865 204.93019028 158.80340387 202.21891612 157.22827148 199.50708008 C156.22548779 197.78234362 155.21730287 196.06073458 154.20336914 194.3425293 C153.5187561 193.15784058 153.5187561 193.15784058 152.8203125 191.94921875 C152.41337158 191.25368896 152.00643066 190.55815918 151.5871582 189.84155273 C150.09695659 186.53830695 150.62702315 184.25770908 151.70703125 180.890625 C154.68595091 173.93981245 161.12980111 171.73058232 167.70703125 168.890625 C173.57375657 166.93504989 180.30208829 166.88510463 186.01953125 169.390625 C195.02236898 174.91238171 199.94351214 186.77444457 205.14453125 195.640625 C205.97288224 197.04452172 206.80165574 198.44816922 207.63085938 199.8515625 C209.24160945 202.5794209 210.84679451 205.31043159 212.44750977 208.04418945 C213.89785644 210.51992988 215.36129908 212.98690111 216.83959961 215.44604492 C217.47389893 216.50927979 218.10819824 217.57251465 218.76171875 218.66796875 C219.31714355 219.59085693 219.87256836 220.51374512 220.44482422 221.46459961 C222.22091333 224.8783322 222.517647 227.13231559 221.70703125 230.890625 C218.80143416 237.17620238 215.18551815 240.23506597 209.51953125 244.078125 C208.32457031 244.9144043 208.32457031 244.9144043 207.10546875 245.76757812 C205.45274456 246.92291849 203.79596552 248.07247926 202.13525391 249.21630859 C199.16879924 251.26174858 196.22593295 253.33923354 193.28466797 255.4206543 C191.89048508 256.40706736 190.49495762 257.39158256 189.09814453 258.37426758 C184.75127379 261.43308398 180.42959625 264.52394388 176.12915039 267.64770508 C174.63918554 268.72647674 173.14485652 269.79924622 171.64624023 270.8659668 C167.60208847 273.74968699 163.66207597 276.7086655 159.79296875 279.82421875 C151.70831864 286.19148195 143.41180402 292.40818795 132.72875977 292.46582031 C127.06720443 291.60416381 124.39449314 288.82643888 120.90234375 284.421875 C117.25396536 279.37486652 114.08393766 274.04134178 111.01368713 268.62870789 C106.58930856 260.82970728 101.6269895 253.38268365 96.70703125 245.890625 C95.79317462 244.49343012 94.87959778 243.09605219 93.96630859 241.69848633 C93.05570223 240.30677841 92.14505767 238.91509549 91.234375 237.5234375 C90.78266937 236.83209717 90.33096375 236.14075684 89.86557007 235.4284668 C87.46192429 231.757641 85.03379856 228.10628769 82.56738281 224.47729492 C77.76484158 217.36917716 73.31723981 210.42251726 69.7265625 202.62109375 C65.9464552 194.73217687 61.97687837 186.58676708 53.54193115 182.95959473 C40.8141325 178.69038669 25.02102051 177.97308378 12.70703125 183.890625 C2.02792104 191.50437472 -3.6675587 205.13950913 -9.43603516 216.49316406 C-13.51433323 224.39355058 -18.51532706 231.67382324 -23.50045776 239.0213623 C-26.14162677 242.92016626 -28.74334516 246.84479038 -31.33984375 250.7734375 C-31.84229111 251.53156738 -32.34473846 252.28969727 -32.8624115 253.07080078 C-35.8210049 257.56283769 -38.6641264 262.10647867 -41.41902161 266.72613525 C-43.13071622 269.58849187 -44.88247915 272.4251902 -46.63851929 275.26049805 C-47.43717773 276.57642087 -48.21543213 277.90499073 -48.97061157 279.24633789 C-54.51553842 289.08513975 -54.51553842 289.08513975 -59.18530273 290.43942261 C-74.57448841 292.51449305 -84.67886131 284.11291914 -96.375 275.4921875 C-101.31344986 271.85728284 -106.32413701 268.33289556 -111.35546875 264.828125 C-113.0326149 263.65764209 -114.70969869 262.48706981 -116.38671875 261.31640625 C-117.61261719 260.46103271 -117.61261719 260.46103271 -118.86328125 259.58837891 C-124.73884959 255.48280191 -130.5945977 251.34954485 -136.43896484 247.19970703 C-138.18103928 245.96965658 -139.93248683 244.75445367 -141.6875 243.54296875 C-142.67105469 242.85332031 -143.65460938 242.16367187 -144.66796875 241.453125 C-145.50070313 240.87691406 -146.3334375 240.30070313 -147.19140625 239.70703125 C-151.14811521 236.28719915 -152.54292543 233.22991284 -153.03515625 228.05859375 C-152.78610631 219.70142925 -147.75024898 213.04301618 -143.41796875 206.203125 C-142.53547499 204.7742392 -141.65494638 203.34413788 -140.77636719 201.9128418 C-139.06370816 199.13042758 -137.33820011 196.35673685 -135.60058594 193.58984375 C-133.70246962 190.56117647 -131.85962688 187.50494389 -130.05078125 184.421875 C-129.21499443 183.01553544 -128.37907608 181.60927403 -127.54296875 180.203125 C-127.1989502 179.60604736 -126.85493164 179.00896973 -126.50048828 178.39379883 C-123.33011929 173.21748173 -119.01872441 169.79921022 -113.29296875 167.890625 C-103.76627221 167.09673362 -95.31575881 169.76796513 -87.29296875 174.890625 C-83.59594543 178.27406152 -82.39901558 180.67046261 -81.9609375 185.7109375 C-82.07366586 190.00697571 -83.46232896 192.77900383 -85.73046875 196.453125 C-86.26039429 197.33170166 -86.26039429 197.33170166 -86.80102539 198.22802734 C-87.94914932 200.12575699 -89.12037757 202.00793309 -90.29296875 203.890625 C-91.5429814 205.93267153 -92.7868774 207.97820621 -94.02563477 210.02709961 C-94.81361128 211.32762012 -95.60812594 212.62420732 -96.40991211 213.91625977 C-98.23279169 216.89602133 -99.55829523 219.48369775 -100.29296875 222.890625 C-97.58557681 224.80862409 -94.87688504 226.7247796 -92.16796875 228.640625 C-91.40742187 229.17945313 -90.646875 229.71828125 -89.86328125 230.2734375 C-87.67740209 231.81862794 -85.48677323 233.35671197 -83.29296875 234.890625 C-82.69129883 235.31408203 -82.08962891 235.73753906 -81.46972656 236.17382812 C-78.64472795 238.26864563 -78.64472795 238.26864563 -75.29296875 238.890625 C-73.8696717 236.81604247 -72.57483403 234.73937573 -71.29296875 232.578125 C-67.02586162 225.57068859 -62.56218486 218.7140969 -57.99282837 211.90008545 C-56.84811416 210.19215182 -55.70622332 208.48236428 -54.56518555 206.77197266 C-51.25339201 201.80884858 -47.93986275 196.84705731 -44.60351562 191.90039062 C-42.35767287 188.57000058 -40.12427584 185.23155571 -37.89840698 181.88778687 C-37.03998835 180.60330958 -36.17699838 179.32187499 -35.30935669 178.04360962 C-34.10072409 176.26188395 -32.90816695 174.47037048 -31.71875 172.67578125 C-31.03208252 171.65363525 -30.34541504 170.63148926 -29.63793945 169.57836914 C-28.1030301 167.06979791 -28.1030301 167.06979791 -28.41918945 164.74145508 C-29.37063314 162.72611711 -30.4159347 161.20111157 -31.84765625 159.4921875 C-32.37423828 158.85539063 -32.90082031 158.21859375 -33.44335938 157.5625 C-34.01248047 156.88703125 -34.58160156 156.2115625 -35.16796875 155.515625 C-36.36427154 154.07113206 -37.55956799 152.62580517 -38.75390625 151.1796875 C-39.35299805 150.4568457 -39.95208984 149.73400391 -40.56933594 148.98925781 C-43.02812164 145.9955295 -45.41428687 142.94810902 -47.79296875 139.890625 C-52.87766144 133.37735352 -58.0839564 126.96692909 -63.3046875 120.5625 C-66.27021357 116.92370439 -69.20398949 113.26055627 -72.125 109.5859375 C-73.89931456 107.38003292 -75.69024626 105.19106438 -77.4921875 103.0078125 C-78.35360352 101.95980469 -78.35360352 101.95980469 -79.23242188 100.890625 C-80.36398436 99.5150496 -81.49917348 98.14244617 -82.63867188 96.7734375 C-93.01212921 84.1382885 -93.01212921 84.1382885 -92.98046875 77.890625 C-93.00496094 77.1275 -93.02945313 76.364375 -93.0546875 75.578125 C-91.11158609 68.72246465 -85.10412071 63.49729376 -79.9140625 58.89453125 C-73.0094213 52.60565636 -66.39602183 46.05352307 -59.828125 39.41796875 C-58.80677314 38.38829603 -57.78531866 37.3587251 -56.76376343 36.32925415 C-52.55437519 32.08502679 -48.34880158 27.8370832 -44.15307617 23.5793457 C-41.54874568 20.93716839 -38.93697973 18.30253381 -36.32046318 15.67242622 C-35.33896953 14.68296185 -34.36024065 13.69074593 -33.38453865 12.69556999 C-23.33381179 2.44716796 -15.00080503 -5.05365199 0 0 Z " fill="#FEFFFE" transform="translate(214.29296875,98.109375)"/>
</svg>
