<svg version="1.1" xmlns="http://www.w3.org/2000/svg" width="400" height="400">
<path d="M0 0 C132 0 264 0 400 0 C400 132 400 264 400 400 C268 400 136 400 0 400 C0 268 0 136 0 0 Z " fill="#010101" transform="translate(0,0)"/>
<path d="M0 0 C4.5095417 1.42802154 7.90566361 3.64038306 11.81640625 6.265625 C16.29959316 9.20267954 21.01377687 11.68655432 25.75 14.1875 C22.79996214 16.49302433 19.76454714 18.41149315 16.515625 20.26953125 C15.47792969 20.86515869 14.44023437 21.46078613 13.37109375 22.07446289 C11.70240234 23.02760376 11.70240234 23.02760376 10 24 C7.65034254 25.34774167 5.30179853 26.69741959 2.953125 28.046875 C2.05684387 28.56133934 2.05684387 28.56133934 1.14245605 29.0861969 C-5.00320314 32.61533559 -11.12892605 36.1784047 -17.25 39.75 C-18.20874023 40.30856689 -19.16748047 40.86713379 -20.15527344 41.44262695 C-24.64907909 44.06532802 -29.12729261 46.70985465 -33.58203125 49.3984375 C-36.98713448 51.44816028 -40.41797747 53.40130746 -43.9375 55.25 C-52.16385918 59.24479912 -52.16385918 59.24479912 -57.25 66.1875 C-57.34847354 68.07797176 -57.38823336 69.97172441 -57.39526367 71.86474609 C-57.40164352 73.02960541 -57.40802338 74.19446472 -57.41459656 75.3946228 C-57.41570938 76.65400665 -57.4168222 77.9133905 -57.41796875 79.2109375 C-57.42129715 80.50440094 -57.42462555 81.79786438 -57.42805481 83.13052368 C-57.43404131 85.86925083 -57.43589523 88.60794645 -57.43530273 91.34667969 C-57.4352012 94.84931863 -57.44884639 98.35175447 -57.46607494 101.85434532 C-57.47989509 105.20237907 -57.47928442 108.5503756 -57.48046875 111.8984375 C-57.48765427 113.15377289 -57.49483978 114.40910828 -57.50224304 115.70248413 C-57.49916641 116.87364777 -57.49608978 118.0448114 -57.49291992 119.25146484 C-57.49434494 120.27944183 -57.49576996 121.30741882 -57.49723816 122.36654663 C-57.23438256 125.36569287 -56.59768884 127.50307869 -55.25 130.1875 C-53.03783746 131.99203301 -53.03783746 131.99203301 -50.28125 133.4296875 C-49.24774414 134.01355225 -48.21423828 134.59741699 -47.14941406 135.19897461 C-45.4667041 136.12141968 -45.4667041 136.12141968 -43.75 137.0625 C-42.58214573 137.71664362 -41.41516559 138.37235005 -40.24902344 139.02954102 C-37.81581643 140.39926125 -35.37894245 141.76210848 -32.93945312 143.12060547 C-27.08758162 146.38806091 -21.29821188 149.76353939 -15.5 153.125 C-8.90533592 156.93351434 -2.30602836 160.73311186 4.3125 164.5 C9.55730224 167.49420956 14.78476238 170.51714946 20 173.5625 C21.11097046 174.20699097 21.11097046 174.20699097 22.24438477 174.86450195 C22.93201904 175.26757568 23.61965332 175.67064941 24.328125 176.0859375 C24.94075195 176.44349121 25.55337891 176.80104492 26.18457031 177.16943359 C27.75 178.1875 27.75 178.1875 29.75 180.1875 C29.97705078 183.07666016 29.97705078 183.07666016 29.9453125 186.7265625 C29.93886719 188.02851563 29.93242187 189.33046875 29.92578125 190.671875 C29.90906929 192.05208595 29.89213939 193.43229429 29.875 194.8125 C29.86497006 196.20051452 29.85584423 197.58853589 29.84765625 198.9765625 C29.82401863 202.38038026 29.79106867 205.78385506 29.75 209.1875 C26.52526502 208.64785611 24.00500215 207.98844656 21.2109375 206.2890625 C20.55794678 205.89775146 19.90495605 205.50644043 19.23217773 205.10327148 C18.53680908 204.67731689 17.84144043 204.2513623 17.125 203.8125 C15.60329941 202.89901485 14.08114703 201.98628197 12.55859375 201.07421875 C11.76952637 200.59903809 10.98045898 200.12385742 10.16748047 199.63427734 C6.19713922 197.25816724 2.19341583 194.94047327 -1.8125 192.625 C-2.60769043 192.16448242 -3.40288086 191.70396484 -4.22216797 191.22949219 C-9.94596497 187.9216822 -15.70531262 184.68122778 -21.47729492 181.45849609 C-26.53902062 178.61906862 -31.50853979 175.64365518 -36.46801758 172.63012695 C-41.30688952 169.70862725 -46.23113497 166.96630158 -51.1875 164.25 C-57.21589512 160.92579845 -63.1864583 157.52511463 -69.0625 153.9375 C-69.71404053 153.54957275 -70.36558105 153.16164551 -71.03686523 152.76196289 C-77.53573023 148.72974556 -81.92558487 143.57520934 -84.25 136.1875 C-84.52451155 133.36676902 -84.66151743 130.77398831 -84.63818359 127.96069336 C-84.64344055 127.16951614 -84.64869751 126.37833893 -84.65411377 125.56318665 C-84.66723611 122.96770036 -84.65860439 120.37283545 -84.6484375 117.77734375 C-84.65046027 115.96326073 -84.6533734 114.14917851 -84.65713501 112.33509827 C-84.66154766 108.54159773 -84.65516073 104.74830974 -84.64111328 100.95483398 C-84.62400978 96.10039094 -84.63387663 91.24644511 -84.65183067 86.39202023 C-84.66268672 82.64901503 -84.65921403 78.90612715 -84.6514473 75.16311836 C-84.64945096 73.37340803 -84.65188461 71.58368693 -84.65888596 69.79398918 C-84.66653187 67.29067757 -84.65485331 64.78816447 -84.63818359 62.28491211 C-84.64425629 61.55072052 -84.65032898 60.81652893 -84.65658569 60.06008911 C-84.57218505 53.19495052 -81.98766688 48.06204971 -77.25 43.1875 C-74.04828047 40.97010065 -70.69596598 39.05003524 -67.3125 37.125 C-66.33394043 36.55773193 -65.35538086 35.99046387 -64.34716797 35.40600586 C-61.3209169 33.65556544 -58.28668415 31.91976656 -55.25 30.1875 C-53.4908212 29.1797996 -51.73170362 28.17199231 -49.97265625 27.1640625 C-47.42335674 25.70547656 -44.87299518 24.24885956 -42.32006836 22.79663086 C-34.28850856 18.22644343 -26.30671422 13.57257259 -18.33056641 8.90649414 C-16.4636658 7.81444101 -14.59573125 6.72415272 -12.7265625 5.63598633 C-11.18441682 4.73401962 -9.64701967 3.82382059 -8.1171875 2.90112305 C-5.19858813 1.16168994 -3.45238634 0.19917613 0 0 Z " fill="#FBFBFB" transform="translate(156.25,135.8125)"/>
<path d="M0 0 C8.94407176 3.45125023 21.57288717 9.5479004 25.62417603 18.6484375 C27.09763461 22.80011948 27.4258387 26.74277038 27.38818359 31.125 C27.39344055 31.89360352 27.39869751 32.66220703 27.40411377 33.45410156 C27.41721016 35.96961392 27.40861295 38.48448233 27.3984375 41 C27.40046122 42.76302206 27.40337514 44.52604329 27.40713501 46.2890625 C27.41154433 49.97403985 27.40517235 53.65879822 27.39111328 57.34375 C27.3740222 62.05112136 27.38387088 66.75797947 27.40183067 71.46533203 C27.41270625 75.10290344 27.40920491 78.74035452 27.4014473 82.37792969 C27.39945571 84.11295636 27.4018677 85.84799419 27.40888596 87.58300781 C27.41656296 90.01396342 27.40481 92.44410456 27.38818359 94.875 C27.39425629 95.58172852 27.40032898 96.28845703 27.40658569 97.01660156 C27.33187211 102.95668706 25.95590918 108.24434689 22.48339844 113.13671875 C18.11539837 117.30772542 13.60428558 120.23421765 8.25 123 C6.64830956 123.8567068 5.0480423 124.71607974 3.44921875 125.578125 C2.68270996 125.98998047 1.91620117 126.40183594 1.12646484 126.82617188 C-2.47286497 128.81303499 -5.88897364 131.06320076 -9.32592773 133.31445312 C-11.83798904 134.8978797 -14.37510337 136.33306223 -16.9921875 137.734375 C-23.44636563 141.22627162 -29.81990572 144.85327163 -36.1875 148.5 C-37.08767853 149.01490997 -37.08767853 149.01490997 -38.00604248 149.54022217 C-60.65593953 162.46745263 -60.65593953 162.46745263 -82.99951172 175.91162109 C-85 177 -85 177 -87 177 C-87.22359275 172.83773496 -87.38625784 168.67869784 -87.49438477 164.51220703 C-87.5394723 163.09752509 -87.60076961 161.68325869 -87.67895508 160.27001953 C-88.30400406 148.67597378 -88.30400406 148.67597378 -85.41577148 144.96386719 C-83.030477 143.33674877 -80.63177644 142.18741631 -78 141 C-75.93814209 139.81672575 -73.8852664 138.61771282 -71.83984375 137.40625 C-70.13549446 136.43886322 -68.43108575 135.47157289 -66.7243042 134.50848389 C-63.63626746 132.76557591 -60.55482766 131.01106512 -57.47265625 129.2578125 C-56.84798462 128.9028067 -56.22331299 128.5478009 -55.57971191 128.18203735 C-49.32042482 124.62136566 -43.09351277 121.0064498 -36.875 117.375 C-35.92359131 116.82005859 -34.97218262 116.26511719 -33.99194336 115.69335938 C-29.54184006 113.0919672 -25.10671852 110.4686435 -20.69140625 107.80859375 C-17.18397943 105.69887375 -13.65739382 103.6459517 -10.0625 101.6875 C-9.16660156 101.19636719 -8.27070313 100.70523438 -7.34765625 100.19921875 C-5 99 -5 99 -2 98 C-1.00094752 95.33226988 -0.86825362 92.7791006 -0.84178162 89.95037842 C-0.8319928 89.15394928 -0.82220398 88.35752014 -0.81211853 87.53695679 C-0.80636307 86.67236847 -0.8006076 85.80778015 -0.79467773 84.91699219 C-0.78477814 83.99957245 -0.77487854 83.08215271 -0.76467896 82.13693237 C-0.73311158 79.10693943 -0.7083253 76.07693081 -0.68359375 73.046875 C-0.66302012 70.94508458 -0.64202353 68.84329826 -0.62062073 66.74151611 C-0.56544238 61.21121543 -0.51601437 55.68087767 -0.46777344 50.1505127 C-0.41752751 44.50655825 -0.36185757 38.86265761 -0.30664062 33.21875 C-0.19911085 22.14587931 -0.09765434 11.07296188 0 0 Z " fill="#FAFAFA" transform="translate(300,118)"/>
<path d="M0 0 C4.38759774 2.32060516 8.52996651 5.00649826 12.69140625 7.70483398 C16.06817662 9.80356273 19.56851664 11.65612312 23.06860352 13.53955078 C28.00750039 16.22946703 32.85151464 19.08071607 37.70361328 21.92333984 C38.74912354 22.5342749 39.79463379 23.14520996 40.87182617 23.7746582 C47.33424599 27.55716105 53.77205223 31.37754254 60.17797852 35.25488281 C64.16617507 37.66243739 68.20335416 39.95213071 72.31689453 42.13818359 C73.95361328 43.11083984 73.95361328 43.11083984 75.95361328 45.11083984 C76.18066406 48 76.18066406 48 76.14892578 51.64990234 C76.13925781 53.60283203 76.13925781 53.60283203 76.12939453 55.59521484 C76.11268258 56.9754258 76.09575267 58.35563413 76.07861328 59.73583984 C76.06858334 61.12385436 76.05945751 62.51187574 76.05126953 63.89990234 C76.02763191 67.3037201 75.99468195 70.70719491 75.95361328 74.11083984 C72.67678612 73.45341263 70.16419383 72.24779895 67.27001953 70.59130859 C65.89366333 69.80832397 65.89366333 69.80832397 64.48950195 69.00952148 C63.01767456 68.16248657 63.01767456 68.16248657 61.51611328 67.29833984 C59.99304565 66.4290686 59.99304565 66.4290686 58.43920898 65.54223633 C56.32403551 64.33438554 54.2100367 63.12447556 52.09716797 61.91259766 C49.10748911 60.19903522 46.11353596 58.49325456 43.11767578 56.79052734 C41.29204387 55.75166003 39.46651831 54.71260577 37.64111328 53.67333984 C36.81361572 53.2024292 35.98611816 52.73151855 35.13354492 52.24633789 C30.14115263 49.39404632 25.19825447 46.46929143 20.27563477 43.49829102 C18.29444174 42.31449121 16.30096757 41.1639779 14.28955078 40.03271484 C11.90205575 38.65724932 9.60662134 37.2565835 7.30517578 35.75146484 C6.69158203 35.35830078 6.07798828 34.96513672 5.44580078 34.56005859 C4.19934977 33.7595137 2.96222774 32.94425724 1.73486328 32.11474609 C-3.14234985 29.04353029 -7.33060059 27.81967053 -13.04638672 29.11083984 C-17.25603309 30.96255602 -21.08960256 33.29976781 -24.98388672 35.73583984 C-26.51432617 36.66203125 -26.51432617 36.66203125 -28.07568359 37.60693359 C-31.0758767 39.42581263 -34.06129219 41.26732074 -37.04638672 43.11083984 C-44.49978948 47.64551273 -52.04382324 52.01563132 -59.60888672 56.36083984 C-69.05599927 61.78882029 -69.05599927 61.78882029 -78.44873047 67.31005859 C-79.23626709 67.77831055 -80.02380371 68.2465625 -80.83520508 68.72900391 C-82.27451653 69.58779148 -83.71165326 70.45023787 -85.14624023 71.31689453 C-89.82868562 74.11083984 -89.82868562 74.11083984 -92.04638672 74.11083984 C-92.13442444 70.61100181 -92.1871228 67.11145346 -92.23388672 63.61083984 C-92.25902344 62.62857422 -92.28416016 61.64630859 -92.31005859 60.63427734 C-92.37970457 53.66967957 -91.89052017 47.85659292 -87.53076172 42.11474609 C-79.3949538 35.35323006 -70.07667769 30.28511874 -60.80419922 25.26318359 C-54.87461648 22.04243352 -49.05168926 18.65334619 -43.23388672 15.23583984 C-41.12994733 14.00498252 -39.02578159 12.77451202 -36.92138672 11.54443359 C-35.41318359 10.66247314 -35.41318359 10.66247314 -33.87451172 9.76269531 C-30.1670566 7.5972394 -26.45551021 5.439353 -22.73388672 3.29833984 C-21.161875 2.39148438 -21.161875 2.39148438 -19.55810547 1.46630859 C-13.51994643 -1.79223136 -6.44097537 -2.79861993 0 0 Z " fill="#FAFAFA" transform="translate(164.04638671875,88.88916015625)"/>
<path d="M0 0 C1.05268066 0.59570801 2.10536133 1.19141602 3.18994141 1.80517578 C6.26634592 3.55433819 9.32281211 5.33399526 12.375 7.125 C13.84878089 7.9794728 15.32271763 8.83367689 16.796875 9.6875 C19.45102427 11.23427185 22.09330136 12.79947533 24.73046875 14.375 C31.92210705 18.65841073 39.2030414 22.79167035 46.46826172 26.94873047 C63.43526373 36.69507695 63.43526373 36.69507695 65.97253227 45.10572624 C66.66431711 48.57657093 66.5132564 52.09978863 66.50439453 55.62548828 C66.50702301 56.90901688 66.50702301 56.90901688 66.50970459 58.21847534 C66.51410254 61.04410841 66.51119286 63.8696788 66.5078125 66.6953125 C66.50848601 68.65778617 66.50945642 70.62025977 66.51071167 72.58273315 C66.51218575 76.69334712 66.5100429 80.80393934 66.50537109 84.91455078 C66.49966647 90.19193814 66.50295928 95.46927473 66.50894356 100.74666023 C66.51255057 104.79743841 66.51141007 108.84820447 66.50881577 112.898983 C66.50814727 114.84550864 66.50897221 116.79203536 66.51129532 118.73855972 C66.51382493 121.45350324 66.50997719 124.16836349 66.50439453 126.88330078 C66.50641876 127.69269104 66.50844299 128.5020813 66.51052856 129.33599854 C66.48926569 134.89646862 66.48926569 134.89646862 65.375 137.125 C63.80365963 138.07723816 62.1911789 138.96204535 60.5625 139.8125 C55.20902831 142.65040057 50.00196023 145.68461557 44.80859375 148.8046875 C42.375 150.125 42.375 150.125 40.375 150.125 C40.36691315 148.99604813 40.35882629 147.86709625 40.35049438 146.70393372 C40.27301618 136.06561795 40.18527251 125.42742982 40.08747292 114.78928089 C40.03752302 109.32007701 39.99119272 103.85089232 39.953125 98.3815918 C39.9162559 93.10361121 39.86989125 87.82579169 39.81693649 82.54794884 C39.79840124 80.53415438 39.78329007 78.52032541 39.77165604 76.50647926 C39.7547789 73.68619918 39.72573998 70.86628729 39.69384766 68.04614258 C39.69168747 67.21320175 39.68952728 66.38026093 39.68730164 65.52207947 C39.62637295 61.30555087 39.40980211 57.93153967 37.375 54.125 C35.61790435 52.47139294 35.61790435 52.47139294 33.4375 51.203125 C32.63054687 50.69845703 31.82359375 50.19378906 30.9921875 49.67382812 C26.48826275 47.00844579 21.94968156 44.41696092 17.375 41.875 C10.56738096 38.06013893 3.77507552 34.23003008 -2.9375 30.25 C-11.5178796 25.16410101 -20.16063654 20.18780904 -28.8059082 15.21337891 C-29.87542725 14.59769043 -30.94494629 13.98200195 -32.046875 13.34765625 C-33.00174805 12.79859619 -33.95662109 12.24953613 -34.94042969 11.68383789 C-37.51673938 10.18786323 -40.07450693 8.66449984 -42.625 7.125 C-41.15145765 2.63372365 -37.66872981 1.06446842 -33.75 -1.0625 C-33.12480469 -1.41763672 -32.49960938 -1.77277344 -31.85546875 -2.13867188 C-20.36583762 -8.53934376 -10.95456814 -6.45469982 0 0 Z " fill="#FCFCFC" transform="translate(216.625,68.875)"/>
<path d="M0 0 C1.20346986 24.68038953 1.20346986 24.68038953 -4.05786133 31.01269531 C-10.26901452 37.36829393 -19.05957604 41.46782234 -26.6875 45.875 C-27.75186279 46.49286377 -28.81622559 47.11072754 -29.9128418 47.74731445 C-36.44251678 51.53377969 -42.98598142 55.29524124 -49.546875 59.02734375 C-53.72939765 61.41668078 -57.89606792 63.83274922 -62.0625 66.25 C-69.77616853 70.72487919 -77.51441505 75.15519331 -85.265625 79.56469727 C-89.5199722 81.99035879 -93.75794981 84.4381144 -97.96484375 86.9453125 C-98.7419873 87.40800537 -99.51913086 87.87069824 -100.31982422 88.34741211 C-101.7734393 89.21600488 -103.22446435 90.08895281 -104.67236328 90.96704102 C-107.76585027 92.81641663 -110.47933512 94.24533162 -114 95 C-114.19844229 90.81935528 -114.34321495 86.64123001 -114.43945312 82.45727539 C-114.47957871 81.0358912 -114.53409912 79.61483514 -114.60351562 78.19458008 C-115.16088546 66.4939119 -115.16088546 66.4939119 -112.55493164 63.14038086 C-110.43382406 61.79845565 -108.33459576 60.91902667 -106 60 C-104.27747878 59.03168816 -102.56824866 58.03945658 -100.87109375 57.02734375 C-99.06084658 55.9957257 -97.24963456 54.96579905 -95.4375 53.9375 C-94.53064453 53.42123047 -93.62378906 52.90496094 -92.68945312 52.37304688 C-90.12690196 50.91430673 -87.56359983 49.45689623 -85 48 C-79.03516863 44.6087588 -73.11078329 41.15073732 -67.1875 37.6875 C-57.44549023 31.99829217 -47.68658794 26.33916133 -37.90893555 20.71142578 C-32.76617265 17.75136738 -27.62659667 14.78631898 -22.50021362 11.79798889 C-20.08387745 10.38971716 -17.66574595 8.98454427 -15.24749756 7.57955933 C-13.5293002 6.57955298 -11.81369781 5.57509225 -10.09814453 4.57055664 C-9.06544434 3.97106201 -8.03274414 3.37156738 -6.96875 2.75390625 C-5.59879883 1.95448608 -5.59879883 1.95448608 -4.20117188 1.13891602 C-2 0 -2 0 0 0 Z " fill="#F9F9F9" transform="translate(327,250)"/>
<path d="M0 0 C0.01981934 1.28165039 0.03963867 2.56330078 0.06005859 3.88378906 C0.13614503 8.64001067 0.22485798 13.39592757 0.31738281 18.15185547 C0.35565995 20.21006249 0.39051504 22.26833612 0.421875 24.32666016 C0.46755278 27.28572388 0.52554302 30.24432957 0.5859375 33.203125 C0.59748871 34.12305237 0.60903992 35.04297974 0.62094116 35.99078369 C0.64081085 36.8513739 0.66068054 37.71196411 0.68115234 38.59863281 C0.69447601 39.35364075 0.70779968 40.10864868 0.7215271 40.88653564 C1.03977054 43.30183768 1.74421893 44.92132746 3 47 C4.74621755 48.30869472 4.74621755 48.30869472 6.87109375 49.3125 C10.58264278 51.25477091 14.22919541 53.26309924 17.84765625 55.375 C18.86537109 55.96796875 19.88308594 56.5609375 20.93164062 57.171875 C22.48141602 58.07679688 22.48141602 58.07679688 24.0625 59 C25.09955078 59.60328125 26.13660156 60.2065625 27.20507812 60.828125 C29.22564195 62.006894 31.23669963 63.20214372 33.23681641 64.4152832 C35.89887363 66.02571253 35.89887363 66.02571253 38.50927734 67.01245117 C40.99842096 68.10493008 42.34162558 68.83115585 44 71 C44.98502768 76.13405994 44.75339661 81.12802928 44.5 86.3125 C44.45984499 87.73492649 44.42334764 89.15746125 44.390625 90.58007812 C44.30272435 94.05564395 44.16484613 97.52713582 44 101 C41.10020123 100.38633469 38.84687042 99.49008461 36.296875 97.98828125 C35.5764502 97.56748291 34.85602539 97.14668457 34.11376953 96.71313477 C33.33372559 96.25092529 32.55368164 95.78871582 31.75 95.3125 C30.92226074 94.82773193 30.09452148 94.34296387 29.24169922 93.84350586 C27.44153664 92.78894418 25.64259471 91.73229672 23.84472656 90.67382812 C18.94535601 87.79105396 14.03452134 84.92793929 9.125 82.0625 C8.12476807 81.47726562 7.12453613 80.89203125 6.09399414 80.2890625 C1.05064263 77.34247637 -4.00467612 74.42077888 -9.08984375 71.546875 C-10.0535791 71.001521 -11.01731445 70.45616699 -12.01025391 69.89428711 C-13.83428347 68.86467502 -15.66066983 67.8392234 -17.48974609 66.81860352 C-18.3039502 66.35897217 -19.1181543 65.89934082 -19.95703125 65.42578125 C-20.66835205 65.02786377 -21.37967285 64.62994629 -22.11254883 64.2199707 C-24.78693639 62.49135673 -26.72391698 61.18423037 -27.47084045 57.9803772 C-27.51277023 57.20906464 -27.55470001 56.43775208 -27.59790039 55.64306641 C-27.6727063 54.32446877 -27.6727063 54.32446877 -27.74902344 52.97923279 C-27.78157227 52.02960159 -27.81412109 51.0799704 -27.84765625 50.1015625 C-27.88141357 49.11829483 -27.9151709 48.13502716 -27.94995117 47.1219635 C-28.02756104 43.95533994 -28.0562967 40.79254683 -28.0625 37.625 C-28.06611542 36.56399078 -28.06973083 35.50298157 -28.07345581 34.40982056 C-27.91808623 15.92296173 -27.91808623 15.92296173 -23.8125 10.57470703 C-18.08319834 5.35474523 -11.40542985 2.9151834 -4 1 C-2 0 -2 0 0 0 Z " fill="#FAFAFA" transform="translate(142,194)"/>
<path d="M0 0 C0.99 1.32 1.98 2.64 3 4 C-0.42789254 6.74231403 -1.64589854 7 -6 7 C-4.02 4.69 -2.04 2.38 0 0 Z " fill="#262626" transform="translate(324,227)"/>
<path d="M0 0 C0.99 0.33 1.98 0.66 3 1 C1.35 2.65 -0.3 4.3 -2 6 C-2.99 5.01 -3.98 4.02 -5 3 C-2.6875 1.4375 -2.6875 1.4375 0 0 Z " fill="#1F1F1F" transform="translate(227,337)"/>
</svg>
