<?xml version="1.0" encoding="UTF-8"?><svg id="Layer_2" xmlns="http://www.w3.org/2000/svg" viewBox="0 0 543.34 336.81"><defs><style>.cls-1{fill:#181916;}.cls-1,.cls-2{stroke-width:0px;}.cls-2{fill:none;}</style></defs><g id="Layer_1-2"><polygon class="cls-2" points="252.06 136.01 291.29 140.47 257.56 119.61 252.06 136.01"/><polygon class="cls-2" points="287.79 118.07 327.02 122.54 293.29 101.67 287.79 118.07"/><polygon class="cls-2" points="200.93 122.98 240.16 127.44 206.44 106.58 200.93 122.98"/><polygon class="cls-2" points="342.82 129.65 382.05 134.11 348.33 113.24 342.82 129.65"/><path class="cls-2" d="M486.52,124.94s-1.77-9.3-8.94-16.16c.47,1.11.73,2.33.73,3.62,0,5.14-4.17,9.31-9.31,9.31-.38,0-.75-.03-1.12-.07,7.16,3.73,18.16,3.99,18.16,3.99l.48-.69Z"/><polygon class="cls-2" points="376.02 112.47 414.23 122.42 383.78 97.01 376.02 112.47"/><path class="cls-2" d="M459.69,112.4c0-5.14,4.17-9.31,9.31-9.31.77,0,1.51.1,2.22.28-6.91-4.28-18.93-6.36-18.93-6.36l-.52.64s2.21,9.2,8.12,16.62c-.12-.61-.19-1.23-.19-1.88Z"/><path class="cls-1" d="M534.01,172.27l9.34-8.37-41.42-38.37-3.49-17.74-23.19-19.18-1.13-88.61h-1.19l-32.09,72.95-3.4-.09L413.08,0h-1.3s-13.59,83.84-13.59,83.84l-212.38,13.32L0,192.02v2.3s26.21,25.02,74.74,14.93c34.22-7.11,93.46-56.98,111.26-70.7-3.66,70.86-21.37,198.25-21.37,198.25h21.52s25.01-142.5,25.01-142.5l20.38-1.28-18.39,143.75h23.15s24.59-145.5,24.59-145.5l93.03-6.21-15.9,151.62h21.18s24.74-153.22,24.74-153.22l22.54-1.41-14.94,154.6h23.71s19.49-168.26,19.49-168.26l19.34-12.8,65.65,33.77,4.92-7.4-43.75-30.26,1.76-2.65,51.35,23.2ZM200.93,122.98l5.51-16.4,33.73,20.86-39.23-4.46ZM252.06,136.01l5.51-16.4,33.73,20.86-39.23-4.46ZM287.79,118.07l5.51-16.4,33.73,20.86-39.23-4.46ZM342.82,129.65l5.51-16.4,33.73,20.86-39.23-4.46ZM376.02,112.47l7.76-15.46,30.45,25.41-38.21-9.95ZM451.76,97.65l.52-.64s12.02,2.08,18.93,6.36c-.71-.17-1.45-.28-2.22-.28-5.14,0-9.31,4.17-9.31,9.31,0,.64.07,1.27.19,1.88-5.91-7.42-8.12-16.62-8.12-16.62ZM467.88,121.63c.37.04.74.07,1.12.07,5.14,0,9.31-4.17,9.31-9.31,0-1.28-.26-2.5-.73-3.62,7.17,6.86,8.94,16.16,8.94,16.16l-.48.69s-11-.26-18.16-3.99Z"/></g></svg>