<?xml version="1.0" encoding="UTF-8"?>
<svg version="1.1" xmlns="http://www.w3.org/2000/svg" width="400" height="400">
<path d="M0 0 C132 0 264 0 400 0 C400 132 400 264 400 400 C268 400 136 400 0 400 C0 268 0 136 0 0 Z " fill="#132452" transform="translate(0,0)"/>
<path d="M0 0 C3.67515886 0.08794556 7.3505004 0.09577424 11.0265491 0.11235571 C17.97635359 0.15575046 24.92304889 0.27045364 31.87148827 0.41124856 C39.78646196 0.56812172 47.7015899 0.64480171 55.61773288 0.71498466 C71.89124258 0.86104713 88.16163086 1.10704138 104.43281436 1.41951513 C104.09958919 2.06473938 103.76636401 2.70996363 103.42304111 3.37474012 C100.96916925 8.19093432 98.81128323 12.90970183 97.04414248 18.02644873 C93.97526687 25.45208113 90.51061664 33.05533363 83.43281436 37.41951513 C70.50425269 42.21469537 54.54274687 39.96412202 41.0771625 39.20479345 C35.81691921 38.93666063 30.55341813 38.81963938 25.28828311 38.68904638 C14.99455222 38.41184204 4.71533271 37.96948041 -5.56718564 37.41951513 C-5.86125302 38.17675879 -6.15532041 38.93400244 -6.45829892 39.71419287 C-7.85643073 43.12517891 -9.62328867 46.28356828 -11.44218564 49.48201513 C-12.03700742 50.53292334 -12.03700742 50.53292334 -12.6438458 51.60506201 C-16.14251921 57.74762697 -19.76517937 63.81277936 -23.41801572 69.86458349 C-26.69183135 75.2891402 -29.94262167 80.72662706 -33.17265439 86.17732763 C-33.57641294 86.858431 -33.98017148 87.53953436 -34.39616513 88.24127722 C-36.46755218 91.73647457 -38.5365329 95.2330741 -40.60283017 98.73128271 C-44.09209698 104.63010268 -47.59136543 110.51255938 -51.26640439 116.29842138 C-51.79226132 117.13035009 -52.31811826 117.9622788 -52.85991025 118.81941748 C-53.79694074 120.29034657 -54.74606432 121.75367848 -55.71000791 123.20711279 C-58.00742815 126.72124097 -58.00742815 126.72124097 -58.35453916 130.78377295 C-57.45595462 133.79187176 -56.19446645 136.18084318 -54.61015439 138.89217138 C-53.9988165 139.94549658 -53.38747861 140.99882177 -52.75761533 142.08406591 C-52.09664853 143.20538916 -51.43568173 144.3267124 -50.75468564 145.48201513 C-50.06443022 146.66386571 -49.37465714 147.84599812 -48.6853497 149.02840185 C-43.83994194 157.32340692 -38.91495519 165.57061065 -33.94999814 173.79451513 C-29.0740882 181.88168544 -24.26961817 190.0115845 -19.4530499 198.13417578 C-18.65226533 199.48459817 -17.85136437 200.83495156 -17.05033994 202.18523169 C-16.2836603 203.47804784 -15.51753409 204.77119238 -14.75200009 206.06468725 C-12.06666278 210.59719806 -9.33289736 215.09830657 -6.55888486 219.57722998 C-5.56718564 221.41951513 -5.56718564 221.41951513 -5.56718564 223.41951513 C31.06281436 223.41951513 67.69281436 223.41951513 105.43281436 223.41951513 C106.42281436 220.44951513 106.42281436 220.44951513 107.43281436 217.41951513 C108.48174417 215.49054385 109.59197973 213.59411464 110.74922061 211.72810888 C111.42227237 210.63345312 112.09532413 209.53879736 112.78877139 208.41097021 C113.14763431 207.83311773 113.50649722 207.25526525 113.87623477 206.6599021 C115.81364698 203.53864491 117.72997939 200.40448402 119.64765811 197.27107763 C120.24356753 196.2986688 120.24356753 196.2986688 120.85151553 195.30661535 C125.01220333 188.50195535 129.04204541 181.6228583 133.05781436 174.73201513 C138.88470408 164.74318023 144.78402275 154.8026491 150.75385928 144.8982749 C156.4001278 135.51331165 161.93728691 126.06590399 167.44843936 116.60115576 C171.99962954 108.80227162 176.66761722 101.08888852 181.43281436 93.41951513 C184.51436881 96.10319799 186.36412326 99.45160506 188.37422061 102.95076513 C188.74256518 103.58309057 189.11090976 104.21541601 189.49041629 104.86690283 C190.66311432 106.88192246 191.82941825 108.90055366 192.99531436 110.91951513 C194.16605912 112.93770878 195.33810631 114.95513784 196.5109241 116.97212744 C197.23919093 118.22557566 197.96602628 119.47985695 198.69125247 120.73506689 C200.20673601 123.35178626 201.75454602 125.90211263 203.43281436 128.41951513 C203.14657866 133.0825037 201.66728498 136.18979548 199.21406436 140.11092138 C198.53778995 141.20557714 197.86151553 142.30023291 197.16474795 143.42806005 C196.80177615 144.00591253 196.43880435 144.58376501 196.0648334 145.17912817 C194.10755945 148.29634048 192.18292067 151.43368329 190.25312686 154.56795263 C189.85276217 155.21622519 189.45239749 155.86449774 189.03990054 156.53241491 C184.85230582 163.32657154 180.82329823 170.21023244 176.80781436 177.10701513 C170.88365587 187.26441482 164.88677279 197.37413154 158.82173038 207.44832373 C154.76416802 214.19090234 150.74118556 220.95270544 146.74531436 227.73201513 C142.41301023 235.07850251 138.06309158 242.41401182 133.68281436 249.73201513 C133.16888125 250.59286718 132.65494815 251.45371923 132.12544131 252.34065771 C131.65453067 253.12593847 131.18362002 253.91121923 130.69843936 254.72029638 C130.2836835 255.41292578 129.86892764 256.10555517 129.44160342 256.81917334 C128.43281436 258.41951513 128.43281436 258.41951513 127.43281436 259.41951513 C125.44721909 259.53595477 123.45745205 259.58145173 121.46853518 259.60033178 C120.1716376 259.61471289 118.87474002 259.62909399 117.53854251 259.64391088 C116.08769229 259.65472689 114.63684079 259.66537171 113.18598819 259.67586279 C111.66849865 259.69030416 110.15101208 259.70506169 108.63352847 259.72011328 C94.76714958 259.85050591 80.89995597 259.91626753 67.03308463 259.96795607 C56.77894051 260.00687129 46.52589445 260.0752203 36.27223259 260.18250382 C29.0671004 260.25535175 21.86226854 260.29379014 14.65678304 260.30698192 C10.35126799 260.31585084 6.04710911 260.34012881 1.74199748 260.40165091 C-2.31077501 260.45890653 -6.3614928 260.47356982 -10.41460919 260.45577765 C-11.90057357 260.45665599 -13.38662202 260.47291279 -14.87222219 260.50582266 C-26.09774839 260.74154994 -26.09774839 260.74154994 -29.74753594 257.4578805 C-31.30103578 255.16497209 -32.46170421 252.95330906 -33.56718564 250.41951513 C-34.20744687 249.37142675 -34.8477081 248.32333838 -35.50737119 247.24348974 C-36.06722714 246.27935156 -36.6270831 245.31521338 -37.20390439 244.32185888 C-37.85367246 243.20730322 -38.50344052 242.09274755 -39.17289853 240.94441748 C-39.51112638 240.36149939 -39.84935422 239.7785813 -40.19783139 239.17799902 C-42.05684032 235.97488438 -43.92581371 232.77758646 -45.79374814 229.57967138 C-46.18335217 228.91221899 -46.57295621 228.2447666 -46.97436643 227.55708838 C-51.32251576 220.11428715 -55.72365477 212.70315038 -60.12968564 205.29451513 C-60.93519019 203.93978074 -61.7406915 202.58504441 -62.54618955 201.23030615 C-63.73998647 199.22256229 -64.93381602 197.21483791 -66.12782407 195.2072196 C-68.65440106 190.95808434 -71.17528586 186.7056402 -73.69218564 182.45076513 C-74.67541806 180.78944555 -74.67541806 180.78944555 -75.67851377 179.09456396 C-76.96822172 176.91325985 -78.25601692 174.73082357 -79.54179502 172.54720068 C-82.74541256 167.1202434 -85.98413259 161.72220852 -89.30621457 156.36714697 C-91.00865744 153.62110925 -92.69923364 150.86784388 -94.38966489 148.11440039 C-95.20907603 146.78791142 -96.03460618 145.46518076 -96.86653256 144.14650488 C-98.02297269 142.31292453 -99.15811402 140.46763653 -100.28984189 138.61873388 C-100.94734433 137.56516699 -101.60484677 136.51160009 -102.28227353 135.42610693 C-103.83043249 131.80353852 -103.68699686 130.16045386 -102.56718564 126.41951513 C-101.3782208 123.95125341 -101.3782208 123.95125341 -99.85624814 121.48982763 C-99.28068173 120.54623388 -98.70511533 119.60264013 -98.11210752 118.63045263 C-97.4785333 117.61209326 -96.84495908 116.59373388 -96.19218564 115.54451513 C-95.17548951 113.88137054 -94.15884072 112.21819617 -93.14390683 110.55397558 C-92.42283297 109.37233345 -91.70059733 108.1913996 -90.97728086 107.0111289 C-87.01103165 100.53471577 -83.14350942 94.00057383 -79.27702451 87.46428442 C-72.61053184 76.19713156 -65.89719741 64.95921716 -59.14286923 53.7444663 C-55.78528581 48.15649465 -52.46264651 42.54972305 -49.17656064 36.91951513 C-48.80274259 36.27943014 -48.42892453 35.63934515 -48.04377866 34.97986364 C-46.23748392 31.88537516 -44.43504817 28.78873904 -42.63896298 25.68831396 C-41.34476597 23.46601445 -40.0196031 21.26133859 -38.6581738 19.07957983 C-37.15866327 16.5982923 -36.2463861 14.52490929 -35.24697995 11.73788977 C-28.80981734 -3.224641 -14.08634366 -0.39410969 0 0 Z " fill="#FDFDFE" transform="translate(150.56718564033508,69.58048486709595)"/>
<path d="M0 0 C2.55063009 2.32937061 4.19054636 4.77543296 5.92578125 7.75390625 C6.47556641 8.69169922 7.02535156 9.62949219 7.59179688 10.59570312 C8.15962891 11.57474609 8.72746094 12.55378906 9.3125 13.5625 C10.43326648 15.48066001 11.55435854 17.39862982 12.67578125 19.31640625 C13.4948999 20.73397217 13.4948999 20.73397217 14.33056641 22.18017578 C15.44679628 24.06558891 16.60079528 25.92912737 17.79052734 27.76904297 C18.62704834 29.07252686 18.62704834 29.07252686 19.48046875 30.40234375 C19.98860107 31.16925537 20.4967334 31.93616699 21.02026367 32.72631836 C22.29034084 35.67379622 21.99825031 36.9722634 21 40 C20.08312448 41.8597507 19.08906875 43.6824026 18.04296875 45.47265625 C17.43163086 46.52598145 16.82029297 47.57930664 16.19042969 48.66455078 C15.52946289 49.78587402 14.86849609 50.90719727 14.1875 52.0625 C13.49724457 53.24435057 12.8074715 54.42648299 12.11816406 55.60888672 C7.25597154 63.93262614 2.31300897 72.20783807 -2.66796875 80.4609375 C-6.83347545 87.3703993 -10.94620768 94.31115449 -15.0625 101.25 C-15.46342865 101.92574066 -15.8643573 102.60148132 -16.2774353 103.29769897 C-17.9241266 106.07309859 -19.57074469 108.84854158 -21.21711731 111.62413025 C-24.17392323 116.60872512 -27.13322696 121.59183085 -30.09375 126.57421875 C-30.93482157 127.98990462 -31.7758861 129.40559469 -32.61694336 130.82128906 C-33.81493896 132.83779152 -35.01301433 134.8542462 -36.2114563 136.8704834 C-36.95338977 138.11875616 -37.69321697 139.36828338 -38.43086243 140.61909485 C-39.16678608 141.8491391 -39.91876589 143.06971873 -40.68644714 144.28019714 C-42.80995642 147.68197755 -44.34923452 150.85784535 -45.58105469 154.68188477 C-47.4395168 159.78481414 -49.30477546 163.98929562 -54 167 C-64.22675246 169.70418428 -75.28208821 168.6767563 -85.74530029 168.16729736 C-89.71929987 167.99229012 -93.69512033 167.91552692 -97.671875 167.83007812 C-105.45292853 167.64859501 -113.2249047 167.35918002 -121 167 C-121.41086349 166.28537094 -121.82172699 165.57074188 -122.24504089 164.8344574 C-133.14298324 145.86883741 -133.14298324 145.86883741 -144.3125 127.0625 C-144.94349609 126.01255859 -145.57449219 124.96261719 -146.22460938 123.88085938 C-149.52891859 118.38783601 -149.52891859 118.38783601 -153 113 C-152.73728833 108.32044842 -150.30514324 104.58450168 -148 100.625 C-147.59555664 99.91875488 -147.19111328 99.21250977 -146.77441406 98.48486328 C-144.82948487 95.1042474 -142.85390839 91.74218671 -140.859375 88.390625 C-140.51608154 87.81111084 -140.17278809 87.23159668 -139.8190918 86.63452148 C-139.09526273 85.4432367 -138.34840897 84.26569236 -137.58129883 83.10180664 C-135.07675588 79.22014647 -133.4821569 75.58229084 -132.08984375 71.16796875 C-129.62412138 64.43595077 -127.36023368 58.79353549 -121 55 C-107.07759426 51.46633609 -91.13016214 53.71290325 -77 55 C-78.1172664 58.57005736 -79.27069003 61.78347826 -81.22265625 64.9765625 C-81.89518433 66.08632446 -81.89518433 66.08632446 -82.58129883 67.21850586 C-83.07009521 68.01264893 -83.5588916 68.80679199 -84.0625 69.625 C-84.57256592 70.46877197 -85.08263184 71.31254395 -85.6081543 72.18188477 C-88.50663795 76.96658152 -91.44737441 81.72346126 -94.41957092 86.46258545 C-96.00143633 88.98959388 -97.57207908 91.52348835 -99.14181519 94.05804443 C-99.92018993 95.30767263 -100.70413181 96.55385087 -101.49368286 97.79644775 C-102.60948979 99.55290699 -103.70663887 101.31983368 -104.80078125 103.08984375 C-105.44184814 104.10941162 -106.08291504 105.12897949 -106.7434082 106.17944336 C-108.19372946 109.43484678 -108.15082084 110.67984743 -107 114 C-106.18774022 115.85876792 -106.18774022 115.85876792 -105.15234375 117.55078125 C-104.79462891 118.16630859 -104.43691406 118.78183594 -104.06835938 119.41601562 C-103.50858398 120.35477539 -103.50858398 120.35477539 -102.9375 121.3125 C-102.37192383 122.28026367 -102.37192383 122.28026367 -101.79492188 123.26757812 C-100.86962507 124.84878152 -99.93567319 126.4249146 -99 128 C-91.38278925 129.53564859 -83.47353165 130.62409717 -76 128 C-69.97684425 122.86300342 -67.09015924 114.77876501 -63.82861328 107.74804688 C-60.94768292 101.68757617 -57.38785814 96.00540108 -53.91143799 90.27392578 C-52.27381771 87.56592756 -50.66028422 84.8439028 -49.04559326 82.12219238 C-43.69580929 73.1112652 -38.24546856 64.16234119 -32.78701782 55.2170105 C-28.52604908 48.22920631 -24.35084033 41.21747565 -20.40356445 34.0480957 C-16.77818375 27.50346338 -12.91573374 21.09951288 -9.0625 14.6875 C-8.06645752 13.02908081 -8.06645752 13.02908081 -7.05029297 11.3371582 C-2.2944651 3.44169764 -2.2944651 3.44169764 0 0 Z " fill="#CA051C" transform="translate(288,89)"/>
</svg>
