<?xml version="1.0" encoding="UTF-8"?>
<svg id="Layer_1" xmlns="http://www.w3.org/2000/svg" viewBox="0 0 1280 1280">
  <defs>
    <style>
      .cls-1 {
        fill: #a38050;
      }

      .cls-2 {
        fill: #846f60;
      }

      .cls-3 {
        fill: #c92c2e;
      }

      .cls-4 {
        fill: #eaa61d;
      }

      .cls-5 {
        fill: #cdd7e1;
      }

      .cls-6 {
        fill: #1b2029;
      }

      .cls-7 {
        fill: #cb9a67;
      }

      .cls-8 {
        fill: #776c5e;
      }

      .cls-9 {
        fill: #60503c;
      }

      .cls-10 {
        fill: #f32f30;
      }

      .cls-11 {
        fill: #464240;
      }

      .cls-12 {
        fill: #30304d;
      }

      .cls-13 {
        fill: #715d41;
      }

      .cls-14 {
        fill: #4c4d74;
      }

      .cls-15 {
        fill: #5c514b;
      }

      .cls-16 {
        fill: #8d857e;
      }

      .cls-17 {
        fill: #978266;
      }

      .cls-18 {
        fill: #373d46;
      }

      .cls-19 {
        fill: #96282c;
      }

      .cls-20 {
        fill: #9da0a4;
      }

      .cls-21 {
        fill: #fdf4ec;
      }

      .cls-22 {
        fill: #8e272c;
      }

      .cls-23 {
        fill: #96764c;
      }

      .cls-24 {
        fill: #876c48;
      }

      .cls-25 {
        fill: #1b212a;
      }

      .cls-26 {
        fill: #f6f6f7;
      }

      .cls-27 {
        fill: #cc975f;
      }

      .cls-28 {
        fill: #eeefef;
      }

      .cls-29 {
        fill: #fbf0e4;
      }

      .cls-30 {
        fill: #584c40;
      }

      .cls-31 {
        fill: #4f4540;
      }

      .cls-32 {
        fill: #9d5527;
      }

      .cls-33 {
        fill: #eb2f2f;
      }

      .cls-34 {
        fill: #eaded0;
      }

      .cls-35 {
        fill: #a08570;
      }

      .cls-36 {
        fill: #473f35;
      }

      .cls-37 {
        fill: #bd7d3d;
      }

      .cls-38 {
        fill: #695845;
      }

      .cls-39 {
        fill: #fbefe1;
      }

      .cls-40 {
        fill: #e6b064;
      }

      .cls-41 {
        fill: #72767d;
      }

      .cls-42 {
        fill: #1a2029;
      }

      .cls-43 {
        fill: #bd8e5c;
      }

      .cls-44 {
        fill: #d52a2a;
      }

      .cls-45 {
        fill: #f1f2f2;
      }

      .cls-46 {
        fill: #403b36;
      }

      .cls-47 {
        fill: #fe3030;
      }

      .cls-48 {
        fill: #9e292c;
      }

      .cls-49 {
        fill: #7c4728;
      }

      .cls-50 {
        fill: #b0a59b;
      }

      .cls-51 {
        fill: #4b4742;
      }

      .cls-52 {
        fill: #867262;
      }

      .cls-53 {
        fill: #dd2d2f;
      }

      .cls-54 {
        fill: #fff;
      }

      .cls-55 {
        fill: #705e49;
      }

      .cls-56 {
        fill: #877262;
      }

      .cls-57 {
        fill: #e9d7c1;
      }

      .cls-58 {
        fill: #544839;
      }

      .cls-59 {
        fill: #bf854a;
      }

      .cls-60 {
        fill: #1b2129;
      }

      .cls-61 {
        fill: #755334;
      }

      .cls-62 {
        fill: #958274;
      }

      .cls-63 {
        fill: #5e524c;
      }

      .cls-64 {
        fill: #d42a2a;
      }

      .cls-65 {
        fill: #cfa163;
      }

      .cls-66 {
        fill: #c7a385;
      }

      .cls-67 {
        fill: #fecc2e;
      }

      .cls-68 {
        fill: #968374;
      }

      .cls-69 {
        fill: #383e47;
      }

      .cls-70 {
        fill: #bf7f3f;
      }

      .cls-71 {
        fill: #232931;
      }

      .cls-72 {
        fill: #4d4d75;
      }

      .cls-73 {
        fill: #5b242a;
      }

      .cls-74 {
        fill: #cc965c;
      }

      .cls-75 {
        fill: #1c2029;
      }

      .cls-76 {
        fill: #dca960;
      }

      .cls-77 {
        fill: #474643;
      }

      .cls-78 {
        fill: #fff7ef;
      }

      .cls-79 {
        fill: #965425;
      }

      .cls-80 {
        fill: #c8a485;
      }

      .cls-81 {
        fill: #cdd6e1;
      }

      .cls-82 {
        fill: #e2cdb2;
      }

      .cls-83 {
        fill: #c7b398;
      }

      .cls-84 {
        fill: #fafaf9;
      }

      .cls-85 {
        fill: #4f4438;
      }

      .cls-86 {
        fill: #be7d3d;
      }

      .cls-87 {
        fill: #4a3e33;
      }

      .cls-88 {
        fill: #a48763;
      }

      .cls-89 {
        fill: #4a3f33;
      }

      .cls-90 {
        fill: #4c4740;
      }

      .cls-91 {
        fill: #64543e;
      }

      .cls-92 {
        fill: #e5b063;
      }

      .cls-93 {
        fill: #958273;
      }

      .cls-94 {
        fill: #6e252b;
      }

      .cls-95 {
        fill: #ada298;
      }

      .cls-96 {
        fill: #b3282a;
      }

      .cls-97 {
        fill: #e7b164;
      }

      .cls-98 {
        fill: #1e232a;
      }

      .cls-99 {
        fill: #d2bfa6;
      }

      .cls-100 {
        fill: #b3763b;
      }

      .cls-101 {
        fill: #242a32;
      }

      .cls-102 {
        fill: #502329;
      }

      .cls-103 {
        fill: #8a7455;
      }

      .cls-104 {
        fill: #f2dfc9;
      }

      .cls-105 {
        fill: #393636;
      }

      .cls-106 {
        fill: #947755;
      }

      .cls-107 {
        fill: #ff3030;
      }

      .cls-108 {
        fill: #494037;
      }

      .cls-109 {
        fill: #a8906f;
      }

      .cls-110 {
        fill: #856a47;
      }

      .cls-111 {
        fill: #806c55;
      }

      .cls-112 {
        fill: #4f4844;
      }

      .cls-113 {
        fill: #d4dce7;
      }

      .cls-114 {
        fill: #fd3030;
      }

      .cls-115 {
        fill: #d3dce7;
      }

      .cls-116 {
        fill: #1d222b;
      }

      .cls-117 {
        fill: #b02a2d;
      }

      .cls-118 {
        fill: #ffcd2e;
      }

      .cls-119 {
        fill: #4b232a;
      }

      .cls-120 {
        fill: #c18f5a;
      }

      .cls-121 {
        fill: #6d4f33;
      }

      .cls-122 {
        fill: #4d4d74;
      }

      .cls-123 {
        fill: #fa3030;
      }

      .cls-124 {
        fill: #564c42;
      }

      .cls-125 {
        fill: #83272c;
      }

      .cls-126 {
        fill: #bd7d3e;
      }

      .cls-127 {
        fill: #fdfdfd;
      }

      .cls-128 {
        fill: #892629;
      }

      .cls-129 {
        fill: #bb7b3d;
      }
    </style>
  </defs>
  <path class="cls-42" d="M1234.66,713.96c-35.26,4.07-70.52,8.18-105.77,12.35-12.07,1.42-24.15,2.72-36.22,4.15-4.54-.17-3.11,4.71-4.44,7.69-3.63-.92-3.61-.92-3.6-3.82-.95-12.87,4.95-51.79-15.53-49.41,55.08-80.9,107.97-193.83,132.03-284.6-18.93,7.25-37.45,16.38-56.27,24.21-3.25,1.3-5.72,3.01-5.19-2.1.49-31.94-6.41-63.74-12.16-94.5,17.72-.06,35.62.12,53.36-.07-2.16-3.99-12.41-8.01-16.55-11.32-19.25-12.83-40.94-23.52-58.92-37.45,10.13-.79,21.6,1.18,30.66-1.04-31.23-25.24-65.63-52.1-105.2-61.58-9.61-.57-20.32,2.8-29.37-.66-5.79-2.78-10.92-9.09-17.7-8.46-9.19,1.24-18.41,2.29-27.6,3.46-23,2.87-45.96,6.09-68.87,9.62-18.32,2.83-36.62,5.83-54.92,8.85-1.13.27-1.56-.13-1.24-1.27,6.4-5.71,2.8-11.08-4.61-12.38-.69-.23-1.66,0-1.82-1.34,4.02-5.03,12.5-9.2,10.64-16.73,14.63-5.3,23.85-18.57,24.39-34.04,1.71-9.93-11.04,6.64-32.4-12.94,9.87-4.74,17.79-11.16,21.17-22.26,4.25-15.46,8.22-40.74-9.12-49.27-9.45,35.23-37.14,20.89-56.09,54.27-4.13-30-7.5-62.71-26.62-87.42-12.7-16.43-34.75-13.97-46.63,2.11-45.86,54.01-3.89,40.93-75.13,33.95-.22,4.24,3.11,6.94,4.13,10.92-36.67,3.7-73.32,9.68-106.89,25.78-6.47,4.86-10.53,4.68-17.81,1.8-20.36-3.71-79.33-19.66-85.53,8.74-3.07,26.77,14.36,50.92,30.2,70.85,5.63,6.77,11.56,13.28,17.96,19.33,3.7,4.13.97,10.54,2.05,15.63,1.17,6.53-7.95,8.44-5.89,15.2.08,2.06,2.59,4.69-.28,5.84-4.39,2.37-8.37,5.26-11.94,8.77-8.67,8.19.6,18.66,0,28.12.09,1.66.78,3.47,1.14,5.13.67,1.83-1.47,2.05-2.73,2.33-23.84,5.58-47.75,13.9-71.53,18.07-3.14-11.87-5.72-24.23-10.23-35.73-2.8-6.99-2.61-7.26-10.49-7.12-9.87.27-19.84,1.93-28.96,5.87-5.71,4.11.19,18.77.48,25.17.57,3.39.87,3.94-3.03,3.75-6.92-.32-13.74.49-20.36,2.58-5.51,1.74-10.7,4.21-15.63,7.21-9.23,5.79-20.62,3.23-30.78,5.96-22.85,3.75-24.19,15.52-39.82,24.91-8.89,4.21-18.85,11.41-18,22.49.08.93-.33,1.53-1.16,1.83-50.68,16.49-102.52,34.99-145.7,66.9-7.84,6.09,17.69,51.21,21.74,60.73,34.24-18.41,70.46-31.76,106.44-45.26,8.44,22.97,13.72,47.77,22.17,71.05,1.15,4.82.71,24.64-3.21,27.77-14.8,16.73-21.81,71.25-26.47,95.23-2.02,17.53,2.99,36.68,16.53,48.45,3.45,2.57,5.95,5.79,7.76,9.59,2.94,6.16,7.37,10.78,13.56,13.68,3.85,3.46-22.06,3.55-24.73,4.68-2.11.21-3.47.96-4.66,2.69-7.76,11.3-15.61,22.55-23.43,33.81-2.11.32-1.34-.92-1.04-1.91-.26-2.52,3.5-11.08-1.13-9.9-41.31,5.23-83.26,8.67-124.24,14.96,11.46,13.1,24.76,24.96,36.96,37.53,5.17,1.9-3.62,36.62-3.59,43.9-8.23,56.96-16.21,113.96-24.48,170.91-1.32,7.44-.76,5.86,5.92,5.42,24.13-2.93,48.27-5.75,72.42-8.47,2.31-.27,2.46-.44,2.78-3.01,1.39-10.62,2.41-20.55,4.14-31.24,9.79,16.15,17.5,33.28,26.5,49.89,1.25,2.42,2.79,3.94,5.47,4.82,35.63,12.08,70.95,25.56,106.65,37.21-9.49-22.55-23.05-44.3-33.85-66.63-.62-1.2-1.87-2.31-1.15-4.08,13.02-1.02,25.93-3.53,38.64-6.5,3.44-1.14,5.61.42,8.02,2.64,14.24,11.39,28.48,22.78,42.72,34.18,2.51,2.35,4.42,3.23,4.44-1.13,6.32-43.51,12.6-87.02,18.33-130.61.68-5.23,1.25-10.48,1.89-15.72-.13-2.64,2.35-2.18,4.34-2.44,3.12-.18.9,4.57,1,6.4-2.74,17.21-5.36,34.44-6.97,51.8-2.1,15.72,4.63,32.53,19.71,39.14,4.96.64-1.69,29.39-1.32,35.18-3.37,30.68-6.59,61.37-10.05,92.04-1.83,16.69-3.67,33.38-5.41,50.08.15,2.34,3.14.35,4.41.2,113.83-34.64,225.17-78.59,329.39-136.26,18.84-5.68,39.24-7.69,57.38-16.41,9.44-3.79,13.35-13.89,14.19-23.31.17-2.66,1.49-3.92,3.47-5.18,14.92-9.04,28.81-19.99,43.63-28.92,10.8,8.39,21.45,17.13,32.18,25.63,1.06.57,2.81,3.11,3.83,1.55,3.34-19.5,5.61-39.25,8.59-58.83.47-4.16,10.37-10.67,14.02-12.75,2.1,3.5-5.79,26.53-1.29,26.43,9.59-.56,19.53-3.47,28.92-2.74-2.73,9.7-7.02,20.08-1.66,29.74,2.28.41-7.59,14.09-9.35,12.5-12.26.21-15.21,9.33-23.52,14.76-10.88,3.85-18.38,11.3-22.69,21.96-4.68,11.65-4.72,24.59-2.96,36.87.54,3.04-.07,3.19-2.19,3.87-205.41,69.04-417.44,115.87-630.07,156.44-.1,1.55,1,1.84,1.72,2.35,6.6,4.79,13.44,9.24,20.46,13.39,19.27,10.65,39.82,21.83,61.76,24.95,174.63-27.91,345.51-74.96,513.77-128.78,12.94-4.13,25.85-8.32,38.78-12.48,3.36-1.08,3.4-1.08,5.06,2.19,2.17,4.28,4.43,8.51,7.07,12.52,7.82,15.6,33.34,26.52,42.14,6.98,2.15-4.48,3.51-9.27,4.26-14.18,0-.85,1.03-.67,1.41-.3,13.33,23.38,42.79,14.52,56.45-3.75,1.1-1.33,2.18-2.02,4.04-1.84,17.85,1.42,26.72-16.62,49.55-16.72,21.54-2.08,22.18-52.12,21.79-68.76.76-4.55-4.38-10.26-1.8-13.49,8.77-10.72,11.65-25.19,11.5-38.76.14-9.3,3.6-18.13,4.39-27.39.52-3.48-.7-7.18.64-10.43,3.48-6.39,7.63-12.58,10.15-19.52.58-1.34,1.36-2,2.82-2.12,8.41-.98,16.84-1.96,25.25-2.92,4.51-.1,1.5-5.24,3.84-7.8,14.26,6.98,30.17,4.28,45.22,2.09,4.4-2.42-1.14,27.74-.4,31.62,25.85-13.87,50.31-31.39,75.71-46.5,5.25-1.79,4.52-7.19,5.37-11.73,5.04-34.16,9.86-68.35,14.9-102.51,2.64-18.35,5.39-36.69,7.86-55.07.21-1.61-.21-2-1.87-1.82ZM303.81,822.26c-20.82,4.19-43.08,2.54-63.15,9.98-15.8,6.29-22.64,22.19-26.59,37.62-4.36,11.49-1.25,10.3,6.2,18.25,1.29,1.15-.18,2.22-1.07,3-12.06,10.26-12.66,25.84-15.98,40.2-9.57-13.66-15.91-30.49-24.43-45.21-.86-1.64-.79-2.89.38-4.32,29.88-42.32,59.26-85,89.26-127.25,8.09,24.4,20.81,46.73,35.39,67.72Z"/>
  <path class="cls-41" d="M169.83,764.73c-1.26,3.33-2.87-.56-1.04-1.91.38.61.04,1.63,1.04,1.91Z"/>
  <path class="cls-20" d="M832.41,229.3c-1.64,1.93-4.01-.41-1.24-1.27.14.69.74.94,1.24,1.27Z"/>
  <path class="cls-107" d="M803.35,347.35c22.92-33.82-2.3-20.46,13.07-45.83.71-1.43,1.85-2.05,3.42-2.23,8.73-.99,17.45-2.05,26.18-3.07,30.93-3.75,61.96-6.69,93.01-9.31,85.06-4.29,53.03-15.15,125.55,29.56,2.53,1.7,5.56,2.76,6.17,6.16,3.21,12.04,6.83,23.96,9.39,36.17,6.24,28.97,7.59,58.66,7.5,88.2.15,19.18.09,38.39.91,57.55.81,4.06,19.58-8.92,21.97-7.01-18.18,46.23-42.55,90.64-68.77,133.03-.51.81-1.47.77-1.87-.04-4.41-9.91-9.19-19.78-16.08-28.25,18.87-20.95,21.67-51.43,12.02-77.38-3.85-11.54-8.47-22.77-14.18-33.53-1.32-2.49-1.88-5.03-1.9-7.81-1.17-22.2,3.23-111.09-12.49-122.41-14.68-9.1-29.38-18.16-44.03-27.31-2.28-1.42-4.4-1.89-7.17-1.45-21.66,3.13-43.38,5.87-64.97,9.44-15.22,1.53-30.65,6.94-45.8,6.41-14.78-5.07-26.99-5.47-41.93-.93Z"/>
  <path class="cls-104" d="M602.7,552.54c2.52-26.66,6.53-53.57,12.59-79.59,55.21,9.14,108.55-45.85,151.09-74.74,6.87-3.44,4.43-4.04,11.93.34,11.23,6.57,19.55,16.77,28.15,26.32.24,1-.14,1.37-1.14,1.14-9.45-1.1-19.54-1.93-28.68.97,18.1,19.81,28.18,44.22,34.99,69.72.76,2.8,2.83,6.49.18,8.51-2.09,1.6-4.91-1.36-7.29-2.5-4.91-2.34-9.9-4.37-15.19-5.38-1.31,1.48-.18,2.58.25,3.64,5.59,14.4,7.83,29.87,5.99,45.18-1.07,4.22-2.18,4.86-6.01,2.95-11.92-6.38-25.61-6.67-38.51-8.43,10.1,2.61,27.26,15.17,23.14,27.3-5.62,14.38-14.01,26.58-27.83,34.27-22.03,14.07-44.66-4.38-67.69-5.28-14.53-1.3-29.04-1.42-43.52.6-25.98,5.18-35.52-24.26-32.47-45.01Z"/>
  <path class="cls-12" d="M441.5,562.26c-2.08,3.74-.34,8.93-.92,13.17-.72,8.71-.85,17.48-1.9,26.17-2.77,27.79-7.46,56.51-17.95,82.55-.02-12.84.56-25.72,1.32-38.61,1.21-5.86-.23-11.76-.64-17.62-.38-7.16.8-14.47-.75-21.51-2.17-26.5-5.81-54.96-15.32-79.59-.18,35.02,1.7,70.51-.26,105.63-.52,37.25-4.82,74.13-8.57,111.18,2.87.3,8.96-8.08,11.57-10.25,6.87-7.76,13.42-15.82,18.7-24.76,3.83-5.44,5.26-13.2,9.51-17.93-.69,15.87-4.74,32.23-11.71,46.8-6.24,11.52-8.99,24.29-8.09,37.36-.24,1.76-2.11.87-2.85-.06-10.76-9.15-20.09-19.06-31.22-27.87-4.73,18.47-3.99,38.56-9.16,56.87-7.09,9.15-19.3,10.9-27.02,19.31-5.14,5.07-3.23,4.63-9.5,1.54-3.05-1.5-6.32-2.2-9.56-3.01-7.49-3.93-11.15-13.04-15.51-19.97-3.01-6.54-7.64-13.62-7.93-20.75,6.06,4.87,11.07,14.71,19.92,15.13,12.07-2.31,18.75-15.43,21.03-26.58.5-2.57,3.54-13.93,6.77-12.04,1.08,5.47,2.43,11.87,1.41,17.45-.27,1.71-1.96,8.83,1.29,7.17,19.04-18.85,20.44-47.61,23.7-72.71,7.82-77.23-17.91-159.22,15.62-232.45,1.92-.13,2.83,2.08,2.93,3.71.57,11.91,3.41,23.62,7.04,34.89,3.76-2.66,4.86-16.16,6.46-21.16,1.52-5.75,4.19-27.51,8.89-29.03,6.28,13.59,9.11,28.24,13.62,42.56,3.16-6.11,2.34-12.89,2.53-19.5.97-.4,1.35.15,1.7.67,6.87,9.26,8.95,21.43,13.53,31.29,1.11-18.57-.99-69.67-20.02-80.04-6.62-1.54,15.44-34.18,18.18-38.46,1.8-2.68,4.36-4.66,6.53-7,4.45-5.55,30.2-22.12,31.75-9.16-15.77,7.29-21.92,21.52-26.28,36.88-1.22,4.3,0,8.22,3.2,11.9,9.19,11.67,21.24,23.21,26.15,37.22,4.02,15.52,7.72,31.12,12.32,46.47-.21,72.37-7.91,88.36,36.05,152.43,1.35,1.98,3.64,3.81,2.46,6.79-22.83-22.02-45.84-47.51-55.13-78.51-5.23-20.84-4.03-42.28-6.42-63.48-2.59-19.18-5.83-42.08-13.44-58.53-.29,32.26-1.77,65.01-5.33,97.28-.67,2.39-.04,8.54-2.9,8.97-1.69-.02-2.07-2.22-2.48-3.74-4.15-15.13-8.17-28.48-17.32-41.95,2.43,8.31,1.55,16.01,4.41,23.07.25.63.02,1.25-.39,1.78Z"/>
  <path class="cls-54" d="M125.98,917.2c-4.23,25.8-6.47,51.61-10.09,77.48-.43,1.75-.06,4.32-2.53,4.42-12.22,1.46-24.45,2.93-36.68,4.28-1.28.14-1.83-.36-1.66-1.58,2.49-17.4,5.01-34.8,7.52-52.21,6.14-42.24,12.06-84.5,18.18-126.74,4.17-26.48,5.35-19.45-13.19-38.33-1.61-1.08-.88-2.76,1.08-2.38,18.73-2.22,37.47-4.45,56.21-6.59,1.56-.18,2.05.34,1.83,1.9-2.87,22.56-7.08,44.96-9.31,67.54,23.23-30.39,44.38-63.37,66.71-94.76,2.57-5.84,38.9-5.96,47.84-8.16-30.67,47.15-65.01,92.77-96.8,139.49,24.21,52.75,54.59,104.77,80.65,157.37-17.72-3.79-35.36-12.46-53.1-17.75-22.58-31.41-36.4-70.25-56.65-103.96Z"/>
  <path class="cls-86" d="M931.23,593.78h19.05c-9.06,9.32-38.79.3-49.85-4.69,5.63-27.92-12.77-51.85-27.44-73.46-3.02-3.05-1.16-6.26,2.96-4.39,9.53,2.54,17.28,8.04,24.65,15.29-8.29-28.15-24.23-46.26-48.04-60.84,5.58-6.89,23.71,2.57,29.65,6.91-19.17-28.25-44.62-53.01-77-64.8-8.49-7.26-13.76-11.54-24.86-15.89-.1-1.02.7-1.25,1.38-1.59,11.42-5.75,23.03-11.1,34.76-16.2,21.25-10.44,53.52,12.94,72.88,22.69,47.43,8.29,78.84,40.04,99.59,82.32,16.24,19.61,27.37,43.12,31.1,68.48.18,6.47,3.34,16.49-3.02,20.64-1.88.8-3.16.59-4.05-1.13-3.73-8.65-6.64-17.65-11.5-25.8-5.31-9.28-11.72-17.53-20.86-23.37-9.11-13.28-18.89-26.16-29.56-38.27-11.63-13.32-32.82-32.97,1.66-15.83-16.1-32.55-51.21-53.98-85.88-56.36,15.21,5.28,46.02,21.35,50.98,38.98-1.55,2.68-4.38.46-6.49-.1-6.83-1.83-13.8-2.64-20.28-3.26,17.54,7.17,51.37,39.91,56.09,57.63-3.32,1.87-12.57-3.88-17.91-2.69,39.4,18.7,55.45,62.12,61.31,102.54-24.32,15.68-.17-50.61-47.23-81.72,10.18,15.38,16.08,34.58,16.96,53.16-1.42,12.74-21.73,16.23-31.86,20.05-.33,2.69,2.26.51,2.83,1.7Z"/>
  <path class="cls-97" d="M520.21,364.17c-9.61-8.34-12.89-21.6-23.68-28.92-3.76-2.87-5.98-6.94-7.92-11.16-4.82-10.27-5.46-21.21-5.18-32.31.19-7.74,1.27-8.47,7.94-4.56,1-7.17-7.05-24.54,7.13-18-2.28-4.84-10.28-21.05-.24-19.11,22.62,1.74,45.38,1.74,68.03.8,38.45-1.78,76.85-6.02,114.23-15.37,4.87-1.15,4.57-.55,6.43,3.18,1.07,3.24-4.78,3.87-6.7,5.53-11.96,6.2-10.89,27.11-11.4,38.74,10.2-4.56,21.88-6.44,32.07-11.49,4.63-.75,9.13,18.69,11.41,22.85.98,1.04,1.7,2.72,1.19,4.04.42-9.21-.94-19.44-2.9-28.81-.63-2.82-.23-5.14,1.17-7.71,5.98-11.51,10.97-23.7,15.17-35.94-.97-.78-1.67-.19-2.37.07-7.93,2.93-15.85,5.86-23.78,8.8-3.08,1.61-5.61,1.86-6.43-2.3,32.8-9.61,65.81-19.06,97.42-32.41,7.45.9,17.68,25.9,14.01,32.68-4.52,1.15-5.69-2.23-6.18-5.28-.86-5.32-3.01-9.99-5.51-14.65-2.89-5.38-3.7-5.82-9.34-3.88-14.81,5.21-29.2,11.98-44.31,16.23-5.4.13-7.97,3.18-9.87,7.93-4.08,12.71-12.31,24.64-14.13,37.8.21,5.74,1.6,11.44.71,17.23,2.82,5.53,2.79,11.07-3.63,14.4-2.46-.82-2.2-3.71-3.98-5.29-10.84,12.23-25.26,17.89-40.42,22.18-8.28,3.26-3.8-5.57-5.52-10.18-6.14,9.04-9.28,20.82-18.2,27.28-6.38,1.06-12.89.07-19.29,1.59-4.17.99-7.75,3.58-12.06,3.95-8.86-5.11-9.64-17.59-12.05-26.66-1.83,2.5-2.13,2.46-2.56,6.08-.99,13.02-32.98-3.95-39.01-6.97-1.65,3.61,2.11,7.26.15,10.32-8.5.69-25.86-19.25-29.67-26.61.88,11.34,6.59,22.6,9.79,33.34-2.6,3.66-19.79-12.79-23.71-14.87-.64.69.55.48.44.91,3.89,10.69,9.95,19.99,17.88,28.1,1.13,1.16,3.18,2.41,1.89,4.35-5.61,2.86-15.37-4.07-21.84-6.87,6.47,10.55,14.94,15.54,24.63,21.54,1.16.75,2.81,1.67,2.18,3.28-4.75,2.64-16.52-2.39-21.96-3.86Z"/>
  <path class="cls-80" d="M602.7,552.54c.11,16.11,2.69,38.55,20.97,43.62,8.2,2.1,16.39-1.53,24.66-1.3,19.01-.46,38.12-.02,56.27,6.24,29.61,14.65,56.37-3.64,67.91-31.77,5.43-12.89-10.44-22.68-20.37-27.44-1.12-.78-2.88-.25-3.33-1.77,14.57.09,30.11,1.32,42.96,8.81,1.18.76,1.81.51,2.08-.71,2.84-17.08-.1-35.11-7.33-50.83-1.4-6.26,22.32,6.05,24.97,7.52.16-8.16-3.8-17.06-6.27-25.11-5.36-17.04-14.99-32.18-23.81-47.24,25.9,24.5,39.77,58.93,50.98,92.14,1.53,4.21-13.46-6.93-19.93-4.65,4.56,16.92,6.12,34.39,5.56,51.84-1.31,1.03-2.12.18-2.92-.14-4.81-1.89-9.78-2.96-14.96-2.79-8.75-.55-7.26,6.31-10.14,11.99-10.17,20.55-27.74,41.7-52.29,42.95-9.85.88-18.32-4.91-27.26-8.08-10.76-4.2-21.96-6.71-33.33-8.6-19.84-3.06-40.5-2.89-59.78,3.11-2.94,3.15,15.99-.42,18.25,1.66-1.45,1.8-3.3,1.03-3.98.93,27.1,11.56,53.94,30.31,70.95,55.43,12.59,16.75,33.69-.71,45.53-9.78,5.01-3.95,9.57-8.42,14.16-12.84,4.87-2.64,10.06-4.79,14.54-8.17,1,.73.35,1.41.07,2.05-3.04,8.22-12.32,13.26-11.88,22.77,1.11.62,1.7-.09,2.32-.47,2.34-1.5,18.09-8.57,18.61-5.24-4.7,11.92,4.73,30.8-11.07,36.34-1.91-3.69,6.61-24.46-3.03-21.55-9.65,3.86-20.19,5.87-26.89,15.42-6.45,9.19-14.37,17.18-24.61,22.4-7.96,4.19-6.59,28.54-13.29,38.14-4.8,10.35,12.89,10.29,19.11,8.73,19.04-4.48,37.78-19.41,37.71-40.27.24-2.01-.44-4.21,1.28-5.9,4.35,5.24,10.6,11.23,8.7,18.68-3.57,10.49-8.71,22.09-17.12,29.41-16.43,8.31-53.91,19.84-69.43,7.41-11.08-12.22-6.06-4.89,3.45-17.64,9.53-11.92,13.74-26.9,13.91-42-.03-2.38.17-2.62,2.65-3.15,17.46-2.62,31.13-15.49,34.48-32.67-4.87,2.94-8.46,8.14-13.6,11.08-7.61,5.01-19.61,8.49-27.21,1.88-17.36-26.59-37.1-48.01-71.88-43.82-.53.45-1.14.44-1.78.3,48.18,13.33,73.88,43.48,50.85,92.99-2.26,6.61-16.34,17.02-21.86,9.91-10.69-18.06-22.52-35.96-30.54-55.31,4.74-3.48,20.38,3.3,26.05,5.24,7.06,4.74,28.62,7.56,20.81-6.75-14.06-21.49-38.76-35.57-64.04-38.89-11.26-29.9-9.62-62.99-5.85-94.15Z"/>
  <path class="cls-97" d="M672.92,109.11c14.85-18.19,30.1-36.67,48.96-50.89,8.38-5.97,15.79-5.45,23.34,1.35.85,1.07,2.37,1.89,1.4,3.66-5.76,1.44-8.3-2.2-14.13,3.29-16.22,15.42-29.16,35.46-39.02,54.69-.96,1.38,2.05-1.05,2.48-1.28,5.03-2.08,13.28-9.36,15.1-.37,1.36,3.32,1.64,7.66,6.18,8.87,17.13-3.51,11.5,4.42,15.31,16.63.27,1.21.68,2.38,1.11,3.55.28,2.43,4.43,4.49.72,7.31-36.7,10.61-75.12,13.35-112.94,17.62-37.75,4.8-75.89,4.61-113.59,9.57-1.05.41-2.39.9-2.83-.45,1.38-3.69,13.44-3.77,17.36-4.76,2.68-.45,7.28,1.46,8.65-.76,1.21-5.11-5.78-11.16-8.54-15.39-5.55-7.87,11.54-9.76,16.45-9.62-.03-.02.33-.15.33-.15-21.19-14.07-47.03-17.5-71.61-19.51-3.35-6.07,52.99-1.12,59.44-1.98,4.74.58,9.49,1.16,14.23,1.75,1.12.15,2.62,1.43,2.86-.98-3.47-1.61-6.95-3.22-10.42-4.83-.4-.19-.98-.38-.74-.94,9.59-4.58,20.85-7,31.27-9.82,21.86-10.21,45.92-11.93,69.71-14.97,14.08-1.14,28.65-4.5,42.6-3.2-2.57,5.32-4.81,10.99-7.64,16.15.02-.03-.3.13-.3.13,1.78-1.09,1.89-4.09,4.27-4.66Z"/>
  <path class="cls-107" d="M497.48,982.01c11.54-2.84,21.36-11.2,33.48-11.78,5.51.75,10.58,3.57,16.19,4.2,4.04,1.1,8.55-.37,11.73,2.9,12.43,9.54,24.06,20.26,36.99,29.04,12.18-53.67-8.48-41.93,40.32-48.46,3.24-.49,2.04,3.66,2.3,5.6-.24,8.01.33,15.99.98,23.96,3.28,6-41.2,23.02-47.66,27.44-56.13,25.08-116.7,54.45-174.25,69.24,3.14-33.24,7.38-66.4,10.66-99.63-2.16-4.43,25.89-4.38,29.85-5.74,12.7-1.46,25.37-3.16,38.08-4.53,3.65.26.16,5.11,1.32,7.77Z"/>
  <path class="cls-54" d="M581.44,968.81c-10.13-5.48-18.66-14.67-28.13-21.61-2.19-1.8-4.23-2.3-6.98-1.63-17.68,3.43-36.15,10.24-54.23,7.13-13.48-2.83-11.7-18.51-10.74-29.14,1.35-11.76,4.42-23.2,6.24-34.89,2.53-17.09,16.89-19.09,30.69-21.92.42-.99-.47-1.41-.96-1.95-6.53-6.58-13.03-13.2-19.7-19.64-4.02-3.94.76-9.22,1.69-13.58,6.73-19.68,43.44-14.89,61.07-18.89,49.07-9.1,40.02,12.92,35.74,49.94-4.48,35.45-9.57,70.82-14.7,106.19Z"/>
  <path class="cls-54" d="M830.08,939.99c-49.19-36.57-15.23-21.48-78.78-15.45-30.61,3.55-21.1-31.95-17.59-50.44,3.87-25.94,6.92-32.16,33.69-36.43-5.4-7.59-13.78-13.76-20.19-20.86-1.1-1.26-3.08-2.39-2.4-4.31,2.35-8.76,5.81-18.61,15.2-21.86,12.17-4.01,25.26-3.78,37.85-5.69,14-.59,29.1-6.43,42.62-1.04,11.74,5.4,7.75,19.54,6.86,29.76-1.1,10.49-2.33,20.97-3.68,31.43-4.55,31.62-8.42,63.37-13.56,94.89Z"/>
  <path class="cls-54" d="M256.93,897.02c-6.15-7.45-13.77-13.8-20.42-20.88-2.73-2.74-2.76-2.77-1.48-6.63,2.49-8.83,6.77-17.78,16.47-20.03,14.91-3.57,30.41-3.97,45.57-6.08,11.25-.63,23.91-5.2,34.31.88,7.6,4.18,7.1,13.1,6.29,20.6-1.71,14.92-3.41,29.85-5.33,44.74-4.11,29.87-7.81,59.85-12.68,89.6-1.3.46-1.85-.52-2.52-1.05-8.51-6.76-16.99-13.57-25.49-20.34-3.95-3.15-2.44-2.64-7.32-1.57-9.52,2.07-18.98,4.4-28.61,5.93-21.84,4.16-40.21,3.91-36.42-24.16,1.43-14.47,4.72-28.68,7.63-42.89,3.94-14.37,18.37-14.89,30.02-18.11Z"/>
  <path class="cls-5" d="M241.81,1212.23c-.78-.48-2.52-1.28-1.44-2.26,21.58-4.93,43.58-8.51,65.28-13.11,123.9-24.92,247.21-53.09,368.89-87.31,59.58-16.59,118.55-35.2,177.2-54.76,1.28-.17,1.3,1.66,1.44,2.57.91,9.07,1.81,18.14,2.69,27.21.11,1.09-.19,1.92-1.54,1.8-6.43-6.52-13.65-8.31-22.71-5.52-23.84,7.35-47.62,14.88-71.46,22.24-154.25,46.63-309.79,92.58-469.9,113.93-16.37,2.06-32.48-1.72-48.48-4.79Z"/>
  <path class="cls-54" d="M1155.78,894.34c-.11-7.18,1.37-13.46,1.01-20.03-19.86,3.62-72.55,23.5-66.02-14.15,4.05-35.74,9.73-71.25,15.1-106.81.81-5.43,1.17-4.45,5.3-4.93,9.69-1.11,19.37-2.29,29.05-3.44,1.86-.22,2.29.16,2.04,2.09-2.16,15.84-4.44,31.65-6.64,47.48-2.51,17.88-5.03,35.77-7.53,53.65-.17,1.15-.4,3.07,1.32,2.84,10-1.17,20-2.38,30-3.59,1.94-.24,2.01-.28,2.33-2.31,4.61-30.34,8.91-60.72,13.29-91.09,1.33-3.5-.04-12.46,3.77-13.48,41.31-2.92,35.65-13.56,31.27,19.71-5.2,36.06-10.44,72.13-15.69,108.18-1.59,5.15-8.61,6.34-12.45,9.7-8.83,5.39-17.14,10.96-26.14,16.16Z"/>
  <path class="cls-54" d="M598.51,808.19c19.35-2.25,36.78-4.18,55.31-6.44,1.52-.19,3.04-.86,4.18,1.04.51.86,1.8.36,2.71.19,5.5-1.04,10.99-2.08,16.47-3.2,46.85-9.44,52.74-5.02,44.1,42.4-4.09,28.31-8.79,56.54-12.9,84.85-.32,2.26-.46,2.46-2.59,2.72-5.87.7-11.75,1.35-17.63,2.04-2.69-.45-18.01,4.13-16.59-.05,4.01-28.17,8.3-56.29,12.39-84.45.88-6.01,1.73-12.02,2.57-18.04.94-2.33-1.78-2.4-3.36-1.97-9.52,1.16-19.1,1.98-28.57,3.41-3.51,1.69-2.33,11.85-3.68,15.72-4.25,29.75-8.38,59.52-12.58,89.27-.4,4.27-27.18,4.07-32.6,5.71-4.55.84-.37-9.5-.85-12.15,3.26-24.89,6.49-49.77,9.54-74.69,4.09-33.4,7.36-22.54-15.94-46.36Z"/>
  <path class="cls-54" d="M1085.11,772.02c-3.09,30.71-8.72,61.08-13.23,91.6-1.12,7.26-2.2,14.54-3.33,21.8-.31,2-.36,2.01-2.41,2.25-10.32,1.23-20.63,2.46-30.95,3.67-1,.03-3.12.68-3.29-.77,4.47-34.52,10.28-68.91,15.08-103.41,2.55-4.9-18.59.72-21.55.23-3.64,1.18-9.83-.45-12.08,2.75-3.83,25.27-7.09,50.65-10.85,75.94-1.13,8.07-2.28,16.15-3.33,24.22-1.18,5.82.26,5.16-5.94,5.91-8.25.98-16.5,1.99-24.77,2.89-5,.39-4.9.84-4.2-4.22,4.12-31.38,8.09-62.78,12.03-94.18-.27-5.95,4.41-13.5-.8-18.09-5.24-5.26-11.29-10.17-15.88-15.88,14.17-3.67,30.79-3.55,45.76-5.93,4.17.24,9.3-2.7,12.88-.17,18.16,1.48,68.43-23.01,66.87,11.38Z"/>
  <path class="cls-97" d="M713.23,302.07c3.08-.27.92-4.07,3.87-5.13,3.56-2.16.57-6.65-2.57-7.99,3.18-4.03,4.09-6.03-.36-8.37,4.65-4.96-2.03-11.67,3.04-18.27,1.4-2.45,2.85-4.97,2.14-8.05-.17-.75.59-1.05,1.1-1.4,4.42-4.78,5.09-12.32,8.04-18.12.85-2.6,2.86-4.5,3.15-7.38.37-2,1.54-2.55,3.82-2.52,8.58-.69,16.08-5.82,24.54-7.37,4.23-1.24,8.24-3.46,12.24-5.01,2.22-3.68,6.2-1.77,9.37-3.6,10.45-4.4,10.26-3.43,14.96,6.35,5.63,4.87,1.03,15.2,8.89,17.7,1.18-2.84,5.75-12.61,6.83-4.37.22,3.38-.79,6.63-1.25,9.94-.26,1.86-1.64,3.81,2.03,4.3,2.35.31,2.21,3.24,2.18,5.28.02,10.1-2.82,19.73-5.36,29.41-.72,2.41-.34,4.51,1.77,5.96,4.77,3.68-5.1,14.92-6.47,19.63-3.02,4.99-3.45,10.88-6.54,15.88-1.77,3.07-1.54,6.33,1.27,8.72,4.64,5.03-4.87,15.56-9.26,18.61-8.96,5.9-17.26,13.1-26.91,17.75-3.8,1.42-18.4,4.76-20.71,2.06.25-3.51,5.52-4.23,7.78-6.42,6.1-4.43,11.54-9.53,15.79-15.79-3.08,3.66-37.95,10.97-30.13.45,8.43-13.02,12.3-28.18,13.15-43.62-1.19,3.6-18.48,21.93-16.54,10.11,2.96-11.24,3.62-23.32,3.35-34.7,0,5.36-16.91,34.91-22.34,32.3-1.99-1.32-2.65-3.91-.89-6.32Z"/>
  <path class="cls-107" d="M523.15,194.54c34.99-4.78,70.16-7.84,105.45-9.77,32.89-3.4,65.56-8.98,97.99-15.23,13.04-2.89,32.83-1.05,36.38,14.57.61,6.41,7.01,19.09-2.78,20.74-23.71,7.66-47.67,14.52-71.7,21.06-2.1.51-2.68.17-2.93-1.85-1.52-12.68-3.11-25.36-4.9-38.01-.34-3.95-5.72-.85-8.16-.93-.11.85.27,1.33.72,1.79,1.78,2-.46,4.58-.93,6.72-3.03,8.42-6.06,16.83-9.08,25.25-.22.98-1.47,2.94.09,3.27,5.38.43,6.2-2.12,7.51-6.63.33-.98.84-1.6,1.93-1.86,5.11-1.24,5.34-1.15,5.91,4.05.18,3.8,3.83,5.59,5.34,8.82-52.55,16.6-108.93,17.97-163.72,16.93-14.7-11.78-13.82-39.78,2.88-48.92Z"/>
  <path class="cls-54" d="M894.91,688.24c16-2.2,31.01-3.71,46.9-5.65,3.08.48,20.47-4.59,18.84,0-10.61,71.91-20.98,143.86-31.43,215.79.07,8.23-5.34,5.45-11.31,6.82-9.2,1.11-18.4,2.23-27.6,3.34-1.94.23-2.41-.2-2.15-2.02,5.08-35.1,10.12-70.2,15.12-105.31,4.09-28.46,8.08-56.94,12.23-85.39.96-6.41,1.01-6.41-3.47-10.79-5.87-5.79-11.3-10.77-17.12-16.8Z"/>
  <path class="cls-54" d="M477.45,955.77c-18.58,3.86-39.03,4.56-58.22,7.39-19.55,2.05-50.6,10.4-45.61-20.83,2.43-26.74,7.94-53.12,11.25-79.72-.3-1.61-2.63-.65-3.78-.75-12.83,1.49-25.67,3.14-38.51,4.48,8.01-10.9,20.19-19.72,29.55-29.96,3.64-5.11,17.23-.44,18.38-6,2-14.29,3.92-28.72,6.01-42.98,10.81,6.95,19.75,17.96,29.98,26.24,5.22,2.63-3.49,15.39,3.03,14.32,16.81-1.74,33.57-4.42,50.41-5.73.36,1.18-.48,1.56-1.02,2.07-9.75,9.24-19.53,18.45-29.26,27.71-6.9,4.86-16.91,2.94-24.99,4.82-2.71.3-2.41.82-2.67,2.55-.87,5.69-1.7,11.38-2.53,17.07-2.75,18.98-5.54,37.95-8.17,56.94-1.64,4.16,15.39-.52,18.04-.14,1.66-.22,3.12-.12,4.62.62,14.26,7.54,29.88,13.7,43.47,21.89Z"/>
  <path class="cls-54" d="M241.81,1212.23c1.7-2.31,4.92-.25,7.16-.03,12.34,2.51,24.85,4.34,37.43,3.78,36.45-3.55,72.56-10.93,108.59-17.91,90.09-17.24,178.56-41.63,266.68-66.83,32.83-9.77,65.75-19.26,98.43-29.57,25.44-7.83,50.68-16.31,76.36-23.31,7.32-2.33,19.48,4.58,17.88,8.01-172.4,57.13-347.42,107.96-526.4,139.9-14.29,2.2-28.65,5.75-43.01,6.71-15.79-3.78-30.91-9.75-43.13-20.75Z"/>
  <path class="cls-72" d="M540.5,677.35c-17.6-29.22-40.82-59.49-40.37-95.38.1-14.39-.61-28.79.89-43.05.02-5.75,0-11.51.03-17.26,0-1.24-.32-2.6.93-3.53,26.42,97.65,87.83,182.6,142.02,264.81-25.65-3.12-50.71-25.48-70.05-41.73-1.19-1.1-3.19-1.97-1.81-4.22,10.97-.22,21.74.7,32.44-2.4-17.76-3.58-33.95-6.66-50.93-11.65-7.03-.65-10.69-7.27-14.41-12.33-1.72-2.91-29.02-36.6-19.91-34.21,8.11,2.28,16.54,5.93,25.01,5.64-.13-1.88-2.74-3.09-3.84-4.68Z"/>
  <path class="cls-97" d="M805.2,407.81c1.05-1.77,3.3-.12,4.74.28,30.85,13.71,57.66,37.96,74.79,66.79-.74.68-1.1-.16-1.59-.4-4.36-2.65-8.6-5.43-13.38-7.36-5.44-1.39-11.46-4.39-16.74-1.28,24.76,11.33,44.15,37.02,48.62,63.23-8.1-8.02-17.42-15.47-29.02-17.4-.77,1.01.02,1.83.55,2.43,4.72,5.26,8.36,11.3,12.03,17.26,8.29,14.8,24.37,41.17,15.23,57.72-21.55-7.07-40.28-19.93-56.66-35.49-.2-2.89,2.77.45,4.11.33.33-40.24-17.96-80.52-43.11-111.92-9.19-8.12,20.34-2.55,23.52-1.73.63-1.38-.11-2.09-.54-2.86-6.05-10.99-13.79-20.68-22.56-29.62Z"/>
  <path class="cls-80" d="M747.67,322.13c-3.68,6.97-8.06,13.62-11.72,20.63-2.54,5.36-4.7,10.79-5.48,16.74-1.29,9.79-6.08,18.4-9.89,27.87,9.28-2,17.24-5.96,24.66-11.19,1.9-1.34,3.5-3.38,6.23-3.09,2.58,3.06,12.37.01,16.63.87-24.4,26.55-84.96,55.1-122,58.43-36.08,2.6-77.09-26.58-103.94-48.62.99-1.06,2.07-.63,3.05-.09,11.15,6.09,23.24,9.68,35.71,13.38-25.33-17.18-32.88-47.42-54.21-68.2-1.4-1.6-3.71-2.8-2.86-5.58,1.7-.94,2.49.54,3.54,1.33,9.42,7.19,17.69,16.01,26.82,23.45,3.42,3.23,7.77,6.26,8.72,11.81.78,4.55,5.31,6.95,7.28,11.45,1.82-2.34-.97-4.63,1.15-6.16,4.19,1.09,8.39,2.15,12.42,3.78,5.41,9.98,9.21,22.04,20.64,26.83,8.42,1.34,9.77,10.67,13.52,7.54,4.54-3.21,10.28-3.35,15.11-5.79,14.41-8.93,32.04-6.05,48.04-5.31,7.56.22,12.09-2.71,14.9-9.4,1.94-4.62,5.03-8.46,8.58-12.01,6.61-6.62,11.12-14.8,16.19-22.53,5.75-9.1,17.3-6.4,14.23-20.21,3.78-2.92,6.87-7.31,12.66-5.93Z"/>
  <path class="cls-72" d="M393.46,476.88c-15.53,45.61-20.7,93.99-14.32,141.51.37,10.8,1.38,21.58,1.01,32.48.69,10.61,1.63,21.29,0,31.9-.13,25.82-2.73,85.5-26.02,99.27,12.33-17.67,18.59-38.4,15.53-59.87,2.22,1.77,2.41,4.42,4.04,6.1,1.17-34.45-14.75-66.72-20.53-100.25-5.25-33.59-11.43-69.86,1.53-102.42,8.51-18.47,19.15-39.29,37.91-48.76.28,0,.55,0,.83.03Z"/>
  <path class="cls-97" d="M1002.22,1012.53c2.85-.2,8.18-4.54,9.94-1.46,5.36,18.68,1.74,39.64-4.24,57.78-3.63,10.16-25.36,3-39.72,16.57-6.56,7.49-14.71-1.27-21.4,5.99-6.61,5.34-13.96,2.53-19.98-1.18-5.99-3.49-9.05-9.36-8.08-16.2,1.7-10.56,1.11-21.44,3.88-31.79,2.81-9.5,8.04-14.16,17.83-14.58,20.49-.88,39.4-8.73,58.82-14.31l-.03.02c.87-.72,2.12-.05,2.97-.84Z"/>
  <path class="cls-97" d="M234.23,400.93c-6.48-8.8-10.09-19.19-11.94-29.94-1.48-8.25,7.73-11.38,13.59-14.41,4.41-2.03,8.12-5.08,11.31-8.7,11.63-14.3,31.29-13.02,47.78-15.79,10.54-2.47,32.5-19.54,41.8-8.24,7.66,11.67,12.53,25.74,15.11,39.27-36.63,3.78-25.19,12.42-40.99-9.01-2.22,3.01-1.26,6.49-1.57,9.77,1.82,12.91-9.16,7.89-18.01,19.25-1.3-.18-1.66-1.16-2.07-1.97-3.44-6.34-5.98-13.26-9.94-19.2-2.49,13.08,3.78,30.11-10.43,38.06-8.39,8.57-16.29-24.04-17.53-29.68-3.63-3.65-5.43,14.97-5.42,17.25.41,6.03-4.58,15.6-11.7,13.35Z"/>
  <path class="cls-54" d="M1097.45,263.53c.29-.01.5.11.63.36-1.16,2.58-3.24,1.48-4.88.99-30.62-9.21-62.06-11.58-93.82-11.28-32.43-.39-64.79.9-97.1,3.62-24.2,1.81-48.35,4.09-72.48,6.69-1.9.21-3.86.35-5.39-1.23,1.5-6.35,4.58-12.24,6.52-18.49,2.15-3.81,9.41-2.05,13.31-3.25,30.06-3.01,60.14-5.96,90.29-7.89,31.42-2.22,62.91-3.39,94.38-4.51,15.35,1.89,29.15,11.46,42.81,18.34,8.88,5.05,17.61,10.5,25.72,16.65Z"/>
  <path class="cls-5" d="M824.42,262.68c67.41-6.39,135.11-13.18,203.06-9.96,14.39.83,28.84,2.16,43.06,4.98,8.25,1.79,16.47,3.66,24.48,6.36,1.09.37,2.09.89,3.07-.16,3.45,1.09,4.99,4.34-.49,3.31-17.75.49-35.5.77-53.24,1.43-73.33,2.75-146.46,9.02-219.32,17.57.31-3.75,2.53-6.24,2.53-9.95.32-6.67-8.49-4.46-3.14-13.57Z"/>
  <path class="cls-86" d="M1062.57,707.05c2.71-2.97,4.68-.11,3.8,2.99-3.79,4.72-5.32,10.73-8.88,15.59-4.23,9.43-10.67,11.16-20.4,11.74-13.08.74-25.99,2.59-38.96,4.16-2.09.18-5.97,1.07-5.23-2.33.84-9.26.76-18.51-.07-27.76-.71-31.2-4.09-66.06-30.29-86.92.49-2.51,8.59-.52,10.9-1.05,8.32.19,16.61-.45,24.91-.77,1.95.75,2.9,2.47,3.78,4.15,11.65,22.22,22.41,44.8,28.14,69.43,3.63,30.42,11.3,36.63,32.29,10.76Z"/>
  <path class="cls-97" d="M990.53,600.6c-1.76-.08-2.63-1.09-2.64-2.76-.43-8.4-2.09-16.77-4.1-24.93-7.49-32.2-28.48-60.55-57.45-75.75,7.13-1.27,13.65,1.2,21.01,3.78-14.42-23.93-33.55-45.25-58.62-58,9.55-2.38,19.22,2.14,28.31,3.56-4.58-11.92-18.06-20.77-28.92-27.79-8.1-5.43-18.09-7.71-26.14-12.58,37.73,1.04,78.29,23.8,92.31,59.87-6.23-3.48-12.48-6.84-19.57-7.83-.66,1.14.14,1.61.63,2.15,13.23,14.04,25.74,28.76,37.33,44.19,1.32,2.73,9.15,10.49,7.39,12.7-2.68-1.24-5.03-3.22-8.13-3.94,11.63,15.32,39.54,73.03,18.62,87.33Z"/>
  <path class="cls-12" d="M519.33,676.4c-4,.38,4.41,9.41,5.12,11.5,7.94,11.42,15.8,22.91,24.64,33.67-21.21-5.78-41.54-14.36-61.36-23.71-1.19,2.95,9.35,14.18,11.46,17.55,14.24,18.16,31.66,33.64,49.29,48.37-.65,1.46-1.76,1.08-2.54.92-20.21-4.86-42.65-6.59-60.14-18.73-4.23-3.66-27.39-20.7-23.76-25.66,6.12-12.09,11.38-24.62,22.45-33.57,5.67-4.58,7.45-11.74,8.58-18.81.27-1.69-.21-3.58,1.33-4.93,7.66,5.71,16.28,9.69,24.94,13.41Z"/>
  <path class="cls-86" d="M247.58,447.99c-.56-4.09-6.96-8.45-.4-9.58,18.11-6.56,36.96-11.35,54.65-18.98,8.87-4.32,17.88-10.18,28.06-10.11,4.95.12,9.89.25,14.84.35.42,0,1.08.1,1.09-.55-4.22-7.05-13.79-6.85-21.12-5.66-8.95,1.8-28.04-2.79-22.07-15.18,2.79-6.22,9.62-8.99,16.15-9.25,4.84,4.19.44,11.61,12.06,13.57,12.48,1.06,26.18,3.09,27.15,18.61-5.38,14.77-30.41,13.22-41.5,22.74-8.45,6.09-10.44,15.69-5.1,24.5,3.74,8.06,38.19-16.02,43.06-20.59,1.34-1.18,2.42-3.15,4.79-2.25-5,19.12-25.48,28.99-43.41,32.48-6.32-6.86-30.03,3.86-40.02-.42-1.56-1.97,0-3.6.68-5.25,7.23-18.09-17.54-18.12-28.89-14.43Z"/>
  <path class="cls-50" d="M311.94,631.25c-31.53,1.43-61.7-9.27-91.2-19.03-3.83-1.53-9.4-2.45-8.84-7.71.42-10.86,4.16-21.87,9.5-31.27,11.59,4.84,22.8,11.34,35.31,14.28,16.26,3.64,33.21,5.36,47.9,13.87,9.62,5.16,15.2,21.45,7.33,29.86Z"/>
  <path class="cls-104" d="M765.1,710c2.66,24.05-17.1,42.96-39.5,47.58-6.07,1.73-25.66.33-20.32-9.45,5.4-9.92,6.55-21.24,8.94-32.08.39-4.2,2.71-7.03,6.63-8.47,8.53-4.47,14.94-11.3,20.95-18.63,6.42-10.56,14.55-13.1,25.38-17.34,15.98-8.72,10.03,13.24,7.63,21.43-6.54,3.54-14.26,8.6-9.73,16.97Z"/>
  <path class="cls-44" d="M518.33,387.58c25.07,10.95,13.83,14.7,13.64,35.85-.78,13.26.5,26.47,1.43,39.69,3.06,62.43,29.42,119.94,51.86,177.32.11,1.34,1.89,3.52-.68,3.39-20.35-32.97-38.94-67.37-54.65-102.76-12.09-49.63-18.62-102.89-11.6-153.49Z"/>
  <path class="cls-80" d="M764.01,399.78c-30.1,26.04-108.22,89.59-148.71,73.17-.36-1.24,1.29-4.78-1.02-3.93-.87,1.04-1.74,2.09-2.62,3.13-19.71-14.8-31.23-37.49-50.25-53.07-1.4-1.13-3.2-2.31-2.78-4.66,8.43,3.41,16.37,8.66,25.03,11.88,17.5,6.91,31.94,19.35,48.71,27.57,4.95,2.45,10.02-.43,14.52-2.56,9.29-4.79,19.01-8.22,29.29-10.2,30.95-9.49,58.45-28.27,87.83-41.34Z"/>
  <path class="cls-97" d="M359.22,435.61c-12.69,10.73-26.88,19.98-42.64,25.89-6.85,3.67-8.38-7.88-9.4-12.48.51-25.6,34.91-20.65,48.79-35.03,2.79-4.65-1.93-11.05-4.94-14.88-11.78-10.36-29.06,3.86-32.26-20.08,14.03-3.37,28.72-4.57,43.18-4.88,5.3-.27,10.69.72,12.58,6.35,3.78,12.18,7.99,35.32-3.13,44.37-4.34,3.26-8.67,6.55-12.18,10.74Z"/>
  <path class="cls-104" d="M558.62,414.43c9.32,9.44,19.14,18.49,27.23,29.2,7.69,10.29,17.46,19.13,25.8,28.53-12.43,18.28-18.89,38.92-23.3,60.35-8.36,12.14-43.57-120.03-36.33-122.07,2.2,1.33,4.4,2.67,6.61,4Z"/>
  <path class="cls-97" d="M935.14,619.68c14.59,7.37,24.26,22.75,31.49,37.19,1.75,2.66-1.22,2.97-3.25,3.16-16.45,1.88-32.87,4.05-49.35,5.63-3.16-3.75-2.88-8.26-3.26-12.53-.01,4.18.54,8.7-1.58,12.82-4.21,1.4-10.77,2.53-11.43-3.38-2.68-8.88-5.26-17.81-5.99-27.08-.79-9.97,3.09-14.39,11.94-14.33,10.43.16,21.01-2.84,31.43-1.47Z"/>
  <path class="cls-86" d="M999.28,1013.35c-11.81,6.3-26.18,9.33-39.28,12.97-11.08,4.32-27.38-1.48-34.02,10.84-5.94,10.99-2.93,23.88-5.85,35.58-2.66,13.81,13.28,23.18,25.5,19.5-4.68,5.77-7.88,13.35-15.49,15.64-7.77,3.53-18.07.74-20.07-8.29-2.47-28.99,8.77-62.49-11.39-87.66-2.21.78-1.72,7.57-3.98,8.64-.37.12-.6-.09-.7-.48-.82-4.45-3.33-9-1.95-13.55,1.55-5.12,1.12-5.61,6.04-2.66,30.52,18.12,67.6,15.09,101.18,9.48Z"/>
  <path class="cls-104" d="M762.24,645.75c.88,2.4-8.3,8.87-10.32,11.08-11.09,8.75-22.79,19.61-37.77,19.69-10.36.13-14.22-11.19-20.36-17.69-17.77-21.18-40.4-34.97-65.58-46.36,53.82-7.09,81.25,54.41,134.02,33.28Z"/>
  <path class="cls-107" d="M518.33,387.58c-1.45,32.66-2.05,65.65,2.22,98.18,2.39,17.59,5.46,35.11,10.07,52.27.3,1.1.41,2.22-.69,3.04-15.52-33.46-29.07-68.58-32.96-105.52-1.5-17.43-1.53-35.46,4.74-52.02.94-2.41,1.23-2.59,3.49-1.69,4.36,1.92,9.04,3.34,13.14,5.74Z"/>
  <path class="cls-86" d="M827.65,669.76c-.8-1.06-1.98-.87-3.07-.95-7.94-.74-15.89-2.45-23.03-5.99-.25-.8.42-1.08.88-1.41,4.44-3.19,8.4-6.91,12.08-10.92,1.62-1.76,3.35-2.63,5.8-2.78,9.98-.6,19.1-3.62,26.83-10.21,2.18-1.84,3.96-3.3,5.24.36,8.32,16.54-2.3,32.97-9.67,47.67-5.29,10.12-13.18,17.6-23.59,22.3-1.96.88-3.09,1.92-3.58,4.01-2.2,11.45-10.6,10.97-15.52,19.18-3.48,5.87-8.74,10.9-15.18,13.26-.76-.86-.41-1.58-.1-2.32,3.63-7.34,5.04-15.08,4.44-23.23.79-.64,1.4,2.75,2.64-.15,3.03-7.4,13.49-7.68,15.83-15.82,3.2-7.4,8.03-13.31,15.56-16.72,5.29-2.28,14.13-14.46,4.43-16.29Z"/>
  <path class="cls-5" d="M480.03,333.62c4.13,4.53,9.67,7.84,12.26,13.66-3.6,2.03-4.97,5.54-9.11,6.16-27.67,7.02-55.06,16.05-82.5,23.28-4-14.24-6.55-29.27-9.18-43.89,4.41-.54,7.76,6.39,11.47,8.54,6.58,5.35,13.61,7.29,22.25,5.35,18.43-3.57,36.42-10.01,54.82-13.1Z"/>
  <path class="cls-54" d="M480.03,333.62c-19.28,6.9-39.89,11.02-59.98,15.31-12.12,1.72-20.19-9.54-28.55-16.09-1.56-1.71.94-2.43,2.35-2.76,23.79-6.19,47.56-12.67,71.37-18.68,1.27-.52,2.16-.2,2.74,1.02,3.5,7.37,7.9,14.23,12.08,21.21Z"/>
  <path class="cls-44" d="M701.85,1000.09c-12.21,2.6-35.32,7.49-40.72-7.92-3.2-11.07-4.28-23.99-1.26-35.05,17.93,24.9,48.16,34.68,53.29-4.55-.25-7.53,10.16-1.88,13.41-6.52,3.22,21.25-7.43,41.99-24.72,54.04Z"/>
  <path class="cls-44" d="M445.18,778.48c-5.85-10.19-9.85-21.08-5.5-32.71,1.07-4.82,6.97-5.69,10.55-8.23,2.82-.69,3.43,4.42,5.06,6.1,3.23,5.65,7.74,10.19,12.72,14.22,5.91,4.77,10.93,10.33,15.09,16.62,6.13,9.85,15.44,16.4,24.23,23.41-.57.87-1.39,1.02-2.13,1.11-6.8.65-13.62,2.13-20.44,2.18.27-2.2,1.66-1.38,2.81-1.02-15.18-5.12-30.08-10.86-42.39-21.68Z"/>
  <path class="cls-104" d="M608.55,646.69c.29-.69.3-1.7,1.45-1.51,15.68,2.83,30.72,9.16,43.48,18.7,7.44,5.42,34.83,28.57,15.45,33.69-14.99.62-27.93-11.33-43.2-10.49-7.18-12.68-12.64-26.54-17.18-40.39Z"/>
  <path class="cls-86" d="M935.14,619.68c-11.33,1.34-22.67,2.83-34.07,3.05-2.46-.16-5.43.54-6.48,3.07-4.66,13.4,2.79,27.97,5.86,41.14-3.51.32-16.48,4.01-17.55.08-11.02-21.61-14.92-46.03-13.94-70.13.18-2.85,1.04-3.49,3.47-1.86,7.31,4.89,15.03,9.08,22.99,12.83,12.57,6.15,26.12,9.47,39.72,11.84Z"/>
  <path class="cls-50" d="M247.51,713.04c-6.67-.8-16.18-2.02-18.44-9.44-2.37-7.5-11.01-10.18-15.48-16.06,5.98-4.7,14.7-5.33,22.05-6.13,19.49-.51,37.4-7.26,55.13-14.62,3.36,1.41,1.22,3.71.53,5.29-8.21,17.88-22.61,39.11-43.78,40.96Z"/>
  <path class="cls-50" d="M925.39,977.93c.64.03,1.28.07,1.93.1,28.89,4.66,58.66.64,87.59-2.57,5,.98-3.33,12.39-6.6,13.01-19.29,9.86-41.42,12.79-62.86,10.83-10.25-1.23-20.76-1.9-30.59-5.13-2.15-3.4,6.73-14.89,10.54-16.24Z"/>
  <path class="cls-80" d="M552.02,410.43c-2.42,3.69,2.54,15.32,2.82,20.35,4.14,20.46,9.37,40.65,15.27,60.67,2.21,6.55,12.23,41.84,18.25,41.05-2.28,11.81-3.07,23.81-4.89,35.68-20.72-38.05-29.91-83.13-32.79-126.45.26-3.07-2.57-35.52,1.34-31.3Z"/>
  <path class="cls-118" d="M879.27,1018.25c5.18,17.35,6.56,35.93,7.92,54.01-.42,9.42,2.1,19.8-1.19,28.73-5.13,10.6-17.01,4.22-17.08-5.1.12-10.94-2.3-22.07-3.05-33.09-.76-7.74-1.84-15.46-2.06-23.25-5.12-8.98,4.4-27.32,15.46-21.31Z"/>
  <path class="cls-68" d="M918.62,957.82c-18.38-5.69-11.32-16.83-6.63-30.05,2.05-3.68,12.04-2.22,16.19-3.58,28.55,15.26,61.86,29.25,95.14,21.16.02,2.05-1.65,2.66-3.06,3.22-18.45,7.35-37.27,11.48-57.09,6.24-15.71-4.86-32.14-11.98-44.55,3.01Z"/>
  <path class="cls-72" d="M441.5,562.26c-.96-2.8-3.16-4.49-2.81-7.87.23-6.84-2.63-13.57-2.59-20.18,12.59,12.4,15.26,32.41,21.57,48.39,3.17-23.14,4.41-46.02,5.92-69.25-.27-8.2.38-16.19.96-24.34.58-3.92-1.16-8.78.96-12.17,6.03,56.51,4.04,115.03-12.35,169.77.83-28.56-2.05-57.29-11.67-84.35Z"/>
  <path class="cls-97" d="M1062.57,707.05c.72.41,1.06,1.3.47,1.99-6.32,6.03-12.36,15.47-22.02,15.45-12.92-3.04-9.23-27.3-14.48-37.61-6.75-22.4-16.8-43.77-28.18-64.17,6.04-.85,14.73-6.61,18.67.72,9.01,17.28,13.65,36.48,16.83,55.61,1.67,10.32,4.08,20.86,9.7,29.81,4.23,7.1,13.13-.67,19.01-1.81Z"/>
  <path class="cls-86" d="M293.48,718.98c21.82-17.94,37.62-40.55,45.9-67.68,3.25,20.09,2.08,39.5.31,59.57-.12,1.71-.87,3.01-2.17,4.09-14.09,12.55-27.55,12.94-44.03,4.02Z"/>
  <path class="cls-4" d="M388.62,405.89c-2.15-11.25-2.66-22.99-7.42-33.75-4.98-21.02-9.12-42.36-15.65-63.02-2.79-12.26-10.06-4.36-16.35-9.41-1.78-7.77-1.11-7.8,5.42-10.07,3.63-.62,13.14-4.85,15.3-1.2,5.35,16.06,8.94,32.66,13.01,49.07,6.9,29.21,13.7,58.5,18.03,88.23.29,5.78,2.66,12.83-5.51,13.5-4.31-10.31-4.45-22.35-6.84-33.35Z"/>
  <path class="cls-50" d="M318.68,507.54c-21.77,2.16-43.91-3.29-65.18-7.76-2.71-1.24-7.62-.87-8.69-4.04-.07-7.03-.07-17.22,4.78-21.96,22.57,19.66,85.41,4.01,69.09,33.75Z"/>
  <path class="cls-104" d="M524,323.37c7.34,10.11,16.77,19.19,23.45,30.09,8.58,17.8,20.56,33.11,36.53,44.78-.91,1.11-1.73.07-2.46-.09-13.82-2.76-26.76-8.75-39.36-14.38-8.04-5.71-15.23-12.39-21.95-19.59.65-.59,1.4-.69,2.22-.44,6.2,2.04,12.52,3.73,19.06,4.1.21-.77-.35-1.08-.87-1.39-9.45-5.53-19.14-11.5-25.24-20.87-.72-1.09-2.35-2.43-1.09-3.65.86-.83,2.29.57,3.36,1.17,5.94,2.9,12.46,6.96,19.17,6.67-7.55-10.12-18.37-19.92-20.43-33.31.34-.26.67-.23.99.05l-.05-.05c2.24,2.07,5.92,3.85,6.67,6.9Z"/>
  <path class="cls-12" d="M572.15,736.99c-.13,2.37,8.9,8.11,11.05,10.79,17.58,14.48,36.75,27.23,58.06,35.22-38.76,1.76-77.38-20.94-102.29-49.46,10.95.2,21.94,4.23,33.18,3.45Z"/>
  <path class="cls-86" d="M740.11,62.06c2.51-.44,4.71,1.23,7.19.96.6,0,1.21.02,1.81.09,12.98,22.62,17.07,49.03,20.51,74.51.78,7.37,1.7,6.42-5.66,9.13-9.71,3.57-19.6,6.55-29.61,9.16,1.87-2.23-.91-4.55-1.72-6.7.48-5.82,3.18-35.33,10.76-17.29,3.74-20.61,11.99-3.44,15.92,4.07-5.56-24.53-7.69-50.99-19.21-73.94Z"/>
  <path class="cls-44" d="M764.14,203.25c.28-28.83-10.16-34.87-37.55-33.71,10.53-2.29,42.31-19.87,49.79-10.86,5.16,6.83,5.45,16.23,11.92,22.09,3.7,3.23,8.53,11.03,1.45,13.31-8.36,3.44-16.86,7.04-25.62,9.18Z"/>
  <path class="cls-50" d="M285.84,567.18c-14.84-.23-29.66-1.8-44.33-4-9.05-.43-14.08-6.31-11.95-15.35,2.13-2.71,4.99-1.37,7.5-1.18,16.49.89,32.99,5.13,49.53,3,10.99-1.71,23.98,3.12,28.59,13.72.82,2.26.63,4.19-2.58,4.12-8.92-.21-17.85.4-26.76-.32Z"/>
  <path class="cls-44" d="M523.15,194.54c-8.23,6.23-11.19,16.64-12.37,26.39.7,8.48,4.91,15.53,9.49,22.53-10.23.46-20.42-.05-30.62-.99-1.24-.11-2.48-.28-3.57-1.54,10.55-10.77,25.6-37.2.57-10.59-3.16-6.95,1.58-21.31,3.4-28.97.91-2.96,2.31-5.14,5.87-5.11,9.08-.35,18.11-1.77,27.22-1.72Z"/>
  <path class="cls-72" d="M488.68,468.1c-.42.42-.78.41-1.13-.11-5.25-7.98-10.87-15.71-16.89-23.13-3.59-5.81-10.78-9.97-11.88-16.94-.62-12.85,13.59-41.76,27.81-42.27.02.28.03.57.02.85-9.73,26.02-3.47,55.18,2.07,81.6Z"/>
  <path class="cls-68" d="M285.84,567.18c3.55-1.01,32.03,2.3,28.59-2.68-4.39-10-16.22-15.18-26.72-13.59-11.98,1.63-23.78.03-35.68-1.26-7.45.12-15.33-4.53-22.47-1.81-.17-4.32,17.93-1.04,21.73-1.91,16.46.15,32.43-2.62,47.98-7.98,5.37-.81,22.59-10.54,25.39-4.92,2.65,7.98,4.19,30.64-5.46,33.94-10.84,1.48-22.64,1.72-33.36.22Z"/>
  <path class="cls-104" d="M751.47,373.09c-9.65,7.48-20.41,13.79-32.56,16.02,2.37-10.16,9.78-19.35,10.48-30.21,1.86-13.39,9.63-25.02,17.45-35.71-1.44,9.16-6.04,16.64-11.02,24.41,11.27,2.49,22.95-.62,32.98-6.01.8,1.08-.15,1.56-.52,2.09-6.06,9.65-15.35,16.06-24.49,22.01,6.28.77,13.78-1.64,20.37-2.33.42.32.29,1-.05,1.13-4.22,2.87-8.43,5.74-12.65,8.61Z"/>
  <path class="cls-118" d="M349.42,300.14c5.61.41,14.16-1.96,16.31,5.11,2.61,7.71,4.74,15.54,6.66,23.43,2.14,8.81,4.27,17.62,6.35,26.45.38,5.01,4.27,11.57,2.35,16.06-2.65-6.53-8.49-9.4-15.36-8.64-3.83-.52-2.86-6.45-4.27-9.27-4.21-17.65-9.38-35.19-12.05-53.15Z"/>
  <path class="cls-107" d="M701.85,1000.09c-.4-.32-.76-.86-.31-1.16,3.89-2.59,6.88-6.15,10.15-9.41,13.35-12.3,14.01-30.51,15.07-47.29,0-4.7,9.02,1.89,12.03,1.42,6.79,3.57,4.63,28.68,2.39,35.52-5.44,15.53-25.32,17.79-39.33,20.91Z"/>
  <path class="cls-50" d="M918.62,957.82c13.87-24.21,42.94.52,63.49-2,16.27.41,31.31-6.22,45.87-11.73,1.38,15.37-16.66,15.04-27.45,16.34-26.88,1.31-56.09,6.6-81.91-2.61Z"/>
  <path class="cls-68" d="M215.08,625.4c19.17,12.23,41.32,18.37,62.47,25.82-8.3,5.14-19.74,6.38-29.41,8.89-14.53,2.54-29.23,4.44-42.38,11.08-1.24-2.87-1.91-5.95-2.18-9.13,9.61-6.3,20.58-9.19,31.89-12.19-3.32-6.73-22.15-21.07-20.39-24.48Z"/>
  <path class="cls-97" d="M827.65,669.76c10.58-4.26,4,12.29-.43,15.2-5.13,3.48-11.23,5.4-14.48,11.23-11.06,22.68-11.41,9.72-22.13,25.71-.91-1.03-.29-2.47-1.42-3.15-1.03-5.21-3.83-9.36-7.84-12.63,6.79-7.2,19.57-11.35,18.41-23.37-.06-1.66-1.14-3.7.36-4.97,9.43-.95,19.4-2.11,27.54-8.01Z"/>
  <path class="cls-107" d="M871.44,773.03c1.55-14.68,3.3-27.71,5.98-41.51,2.68-1.71,10.53-14.1,12.87-11.18,3.79,4.48,3.9,3.25,3.03,9.3-2.29,15.93-4.6,31.86-6.89,47.79-1.25,3.47.39,9.47-3.12,11.36-7.5,1.5-12.81-10.1-11.86-15.77Z"/>
  <path class="cls-68" d="M318.68,507.54c.43-4.99,3.75-13.66-2.94-15.53-20.96-7.5-49.61-1.56-66.14-18.22,21.78,9.39,46.39,5.95,69.11,2.14,3,.5,19.68-7.4,18.06-2.96-1.84,9.21-5.31,18.02-6.89,27.3-.77,5.51-6.24,7.6-11.2,7.26Z"/>
  <path class="cls-44" d="M841.09,92.88c4-4.75,4.25,26.35,2.01,28.72-7.47,30-42.92,19.39-30.24,29.28-1.37,1.58-2.71,3.12-4.01,4.62-4.08-2.3-6.06-9.06-12.06-6.89-.8-10.03,12.96-21.31,21.76-24.23,14.98-4.6,21.62-16.66,22.53-31.51Z"/>
  <path class="cls-4" d="M78.63,457.6c-3.11-7.83-3.38-6.91,2.9-11.76,10.96-8.7,23.27-15.77,35.9-21.68,2.26,3.75,17.55,40.43,18.54,44.45-3.98,1.87-7.91,3.96-12.17,5.31-2.64-2.41-3.51-5.93-5.48-8.77-1.33-8.7-4.14-31.36-17.2-22.7-5.3,2.79-10.94,5.3-13.47,11.4-2.95,1.38-5.46,3.83-9.02,3.74Z"/>
  <path class="cls-50" d="M215.08,625.4c6.74,8.56,15.56,15.75,22.46,24.42-6.6,3.89-15.03,3.79-22,7.4-3.7.72-8.83,5.85-11.95,4.84-1.93-14.1.43-34.18,5.13-42.39,2.15,1.94,4.26,3.83,6.37,5.73Z"/>
  <path class="cls-4" d="M879.27,1018.25c-12.11-2.21-17.22,11.32-15.46,21.31-2.89-4.7-16.91,8.37-16.93.41-6.43-29.68,26.19-55.82,32.39-21.72Z"/>
  <path class="cls-107" d="M841.09,92.88c1.08,1.03.96,2.42.7,3.61-1.48,9.89-5.06,20.65-14.74,25.25-12.76,5.18-26.31,12.54-30.25,26.88-2.37,2.06-4.75,4.12-7.01,6.07-.87-.05-.9-.61-.9-1.04.09-10.19,3.05-19.42,9.3-27.53,11.78-14.2,34.27-15.57,42.9-33.25Z"/>
  <path class="cls-86" d="M498.26,250.11c-8.21-1.36-.58,15.27,1.61,18.54,2.9,4.04-3.9,2.01-5.45.49-.81-.63-1.72-1.14-2.79-.67-.67,7.04,1.2,14.12,1.74,21.15-3.65,1.22-4.6-4.52-7.63-4.05-3.18,12.31.16,26.2,2.87,38.53-5.29-10.28-19.47-31.6-11.28-42.13,3.39-4.9-6.31-5.96.45-10.96,19.4-16.55,3-10.71,6.58-23.41,4.55,1.24,9.33,1.26,13.91,2.51Z"/>
  <path class="cls-86" d="M523.17,179.15c-5.84.69-11.6,1.75-17.33,3.13.38,1.01,1.36.51,2,.83-5.85,2-12.17,2.06-17.98,4.38-15.93,11.05,3.42,33.59-28.08-6.4.44-1.78,2.37-1.39,3.31-.28-.9-3.74-3.65-11.12-.18-13.95,1.43-.27,1.7,1.23,1.97,2.21,1.91,7.09,6.41,12.34,12.52,17.51-8.39-17.72,6.59-13.99,18.53-14.48,9.53.76,20.39.16,28.95,4.52.68,3.66-2.87,1.1-3.71,2.52Z"/>
  <path class="cls-4" d="M868.87,1091.22c.84.7.89,1.66.83,2.62-.53,6.3,6.53,15.65,12.65,9.94,8.01-7.37,3.31-19.5,4.78-29.15,1.69,14.9,1.67,31.54-3.74,45.79-11.68,16.38-26.27-9.12-30.47-19.71,3.56-3.31,9.25-3.53,13.73-5.39,2.44-.56,1.96-2.27,2.21-4.1Z"/>
  <path class="cls-44" d="M817.87,181.11c.66-14.61-13.87-21.59.21-26.45,11.95.64,16.01,15.73,32.15,12.98,9.03-.17-18.86,26.14-32.36,13.47Z"/>
  <path class="cls-86" d="M838,606.13c2.11-.44,9.81-6.98,9.73-2.73-1.35,11.55-6.6,23.87-18.15,28.47-5.5,2.03-11.18,2.77-16.98,2.2-2.19-1.02-16.17.38-14.15-2.63,5.9-7.1,14.95-11.07,23.82-13.28,7.08-1.53,10.91-7.46,15.73-12.03Z"/>
  <path class="cls-12" d="M842.88,737.03c.1-3.73-.46-7.22-2.74-10.41-2.23-3.13-1.07-6.43.3-9.56,6.91-4.88,15.77,8.8,14.89,15.43-.47,2.24.85,4.43.65,6.59-1.98,7.85.93,16.53-3.18,23.92-1.83,3.6-2.04,3.65-5.81,1.92-2.85-1.51-6.07-1.81-9.01-3.07-1.39-2.34.18-4.29.84-6.35,1.95-6.03,4.09-12.02,4.05-18.49Z"/>
  <path class="cls-86" d="M811.17,272.34c-.57-3.37,7.81-36.28-1.37-27.37-3.43,1.35,2.78-15.22,1.31-18.62-2.46.1-2.41,5.6-5.64,6.56.33-11.88-5.05-24.77-13.69-32.82,4.38-1.47,8.63-7.16,12.5-2.14,4.02,4.34,9.38,9.25,9.69,15.48,1.48,14.37,9.43,3.69-.07,21.46-1.77,3.96,2.42,5.13,5.48,5.75,5.52.15-6.72,27.86-8.22,31.71Z"/>
  <path class="cls-40" d="M247.58,447.99c.58-2.66,4.65-2.44,6.92-2.89,15.62-2.03,32.82,3.98,20.84,21.94-5.76,3.61-13.8.11-20.01-.83-8.34-1.15-5.45-12.25-7.75-18.22Z"/>
  <path class="cls-47" d="M438.55,389.53c-11.91,13.14-19.56,27.74-24.15,44.53-.63,1.57-.44,4.54-2.73,4.44-.95-.02-1.41-.65-1.52-1.51-1.37-11.25-3.29-22.43-5.04-33.62-.3-1.48.79-2.31,2.13-2.64,10.57-3.49,20.49-8.83,31.31-11.2Z"/>
  <path class="cls-68" d="M311.94,631.25c9.92-30.5-17.52-32.24-38.39-40.3,11.11.35,22.11,2.52,33.13,3.95,6.03,1.58,15.69.42,17.01,8.38,1.86,7.91,1.79,16.13-.23,24.06-1.48,5.28-7.37,3.67-11.52,3.9Z"/>
  <path class="cls-67" d="M119.05,465.25c2.61,1.9,3.8,5.63,4.75,8.66-7.52,4.38-15.58,7.88-23.3,11.92-3.68,1.9-7.59,4.37-10.4-.16-5.46-8.58-8.87-18.29-11.47-28.08,14.6-10.64,8.87,4.36,16.97,14.53,6.38,11.17,16.32-4.44,23.46-6.87Z"/>
  <path class="cls-86" d="M263.14,400.89c20.57-4.23,11.35-27.98,15.53-42.27,3.4,1.89-.11,6.73,1.52,9.78.79,12.15,6.91,22.86,8.8,34.71,1.08,4.89,1.03,4.96-3.42,7.28-9.13,5.83-19.03-.19-22.43-9.5Z"/>
  <path class="cls-50" d="M237.07,530.62c-5.26.41-5.03-.09-4.53-4.91.85-3.51-.08-8.25,2.48-10.97,3.36-.88,5.41-6.8,8.54-6.01,9.31,5.32,19.78,6.96,29.97,9.51,2.54,2.52-.37,2.86-1.56,3.33-11.19,4.75-22.96,7.56-34.91,9.05Z"/>
  <path class="cls-101" d="M158.19,406.67c2.55,1.34,13.08.7,9.88,5.12-3.55,3.25-6.54,15.18-11.58,13.95-39.24-9.21-33.25-3.97,1.7-19.07Z"/>
  <path class="cls-68" d="M925.39,977.93c-4,4.99-8.89,9.89-10.54,16.24-4.21-1.11-16.52-2.87-16.33-8.17,1.6-5.25,2-11.09,4.63-15.91.82-1.36,2.34-.22,3.34.31,5.83,3.77,12.59,5.12,18.9,7.53Z"/>
  <path class="cls-122" d="M494.4,662.99c.24,9.41-3.01,20.08-10.44,26.07-11.21,8.5-15.81,22.5-22.26,34.47-2.59-1.13-2.17-3.64-.98-5.68,5.18-10.25,9.81-20.78,15.78-30.62,7.93-11.67,12.93-14.91,10.97-29.73,2.7,1.28,4.44,3.89,6.92,5.5Z"/>
  <path class="cls-69" d="M185.04,444.49c-1.54,2.4-2.23,5.29-5.32,6.47-9.82,3.12-19.56,8.84-29.28,11.01-.69-.47-.34-1.1,0-1.65,3.73-5.94,7.44-11.89,11.2-17.8,1.6-2.52,3.83-3.75,6.92-3.07,5.16,1.97,12.76.85,16.47,5.04Z"/>
  <path class="cls-93" d="M1032.73,917.38c-7.78,14.42-47.56,4.55-61.36,2.23.15-.85,1.17-.96,1.87-1.06,12.23-1.12,24.43-3.06,36.64-3.97,6.55.91,12.96,3.1,19.71,2.13,1.11-.16,2.23-.21,3.13.67Z"/>
  <path class="cls-69" d="M189.62,432.59c-4.69-1.03-11.55-1.38-15.8-4.2-.84-.87-1.25-1.86-.75-3.05,2.17-7.58,9.22-11.63,16.79-11.64,3.66.57,12.87,1.14,9.88,7.16-3.47,3.77-4.02,11.79-10.12,11.73Z"/>
  <path class="cls-29" d="M473.21,131.03c-6.06-.05-11.63,2.46-17.67,2.85-6.73,1.46-9.77,2.79-8.82,10.2.56,7.08,3.55,13.44,6.32,19.85.78,1.8,2.44,3.52.98,5.73-6.1-7.67-22.94-32.47-8.92-38.82,22.48-7.45,47.19-3.24,70.34-1.47-.65,2.44-2.63,1.24-3.95,1.25-12.73.42-25.64-.56-38.28.4Z"/>
  <path class="cls-37" d="M234.23,400.93c11.82-1.46,10.03-14.06,11.45-22.74-.06-1.9,4.66-14.15,5.66-7.86-3.65.72-1.4,11.07-1.41,14.2-.18,6.04,6.5,17.9,4.13,21.61-5.63,7.63-16.37,1.51-19.84-5.21Z"/>
  <path class="cls-122" d="M842.88,737.03c3.21,8.16-3.12,16.87-4.9,24.83-10.76-.89-21.46,1.47-31.96,1.53,11.46-8.14,31-12.68,36.85-26.36Z"/>
  <path class="cls-101" d="M205.96,405.72c-1.92-.3-20.18-3.3-17.14-5.85,2.85-5.05,2.84-5.09,8.81-7.03,3.83-.57,15.21-6.21,17.64-4.35,4.21,4.75-2.77,10.23-4.72,14.67-1.69,2.59-1.82,2.59-4.59,2.56Z"/>
  <path class="cls-67" d="M388.62,405.89c.28-.04.8-.14.8-.13,2.03,11.13,5.23,22.19,6.03,33.47-5.14,1.78-18.67,8.49-19.68-.21-.68-2.06-.65-2.36,1.09-3.59,10.68-6.28,13.02-18.04,11.76-29.55Z"/>
  <path class="cls-12" d="M875.46,854.67c-1.17,5.12-1.07,17.41-4.25,20.38-2.67-.17-11.87,4.56-11.52.08,1.45-4.19.49-21.17,5.17-21.01,2.73.19,11.03-4.07,10.6.56Z"/>
  <path class="cls-62" d="M237.07,530.62c11.73-3.14,24.27-6.13,35.94-10.57,1.2-.39.82-1.07.53-1.81,7.69,1.33,15.37,2.7,23.07,3.99-3.96,3.7-12.66,3.82-18.04,5.27-13.71,2.09-27.61,3.79-41.5,3.12Z"/>
  <path class="cls-47" d="M817.87,181.11c12.62,5.42,23.94-.69,32.08-10.46.5-.49,1.02-.74,1.56-.04-3.1,15.26-20.67,27.46-35.19,18.89.53-2.87,1.04-5.63,1.55-8.39Z"/>
  <path class="cls-14" d="M866.13,830.37c-.96-7.46,1.95-14.73,1.72-22.24.01-1.12.08-3.08,1.66-2.84,3.72.85,7.12,2.84,11.04,2.84.9,0,1.52.63,1.38,1.57-1.18,4.22-.29,9.76-2.99,13.24-4.24,2.48-7.92,6.38-12.81,7.44Z"/>
  <path class="cls-69" d="M216.32,420.13c2.46.21,13.15,1.19,11.83,4.09-3.84,4-5.39,10.76-10.79,12.91-3.55,1.85-7.32-.36-11.06-.69-4.6-1.51,2.13-6.89,2.92-9.55,2.09-2.5,3.07-7.76,7.1-6.75Z"/>
  <path class="cls-114" d="M445.18,778.48c1.75-1.76,3.82,2.35,5.56,3.02,11.36,8.28,24.18,12.88,37.28,18-.99,1.21-2.66.51-3.27,1.69-8.45,1.25-8.47,1.29-16.01-2.19-8.87-4.96-22.8-8.5-23.57-20.51Z"/>
  <path class="cls-64" d="M796.61,177.45c-7.24-5.26-4.3-13.55.04-19.74,6.26-7.27,13.64,12.93,13.46,17.63-.76.54-1.28-1.17-1.88-.34-3.16,4.33-7.35,3.54-11.62,2.45Z"/>
  <path class="cls-40" d="M838,606.13c-1.66,5.22-8.98,11.5-14.4,12.87-7.57,1.66-14.48,4.71-20.62,9.46-.59.45-1.13.49-1.62-.14.47-.49.51-1.32,1.19-1.56,13.95-20.91,13.93-14.34,35.45-20.62Z"/>
  <path class="cls-21" d="M744.9,60.2c-18.14-15.4-33.98,10.79-46.99,21.12-5.72-.77,24.49-29,28.14-30.41,6.59-6.49,24.23,8.39,18.85,9.29Z"/>
  <path class="cls-79" d="M255.33,466.21c11.83,1.1,23.8,1.82,35.59.06,6.07.28,11.9-1.29,17.79-2.36,4.3-1.25,5.27.71,7.1,4.19-17.46,5.02-43.42,4.16-60.48-1.88Z"/>
  <path class="cls-92" d="M1050.25,734.93c4.98-8.12,10.68-15.89,13.95-24.92.5-1.42.57-1.4,2.17.02,1.29,27.6,7.17,22.7-16.12,24.9Z"/>
  <path class="cls-18" d="M137.49,432.67c3.1,1.44,16.2,1,12.41,7.8-1.88,1.71-6.73,14.67-9.14,9.66-.43-3.45-10.59-18.68-3.28-17.46Z"/>
  <path class="cls-127" d="M685.41,278.09c-5.16,2.21-10.36,4.3-15.95,5.19.02-4.18,3.78-8.29,5.9-11.93,4.14-7.2,6.65,1.67,18.38.14-.47,1.54-1.97,1.72-2.6,2.74-1.26,2.08-3.79,2.79-5.73,3.85Z"/>
  <path class="cls-95" d="M1032.73,917.38c-7.36,1.62-16.3,1.09-22.85-2.8,8.16-1.05,16.3-2.25,24.5-2.94,3.25.21-.61,4.6-1.66,5.74Z"/>
  <path class="cls-32" d="M772.6,108.16c1.81,1.88,10.18,45.01,2.92,32.3-1.59-10.42-2.12-21.17-4.55-31.35.33-1.4-1.86-3.71.65-3.7.15,1,.27,2,.98,2.76Z"/>
  <path class="cls-65" d="M454.03,169.67c-2.79-9.87-18.89-35,0-36.52.13.15.25.31.38.46-8.05,6.85-4.97,19.07-1.12,27.67.7,3.86,8.25,12.45,5.24,15.25-1.79-1.75-3.36-3.65-4.34-5.99.21-.4.14-.73-.24-.99l.07.11Z"/>
  <path class="cls-129" d="M308.08,372.05c.27-7.15-1.02-14.65,2.08-21.36,1.23.51,1.44,1.44,1.7,2.33.23,5.09,1.62,10.17,3.55,14.92.93,3.48-5.22,2.84-7.34,4.11Z"/>
  <path class="cls-123" d="M796.61,177.45c3.35-2.29,7.05,2.95,11.9-4.17,1.12.23.59,1.75,1.6,2.06.76,3.8-1.08,6.69-3.26,9.48-4.76,3.62-7.96-4.14-10.23-7.37Z"/>
  <path class="cls-76" d="M977.35,723.59c-.69,4.16-.13,19.63-4.19,20.66-.87-.08-1.03-.76-.96-1.36,1.18-10.28,2.74-20.51,4.22-30.75,2.49,1.46.99,3.84,1.2,5.77.21,1.85.4,3.81-.26,5.68Z"/>
  <path class="cls-113" d="M679.75,268.39c-4.54,2.9-5.9,8.9-9.52,12.67-.44-.16-.57-.88-.32-1.05,1.4-6.17,3.09-12.26,5.29-18.69,1.56,2.58,2.58,5.16,4.54,7.07Z"/>
  <path class="cls-81" d="M717.17,235.85c-1.75,4.02-3.45,7.93-5.27,12.12-1.52-3.7-2.81-6.38-6.06-8.61,4.55-2.37,8.14-3.5,11.34-3.52Z"/>
  <path class="cls-57" d="M473.21,131.03c12.05-2.14,25.24-.1,37.67-.82,1.54,0,3.23.5,4.55-.83,3.95-.32,7.75.83,11.64,1.12-17.56,1.85-36.04.25-53.87.53Z"/>
  <path class="cls-100" d="M662.36,90.76c-5.01-.57-16.19,4.47-17.82-2.04-.42-3.65,15.21.96,17.82,2.04Z"/>
  <path class="cls-39" d="M909.19,665.94c-.34-4.47.59-8.84.96-13.33,1.78.28,3.49,10.81,3.87,13.04-1.6.35-3.2.57-4.84.29Z"/>
  <path class="cls-59" d="M458.54,176.53c-.19-5.9-6.28-10.56-6.42-16.57,2.44-.12,4.78,4.88,5.56,6.82.92,4.91,6.41,8.34,5.96,13.36-.62.32-1.25.64-1.87.96-1.24-1.07-2.23-2.33-2.85-3.86.26-.41.14-.67-.3-.82l-.07.11Z"/>
  <path class="cls-45" d="M687.35,252.88c-.69,8.57-8.21,1.74-4.27-3.32,2.12-2.14,4.54.76,4.27,3.32Z"/>
  <path class="cls-71" d="M228.03,409.62c-1.32,1.93-4.32.4-5.47-1.31-1.25-1.27-.01-4.93,1.75-3.94,1.21,1.69,3.1,3.34,3.73,5.25Z"/>
  <path class="cls-33" d="M677.75,203.52c.09,1.26.11,1.42.11,1.58.09,2.4-.24,2.77-2.6,2.92-1.37.09-1.87-.41-1.49-1.59,1.11-2.76,3.07-11.93,3.98-2.92Z"/>
  <path class="cls-34" d="M696.75,80.02c.39.44.77.87,1.16,1.31-2.6,2.86-5.21,5.71-7.81,8.57-3.53-.01,5.5-8.71,6.65-9.88Z"/>
  <path class="cls-110" d="M977.35,723.59c-.5-3.73.9-8.11-.94-11.45-.56-1.04.41-5.73,1.67-3.54-.43,4.92.72,10.32-.73,14.99Z"/>
  <path class="cls-99" d="M689.18,88.91c.31.33.62.66.92.99-2.01,2.64-3.96,5.33-7.15,6.72,1.79-2.8,3.77-5.45,6.22-7.71Z"/>
  <path class="cls-112" d="M625.99,611.29c-3.72,1.33-7.84.77-11.81.54.9-.97,1.81-1.68,3.14-1.48,2.38,1.69,5.87.49,8.67.94Z"/>
  <path class="cls-17" d="M669.92,280c.11.35.21.7.32,1.05-2.44,7.8-2.95-2.43-1.34-4.91.56,1.23-.33,2.84,1.02,3.85Z"/>
  <path class="cls-89" d="M312.81,359.78c-1.03-1.89-2.55-5.01-.94-6.76.31,1.73,1.9,2.9,2.03,4.71-.9.4-.92,1.26-1.09,2.05Z"/>
  <path class="cls-87" d="M280.19,368.4c-1.14-2.24-1.78-5.83-.01-7.69.34,1.26.67,2.52,1.01,3.79-1.44,1.02-.61,2.61-.99,3.9Z"/>
  <path class="cls-58" d="M713.34,290.41c1.24,2.5.79,5.17.82,7.8-.96,1.38-1.98-3.11-1.83-3.87,1.37-1.05.5-2.66,1.01-3.93Z"/>
  <path class="cls-49" d="M771.62,105.4c-.71.42-.74,1.16-.85,1.86-1.49-1.97-.78-4.48-1.64-6.65,1.78,1.12,1.83,3.12,2.49,4.79Z"/>
  <path class="cls-82" d="M744.9,60.2c.38-.39.75-.79,1.13-1.18,1.53.99,2.16,2.65,3.08,4.1-.4.26-.8.51-1.2.77-.41-.23-.75-.55-1.08-.88,0,0,.02,0,.02,0-.65-.94-1.3-1.88-1.95-2.81Z"/>
  <path class="cls-1" d="M844.87,552.5c-.36.37-.73.73-1.09,1.1-1.7-.91-2.9-2.34-4.01-3.87,1.51-.87,4.07,1.57,5.1,2.77Z"/>
  <path class="cls-96" d="M584.58,643.83c.82-.43.91-1.21,1.01-2,.75,1,3.73,6.31.99,5.78-.67-1.26-1.33-2.52-2-3.78Z"/>
  <path class="cls-36" d="M672.92,109.11c-.28,1.2-1.24,1.94-1.93,2.87-2.73.38-.02-3.95.96-4.8.11.75.15,1.54.97,1.93Z"/>
  <path class="cls-128" d="M586.58,647.61c.36-.36.73-.72,1.09-1.09.79.86,3.37,5.45.85,4.86-.65-1.26-1.29-2.51-1.94-3.77Z"/>
  <path class="cls-13" d="M544.18,131.27c5.15,1.82-1.06,2.71-2.86.98.93-.4,2.2.19,2.86-.98Z"/>
  <path class="cls-121" d="M943.72,518.93c1.34.08,2.26.77,2.83,1.96-.4.37-.8.75-1.2,1.12-1.08-.66-1.75-1.59-1.82-2.89l.19-.19Z"/>
  <path class="cls-102" d="M588.52,651.38c.34-.3.67-.59,1.01-.89,2.76,3.15.61,4.72-1.01.89Z"/>
  <path class="cls-61" d="M931.23,593.78c-1.46.79-6.72-.89-2.83-1.7.57,1.19,2.15.69,2.83,1.7Z"/>
  <path class="cls-35" d="M630.76,640.89c-.77-.05-1.57-.01-2.31-.21-1.49-.57-.74-1.99.61-1.49.57.57,1.13,1.13,1.7,1.7Z"/>
  <path class="cls-51" d="M689.24,275.29c.59-.43,1.06-1.07,1.9-1.05.36.35.71.7,1.07,1.05-.55.95-3.5,1.94-2.96,0Z"/>
  <path class="cls-83" d="M764.12,364.47c.01-.37.03-.75.05-1.13.73-.99,1.8-.78,2.81-.81-.69,1.03-1.65,1.67-2.85,1.94Z"/>
  <path class="cls-9" d="M841.01,549.58c-.41.05-.82.1-1.24.15-2.81-1.86.43-2.16,1.24-.15Z"/>
  <path class="cls-63" d="M614.27,469.02c.17-.86.85-1.1,1.58-1.38.38.96.21,1.71-.47,2.48-.37-.37-.74-.73-1.11-1.1Z"/>
  <path class="cls-2" d="M831.18,525.92c.4-.4.81-.81,1.21-1.21.72.7.9,1.39.51,2.33-.73-.19-1.41-.36-1.72-1.12Z"/>
  <path class="cls-16" d="M805.32,426.01c.38-.38.76-.76,1.14-1.14,1.94.76-.08,2.64-1.14,1.14Z"/>
  <path class="cls-86" d="M1002.22,1012.53c-.76,1.08-1.84,1.05-2.97.84.78-1.02,1.86-.97,2.97-.84Z"/>
  <path class="cls-68" d="M930.41,978.69c-1.13.24-2.23.38-3.09-.65,1.12-.2,2.18-.15,3.09.65Z"/>
  <path class="cls-12" d="M644.01,782.94c.04-.61.07-1.22.11-1.83.94.67,1.11,1.29-.11,1.83Z"/>
  <path class="cls-12" d="M485.73,388.48c-.03-.8.16-1.5.88-1.97.06.82-.13,1.52-.88,1.97Z"/>
  <path class="cls-79" d="M317.71,467.93c.5-.66,1.18-.79,1.95-.68-.51.63-1.15.87-1.95.68Z"/>
  <path class="cls-86" d="M837.03,606.45c-.46.74-1.13.95-1.95.79.49-.66,1.15-.9,1.95-.79Z"/>
  <path class="cls-49" d="M770.97,109.1c.73.53.83,1.27.69,2.09-.63-.57-.83-1.27-.69-2.09Z"/>
  <path class="cls-12" d="M392.63,476.85c-.48.71-1.18.9-1.98.87.45-.76,1.16-.94,1.98-.87Z"/>
  <path class="cls-5" d="M1097.45,263.53c-.61.02-.96-.31-1.17-.85.6,0,1,.26,1.17.85Z"/>
  <path class="cls-49" d="M772.6,108.16c-.45-.25-.7-.63-.69-1.16.23.38.46.77.69,1.16Z"/>
  <path class="cls-29" d="M453.96,169.56c.23.34.62.6.24.98-.08-.33-.16-.66-.24-.98Z"/>
  <path class="cls-44" d="M840.81,93.56c-.02.54-.28.91-.76,1.15,0-.54.28-.92.76-1.15Z"/>
  <path class="cls-65" d="M458.61,176.42c.63.08,1.01.25.3.82-.26-.22-.36-.49-.3-.82Z"/>
  <path class="cls-86" d="M802.55,626.75c-.22.26-.44.52-.66.77,0-.46.23-.7.66-.77Z"/>
  <path class="cls-42" d="M1036.74,467.2c-3.83-37.47-5.99-75.16-9.04-112.72-.13-2.75-1.32-4.58-3.66-6.19-14.69-10.21-29.45-20.34-43.94-30.85-.23-.92.01-1.37,1.04-1.04,21.41,5.78,42.74,11.89,64.11,17.84,3.44.86,5.33,1.35,4.41,5.05-4.96,41.91-6.57,87.99-12.91,127.91Z"/>
  <path class="cls-73" d="M981.13,316.41c-.35.35-.69.69-1.04,1.04-.77-.43-1.69-.66-2.07-1.52,1.04-.64,2.29-.46,3.11.49Z"/>
  <path class="cls-125" d="M1036.74,467.2c.27-.06.55-.09.83-.11.19,1.08.39,2.16-.3,3.17-.95-.9-.65-2-.53-3.06Z"/>
  <path class="cls-78" d="M759.31,558.38c-5.63-.75-10.95-3.41-16.84-2.9-2.59.46-24.8-1.22-21.26,3.44,7.99,6.44,12.64,14.99,15.57,24.62.48,1.19-.72,1.61-1.66,1.1-36.28-16.83-77.25-20.52-115.96-12.14-.05-.87.66-1.01,1.15-1.19,8.07-2.98,16.31-5.52,24.8-6.88,14.33-2.22,29.34-3.4,43.73-1.27,13.53-2.18,52.39,19.88,20.29-7.72,1.87-3.08,11.9-5.24,15.75-5.78,11.6-2.33,25.5,1.16,34.41,8.74l.02-.02Z"/>
  <path class="cls-78" d="M759.3,558.4c2.07-.14,1,1.67.02-.02,0,0-.02.02-.02.02Z"/>
  <path class="cls-121" d="M943.53,519.11c-.12-.18-.24-.36-.35-.54.18.12.36.24.54.35,0,0-.19.19-.19.19Z"/>
  <path class="cls-104" d="M747.67,322.13c-4.77.33-7.79,4.41-12.1,5.8-5.9.08-8.28,4.55-10.08,8.92-5.21,12.62-13.13,23.28-22.52,32.98-2.91,3.01-5.16,6.5-7.41,9.98-10.99,15.07-33.36,8.23-49.45,9.86-3.39-.07-4.01-2.82-.58-3.98,11.59-2.66,21.43-19.16,19.28-30.99-3.02-7.06-5.63-15.45-14.4-16.68-1.64-.32-3.6-.26-4.28-2.39,7.4-8.65,11.3-20.25,17.99-28.96,3.32,1.87-1.75,13.44,2.37,12.39,15.85-4.55,32.85-10.32,43.06-24.13,2.28,1.97,2.36,4.89,3.68,7.14-.12,2.12.4,4.1,1.28,6,8.44-6.34,18.12-22.61,22.12-34.18,2.91,13.44.21,26.63-2.96,39.57.89.87,1.59.15,2.13-.21,6.3-4.08,10.91-9.62,14.7-16.04,2.97,1.01-2.45,20.84-2.84,24.92Z"/>
  <path class="cls-104" d="M583.62,369.3c-5.91-.78-16.83-2.76-18.6-9.07-.69-3.15-2.83-5.11-4.11-7.63-6.08-7.93-15.49-11.49-20.58-20.41-5.24-12.13-10.92-24.07-10.37-37.67,7.57,12.57,17.07,23.69,30.35,30.03-6.08-26.53,3-1.47,34.23.63,3.22-.03,3.47-.42,3.52-3.08.53-3.24,1.09-7.98,4.09-9.7,3.62,9.31,3.69,21.34,11.44,29.24.1,1.66-1,2.64-2.16,3.45-11.25,7.62-5.23,21.2-1.06,31.06,5.02,10.11,11.14,13.27,24.93,12.36,2.36-.16,5.2-2.72,7.16.88-13.42,15.16-46.5,9.66-50.54-11.37-1.06-6.4-2.25-7.49-8.3-8.72Z"/>
  <path class="cls-42" d="M606.75,370.11c-13-24.49,15.16-36.4,35.6-34.46,8.82-.2,18.02,3.17,20.84,12.24,5.22,8.3-2.56,12.87-6.01,19.72-12.63,20.59-37.34,25.52-50.43,2.49Z"/>
  <path class="cls-42" d="M563.31,284.94c-10.61-5.53-21.96-18.66-26.13-29.48,12.16-.95,24.81.59,37.07,1.39,4.07.39,7.23,1.8,9.67,5.24,1.5,3.35,12.68,14.34,9.5,16.76-6.76,7.84-11.24,9.51-20.96,7.33-10.26-1.37-14.17-12.94-11.38-22.03.47-.85.35-2.19-.83-2.07-2.78.21-12.4-1.77-9.09,3.45.61,3.25,18.86,19.48,12.14,19.42Z"/>
  <path class="cls-116" d="M540.33,332.19c3.2,3.04,7.57,5.03,9.77,8.97,1.34,3.18,4.82,3.96,7.7,5.19,5.28,1.76.52,5.32,5.64,7.16,4.5,2.17.81,5.19,3.16,7.69,2.71,2.51,8.24,7.7,4.91,11.3-4.51-.74-5.13-7.12-8.84-9.44-2.42-2.54.75-7.12-3.98-8.24-3.59-.58-1.74-5.57-5-6.27-10.24-5.61-17.58-16.04-26.74-23.41.1-4.29,10.86,6.9,13.38,7.04Z"/>
  <path class="cls-84" d="M564.58,283.62c-4.01-4.62-8.31-8.99-11.76-14.06.91-3.21,3.48-2.35,5.64-2.18,2.51.2,2.73,2.09,2.6,4.09.95,10.92,11.8,16.2,21.78,14.05,3.95-.6,6.78-3.61,8.04-7.31.7-1.6,1.47-.31,2.21-.05,1.63.89,3.3,1.76,3.32,3.99.4,1.22,3.7,2.6,1.18,3.64-3.42.62-6.82,1.56-10.26,1.77-6.7-.69-18.99,2.98-22.76-3.94Z"/>
  <path class="cls-124" d="M528.12,323.98c-.39.39-.78.78-1.17,1.17-2.33-1.16-4.15-2.86-5.85-4.8,0,0,.17-.43.17-.43.29-.09.58-.21.85-.34,2.18,1.22,4.34,2.47,6.01,4.4Z"/>
  <path class="cls-77" d="M596.42,282.16c-1.1-1.34-2.59-2.35-3.32-3.99.39-.38.78-.76,1.17-1.14,1.11,1.17,3.8,3.65,2.16,5.12Z"/>
  <path class="cls-111" d="M521.1,320.35c-1.6-.96-2.97-2.15-3.77-3.88,1.99.2,3.97,1.7,4.27,3.69-.15.12-.31.18-.5.19Z"/>
  <path class="cls-90" d="M564.58,283.62c1.35.67,2.31,1.7,2.94,3.06-1.6-.09-3.07-.53-4.2-1.75.42-.44.84-.88,1.26-1.31Z"/>
  <path class="cls-8" d="M689.24,275.29c.35.34.69.68,1.04,1.03-.79.79-2.54,1.63-3.44.68.61-.83,1.39-1.42,2.4-1.7Z"/>
  <path class="cls-109" d="M686.85,276.99c.49.1.97.19,1.46.29-.78.93-1.86.81-2.9.81.23-.69.72-1.05,1.44-1.1Z"/>
  <path class="cls-24" d="M713.28,298.2c.29.04.59.04.88.01.29,1.65-1.07,1.45-.88-.01Z"/>
  <path class="cls-103" d="M597.84,283.59l.7-.3c-.1.24-.19.47-.28.71-.17-.1-.31-.24-.41-.41Z"/>
  <path class="cls-88" d="M517.38,316.51c-.33-.02-.66-.04-.99-.05.37-.7.7-.75.99.05Z"/>
  <path class="cls-46" d="M521.6,320.16c-.12-.4-.24-.8-.36-1.19.29.2.58.41.87.62-.1.26-.27.45-.52.58Z"/>
  <path class="cls-80" d="M740.11,62.06c13.73,19.9,15.97,52.91,20.07,76.75-1.41.06-1.42-1.15-1.77-1.87-5.58-11.49-12.59-23.2-13.66-1.84-3.75.16-3.09-6.57-5.46-8.21-.88-.16-.93.67-1.17,1.21-3.21,6.06-2.82,13.05-4.5,19.34-1.51-.8-.98-2.62-1.87-3.73-.78-5.4-.79-10.82-.11-16.23.28-2.17-.09-3.15-2.66-3.21-12.11.89,10.39-27.93,12.57-32.65-5.03-2.17-10.66,3.65-13.94.89-1.72-3.94,6.48-15.07,9-19.07-2.97-.34-4.42,1.46-7,1.56-4.34-.99-.16-5.93.92-8.15l-.03.03c2.76-2.44,5.6-5.38,9.61-4.82Z"/>
  <path class="cls-80" d="M455.24,163.86c-1.56-.79-1.9-2.72-3.12-3.9,0,0,.02.03.02.03-.58-.53-.42-1.42-.98-1.95l.02.03c-1.07-1.08.06-2.74-.97-3.85-.88-.78-.09-2.12-.96-2.9,0-.63-.02-1.25-.02-1.88-1.12-1.45.2-3.37-.94-4.81,0-.31,0-.63,0-.94.89-.78.08-2.1.93-2.88.01-.63.02-1.26.03-1.88.7-.93,1.18-2,1.93-2.9h-.01c.9-.73,1.96-1.22,2.88-1.92h0c.69-.64,1.45-.59,2.25-.22-.43-.4-1.18-.27-1.45-.91,4.13-1.23,8.35-1.75,12.65-1.69-.02.27-.04.53-.05.8,5.02,1.88,25.64.6,25,7.67.91,1.45,2.34.71,3.47.7,15.62-.02,30.98,4.14,44.57,11.66.31.4.29.79-.06,1.15-10.51-.27-20.41.19-31.33,2.61,3.03,1.83,13.22,7.09,9.26,10.5-8.28-.54-16.02-5.3-24.49-5.98-9.85-1.5-.59-7.88,3.07-11.02-13.28-4.65-26.44-4.94-39.77-2.83-.54-.07-1.11-.11-1.29-.79.06,1.24,1.49.99,1.97,1.78.91.95,1.81,2.14,1.07,3.36-2.43,4.02-2.15,8.75-3.66,13Z"/>
  <path class="cls-60" d="M728.59,74.55c3.36-1.07,6.39-3.31,10.27-3.06-19,33.04-11.21,16.47,4.97,18.69-6.47,10.72-14.29,20.8-18.1,32.83,2.48,1.85,8.63-3.14,7.52,2.38-1.16,6.01-.8,12.06-.66,18.11-.02,1.05,1.31,2.54-.92,2.89-5.81-12.51,4.62-20.91-15.48-16.26-1.79-9.53,9.42-24,14.95-31.63-8.79,1.51-14.65,1.74-8.93-8.78-7.59,6.16-14.34,14.09-20.68,21.74-.79.97-1.59,2.07-3.12,1.86-2.67-6.53,22-36.15,28.08-41.85,2.33-.7.92,2.21,2.1,3.07Z"/>
  <path class="cls-126" d="M518.33,165.99c1.71-3.43-8.78-7.77-10.78-9.94.78-3.4,26.43-5.03,29.03-2.8-6.23.44-11.4,2.28-14.92,5.36,4.29,5.81,9.5,11.25,11.47,18.38,1.38,4.08-7.63,1.49-9.96,2.16.87-1.47,2.9-.39,3.82-1.8.43-.6,1.03-.64,1.68-.52-2.76-1.29-5.88-1.83-8.81-2.76-4.41-1.47-4.42-1.43-2.2-5.8.37-.72.38-1.54.67-2.28Z"/>
  <path class="cls-98" d="M492.33,138.04c-5.29-1.75-10.74-2.87-16.17-4.05,11.95-5.18,46.05,6.58,57.48,13.63-.03,1.69-1.05,1.3-2.05.98-13.54-4.67-27.55-7.66-41.96-7.07-.22-2.37,3.82-1.14,2.7-3.49Z"/>
  <path class="cls-70" d="M716.06,128.39c.04.58.09,1.17.13,1.75-3.95-2.38-5.91-8.08-6.91-12.58-.14-1.46-.81-1.76-2.37-1.41-1.33.08-4.99,1.97-4.32-.69,1.07-1.78,2.91-2.38,4.72-2.99,12.46-5.21,7.21,8.41,8.76,15.92Z"/>
  <path class="cls-85" d="M484.01,132.94c-2.54.46-5.77-.69-7.86,1.05-1.15.13-9.65-.71-8.72-1.93,5.47.46,11.35-.84,16.57.88Z"/>
  <path class="cls-120" d="M702.7,115.86c.32.34.65.67.97,1.01-2.32,1.77-4.88,3.05-7.71,3.76-.07-.21-.14-.43-.21-.64,1.54-2.68,3.6-4.5,6.96-4.13Z"/>
  <path class="cls-105" d="M697.66,111.69c.41.43.83.86,1.24,1.29.45,2.56-.92,4.03-3.01,5.06-2.77-.38.97-5.06,1.77-6.36Z"/>
  <path class="cls-120" d="M695.95,120.63c-.79,1.91-2.83,2.1-4.38,3.66-.15-1.84.48-2.82,1.28-3.73,1.57-.3,1.51-2.64,3.1.07Z"/>
  <path class="cls-108" d="M531.59,148.6c.75-.18,1.59-.18,2.05-.98,1.45.31,2.62,1.17,3.82,1.98.31,2.64-4.85-.15-5.86-1Z"/>
  <path class="cls-55" d="M694.99,119.78c-.66.5-1.46,1.93-2.14.77.54-1.36.9-2.82,2.06-3.85,1.28.91,1.66,2.35.09,3.07Z"/>
  <path class="cls-30" d="M731.68,146.4c.95-.76.54-1.95.92-2.89,1.01,1.14.7,2.62,1.02,3.94-.2.66-.25,1.4-.98,1.77-.32-.94-.64-1.88-.96-2.82Z"/>
  <path class="cls-91" d="M669.89,110.84c.36.38.73.76,1.09,1.14-.93.79-1.61,3.83-3.09,2.89.34-1.5.93-2.89,1.99-4.04Z"/>
  <path class="cls-31" d="M727.85,72.79c-.45-.43-.9-.87-1.35-1.3.7-.9,1.4-1.8,2.1-2.7,2.36-1.1.24,4.66-.75,4Z"/>
  <path class="cls-38" d="M536.34,150.63c.37-.34.75-.69,1.12-1.03,5.6,2.68,2.67,3.95-1.12,1.03Z"/>
  <path class="cls-43" d="M729.73,69.69c-.38-.3-.76-.6-1.14-.9.3-.99.99-1.58,1.93-1.93-.05,1,.2,2.09-.79,2.83Z"/>
  <path class="cls-23" d="M667.9,114.88c.38-.01.75-.03,1.13-.04-.43,1.92-2.92,1.49-1.13.04Z"/>
  <path class="cls-106" d="M540.41,152.43c0-.35,0-.7,0-1.05,1.47.36,2.12,1.89,0,1.87-.01-.27-.01-.55,0-.82Z"/>
  <path class="cls-43" d="M731.53,65.9c-.34.33-.69.66-1.03.99.34-.33.69-.66,1.03-.99Z"/>
  <path class="cls-6" d="M442.4,1017.33c1.69,6.82,3.26,13.66,5.1,20.44,1.21,4.48.26,4.69,5.65,4.11,13.03-1.22,26.03-2.88,39.1-3.62,2.03.08,4.4-1.77,5.94,1.07-20.48,6.93-40.88,14.56-61.55,20.74-.21-13.89,3.22-28.56,4.12-42.72.54-.65,1.09-.64,1.65-.02Z"/>
  <path class="cls-119" d="M498.18,1039.34c-1.44-1.64-4-.7-5.94-1.07,2.46-1.31,5.18-.64,7.76-1.03,1.03,0,2.5-1.26,2.75.97-1.52.38-3.05.76-4.57,1.14Z"/>
  <path class="cls-48" d="M502.75,1038.2c-.67-1.02-1.84-.63-2.75-.97,1.49-1.08,3.16-.72,5.11-.75-.5,1.31-1.36,1.6-2.36,1.71Z"/>
  <path class="cls-94" d="M442.4,1017.33c-.55,0-1.1.01-1.65.02-1.06-3.22,2.25-2.91,1.65-.02Z"/>
  <path class="cls-42" d="M517.78,921.61c6.61-38.22-3.54-25.09,36.41-31.55,4.19-1.05-2.26,22.64-1.96,26.27-.3,1.92-.4,1.97-2.43,2.22-10.62.62-21.62,3.98-32.02,3.06Z"/>
  <path class="cls-42" d="M527.9,865.64c4.35-30.79-.7-19.22,32.61-24.99,4.91-2.21-.47,16.58-.12,19.51-.51,3.96-6.21,2.22-9.06,3.17-7.95.7-15.38,2.18-23.42,2.3Z"/>
  <path class="cls-42" d="M804.58,863.51c-5.82,35.95,3.74,22.94-35.83,29.64-4.81,2.16,2.11-22.66,1.82-25.92.4-2.38.48-2.4,3.03-2.7,9.66-1.19,19.34-2.16,28.98-3.48,1.71-.2,2.09.13,2,2.47Z"/>
  <path class="cls-42" d="M776.8,836.26c1.34-3.76,1.2-22.29,5.17-21.45,9.52-.99,19-2.51,28.55-3.12,2.95.34-1.71,16.73-1.4,20.11-.16,1.2-1.06,1.52-2.02,1.65-10.11.69-20.28,3.7-30.3,2.81Z"/>
  <path class="cls-42" d="M294.13,922.1c-5.92,37.03,3.79,23.98-36.36,30.64-4.13.41,2.57-22.45,2.25-26.4.19-1.22.53-2.05,1.97-2.22,4.12.44,33.56-6.1,32.14-2.03Z"/>
  <path class="cls-42" d="M301.22,871.84c-.9,6.46-1.81,13.07-2.73,19.68-.1.7-.54,1.14-1.21,1.3-10.25.96-20.89,3.82-31.01,2.96,1.51-4.3.86-20.44,4.88-21.43,8.89-.98,17.76-2.03,26.65-3.01,1.06-.12,2.22-.54,3.42.51Z"/>
  <path class="cls-6" d="M647.11,207.11c-1.85,9.28,0,20.65-9.16,26.37-.59-10.04,2.59-20.35,3.33-30.52.48-5.46,2.54-9.16-1.38-13.77,2.97.17,7.77-2.83,9.11.73,2.44,4.9,2.8,11.38,6.48,15.31,1.2-3.58.62-19.11,4.51-18.61,4.3-.97,4.63-.63,4.02,3.87-1.4,9.95-2.57,19.94-4.05,29.88-.46,2.06-2.15,3.12-4.26,2.72-1.98-.75-1.96-3.57-2.9-5.24-1.29-1.65-3.28-13.59-5.7-10.75Z"/>
  <path class="cls-6" d="M561.36,207.82c4.6-5.37,7.01-15.25,15.66-13.91.64,1.08-.25,1.76-.73,2.47-3.86,5.69-7.8,11.32-11.62,17.03-2.47,3.7-2.64,2.67-.47,6.75,1.2,3.79,12.25,19.63,10.02,21.37-9.99-.21-11.19-11.14-16.14-17.75-2.49,3.91.53,9.9-3.45,12.2-4.76,1.01-5.17,1.18-4.59-3.74,1.16-8.86,2.11-17.77,3.62-26.57.44-2.1-1.19-3.13-2.01-4.49.59-1.28,1.68-.8,2.5-1.01,4.25-.86,7.45-1.91,6.3,3.85-.06,1.35-1.78,3.09.9,3.79Z"/>
  <path class="cls-75" d="M597.01,238.38c-10.12-5.22-5.07-15.37-10.79-13.76-2.61.22-4.22,1.26-5.03,4.1-1.51,5.29-1,3.71-5.84,4.86-.63.15-1.26.12-2-.57,3.54-10.07,7.3-20.36,10.95-30.45.99-2.76.95-2.78-.89-5.59.71-1.13,1.97-.76,2.96-.96,5.27-1.02,5.26-.91,5.89,4.31,1.53,12.77,3.39,25.2,4.74,38.05Z"/>
  <path class="cls-6" d="M636.11,234.41c-4.36-4.44-7.79-7.07-7.7-13.17-.73-3.17-7.38-1.78-7.8,1.26-.92,2.49-1.03,5.77-4.5,5.8-3.75.24-4.25.71-2.68-3.61,1.04-6.03,13.85-30.27,8.75-32.62,2.19-1.26,8.72-3.03,8.59.73,2.08,14.34,3.53,26.54,5.34,41.61Z"/>
  <path class="cls-75" d="M615.03,197.58c-1.71.35-4.4-.04-4.67,2.29-1.57,8.95-2.46,18.02-3.64,27.03-.48,4.53-4.67,7.39-7.03,11.01-2.23-1.62,1.83-17.13,1.73-21.06.02-4.31,6.19-25.44-3.4-14.66-2.89-.11-.4-3.92-.77-5.74-1.02-3.03,17.82-4.2,20.39-4.06.98,2.07-.4,3.97-.45,5.97-1.04.64-1.41-.58-2.15-.78Z"/>
  <path class="cls-117" d="M561.36,207.82c-1.97,4.3-2.41-2.41-.9-3.79.48,1.22-.39,2.76.9,3.79Z"/>
  <path class="cls-22" d="M596.96,199.28c.38.96-.22,2.26,1.05,2.9-1.85,3.62-2.7-1.53-1.05-2.9Z"/>
  <path class="cls-19" d="M647.11,207.11c-.66-3.04,1.63-2.78,1.72-.03-.57,0-1.15.02-1.72.03Z"/>
  <path class="cls-119" d="M615.03,197.58c.72.26,1.43.52,2.15.78.35,2.94-1.84.75-2.15-.78Z"/>
  <path class="cls-25" d="M583.62,369.3c6.13-3.83,9.2,4.07,9.7,8.8.87,10.71,11.17,14.43,19.7,17.83,8.86,3.29,19.25.27,26.62-5.29.68-.62,1.7-.87,2.56-1.28,1.2-.96,2.74.04,3.98-.71,12.64-1.36,38.14,3.36,46.46-7.02,3.92-6.5,8.64-12.2,14.08-17.46,5.74-6.88,10.82-14.24,15.29-22.01.87-1.52,1.67-3.04,2.07-4.81.8-3.88,7.77-14.42,11.51-9.43,3.9,6.79-.65,12.85-7.24,15.22-2.71.54-4.37,2.3-5.81,4.58-5.34,7.91-9.92,16.5-16.57,23.42-3.95,3.8-7.17,8.12-9.35,13.2-2.18,4.81-5.68,9.55-11.61,9.03-14.51.19-30.26-2.85-44.14,1.73-2.93,1.92-5.84,3.91-9.5,4.27-2.34.82-4.44,2.77-7.16,2.3-1.68-.12-2.98.43-4.29,1.58-6.28,7.25-6.67-4.1-12.64-5.16-10.48-1.68-11.71-9.49-18.37-15.53-1.65-.78-2.18-2.25-2.13-3.96.53-3.69-3.49-5.75-3.14-9.29Z"/>
  <path class="cls-97" d="M746.83,63.01c.36.29.72.59,1.08.88-.54-.07-.9-.37-1.08-.88Z"/>
  <path class="cls-60" d="M119.05,465.25c-20.37,20.87-25.26,12.71-31.81-11.52-.04-7.15,10.53-10.2,15.67-13.72,11.15-6.83,16.68,17.48,16.14,25.24Z"/>
  <path class="cls-60" d="M518.33,165.99c.66.69,2.46,1.24,1.53,2.4-.92,1.17-3.51,1.34-2.91,3.19.48,1.48,2.78,1.1,4.25,1.61,3.44,1.19,6.89,2.29,10.62,4.59-11.64-1.88-22.6-4.33-34.47-4.38-.8-2.26,1.96-2.65,2.35-4.65-5.53-2.79-11.59-3.97-17.63-5.29-9.63-.54-8.19-5.64-1.1-9.62-8.3-.13-20.56-3.12-22.48,7.96-.44,1.63-.07,3.6-1.8,4.76-.87-.69-.44-2.09-1.47-2.7-2.33-8.93,5.63-13.19,1.61-16.23-.36-.62-1.48-.91-.84-1.95,13.7-2.89,27.24-2.05,40.62,1.91,4.91,1.25,3.19,2.36-.26,4.08-1.74,1.17-9.22,5.82-4.72,7.15,9.18,1.33,18.03,3.92,26.7,7.16Z"/>
  <path class="cls-80" d="M456.7,166.56c-.69-16.44,14.1-15.93,26.18-13.33.09,1.47-1.11,1.52-1.8,1.98-2.11,1.4-4.2,2.79-5.62,4.84,1.13,1.79,3.13,1.23,4.82,1.82,7.55,1.83,16.1,2.65,22.6,6.99-1.68,1.84-4.32,2.33-5.52,4.54-15.61.92-24.45-4.24-15.72,15.67-7.24-3.4-14.22-11.87-16.47-21.18-2.46,5.59,2.57,11.82.43,15.12-1.13-.73-.86-2.11-1.96-2.87,0,0,0,0,0,0-2.22-4.54-6.16-8.49-6.94-13.57Z"/>
  <path class="cls-59" d="M464.64,181.97c.32.35.64.69.96,1.04-.32-.35-.64-.69-.96-1.04Z"/>
  <path class="cls-59" d="M463.63,180.14c.3.32.6.65.9.97-.3-.32-.6-.65-.9-.97Z"/>
  <path class="cls-74" d="M454.84,132.95c.47.06.83.35,1.22.6-.5.67-1.27.51-2.01.55-.01-.31-.02-.63-.01-.94.25-.13.52-.2.81-.2Z"/>
  <path class="cls-7" d="M448.29,144.62c1.53,1.37.73,3.19.94,4.81-1.57-1.36-.74-3.19-.94-4.81Z"/>
  <path class="cls-74" d="M454.05,134.09c-.56,1.25-1.52,1.89-2.89,1.93.51-1.32,1.48-1.95,2.89-1.93Z"/>
  <path class="cls-27" d="M451.18,136.01c-.03,1.37-.71,2.31-1.93,2.9-.02-1.41.6-2.38,1.93-2.9Z"/>
  <path class="cls-7" d="M449.22,140.79c-.02,1.05.17,2.18-.93,2.88.01-1.06-.19-2.18.93-2.88Z"/>
  <path class="cls-7" d="M449.25,151.31c1.08.71.93,1.84.95,2.9-1.17-.69-.94-1.83-.95-2.9Z"/>
  <path class="cls-59" d="M451.16,158.04c.79.42.94,1.16.98,1.95-.81-.41-.96-1.15-.98-1.95Z"/>
  <path class="cls-59" d="M451.13,156.16c.02.63.03,1.27.05,1.9-.77-.4-.94-1.12-.97-1.9.31-.44.61-.46.92,0Z"/>
  <path class="cls-7" d="M451.13,156.16c-.23-.01-.69,0-.92,0,0-.65,0-1.3,0-1.95.76.44.93,1.15.92,1.95Z"/>
  <path class="cls-80" d="M646.17,388.65c-1.22.82-2.58.87-3.98.71-.89-.96-1.9-.75-3-.34-15.02,4.37-29.43-3.25-32.44-18.92,9.18,10.14,20.18,19.57,33.97,10.91,11.08-4,14.96-14.83,21.73-23.3,1.89-1.86,1.77-4.32,1.86-6.7,5.19,7.05.1,16.95-3.09,23.74-2.58,7.67-11.31,9.54-17.38,13.29.8.21,1.55.4,2.31.6Z"/>
  <path class="cls-115" d="M561.46,273.26c-1.17-.93-.71-2.35-1.08-3.51-.65-1.92-6.2-1.83-7.56-.19-11.63-12.76,1.92-8.1,10.66-8.54-.04.6.06.98-.1,1.2-2.49,3.29-1.81,7.22-1.92,11.04Z"/>
  <path class="cls-28" d="M570.72,267.98c.05,3.02-3.13,6.2-4.88,2.42-2.71-5.28,4.24-10.16,4.88-2.42Z"/>
  <path class="cls-52" d="M727.85,72.79c.24-.07.49-.12.73-.17,0,.65,0,1.29.01,1.94-1.15,1.16-.89-1.13-.74-1.77Z"/>
  <path class="cls-52" d="M730.58,73.65c-.24.45-.58.73-1.12.67.22-.48.59-.72,1.12-.67Z"/>
  <path class="cls-56" d="M492.33,138.04c2.99-.12,1.22,2.4-.89,1.73.3-.58.59-1.15.89-1.73Z"/>
  <path class="cls-11" d="M456,145.68c.28.65.56,1.3.84,1.95-1.52-.08-3.81-1.93-.84-1.95Z"/>
  <path class="cls-66" d="M694.99,119.78c6.34-12.15,16.63-22.05,26.8-31.08.91-.07,1.37.31,1.24,1.26-5.43,13.3.72,6.45,9.14,7.65.55.72.17,1.2-.23,1.7-7.24,8.65-11.88,18.64-15.89,29.08-1.76-4.24-2.18-9.6-1.55-14.33.27-1.33-.61-1.99-2.03-1.66-5.97,1.39-12.3,3.59-16.53,8.24-.32-.28-.64-.56-.96-.84Z"/>
  <path class="cls-15" d="M723.03,89.96c-.41-.42-.83-.84-1.24-1.26,2.55-3.64,3.86-1.29,1.24,1.26Z"/>
  <path class="cls-10" d="M588.32,211.88c.14,2.76,2.69,7.78-1.94,7.55-1.33.08-1.84-.45-1.45-1.67.97-1.56,1.02-6.45,3.39-5.88Z"/>
  <path class="cls-3" d="M588.32,211.88c-.55.31-1.1.61-1.65.92-.16-1.56,1.6-3.93,1.65-.92Z"/>
  <path class="cls-53" d="M626.59,205.18c1.8,3.41,2.88,10.99-2.62,9.13-.58-2.87,1.49-5.93,2.62-9.13Z"/>
  <path class="cls-26" d="M616.49,403.27c-1.02-.2-1.38-.72-1.56-1.34-.05-1.98,5.29-.02,1.56,1.34Z"/>
  <path class="cls-69" d="M114.12,461.23c-1.06,5.07-7.53,7.45-11.48,10.25-5.05,2.52-8.42-13-9.71-16.63-.79-4.91,8.74-7.2,11.9-10.23,5.61-2.05,8.1,12.67,9.28,16.6Z"/>
</svg>