<?xml version="1.0" encoding="UTF-8"?>
<svg id="Layer_1" data-name="Layer 1" xmlns="http://www.w3.org/2000/svg" xmlns:xlink="http://www.w3.org/1999/xlink" viewBox="0 0 1080 1080">
  <defs>
    <style>
      .cls-1 {
        fill: url(#linear-gradient);
      }

      .cls-1, .cls-2, .cls-3, .cls-4, .cls-5 {
        stroke-width: 0px;
      }

      .cls-2 {
        fill-rule: evenodd;
      }

      .cls-2, .cls-5 {
        fill: #fbfbfb;
      }

      .cls-3 {
        fill: url(#linear-gradient-2);
      }

      .cls-4 {
        fill: #fff;
      }

      .cls-6 {
        filter: url(#outer-glow-1);
      }
    </style>
    <linearGradient id="linear-gradient" x1=".54" y1="540.25" x2="1079.36" y2="540.25" gradientTransform="translate(517.89 1303.63) rotate(-133.38)" gradientUnits="userSpaceOnUse">
      <stop offset="0" stop-color="#4dc995"/>
      <stop offset="1" stop-color="#1f7054"/>
    </linearGradient>
    <filter id="outer-glow-1" filterUnits="userSpaceOnUse">
      <feOffset dx="0" dy="0"/>
      <feGaussianBlur result="blur" stdDeviation="19"/>
      <feFlood flood-color="#fff" flood-opacity=".75"/>
      <feComposite in2="blur" operator="in"/>
      <feComposite in="SourceGraphic"/>
    </filter>
    <linearGradient id="linear-gradient-2" x1="94.39" y1="540.41" x2="985.18" y2="540.41" gradientTransform="translate(1303.18 562.14) rotate(136.62)" xlink:href="#linear-gradient"/>
  </defs>
  <circle class="cls-1" cx="539.68" cy="540.12" r="539.41"/>
  <g class="cls-6">
    <path class="cls-4" d="m539.98,1011.02c-4.53,0-9.06-.06-13.6-.19-61.12-1.73-120.39-15.01-176.14-39.48-57.74-25.34-109.15-61.6-152.8-107.8-43.66-46.2-76.96-99.57-99-158.65-21.28-57.05-31.19-116.97-29.46-178.09,1.73-61.12,15.01-120.39,39.48-176.14,25.34-57.74,61.6-109.15,107.8-152.8,46.2-43.66,99.57-76.96,158.65-99,57.05-21.28,116.96-31.19,178.09-29.46,61.12,1.73,120.39,15.01,176.14,39.48,57.74,25.34,109.15,61.6,152.8,107.8s76.96,99.57,99,158.65c21.28,57.05,31.19,116.97,29.46,178.09-1.73,61.12-15.01,120.39-39.48,176.14-25.34,57.74-61.6,109.15-107.8,152.8-46.2,43.66-99.57,76.96-158.65,99-52.81,19.7-108.08,29.66-164.49,29.66Zm-.57-890.8c-50.32,0-99.6,8.88-146.69,26.44-52.65,19.64-100.23,49.34-141.44,88.28s-73.55,84.78-96.13,136.23c-21.81,49.71-33.66,102.56-35.2,157.09-1.54,54.53,7.3,107.96,26.27,158.83,19.64,52.65,49.34,100.23,88.28,141.44,38.94,41.21,84.78,73.55,136.23,96.13,49.71,21.81,102.56,33.66,157.09,35.2,54.53,1.55,107.96-7.3,158.83-26.27,52.65-19.64,100.23-49.34,141.44-88.28,41.21-38.94,73.55-84.78,96.13-136.23,21.81-49.71,33.66-102.56,35.2-157.09,1.54-54.52-7.3-107.96-26.27-158.83-19.64-52.65-49.34-100.23-88.28-141.44-38.94-41.21-84.78-73.55-136.23-96.13-49.71-21.81-102.56-33.66-157.09-35.2-4.05-.11-8.1-.17-12.14-.17Z"/>
  </g>
  <circle class="cls-3" cx="539.68" cy="540.12" r="445.4"/>
  <g>
    <path class="cls-5" d="m442.92,422.95l73.76-99.6-41.89-56.5c-10.23-13.66-29.83-16.59-43.61-6.52l-44.97,33.3c-7.97,5.88-12.68,15.22-12.68,25.12,0,6.71,2.16,13.25,6.17,18.63l63.23,85.57Z"/>
    <path class="cls-5" d="m811.13,721.27l-177.23-239.46-73.83,99.68,155.75,210.31c9.35,12.27,27.01,14.89,39.53,5.87l50.13-36.88c12.19-9.41,14.72-27.07,5.66-39.53Z"/>
    <path class="cls-2" d="m697.68,336.91c10.09-13.63,7.21-32.88-6.41-42.97l-45.93-34c-13.63-10.09-32.88-7.21-42.97,6.41l-335.21,452.84c-10.08,13.63-7.21,32.88,6.41,42.97l45.93,34c13.63,10.09,32.88,7.21,42.97-6.41l335.21-452.84Z"/>
    <path class="cls-5" d="m538.37,804.83c37.18,0,67.31-30.14,67.31-67.31s-30.14-67.31-67.31-67.31-67.31,30.14-67.31,67.31,30.14,67.31,67.31,67.31Z"/>
  </g>
</svg>