<?xml version="1.0" encoding="utf-8"?>
<!-- Generator: Adobe Illustrator 26.2.1, SVG Export Plug-In . SVG Version: 6.00 Build 0)  -->
<svg version="1.1" id="Layer_1" xmlns="http://www.w3.org/2000/svg" xmlns:xlink="http://www.w3.org/1999/xlink" x="0px" y="0px"
	 viewBox="0 0 100 100" style="enable-background:new 0 0 100 100;" xml:space="preserve">
<style type="text/css">
	.st0{fill:#31CB9E;}
	.st1{fill:#FFFFFF;}
</style>
<path class="st0" d="M50,100c27.6,0,50-22.4,50-50S77.6,0,50,0S0,22.4,0,50S22.4,100,50,100z"/>
<path class="st1" d="M44.6,54.7L74,70.5c1,0.5,1.1,1.8,0.2,2.4L54.3,87.2c-0.9,0.7-2.2,0.2-2.5-0.9L44.6,54.7z M43.7,14.4
	c1.2-0.8,2.8,0.1,2.5,1.5L38.3,50l7.8,34.1c0.3,1.3-1.3,2.3-2.5,1.5l-20-14.3c-1-0.7-1.6-1.9-1.6-3.1V31.8c0-1.2,0.6-2.4,1.6-3.1
	L43.7,14.4z M75.9,33.9c1-0.6,2.4,0.1,2.4,1.3v29.6c0,1.1-1.3,1.8-2.4,1.3L46,50L75.9,33.9z M51.8,13.7c0.2-1.1,1.6-1.5,2.5-0.9
	L74.2,27c0.9,0.6,0.8,1.9-0.2,2.4L44.6,45.3L51.8,13.7z"/>
</svg>
