<?xml version="1.0" encoding="UTF-8"?>
<svg id="Layer_2" data-name="Layer 2" xmlns="http://www.w3.org/2000/svg" viewBox="0 0 744 744">
  <defs>
    <style>
      .cls-1 {
        fill: #fb2b50;
      }

      .cls-1, .cls-2, .cls-3, .cls-4, .cls-5, .cls-6, .cls-7, .cls-8, .cls-9, .cls-10, .cls-11 {
        stroke-width: 0px;
      }

      .cls-3 {
        fill: #ff6f03;
      }

      .cls-4 {
        fill: #060502;
      }

      .cls-5 {
        fill: #db7326;
      }

      .cls-6 {
        fill: #eead4e;
      }

      .cls-7 {
        fill: #fff;
      }

      .cls-8 {
        fill: #172852;
      }

      .cls-9 {
        fill: #f5b52b;
      }

      .cls-10 {
        fill: #b41a35;
      }

      .cls-11 {
        fill: #fdd73d;
      }
    </style>
  </defs>
  <g id="BACKGROUND">
    <g id="CIRCLES">
      <circle id="Inner_Circle" data-name="Inner Circle" class="cls-8" cx="372" cy="372" r="372"/>
      <g id="Luna_Logo" data-name="Luna Logo">
        <g id="Luna_Yellow" data-name="Luna Yellow">
          <path id="Top" class="cls-11" d="m250.94,120.06c-7.77,8.11-6.4,13.83-5.94,18.56,4.56,20.61,25.74,31.15,42.48,41.04,71.72,37.12,151.04,55.93,226.83,82.9,15.27,40.19,48.65,70.76,81.41,97.73,18.19,13.97,35.61,29.75,56.97,38.91.86-8.95,1.31-18.01,1.31-27.19,0-155.74-126.26-282-282-282-38.2,0-74.62,7.61-107.85,21.38-7.73,3.56-9.13,4.42-13.21,8.68Z"/>
          <path id="Bottom" class="cls-11" d="m535.38,475.77c-95.51,1.57-189.38-40-255.28-107.72-54.22-55.46-87.32-128.93-97.32-205.14-56.98,51.6-92.78,126.16-92.78,209.09,0,155.74,126.26,282,282,282,123.94,0,229.21-79.96,267.03-191.12-34.22,6.65-68.57,13.97-103.65,12.89Z"/>
        </g>
        <path id="Luna_Orange" data-name="Luna Orange" class="cls-3" d="m645.25,310.36c-40.92-19.76-84.72-32.02-128.79-42.51,16.1,37.6,47.95,66.66,79.26,92.43,18.19,13.97,35.61,29.75,56.97,38.91.86-8.95,1.31-18.01,1.31-27.19,0-20.84-2.28-41.14-6.57-60.69l-2.19-.95Z"/>
      </g>
      <circle id="Right_Side_Circle" data-name="Right Side Circle" class="cls-9" cx="698" cy="372" r="24"/>
      <circle id="Left_Side_Circle" data-name="Left Side Circle" class="cls-9" cx="46" cy="372" r="24"/>
    </g>
    <g id="TEXT">
      <g id="Inu">
        <path class="cls-9" d="m308.8,662.96c-.52-.26-1.19-.52-1.99-.75l-.16-.04-.63.02-.12-.19-.28-.12c-1.16-.51-2.16-.91-2.96-1.17-.81-.27-1.46-.45-1.99-.56-.54-.11-.97-.17-1.32-.19-.2,0-.39-.04-.55-.08-2.76-.81-5.49-1.59-8.19-2.35-2.69-.76-5.4-1.53-8.13-2.33-.4-.12-.79-.2-1.15-.23-.3-.04-1.32-.03-1.72,1.34l-7.52,25.74c-1.09,3.25-2.16,6.64-3.19,10.09-1.02,3.44-2.04,6.8-3.05,10.09l-.31,1.06c-.14.49-.28,1.03-.41,1.62-.13.59-.24,1.19-.33,1.81-.1.66-.13,1.3-.09,1.89.04.67.2,1.26.46,1.78.33.63.88,1.08,1.59,1.28.32.09.98.28,1.97.55l3.12.87c1.09.31,2.08.58,2.94.82.93.26,1.31.35,1.51.38l8.42,2.46.05-.18c.25.2.56.36.95.47l.23.07s.31.08.84.2l1.78.41c.7.16,1.44.33,2.22.52.76.18,1.44.36,2.04.53l.59.17.42-.45c.46-.5.92-1.29,1.39-2.41.43-1.02.88-2.27,1.35-3.7.46-1.41.94-2.96,1.46-4.64.52-1.67,1.07-3.4,1.65-5.19v-.02c.03-.07.16-.49.42-1.26.26-.8.58-1.8.96-2.97.37-1.17.78-2.42,1.23-3.75.45-1.35.86-2.61,1.24-3.79.37-1.17.68-2.14.94-2.92l.1-.32c.19-.59.29-.9.3-.92l4.65-15.94c.44-1.49.71-2.66.83-3.56.14-1.01.1-1.82-.13-2.48-.26-.74-.75-1.31-1.45-1.66Z"/>
        <path class="cls-9" d="m385.37,672.05c-.43-.38-.97-.65-1.62-.81-.54-.13-1.18-.22-1.89-.26-.06,0-.39-.03-.99-.09-.62-.06-1.39-.12-2.3-.2-.91-.07-1.89-.16-2.95-.26-1.06-.1-2.05-.18-2.97-.26-.91-.07-1.68-.14-2.31-.2-.64-.06-1.01-.09-1.1-.09l-4.75-.31c-.6-.08-1.19-.03-1.75.13-.52.15-1,.35-1.43.6-.39.23-.74.46-1.05.7-.28.22-.49.39-.61.49-.32.28-.42.64-.55,1.65-.08.64-.18,1.48-.29,2.52-.11,1.04-.22,2.21-.34,3.51l-.35,3.97c-.12,1.35-.23,2.67-.33,3.96,0,.07-.01.15-.02.22l-5.98-10.4c-.82-1.43-1.57-2.72-2.24-3.88-.68-1.16-1.26-2.13-1.74-2.91-.48-.77-.8-1.28-.95-1.51-.45-.71-1.31-1.13-2.62-1.29-1.02-.12-2.41-.2-4.13-.21-1.69-.02-3.71-.03-6.05-.05-2.3-.02-4.94-.12-7.84-.32-.56-.04-1.14-.04-1.73,0-.67.04-1.28.19-1.84.45-.64.3-1.13.76-1.47,1.38-.33.6-.44,1.35-.35,2.25-.11,2.89-.3,5.81-.56,8.69-.26,2.93-.51,5.84-.75,8.76-.24,2.91-.43,5.86-.58,8.79-.15,2.93-.16,5.9-.03,8.82-.05.82-.11,1.81-.16,2.97l-.33,7.44c-.06,1.25-.1,2.38-.12,3.38l-.06,2.43c-.01.45-.02.88.07,1.23h-.01s.35,1.25.35,1.25l4.27,1.33.23.04c.05,0,.25.02.65.06.44.04.94.08,1.5.12.54.04,1.1.08,1.67.13.59.05,1.06.09,1.43.12,2.27.15,4.5.2,6.54.23,2.03,0,4.17-.01,6.42-.03.72.11,1.25.11,1.67,0,.56-.15.98-.49,1.22-.98.18-.37.27-.81.26-1.32,0-.32,0-.71.04-1.15.02-.3.06-.84.13-1.62.07-.79.14-1.68.22-2.69.08-1,.17-2.08.28-3.22.1-1.15.2-2.25.28-3.3.08-1.05.16-1.98.23-2.81.02-.27.04-.51.06-.73.25.41.51.86.77,1.34.37.69.72,1.35,1.05,1.98.33.62.54,1.03.68,1.31l7.81,12.71.1.13c.58.67,1.25,1.17,1.97,1.49.66.29,1.32.5,1.95.62.63.12,1.23.16,1.79.17.47,0,.86,0,1.16.02,1.63.11,3.35.23,5.17.36,1.82.13,3.5.25,5.04.36,1.53.1,2.78.19,3.77.27l.45.04h0s1.01.08,1.01.08c.25.02.48.03.7.03.3,0,.57-.02.82-.05.63-.08,1.18-.4,1.6-.94.35-.45.62-1.12.84-2.03.19-.8.35-1.91.51-3.39.15-1.41.3-3.18.47-5.41.16-2.17.34-4.84.55-8.02h0c.03-.41.09-1.33.2-2.75.11-1.42.23-3.11.36-5.06.13-1.94.28-4,.45-6.18.17-2.18.32-4.24.45-6.16.13-1.92.24-3.57.35-4.98.11-1.41.17-2.3.2-2.66.03-.41-.01-.82-.12-1.22-.06-.21-.07-.34-.06-.42.01-.2.05-.5.12-.89.07-.44.14-.9.22-1.39.07-.47.14-.92.21-1.33.08-.46.12-.78.13-.96.06-.89,0-1.62-.16-2.21-.18-.66-.5-1.2-.95-1.6Z"/>
        <path class="cls-9" d="m473.28,709.47c-.9-4.17-1.74-8.34-2.51-12.38-.78-4.11-1.54-8.21-2.3-12.3-.76-4.1-1.53-8.21-2.3-12.33-.79-4.16-1.64-8.37-2.53-12.49-.09-.4-.27-.78-.55-1.11-.33-.4-.88-.65-1.71-.8-.63-.11-1.5-.17-2.65-.17-1.17,0-2.72.09-4.83.31-.94.17-1.77.31-2.53.42-.65.11-1.26.22-1.81.31-.59.1-.94.16-1.05.18l-.1.03c-.48.16-1.28.38-2.39.68-1.12.3-2.32.62-3.58.96-1.25.34-2.44.65-3.58.94-1.12.29-1.97.49-2.53.61-.82.18-1.45.36-1.93.56-.58.25-1.03.57-1.32.97-.32.43-.48.93-.47,1.49,0,.41.07.9.19,1.48l.16.75c.09.41.21.89.36,1.46.15.56.32,1.17.52,1.81.19.63.41,1.25.65,1.86l7.08,32.75c-.5.45-1.03.87-1.57,1.26-.6.42-1.29.85-2.04,1.28-.69.39-1.43.67-2.2.83-.15.03-.3.07-.52-.49-.33-.85-.71-2.28-1.14-4.24-.78-3.59-1.43-6.75-2-9.66-.58-2.95-1.11-5.74-1.59-8.35-.48-2.62-.94-5.09-1.39-7.41-.44-2.3-.91-4.6-1.39-6.84-.24-1.11-.48-1.99-.72-2.7-.28-.81-.64-1.45-1.09-1.92-.47-.49-1.06-.84-1.76-1.05-.6-.18-1.33-.29-2.3-.35-1.88.04-3.75.16-5.56.38-1.8.22-3.59.5-5.31.82-1.69.33-3.41.69-5.09,1.08-1.65.38-3.29.75-4.9,1.1-.79.17-1.5.42-2.13.75-.95.5-1.36,1.38-1.14,2.42.15.68.35,1.32.6,1.9.2.46.36.97.48,1.52.5,2.33.96,4.7,1.35,7.05.39,2.34.76,4.66,1.1,6.96.34,2.31.7,4.6,1.08,6.85.37,2.25.8,4.51,1.28,6.72.5,2.29,1.02,4.52,1.56,6.64.56,2.17,1.24,4.22,2.03,6.08.8,1.89,1.78,3.6,2.9,5.09,1.15,1.53,2.58,2.78,4.24,3.71,1.66.93,3.62,1.52,5.83,1.75.58.06,1.18.09,1.81.09,1.75,0,3.7-.23,5.81-.69,1.73-.37,3.49-.88,5.22-1.5,1.72-.62,3.41-1.34,5.03-2.15,1.61-.81,3.18-1.7,4.67-2.65,1.15-.74,2.25-1.5,3.29-2.29.59.79,1.3,1.35,2.12,1.66,1.08.41,2.42.45,4.02.11,2.76-.71,5.35-1.38,7.75-2.01,1.03-.25,2.06-.51,3.12-.78,1.05-.27,2.03-.52,2.96-.77.92-.24,1.74-.45,2.47-.62s1.3-.3,1.7-.39c1.37-.3,2.32-.9,2.83-1.8.49-.86.59-2,.3-3.38Z"/>
      </g>
      <g id="Luna">
        <path class="cls-9" d="m269.19,89.12l-6.85-14.8c-.28-.61-.83-1.05-1.62-1.31-.77-.25-1.55-.19-2.34.17-2.21,1.02-4.32,2.02-6.32,2.97-1.99.95-3.88,1.84-5.66,2.66-.37.17-.59.25-.73.29l-4.89-10.56c-.77-1.67-1.58-3.4-2.42-5.18-.84-1.78-1.72-3.64-2.65-5.57-.01-.03-.13-.24-.37-.64-.21-.34-.44-.72-.72-1.15-.26-.4-.49-.78-.71-1.15-.2-.35-.33-.58-.4-.72-.04-.09-.11-.29-.22-.61-.12-.35-.24-.74-.36-1.15-.13-.45-.26-.86-.39-1.25-.14-.42-.24-.68-.28-.77-.55-1.2-1.12-2.04-1.75-2.56-.68-.57-1.43-.87-2.23-.89-.73-.01-1.49.16-2.32.53-.7.31-1.48.66-2.34,1.06-1.55.72-2.95,1.35-4.2,1.9l-3.84,1.69c-1.31.57-2.75,1.21-4.33,1.91-1.58.7-3.49,1.57-5.7,2.59-1.11.52-1.47,1.37-1.57,1.99-.11.69-.07,1.44.13,2.23.18.71.44,1.44.77,2.15l.79,1.7c.5,1.46,1.21,3.26,2.11,5.34.9,2.08,1.92,4.37,3.03,6.8,1.11,2.43,2.27,4.94,3.48,7.52,1.21,2.58,2.36,5.05,3.45,7.41l7.86,16.99c.17.38.45.71.81.98.31.24.66.43,1.03.57.37.14.76.21,1.15.23.06,0,.11,0,.17,0,.4,0,.76-.08,1.09-.23,2.13-.99,4.12-1.9,5.97-2.74,1.85-.84,3.67-1.66,5.46-2.46,1.8-.8,3.63-1.63,5.49-2.47s3.88-1.77,6.04-2.77l11.26-5.21c1.42-.66,2.47-1.22,3.19-1.72.76-.53,1.29-.99,1.61-1.4.44-.57.61-1.12.51-1.63-.06-.31-.13-.55-.23-.76Z"/>
        <path class="cls-9" d="m345.07,57.16c-.68-4.12-1.34-8.24-2-12.35-.66-4.11-1.33-8.24-2.01-12.38-.68-4.14-1.43-8.36-2.23-12.55-.08-.41-.25-.78-.52-1.12-.32-.4-.86-.67-1.69-.84-.64-.13-1.52-.21-2.71-.23-1.15-.02-2.73.04-4.77.19-.94.15-1.77.27-2.54.36-.65.1-1.26.19-1.82.26-.59.08-.94.14-1.05.16l-.1.03c-.49.15-1.3.36-2.4.62-1.13.27-2.33.57-3.6.88-1.26.31-2.46.6-3.6.86-1.13.26-1.98.44-2.54.55-.83.16-1.47.33-1.95.52-.59.23-1.04.55-1.34.94-.33.42-.5.92-.51,1.48,0,.41.04.9.16,1.49l.14.76c.08.41.19.9.32,1.47.14.56.29,1.17.48,1.82.18.64.38,1.27.61,1.87l6.28,32.9c-.51.44-1.05.84-1.6,1.22-.61.41-1.31.82-2.08,1.23-.7.37-1.44.63-2.21.78-.15.03-.3.06-.51-.5-.31-.86-.66-2.29-1.03-4.27-.67-3.5-1.26-6.76-1.77-9.7-.51-2.97-.97-5.76-1.39-8.38-.42-2.63-.82-5.11-1.21-7.45-.39-2.34-.8-4.65-1.23-6.87-.21-1.09-.43-2.01-.65-2.72-.26-.82-.6-1.46-1.04-1.95-.46-.5-1.04-.87-1.73-1.09-.6-.19-1.32-.32-2.29-.41-1.89,0-3.76.07-5.57.25-1.8.17-3.59.41-5.32.7-1.71.28-3.43.61-5.12.96-1.66.35-3.3.67-4.93.98-.79.15-1.52.39-2.15.7-.96.48-1.4,1.35-1.2,2.39.13.69.32,1.33.55,1.91.19.46.34.98.44,1.53.45,2.36.85,4.74,1.18,7.08.34,2.35.65,4.68.93,6.99.29,2.32.59,4.61.91,6.88.32,2.26.7,4.53,1.12,6.74.44,2.29.91,4.54,1.4,6.68.5,2.19,1.14,4.25,1.89,6.13.76,1.91,1.69,3.65,2.77,5.16,1.11,1.56,2.51,2.84,4.15,3.81,1.64.97,3.58,1.61,5.79,1.89.72.09,1.49.14,2.3.14,1.62,0,3.4-.19,5.33-.55,1.74-.33,3.51-.79,5.26-1.37,1.74-.58,3.45-1.26,5.08-2.03,1.63-.77,3.22-1.62,4.73-2.54,1.17-.71,2.29-1.45,3.34-2.21.57.8,1.27,1.38,2.07,1.71,1.07.44,2.4.51,4.02.2,2.78-.64,5.38-1.25,7.79-1.83,1.03-.23,2.08-.46,3.13-.7,1.05-.24,2.05-.48,2.98-.7.92-.22,1.75-.4,2.49-.56.74-.15,1.31-.27,1.71-.35,1.37-.26,2.34-.85,2.88-1.73.52-.85.64-1.99.38-3.37-.79-4.16-1.54-8.35-2.21-12.44Z"/>
        <path class="cls-9" d="m436.12,21.52c-.42-.39-.96-.67-1.6-.84-.54-.14-1.17-.24-1.88-.31-.06,0-.39-.04-1-.11-.62-.07-1.39-.15-2.3-.25-.9-.1-1.88-.2-2.94-.33-1.06-.12-2.05-.23-2.96-.33-.91-.1-1.67-.18-2.31-.25-.65-.07-1.01-.11-1.09-.12l-4.74-.43c-.59-.09-1.19-.06-1.75.09-.52.13-1.01.33-1.45.57-.4.22-.76.45-1.06.67-.29.21-.5.38-.62.48-.33.27-.43.63-.59,1.63-.1.64-.22,1.48-.35,2.52-.14,1.04-.28,2.2-.42,3.5l-.44,3.96c-.15,1.35-.29,2.67-.42,3.95,0,.07-.01.15-.02.22l-5.73-10.54c-.79-1.45-1.5-2.76-2.15-3.93-.65-1.18-1.21-2.16-1.67-2.94-.46-.79-.77-1.3-.91-1.53-.43-.72-1.28-1.16-2.59-1.35-1.02-.15-2.41-.25-4.13-.31l-6.05-.19c-2.3-.07-4.93-.24-7.83-.5-.56-.05-1.13-.06-1.73-.04-.67.03-1.29.16-1.85.41-.64.28-1.15.73-1.51,1.34-.34.59-.48,1.35-.4,2.25-.18,2.89-.44,5.81-.77,8.68-.33,2.92-.65,5.83-.96,8.74-.3,2.9-.57,5.85-.79,8.77-.22,2.93-.3,5.89-.23,8.81-.07.82-.15,1.81-.23,2.97l-.5,7.43c-.08,1.25-.15,2.38-.2,3.38l-.12,2.43c-.02.45-.04.88.04,1.23h-.01s.32,1.25.32,1.25l4.24,1.43.22.05s.26.03.66.08c.43.05.94.11,1.5.16.54.05,1.1.11,1.67.17.58.07,1.06.12,1.43.15,2.27.2,4.47.33,6.54.38,2.03.05,4.17.09,6.41.13.72.12,1.25.13,1.67.03.56-.14.99-.47,1.25-.95.19-.36.29-.81.29-1.31,0-.32.02-.71.06-1.14.03-.3.08-.84.17-1.61l.29-2.69c.1-1,.22-2.07.35-3.21.13-1.14.25-2.24.36-3.29.11-1.04.21-1.98.29-2.8.03-.27.05-.51.08-.73.24.41.49.87.74,1.36.35.7.69,1.36,1,2,.31.63.51,1.04.65,1.32l7.5,12.89.1.14c.57.68,1.22,1.2,1.94,1.53.65.31,1.3.53,1.93.67.63.13,1.23.2,1.79.21.47,0,.86.02,1.16.05,1.62.15,3.34.31,5.16.49,1.82.18,3.5.34,5.03.48,1.52.14,2.78.26,3.77.36.17.02.32.03.45.05h0s1.01.11,1.01.11c.32.03.62.04.9.04.22,0,.43,0,.62-.03.63-.06,1.19-.37,1.62-.9.36-.44.65-1.1.89-2.01.2-.8.4-1.91.59-3.38.18-1.42.38-3.18.59-5.4.21-2.16.46-4.83.75-8h0c.04-.41.13-1.32.27-2.74.14-1.42.3-3.1.48-5.05.17-1.94.37-3.99.6-6.16.22-2.18.42-4.23.6-6.15.17-1.91.33-3.57.47-4.97.14-1.41.23-2.29.26-2.65.04-.41,0-.82-.09-1.22-.05-.21-.06-.35-.05-.42.02-.2.07-.5.14-.89.08-.44.17-.9.25-1.38.08-.47.17-.92.24-1.32.09-.45.14-.77.15-.96.08-.89.05-1.62-.11-2.22-.17-.67-.48-1.21-.91-1.62Z"/>
        <path class="cls-9" d="m524.73,50.79c-.16-.37-.33-.66-.53-.88l-.16-.18-.22-.09c-.21-.08-.42-.14-.6-.16-.04,0-.08-.02-.13-.04-.19-.08-.35-.19-.5-.35-.35-.39-.76-.68-1.21-.86-.8-.32-1.6-.56-2.4-.71-.59-.12-1.21-.29-1.82-.52-.25-.23-.64-.47-1.25-.78-.7-.36-1.58-.76-2.59-1.19-1.01-.43-2.11-.88-3.29-1.35l-3.3-1.31c-1.03-.41-1.93-.76-2.68-1.05-.74-.28-1.19-.45-1.34-.51l-2.18-.87.08.2c-.55-.18-1.14-.38-1.77-.6-.68-.24-1.32-.46-1.91-.67-.58-.2-1.08-.38-1.48-.52-.36-.13-.57-.21-.62-.22-1.2-.48-2.28-.98-3.22-1.5-1.02-.56-2.12-1.08-3.25-1.53-.81-.32-1.65-.56-2.49-.7-.71-.12-1.37-.3-1.97-.54-.05-.02-.09-.04-.11-.05-.15-.12-.33-.22-.55-.3l-.19-.08h-.21c-.35.01-.72.11-1.1.29-.44.21-.74.46-.9.78l-15.39,22.66c-2.07,2.82-4.2,5.8-6.33,8.85-2.12,3.03-4.17,6.04-6.09,8.94-.15.21-.36.53-.63.95-.27.42-.57.88-.89,1.38-.33.52-.65,1.07-.93,1.63-.3.6-.53,1.18-.67,1.75-.16.64-.17,1.24-.05,1.76.16.69.64,1.23,1.35,1.52l1.08.43c.52.21,1.11.44,1.78.69l4.1,1.54c.63.23,1.14.43,1.55.57.38.14.6.22.65.24l7.38,2.94c.43.14.82.26,1.16.37.33.1.7.23,1.12.38.44.16.88.31,1.33.46,1.02.35,2.19.77,3.5,1.26.23.33.58.59,1.04.77l.23.09c.19.08.4.1.89.11.26,0,.38.04.42.06l.54.22.46-.37c.7-.56,1.55-1.6,2.62-3.16.88-1.3,1.89-2.8,3.01-4.5.49.2,1,.41,1.53.63.82.34,1.63.67,2.44.99.81.32,1.61.62,2.38.88.45.15.88.29,1.29.4-.37,2.02-.69,3.83-.94,5.41-.3,1.92-.38,3.29-.23,4.2l.09.56.52.21c.5.2,1.07.45,1.72.75.66.31,1.29.6,1.88.88l1.51.71c.45.21.68.32.71.33l.23.09c.06.03.13.05.19.06v.02s5.77,2.3,5.77,2.3c.19.12.44.22.77.35.41.16.91.37,1.51.63l4.02,1.69c.67.28,1.26.53,1.78.73l1.04.41c.3.12.6.18.89.18.39,0,.77-.11,1.12-.33.48-.3.89-.74,1.22-1.32.29-.5.53-1.08.71-1.73.18-.6.33-1.19.46-1.8.13-.6.23-1.15.31-1.66l.17-1.1c.6-3.43,1.18-7.03,1.73-10.68.55-3.67,1.05-7.3,1.49-10.74l4.41-27.07c.1-.36.05-.76-.15-1.22Zm-26.22,10.23l-.79,3.78c-.32,1.51-.64,3.05-.97,4.62-.33,1.56-.65,3.09-.98,4.58l-.54,2.47c-.38-.26-.81-.49-1.3-.68l-.16-.06c-.18-.07-.38-.1-.67-.1-.08,0-.16,0-.23.01l-2.68-1.07c.46-.75.96-1.57,1.5-2.45.8-1.3,1.61-2.63,2.43-3.97.82-1.34,1.62-2.65,2.42-3.94l1.97-3.18Z"/>
      </g>
    </g>
  </g>
  <g id="FACE">
    <g id="Components">
      <g id="Backing">
        <path class="cls-6" d="m371.67,586.26c-21.32-1.34-45.62-7.48-72.23-18.25-27.83-11.26-51.34-24.82-66.16-34.22-36.5-23.13-63.77-57.22-69.48-86.85-.19-.98-.98-6.05-1.23-8.57-.45-4.51-.53-12.26-.22-23.03,0-.28.01-.63.02-1.04.1-5.19.39-20.96,5.86-43.71,3.32-13.8,6.36-25.39,12.63-38.49,4.39-9.17,8.76-16.21,12.09-21.03-6.32-12.93-12.6-27.45-16.74-45.56l-.27-1.17c-1.36-5.81-5.49-23.48-7.28-46.07-1.2-15.12-.93-26.68-.57-35.06,1.86-42.38,7.09-47.72,12.74-49.76,1.78-.64,3.83-.97,6.08-.97,16.98,0,46.97,18.65,61.88,30.41,2.32,1.83,4.59,3.55,6.79,5.22,7.44,5.65,14.46,10.98,21.99,19.26,13.2,14.5,15.88,18.19,19.02,23.01,1.95-.9,4.59-2.01,7.45-2.9l.24-.07c14.34-3.94,28.98-6.59,43.52-7.87,7.09-.62,14.37-.94,21.64-.94,28.76,0,51.91,4.83,64.34,7.43,2.54.53,4.63,1,6.03,1.32l.17.04.29.09c2.86.9,5.5,2.01,7.45,2.9,3.15-4.82,5.83-8.51,19.03-23.01,7.53-8.27,14.56-13.61,21.99-19.25,2.2-1.67,4.47-3.39,6.79-5.22,14.91-11.76,44.89-30.41,61.88-30.41,2.26,0,4.3.33,6.08.97,5.87,2.12,10.88,7.33,12.74,49.76.37,8.38.63,19.94-.57,35.06-1.79,22.59-5.92,40.26-7.28,46.07l-.27,1.18c-4.14,18.11-10.41,32.63-16.74,45.56,3.33,4.81,7.71,11.86,12.09,21.03,6.27,13.1,9.31,24.69,12.63,38.49,5.47,22.74,5.77,38.52,5.86,43.7,0,.42.01.77.02,1.05.31,10.78.24,18.53-.22,23.03-.25,2.51-1.04,7.59-1.23,8.57-5.71,29.63-32.98,63.72-69.48,86.85-14.82,9.39-38.33,22.95-66.16,34.22-26.61,10.77-50.91,16.91-72.23,18.25l-.5.03-.5-.03Z"/>
        <path class="cls-2" d="m557.41,137.49c1.64,0,3.12.21,4.39.67,2.56.92,7.61,3.44,9.44,45.28.34,7.8.66,19.2-.56,34.44-1.9,23.95-6.41,41.98-7.44,46.53-4.39,19.19-11.19,34.11-17.67,47.14,3.91,5.34,8.74,13,13.39,22.72,6.31,13.19,9.34,25.3,12.28,37.5,5.8,24.08,5.64,39.95,5.75,43.72.26,9.11.28,17.64-.19,22.39-.24,2.41-1.01,7.33-1.17,8.12-5.46,28.34-31.86,61.14-67.25,83.57-14.65,9.28-37.88,22.68-65.36,33.8-26.11,10.56-49.88,16.59-70.67,17.89h-.19s-.19,0-.19,0c-20.78-1.31-44.56-7.33-70.67-17.89-27.48-11.12-50.71-24.52-65.36-33.8-35.39-22.43-61.79-55.23-67.25-83.57-.15-.79-.93-5.76-1.17-8.12-.48-4.74-.46-13.28-.19-22.39.11-3.77-.05-19.64,5.75-43.72,2.94-12.2,5.96-24.31,12.28-37.5,4.65-9.72,9.48-17.38,13.39-22.72-6.47-13.03-13.28-27.94-17.67-47.14-1.04-4.54-5.54-22.58-7.44-46.53-1.21-15.25-.9-26.64-.56-34.44,1.83-41.83,6.88-44.35,9.44-45.28,1.27-.46,2.74-.67,4.39-.67,14.93,0,43.87,17.58,58.78,29.34,10.1,7.96,18.76,13.57,28.18,23.92,16.08,17.67,16.18,18.88,20.99,26.14.12-.06.41-.23.89-.5,0,0,4.53-2.48,9.79-4.13.02,0,.05-.01.07-.02,17.18-4.72,31.85-6.76,42.63-7.7,7.34-.64,14.42-.92,21.2-.92,27.55,0,49.99,4.54,63.32,7.33,2.5.52,4.56.98,5.94,1.3.02,0,.05.01.07.02,5.26,1.65,9.79,4.13,9.79,4.13.49.27.78.44.89.5,4.81-7.26,4.9-8.47,20.99-26.14,9.42-10.34,18.08-15.95,28.18-23.92,14.91-11.76,43.85-29.34,58.78-29.34m0-10c-20.55,0-53.87,22.73-64.97,31.48-2.28,1.8-4.54,3.51-6.71,5.16-7.63,5.79-14.83,11.26-22.67,19.87-10.18,11.18-14.19,16-17.16,20.18-2.3-.89-4.08-1.47-4.12-1.48l-.09-.03h-.05s-.31-.11-.31-.11l-.4-.09c-2.02-.46-4.07-.91-6.12-1.34-12.61-2.63-36.08-7.54-65.36-7.54-7.41,0-14.84.32-22.08.96-14.84,1.3-29.78,4-44.41,8.02l-.18.05-.14.04-.09.03s-1.82.59-4.12,1.48c-2.97-4.18-6.98-9-17.16-20.18-7.84-8.61-15.04-14.08-22.67-19.87-2.18-1.65-4.43-3.36-6.71-5.16-11.1-8.76-44.42-31.48-64.97-31.48-2.84,0-5.46.43-7.78,1.26-5.42,1.96-8.87,6.21-11.17,13.8-2.44,8.03-4.03,21.26-4.87,40.44-.37,8.52-.65,20.28.58,35.67,1.82,22.96,6.02,40.91,7.4,46.81.11.45.2.84.27,1.16,3.97,17.38,9.83,31.48,15.86,44.03-3.18,4.82-7.01,11.27-10.85,19.28-6.99,14.61-10.31,28.4-12.98,39.48-5.6,23.27-5.9,39.46-6,44.78,0,.4-.01.73-.02.99-.31,10.99-.23,18.95.24,23.67.28,2.75,1.1,8.02,1.3,9.02,2.99,15.5,11.43,32.23,24.43,48.38,12.65,15.73,29.01,30.16,47.29,41.75,15,9.5,38.79,23.23,66.96,34.63,27.11,10.97,51.93,17.23,73.79,18.6h.19s.63.05.63.05l.63-.04h.19c21.85-1.39,46.68-7.65,73.79-18.62,28.18-11.4,51.97-25.12,66.96-34.63,18.28-11.58,34.63-26.02,47.29-41.75,12.99-16.15,21.44-32.88,24.43-48.38.2-1.02,1.01-6.22,1.3-9.02.47-4.72.56-12.69.24-23.67,0-.27-.01-.6-.02-.99-.1-5.32-.4-21.51-6-44.78-2.67-11.08-5.99-24.87-12.98-39.48-3.83-8.01-7.67-14.46-10.85-19.28,6.02-12.55,11.88-26.65,15.86-44.03.07-.32.16-.7.27-1.16,1.38-5.9,5.57-23.85,7.4-46.81,1.22-15.39.95-27.15.58-35.67-.84-19.18-2.43-32.41-4.87-40.44-2.3-7.59-5.75-11.85-11.17-13.8-2.32-.84-4.94-1.26-7.78-1.26h0Z"/>
      </g>
      <g id="Face_Colours" data-name="Face Colours">
        <path id="Widows_Peak" data-name="Widows Peak" class="cls-5" d="m340.92,252.99c19.37,32.08,28.15,62.04,31.24,81.28,3.09-19.25,11.87-49.2,31.24-81.28,16.77-27.78,28.22-35.9,35.3-40.76-1.38-.31-3.44-.77-5.94-1.3-16.61-3.47-47.35-9.67-84.52-6.41-10.78.95-25.45,2.98-42.63,7.7,7.08,4.86,18.53,12.98,35.3,40.76Z"/>
        <path id="Right_Ear" data-name="Right Ear" class="cls-5" d="m465.79,219.77c13.67,5.44,25.19,10.88,41.78,29.22,17.78,19.67,27.21,36.22,31.89,47.67,13.67-27.44,18.89-45.33,23-83.89,2.72-25.48-2-63.78-6.44-64.56-4.27-.75-22.89,6.89-46.89,26.67-19.71,16.24-35,32.44-43.33,44.89Z"/>
        <path id="Left_Ear" data-name="Left Ear" class="cls-5" d="m181.87,212.77c4.11,38.56,9.33,56.44,23,83.89,4.68-11.45,14.11-28,31.89-47.67,16.58-18.35,28.11-23.78,41.78-29.22-8.33-12.44-23.63-28.65-43.33-44.89-24-19.78-42.62-27.41-46.89-26.67-4.44.78-9.16,39.08-6.44,64.56Z"/>
        <g id="Cheaks">
          <path class="cls-7" d="m541.24,418.77c-25.22,2.44-48.71,13.45-79.04,45.06,5.14-25.47-49.61-79.98-90.03-78.54h0s0,0,0,0c0,0,0,0,0,0h0c-40.41-1.44-95.16,53.07-90.03,78.54-30.33-31.61-53.82-42.61-79.04-45.06-19.4-1.88-33.89,13.98-31.44,26.67,5,25.96,29.4,58.47,65.91,81.61,37.8,23.96,90.35,48.45,134.61,51.24,44.27-2.79,96.81-27.28,134.61-51.24,36.51-23.13,60.91-55.64,65.91-81.61,2.44-12.69-12.05-28.55-31.44-26.67Z"/>
        </g>
        <g id="Face">
          <path class="cls-6" d="m576.99,415.49c-.11-3.77.05-19.64-5.75-43.72-2.94-12.2-5.96-24.31-12.28-37.5-4.65-9.72-9.48-17.38-13.39-22.72,6.47-13.03,13.28-27.94,17.67-47.14,1.04-4.54,5.54-22.58,7.44-46.53,1.21-15.25.9-26.64.56-34.44-1.83-41.83-6.88-44.35-9.44-45.28-12.78-4.61-46.61,15.61-63.17,28.67-10.1,7.96-18.76,13.57-28.18,23.92-16.08,17.67-16.18,18.88-20.99,26.14-.12-.06-.41-.23-.89-.5,0,0-4.53-2.48-9.79-4.13-.02,0-.05-.01-.07-.02-7.08,4.86-18.53,12.98-35.3,40.76-19.37,32.08-28.15,62.04-31.24,81.28-3.09-19.25-11.87-49.2-31.24-81.28-16.77-27.78-28.22-35.9-35.3-40.76-.02,0-.05.01-.07.02-5.26,1.65-9.79,4.13-9.79,4.13-.49.27-.78.44-.89.5-4.81-7.26-4.9-8.47-20.99-26.14-9.42-10.34-18.08-15.95-28.18-23.92-16.56-13.06-50.39-33.28-63.17-28.67-2.56.92-7.61,3.44-9.44,45.28-.34,7.8-.66,19.2.56,34.44,1.9,23.95,6.41,41.98,7.44,46.53,4.39,19.19,11.19,34.11,17.67,47.14-3.91,5.34-8.74,13-13.39,22.72-6.31,13.19-9.34,25.3-12.28,37.5-5.8,24.08-5.64,39.95-5.75,43.72-.26,9.11-.28,17.64.19,22.39.24,2.37,1.01,7.33,1.17,8.12,5.46,28.34,31.86,61.14,67.25,83.57,14.65,9.28,37.88,22.68,65.36,33.8,26.11,10.56,49.88,16.59,70.67,17.89h.19s.19,0,.19,0c20.78-1.31,44.56-7.33,70.67-17.89,27.48-11.12,50.71-24.52,65.36-33.8,35.39-22.43,61.79-55.23,67.25-83.57.15-.79.92-5.71,1.17-8.12.48-4.74.46-13.28.19-22.39Zm-405.52,28.78c-.01-.13-.02-.26-.03-.39-.02-.26-.05-.52-.05-.79,0-.16,0-.32,0-.47,0-.24,0-.48,0-.72,0-.17.02-.34.04-.51.02-.23.03-.46.06-.69.02-.17.05-.35.07-.52.03-.23.07-.45.11-.68.03-.18.07-.36.11-.54.05-.22.1-.44.15-.67.05-.18.1-.36.15-.54.06-.22.13-.44.2-.66.06-.18.12-.36.19-.54.08-.22.16-.43.24-.65.07-.18.14-.36.22-.54.09-.22.19-.43.29-.65.08-.18.17-.35.25-.53.11-.21.22-.43.33-.64.09-.17.19-.35.29-.52.12-.21.24-.42.37-.63.1-.17.21-.34.31-.51.13-.21.28-.42.42-.63.11-.16.22-.33.34-.49.15-.21.31-.42.46-.62.12-.16.24-.31.36-.47.17-.21.34-.41.52-.62.12-.15.25-.29.37-.44.19-.21.39-.42.58-.63.12-.13.24-.27.37-.4.22-.23.46-.45.69-.67.11-.1.22-.21.33-.32.32-.29.65-.58.98-.86.03-.03.07-.06.1-.09.37-.31.75-.61,1.15-.91.1-.08.21-.15.31-.22.29-.21.59-.43.89-.63.15-.1.3-.19.45-.29.26-.17.53-.35.8-.51.17-.1.35-.2.52-.3.26-.15.52-.3.78-.45.19-.1.38-.2.57-.3.26-.13.52-.27.78-.4.2-.1.4-.19.61-.28.26-.12.53-.24.79-.35.21-.09.43-.17.64-.26.27-.11.54-.21.81-.31.22-.08.44-.15.67-.23.27-.09.55-.18.83-.27.23-.07.46-.14.69-.2.28-.08.56-.15.85-.22.24-.06.47-.11.71-.17.29-.06.58-.12.87-.18.24-.05.48-.09.73-.13.29-.05.59-.09.89-.13.25-.03.49-.07.74-.1.3-.03.61-.06.91-.09.25-.02.5-.04.76-.06.31-.02.62-.03.94-.04.25,0,.51-.02.76-.02.37,0,.74,0,1.11.02.18,0,.37,0,.55.01.56.03,1.13.06,1.7.12,2.36.23,4.71.53,7.06.92,12.49,2.08,24.74,6.58,37.83,15,.82.53,1.64,1.07,2.47,1.63,7.43,5.02,15.14,11.31,23.33,19.15,2.73,2.61,5.51,5.39,8.36,8.36-.08-.4-.14-.8-.2-1.21-.02-.14-.02-.28-.04-.42-.03-.27-.06-.55-.07-.82,0-.17,0-.34-.01-.51,0-.26-.02-.51-.02-.77,0-.18.02-.37.02-.55,0-.26.01-.51.03-.77.01-.19.04-.39.06-.59.02-.25.04-.51.08-.77.03-.2.06-.41.09-.62.04-.26.07-.51.12-.77.04-.21.09-.43.13-.64.05-.26.1-.52.16-.78.05-.22.11-.44.16-.66.07-.26.13-.52.2-.79.06-.22.13-.44.2-.67.08-.27.15-.54.24-.81.07-.22.15-.45.23-.67.09-.28.18-.55.28-.83.08-.23.17-.46.26-.68.11-.28.21-.56.32-.84.09-.23.19-.47.29-.7.12-.28.23-.56.35-.84.1-.24.21-.47.32-.71.13-.28.26-.57.39-.85.11-.24.23-.47.35-.71.14-.29.28-.58.43-.87.12-.24.25-.48.38-.72.15-.29.31-.59.47-.88.13-.24.26-.47.4-.71.17-.3.33-.6.51-.9.14-.24.28-.48.42-.72.18-.3.36-.6.54-.9.15-.24.3-.48.45-.72.19-.3.38-.61.58-.91.15-.24.31-.48.47-.72.2-.31.4-.62.61-.92.16-.24.32-.47.49-.71.21-.31.43-.62.65-.94.17-.24.34-.47.51-.71.22-.31.45-.62.68-.94.17-.24.35-.47.53-.71.24-.31.47-.63.71-.94.18-.23.36-.47.55-.7.25-.32.49-.63.74-.95.19-.23.38-.47.57-.7.26-.32.51-.63.78-.95.19-.23.39-.46.58-.69.27-.32.53-.63.8-.95.2-.23.4-.46.6-.69.28-.32.55-.63.83-.95.2-.23.41-.45.61-.68.29-.32.57-.64.87-.95.21-.22.41-.45.62-.67.3-.32.59-.64.9-.95.21-.22.42-.44.64-.66.3-.32.61-.63.92-.95.21-.22.43-.44.65-.65.31-.31.63-.63.95-.94.22-.22.44-.43.66-.65.32-.31.64-.62.97-.94.22-.21.45-.43.68-.64.33-.31.66-.62.99-.92.23-.21.46-.43.69-.64.33-.3.67-.61,1.01-.91.23-.21.46-.41.7-.62.34-.3.69-.6,1.03-.9.23-.2.47-.41.71-.61.35-.3.7-.6,1.05-.89.24-.2.48-.4.72-.6.36-.29.71-.59,1.07-.88.24-.2.48-.39.72-.58.36-.29.73-.58,1.09-.87.24-.19.49-.38.74-.57.37-.28.73-.56,1.1-.84.25-.19.5-.38.75-.57.37-.28.74-.55,1.11-.82.25-.18.5-.37.76-.55.38-.27.75-.54,1.13-.81.25-.18.51-.36.77-.54.38-.26.76-.52,1.13-.78.26-.18.52-.35.78-.53.38-.26.76-.51,1.15-.76.26-.17.52-.34.78-.51.39-.25.77-.5,1.16-.74.26-.17.52-.33.79-.49.39-.24.77-.48,1.16-.71.27-.16.53-.32.8-.48.39-.23.78-.46,1.17-.68.27-.16.54-.31.81-.46.39-.22.78-.44,1.17-.66.27-.15.54-.3.82-.45.39-.21.78-.42,1.17-.62.28-.15.55-.29.83-.43.39-.2.78-.4,1.17-.59.28-.14.55-.28.83-.41.39-.19.78-.38,1.17-.56.28-.13.56-.27.84-.39.39-.18.78-.36,1.17-.53.28-.13.56-.25.85-.38.39-.17.78-.33,1.16-.5.28-.12.57-.24.85-.35.39-.16.77-.31,1.16-.46.29-.11.57-.23.86-.33.38-.15.76-.28,1.15-.42.29-.11.58-.21.87-.31.38-.13.76-.26,1.14-.39.29-.1.58-.19.87-.29.38-.12.75-.24,1.13-.35.29-.09.58-.18.88-.26.37-.11.75-.21,1.12-.31.29-.08.59-.16.88-.24.37-.1.74-.18,1.11-.27.3-.07.59-.14.89-.21.36-.08.73-.16,1.09-.23.3-.06.6-.13.89-.18.36-.07.72-.13,1.07-.19.3-.05.6-.11.9-.15.35-.06.71-.1,1.06-.15.3-.04.6-.09.9-.12.35-.04.7-.08,1.04-.11.3-.03.6-.06.9-.09.34-.03.68-.05,1.03-.07.3-.02.61-.04.91-.05.33-.01.67-.02,1-.03.31,0,.61-.02.92-.02.59,0,1.17,0,1.75.02h0s0,0,0,0c0,0,0,0,0,0h0c.58-.02,1.16-.03,1.75-.02.31,0,.63.01.94.02.32,0,.64.01.96.03.33.01.66.04.98.06.31.02.62.04.94.06.34.03.68.07,1.02.1.3.03.61.06.91.1.35.04.71.09,1.06.14.3.04.59.08.89.13.37.06.73.12,1.1.19.29.05.57.1.86.15.38.07.76.15,1.14.23.28.06.56.11.83.18.39.09.78.18,1.17.28.27.07.54.13.82.2.4.1.79.21,1.19.32.27.07.53.14.8.22.41.12.81.24,1.22.37.26.08.52.16.78.24.41.13.83.27,1.24.41.25.08.5.17.75.26.42.15.84.3,1.27.46.25.09.49.18.74.27.43.16.85.33,1.28.5.24.1.48.19.72.29.43.18.87.36,1.3.54.23.1.46.2.7.3.44.19.88.39,1.32.59.23.1.46.2.68.31.44.2.89.41,1.33.63.22.11.44.21.67.32.45.22.89.44,1.34.66.22.11.44.22.65.33.45.23.9.47,1.34.7.21.11.43.23.64.34.45.24.9.49,1.35.74.21.12.41.23.62.35.45.26.9.52,1.35.78.2.12.41.24.61.36.45.27.9.54,1.35.81.2.12.4.24.6.37.45.28.9.56,1.35.84.2.12.39.25.59.38.45.29.9.58,1.34.88.19.13.38.25.57.38.45.3.9.6,1.34.91.19.13.38.26.57.39.44.31.89.62,1.33.93.19.13.38.27.56.4.44.32.88.63,1.31.96.18.14.37.27.55.41.44.32.87.65,1.3.98.18.14.36.28.54.42.43.33.86.67,1.29,1,.18.14.36.28.53.42.42.34.85.68,1.27,1.02.18.15.36.29.53.44.42.34.83.69,1.24,1.04.18.15.35.3.53.45.41.35.82.7,1.22,1.05.17.15.35.3.52.46.4.35.8.71,1.2,1.06.17.15.34.31.51.46.39.36.79.72,1.17,1.08.17.16.34.32.51.48.38.36.76.71,1.14,1.07.17.17.35.33.52.5.37.36.74.72,1.1,1.08.17.17.34.34.51.51.36.36.72.72,1.07,1.08.17.17.34.35.51.52.35.36.7.72,1.04,1.08.17.18.33.35.5.53.34.36.67.72,1,1.08.17.18.34.37.5.55.32.36.64.71.96,1.07.17.19.33.38.5.57.31.36.62.71.93,1.07.16.19.32.38.49.57.3.35.59.71.89,1.06.16.2.32.4.48.59.28.35.57.7.85,1.05.16.2.31.4.47.6.27.35.54.69.81,1.04.16.21.31.41.47.62.26.34.52.69.77,1.03.15.21.3.42.45.63.24.34.49.67.72,1.01.15.22.3.43.45.65.23.33.46.66.68.99.15.22.29.44.43.66.21.33.43.65.64.98.14.22.28.44.42.66.2.32.4.64.6.96.14.22.27.45.4.67.19.31.38.63.56.94.13.23.26.46.39.69.17.3.34.61.51.91.13.23.25.47.37.7.16.3.32.6.47.89.12.24.23.47.35.71.14.29.29.58.42.87.11.24.22.47.33.71.13.28.26.57.39.85.1.24.2.47.3.71.12.28.24.56.35.83.1.24.18.48.28.72.1.27.21.53.3.8.09.24.17.49.25.73.09.26.18.51.26.77.08.24.15.48.22.73.07.25.15.5.22.75.07.24.12.48.18.72.06.24.13.48.18.72.06.24.1.48.15.72.05.23.1.46.14.69.04.24.07.48.11.72.03.22.07.45.1.67.03.24.05.48.07.73.02.21.05.42.06.63.02.25.02.49.03.74,0,.19.02.39.02.58,0,.26,0,.51-.02.76,0,.17,0,.35-.01.52-.02.28-.05.56-.07.83-.01.14-.02.28-.04.42-.05.41-.12.81-.2,1.21,30.33-31.61,53.82-42.61,79.04-45.06.57-.06,1.14-.09,1.7-.12.18,0,.36,0,.55-.01.37-.01.75-.02,1.12-.02.26,0,.51.01.76.02.31,0,.62.02.93.04.26.02.51.04.76.06.3.03.6.05.9.09.25.03.5.06.75.1.29.04.59.08.88.13.25.04.5.09.74.14.28.06.57.11.85.18.24.05.49.11.73.17.28.07.55.14.82.22.24.07.48.14.71.21.27.08.53.17.8.26.23.08.47.16.7.24.26.09.51.19.77.29.23.09.46.18.68.27.25.11.5.22.75.33.22.1.44.2.66.3.24.12.48.24.72.37.21.11.42.21.63.33.24.13.47.27.7.4.2.12.4.23.6.35.23.14.46.29.68.44.19.12.38.24.57.37.23.16.46.33.69.49.17.12.34.24.51.37.36.27.7.54,1.04.83.17.14.33.28.49.43.22.19.45.38.66.58.16.15.31.3.47.45.18.18.37.35.55.54.16.16.31.32.46.49.17.18.34.36.5.54.15.17.29.34.43.51.15.18.31.36.46.55.14.17.27.35.4.53.14.19.28.37.42.56.13.18.25.36.37.54.13.19.26.38.38.58.12.18.23.37.34.55.12.2.23.39.35.59.11.19.21.37.31.56.11.2.21.4.31.6.09.19.18.38.27.56.09.2.18.41.27.61.08.19.16.38.23.57.08.21.16.42.23.62.07.19.13.38.19.56.07.21.13.42.19.64.05.19.11.37.15.56.05.22.1.43.15.65.04.18.08.37.11.55.04.22.07.44.1.66.03.18.06.36.08.54.03.23.04.45.06.68.01.17.03.35.04.52,0,.24,0,.47,0,.71,0,.16,0,.32,0,.48,0,.26-.03.52-.05.78-.01.13-.02.26-.03.4-.04.39-.1.78-.18,1.17-5,25.96-29.4,58.47-65.91,81.61-37.8,23.96-90.35,48.45-134.61,51.24-44.27-2.79-96.81-27.28-134.61-51.24-36.51-23.13-60.91-55.64-65.91-81.61-.07-.39-.13-.78-.18-1.17ZM509.13,174.88c24-19.78,42.62-27.41,46.89-26.67,4.44.78,9.16,39.08,6.44,64.56-4.11,38.56-9.33,56.44-23,83.89-4.68-11.45-14.11-28-31.89-47.67-16.58-18.35-28.11-23.78-41.78-29.22,8.33-12.44,23.63-28.65,43.33-44.89Zm-327.26,37.89c-2.72-25.48,2-63.78,6.44-64.56,4.27-.75,22.89,6.89,46.89,26.67,19.71,16.24,35,32.44,43.33,44.89-13.67,5.44-25.19,10.88-41.78,29.22-17.78,19.67-27.21,36.22-31.89,47.67-13.67-27.44-18.89-45.33-23-83.89Z"/>
        </g>
      </g>
      <g id="Mouth_Nose" data-name="Mouth &amp;amp; Nose">
        <g id="Tongue_Shadow" data-name="Tongue Shadow">
          <path id="Right_Shadow" data-name="Right Shadow" class="cls-10" d="m404.22,489.76c.03.19.06.38.09.56-.29-2-1-5.02-2.92-8.18-1.26-2.06-3.19-4.49-6.12-6.36-5.04-3.22-12.57-1.88-15.49,3.39-2.36,4.26-3.45,9.22-4.99,13.94.24-.2.47-.4.68-.61,8.9-9.19,18.35-10.08,28.74-2.74Z"/>
          <path id="Left_Shadow" data-name="Left Shadow" class="cls-10" d="m368.85,492.49c.21.22.44.42.68.61-1.54-4.72-2.63-9.68-4.99-13.94-2.92-5.27-10.45-6.61-15.49-3.39-2.93,1.87-4.86,4.3-6.12,6.36-1.92,3.16-2.63,6.18-2.92,8.18.03-.18.06-.37.09-.56,10.39-7.34,19.84-6.45,28.74,2.74Z"/>
        </g>
        <path id="Tongue" class="cls-1" d="m375.48,492.49c-.21.22-.44.42-.68.61-.1.31-.2.62-.3.93-.78,3-1.55,6-2.33,8.99h0s0,0,0,0c0,0,0,0,0,0h0c-.78-3.01-1.55-6-2.33-9-.11-.31-.2-.62-.31-.94-.24-.2-.47-.4-.68-.61-8.9-9.19-18.35-10.08-28.74-2.74-.07.41-.13.8-.17,1.13-.8,7.33-.98,19.46,4.52,32.42,2.53,5.95,7.04,13.13,15.09,20.11,3.86,3.35,8.24,4.96,12.61,4.85,4.37.1,8.75-1.5,12.61-4.85,8.05-6.98,12.56-14.16,15.09-20.11,5.5-12.96,5.32-25.09,4.52-32.42-.04-.34-.1-.72-.17-1.13-10.39-7.34-19.84-6.45-28.74,2.74Z"/>
        <path id="Nose_Mouth" data-name="Nose &amp;amp; Mouth" class="cls-2" d="m453.47,442.62c-.14-.27-.96-1-1.19-1.23-.35-.32-.15-.12-.49-.45,2.93,6.88,2.02,10.78-4.13,14.57-2.99,1.85-6.22,3.41-9.53,4.62-12.45,4.56-25.53,5.51-38.58,5.57-7.1.03-14.25-1.37-21.3-2.58-3.81-.65-5.06-3.7-4.66-7.5.86-.14,1.58-.23,2.3-.38,8.74-1.75,16.07-5.59,20.59-13.71,5.57-10,8.63-20.64,8.73-32.14.03-2.85-.99-4.51-3.54-5.66-9.85-4.46-19.68-6.67-29.5-6.62h0s0,0,0,0h0c-9.82-.05-19.65,2.16-29.5,6.62-2.55,1.16-3.57,2.82-3.54,5.66.1,11.5,3.17,22.14,8.73,32.14,4.52,8.12,11.85,11.96,20.59,13.71.71.14,1.43.24,2.3.38.4,3.8-.85,6.84-4.66,7.5-7.05,1.21-14.2,2.61-21.3,2.58-13.06-.05-26.14-1.01-38.58-5.57-3.3-1.21-6.53-2.78-9.53-4.62-6.15-3.79-7.06-7.69-4.13-14.57-.34.33-.14.13-.49.45-.24.22-1.05.95-1.19,1.23-3.87,7.34-5.37,15.13-4.05,23.37.83,5.19,3.58,9.35,7.62,12.54,3.05,2.41,6.22,4.83,9.69,6.54,14.71,7.26,23.52,19.76,30.66,33.8,2.38,4.67,4.44,9.51,6.87,14.15,6.24,11.9,15.89,19.46,29.51,19.7.35,0,.68-.01,1.02-.02.34,0,.67.02,1.02.02,13.62-.24,23.27-7.79,29.51-19.7,2.43-4.64,4.5-9.47,6.87-14.15,7.14-14.04,15.95-26.55,30.66-33.8,3.47-1.71,6.63-4.13,9.69-6.54,4.04-3.19,6.79-7.36,7.62-12.54,1.31-8.23-.19-16.02-4.05-23.37Zm-100.46-36.19c4.98-2.14,12.2-3.2,19.15-3.22,6.95.02,14.17,1.08,19.15,3.22-6.57,1.82-12.89,2.72-19.15,2.7-6.26.02-12.59-.88-19.15-2.7Zm46.86,116.88c-2.53,5.95-7.04,13.13-15.09,20.11-3.86,3.35-8.24,4.96-12.61,4.85-4.37.1-8.75-1.5-12.61-4.85-8.05-6.98-12.56-14.16-15.09-20.11-5.5-12.96-5.32-25.09-4.52-32.42.24-1.97.89-5.29,3-8.75,1.26-2.06,3.19-4.49,6.12-6.36,5.04-3.22,12.57-1.88,15.49,3.39,2.51,4.54,3.58,9.88,5.29,14.87.78,3,1.55,6,2.33,8.99h0s0,0,0,0c0,0,0,0,0,0h0c.78-3.01,1.55-6,2.33-9,1.71-4.99,2.78-10.33,5.29-14.87,2.92-5.27,10.45-6.61,15.49-3.39,2.93,1.87,4.86,4.3,6.12,6.36,2.11,3.47,2.76,6.78,3,8.75.8,7.33.98,19.46-4.52,32.42Z"/>
        <path id="Nose_Ridge" data-name="Nose Ridge" class="cls-2" d="m404.83,399.23c-6.12-7.44-19.32-11.2-32.67-11.25h0c-13.35.05-26.55,3.81-32.67,11.25,10.96-4.48,21.8-6.76,32.67-6.82,10.87.06,21.71,2.33,32.67,6.82Z"/>
      </g>
      <g id="Eyes">
        <path id="Right_Eye" data-name="Right Eye" class="cls-4" d="m505.89,360.84s-2.62-2.13-5.77-3.93c-9.82-5.6-23.02-7.18-23.02-7.18-13.42-1.76-26.92.51-40.41,6.03-13.42,5.49-24.13,14.24-30.37,27.73-.4.87-.67,1.81-1.15,3.12,32.16-23.82,66.55-32.71,105.79-20.88-1.18-1.35-2.85-3.1-5.06-4.89Z"/>
        <path id="Left_Eye" data-name="Left Eye" class="cls-4" d="m307.63,355.8c-13.49-5.52-26.99-7.79-40.41-6.03,0,0-13.2,1.58-23.02,7.18-3.15,1.8-5.77,3.93-5.77,3.93-2.21,1.8-3.88,3.54-5.06,4.89,39.24-11.83,73.63-2.94,105.79,20.88-.48-1.32-.75-2.25-1.15-3.12-6.25-13.49-16.96-22.24-30.37-27.73Z"/>
      </g>
    </g>
  </g>
</svg>
