<svg xmlns="http://www.w3.org/2000/svg" width="41" height="40" viewBox="0 0 41 40" fill="none">
    <g clip-path="url(#clip0_1276_8955)">
        <circle cx="20.5" cy="20" r="20" fill="#34C759"/>
        <ellipse cx="20.4998" cy="20.0002" rx="14.375" ry="20" transform="rotate(15 20.4998 20.0002)" fill="black" fill-opacity="0.2"/>
        <mask id="path-3-inside-1_1276_8955" fill="white">
            <path fill-rule="evenodd" clip-rule="evenodd" d="M13.177 20.9132L10.968 29.138H22.1575C26.1497 29.138 29.1017 26.186 29.1017 22.4187C29.1017 20.9005 28.4832 20.0009 27.3024 19.3542L27.3868 19.0169C29.8327 18.2297 31.2384 16.2335 31.2384 13.6752C31.2384 11.2854 29.7203 9.45801 26.3184 9.45801H16.2535L14.0831 17.5394H8.93435L8.02832 20.9132H13.177ZM17.9932 20.9132L16.9845 24.6678H22.3262C23.7038 24.6678 24.7159 23.5433 24.7159 22.1657C24.7159 21.3222 24.1536 20.9005 23.1696 20.9005H20.6018V20.9132H17.9932ZM23.9006 17.5268H18.8963L19.8803 13.9282H24.8284C25.728 13.9282 26.2622 14.378 26.2622 15.1933C26.2622 16.5147 25.3344 17.5268 23.9006 17.5268Z"/>
        </mask>
        <path fill-rule="evenodd" clip-rule="evenodd" d="M13.177 20.9132L10.968 29.138H22.1575C26.1497 29.138 29.1017 26.186 29.1017 22.4187C29.1017 20.9005 28.4832 20.0009 27.3024 19.3542L27.3868 19.0169C29.8327 18.2297 31.2384 16.2335 31.2384 13.6752C31.2384 11.2854 29.7203 9.45801 26.3184 9.45801H16.2535L14.0831 17.5394H8.93435L8.02832 20.9132H13.177ZM17.9932 20.9132L16.9845 24.6678H22.3262C23.7038 24.6678 24.7159 23.5433 24.7159 22.1657C24.7159 21.3222 24.1536 20.9005 23.1696 20.9005H20.6018V20.9132H17.9932ZM23.9006 17.5268H18.8963L19.8803 13.9282H24.8284C25.728 13.9282 26.2622 14.378 26.2622 15.1933C26.2622 16.5147 25.3344 17.5268 23.9006 17.5268Z" fill="url(#paint0_linear_1276_8955)"/>
        <path d="M10.968 29.138L10.6662 29.0569L10.5605 29.4505H10.968V29.138ZM13.177 20.9132L13.4788 20.9942L13.5845 20.6007H13.177V20.9132ZM27.3024 19.3542L26.9993 19.2784L26.9408 19.5125L27.1523 19.6283L27.3024 19.3542ZM27.3868 19.0169L27.291 18.7194L27.1257 18.7726L27.0836 18.9411L27.3868 19.0169ZM16.2535 9.45801V9.14551H16.0139L15.9517 9.37695L16.2535 9.45801ZM14.0831 17.5394V17.8519H14.3227L14.3849 17.6205L14.0831 17.5394ZM8.93435 17.5394V17.2269H8.6947L8.63254 17.4584L8.93435 17.5394ZM8.02832 20.9132L7.72651 20.8321L7.62082 21.2257H8.02832V20.9132ZM17.9932 20.9132V20.6007H17.7536L17.6914 20.8321L17.9932 20.9132ZM16.9845 24.6678L16.6827 24.5868L16.577 24.9803H16.9845V24.6678ZM20.6018 20.9005V20.588H20.2893V20.9005H20.6018ZM20.6018 20.9132V21.2257H20.9143V20.9132H20.6018ZM18.8963 17.5268L18.5948 17.4444L18.4868 17.8393H18.8963V17.5268ZM19.8803 13.9282V13.6157H19.6417L19.5788 13.8458L19.8803 13.9282ZM11.2698 29.2191L13.4788 20.9942L12.8752 20.8321L10.6662 29.0569L11.2698 29.2191ZM22.1575 28.8255H10.968V29.4505H22.1575V28.8255ZM28.7892 22.4187C28.7892 26.0067 25.984 28.8255 22.1575 28.8255V29.4505C26.3155 29.4505 29.4142 26.3653 29.4142 22.4187H28.7892ZM27.1523 19.6283C27.7092 19.9333 28.1118 20.2858 28.3781 20.7224C28.6439 21.1582 28.7892 21.7031 28.7892 22.4187H29.4142C29.4142 21.6161 29.2503 20.9521 28.9117 20.3969C28.5735 19.8424 28.0765 19.4218 27.4525 19.0801L27.1523 19.6283ZM27.0836 18.9411L26.9993 19.2784L27.6056 19.43L27.6899 19.0927L27.0836 18.9411ZM30.9259 13.6752C30.9259 16.102 29.6039 17.975 27.291 18.7194L27.4825 19.3143C30.0615 18.4843 31.5509 16.3651 31.5509 13.6752H30.9259ZM26.3184 9.77051C27.965 9.77051 29.1094 10.2122 29.8402 10.8983C30.5692 11.5827 30.9259 12.5472 30.9259 13.6752H31.5509C31.5509 12.4133 31.1485 11.2693 30.268 10.4426C29.3893 9.61758 28.0737 9.14551 26.3184 9.14551V9.77051ZM16.2535 9.77051H26.3184V9.14551H16.2535V9.77051ZM14.3849 17.6205L16.5553 9.53906L15.9517 9.37695L13.7813 17.4584L14.3849 17.6205ZM8.93435 17.8519H14.0831V17.2269H8.93435V17.8519ZM8.33013 20.9942L9.23615 17.6205L8.63254 17.4584L7.72651 20.8321L8.33013 20.9942ZM13.177 20.6007H8.02832V21.2257H13.177V20.6007ZM17.6914 20.8321L16.6827 24.5868L17.2863 24.7489L18.295 20.9942L17.6914 20.8321ZM16.9845 24.9803H22.3262V24.3553H16.9845V24.9803ZM22.3262 24.9803C23.8949 24.9803 25.0284 23.6967 25.0284 22.1657H24.4034C24.4034 23.3898 23.5127 24.3553 22.3262 24.3553V24.9803ZM25.0284 22.1657C25.0284 21.669 24.859 21.2544 24.507 20.9728C24.1668 20.7006 23.6996 20.588 23.1696 20.588V21.213C23.6237 21.213 23.9296 21.3113 24.1166 21.4608C24.2917 21.6009 24.4034 21.8189 24.4034 22.1657H25.0284ZM23.1696 20.588H20.6018V21.213H23.1696V20.588ZM20.2893 20.9005V20.9132H20.9143V20.9005H20.2893ZM20.6018 20.6007H17.9932V21.2257H20.6018V20.6007ZM18.8963 17.8393H23.9006V17.2143H18.8963V17.8393ZM19.5788 13.8458L18.5948 17.4444L19.1977 17.6092L20.1817 14.0106L19.5788 13.8458ZM24.8284 13.6157H19.8803V14.2407H24.8284V13.6157ZM26.5747 15.1933C26.5747 14.7138 26.4149 14.3043 26.088 14.0194C25.7674 13.7401 25.3264 13.6157 24.8284 13.6157V14.2407C25.23 14.2407 25.5059 14.3412 25.6774 14.4906C25.8424 14.6345 25.9497 14.8575 25.9497 15.1933H26.5747ZM23.9006 17.8393C24.6939 17.8393 25.367 17.5577 25.8419 17.0747C26.3158 16.5927 26.5747 15.9282 26.5747 15.1933H25.9497C25.9497 15.7798 25.7447 16.282 25.3963 16.6365C25.0489 16.9898 24.5412 17.2143 23.9006 17.2143V17.8393Z" fill="white" mask="url(#path-3-inside-1_1276_8955)"/>
    </g>
    <defs>
        <linearGradient id="paint0_linear_1276_8955" x1="19.6334" y1="9.45801" x2="19.6334" y2="29.138" gradientUnits="userSpaceOnUse">
            <stop stop-color="white"/>
            <stop offset="1" stop-color="#E4F0FE"/>
        </linearGradient>
        <clipPath id="clip0_1276_8955">
            <rect width="40" height="40" fill="white" transform="translate(0.5)"/>
        </clipPath>
    </defs>
</svg>