<svg width="842" height="240" viewBox="0 0 842 240" fill="none" xmlns="http://www.w3.org/2000/svg">
<g clip-path="url(#clip0_17_1312)">
<circle cx="120" cy="120" r="120" fill="#34C759"/>
<ellipse cx="119.999" cy="120.001" rx="86.25" ry="120" transform="rotate(15 119.999 120.001)" fill="black" fill-opacity="0.2"/>
<mask id="path-3-inside-1_17_1312" fill="white">
<path fill-rule="evenodd" clip-rule="evenodd" d="M76.0614 125.477L62.8075 174.827H129.944C153.898 174.827 171.61 157.115 171.61 134.511C171.61 125.402 167.899 120.004 160.814 116.124L161.32 114.1C175.996 109.377 184.43 97.4003 184.43 82.0499C184.43 67.7116 175.321 56.7471 154.91 56.7471H94.5204L81.4979 105.235H50.6053L45.1692 125.477H76.0614ZM104.959 125.477L98.9062 148.006H130.956C139.222 148.006 145.295 141.259 145.295 132.993C145.295 127.932 141.921 125.402 136.017 125.402H120.61V125.477H104.959ZM140.403 105.16H110.377L116.281 83.5681H145.97C151.367 83.5681 154.572 86.2671 154.572 91.159C154.572 99.0872 149.006 105.16 140.403 105.16Z"/>
</mask>
<path fill-rule="evenodd" clip-rule="evenodd" d="M76.0614 125.477L62.8075 174.827H129.944C153.898 174.827 171.61 157.115 171.61 134.511C171.61 125.402 167.899 120.004 160.814 116.124L161.32 114.1C175.996 109.377 184.43 97.4003 184.43 82.0499C184.43 67.7116 175.321 56.7471 154.91 56.7471H94.5204L81.4979 105.235H50.6053L45.1692 125.477H76.0614ZM104.959 125.477L98.9062 148.006H130.956C139.222 148.006 145.295 141.259 145.295 132.993C145.295 127.932 141.921 125.402 136.017 125.402H120.61V125.477H104.959ZM140.403 105.16H110.377L116.281 83.5681H145.97C151.367 83.5681 154.572 86.2671 154.572 91.159C154.572 99.0872 149.006 105.16 140.403 105.16Z" fill="url(#paint0_linear_17_1312)"/>
<path d="M62.8075 174.827L60.9966 174.341L60.3625 176.702H62.8075V174.827ZM76.0614 125.477L77.8722 125.964L78.5064 123.602H76.0614V125.477ZM160.814 116.124L158.995 115.67L158.644 117.074L159.913 117.769L160.814 116.124ZM161.32 114.1L160.745 112.315L159.754 112.635L159.501 113.645L161.32 114.1ZM94.5204 56.7471V54.8721H93.0825L92.7095 56.2607L94.5204 56.7471ZM81.4979 105.235V107.11H82.9357L83.3087 105.721L81.4979 105.235ZM50.6053 105.235V103.36H49.1675L48.7945 104.749L50.6053 105.235ZM45.1692 125.477L43.3584 124.991L42.7242 127.352H45.1692V125.477ZM104.959 125.477V123.602H103.521L103.148 124.991L104.959 125.477ZM98.9062 148.006L97.0954 147.52L96.461 149.881H98.9062V148.006ZM120.61 125.402V123.527H118.735V125.402H120.61ZM120.61 125.477V127.352H122.485V125.477H120.61ZM110.377 105.16L108.568 104.665L107.92 107.035H110.377V105.16ZM116.281 83.5681V81.6931H114.85L114.472 83.0736L116.281 83.5681ZM64.6183 175.313L77.8722 125.964L74.2505 124.991L60.9966 174.341L64.6183 175.313ZM129.944 172.952H62.8075V176.702H129.944V172.952ZM169.735 134.511C169.735 156.039 152.903 172.952 129.944 172.952V176.702C154.892 176.702 173.485 158.191 173.485 134.511H169.735ZM159.913 117.769C163.254 119.599 165.67 121.714 167.268 124.333C168.863 126.948 169.735 130.217 169.735 134.511H173.485C173.485 129.696 172.501 125.712 170.469 122.38C168.44 119.053 165.458 116.53 161.714 114.48L159.913 117.769ZM159.501 113.645L158.995 115.67L162.633 116.579L163.139 114.555L159.501 113.645ZM182.555 82.0499C182.555 96.611 174.623 107.849 160.745 112.315L161.894 115.885C177.369 110.905 186.305 98.1896 186.305 82.0499H182.555ZM154.91 58.6221C164.789 58.6221 171.656 61.2719 176.041 65.3886C180.415 69.4953 182.555 75.2825 182.555 82.0499H186.305C186.305 74.4791 183.89 67.6148 178.607 62.6547C173.335 57.7045 165.441 54.8721 154.91 54.8721V58.6221ZM94.5204 58.6221H154.91V54.8721H94.5204V58.6221ZM83.3087 105.721L96.3312 57.2334L92.7095 56.2607L79.687 104.749L83.3087 105.721ZM50.6053 107.11H81.4979V103.36H50.6053V107.11ZM46.98 125.964L52.4162 105.721L48.7945 104.749L43.3584 124.991L46.98 125.964ZM76.0614 123.602H45.1692V127.352H76.0614V123.602ZM103.148 124.991L97.0954 147.52L100.717 148.493L106.769 125.964L103.148 124.991ZM98.9062 149.881H130.956V146.131H98.9062V149.881ZM130.956 149.881C140.369 149.881 147.17 142.179 147.17 132.993H143.42C143.42 140.338 138.075 146.131 130.956 146.131V149.881ZM147.17 132.993C147.17 130.013 146.153 127.525 144.041 125.836C142 124.203 139.197 123.527 136.017 123.527V127.277C138.741 127.277 140.577 127.867 141.699 128.764C142.749 129.605 143.42 130.912 143.42 132.993H147.17ZM136.017 123.527H120.61V127.277H136.017V123.527ZM118.735 125.402V125.477H122.485V125.402H118.735ZM120.61 123.602H104.959V127.352H120.61V123.602ZM110.377 107.035H140.403V103.285H110.377V107.035ZM114.472 83.0736L108.568 104.665L112.185 105.654L118.089 84.0626L114.472 83.0736ZM145.97 81.6931H116.281V85.4431H145.97V81.6931ZM156.447 91.159C156.447 88.282 155.489 85.8248 153.527 84.1155C151.604 82.4395 148.958 81.6931 145.97 81.6931V85.4431C148.379 85.4431 150.035 86.0462 151.063 86.9426C152.054 87.8058 152.697 89.144 152.697 91.159H156.447ZM140.403 107.035C145.162 107.035 149.201 105.345 152.051 102.447C154.894 99.5553 156.447 95.5683 156.447 91.159H152.697C152.697 94.6779 151.468 97.6913 149.377 99.8179C147.292 101.938 144.246 103.285 140.403 103.285V107.035Z" fill="white" mask="url(#path-3-inside-1_17_1312)"/>
</g>
<path d="M305.232 174.5V99.62H320.928V112.004H321.648C322.416 110.084 323.328 108.26 324.384 106.532C325.536 104.804 326.88 103.316 328.416 102.068C330.048 100.724 331.92 99.716 334.032 99.044C336.24 98.276 338.784 97.892 341.664 97.892C346.752 97.892 351.264 99.14 355.2 101.636C359.136 104.132 362.016 107.972 363.84 113.156H364.272C365.616 108.932 368.208 105.332 372.048 102.356C375.888 99.38 380.832 97.892 386.88 97.892C394.368 97.892 400.176 100.436 404.304 105.524C408.432 110.516 410.496 117.668 410.496 126.98V174.5H394.8V128.852C394.8 123.092 393.696 118.772 391.488 115.892C389.28 112.916 385.776 111.428 380.976 111.428C378.96 111.428 377.04 111.716 375.216 112.292C373.392 112.772 371.76 113.54 370.32 114.596C368.976 115.652 367.872 116.996 367.008 118.628C366.144 120.26 365.712 122.132 365.712 124.244V174.5H350.016V128.852C350.016 117.236 345.456 111.428 336.336 111.428C334.416 111.428 332.496 111.716 330.576 112.292C328.752 112.772 327.12 113.54 325.68 114.596C324.24 115.652 323.088 116.996 322.224 118.628C321.36 120.26 320.928 122.132 320.928 124.244V174.5H305.232ZM433.368 73.988H477.864C486.216 73.988 492.744 76.34 497.448 81.044C502.248 85.748 504.648 92.036 504.648 99.908C504.648 103.652 504.12 106.868 503.064 109.556C502.008 112.148 500.664 114.308 499.032 116.036C497.4 117.668 495.528 118.916 493.416 119.78C491.304 120.548 489.24 121.028 487.224 121.22V122.084C489.24 122.18 491.448 122.66 493.848 123.524C496.344 124.388 498.648 125.78 500.76 127.7C502.872 129.524 504.648 131.924 506.088 134.9C507.528 137.78 508.248 141.332 508.248 145.556C508.248 149.588 507.576 153.38 506.232 156.932C504.984 160.484 503.208 163.556 500.904 166.148C498.6 168.74 495.864 170.804 492.696 172.34C489.528 173.78 486.072 174.5 482.328 174.5H433.368V73.988ZM449.64 160.532H477.576C481.8 160.532 485.112 159.428 487.512 157.22C489.912 155.012 491.112 151.844 491.112 147.716V142.82C491.112 138.692 489.912 135.524 487.512 133.316C485.112 131.108 481.8 130.004 477.576 130.004H449.64V160.532ZM449.64 116.468H474.84C478.872 116.468 481.992 115.46 484.2 113.444C486.408 111.332 487.512 108.356 487.512 104.516V99.908C487.512 96.068 486.408 93.14 484.2 91.124C481.992 89.012 478.872 87.956 474.84 87.956H449.64V116.468ZM589.387 174.5L580.315 147.284H542.731L533.947 174.5H517.387L551.659 73.988H572.107L606.379 174.5H589.387ZM561.883 88.964H561.163L546.619 133.316H576.283L561.883 88.964ZM652.043 176.228C643.595 176.228 636.395 174.692 630.443 171.62C624.587 168.548 619.547 164.42 615.323 159.236L626.555 148.724C630.107 153.044 633.995 156.308 638.219 158.516C642.539 160.724 647.435 161.828 652.907 161.828C659.339 161.828 664.187 160.388 667.451 157.508C670.715 154.628 672.347 150.74 672.347 145.844C672.347 141.908 671.195 138.788 668.891 136.484C666.587 134.18 662.507 132.452 656.651 131.3L647.723 129.716C637.931 127.892 630.587 124.676 625.691 120.068C620.795 115.46 618.347 109.124 618.347 101.06C618.347 96.644 619.163 92.66 620.795 89.108C622.523 85.46 624.875 82.436 627.851 80.036C630.923 77.54 634.619 75.62 638.939 74.276C643.259 72.932 648.107 72.26 653.483 72.26C661.067 72.26 667.643 73.604 673.211 76.292C678.779 78.884 683.531 82.676 687.467 87.668L676.091 97.748C673.499 94.388 670.331 91.7 666.587 89.684C662.843 87.668 658.187 86.66 652.619 86.66C646.859 86.66 642.395 87.812 639.227 90.116C636.059 92.42 634.475 95.78 634.475 100.196C634.475 104.42 635.771 107.588 638.363 109.7C640.955 111.716 644.987 113.252 650.459 114.308L659.387 116.18C669.467 118.1 676.811 121.364 681.419 125.972C686.123 130.58 688.475 136.916 688.475 144.98C688.475 149.684 687.659 153.956 686.027 157.796C684.395 161.636 681.995 164.948 678.827 167.732C675.755 170.42 671.963 172.532 667.451 174.068C662.939 175.508 657.803 176.228 652.043 176.228ZM703.689 174.5V161.252H717.369V87.236H703.689V73.988H747.465V87.236H733.641V161.252H747.465V174.5H703.689ZM798.011 176.228C789.563 176.228 782.363 174.692 776.411 171.62C770.555 168.548 765.515 164.42 761.291 159.236L772.523 148.724C776.075 153.044 779.963 156.308 784.187 158.516C788.507 160.724 793.403 161.828 798.875 161.828C805.307 161.828 810.155 160.388 813.419 157.508C816.683 154.628 818.315 150.74 818.315 145.844C818.315 141.908 817.163 138.788 814.859 136.484C812.555 134.18 808.475 132.452 802.619 131.3L793.691 129.716C783.899 127.892 776.555 124.676 771.659 120.068C766.763 115.46 764.315 109.124 764.315 101.06C764.315 96.644 765.131 92.66 766.763 89.108C768.491 85.46 770.843 82.436 773.819 80.036C776.891 77.54 780.587 75.62 784.907 74.276C789.227 72.932 794.075 72.26 799.451 72.26C807.035 72.26 813.611 73.604 819.179 76.292C824.747 78.884 829.499 82.676 833.435 87.668L822.059 97.748C819.467 94.388 816.299 91.7 812.555 89.684C808.811 87.668 804.155 86.66 798.587 86.66C792.827 86.66 788.363 87.812 785.195 90.116C782.027 92.42 780.443 95.78 780.443 100.196C780.443 104.42 781.739 107.588 784.331 109.7C786.923 111.716 790.955 113.252 796.427 114.308L805.355 116.18C815.435 118.1 822.779 121.364 827.387 125.972C832.091 130.58 834.443 136.916 834.443 144.98C834.443 149.684 833.627 153.956 831.995 157.796C830.363 161.636 827.963 164.948 824.795 167.732C821.723 170.42 817.931 172.532 813.419 174.068C808.907 175.508 803.771 176.228 798.011 176.228Z" fill="white"/>
<defs>
<linearGradient id="paint0_linear_17_1312" x1="114.8" y1="56.7471" x2="114.8" y2="174.827" gradientUnits="userSpaceOnUse">
<stop stop-color="white"/>
<stop offset="1" stop-color="#E4F0FE"/>
</linearGradient>
<clipPath id="clip0_17_1312">
<rect width="240" height="240" fill="white"/>
</clipPath>
</defs>
</svg>
