<svg width="684" height="240" viewBox="0 0 684 240" fill="none" xmlns="http://www.w3.org/2000/svg">
<rect width="240" height="240" rx="120" fill="url(#paint0_radial_17_1320)"/>
<path d="M166.504 139.893C165.282 135.656 163.083 132.023 159.894 129.045C157.711 126.946 154.351 124.653 149.828 122.225C154.709 121.817 158.811 120.816 162.127 119.151C165.475 117.474 168.227 115.29 170.425 112.614C172.658 109.931 174.226 106.903 175.075 103.497C176.236 98.8378 175.924 94.1949 174.143 89.5846C172.343 84.9696 169.167 80.9982 164.561 77.6469C162.793 76.3439 160.59 75.142 158.11 73.9954L162.639 55.8329L145.227 51.4917L141.003 68.4342L129.789 65.6384L134.013 48.6958L116.592 44.3523L112.368 61.2948L85.7743 54.6642L82.2274 68.8901L86.2437 69.8915C88.9556 70.5676 90.7551 71.2854 91.5742 72.0179C92.4003 72.7422 92.9344 73.578 93.1215 74.5267C93.318 75.4578 93.019 77.4564 92.2574 80.5108L77.9423 137.926C77.1901 140.943 76.5298 142.792 75.9134 143.545C75.297 144.318 74.4458 144.794 73.3623 145.062C72.3046 145.286 70.3858 145.047 67.6738 144.371L63.6575 143.37L60.1141 157.581L86.7079 164.212L82.4813 181.164L99.9024 185.508L104.129 168.556L114.043 171.027C114.479 171.136 114.911 171.244 115.333 171.349L111.107 188.301L128.518 192.642L133.104 174.25C136.195 174.427 138.953 174.338 141.364 174.002C147.973 173.098 153.5 170.759 157.941 166.982C162.416 163.204 165.306 158.567 166.668 153.106C167.797 148.558 167.748 144.155 166.504 139.893ZM119.282 80.6357L130.562 83.4479C137.149 85.0904 141.649 86.6509 143.998 88.1236C146.337 89.5541 147.967 91.4107 148.828 93.6538C149.711 95.9319 149.801 98.4264 149.13 101.12C148.483 103.714 147.19 105.824 145.288 107.473C143.338 109.119 140.843 110.072 137.783 110.331C134.7 110.624 130.216 110.039 124.314 108.567L113.034 105.755L119.282 80.6357ZM135.283 152.238C132.624 154.271 129.801 155.376 126.698 155.449C123.649 155.546 119.924 155.056 115.546 153.965L108.03 152.091C105.534 151.468 104.036 150.94 103.525 150.529C103.008 150.146 102.746 149.557 102.658 148.813C102.623 148.211 102.935 146.34 103.7 143.152L109.257 120.865L122.572 124.185C128.456 125.652 132.619 127.263 135.209 129.07C137.778 130.857 139.544 132.992 140.396 135.472C141.313 137.928 141.407 140.668 140.64 143.745C139.745 147.355 137.964 150.16 135.283 152.238Z" fill="white"/>
<path d="M305.232 174.5V99.62H320.928V112.004H321.648C322.416 110.084 323.328 108.26 324.384 106.532C325.536 104.804 326.88 103.316 328.416 102.068C330.048 100.724 331.92 99.716 334.032 99.044C336.24 98.276 338.784 97.892 341.664 97.892C346.752 97.892 351.264 99.14 355.2 101.636C359.136 104.132 362.016 107.972 363.84 113.156H364.272C365.616 108.932 368.208 105.332 372.048 102.356C375.888 99.38 380.832 97.892 386.88 97.892C394.368 97.892 400.176 100.436 404.304 105.524C408.432 110.516 410.496 117.668 410.496 126.98V174.5H394.8V128.852C394.8 123.092 393.696 118.772 391.488 115.892C389.28 112.916 385.776 111.428 380.976 111.428C378.96 111.428 377.04 111.716 375.216 112.292C373.392 112.772 371.76 113.54 370.32 114.596C368.976 115.652 367.872 116.996 367.008 118.628C366.144 120.26 365.712 122.132 365.712 124.244V174.5H350.016V128.852C350.016 117.236 345.456 111.428 336.336 111.428C334.416 111.428 332.496 111.716 330.576 112.292C328.752 112.772 327.12 113.54 325.68 114.596C324.24 115.652 323.088 116.996 322.224 118.628C321.36 120.26 320.928 122.132 320.928 124.244V174.5H305.232ZM433.368 73.988H477.864C486.216 73.988 492.744 76.34 497.448 81.044C502.248 85.748 504.648 92.036 504.648 99.908C504.648 103.652 504.12 106.868 503.064 109.556C502.008 112.148 500.664 114.308 499.032 116.036C497.4 117.668 495.528 118.916 493.416 119.78C491.304 120.548 489.24 121.028 487.224 121.22V122.084C489.24 122.18 491.448 122.66 493.848 123.524C496.344 124.388 498.648 125.78 500.76 127.7C502.872 129.524 504.648 131.924 506.088 134.9C507.528 137.78 508.248 141.332 508.248 145.556C508.248 149.588 507.576 153.38 506.232 156.932C504.984 160.484 503.208 163.556 500.904 166.148C498.6 168.74 495.864 170.804 492.696 172.34C489.528 173.78 486.072 174.5 482.328 174.5H433.368V73.988ZM449.64 160.532H477.576C481.8 160.532 485.112 159.428 487.512 157.22C489.912 155.012 491.112 151.844 491.112 147.716V142.82C491.112 138.692 489.912 135.524 487.512 133.316C485.112 131.108 481.8 130.004 477.576 130.004H449.64V160.532ZM449.64 116.468H474.84C478.872 116.468 481.992 115.46 484.2 113.444C486.408 111.332 487.512 108.356 487.512 104.516V99.908C487.512 96.068 486.408 93.14 484.2 91.124C481.992 89.012 478.872 87.956 474.84 87.956H449.64V116.468ZM561.93 88.388V174.5H545.658V88.388H515.706V73.988H591.882V88.388H561.93ZM642.237 176.228C629.085 176.228 618.765 171.812 611.277 162.98C603.789 154.052 600.045 141.14 600.045 124.244C600.045 115.796 601.005 108.356 602.925 101.924C604.845 95.492 607.629 90.068 611.277 85.652C614.925 81.236 619.341 77.924 624.525 75.716C629.805 73.412 635.709 72.26 642.237 72.26C650.973 72.26 658.269 74.18 664.125 78.02C670.077 81.86 674.733 87.524 678.093 95.012L664.413 102.5C662.685 97.7 659.997 93.908 656.349 91.124C652.797 88.244 648.093 86.804 642.237 86.804C634.461 86.804 628.365 89.444 623.949 94.724C619.533 100.004 617.325 107.3 617.325 116.612V131.876C617.325 141.188 619.533 148.484 623.949 153.764C628.365 159.044 634.461 161.684 642.237 161.684C648.285 161.684 653.181 160.148 656.925 157.076C660.765 153.908 663.597 149.876 665.421 144.98L678.525 152.9C675.165 160.196 670.461 165.908 664.413 170.036C658.365 174.164 650.973 176.228 642.237 176.228Z" fill="white"/>
<defs>
<radialGradient id="paint0_radial_17_1320" cx="0" cy="0" r="1" gradientUnits="userSpaceOnUse" gradientTransform="translate(120 -40) rotate(90) scale(185 183.394)">
<stop stop-color="#F4DFBB"/>
<stop offset="1" stop-color="#EFB404"/>
</radialGradient>
</defs>
</svg>
