<svg width="240" height="240" viewBox="0 0 240 240" fill="none" xmlns="http://www.w3.org/2000/svg">
<rect width="240" height="240" rx="120" fill="url(#paint0_radial_72_325)"/>
<path fill-rule="evenodd" clip-rule="evenodd" d="M137.568 69.4694C136.665 70.415 135.898 72.6914 135.456 75.7317C134.382 83.1277 135.13 87.7146 138.465 94.1714C140.975 99.0296 141.586 100.131 142.716 101.839C143.359 102.811 144.179 104.169 144.537 104.856C145.775 107.236 147.761 110.499 151.103 115.65C151.796 116.718 152.863 118.495 153.474 119.598C154.085 120.702 154.694 121.8 154.828 122.039C154.963 122.278 155.576 123.14 156.191 123.955C157.316 125.446 158.714 127.579 159.164 128.494C159.386 128.942 160.151 130.212 162.016 133.228C162.385 133.825 162.794 134.485 162.923 134.696C163.053 134.906 163.592 135.698 164.12 136.455C164.648 137.212 165.517 138.572 166.052 139.478C166.587 140.383 167.566 141.766 168.227 142.551C170.712 145.501 171.31 146.994 170.773 148.909C170.552 149.694 168.743 151.861 168.505 151.624C168.392 151.511 168.308 151.882 168.368 152.227C168.384 152.317 168.227 152.336 168.02 152.271C167.781 152.195 167.602 152.261 167.528 152.453C167.465 152.619 167.504 152.755 167.615 152.755C167.727 152.755 167.763 152.844 167.696 152.952C167.629 153.06 167.402 153.149 167.192 153.149C166.981 153.149 166.808 153.238 166.808 153.347C166.808 153.455 167.031 153.544 167.301 153.544C167.608 153.544 167.795 153.656 167.795 153.84C167.795 154.07 168.058 154.136 168.978 154.136C169.636 154.136 170.161 154.223 170.161 154.333C170.161 154.441 170.334 154.53 170.545 154.53C170.755 154.53 170.979 154.613 171.042 154.715C171.178 154.935 172.301 155.514 172.608 155.522C172.825 155.528 174.106 156.611 174.106 156.788C174.106 157.039 175.827 158.466 176.135 158.47C176.328 158.473 176.537 158.608 176.6 158.771C176.669 158.953 176.969 159.067 177.382 159.067C177.75 159.067 178.052 159.155 178.052 159.264C178.052 159.372 178.174 159.461 178.325 159.461C178.475 159.461 178.852 159.594 179.163 159.756C179.822 160.1 180.3 160.144 180.115 159.843C180.026 159.7 180.227 159.677 180.744 159.771C181.708 159.945 181.824 160.047 181.092 160.076L180.517 160.1L181.109 160.25C182.001 160.477 183.222 160.479 183.083 160.252C183.013 160.141 183.092 160.107 183.267 160.174C183.435 160.239 183.521 160.374 183.458 160.476C183.209 160.878 187.755 160.64 188.641 160.204C190.332 159.373 190.213 157.259 188.306 154.234C188.1 153.909 187.817 153.453 187.676 153.221C187.348 152.681 185.508 148.954 185.061 147.923C184.514 146.66 183.748 145.186 183.474 144.865C183.334 144.703 182.515 143.194 181.652 141.512C180.79 139.831 179.73 137.878 179.298 137.173C178.866 136.467 177.975 134.87 177.318 133.622C176.303 131.695 175.113 129.548 171.251 122.676C170.946 122.133 170.545 121.467 170.36 121.196C170.174 120.925 169.333 119.371 168.489 117.745C167.645 116.117 166.642 114.297 166.259 113.701C164.603 111.119 160.872 104.786 160.104 103.256C159.223 101.499 158.138 99.6494 156.451 97.0339C155.892 96.1661 155.054 94.7457 154.588 93.8778C154.122 93.0099 153.143 91.2791 152.411 90.0315C151.68 88.7844 150.284 86.3878 149.31 84.706C148.336 83.0247 147.067 80.8944 146.489 79.9725C145.911 79.0502 145.165 77.8224 144.831 77.2441C144.498 76.6654 144.136 76.0441 144.027 75.8634C143.918 75.6822 143.171 74.3806 142.366 72.9701C140.124 69.0442 138.856 68.1189 137.568 69.4694ZM100.954 72.0122C99.5064 72.5444 95.2096 77.8293 95.2096 79.0784C95.2096 79.1259 94.0838 81.2776 92.708 83.8589C91.3321 86.4402 89.8801 89.3067 89.4815 90.2291C89.083 91.1509 88.3478 92.5713 87.8478 93.3847C86.1026 96.225 84.2461 100.633 83.8688 102.83C83.8059 103.198 83.6812 103.642 83.5916 103.817C83.502 103.991 83.4465 104.334 83.4678 104.578C83.4891 104.823 83.4544 105.022 83.3911 105.022C83.1113 105.022 83.4119 109.071 83.7173 109.411C84.199 109.947 84.3619 109.818 84.0347 109.162C83.6124 108.316 83.7797 108.092 84.4025 108.67C84.6956 108.942 85.062 109.164 85.2159 109.164C85.3704 109.164 85.607 109.298 85.7417 109.46C85.9511 109.712 85.8967 109.756 85.3714 109.756C85.0327 109.756 84.7555 109.845 84.7555 109.953C84.7555 110.062 84.9224 110.151 85.1258 110.151C85.3298 110.151 85.607 110.284 85.7417 110.447C86.0977 110.875 87.8666 110.842 88.3686 110.397C88.7473 110.061 88.7513 110.064 88.5161 110.512C88.2617 110.997 88.4107 111.408 88.6815 110.97C88.7681 110.83 88.981 110.695 89.1548 110.669C89.3285 110.644 89.6677 110.45 89.9083 110.239C90.1746 110.005 90.2806 109.971 90.1781 110.151C90.0855 110.313 90.3875 110.073 90.8489 109.617C91.3108 109.16 91.8594 108.733 92.0683 108.667C92.2772 108.6 92.448 108.451 92.448 108.335C92.448 108.219 92.6594 107.929 92.9184 107.689C93.1768 107.449 93.7219 106.774 94.1293 106.187C95.6106 104.057 96.2928 103.129 97.0909 102.162C97.5384 101.62 98.3335 100.528 98.8578 99.7371C101.035 96.4497 103.117 96.0784 105.377 98.5751C105.968 99.2286 106.452 99.841 106.452 99.9356C106.452 100.03 106.622 100.347 106.829 100.642C107.677 101.847 110.7 106.583 111.323 107.685C112.288 109.39 112.331 109.461 113.74 111.63C114.885 113.393 115.96 114.938 116.514 115.616C116.621 115.747 116.709 115.899 116.709 115.955C116.709 116.053 119.013 119.488 119.648 120.335C119.821 120.567 120.097 120.954 120.259 121.197C120.422 121.439 120.798 121.96 121.094 122.354C121.391 122.747 121.979 123.558 122.403 124.155C122.826 124.751 123.395 125.478 123.668 125.77C123.94 126.062 124.405 126.795 124.7 127.398C124.995 128.001 125.33 128.494 125.444 128.494C125.557 128.494 125.595 128.549 125.528 128.617C125.391 128.754 126.202 129.904 126.97 130.664C127.245 130.935 127.673 131.423 127.922 131.748C128.172 132.074 128.308 132.207 128.224 132.044C128.091 131.784 128.116 131.783 128.427 132.036C128.621 132.194 128.913 132.342 129.074 132.366C129.235 132.389 129.537 132.563 129.744 132.75C129.952 132.939 130.122 132.992 130.122 132.87C130.122 132.609 130.67 132.772 131.137 133.172C131.357 133.36 131.505 133.383 131.593 133.241C131.835 132.849 132.686 132.993 132.686 133.425C132.686 133.676 132.817 133.82 133.045 133.82C133.243 133.82 133.614 134.042 133.869 134.313C134.124 134.584 134.435 134.806 134.559 134.806C134.684 134.806 134.995 135.028 135.25 135.299C135.602 135.673 135.913 135.792 136.542 135.792C137.053 135.792 137.469 135.91 137.627 136.101C137.859 136.379 137.9 136.378 138.064 136.086C138.229 135.789 138.274 135.791 138.621 136.104C138.828 136.292 139 136.364 139.004 136.266C139.007 136.168 139.14 136.26 139.299 136.471C139.58 136.841 139.589 136.838 139.592 136.372C139.594 135.989 139.634 135.951 139.786 136.187C139.956 136.45 139.978 136.45 139.983 136.187C139.989 135.923 140.011 135.923 140.182 136.187C140.329 136.413 140.365 136.355 140.333 135.94C140.31 135.642 140.241 135.398 140.18 135.398C140.118 135.398 140.055 135.233 140.04 135.033C139.968 134.077 138.899 131.372 138.358 130.775C138.167 130.564 138.011 130.333 138.011 130.262C138.011 130.191 137.835 129.919 137.62 129.658C137.014 128.923 136.931 128.795 136.861 128.488C136.825 128.331 136.726 128.157 136.641 128.102C136.556 128.046 136.024 126.892 135.459 125.536C133.999 122.03 132.832 119.699 130.124 114.884C129.606 113.962 128.756 112.365 128.237 111.334C127.717 110.304 126.801 108.706 126.201 107.784C125.6 106.861 124.466 104.82 123.679 103.247C122.021 99.9321 121.032 98.1058 119.206 94.9868C118.484 93.7521 117.893 92.702 117.893 92.653C117.893 92.604 117.594 92.1054 117.228 91.5445C116.351 90.1974 115.131 88.075 115.131 87.8958C115.131 87.6715 112.572 83.2207 111.257 81.1558C110.6 80.125 109.509 78.1947 108.833 76.8654C106.628 72.5295 103.982 70.9002 100.954 72.0122ZM140.184 136.944C140.193 137.333 140.57 137.649 140.575 137.271C140.581 136.938 140.614 136.923 140.79 137.173C140.954 137.404 140.984 137.408 140.925 137.19C140.851 136.914 140.178 136.691 140.184 136.944Z" fill="white"/>
<path fill-rule="evenodd" clip-rule="evenodd" d="M137.4 68.5818C135.325 70.6527 134.348 75.101 134.516 81.7093C134.687 88.4587 135.568 91.0207 140.836 100.091C144.548 106.482 149.268 114.481 150.663 116.745C153.287 121.002 155.402 124.613 156.607 126.893C157.259 128.127 158.735 130.718 159.885 132.649C162.273 136.66 164.466 140.378 165.975 142.976C169.044 148.257 168.355 148.909 159.708 148.909H153.889L152.791 148.393C151.252 147.672 149.439 145.126 145.36 137.962C144.711 136.822 143.291 134.422 142.204 132.626C141.117 130.831 139.159 127.458 137.854 125.131C136.549 122.804 134.485 119.258 133.267 117.251C131.02 113.549 129.593 111.129 126.921 106.49C126.105 105.074 124.843 102.953 124.116 101.777C123.389 100.601 122.062 98.3434 121.166 96.7587C119.205 93.2911 114.03 84.3827 112.986 82.6757C112.574 82.0024 111.635 80.3864 110.899 79.0849C107.372 72.8513 105.428 70.8967 102.76 70.9012C100.396 70.9052 98.5112 72.3389 96.6888 75.5203C95.6823 77.2773 95.065 78.2972 91.4044 84.2515C90.2578 86.1165 88.1557 89.6667 86.7328 92.1411C85.31 94.615 83.4103 97.882 82.5113 99.4009C81.6117 100.919 80.121 103.449 79.1982 105.022C78.2749 106.595 76.7679 109.125 75.8485 110.644C74.9291 112.163 73.6573 114.381 73.0226 115.575C72.3874 116.768 71.4537 118.41 70.9477 119.224C70.4418 120.037 69.5214 121.62 68.9031 122.74C68.2842 123.861 66.9693 126.072 65.9806 127.655C64.9924 129.237 63.5909 131.56 62.8671 132.817C62.1428 134.074 60.5293 136.877 59.2812 139.046C58.0331 141.216 56.4345 143.968 55.729 145.161C47.8602 158.469 47.8241 158.558 49.1667 161.249C49.9425 162.803 51.3575 163.878 53.4145 164.477C54.7171 164.855 117.486 165.097 119.362 164.73C126.616 163.314 113.083 151.483 101.916 149.477C100.338 149.193 98.1117 149.122 87.8131 149.024C74.3133 148.894 74.4722 148.91 73.8217 147.652C73.2642 146.574 73.632 145.392 75.4307 142.483C75.8609 141.786 77.0852 139.707 78.1511 137.863C79.217 136.019 80.6414 133.578 81.3157 132.439C81.9905 131.3 83.0544 129.436 83.6802 128.297C84.3059 127.157 85.1614 125.716 85.5818 125.094C86.4358 123.828 90.7761 116.526 91.943 114.391C92.3584 113.632 93.3852 111.857 94.2253 110.447C95.065 109.036 96.777 106.146 98.029 104.024C101.714 97.7795 103.06 97.23 105.43 101.003C107.864 104.876 111.122 110.324 113.825 115.039C115.489 117.943 117.579 121.507 118.47 122.961C119.361 124.415 120.666 126.66 121.37 127.95C122.074 129.24 123.471 131.643 124.476 133.29C125.48 134.937 126.908 137.395 127.65 138.751C128.391 140.107 129.816 142.547 130.815 144.175C131.815 145.802 133.103 147.977 133.678 149.007C134.253 150.038 134.962 151.236 135.254 151.67C135.546 152.104 136.168 153.169 136.638 154.037C140.445 161.077 142.471 163.562 145.112 164.429C146.591 164.915 185.123 165.04 187.519 164.567C190.964 163.886 192.937 161.081 192.261 157.824C191.966 156.402 190.981 154.5 187.491 148.613C185.915 145.955 184.153 142.937 183.575 141.906C182.997 140.876 181.993 139.145 181.344 138.06C180.695 136.975 179.438 134.845 178.551 133.327C173.686 124.998 170.508 119.58 168.889 116.857C167.89 115.175 166.718 113.178 166.286 112.419C164.303 108.933 161.721 104.567 160.673 102.927C160.041 101.938 158.886 99.941 158.105 98.4895C157.326 97.0379 156.187 95.0516 155.575 94.0753C154.963 93.099 154.163 91.7673 153.797 91.1167C153.153 89.9736 146.603 78.8343 143.015 72.78C140.171 67.9812 138.93 67.0535 137.4 68.5818ZM140.138 69.6665C140.558 70.0734 141.561 71.5602 142.366 72.9701C143.171 74.3806 143.918 75.6822 144.027 75.8634C144.136 76.0441 144.498 76.6654 144.831 77.2441C145.165 77.8224 145.911 79.0502 146.489 79.9725C147.067 80.8944 148.336 83.0247 149.31 84.706C150.284 86.3878 151.68 88.7844 152.411 90.0315C153.143 91.2791 154.122 93.0099 154.588 93.8778C155.054 94.7457 155.892 96.1661 156.451 97.0339C158.138 99.6494 159.223 101.499 160.104 103.256C160.872 104.786 164.603 111.119 166.259 113.701C166.642 114.297 167.645 116.117 168.489 117.745C169.333 119.371 170.174 120.925 170.36 121.196C170.545 121.467 170.946 122.133 171.251 122.676C175.113 129.548 176.303 131.695 177.318 133.622C177.975 134.87 178.866 136.467 179.298 137.173C179.73 137.878 180.79 139.831 181.652 141.512C182.515 143.194 183.334 144.703 183.474 144.865C183.748 145.186 184.514 146.66 185.061 147.923C185.508 148.954 187.348 152.681 187.676 153.221C187.817 153.453 188.1 153.909 188.306 154.234C190.213 157.259 190.332 159.373 188.641 160.204C187.755 160.64 183.209 160.878 183.458 160.476C183.521 160.374 183.435 160.239 183.267 160.174C183.092 160.107 183.013 160.141 183.083 160.252C183.222 160.479 182.001 160.477 181.109 160.25L180.517 160.1L181.092 160.076C181.824 160.047 181.708 159.945 180.744 159.771C180.227 159.677 180.026 159.7 180.115 159.843C180.3 160.144 179.822 160.1 179.163 159.756C178.852 159.594 178.475 159.461 178.325 159.461C178.174 159.461 178.052 159.372 178.052 159.264C178.052 159.155 177.75 159.067 177.382 159.067C176.969 159.067 176.669 158.953 176.6 158.771C176.537 158.608 176.328 158.473 176.135 158.47C175.827 158.466 174.106 157.039 174.106 156.788C174.106 156.611 172.825 155.528 172.608 155.522C172.301 155.514 171.178 154.935 171.042 154.715C170.979 154.613 170.755 154.53 170.545 154.53C170.334 154.53 170.161 154.441 170.161 154.333C170.161 154.223 169.636 154.136 168.978 154.136C168.058 154.136 167.795 154.07 167.795 153.84C167.795 153.656 167.608 153.544 167.301 153.544C167.031 153.544 166.808 153.455 166.808 153.347C166.808 153.238 166.981 153.149 167.192 153.149C167.402 153.149 167.629 153.06 167.696 152.952C167.763 152.844 167.727 152.755 167.615 152.755C167.504 152.755 167.465 152.619 167.528 152.453C167.602 152.261 167.781 152.195 168.02 152.271C168.227 152.336 168.384 152.317 168.368 152.227C168.308 151.882 168.392 151.511 168.505 151.624C168.743 151.861 170.552 149.694 170.773 148.909C171.31 146.994 170.712 145.501 168.227 142.551C167.566 141.766 166.587 140.383 166.052 139.478C165.517 138.572 164.648 137.212 164.12 136.455C163.592 135.698 163.053 134.906 162.923 134.696C162.794 134.485 162.385 133.825 162.016 133.228C160.151 130.212 159.386 128.942 159.164 128.494C158.714 127.579 157.316 125.446 156.191 123.955C155.576 123.14 154.963 122.278 154.828 122.039C154.694 121.8 154.085 120.702 153.474 119.598C152.863 118.495 151.796 116.718 151.103 115.65C147.761 110.499 145.775 107.236 144.537 104.856C144.179 104.169 143.359 102.811 142.716 101.839C140.09 97.8731 136.821 91.1801 135.835 87.7487C135.085 85.1372 134.804 81.1172 135.155 78.0001C136.021 70.3215 137.779 67.3807 140.138 69.6665ZM105.168 72.3874C106.7 73.2855 107.525 74.2935 108.833 76.8654C109.509 78.1947 110.6 80.125 111.257 81.1558C112.572 83.2207 115.131 87.6715 115.131 87.8958C115.131 88.075 116.351 90.1974 117.228 91.5445C117.594 92.1054 117.893 92.604 117.893 92.653C117.893 92.702 118.484 93.7521 119.206 94.9868C121.032 98.1058 122.021 99.9321 123.679 103.247C124.466 104.82 125.6 106.861 126.201 107.784C126.801 108.706 127.717 110.304 128.237 111.334C128.756 112.365 129.606 113.962 130.124 114.884C132.832 119.699 133.999 122.03 135.459 125.536C136.024 126.892 136.556 128.046 136.641 128.102C136.726 128.157 136.825 128.331 136.861 128.488C136.931 128.795 137.014 128.923 137.62 129.658C137.835 129.919 138.011 130.191 138.011 130.262C138.011 130.333 138.167 130.564 138.358 130.775C138.899 131.372 139.968 134.077 140.04 135.033C140.055 135.233 140.118 135.398 140.18 135.398C140.241 135.398 140.31 135.642 140.333 135.94C140.365 136.355 140.329 136.413 140.182 136.187C140.011 135.923 139.989 135.923 139.983 136.187C139.978 136.45 139.956 136.45 139.786 136.187C139.634 135.951 139.594 135.989 139.592 136.372C139.589 136.838 139.58 136.841 139.299 136.471C139.14 136.26 139.007 136.168 139.004 136.266C139 136.364 138.828 136.292 138.621 136.104C138.274 135.791 138.229 135.789 138.064 136.086C137.9 136.378 137.859 136.379 137.627 136.101C137.469 135.91 137.053 135.792 136.542 135.792C135.913 135.792 135.602 135.673 135.25 135.299C134.995 135.028 134.684 134.806 134.559 134.806C134.435 134.806 134.124 134.584 133.869 134.313C133.614 134.042 133.243 133.82 133.045 133.82C132.817 133.82 132.686 133.676 132.686 133.425C132.686 132.993 131.835 132.849 131.593 133.241C131.505 133.383 131.357 133.36 131.137 133.172C130.67 132.772 130.122 132.609 130.122 132.87C130.122 132.992 129.952 132.939 129.744 132.75C129.537 132.563 129.235 132.389 129.074 132.366C128.913 132.342 128.621 132.194 128.427 132.036C128.116 131.783 128.091 131.784 128.224 132.044C128.308 132.207 128.172 132.074 127.922 131.748C127.673 131.423 127.245 130.935 126.97 130.664C126.202 129.904 125.391 128.754 125.528 128.617C125.595 128.549 125.557 128.494 125.444 128.494C125.33 128.494 124.995 128.001 124.7 127.398C124.405 126.795 123.94 126.062 123.668 125.77C123.395 125.478 122.826 124.751 122.403 124.155C121.979 123.558 121.391 122.747 121.094 122.354C120.798 121.96 120.422 121.439 120.259 121.197C120.097 120.954 119.821 120.567 119.648 120.335C119.013 119.488 116.709 116.053 116.709 115.955C116.709 115.899 116.621 115.747 116.514 115.616C115.96 114.938 114.885 113.393 113.74 111.63C112.331 109.461 112.288 109.39 111.323 107.685C110.7 106.583 107.677 101.847 106.829 100.642C106.622 100.347 106.452 100.03 106.452 99.9356C106.452 99.841 105.968 99.2286 105.377 98.5751C103.117 96.0784 101.035 96.4497 98.8578 99.7371C98.3335 100.528 97.5384 101.62 97.0909 102.162C96.2928 103.129 95.6106 104.057 94.1293 106.187C93.7219 106.774 93.1768 107.449 92.9184 107.689C92.6594 107.929 92.448 108.219 92.448 108.335C92.448 108.451 92.2772 108.6 92.0683 108.667C91.8594 108.733 91.3108 109.16 90.8489 109.617C90.3875 110.073 90.0855 110.313 90.1781 110.151C90.2806 109.971 90.1746 110.005 89.9083 110.239C89.6677 110.45 89.3285 110.644 89.1548 110.669C88.981 110.695 88.7681 110.83 88.6815 110.97C88.4107 111.408 88.2617 110.997 88.5161 110.512C88.7513 110.064 88.7473 110.061 88.3686 110.397C87.8666 110.842 86.0977 110.875 85.7417 110.447C85.607 110.284 85.3298 110.151 85.1258 110.151C84.9224 110.151 84.7555 110.062 84.7555 109.953C84.7555 109.845 85.0327 109.756 85.3714 109.756C85.8967 109.756 85.9511 109.712 85.7417 109.46C85.607 109.298 85.3704 109.164 85.2159 109.164C85.062 109.164 84.6956 108.942 84.4025 108.67C83.7797 108.092 83.6124 108.316 84.0347 109.162C84.3619 109.818 84.199 109.947 83.7173 109.411C83.4119 109.071 83.1113 105.022 83.3911 105.022C83.4544 105.022 83.4891 104.823 83.4678 104.578C83.4465 104.334 83.502 103.991 83.5916 103.817C83.6812 103.642 83.8059 103.198 83.8688 102.83C84.2461 100.633 86.1026 96.225 87.8478 93.3847C88.3478 92.5713 89.083 91.1509 89.4815 90.2291C89.8801 89.3067 91.3321 86.4402 92.708 83.8589C94.0838 81.2776 95.2096 79.1259 95.2096 79.0784C95.2096 78.6274 98.0468 74.3737 98.9504 73.4702C100.843 71.578 103.112 71.1829 105.168 72.3874ZM140.925 137.19C140.984 137.408 140.954 137.404 140.79 137.173C140.614 136.923 140.581 136.938 140.575 137.271C140.57 137.649 140.193 137.333 140.184 136.944C140.178 136.691 140.851 136.914 140.925 137.19Z" fill="white"/>
<path d="M142.716 101.839C141.586 100.131 140.975 99.0296 138.465 94.1714C135.13 87.7146 134.382 83.1277 135.456 75.7317C135.898 72.6914 136.665 70.415 137.568 69.4694C138.856 68.1189 140.124 69.0442 142.366 72.9701M142.716 101.839C143.359 102.811 144.179 104.169 144.537 104.856C145.775 107.236 147.761 110.499 151.103 115.65C151.796 116.718 152.863 118.495 153.474 119.598C154.085 120.702 154.694 121.8 154.828 122.039C154.963 122.278 155.576 123.14 156.191 123.955C157.316 125.446 158.714 127.579 159.164 128.494C159.386 128.942 160.151 130.212 162.016 133.228C162.385 133.825 162.794 134.485 162.923 134.696C163.053 134.906 163.592 135.698 164.12 136.455C164.648 137.212 165.517 138.572 166.052 139.478C166.587 140.383 167.566 141.766 168.227 142.551C170.712 145.501 171.31 146.994 170.773 148.909C170.552 149.694 168.743 151.861 168.505 151.624C168.392 151.511 168.308 151.882 168.368 152.227C168.384 152.317 168.227 152.336 168.02 152.271C167.781 152.195 167.602 152.261 167.528 152.453C167.465 152.619 167.504 152.755 167.615 152.755C167.727 152.755 167.763 152.844 167.696 152.952C167.629 153.06 167.402 153.149 167.192 153.149C166.981 153.149 166.808 153.238 166.808 153.347C166.808 153.455 167.031 153.544 167.301 153.544C167.608 153.544 167.795 153.656 167.795 153.84C167.795 154.07 168.058 154.136 168.978 154.136C169.636 154.136 170.161 154.223 170.161 154.333C170.161 154.441 170.334 154.53 170.545 154.53C170.755 154.53 170.979 154.613 171.042 154.715C171.178 154.935 172.301 155.514 172.608 155.522C172.825 155.528 174.106 156.611 174.106 156.788C174.106 157.039 175.827 158.466 176.135 158.47C176.328 158.473 176.537 158.608 176.6 158.771C176.669 158.953 176.969 159.067 177.382 159.067C177.75 159.067 178.052 159.155 178.052 159.264C178.052 159.372 178.174 159.461 178.325 159.461C178.475 159.461 178.852 159.594 179.163 159.756C179.822 160.1 180.3 160.144 180.115 159.843C180.026 159.7 180.227 159.677 180.744 159.771C181.708 159.945 181.824 160.047 181.092 160.076L180.517 160.1L181.109 160.25C182.001 160.477 183.222 160.479 183.083 160.252C183.013 160.141 183.092 160.107 183.267 160.174C183.435 160.239 183.521 160.374 183.458 160.476C183.209 160.878 187.755 160.64 188.641 160.204C190.332 159.373 190.213 157.259 188.306 154.234C188.1 153.909 187.817 153.453 187.676 153.221C187.348 152.681 185.508 148.954 185.061 147.923C184.514 146.66 183.748 145.186 183.474 144.865C183.334 144.703 182.515 143.194 181.652 141.512C180.79 139.831 179.73 137.878 179.298 137.173C178.866 136.467 177.975 134.87 177.318 133.622C176.303 131.695 175.113 129.548 171.251 122.676C170.946 122.133 170.545 121.467 170.36 121.196C170.174 120.925 169.333 119.371 168.489 117.745C167.645 116.117 166.642 114.297 166.259 113.701C164.603 111.119 160.872 104.786 160.104 103.256C159.223 101.499 158.138 99.6494 156.451 97.0339C155.892 96.1661 155.054 94.7457 154.588 93.8778C154.122 93.0099 153.143 91.2791 152.411 90.0315C151.68 88.7844 150.284 86.3878 149.31 84.706C148.336 83.0247 147.067 80.8944 146.489 79.9725C145.911 79.0502 145.165 77.8224 144.831 77.2441C144.498 76.6654 144.136 76.0441 144.027 75.8634C143.918 75.6822 143.171 74.3806 142.366 72.9701M142.716 101.839C140.09 97.8731 136.821 91.1801 135.835 87.7487C135.085 85.1372 134.804 81.1172 135.155 78.0001C136.021 70.3215 137.779 67.3807 140.138 69.6665C140.558 70.0734 141.561 71.5602 142.366 72.9701M95.2096 79.0784C95.2096 77.8293 99.5064 72.5444 100.954 72.0122C103.982 70.9002 106.628 72.5295 108.833 76.8654M95.2096 79.0784C95.2096 79.1259 94.0838 81.2776 92.708 83.8589C91.3321 86.4402 89.8801 89.3067 89.4815 90.2291C89.083 91.1509 88.3478 92.5713 87.8478 93.3847C86.1026 96.225 84.2461 100.633 83.8688 102.83C83.8059 103.198 83.6812 103.642 83.5916 103.817C83.502 103.991 83.4465 104.334 83.4678 104.578C83.4891 104.823 83.4544 105.022 83.3911 105.022C83.1113 105.022 83.4119 109.071 83.7173 109.411C84.199 109.947 84.3619 109.818 84.0347 109.162C83.6124 108.316 83.7797 108.092 84.4025 108.67C84.6956 108.942 85.062 109.164 85.2159 109.164C85.3704 109.164 85.607 109.298 85.7417 109.46C85.9511 109.712 85.8967 109.756 85.3714 109.756C85.0327 109.756 84.7555 109.845 84.7555 109.953C84.7555 110.062 84.9224 110.151 85.1258 110.151C85.3298 110.151 85.607 110.284 85.7417 110.447C86.0977 110.875 87.8666 110.842 88.3686 110.397C88.7473 110.061 88.7513 110.064 88.5161 110.512C88.2617 110.997 88.4107 111.408 88.6815 110.97C88.7681 110.83 88.981 110.695 89.1548 110.669C89.3285 110.644 89.6677 110.45 89.9083 110.239C90.1746 110.005 90.2806 109.971 90.1781 110.151C90.0855 110.313 90.3875 110.073 90.8489 109.617C91.3108 109.16 91.8594 108.733 92.0683 108.667C92.2772 108.6 92.448 108.451 92.448 108.335C92.448 108.219 92.6594 107.929 92.9184 107.689C93.1768 107.449 93.7219 106.774 94.1293 106.187C95.6106 104.057 96.2928 103.129 97.0909 102.162C97.5384 101.62 98.3335 100.528 98.8578 99.7371C101.035 96.4497 103.117 96.0784 105.377 98.5751C105.968 99.2286 106.452 99.841 106.452 99.9356C106.452 100.03 106.622 100.347 106.829 100.642C107.677 101.847 110.7 106.583 111.323 107.685C112.288 109.39 112.331 109.461 113.74 111.63C114.885 113.393 115.96 114.938 116.514 115.616C116.621 115.747 116.709 115.899 116.709 115.955C116.709 116.053 119.013 119.488 119.648 120.335C119.821 120.567 120.097 120.954 120.259 121.197C120.422 121.439 120.798 121.96 121.094 122.354C121.391 122.747 121.979 123.558 122.403 124.155C122.826 124.751 123.395 125.478 123.668 125.77C123.94 126.062 124.405 126.795 124.7 127.398C124.995 128.001 125.33 128.494 125.444 128.494C125.557 128.494 125.595 128.549 125.528 128.617C125.391 128.754 126.202 129.904 126.97 130.664C127.245 130.935 127.673 131.423 127.922 131.748C128.172 132.074 128.308 132.207 128.224 132.044C128.091 131.784 128.116 131.783 128.427 132.036C128.621 132.194 128.913 132.342 129.074 132.366C129.235 132.389 129.537 132.563 129.744 132.75C129.952 132.939 130.122 132.992 130.122 132.87C130.122 132.609 130.67 132.772 131.137 133.172C131.357 133.36 131.505 133.383 131.593 133.241C131.835 132.849 132.686 132.993 132.686 133.425C132.686 133.676 132.817 133.82 133.045 133.82C133.243 133.82 133.614 134.042 133.869 134.313C134.124 134.584 134.435 134.806 134.559 134.806C134.684 134.806 134.995 135.028 135.25 135.299C135.602 135.673 135.913 135.792 136.542 135.792C137.053 135.792 137.469 135.91 137.627 136.101C137.859 136.379 137.9 136.378 138.064 136.086C138.229 135.789 138.274 135.791 138.621 136.104C138.828 136.292 139 136.364 139.004 136.266C139.007 136.168 139.14 136.26 139.299 136.471C139.58 136.841 139.589 136.838 139.592 136.372C139.594 135.989 139.634 135.951 139.786 136.187C139.956 136.45 139.978 136.45 139.983 136.187C139.989 135.923 140.011 135.923 140.182 136.187C140.329 136.413 140.365 136.355 140.333 135.94C140.31 135.642 140.241 135.398 140.18 135.398C140.118 135.398 140.055 135.233 140.04 135.033C139.968 134.077 138.899 131.372 138.358 130.775C138.167 130.564 138.011 130.333 138.011 130.262C138.011 130.191 137.835 129.919 137.62 129.658C137.014 128.923 136.931 128.795 136.861 128.488C136.825 128.331 136.726 128.157 136.641 128.102C136.556 128.046 136.024 126.892 135.459 125.536C133.999 122.03 132.832 119.699 130.124 114.884C129.606 113.962 128.756 112.365 128.237 111.334C127.717 110.304 126.801 108.706 126.201 107.784C125.6 106.861 124.466 104.82 123.679 103.247C122.021 99.9321 121.032 98.1058 119.206 94.9868C118.484 93.7521 117.893 92.702 117.893 92.653C117.893 92.604 117.594 92.1054 117.228 91.5445C116.351 90.1974 115.131 88.075 115.131 87.8958C115.131 87.6715 112.572 83.2207 111.257 81.1558C110.6 80.125 109.509 78.1947 108.833 76.8654M95.2096 79.0784C95.2096 78.6274 98.0468 74.3737 98.9504 73.4702C100.843 71.578 103.112 71.1829 105.168 72.3874C106.7 73.2855 107.525 74.2935 108.833 76.8654M140.184 136.944C140.193 137.333 140.57 137.649 140.575 137.271C140.581 136.938 140.614 136.923 140.79 137.173C140.954 137.404 140.984 137.408 140.925 137.19C140.851 136.914 140.178 136.691 140.184 136.944ZM137.4 68.5818C135.325 70.6527 134.348 75.101 134.516 81.7093C134.687 88.4587 135.568 91.0207 140.836 100.091C144.548 106.482 149.268 114.481 150.663 116.745C153.287 121.002 155.402 124.613 156.607 126.893C157.259 128.127 158.735 130.718 159.885 132.649C162.273 136.66 164.466 140.378 165.975 142.976C169.044 148.257 168.355 148.909 159.708 148.909H153.889L152.791 148.393C151.252 147.672 149.439 145.126 145.36 137.962C144.711 136.822 143.291 134.422 142.204 132.626C141.117 130.831 139.159 127.458 137.854 125.131C136.549 122.804 134.485 119.258 133.267 117.251C131.02 113.549 129.593 111.129 126.921 106.49C126.105 105.074 124.843 102.953 124.116 101.777C123.389 100.601 122.062 98.3434 121.166 96.7587C119.205 93.2911 114.03 84.3827 112.986 82.6757C112.574 82.0024 111.635 80.3864 110.899 79.0849C107.372 72.8513 105.428 70.8967 102.76 70.9012C100.396 70.9052 98.5112 72.3389 96.6888 75.5203C95.6823 77.2773 95.065 78.2972 91.4044 84.2515C90.2578 86.1165 88.1557 89.6667 86.7328 92.1411C85.31 94.615 83.4103 97.882 82.5113 99.4009C81.6117 100.919 80.121 103.449 79.1982 105.022C78.2749 106.595 76.7679 109.125 75.8485 110.644C74.9291 112.163 73.6573 114.381 73.0226 115.575C72.3874 116.768 71.4537 118.41 70.9477 119.224C70.4418 120.037 69.5214 121.62 68.9031 122.74C68.2842 123.861 66.9693 126.072 65.9806 127.655C64.9924 129.237 63.5909 131.56 62.8671 132.817C62.1428 134.074 60.5293 136.877 59.2812 139.046C58.0331 141.216 56.4345 143.968 55.729 145.161C47.8602 158.469 47.8241 158.558 49.1667 161.249C49.9425 162.803 51.3575 163.878 53.4145 164.477C54.7171 164.855 117.486 165.097 119.362 164.73C126.616 163.314 113.083 151.483 101.916 149.477C100.338 149.193 98.1117 149.122 87.8131 149.024C74.3133 148.894 74.4722 148.91 73.8217 147.652C73.2642 146.574 73.632 145.392 75.4307 142.483C75.8609 141.786 77.0852 139.707 78.1511 137.863C79.217 136.019 80.6414 133.578 81.3157 132.439C81.9905 131.3 83.0544 129.436 83.6802 128.297C84.3059 127.157 85.1614 125.716 85.5818 125.094C86.4358 123.828 90.7761 116.526 91.943 114.391C92.3584 113.632 93.3852 111.857 94.2253 110.447C95.065 109.036 96.777 106.146 98.029 104.024C101.714 97.7795 103.06 97.23 105.43 101.003C107.864 104.876 111.122 110.324 113.825 115.039C115.489 117.943 117.579 121.507 118.47 122.961C119.361 124.415 120.666 126.66 121.37 127.95C122.074 129.24 123.471 131.643 124.476 133.29C125.48 134.937 126.908 137.395 127.65 138.751C128.391 140.107 129.816 142.547 130.815 144.175C131.815 145.802 133.103 147.977 133.678 149.007C134.253 150.038 134.962 151.236 135.254 151.67C135.546 152.104 136.168 153.169 136.638 154.037C140.445 161.077 142.471 163.562 145.112 164.429C146.591 164.915 185.123 165.04 187.519 164.567C190.964 163.886 192.937 161.081 192.261 157.824C191.966 156.402 190.981 154.5 187.491 148.613C185.915 145.955 184.153 142.937 183.575 141.906C182.997 140.876 181.993 139.145 181.344 138.06C180.695 136.975 179.438 134.845 178.551 133.327C173.686 124.998 170.508 119.58 168.889 116.857C167.89 115.175 166.718 113.178 166.286 112.419C164.303 108.933 161.721 104.567 160.673 102.927C160.041 101.938 158.886 99.941 158.105 98.4895C157.326 97.0379 156.187 95.0516 155.575 94.0753C154.963 93.099 154.163 91.7673 153.797 91.1167C153.153 89.9736 146.603 78.8343 143.015 72.78C140.171 67.9812 138.93 67.0535 137.4 68.5818Z" stroke="white" stroke-width="4.85028"/>
<defs>
<radialGradient id="paint0_radial_72_325" cx="0" cy="0" r="1" gradientUnits="userSpaceOnUse" gradientTransform="translate(83.5 3) rotate(76.5822) scale(157.294)">
<stop stop-color="#00B8E5"/>
<stop offset="1" stop-color="#0071F4"/>
</radialGradient>
</defs>
</svg>
