<svg width="865" height="241" viewBox="0 0 865 241" fill="none" xmlns="http://www.w3.org/2000/svg">
<rect x="0.862305" y="0.0366211" width="240" height="240" rx="120" fill="url(#paint0_radial_72_294)"/>
<path fill-rule="evenodd" clip-rule="evenodd" d="M138.429 69.5061C137.527 70.4517 136.76 72.728 136.318 75.7683C135.243 83.1643 135.992 87.7512 139.327 94.208C141.836 99.0662 142.447 100.168 143.578 101.875C144.221 102.847 145.041 104.205 145.399 104.893C146.637 107.272 148.622 110.536 151.965 115.687C152.658 116.755 153.725 118.532 154.336 119.635C154.947 120.738 155.556 121.836 155.69 122.075C155.824 122.315 156.438 123.177 157.053 123.992C158.178 125.483 159.576 127.616 160.026 128.531C160.247 128.979 161.012 130.249 162.878 133.264C163.247 133.861 163.656 134.522 163.785 134.732C163.915 134.943 164.454 135.735 164.981 136.491C165.51 137.248 166.379 138.609 166.914 139.514C167.449 140.42 168.428 141.803 169.089 142.588C171.574 145.537 172.172 147.03 171.635 148.945C171.414 149.731 169.604 151.898 169.367 151.661C169.254 151.548 169.17 151.918 169.23 152.264C169.245 152.354 169.089 152.373 168.882 152.307C168.642 152.231 168.464 152.298 168.39 152.49C168.327 152.656 168.366 152.792 168.477 152.792C168.589 152.792 168.625 152.88 168.558 152.989C168.491 153.097 168.264 153.186 168.053 153.186C167.842 153.186 167.67 153.275 167.67 153.383C167.67 153.492 167.892 153.58 168.163 153.58C168.47 153.58 168.656 153.692 168.656 153.876C168.656 154.107 168.92 154.172 169.84 154.172C170.498 154.172 171.023 154.26 171.023 154.369C171.023 154.478 171.196 154.567 171.407 154.567C171.617 154.567 171.841 154.65 171.904 154.752C172.04 154.971 173.163 155.55 173.47 155.559C173.687 155.565 174.968 156.648 174.968 156.825C174.968 157.076 176.689 158.502 176.996 158.507C177.19 158.509 177.398 158.644 177.461 158.807C177.531 158.99 177.831 159.103 178.244 159.103C178.612 159.103 178.913 159.192 178.913 159.3C178.913 159.409 179.036 159.497 179.187 159.497C179.337 159.497 179.714 159.63 180.025 159.793C180.684 160.136 181.162 160.18 180.976 159.88C180.888 159.737 181.089 159.714 181.606 159.807C182.57 159.982 182.685 160.083 181.954 160.113L181.379 160.136L181.97 160.287C182.863 160.514 184.084 160.515 183.944 160.289C183.875 160.177 183.954 160.144 184.129 160.211C184.296 160.275 184.383 160.411 184.32 160.513C184.071 160.915 188.617 160.676 189.503 160.241C191.194 159.409 191.075 157.295 189.167 154.271C188.962 153.945 188.679 153.49 188.538 153.258C188.21 152.717 186.37 148.99 185.923 147.959C185.376 146.697 184.61 145.222 184.335 144.902C184.196 144.739 183.377 143.23 182.514 141.549C181.652 139.867 180.592 137.915 180.16 137.21C179.728 136.504 178.837 134.906 178.18 133.659C177.165 131.732 175.975 129.584 172.113 122.712C171.808 122.17 171.407 121.504 171.222 121.233C171.036 120.962 170.195 119.408 169.35 117.781C168.507 116.154 167.503 114.334 167.121 113.737C165.465 111.156 161.734 104.823 160.966 103.292C160.085 101.536 158.999 99.6861 157.313 97.0706C156.754 96.2027 155.915 94.7823 155.45 93.9144C154.984 93.0465 154.005 91.3158 153.273 90.0682C152.542 88.8211 151.146 86.4244 150.172 84.7426C149.198 83.0613 147.928 80.931 147.351 80.0091C146.773 79.0868 146.027 77.859 145.693 77.2808C145.359 76.702 144.998 76.0807 144.889 75.9C144.78 75.7188 144.033 74.4172 143.228 73.0068C140.986 69.0808 139.718 68.1555 138.429 69.5061ZM101.816 72.0488C100.368 72.581 96.0714 77.8659 96.0714 79.115C96.0714 79.1626 94.9456 81.3142 93.5698 83.8955C92.1939 86.4769 90.7419 89.3434 90.3433 90.2657C89.9448 91.1875 89.2096 92.6079 88.7096 93.4213C86.9644 96.2616 85.1079 100.669 84.7306 102.867C84.6678 103.234 84.543 103.678 84.4534 103.853C84.3638 104.028 84.3083 104.371 84.3296 104.615C84.3509 104.859 84.3163 105.059 84.2529 105.059C83.9732 105.058 84.2737 109.108 84.5791 109.448C85.0609 109.983 85.2237 109.855 84.8965 109.198C84.4742 108.352 84.6415 108.129 85.2643 108.706C85.5574 108.978 85.9238 109.201 86.0777 109.201C86.2322 109.201 86.4689 109.334 86.6035 109.497C86.8129 109.749 86.7585 109.793 86.2332 109.793C85.8946 109.793 85.6173 109.881 85.6173 109.99C85.6173 110.099 85.7842 110.187 85.9876 110.187C86.1916 110.187 86.4689 110.32 86.6035 110.483C86.9595 110.912 88.7284 110.879 89.2304 110.434C89.6091 110.098 89.6131 110.101 89.3779 110.549C89.1235 111.033 89.2725 111.445 89.5433 111.007C89.6299 110.867 89.8428 110.732 90.0166 110.706C90.1904 110.681 90.5295 110.487 90.7701 110.276C91.0364 110.042 91.1424 110.007 91.0399 110.187C90.9473 110.35 91.2493 110.109 91.7108 109.653C92.1727 109.197 92.7212 108.77 92.9301 108.703C93.1391 108.637 93.3098 108.488 93.3098 108.372C93.3098 108.256 93.5212 107.965 93.7802 107.726C94.0386 107.486 94.5837 106.81 94.9911 106.224C96.4724 104.093 97.1546 103.166 97.9527 102.199C98.4002 101.656 99.1953 100.565 99.7196 99.7737C101.896 96.4864 103.979 96.1151 106.238 98.6117C106.83 99.2652 107.314 99.8776 107.314 99.9722C107.314 100.066 107.483 100.384 107.69 100.678C108.539 101.883 111.561 106.62 112.185 107.722C113.15 109.427 113.193 109.498 114.602 111.666C115.747 113.43 116.822 114.975 117.376 115.652C117.483 115.784 117.571 115.936 117.571 115.992C117.571 116.09 119.875 119.524 120.51 120.371C120.683 120.603 120.959 120.991 121.121 121.233C121.284 121.475 121.66 121.996 121.956 122.39C122.253 122.784 122.841 123.595 123.265 124.191C123.687 124.788 124.257 125.515 124.53 125.807C124.802 126.099 125.267 126.831 125.562 127.434C125.857 128.037 126.191 128.531 126.305 128.531C126.419 128.531 126.457 128.586 126.39 128.654C126.252 128.791 127.063 129.941 127.832 130.7C128.107 130.972 128.535 131.46 128.784 131.785C129.034 132.111 129.169 132.244 129.086 132.081C128.953 131.821 128.978 131.82 129.289 132.073C129.483 132.231 129.774 132.379 129.936 132.403C130.097 132.426 130.399 132.599 130.606 132.787C130.814 132.975 130.983 133.029 130.983 132.907C130.983 132.645 131.531 132.808 131.999 133.209C132.219 133.396 132.367 133.419 132.455 133.277C132.696 132.886 133.547 133.03 133.547 133.462C133.547 133.712 133.679 133.856 133.907 133.856C134.105 133.856 134.476 134.078 134.731 134.349C134.986 134.62 135.296 134.843 135.421 134.843C135.546 134.843 135.857 135.064 136.111 135.336C136.463 135.71 136.775 135.829 137.404 135.829C137.915 135.829 138.331 135.947 138.489 136.137C138.72 136.416 138.762 136.414 138.925 136.122C139.091 135.826 139.136 135.827 139.482 136.141C139.69 136.328 139.862 136.401 139.866 136.303C139.869 136.205 140.002 136.297 140.161 136.508C140.441 136.878 140.451 136.874 140.454 136.409C140.456 136.025 140.496 135.988 140.648 136.223C140.818 136.486 140.84 136.486 140.845 136.223C140.851 135.96 140.873 135.96 141.044 136.223C141.191 136.45 141.227 136.392 141.195 135.977C141.172 135.678 141.103 135.434 141.041 135.434C140.98 135.434 140.917 135.27 140.902 135.069C140.83 134.114 139.761 131.409 139.219 130.811C139.029 130.601 138.873 130.37 138.873 130.299C138.873 130.227 138.697 129.956 138.482 129.695C137.876 128.96 137.793 128.832 137.723 128.525C137.687 128.367 137.588 128.193 137.503 128.138C137.417 128.083 136.886 126.928 136.321 125.572C134.861 122.067 133.693 119.735 130.986 114.921C130.467 113.999 129.618 112.401 129.099 111.37C128.579 110.34 127.662 108.743 127.062 107.82C126.462 106.898 125.328 104.857 124.541 103.284C122.883 99.9687 121.894 98.1424 120.068 95.0234C119.346 93.7887 118.754 92.7386 118.754 92.6896C118.754 92.6406 118.455 92.142 118.09 91.5811C117.213 90.234 115.993 88.1116 115.993 87.9324C115.993 87.7081 113.434 83.2574 112.118 81.1924C111.462 80.1616 110.371 78.2313 109.695 76.902C107.49 72.5661 104.844 70.9368 101.816 72.0488ZM141.046 136.98C141.055 137.37 141.431 137.685 141.437 137.308C141.442 136.975 141.476 136.96 141.652 137.21C141.816 137.441 141.845 137.444 141.786 137.226C141.713 136.951 141.04 136.728 141.046 136.98Z" fill="white"/>
<path fill-rule="evenodd" clip-rule="evenodd" d="M138.261 68.6184C136.187 70.6893 135.21 75.1376 135.378 81.7459C135.548 88.4953 136.43 91.0573 141.698 100.128C145.409 106.519 150.13 114.518 151.525 116.782C154.149 121.039 156.263 124.649 157.469 126.929C158.121 128.163 159.596 130.754 160.746 132.686C163.135 136.697 165.327 140.414 166.837 143.012C169.906 148.293 169.217 148.945 160.57 148.945H154.751L153.652 148.43C152.114 147.709 150.301 145.163 146.222 137.998C145.573 136.859 144.153 134.458 143.066 132.663C141.979 130.868 140.021 127.495 138.716 125.168C137.41 122.841 135.346 119.295 134.129 117.288C131.881 113.585 130.455 111.166 127.783 106.527C126.967 105.111 125.705 102.99 124.978 101.814C124.251 100.638 122.923 98.38 122.027 96.7953C120.066 93.3278 114.892 84.4193 113.848 82.7123C113.436 82.039 112.497 80.423 111.76 79.1215C108.233 72.8879 106.29 70.9334 103.622 70.9378C101.258 70.9418 99.373 72.3755 97.5507 75.5569C96.5442 77.3139 95.9268 78.3338 92.2662 84.2881C91.1196 86.1531 89.0175 89.7033 87.5946 92.1777C86.1718 94.6516 84.2722 97.9186 83.3731 99.4375C82.4735 100.956 80.9829 103.486 80.06 105.059C79.1367 106.632 77.6297 109.161 76.7103 110.68C75.791 112.199 74.5191 114.418 73.8844 115.611C73.2492 116.804 72.3155 118.447 71.8095 119.26C71.3036 120.074 70.3832 121.656 69.7649 122.777C69.146 123.897 67.8311 126.109 66.8424 127.691C65.8542 129.274 64.4527 131.597 63.7289 132.853C63.0046 134.11 61.3911 136.913 60.143 139.083C58.8949 141.253 57.2963 144.004 56.5908 145.198C48.722 158.506 48.6859 158.594 50.0286 161.285C50.8043 162.84 52.2193 163.915 54.2763 164.513C55.5789 164.892 118.347 165.133 120.224 164.767C127.478 163.351 113.945 151.519 102.778 149.513C101.199 149.23 98.9735 149.158 88.6749 149.06C75.1751 148.931 75.334 148.947 74.6835 147.688C74.126 146.611 74.4939 145.429 76.2925 142.519C76.7227 141.823 77.947 139.744 79.0129 137.9C80.0788 136.056 81.5032 133.615 82.1775 132.476C82.8523 131.336 83.9162 129.472 84.542 128.333C85.1678 127.194 86.0233 125.753 86.4436 125.13C87.2976 123.865 91.6379 116.562 92.8048 114.428C93.2202 113.669 94.247 111.893 95.0871 110.483C95.9268 109.073 97.6388 106.182 98.8908 104.061C102.576 97.8161 103.922 97.2666 106.292 101.04C108.726 104.913 111.984 110.36 114.687 115.076C116.351 117.979 118.441 121.544 119.332 122.998C120.223 124.451 121.528 126.697 122.232 127.986C122.935 129.276 124.333 131.68 125.337 133.327C126.342 134.974 127.77 137.431 128.511 138.787C129.253 140.143 130.677 142.584 131.677 144.211C132.676 145.839 133.965 148.013 134.54 149.044C135.115 150.075 135.824 151.273 136.116 151.706C136.407 152.141 137.03 153.206 137.5 154.073C141.307 161.114 143.333 163.599 145.974 164.466C147.453 164.951 185.985 165.077 188.381 164.603C191.826 163.923 193.799 161.117 193.123 157.861C192.828 156.438 191.842 154.536 188.353 148.649C186.777 145.992 185.015 142.974 184.437 141.943C183.859 140.913 182.855 139.182 182.206 138.097C181.557 137.012 180.3 134.882 179.413 133.363C174.548 125.035 171.37 119.617 169.751 116.894C168.751 115.212 167.58 113.215 167.148 112.456C165.165 108.969 162.583 104.604 161.535 102.964C160.903 101.975 159.747 99.9777 158.967 98.5261C158.187 97.0745 157.049 95.0883 156.437 94.112C155.825 93.1357 155.025 91.8039 154.658 91.1534C154.015 90.0102 147.465 78.871 143.877 72.8166C141.032 68.0178 139.792 67.0901 138.261 68.6184ZM141 69.7031C141.42 70.1101 142.423 71.5968 143.228 73.0068C144.033 74.4172 144.78 75.7188 144.889 75.9C144.998 76.0807 145.359 76.702 145.693 77.2808C146.027 77.859 146.773 79.0868 147.351 80.0091C147.928 80.931 149.198 83.0613 150.172 84.7426C151.146 86.4244 152.542 88.8211 153.273 90.0682C154.005 91.3158 154.984 93.0465 155.45 93.9144C155.915 94.7823 156.754 96.2027 157.313 97.0706C158.999 99.6861 160.085 101.536 160.966 103.292C161.734 104.823 165.465 111.156 167.121 113.737C167.503 114.334 168.507 116.154 169.35 117.781C170.195 119.408 171.036 120.962 171.222 121.233C171.407 121.504 171.808 122.17 172.113 122.712C175.975 129.584 177.165 131.732 178.18 133.659C178.837 134.906 179.728 136.504 180.16 137.21C180.592 137.915 181.652 139.867 182.514 141.549C183.377 143.23 184.196 144.739 184.335 144.902C184.61 145.222 185.376 146.697 185.923 147.959C186.37 148.99 188.21 152.717 188.538 153.258C188.679 153.49 188.962 153.945 189.167 154.271C191.075 157.295 191.194 159.409 189.503 160.241C188.617 160.676 184.071 160.915 184.32 160.513C184.383 160.411 184.296 160.275 184.129 160.211C183.954 160.144 183.875 160.177 183.944 160.289C184.084 160.515 182.863 160.514 181.97 160.287L181.379 160.136L181.954 160.113C182.685 160.083 182.57 159.982 181.606 159.807C181.089 159.714 180.888 159.737 180.976 159.88C181.162 160.18 180.684 160.136 180.025 159.793C179.714 159.63 179.337 159.497 179.187 159.497C179.036 159.497 178.913 159.409 178.913 159.3C178.913 159.192 178.612 159.103 178.244 159.103C177.831 159.103 177.531 158.99 177.461 158.807C177.398 158.644 177.19 158.509 176.996 158.507C176.689 158.502 174.968 157.076 174.968 156.825C174.968 156.648 173.687 155.565 173.47 155.559C173.163 155.55 172.04 154.971 171.904 154.752C171.841 154.65 171.617 154.567 171.407 154.567C171.196 154.567 171.023 154.478 171.023 154.369C171.023 154.26 170.498 154.172 169.84 154.172C168.92 154.172 168.656 154.107 168.656 153.876C168.656 153.692 168.47 153.58 168.163 153.58C167.892 153.58 167.67 153.492 167.67 153.383C167.67 153.275 167.842 153.186 168.053 153.186C168.264 153.186 168.491 153.097 168.558 152.989C168.625 152.88 168.589 152.792 168.477 152.792C168.366 152.792 168.327 152.656 168.39 152.49C168.464 152.298 168.642 152.231 168.882 152.307C169.089 152.373 169.245 152.354 169.23 152.264C169.17 151.918 169.254 151.548 169.367 151.661C169.604 151.898 171.414 149.731 171.635 148.945C172.172 147.03 171.574 145.537 169.089 142.588C168.428 141.803 167.449 140.42 166.914 139.514C166.379 138.609 165.51 137.248 164.981 136.491C164.454 135.735 163.915 134.943 163.785 134.732C163.656 134.522 163.247 133.861 162.878 133.264C161.012 130.249 160.247 128.979 160.026 128.531C159.576 127.616 158.178 125.483 157.053 123.992C156.438 123.177 155.824 122.315 155.69 122.075C155.556 121.836 154.947 120.738 154.336 119.635C153.725 118.532 152.658 116.755 151.965 115.687C148.622 110.536 146.637 107.272 145.399 104.893C145.041 104.205 144.221 102.847 143.578 101.875C140.952 97.9097 137.683 91.2167 136.697 87.7853C135.946 85.1738 135.666 81.1538 136.017 78.0368C136.883 70.3581 138.641 67.4173 141 69.7031ZM106.029 72.4241C107.562 73.3221 108.387 74.3301 109.695 76.902C110.371 78.2313 111.462 80.1616 112.118 81.1924C113.434 83.2574 115.993 87.7081 115.993 87.9324C115.993 88.1116 117.213 90.234 118.09 91.5811C118.455 92.142 118.754 92.6406 118.754 92.6896C118.754 92.7386 119.346 93.7887 120.068 95.0234C121.894 98.1424 122.883 99.9687 124.541 103.284C125.328 104.857 126.462 106.898 127.062 107.82C127.662 108.743 128.579 110.34 129.099 111.37C129.618 112.401 130.467 113.999 130.986 114.921C133.693 119.735 134.861 122.067 136.321 125.572C136.886 126.928 137.417 128.083 137.503 128.138C137.588 128.193 137.687 128.367 137.723 128.525C137.793 128.832 137.876 128.96 138.482 129.695C138.697 129.956 138.873 130.227 138.873 130.299C138.873 130.37 139.029 130.601 139.219 130.811C139.761 131.409 140.83 134.114 140.902 135.069C140.917 135.27 140.98 135.434 141.041 135.434C141.103 135.434 141.172 135.678 141.195 135.977C141.227 136.392 141.191 136.45 141.044 136.223C140.873 135.96 140.851 135.96 140.845 136.223C140.84 136.486 140.818 136.486 140.648 136.223C140.496 135.988 140.456 136.025 140.454 136.409C140.451 136.874 140.441 136.878 140.161 136.508C140.002 136.297 139.869 136.205 139.866 136.303C139.862 136.401 139.69 136.328 139.482 136.141C139.136 135.827 139.091 135.826 138.925 136.122C138.762 136.414 138.72 136.416 138.489 136.137C138.331 135.947 137.915 135.829 137.404 135.829C136.775 135.829 136.463 135.71 136.111 135.336C135.857 135.064 135.546 134.843 135.421 134.843C135.296 134.843 134.986 134.62 134.731 134.349C134.476 134.078 134.105 133.856 133.907 133.856C133.679 133.856 133.547 133.712 133.547 133.462C133.547 133.03 132.696 132.886 132.455 133.277C132.367 133.419 132.219 133.396 131.999 133.209C131.531 132.808 130.983 132.645 130.983 132.907C130.983 133.029 130.814 132.975 130.606 132.787C130.399 132.599 130.097 132.426 129.936 132.403C129.774 132.379 129.483 132.231 129.289 132.073C128.978 131.82 128.953 131.821 129.086 132.081C129.169 132.244 129.034 132.111 128.784 131.785C128.535 131.46 128.107 130.972 127.832 130.7C127.063 129.941 126.252 128.791 126.39 128.654C126.457 128.586 126.419 128.531 126.305 128.531C126.191 128.531 125.857 128.037 125.562 127.434C125.267 126.831 124.802 126.099 124.53 125.807C124.257 125.515 123.687 124.788 123.265 124.191C122.841 123.595 122.253 122.784 121.956 122.39C121.66 121.996 121.284 121.475 121.121 121.233C120.959 120.991 120.683 120.603 120.51 120.371C119.875 119.524 117.571 116.09 117.571 115.992C117.571 115.936 117.483 115.784 117.376 115.652C116.822 114.975 115.747 113.43 114.602 111.666C113.193 109.498 113.15 109.427 112.185 107.722C111.561 106.62 108.539 101.883 107.69 100.678C107.483 100.384 107.314 100.066 107.314 99.9722C107.314 99.8776 106.83 99.2652 106.238 98.6117C103.979 96.1151 101.896 96.4864 99.7196 99.7737C99.1953 100.565 98.4002 101.656 97.9527 102.199C97.1546 103.166 96.4724 104.093 94.9911 106.224C94.5837 106.81 94.0386 107.486 93.7802 107.726C93.5212 107.965 93.3098 108.256 93.3098 108.372C93.3098 108.488 93.1391 108.637 92.9301 108.703C92.7212 108.77 92.1727 109.197 91.7108 109.653C91.2493 110.109 90.9473 110.35 91.0399 110.187C91.1424 110.007 91.0364 110.042 90.7701 110.276C90.5295 110.487 90.1904 110.681 90.0166 110.706C89.8428 110.732 89.6299 110.867 89.5433 111.007C89.2725 111.445 89.1235 111.033 89.3779 110.549C89.6131 110.101 89.6091 110.098 89.2304 110.434C88.7284 110.879 86.9595 110.912 86.6035 110.483C86.4689 110.32 86.1916 110.187 85.9876 110.187C85.7842 110.187 85.6173 110.099 85.6173 109.99C85.6173 109.881 85.8946 109.793 86.2332 109.793C86.7585 109.793 86.8129 109.749 86.6035 109.497C86.4689 109.334 86.2322 109.201 86.0777 109.201C85.9238 109.201 85.5574 108.978 85.2643 108.706C84.6415 108.129 84.4742 108.352 84.8965 109.198C85.2237 109.855 85.0609 109.983 84.5791 109.448C84.2737 109.108 83.9732 105.058 84.2529 105.059C84.3163 105.059 84.3509 104.859 84.3296 104.615C84.3083 104.371 84.3638 104.028 84.4534 103.853C84.543 103.678 84.6678 103.234 84.7306 102.867C85.1079 100.669 86.9644 96.2616 88.7096 93.4213C89.2096 92.6079 89.9448 91.1875 90.3433 90.2657C90.7419 89.3434 92.1939 86.4769 93.5698 83.8955C94.9456 81.3142 96.0714 79.1626 96.0714 79.115C96.0714 78.664 98.9087 74.4103 99.8122 73.5068C101.704 71.6146 103.974 71.2195 106.029 72.4241ZM141.786 137.226C141.845 137.444 141.816 137.441 141.652 137.21C141.476 136.96 141.442 136.975 141.437 137.308C141.431 137.685 141.055 137.37 141.046 136.98C141.04 136.728 141.713 136.951 141.786 137.226Z" fill="white"/>
<path d="M143.578 101.875C142.447 100.168 141.836 99.0662 139.327 94.208C135.992 87.7512 135.243 83.1643 136.318 75.7683C136.76 72.728 137.527 70.4517 138.429 69.5061C139.718 68.1555 140.986 69.0808 143.228 73.0068M143.578 101.875C144.221 102.847 145.041 104.205 145.399 104.893C146.637 107.272 148.622 110.536 151.965 115.687C152.658 116.755 153.725 118.532 154.336 119.635C154.947 120.738 155.556 121.836 155.69 122.075C155.824 122.315 156.438 123.177 157.053 123.992C158.178 125.483 159.576 127.616 160.026 128.531C160.247 128.979 161.012 130.249 162.878 133.264C163.247 133.861 163.656 134.522 163.785 134.732C163.915 134.943 164.454 135.735 164.981 136.491C165.51 137.248 166.379 138.609 166.914 139.514C167.449 140.42 168.428 141.803 169.089 142.588C171.574 145.537 172.172 147.03 171.635 148.945C171.414 149.731 169.604 151.898 169.367 151.661C169.254 151.548 169.17 151.918 169.23 152.264C169.245 152.354 169.089 152.373 168.882 152.307C168.642 152.231 168.464 152.298 168.39 152.49C168.327 152.656 168.366 152.792 168.477 152.792C168.589 152.792 168.625 152.88 168.558 152.989C168.491 153.097 168.264 153.186 168.053 153.186C167.842 153.186 167.67 153.275 167.67 153.383C167.67 153.492 167.892 153.58 168.163 153.58C168.47 153.58 168.656 153.692 168.656 153.876C168.656 154.107 168.92 154.172 169.84 154.172C170.498 154.172 171.023 154.26 171.023 154.369C171.023 154.478 171.196 154.567 171.407 154.567C171.617 154.567 171.841 154.65 171.904 154.752C172.04 154.971 173.163 155.55 173.47 155.559C173.687 155.565 174.968 156.648 174.968 156.825C174.968 157.076 176.689 158.502 176.996 158.507C177.19 158.509 177.398 158.644 177.461 158.807C177.531 158.99 177.831 159.103 178.244 159.103C178.612 159.103 178.913 159.192 178.913 159.3C178.913 159.409 179.036 159.497 179.187 159.497C179.337 159.497 179.714 159.63 180.025 159.793C180.684 160.136 181.162 160.18 180.976 159.88C180.888 159.737 181.089 159.714 181.606 159.807C182.57 159.982 182.685 160.083 181.954 160.113L181.379 160.136L181.97 160.287C182.863 160.514 184.084 160.515 183.944 160.289C183.875 160.177 183.954 160.144 184.129 160.211C184.296 160.275 184.383 160.411 184.32 160.513C184.071 160.915 188.617 160.676 189.503 160.241C191.194 159.409 191.075 157.295 189.167 154.271C188.962 153.945 188.679 153.49 188.538 153.258C188.21 152.717 186.37 148.99 185.923 147.959C185.376 146.697 184.61 145.222 184.335 144.902C184.196 144.739 183.377 143.23 182.514 141.549C181.652 139.867 180.592 137.915 180.16 137.21C179.728 136.504 178.837 134.906 178.18 133.659C177.165 131.732 175.975 129.584 172.113 122.712C171.808 122.17 171.407 121.504 171.222 121.233C171.036 120.962 170.195 119.408 169.35 117.781C168.507 116.154 167.503 114.334 167.121 113.737C165.465 111.156 161.734 104.823 160.966 103.292C160.085 101.536 158.999 99.6861 157.313 97.0706C156.754 96.2027 155.915 94.7823 155.45 93.9144C154.984 93.0465 154.005 91.3158 153.273 90.0682C152.542 88.8211 151.146 86.4244 150.172 84.7426C149.198 83.0613 147.928 80.931 147.351 80.0091C146.773 79.0868 146.027 77.859 145.693 77.2808C145.359 76.702 144.998 76.0807 144.889 75.9C144.78 75.7188 144.033 74.4172 143.228 73.0068M143.578 101.875C140.952 97.9097 137.683 91.2167 136.697 87.7853C135.946 85.1738 135.666 81.1538 136.017 78.0368C136.883 70.3581 138.641 67.4173 141 69.7031C141.42 70.1101 142.423 71.5968 143.228 73.0068M96.0714 79.115C96.0714 77.8659 100.368 72.581 101.816 72.0488C104.844 70.9368 107.49 72.5661 109.695 76.902M96.0714 79.115C96.0714 79.1626 94.9456 81.3142 93.5698 83.8955C92.1939 86.4769 90.7419 89.3434 90.3433 90.2657C89.9448 91.1875 89.2096 92.6079 88.7096 93.4213C86.9644 96.2616 85.1079 100.669 84.7306 102.867C84.6678 103.234 84.543 103.678 84.4534 103.853C84.3638 104.028 84.3083 104.371 84.3296 104.615C84.3509 104.859 84.3163 105.059 84.2529 105.059C83.9732 105.058 84.2737 109.108 84.5791 109.448C85.0609 109.983 85.2237 109.855 84.8965 109.198C84.4742 108.352 84.6415 108.129 85.2643 108.706C85.5574 108.978 85.9238 109.201 86.0777 109.201C86.2322 109.201 86.4689 109.334 86.6035 109.497C86.8129 109.749 86.7585 109.793 86.2332 109.793C85.8946 109.793 85.6173 109.881 85.6173 109.99C85.6173 110.099 85.7842 110.187 85.9876 110.187C86.1916 110.187 86.4689 110.32 86.6035 110.483C86.9595 110.912 88.7284 110.879 89.2304 110.434C89.6091 110.098 89.6131 110.101 89.3779 110.549C89.1235 111.033 89.2725 111.445 89.5433 111.007C89.6299 110.867 89.8428 110.732 90.0166 110.706C90.1904 110.681 90.5295 110.487 90.7701 110.276C91.0364 110.042 91.1424 110.007 91.0399 110.187C90.9473 110.35 91.2493 110.109 91.7108 109.653C92.1727 109.197 92.7212 108.77 92.9301 108.703C93.1391 108.637 93.3098 108.488 93.3098 108.372C93.3098 108.256 93.5212 107.965 93.7802 107.726C94.0386 107.486 94.5837 106.81 94.9911 106.224C96.4724 104.093 97.1546 103.166 97.9527 102.199C98.4002 101.656 99.1953 100.565 99.7196 99.7737C101.896 96.4864 103.979 96.1151 106.238 98.6117C106.83 99.2652 107.314 99.8776 107.314 99.9722C107.314 100.066 107.483 100.384 107.69 100.678C108.539 101.883 111.561 106.62 112.185 107.722C113.15 109.427 113.193 109.498 114.602 111.666C115.747 113.43 116.822 114.975 117.376 115.652C117.483 115.784 117.571 115.936 117.571 115.992C117.571 116.09 119.875 119.524 120.51 120.371C120.683 120.603 120.959 120.991 121.121 121.233C121.284 121.475 121.66 121.996 121.956 122.39C122.253 122.784 122.841 123.595 123.265 124.191C123.687 124.788 124.257 125.515 124.53 125.807C124.802 126.099 125.267 126.831 125.562 127.434C125.857 128.037 126.191 128.531 126.305 128.531C126.419 128.531 126.457 128.586 126.39 128.654C126.252 128.791 127.063 129.941 127.832 130.7C128.107 130.972 128.535 131.46 128.784 131.785C129.034 132.111 129.169 132.244 129.086 132.081C128.953 131.821 128.978 131.82 129.289 132.073C129.483 132.231 129.774 132.379 129.936 132.403C130.097 132.426 130.399 132.599 130.606 132.787C130.814 132.975 130.983 133.029 130.983 132.907C130.983 132.645 131.531 132.808 131.999 133.209C132.219 133.396 132.367 133.419 132.455 133.277C132.696 132.886 133.547 133.03 133.547 133.462C133.547 133.712 133.679 133.856 133.907 133.856C134.105 133.856 134.476 134.078 134.731 134.349C134.986 134.62 135.296 134.843 135.421 134.843C135.546 134.843 135.857 135.064 136.111 135.336C136.463 135.71 136.775 135.829 137.404 135.829C137.915 135.829 138.331 135.947 138.489 136.137C138.72 136.416 138.762 136.414 138.925 136.122C139.091 135.826 139.136 135.827 139.482 136.141C139.69 136.328 139.862 136.401 139.866 136.303C139.869 136.205 140.002 136.297 140.161 136.508C140.441 136.878 140.451 136.874 140.454 136.409C140.456 136.025 140.496 135.988 140.648 136.223C140.818 136.486 140.84 136.486 140.845 136.223C140.851 135.96 140.873 135.96 141.044 136.223C141.191 136.45 141.227 136.392 141.195 135.977C141.172 135.678 141.103 135.434 141.041 135.434C140.98 135.434 140.917 135.27 140.902 135.069C140.83 134.114 139.761 131.409 139.219 130.811C139.029 130.601 138.873 130.37 138.873 130.299C138.873 130.227 138.697 129.956 138.482 129.695C137.876 128.96 137.793 128.832 137.723 128.525C137.687 128.367 137.588 128.193 137.503 128.138C137.417 128.083 136.886 126.928 136.321 125.572C134.861 122.067 133.693 119.735 130.986 114.921C130.467 113.999 129.618 112.401 129.099 111.37C128.579 110.34 127.662 108.743 127.062 107.82C126.462 106.898 125.328 104.857 124.541 103.284C122.883 99.9687 121.894 98.1424 120.068 95.0234C119.346 93.7887 118.754 92.7386 118.754 92.6896C118.754 92.6406 118.455 92.142 118.09 91.5811C117.213 90.234 115.993 88.1116 115.993 87.9324C115.993 87.7081 113.434 83.2574 112.118 81.1924C111.462 80.1616 110.371 78.2313 109.695 76.902M96.0714 79.115C96.0714 78.664 98.9087 74.4103 99.8122 73.5068C101.704 71.6146 103.974 71.2195 106.029 72.4241C107.562 73.3221 108.387 74.3301 109.695 76.902M141.046 136.98C141.055 137.37 141.431 137.685 141.437 137.308C141.442 136.975 141.476 136.96 141.652 137.21C141.816 137.441 141.845 137.444 141.786 137.226C141.713 136.951 141.04 136.728 141.046 136.98ZM138.261 68.6184C136.187 70.6893 135.21 75.1376 135.378 81.7459C135.548 88.4953 136.43 91.0573 141.698 100.128C145.409 106.519 150.13 114.518 151.525 116.782C154.149 121.039 156.263 124.649 157.469 126.929C158.121 128.163 159.596 130.754 160.746 132.686C163.135 136.697 165.327 140.414 166.837 143.012C169.906 148.293 169.217 148.945 160.57 148.945H154.751L153.652 148.43C152.114 147.709 150.301 145.163 146.222 137.998C145.573 136.859 144.153 134.458 143.066 132.663C141.979 130.868 140.021 127.495 138.716 125.168C137.41 122.841 135.346 119.295 134.129 117.288C131.881 113.585 130.455 111.166 127.783 106.527C126.967 105.111 125.705 102.99 124.978 101.814C124.251 100.638 122.923 98.38 122.027 96.7953C120.066 93.3278 114.892 84.4193 113.848 82.7123C113.436 82.039 112.497 80.423 111.76 79.1215C108.233 72.8879 106.29 70.9334 103.622 70.9378C101.258 70.9418 99.373 72.3755 97.5507 75.5569C96.5442 77.3139 95.9268 78.3338 92.2662 84.2881C91.1196 86.1531 89.0175 89.7033 87.5946 92.1777C86.1718 94.6516 84.2722 97.9186 83.3731 99.4375C82.4735 100.956 80.9829 103.486 80.06 105.059C79.1367 106.632 77.6297 109.161 76.7103 110.68C75.791 112.199 74.5191 114.418 73.8844 115.611C73.2492 116.804 72.3155 118.447 71.8095 119.26C71.3036 120.074 70.3832 121.656 69.7649 122.777C69.146 123.897 67.8311 126.109 66.8424 127.691C65.8542 129.274 64.4527 131.597 63.7289 132.853C63.0046 134.11 61.3911 136.913 60.143 139.083C58.8949 141.253 57.2963 144.004 56.5908 145.198C48.722 158.506 48.6859 158.594 50.0286 161.285C50.8043 162.84 52.2193 163.915 54.2763 164.513C55.5789 164.892 118.347 165.133 120.224 164.767C127.478 163.351 113.945 151.519 102.778 149.513C101.199 149.23 98.9735 149.158 88.6749 149.06C75.1751 148.931 75.334 148.947 74.6835 147.688C74.126 146.611 74.4939 145.429 76.2925 142.519C76.7227 141.823 77.947 139.744 79.0129 137.9C80.0788 136.056 81.5032 133.615 82.1775 132.476C82.8523 131.336 83.9162 129.472 84.542 128.333C85.1678 127.194 86.0233 125.753 86.4436 125.13C87.2976 123.865 91.6379 116.562 92.8048 114.428C93.2202 113.669 94.247 111.893 95.0871 110.483C95.9268 109.073 97.6388 106.182 98.8908 104.061C102.576 97.8161 103.922 97.2666 106.292 101.04C108.726 104.913 111.984 110.36 114.687 115.076C116.351 117.979 118.441 121.544 119.332 122.998C120.223 124.451 121.528 126.697 122.232 127.986C122.935 129.276 124.333 131.68 125.337 133.327C126.342 134.974 127.77 137.431 128.511 138.787C129.253 140.143 130.677 142.584 131.677 144.211C132.676 145.839 133.965 148.013 134.54 149.044C135.115 150.075 135.824 151.273 136.116 151.706C136.407 152.141 137.03 153.206 137.5 154.073C141.307 161.114 143.333 163.599 145.974 164.466C147.453 164.951 185.985 165.077 188.381 164.603C191.826 163.923 193.799 161.117 193.123 157.861C192.828 156.438 191.842 154.536 188.353 148.649C186.777 145.992 185.015 142.974 184.437 141.943C183.859 140.913 182.855 139.182 182.206 138.097C181.557 137.012 180.3 134.882 179.413 133.363C174.548 125.035 171.37 119.617 169.751 116.894C168.751 115.212 167.58 113.215 167.148 112.456C165.165 108.969 162.583 104.604 161.535 102.964C160.903 101.975 159.747 99.9777 158.967 98.5261C158.187 97.0745 157.049 95.0883 156.437 94.112C155.825 93.1357 155.025 91.8039 154.658 91.1534C154.015 90.0102 147.465 78.871 143.877 72.8166C141.032 68.0178 139.792 67.0901 138.261 68.6184Z" stroke="white" stroke-width="4.85028"/>
<path d="M303.895 173V97.832H322.327V110.36H323.047C324.487 106.424 326.791 103.064 329.959 100.28C333.127 97.496 337.543 96.104 343.207 96.104C348.391 96.104 352.855 97.352 356.599 99.848C360.343 102.344 363.127 106.136 364.951 111.224H365.239C366.583 107 369.223 103.448 373.159 100.568C377.191 97.592 382.231 96.104 388.279 96.104C395.671 96.104 401.335 98.648 405.271 103.736C409.303 108.824 411.319 116.072 411.319 125.48V173H392.887V127.352C392.887 116.6 388.855 111.224 380.791 111.224C378.967 111.224 377.191 111.512 375.463 112.088C373.831 112.568 372.343 113.336 370.999 114.392C369.751 115.352 368.743 116.6 367.975 118.136C367.207 119.576 366.823 121.304 366.823 123.32V173H348.391V127.352C348.391 116.6 344.359 111.224 336.295 111.224C334.567 111.224 332.839 111.512 331.111 112.088C329.479 112.568 327.991 113.336 326.647 114.392C325.399 115.352 324.343 116.6 323.479 118.136C322.711 119.576 322.327 121.304 322.327 123.32V173H303.895ZM432.875 173V72.488H499.115V89.336H451.883V113.672H493.643V130.52H451.883V156.152H499.115V173H432.875ZM519.219 72.488H555.795C562.323 72.488 568.227 73.544 573.507 75.656C578.883 77.768 583.443 80.936 587.187 85.16C591.027 89.288 593.955 94.52 595.971 100.856C598.083 107.096 599.139 114.392 599.139 122.744C599.139 131.096 598.083 138.44 595.971 144.776C593.955 151.016 591.027 156.248 587.187 160.472C583.443 164.6 578.883 167.72 573.507 169.832C568.227 171.944 562.323 173 555.795 173H519.219V72.488ZM555.795 156.152C562.899 156.152 568.515 154.088 572.643 149.96C576.867 145.736 578.979 139.304 578.979 130.664V114.824C578.979 106.184 576.867 99.8 572.643 95.672C568.515 91.448 562.899 89.336 555.795 89.336H538.227V156.152H555.795ZM682.58 157.448H682.004C681.14 162.344 678.404 166.472 673.796 169.832C669.284 173.096 663.236 174.728 655.652 174.728C649.7 174.728 644.18 173.624 639.092 171.416C634.1 169.208 629.732 165.944 625.988 161.624C622.34 157.208 619.46 151.784 617.348 145.352C615.236 138.92 614.18 131.48 614.18 123.032C614.18 114.584 615.236 107.144 617.348 100.712C619.556 94.184 622.628 88.712 626.564 84.296C630.5 79.88 635.204 76.52 640.676 74.216C646.148 71.912 652.244 70.76 658.964 70.76C667.988 70.76 675.668 72.728 682.004 76.664C688.34 80.6 693.332 86.264 696.98 93.656L681.572 102.728C679.748 98.408 677.012 94.808 673.364 91.928C669.812 89.048 665.012 87.608 658.964 87.608C651.476 87.608 645.476 89.912 640.964 94.52C636.548 99.032 634.34 105.752 634.34 114.68V130.808C634.34 139.64 636.596 146.36 641.108 150.968C645.62 155.576 651.668 157.88 659.252 157.88C662.228 157.88 665.012 157.544 667.604 156.872C670.196 156.104 672.452 155 674.372 153.56C676.292 152.12 677.828 150.344 678.98 148.232C680.132 146.12 680.708 143.624 680.708 140.744V134.264H660.98V118.28H698.996V173H682.58V157.448ZM721.016 173V72.488H787.256V89.336H740.024V113.672H781.784V130.52H740.024V156.152H787.256V173H721.016Z" fill="white"/>
<defs>
<radialGradient id="paint0_radial_72_294" cx="0" cy="0" r="1" gradientUnits="userSpaceOnUse" gradientTransform="translate(84.3623 3.03662) rotate(76.5822) scale(157.294)">
<stop stop-color="#00B8E5"/>
<stop offset="1" stop-color="#0071F4"/>
</radialGradient>
</defs>
</svg>
