<svg width="400" height="400" viewBox="0 0 400 400" fill="none" xmlns="http://www.w3.org/2000/svg">
<g clip-path="url(#clip0_9869_7024)">
<rect width="400" height="400" rx="200" fill="url(#paint0_radial_9869_7024)"/>
<g clip-path="url(#clip1_9869_7024)">
<path fill-rule="evenodd" clip-rule="evenodd" d="M218.576 85.5208C218.469 85.6932 218.594 85.8343 218.852 85.8343C219.111 85.8343 219.41 85.6932 219.516 85.5208C219.623 85.3483 219.498 85.2073 219.239 85.2073C218.981 85.2073 218.682 85.3483 218.576 85.5208ZM188.793 126.903C188.448 127.051 187.741 127.182 187.221 127.194C186.701 127.206 185.562 127.477 184.688 127.797C183.815 128.116 182.245 128.474 181.2 128.593C180.155 128.71 178.512 129.084 177.549 129.423C176.586 129.761 175.451 130.038 175.027 130.038C174.603 130.038 173.859 130.189 173.374 130.374C171.308 131.161 163.389 132.302 160.457 132.235C159.258 132.209 158.192 132.443 156.77 133.047C154.252 134.117 151.551 133.782 151.193 132.355C150.852 130.996 149.308 131.886 144.47 136.23C121.463 156.885 111.124 191.323 118.292 223.425C120.308 232.449 124.883 242.859 128.843 247.43L129.917 248.671L132.649 248.737C136.098 248.82 136.051 248.992 134.068 243.651C126.245 222.577 124.624 208.095 128.157 190.88C133.206 166.281 149.134 145.498 171.808 133.925C176.76 131.397 185.457 128.485 188.088 128.474C188.562 128.472 189.232 128.188 189.577 127.843C190.662 126.759 190.257 126.273 188.793 126.903ZM138.737 129.072C138.68 129.231 137.575 129.86 136.282 130.47C134.989 131.079 133.155 132.007 132.206 132.532C131.258 133.057 130.225 133.486 129.911 133.486C129.597 133.486 129.129 133.696 128.872 133.953C128.538 134.288 127.674 134.427 125.838 134.441C124.427 134.452 122.784 134.469 122.188 134.479C121.383 134.493 120.938 134.287 120.451 133.677L119.797 132.856L118.674 134.033C114.063 138.868 107.325 151.537 103.627 162.328C95.0668 187.305 95.8098 219.056 105.458 240.547C108.461 247.236 110.761 250.403 112.257 249.905C112.624 249.782 114.053 249.672 115.429 249.66C118.633 249.632 118.612 250.159 115.769 241.303C102.034 198.512 108.253 165.443 136.189 132.739C138.769 129.717 139.426 128.784 138.972 128.784C138.901 128.784 138.795 128.914 138.737 129.072ZM107.089 132.873C106.465 133.196 105.412 133.986 104.751 134.627C103.382 135.957 101.124 136.278 97.7355 135.626C95.6907 135.232 95.5629 135.348 93.0416 139.906C77.4967 168.002 75.3492 213.421 88.1698 242.955C91.0854 249.672 92.9193 251.992 94.8536 251.413C95.523 251.213 96.9353 251.049 97.9926 251.049H99.9159V249.972C99.9159 249.379 99.2207 246.664 98.3711 243.937C85.2919 201.955 87.7113 173.407 107.591 135.161C108.787 132.859 108.617 132.085 107.089 132.873ZM160.773 160.616C147.805 163.364 146.019 164.418 142.462 171.424C130.727 194.537 131.39 224.048 144.076 243.243C148.928 250.584 150.53 249.859 147.606 241.644C136.88 211.505 142.972 181.579 163.635 162.906C167.333 159.563 167 159.297 160.773 160.616ZM149.695 203.789C149.138 204.764 149.15 217.373 149.712 220.796C150.985 228.547 153.647 235.913 157.391 242.036C159.459 245.418 159.652 244.871 158.246 239.606C155.597 229.683 154.955 216.851 156.659 207.902C157.617 202.866 157.757 203.083 153.546 203.083C150.298 203.083 150.074 203.124 149.695 203.789ZM152.27 272.475C152.27 277.997 174.749 291.345 190.409 295.122C195.396 296.325 196.218 296.433 193.565 295.535C181.428 291.429 170.712 285.641 158.91 276.817C152.108 271.731 152.27 271.838 152.27 272.475ZM134.767 276.673C134.892 278.115 134.426 278.277 132.698 277.395C127.775 274.881 138.514 285.534 147.098 291.678C170.511 308.44 203.095 315.17 232.818 309.382C236.306 308.702 238.057 307.853 235.191 308.231C222.432 309.912 206.868 309.549 195.22 307.298C174.609 303.316 153.656 292.414 137.006 277.007C135.028 275.177 134.633 275.118 134.767 276.673ZM115.365 278.245C115.452 279.73 114.327 280.01 112.589 278.936C109.375 276.949 112.45 281.273 119.4 288.51C153.457 323.976 207.019 334.985 254.785 316.338C270.37 310.254 284.374 301.054 297.837 288.055C299.705 286.252 301.535 284.347 301.904 283.823C302.273 283.299 299.956 285.354 296.755 288.391C257.987 325.17 198.813 331.843 150.546 304.879C140.463 299.246 130.861 291.851 120.795 281.965C115.321 276.59 115.266 276.551 115.365 278.245Z" fill="white"/>
<path fill-rule="evenodd" clip-rule="evenodd" d="M199.613 83.3263C129.963 91.8683 84.522 156.037 99.4289 224.801C106.323 256.604 132.37 288.199 163.403 302.404C195.198 316.957 239.77 315.398 265.487 298.834C266.802 297.987 268.354 297.022 268.935 296.69C270.574 295.755 269.261 295.688 267.432 296.613C236.779 312.118 198.895 312.086 167.636 296.531C131.642 278.62 111.129 246.171 109.726 204.93C107.922 151.868 152.381 104.703 204.252 104.651C208.501 104.647 208.662 104.545 211.964 99.7897C213.478 97.6101 216.538 93.3387 218.764 90.2977C222.978 84.5419 223.274 83.9211 222.106 83.2761C220.842 82.5786 205.43 82.613 199.613 83.3263ZM135.629 86.1948C129.306 90.2781 120.206 98.2841 113.582 105.589C76.3216 146.681 67.7051 209.44 93.0492 255.128C93.7671 256.421 95.2061 259.028 96.2469 260.921C125.547 314.176 190.4 339.364 248.118 319.906C273.542 311.335 299.211 292.783 311.865 273.835C314.261 270.247 312.89 268.614 310.175 271.822C309.409 272.727 307.471 275.02 305.869 276.916C267.517 322.332 204.168 333.421 151.49 303.939C130.403 292.138 110.727 271.375 102.89 252.652C80.1181 198.254 92.575 141.123 134.641 107.028C139.86 102.798 139.421 103.98 139.421 94.1922C139.421 83.61 139.47 83.7134 135.629 86.1948ZM219.52 85.5247C219.413 85.6971 219.115 85.8382 218.856 85.8382C218.597 85.8382 218.473 85.6971 218.579 85.5247C218.686 85.3522 218.985 85.2112 219.243 85.2112C219.502 85.2112 219.626 85.3522 219.52 85.5247ZM199.456 108.74C141.164 114.418 102.06 172.633 118.766 228.865C124.156 247.01 139.99 268.337 157.29 280.757C174.795 293.323 197.634 300.617 216.035 299.519C221.974 299.165 221.668 298.676 215.131 298.077C151.795 292.265 111.445 232.447 133.508 177.071C142.508 154.481 161.992 137.164 185.024 131.289C191.318 129.683 190.527 130.271 194.836 124.003C196.88 121.031 199.919 116.665 201.59 114.302C204.776 109.797 205.009 109.263 204.022 108.735C203.36 108.38 203.146 108.38 199.456 108.74ZM190.208 126.907C190.208 127.529 188.935 128.474 188.091 128.478C185.46 128.489 176.764 131.401 171.811 133.929C149.137 145.502 133.209 166.285 128.16 190.883C124.627 208.099 126.249 222.581 134.071 243.655C136.054 248.996 136.102 248.824 132.653 248.741L129.921 248.675L128.846 247.434C124.887 242.862 120.312 232.453 118.296 223.429C111.127 191.327 121.466 156.889 144.473 136.234C149.311 131.89 150.855 131 151.196 132.359C151.555 133.786 154.256 134.121 156.774 133.051C158.195 132.447 159.261 132.213 160.461 132.239C163.393 132.306 171.311 131.165 173.377 130.378C173.862 130.193 174.607 130.042 175.031 130.042C175.455 130.042 176.59 129.765 177.553 129.426C178.516 129.088 180.158 128.714 181.204 128.596C182.249 128.478 183.818 128.12 184.692 127.801C185.565 127.481 186.705 127.21 187.225 127.198C187.744 127.186 188.452 127.055 188.797 126.907C189.663 126.534 190.208 126.534 190.208 126.907ZM139.107 129.059C139.107 129.208 137.795 130.865 136.192 132.742C123.578 147.51 116.502 160.347 112.192 176.283C106.547 197.157 107.571 215.755 115.772 241.307C118.616 250.163 118.637 249.636 115.433 249.664C114.057 249.676 112.628 249.786 112.26 249.908C110.765 250.407 108.465 247.24 105.461 240.55C95.8135 219.06 95.0705 187.309 103.631 162.332C107.329 151.541 114.066 138.872 118.678 134.037L119.801 132.86L120.455 133.681C120.942 134.291 121.386 134.497 122.192 134.482C122.788 134.473 124.431 134.456 125.842 134.445C127.678 134.431 128.542 134.292 128.876 133.957C129.133 133.7 129.601 133.49 129.914 133.49C130.229 133.49 131.262 133.061 132.21 132.536C133.158 132.011 134.992 131.082 136.286 130.474C137.579 129.864 138.684 129.235 138.741 129.076C138.874 128.712 139.107 128.701 139.107 129.059ZM107.595 135.165C87.715 173.411 85.2956 201.959 98.3748 243.941C99.2244 246.668 99.9196 249.383 99.9196 249.976V251.053H97.9962C96.939 251.053 95.5266 251.216 94.8573 251.417C92.923 251.996 91.089 249.676 88.1735 242.959C75.3529 213.425 77.5004 168.006 93.0453 139.91C95.5666 135.352 95.6944 135.236 97.7392 135.63C101.127 136.282 103.386 135.961 104.755 134.631C107.769 131.704 109.249 131.982 107.595 135.165ZM160.268 159.517C153.082 161.006 146.036 163.5 144.697 165.027C142.11 167.978 137.043 180.254 135.2 188.039C128.82 214.972 136.45 240.937 156.974 262.136C164.137 269.535 176.864 278.641 180.045 278.641C180.949 278.641 180.383 278.108 176.64 275.435C158.896 262.767 149.85 249.709 145.416 230.362C139.526 204.662 145.51 182.826 163.315 165.039C166.603 161.755 168.571 159.558 168.51 159.239C168.349 158.39 165.195 158.496 160.268 159.517ZM166.068 160.269C166.068 160.514 164.975 161.702 163.638 162.91C142.976 181.583 136.884 211.509 147.61 241.648C150.025 248.433 149.931 249.748 147.217 247.121C135.883 236.143 130.977 209.009 136.449 187.569C138.504 179.516 143.237 168.469 145.735 165.891C148.083 163.469 166.068 158.496 166.068 160.269ZM150.047 202.161C148.694 202.693 148.432 203.758 148.274 209.357C147.965 220.331 150.062 230.036 154.771 239.431C158.769 247.407 164.329 254.065 162.321 248.472C158.111 236.746 157.049 231.642 156.756 221.722C156.565 215.259 156.877 211.368 157.958 206.754C158.628 203.894 158.573 202.658 157.763 202.348C156.821 201.987 150.857 201.842 150.047 202.161ZM157.191 203.595C157.299 203.874 157.06 205.814 156.662 207.906C154.958 216.855 155.601 229.687 158.249 239.61C159.655 244.875 159.463 245.422 157.394 242.04C153.651 235.917 150.989 228.55 149.716 220.8C149.154 217.377 149.141 204.768 149.699 203.793C150.232 202.86 156.842 202.686 157.191 203.595ZM158.913 276.821C170.716 285.645 181.432 291.433 193.568 295.539C196.222 296.436 195.4 296.329 190.413 295.126C174.753 291.349 152.274 278.001 152.274 272.479C152.274 271.842 152.112 271.735 158.913 276.821ZM137.01 277.011C160.206 298.474 187.156 309.21 217.796 309.195C225.983 309.191 229.339 309.006 235.195 308.235C238.061 307.857 236.31 308.706 232.822 309.386C200.562 315.667 166.919 307.657 141.94 287.746C137.666 284.34 130.852 277.386 131.325 276.913C131.404 276.834 132.024 277.052 132.701 277.398C134.43 278.281 134.895 278.119 134.771 276.677C134.637 275.122 135.032 275.18 137.01 277.011ZM120.799 281.968C130.865 291.855 140.467 299.25 150.55 304.883C198.817 331.847 257.99 325.174 296.758 288.394C299.959 285.357 302.277 283.302 301.908 283.827C301.05 285.045 295.262 290.638 291.7 293.689C281.536 302.395 273.912 307.472 263.451 312.503C214.251 336.16 155.811 326.427 119.404 288.514C112.454 281.276 109.379 276.953 112.593 278.94C114.331 280.014 115.456 279.734 115.369 278.249C115.269 276.555 115.325 276.594 120.799 281.968Z" fill="white"/>
</g>
</g>
<defs>
<radialGradient id="paint0_radial_9869_7024" cx="0" cy="0" r="1" gradientUnits="userSpaceOnUse" gradientTransform="translate(200) rotate(90) scale(260)">
<stop stop-color="#E477FA"/>
<stop offset="1" stop-color="#90192B"/>
</radialGradient>
<clipPath id="clip0_9869_7024">
<rect width="400" height="400" fill="white"/>
</clipPath>
<clipPath id="clip1_9869_7024">
<rect width="296.258" height="296.258" fill="white" transform="translate(51.9531 51.9531)"/>
</clipPath>
</defs>
</svg>
