<svg width="256" height="256" viewBox="0 0 256 256" fill="none" xmlns="http://www.w3.org/2000/svg">
<g clip-path="url(#clip0_1960_2)">
<path d="M256 128C256 57.3075 198.692 0 128 0C57.3075 0 0 57.3075 0 128C0 198.692 57.3075 256 128 256C198.692 256 256 198.692 256 128Z" fill="white"/>
<path d="M127.492 116.365C113.784 124.296 100.076 132.226 86.3688 140.19C100.175 147.827 113.981 155.431 127.82 163.068L127.918 208.988C127.951 209.314 127.984 209.674 128.049 210C141.757 202.2 155.465 194.4 169.205 186.632L169.074 140.157M210 69.4659L168.615 46L127.361 69.5638C113.784 61.7636 100.24 53.9307 86.6638 46.1305L46 69.7923L86.4672 92.8991H86.5328C100.175 100.732 113.85 108.565 127.492 116.398C155.005 100.732 182.486 85.0989 210 69.4659Z" fill="#A4F92B"/>
<path d="M86.4016 140.158L86.4672 92.8668L46 69.76L46.1312 163.46L46 163.591L128.016 210C127.951 194.367 127.885 178.702 127.787 163.069C114.014 155.432 100.208 147.795 86.4016 140.158C86.4344 140.158 86.4344 140.158 86.4016 140.158ZM210 116.202C210 115.974 210 115.778 210 115.549V69.4663L168.746 93.0626L169.074 140.158L209.836 163.297L210 116.202Z" fill="#0FBC24"/>
</g>
<defs>
<clipPath id="clip0_1960_2">
<rect width="256" height="256" fill="white"/>
</clipPath>
</defs>
</svg>
