<svg width="1000" height="1000" viewBox="0 0 1000 1000" fill="none" xmlns="http://www.w3.org/2000/svg">
<path d="M496.901 429.055C413.317 477.413 329.734 525.771 246.151 574.328C330.334 620.895 414.517 667.263 498.9 713.831L499.5 993.83C499.7 995.82 499.9 998.01 500.3 1000C583.883 952.437 667.467 904.875 751.25 857.512L750.45 574.129M1000 143.085L747.65 0L496.101 143.682C413.317 96.1194 330.734 48.3582 247.95 0.79602L0 145.075L246.751 285.97H247.151C330.334 333.731 413.717 381.492 496.901 429.254C664.667 333.731 832.234 238.408 1000 143.085Z" fill="#A4F92B"/>
<path d="M246.351 574.13L246.751 285.772L0 144.877L0.799767 716.22L0 717.016L500.1 1000C499.7 904.678 499.3 809.155 498.7 713.832C414.717 667.265 330.534 620.698 246.351 574.13C246.551 574.13 246.551 574.13 246.351 574.13ZM1000 428.061C1000 426.668 1000 425.474 1000 424.081V143.086L748.45 286.966L750.45 574.13L999 715.225L1000 428.061Z" fill="#0FBC24"/>
</svg>
