<svg width="865" height="241" viewBox="0 0 865 241" fill="none" xmlns="http://www.w3.org/2000/svg">
<rect x="0.501953" y="0.0366211" width="240" height="240" rx="120" fill="url(#paint0_radial_72_312)"/>
<rect x="0.501953" y="0.0366211" width="240" height="240" rx="120" fill="url(#paint1_radial_72_312)"/>
<rect x="0.501953" y="0.0366211" width="240" height="240" rx="120" fill="url(#paint2_radial_72_312)"/>
<rect x="0.501953" y="0.0366211" width="240" height="240" rx="120" fill="url(#paint3_radial_72_312)"/>
<path fill-rule="evenodd" clip-rule="evenodd" d="M83.3364 64.1131C82.5244 64.2466 81.8874 64.8424 81.6757 65.667C81.4521 66.5377 81.4551 80.788 81.6789 81.5584C81.8549 82.1637 82.2281 82.5773 82.9098 82.9228L83.3805 83.1613H105.698L128.015 83.161L128.573 82.8956C129.247 82.5745 129.367 82.444 129.678 81.7012L129.919 81.1235V73.5924C129.919 65.3584 129.956 66.002 129.427 64.9569C129.279 64.6639 128.454 64.1642 127.994 64.088C127.523 64.0102 83.8133 64.0346 83.3364 64.1131ZM83.0473 110.667C82.4231 110.807 81.874 111.361 81.6857 112.038C81.4237 112.981 81.4479 173.586 81.7107 174.45C81.9183 175.133 82.1261 175.386 82.7923 175.767L83.2699 176.041H122.814H162.359L162.695 175.84C164.005 175.058 163.937 175.59 163.918 166.25C163.9 157.27 163.987 157.943 162.752 157.224L162.288 156.954L131.472 156.907C104.214 156.866 100.645 156.845 100.567 156.722C100.512 156.635 100.487 151.558 100.501 143.264L100.523 129.946L100.785 129.75L101.048 129.554L123.313 129.508C143.857 129.465 145.595 129.45 145.806 129.307C146.347 128.941 146.619 128.597 146.766 128.093C147.013 127.241 146.992 112.667 146.742 111.94C146.561 111.414 146.132 110.902 145.717 110.715C145.412 110.578 83.6519 110.53 83.0473 110.667Z" fill="#F9F9F9" stroke="white" stroke-width="2.94737"/>
<path d="M303.621 173.593V98.4253H322.053V110.953H322.773C324.213 107.017 326.517 103.657 329.685 100.873C332.853 98.0893 337.269 96.6973 342.933 96.6973C348.117 96.6973 352.581 97.9453 356.325 100.441C360.069 102.937 362.853 106.729 364.677 111.817H364.965C366.309 107.593 368.949 104.041 372.885 101.161C376.917 98.1853 381.957 96.6973 388.005 96.6973C395.397 96.6973 401.061 99.2413 404.997 104.329C409.029 109.417 411.045 116.665 411.045 126.073V173.593H392.613V127.945C392.613 117.193 388.581 111.817 380.517 111.817C378.693 111.817 376.917 112.105 375.189 112.681C373.557 113.161 372.069 113.929 370.725 114.985C369.477 115.945 368.469 117.193 367.701 118.729C366.933 120.169 366.549 121.897 366.549 123.913V173.593H348.117V127.945C348.117 117.193 344.085 111.817 336.021 111.817C334.293 111.817 332.565 112.105 330.837 112.681C329.205 113.161 327.717 113.929 326.373 114.985C325.125 115.945 324.069 117.193 323.205 118.729C322.437 120.169 322.053 121.897 322.053 123.913V173.593H303.621ZM508.489 101.449H507.913L500.137 117.433L479.545 155.449L458.953 117.433L451.177 101.449H450.601V173.593H432.601V73.0813H454.057L479.833 122.185H480.409L505.897 73.0813H526.489V173.593H508.489V101.449ZM550.163 173.593V73.0813H616.403V89.9293H569.171V114.265H610.931V131.113H569.171V156.745H616.403V173.593H550.163ZM659.413 173.593L626.581 73.0813H646.021L661.429 122.041L670.357 155.449H670.789L679.573 122.041L694.981 73.0813H713.845L681.013 173.593H659.413Z" fill="white"/>
<defs>
<radialGradient id="paint0_radial_72_312" cx="0" cy="0" r="1" gradientUnits="userSpaceOnUse" gradientTransform="translate(104.002 -21.7134) rotate(82.1998) scale(276.307)">
<stop stop-color="#D9326F"/>
<stop offset="1" stop-color="#3A34DD"/>
</radialGradient>
<radialGradient id="paint1_radial_72_312" cx="0" cy="0" r="1" gradientUnits="userSpaceOnUse" gradientTransform="translate(120.502 -91.4634) rotate(86.892) scale(331.988)">
<stop stop-color="#FE4D8B"/>
<stop offset="1" stop-color="#483FFC"/>
</radialGradient>
<radialGradient id="paint2_radial_72_312" cx="0" cy="0" r="1" gradientUnits="userSpaceOnUse" gradientTransform="translate(120.502 0.0366211) rotate(90) scale(156)">
<stop stop-color="#628CBF"/>
<stop offset="1" stop-color="#1D507D"/>
</radialGradient>
<radialGradient id="paint3_radial_72_312" cx="0" cy="0" r="1" gradientUnits="userSpaceOnUse" gradientTransform="translate(100.502 0.0366176) rotate(82.6942) scale(157.277)">
<stop stop-color="#628CBF"/>
<stop offset="1" stop-color="#1D507D"/>
</radialGradient>
</defs>
</svg>
