<svg width="240" height="240" viewBox="0 0 240 240" fill="none" xmlns="http://www.w3.org/2000/svg">
<rect width="240" height="240" rx="120" fill="url(#paint0_radial_72_329)"/>
<rect width="240" height="240" rx="120" fill="url(#paint1_radial_72_329)"/>
<rect width="240" height="240" rx="120" fill="url(#paint2_radial_72_329)"/>
<rect width="240" height="240" rx="120" fill="url(#paint3_radial_72_329)"/>
<path fill-rule="evenodd" clip-rule="evenodd" d="M82.8349 64.077C82.0229 64.2105 81.386 64.8063 81.1742 65.6308C80.9506 66.5016 80.9536 80.7518 81.1775 81.5223C81.3535 82.1276 81.7266 82.5411 82.4083 82.8867L82.879 83.1251H105.197L127.514 83.1249L128.071 82.8595C128.745 82.5384 128.866 82.4079 129.176 81.6651L129.418 81.0874V73.5562C129.418 65.3223 129.454 65.9659 128.926 64.9208C128.777 64.6278 127.953 64.1281 127.492 64.0519C127.021 63.9741 83.3118 63.9985 82.8349 64.077ZM82.5458 110.631C81.9217 110.771 81.3725 111.324 81.1842 112.002C80.9223 112.944 80.9464 173.55 81.2093 174.414C81.4169 175.097 81.6247 175.35 82.2909 175.731L82.7685 176.004H122.313H161.857L162.193 175.804C163.504 175.022 163.436 175.554 163.417 166.214C163.399 157.234 163.486 157.907 162.251 157.188L161.786 156.918L130.97 156.871C103.713 156.83 100.144 156.809 100.066 156.686C100.011 156.599 99.9857 151.521 99.9994 143.228L100.022 129.91L100.284 129.714L100.546 129.518L122.811 129.472C143.356 129.429 145.094 129.414 145.304 129.271C145.846 128.905 146.117 128.561 146.264 128.056C146.512 127.204 146.49 112.631 146.24 111.904C146.059 111.378 145.63 110.866 145.215 110.679C144.91 110.542 83.1504 110.494 82.5458 110.631Z" fill="#F9F9F9" stroke="white" stroke-width="2.94737"/>
<defs>
<radialGradient id="paint0_radial_72_329" cx="0" cy="0" r="1" gradientUnits="userSpaceOnUse" gradientTransform="translate(103.5 -21.75) rotate(82.1998) scale(276.307)">
<stop stop-color="#D9326F"/>
<stop offset="1" stop-color="#3A34DD"/>
</radialGradient>
<radialGradient id="paint1_radial_72_329" cx="0" cy="0" r="1" gradientUnits="userSpaceOnUse" gradientTransform="translate(120 -91.5) rotate(86.892) scale(331.988)">
<stop stop-color="#FE4D8B"/>
<stop offset="1" stop-color="#483FFC"/>
</radialGradient>
<radialGradient id="paint2_radial_72_329" cx="0" cy="0" r="1" gradientUnits="userSpaceOnUse" gradientTransform="translate(120) rotate(90) scale(156)">
<stop stop-color="#628CBF"/>
<stop offset="1" stop-color="#1D507D"/>
</radialGradient>
<radialGradient id="paint3_radial_72_329" cx="0" cy="0" r="1" gradientUnits="userSpaceOnUse" gradientTransform="translate(100 -3.49184e-06) rotate(82.6942) scale(157.277)">
<stop stop-color="#628CBF"/>
<stop offset="1" stop-color="#1D507D"/>
</radialGradient>
</defs>
</svg>
