<?xml version="1.0" encoding="utf-8"?>
<!-- Generator: Adobe Illustrator 25.4.5, SVG Export Plug-In . SVG Version: 6.00 Build 0)  -->
<svg version="1.1" id="Layer_1" xmlns="http://www.w3.org/2000/svg" xmlns:xlink="http://www.w3.org/1999/xlink" x="0px" y="0px"
	 viewBox="0 0 2000 2000" style="enable-background:new 0 0 2000 2000;" xml:space="preserve">
<style type="text/css">
	.st0{fill:none;stroke:#0C00FF;stroke-width:4;stroke-miterlimit:10;}
	.st1{fill:#FFFFFF;}
	.st2{fill:#0C00FF;}
	.st3{fill:#F6F6F6;}
	.st4{fill:#282828;}
</style>
<ellipse class="st2" cx="1000" cy="1014.6" rx="916.8" ry="931.5"/>
<g>
	<path class="st3" d="M1575.7,736.1c-0.7,22.8-10.7,46-29.9,65.4c-66.2,67.1-132.2,134.3-198.4,201.4c-9.8,9.9-9.8,9.9-0.2,19.7
		c66.7,68.1,133.4,136.1,200,204.3c26.3,27,37,59,26.7,96.3c-19.6,71.3-105.7,93.6-158.1,40.8c-73.1-73.7-145.7-147.9-218.6-221.9
		c-32.4-32.9-64.9-65.9-97.3-98.8c-20.2-20.6-20.3-40.2,0-60.6c104.5-105.7,209-211.4,313.6-317c28.8-29.1,68.2-37.1,104.3-21.8
		C1552.4,658.4,1575.7,693.8,1575.7,736.1z"/>
	<path class="st3" d="M1021,922.4c-11.7,11.7-30.4,11.8-42.1,0c-38.1-38.4-85.5-85.7-120.3-120.7c-19.2-19.4-29.3-42.5-30.1-65.3
		c-0.2-42.4,23-77.8,57.5-92.5c36-15.4,75.4-7.5,104.3,21.5c33.6,33.7,82.2,84.2,120.7,123.4c11.7,11.9,11.7,31.2-0.1,43.1
		L1021,922.4z"/>
	<path class="st3" d="M424.3,736.1c0.7,22.8,10.7,46,29.9,65.4c66.2,67.1,132.2,134.3,198.4,201.4c9.8,9.9,9.8,9.9,0.2,19.7
		c-66.7,68.1-133.4,136.1-200,204.3c-26.3,27-37,59-26.7,96.3c19.6,71.3,105.7,93.6,158.1,40.8c73.1-73.7,145.7-147.9,218.6-221.9
		c32.4-32.9,64.9-65.9,97.3-98.8c20.2-20.6,20.3-40.2,0-60.6c-104.5-105.7-209-211.4-313.6-317c-28.8-29.1-68.2-37.1-104.3-21.8
		C447.6,658.4,424.3,693.8,424.3,736.1z"/>
	<path class="st3" d="M1020.4,1104.8c-11.7-11.7-30.4-11.8-42.1,0c-38.1,38.4-85.5,85.7-120.3,120.7c-19.2,19.4-29.3,42.5-30.1,65.3
		c-0.2,42.4,23,77.8,57.5,92.5c36,15.4,75.4,7.5,104.3-21.5c33.6-33.7,82.2-84.2,120.7-123.4c11.7-11.9,11.7-31.2-0.1-43.1
		L1020.4,1104.8z"/>
</g>
</svg>
