<svg width="1212" height="241" viewBox="0 0 1212 241" fill="none" xmlns="http://www.w3.org/2000/svg">
<rect x="0.0327148" y="0.0327148" width="240" height="240" rx="120" fill="url(#paint0_radial_72_277)"/>
<rect x="0.0327148" y="0.0327148" width="240" height="240" rx="120" fill="url(#paint1_radial_72_277)"/>
<path fill-rule="evenodd" clip-rule="evenodd" d="M84.0669 63.5239C83.093 63.7712 83.1416 63.0287 83.1778 77.1159L83.2095 89.5598L83.4379 89.7882C83.5635 89.9137 83.8753 90.0569 84.1309 90.1062C85.0459 90.2831 155.515 90.2264 155.858 90.0486C156.41 89.7634 156.398 90.0699 156.398 76.6655V64.1169L156.14 63.8392C155.759 63.4282 155.942 63.4367 148.242 63.4693L141.099 63.4994L140.758 63.7555C140.255 64.1329 140.256 64.1241 140.251 67.0895C140.246 70.19 140.271 70.0884 139.325 70.7694L138.852 71.1098L134.482 71.1303C128.325 71.1588 128.543 71.3083 128.631 67.1196C128.692 64.2094 128.654 64.0346 127.889 63.6641C127.263 63.361 112.023 63.3179 111.565 63.6177C111.135 63.8992 111.071 64.4144 111.1 67.3757C111.126 70.2078 111.074 70.6313 110.652 70.9786C110.544 71.0669 109.101 71.1116 105.58 71.1364C100.051 71.1748 100.549 71.2444 99.929 70.3491L99.6275 69.9141L99.6206 67.2398C99.6129 64.1833 99.6326 64.2603 98.7389 63.7838L98.1051 63.4461L91.1904 63.4583C87.3873 63.4653 84.1818 63.4946 84.0669 63.5239ZM93.5094 111.394C93.0915 111.739 93.0662 112.372 93.0958 121.645C93.1235 130.304 93.1294 130.525 93.3322 130.673C93.5108 130.804 97.2171 130.821 119.862 130.798L146.183 130.771L146.44 130.451L146.696 130.131L146.693 121.655C146.69 112.575 146.658 111.976 146.161 111.478C145.843 111.16 93.8924 111.077 93.5094 111.394ZM82.5166 152.117C82.37 152.143 81.9768 152.285 81.6429 152.433C80.6362 152.881 80.7042 152.012 80.7042 164.413C80.7042 176.825 80.5618 175.509 81.9302 175.764C83.1085 175.983 158.221 175.952 158.606 175.732C159.071 175.466 159.076 175.332 159.042 163.98C159.006 151.895 159.046 152.519 158.285 152.201C157.941 152.058 83.3369 151.975 82.5166 152.117Z" fill="white"/>
<path d="M302.854 174.155V98.9868H321.286V111.515H322.006C323.446 107.579 325.75 104.219 328.918 101.435C332.086 98.6508 336.502 97.2588 342.166 97.2588C347.35 97.2588 351.814 98.5068 355.558 101.003C359.302 103.499 362.086 107.291 363.91 112.379H364.198C365.542 108.155 368.182 104.603 372.118 101.723C376.15 98.7468 381.19 97.2588 387.238 97.2588C394.63 97.2588 400.294 99.8028 404.23 104.891C408.262 109.979 410.278 117.227 410.278 126.635V174.155H391.846V128.507C391.846 117.755 387.814 112.379 379.75 112.379C377.926 112.379 376.15 112.667 374.422 113.243C372.79 113.723 371.302 114.491 369.958 115.547C368.71 116.507 367.702 117.755 366.934 119.291C366.166 120.731 365.782 122.459 365.782 124.475V174.155H347.35V128.507C347.35 117.755 343.318 112.379 335.254 112.379C333.526 112.379 331.798 112.667 330.07 113.243C328.438 113.723 326.95 114.491 325.606 115.547C324.358 116.507 323.302 117.755 322.438 119.291C321.67 120.731 321.286 122.459 321.286 124.475V174.155H302.854ZM450.842 174.155H431.834V73.6428H477.194C481.802 73.6428 485.93 74.3628 489.578 75.8028C493.226 77.2428 496.298 79.3548 498.794 82.1388C501.386 84.8268 503.354 88.0908 504.698 91.9308C506.138 95.7708 506.858 100.043 506.858 104.747C506.858 111.659 505.274 117.611 502.106 122.603C499.034 127.595 494.378 131.147 488.138 133.259L508.73 174.155H487.562L468.842 135.419H450.842V174.155ZM475.322 119.435C478.97 119.435 481.85 118.475 483.962 116.555C486.074 114.539 487.13 111.707 487.13 108.059V101.435C487.13 97.7868 486.074 95.0028 483.962 93.0828C481.85 91.1628 478.97 90.2028 475.322 90.2028H450.842V119.435H475.322ZM527.459 174.155V73.6428H593.699V90.4908H546.467V114.827H588.227V131.675H546.467V157.307H593.699V174.155H527.459ZM626.331 174.155L661.323 89.0508H626.619V107.483H610.491V73.6428H680.187V89.9148L646.203 174.155H626.331ZM724.195 174.155V134.699L689.779 73.6428H711.091L734.275 116.123H734.563L757.171 73.6428H777.907L743.347 134.555V174.155H724.195ZM786.955 174.155V158.891H800.203V88.9068H786.955V73.6428H832.603V88.9068H819.211V158.891H832.603V174.155H786.955ZM852.022 174.155V73.6428H918.262V90.4908H871.03V114.827H912.79V131.675H871.03V157.307H918.262V174.155H852.022ZM938.366 174.155V73.6428H957.374V157.307H996.974V174.155H938.366ZM1013.46 73.6428H1050.04C1056.56 73.6428 1062.47 74.6988 1067.75 76.8108C1073.12 78.9228 1077.68 82.0908 1081.43 86.3148C1085.27 90.4428 1088.2 95.6748 1090.21 102.011C1092.32 108.251 1093.38 115.547 1093.38 123.899C1093.38 132.251 1092.32 139.595 1090.21 145.931C1088.2 152.171 1085.27 157.403 1081.43 161.627C1077.68 165.755 1073.12 168.875 1067.75 170.987C1062.47 173.099 1056.56 174.155 1050.04 174.155H1013.46V73.6428ZM1050.04 157.307C1057.14 157.307 1062.76 155.243 1066.88 151.115C1071.11 146.891 1073.22 140.459 1073.22 131.819V115.979C1073.22 107.339 1071.11 100.955 1066.88 96.8268C1062.76 92.6028 1057.14 90.4908 1050.04 90.4908H1032.47V157.307H1050.04Z" fill="white"/>
<defs>
<radialGradient id="paint0_radial_72_277" cx="0" cy="0" r="1" gradientUnits="userSpaceOnUse" gradientTransform="translate(103.533 -21.7173) rotate(82.1998) scale(276.307)">
<stop stop-color="#D9326F"/>
<stop offset="1" stop-color="#3A34DD"/>
</radialGradient>
<radialGradient id="paint1_radial_72_277" cx="0" cy="0" r="1" gradientUnits="userSpaceOnUse" gradientTransform="translate(119.599 -120.399) rotate(87.0723) scale(360.902)">
<stop stop-color="#FF5558"/>
<stop offset="1" stop-color="#623FFC"/>
</radialGradient>
</defs>
</svg>
