<svg width="240" height="240" viewBox="0 0 240 240" fill="none" xmlns="http://www.w3.org/2000/svg">
<rect width="240" height="240" rx="120" fill="url(#paint0_radial_72_321)"/>
<rect width="240" height="240" rx="120" fill="url(#paint1_radial_72_321)"/>
<path fill-rule="evenodd" clip-rule="evenodd" d="M84.0345 63.476C83.0606 63.7234 83.1091 62.9808 83.1453 77.0681L83.177 89.5119L83.4055 89.7403C83.531 89.8659 83.8428 90.009 84.0984 90.0583C85.0134 90.2353 155.482 90.1785 155.826 90.0007C156.377 89.7156 156.365 90.0221 156.365 76.6177V64.0691L156.108 63.7913C155.727 63.3804 155.909 63.3889 148.209 63.4214L141.067 63.4515L140.725 63.7077C140.222 64.0851 140.224 64.0763 140.218 67.0416C140.213 70.1421 140.239 70.0406 139.292 70.7216L138.819 71.0619L134.45 71.0824C128.293 71.111 128.511 71.2605 128.598 67.0717C128.659 64.1615 128.622 63.9867 127.857 63.6162C127.231 63.3132 111.99 63.27 111.533 63.5699C111.103 63.8513 111.039 64.3665 111.067 67.3279C111.094 70.16 111.041 70.5835 110.619 70.9308C110.512 71.019 109.069 71.0638 105.547 71.0886C100.019 71.1269 100.517 71.1965 99.8965 70.3012L99.5951 69.8663L99.5881 67.192C99.5804 64.1354 99.6001 64.2125 98.7065 63.7359L98.0727 63.3982L91.1579 63.4105C87.3548 63.4174 84.1493 63.4467 84.0345 63.476ZM93.477 111.346C93.059 111.691 93.0337 112.324 93.0633 121.597C93.091 130.256 93.0969 130.477 93.2997 130.625C93.4783 130.756 97.1846 130.773 119.829 130.75L146.151 130.723L146.407 130.403L146.664 130.083L146.661 121.608C146.657 112.527 146.626 111.928 146.128 111.43C145.811 111.112 93.86 111.029 93.477 111.346ZM82.4841 152.069C82.3375 152.095 81.9444 152.237 81.6104 152.385C80.6037 152.833 80.6717 151.964 80.6717 164.366C80.6717 176.777 80.5294 175.461 81.8977 175.716C83.076 175.935 158.188 175.904 158.574 175.684C159.039 175.418 159.043 175.284 159.01 163.932C158.973 151.847 159.013 152.472 158.252 152.154C157.908 152.01 83.3044 151.927 82.4841 152.069Z" fill="white"/>
<defs>
<radialGradient id="paint0_radial_72_321" cx="0" cy="0" r="1" gradientUnits="userSpaceOnUse" gradientTransform="translate(103.5 -21.75) rotate(82.1998) scale(276.307)">
<stop stop-color="#D9326F"/>
<stop offset="1" stop-color="#3A34DD"/>
</radialGradient>
<radialGradient id="paint1_radial_72_321" cx="0" cy="0" r="1" gradientUnits="userSpaceOnUse" gradientTransform="translate(119.566 -120.431) rotate(87.0723) scale(360.902)">
<stop stop-color="#FF5558"/>
<stop offset="1" stop-color="#623FFC"/>
</radialGradient>
</defs>
</svg>
