<?xml version="1.0" encoding="UTF-8"?>
<svg version="1.1" xmlns="http://www.w3.org/2000/svg" width="512" height="512">
<path d="M0 0 C1.01790619 0.00215515 2.03581238 0.0043103 3.08456421 0.00653076 C17.69363523 0.05620146 32.02575853 0.30709809 46.375 3.3125 C47.34985352 3.51117676 48.32470703 3.70985352 49.32910156 3.91455078 C75.9026796 9.47326697 101.23704157 18.34303921 125.0078125 31.46875 C127.02252274 32.57193241 129.0545544 33.64550102 131.1171875 34.65625 C140.0560072 39.11207502 147.61777147 45.49078172 155.37353516 51.70898438 C156.99529198 53.00828894 158.62702014 54.29514097 160.26171875 55.578125 C173.02680829 65.62140206 186.08722124 76.02571961 195.77294922 89.15771484 C197.38415404 91.32481234 199.0362746 93.45276884 200.70703125 95.57421875 C204.29418158 100.12988945 207.84604858 104.71160741 211.375 109.3125 C212.03169678 110.16521484 212.03169678 110.16521484 212.70166016 111.03515625 C237.18582646 143.22787261 250.27061317 185.67402197 255.375 225.3125 C255.47071289 226.00029541 255.56642578 226.68809082 255.66503906 227.39672852 C261.61358071 276.38691336 251.96095849 327.21138612 230.375 371.3125 C229.98054688 372.12589844 229.58609375 372.93929688 229.1796875 373.77734375 C223.94206405 384.47223292 218.06256913 394.19055539 210.73193359 403.57470703 C209.38613104 405.29824474 208.05984374 407.0351719 206.73828125 408.77734375 C201.72371203 415.37235437 196.62206774 421.90064978 191.375 428.3125 C190.83746094 428.97507812 190.29992187 429.63765625 189.74609375 430.3203125 C178.45427673 443.76165613 163.9629503 454.50853188 150.0378418 465.04785156 C148.86866386 465.93705164 147.70666113 466.83572663 146.55004883 467.74121094 C141.4267477 471.6981121 136.0700239 475.00562541 130.4375 478.1875 C129.51582031 478.70924805 128.59414063 479.23099609 127.64453125 479.76855469 C97.67983721 496.54091969 65.40582646 506.77956685 31.375 511.3125 C30.64579346 511.4148999 29.91658691 511.5172998 29.1652832 511.62280273 C-33.45857687 519.22122814 -101.75699924 502.1063803 -151.75 463.4375 C-159.03495371 457.70511563 -166.14376744 451.77491576 -173.10253906 445.65136719 C-174.53885839 444.38825379 -175.98400593 443.1351996 -177.4296875 441.8828125 C-190.46576735 430.43166637 -200.63005954 416.42686796 -210.9375 402.5625 C-211.51193848 401.79502441 -212.08637695 401.02754883 -212.67822266 400.23681641 C-239.49446074 363.89385915 -255.60409619 314.37294401 -255.828125 269.1796875 C-255.83864647 267.7599614 -255.83864647 267.7599614 -255.84938049 266.31155396 C-255.86680968 263.27015385 -255.87323353 260.22894822 -255.875 257.1875 C-255.87567474 256.15061035 -255.87634949 255.1137207 -255.87704468 254.04541016 C-255.86170363 239.24230499 -255.57422884 224.86706042 -252.625 210.3125 C-252.37556641 209.00394043 -252.37556641 209.00394043 -252.12109375 207.66894531 C-245.34249941 172.65876085 -232.24780577 136.28251441 -209.625 108.3125 C-208.09749182 106.27582242 -206.57674568 104.23405731 -205.0625 102.1875 C-193.04498031 86.17807377 -180.36311854 71.77853522 -164.625 59.3125 C-163.37421096 58.30697029 -162.12425589 57.30040259 -160.875 56.29296875 C-157.67148847 53.71188566 -154.45647148 51.14583435 -151.23291016 48.58984375 C-149.95671147 47.5760157 -148.68630442 46.5548979 -147.41796875 45.53125 C-119.7254177 23.81160212 -83.29572115 10.96374779 -49.1875 4 C-48.46876709 3.85272461 -47.75003418 3.70544922 -47.00952148 3.55371094 C-31.36339351 0.57880427 -15.88926604 -0.06050342 0 0 Z " fill="#042258" transform="translate(255.625,-0.3125)"/>
<path d="M0 0 C1.01790619 0.00215515 2.03581238 0.0043103 3.08456421 0.00653076 C17.69363523 0.05620146 32.02575853 0.30709809 46.375 3.3125 C47.34985352 3.51117676 48.32470703 3.70985352 49.32910156 3.91455078 C75.9026796 9.47326697 101.23704157 18.34303921 125.0078125 31.46875 C127.02252274 32.57193241 129.0545544 33.64550102 131.1171875 34.65625 C140.0560072 39.11207502 147.61777147 45.49078172 155.37353516 51.70898438 C156.99529198 53.00828894 158.62702014 54.29514097 160.26171875 55.578125 C173.02680829 65.62140206 186.08722124 76.02571961 195.77294922 89.15771484 C197.38415404 91.32481234 199.0362746 93.45276884 200.70703125 95.57421875 C204.29418158 100.12988945 207.84604858 104.71160741 211.375 109.3125 C212.03169678 110.16521484 212.03169678 110.16521484 212.70166016 111.03515625 C237.18582646 143.22787261 250.27061317 185.67402197 255.375 225.3125 C255.47071289 226.00029541 255.56642578 226.68809082 255.66503906 227.39672852 C261.61358071 276.38691336 251.96095849 327.21138612 230.375 371.3125 C229.98054688 372.12589844 229.58609375 372.93929688 229.1796875 373.77734375 C223.94206405 384.47223292 218.06256913 394.19055539 210.73193359 403.57470703 C209.38613104 405.29824474 208.05984374 407.0351719 206.73828125 408.77734375 C201.72371203 415.37235437 196.62206774 421.90064978 191.375 428.3125 C190.83746094 428.97507812 190.29992187 429.63765625 189.74609375 430.3203125 C178.45427673 443.76165613 163.9629503 454.50853188 150.0378418 465.04785156 C148.86866386 465.93705164 147.70666113 466.83572663 146.55004883 467.74121094 C141.4267477 471.6981121 136.0700239 475.00562541 130.4375 478.1875 C129.51582031 478.70924805 128.59414063 479.23099609 127.64453125 479.76855469 C97.67983721 496.54091969 65.40582646 506.77956685 31.375 511.3125 C30.64579346 511.4148999 29.91658691 511.5172998 29.1652832 511.62280273 C-33.45857687 519.22122814 -101.75699924 502.1063803 -151.75 463.4375 C-159.03495371 457.70511563 -166.14376744 451.77491576 -173.10253906 445.65136719 C-174.53885839 444.38825379 -175.98400593 443.1351996 -177.4296875 441.8828125 C-190.46576735 430.43166637 -200.63005954 416.42686796 -210.9375 402.5625 C-211.51193848 401.79502441 -212.08637695 401.02754883 -212.67822266 400.23681641 C-239.49446074 363.89385915 -255.60409619 314.37294401 -255.828125 269.1796875 C-255.83864647 267.7599614 -255.83864647 267.7599614 -255.84938049 266.31155396 C-255.86680968 263.27015385 -255.87323353 260.22894822 -255.875 257.1875 C-255.87567474 256.15061035 -255.87634949 255.1137207 -255.87704468 254.04541016 C-255.86170363 239.24230499 -255.57422884 224.86706042 -252.625 210.3125 C-252.37556641 209.00394043 -252.37556641 209.00394043 -252.12109375 207.66894531 C-245.34249941 172.65876085 -232.24780577 136.28251441 -209.625 108.3125 C-208.09749182 106.27582242 -206.57674568 104.23405731 -205.0625 102.1875 C-193.04498031 86.17807377 -180.36311854 71.77853522 -164.625 59.3125 C-163.37421096 58.30697029 -162.12425589 57.30040259 -160.875 56.29296875 C-157.67148847 53.71188566 -154.45647148 51.14583435 -151.23291016 48.58984375 C-149.95671147 47.5760157 -148.68630442 46.5548979 -147.41796875 45.53125 C-119.7254177 23.81160212 -83.29572115 10.96374779 -49.1875 4 C-48.46876709 3.85272461 -47.75003418 3.70544922 -47.00952148 3.55371094 C-31.36339351 0.57880427 -15.88926604 -0.06050342 0 0 Z M-54.625 21.3125 C-56.1809173 21.65627878 -57.74378795 21.97034845 -59.3125 22.25 C-67.28927375 23.79505077 -74.84252782 25.75938035 -82.20703125 29.2265625 C-84.99077674 30.47677453 -87.82239595 31.51231426 -90.6875 32.5625 C-98.62717617 35.59065556 -106.12033428 39.3473004 -113.625 43.3125 C-114.29998535 43.66860352 -114.9749707 44.02470703 -115.67041016 44.39160156 C-132.87722457 53.55811838 -147.90799955 65.06247679 -162.296875 78.20703125 C-164.34929983 80.06316713 -166.44345709 81.84620992 -168.5625 83.625 C-190.46280578 102.79876169 -205.82961067 128.56524913 -218.625 154.3125 C-219.23824392 155.51694609 -219.85151885 156.72137639 -220.46484375 157.92578125 C-224.89619035 166.98829645 -227.8215744 176.57598957 -230.90405273 186.15771484 C-231.46910773 187.8465653 -232.10618095 189.51134674 -232.76953125 191.1640625 C-233.63950266 193.3489222 -234.13694168 195.37732628 -234.5625 197.6875 C-235.13618749 200.73210919 -235.71979913 203.77061037 -236.34765625 206.8046875 C-236.73244141 208.66480469 -236.73244141 208.66480469 -237.125 210.5625 C-237.3621875 211.70203125 -237.599375 212.8415625 -237.84375 214.015625 C-238.10998679 215.44684624 -238.36956965 216.87931069 -238.625 218.3125 C-238.79926514 219.25222656 -238.97353027 220.19195312 -239.15307617 221.16015625 C-240.95640027 232.03330575 -240.97980128 242.81637022 -240.9375 253.8125 C-240.93567719 254.79082794 -240.93385437 255.76915588 -240.93197632 256.77713013 C-240.88785259 270.81609285 -240.56173531 284.53419744 -237.625 298.3125 C-237.36759033 299.57731201 -237.36759033 299.57731201 -237.10498047 300.86767578 C-227.81260291 345.70194426 -208.00676772 384.40352345 -177.98535156 418.75244141 C-176.77144342 420.14455788 -175.56854117 421.54625382 -174.3671875 422.94921875 C-170.10915342 427.86683066 -165.60721266 432.14095245 -160.625 436.3125 C-159.67882812 437.13492187 -158.73265625 437.95734375 -157.7578125 438.8046875 C-132.97873594 460.2876246 -104.68587981 475.84935579 -73.625 486.3125 C-72.44067383 486.71662109 -72.44067383 486.71662109 -71.23242188 487.12890625 C-57.60850668 491.71079162 -43.84990185 494.34980164 -29.625 496.3125 C-27.74216309 496.57728149 -27.74216309 496.57728149 -25.82128906 496.84741211 C-21.59351259 497.36777054 -17.41257817 497.49027914 -13.15625 497.515625 C-12.36632156 497.52250336 -11.57639313 497.52938171 -10.76252747 497.53646851 C-8.21663765 497.55358651 -5.67094438 497.55992764 -3.125 497.5625 C-2.25628265 497.56417175 -1.38756531 497.56584351 -0.49252319 497.56756592 C12.89824477 497.56910915 25.94469227 496.88092804 39.17626953 494.67089844 C41.01534614 494.37112446 42.86461514 494.13479153 44.71484375 493.9140625 C55.25218653 492.58396313 65.34957409 488.67213008 75.375 485.3125 C76.25881348 485.02181641 77.14262695 484.73113281 78.05322266 484.43164062 C108.73247867 474.32662093 136.88242074 458.65035926 160.375 436.3125 C161.70211697 435.15947252 163.03508041 434.01312447 164.375 432.875 C173.27021636 425.10760248 181.11482049 416.61388014 188.375 407.3125 C188.87290039 406.68569336 189.37080078 406.05888672 189.88378906 405.41308594 C197.52549087 395.78628781 204.40231333 386.05566818 210.375 375.3125 C210.7457666 374.65846191 211.1165332 374.00442383 211.49853516 373.33056641 C220.43628173 357.50005405 227.05989502 340.68150376 232.375 323.3125 C232.7565625 322.08144531 233.138125 320.85039062 233.53125 319.58203125 C236.10016957 310.72843343 237.11481636 302.48397338 237.375 293.3125 C238.035 293.3125 238.695 293.3125 239.375 293.3125 C245.2778377 244.50868118 240.13087208 194.53065776 217.375 150.3125 C217.00648926 149.57725098 216.63797852 148.84200195 216.25830078 148.08447266 C206.27558625 128.1722084 194.12309574 110.25679617 178.81469727 94.04223633 C175.46466811 90.49183622 175.46466811 90.49183622 174.375 88.3125 C173.715 88.3125 173.055 88.3125 172.375 88.3125 C172.14296875 87.74660156 171.9109375 87.18070312 171.671875 86.59765625 C166.34633276 77.21379418 153.88898561 69.74223585 145.375 63.3125 C144.80910156 62.88437012 144.24320312 62.45624023 143.66015625 62.01513672 C103.02571051 31.52757192 51.93519441 14.57383776 1.25 14.875 C-0.28441238 14.87756805 -0.28441238 14.87756805 -1.849823 14.88018799 C-19.64443132 14.93125354 -37.65476749 15.36287706 -54.625 21.3125 Z " fill="#00CFFD" transform="translate(255.625,-0.3125)"/>
<path d="M0 0 C1.1195105 -0.00004028 2.239021 -0.00008057 3.39245605 -0.00012207 C5.76966948 0.00524 8.14688205 0.02285173 10.52392578 0.05175781 C14.08814547 0.09296266 17.65043026 0.09287505 21.21484375 0.0859375 C48.61172856 0.16397496 77.35960952 2.39113066 98.65625 21.59375 C99.23117188 22.07714844 99.80609375 22.56054688 100.3984375 23.05859375 C108.962544 30.81364871 114.99479533 41.84836513 119.875 52.171875 C127.76546495 68.62638117 138.45896226 90.74420911 156.65625 97.59375 C166.04095759 100.7044115 175.26409058 100.70117557 185.03515625 100.5859375 C186.9992013 100.57290434 188.96324666 100.55988913 190.92729855 100.54792976 C195.74519635 100.51752199 200.56293375 100.47725435 205.38061523 100.42236328 C208.09302024 100.39193426 210.80526544 100.36957384 213.51780701 100.35598755 C216.06547765 100.34286413 218.61312159 100.31783808 221.16053772 100.2795105 C231.91505312 100.24743496 231.91505312 100.24743496 236.65625 103.59375 C241.79432211 109.01727056 243.07993632 113.78502635 242.90625 121.1015625 C242.29969753 127.14813245 239.30584314 132.69508672 234.65625 136.59375 C223.56245675 143.4699325 212.91079556 144.87383586 200.09375 145.21875 C198.86285645 145.25524658 197.63196289 145.29174316 196.36376953 145.3293457 C95.20392878 147.97578928 95.20392878 147.97578928 71.12890625 125.203125 C66.72178191 120.88215497 62.52364712 116.42289936 58.51171875 111.734375 C55.41177211 108.15801551 52.19053353 104.69168688 48.98828125 101.20703125 C46.65625 98.59375 46.65625 98.59375 44.68359375 95.9921875 C42.46644618 93.36920367 40.29954655 91.74555995 37.40625 89.90625 C36.51421875 89.32488281 35.6221875 88.74351562 34.703125 88.14453125 C26.92580037 84.18607243 18.54746366 84.03931513 9.99414062 83.55859375 C9.09244141 83.49027344 8.19074219 83.42195313 7.26171875 83.3515625 C6.44856201 83.3014502 5.63540527 83.25133789 4.79760742 83.19970703 C1.91725501 82.38463068 1.180498 81.115547 -0.34375 78.59375 C-1.36471163 76.28586195 -2.28974214 74.02041488 -3.15625 71.65625 C-3.41124268 70.9667627 -3.66623535 70.27727539 -3.92895508 69.56689453 C-10.40442101 51.61318457 -16.21125825 32.13632299 -16.71875 12.96875 C-16.76773438 11.69773437 -16.81671875 10.42671875 -16.8671875 9.1171875 C-16.34375 5.59375 -16.34375 5.59375 -14.52001953 2.91064453 C-9.81627792 -0.52044755 -5.68347974 -0.08727979 0 0 Z " fill="#00CFFD" transform="translate(72.34375,273.40625)"/>
<path d="M0 0 C22.28377868 12.76306371 34.49633263 50.53033804 41.25 73.8125 C41.49637207 74.65965576 41.74274414 75.50681152 41.99658203 76.37963867 C44.96182587 86.93422636 46.36206975 96.96618654 46.375 107.9375 C46.39949219 109.02740234 46.42398438 110.11730469 46.44921875 111.24023438 C46.52112297 131.40936947 35.55662773 147.22627543 22.0625 161.25 C11.78941416 171.22463228 -6.99335367 185 -22 185 C-22.16218018 185.57322998 -22.32436035 186.14645996 -22.49145508 186.73706055 C-24.57018944 193.88958053 -27.02523902 200.85760116 -29.6875 207.8125 C-30.08388672 208.91787109 -30.48027344 210.02324219 -30.88867188 211.16210938 C-33.24616018 217.26796719 -35.18861925 221.13698648 -41.04614258 224.30419922 C-44.18185141 225.42087674 -46.70424624 225.34330768 -50 225 C-51.16090542 220.8539092 -50.77125901 218.41455851 -49.375 214.375 C-47.70365222 209.32667635 -46.21549769 204.26106462 -44.87890625 199.11328125 C-44.67031479 198.31516525 -44.46172333 197.51704926 -44.24681091 196.69474792 C-40.81038658 183.49128403 -37.47615556 170.26116672 -34.12585449 157.03564453 C-33.37876212 154.08742214 -32.63073573 151.13943708 -31.88269997 148.19145393 C-27.55523285 131.13589635 -23.25092461 114.0748312 -19 97 C-18.34 97 -17.68 97 -17 97 C-16.87625 95.88625 -16.7525 94.7725 -16.625 93.625 C-16.22187282 90.32987345 -15.63095806 87.12097388 -14.9375 83.875 C-14.16835635 80.18311047 -13.80063664 76.78790386 -14 73 C-15.55894559 72.83653774 -17.1229461 72.72092885 -18.6875 72.625 C-19.55761719 72.55539063 -20.42773438 72.48578125 -21.32421875 72.4140625 C-24.51029185 73.11174274 -25.73668662 74.38030172 -27.73277283 76.8994751 C-30.47437719 81.44389172 -31.60338869 86.67336705 -32.99609375 91.75390625 C-33.35212173 93.00517807 -33.70814972 94.25644989 -34.07496643 95.54563904 C-35.02147884 98.87278083 -35.94977276 102.2047357 -36.87414551 105.53808594 C-37.79669864 108.85328013 -38.73583403 112.16375774 -39.67382812 115.47460938 C-42.10401233 124.0660104 -44.51387442 132.66309984 -46.90899658 141.26434326 C-47.71770912 144.16569957 -48.53206621 147.06541474 -49.34765625 149.96484375 C-49.68983437 151.20362022 -49.68983437 151.20362022 -50.03892517 152.46742249 C-51.36813817 157.17451002 -53.01310353 161.53130117 -55 166 C-56.53025257 170.95081713 -57.76435255 175.96914966 -59 181 C-67.38728361 177.45153386 -72.59264496 169.98212861 -78 163 C-78.61101562 162.21625 -79.22203125 161.4325 -79.8515625 160.625 C-84.87875558 153.83025501 -88.49813087 146.40204991 -92.12573242 138.80126953 C-92.90459722 137.1965601 -93.73229484 135.61576187 -94.56640625 134.0390625 C-99.73697246 123.07802569 -101.46744666 111.40485273 -101.5 99.375 C-101.50906372 97.88347412 -101.50906372 97.88347412 -101.51831055 96.36181641 C-101.15699897 75.21352019 -86.90774731 58.57901113 -73 44 C-72.38253906 43.34128906 -71.76507813 42.68257812 -71.12890625 42.00390625 C-56.92164046 27.25151755 -22.40336569 -2.35824902 0 0 Z " fill="#00D0FD" transform="translate(293,77)"/>
<path d="M0 0 C0.825 0.78375 1.65 1.5675 2.5 2.375 C3.44875 3.15875 4.3975 3.9425 5.375 4.75 C8.62807473 8.90376317 8.23939421 13.91617854 8.04296875 18.96484375 C7.22241269 24.11840808 5.21381917 26.83841298 1.5 30.375 C0.71689453 31.20837891 0.71689453 31.20837891 -0.08203125 32.05859375 C-9.00617324 40.78128783 -21.39890801 46.43651934 -32.4375 52 C-33.11748047 52.34281006 -33.79746094 52.68562012 -34.49804688 53.03881836 C-39.24218038 55.375 -39.24218038 55.375 -41.5 55.375 C-41.5 56.035 -41.5 56.695 -41.5 57.375 C-45.43087825 59.41063338 -49.25780297 61.34918555 -53.4375 62.8125 C-56.37549756 63.85892045 -58.9284251 65.15513906 -61.60546875 66.75 C-66.51672858 69.51092173 -71.50225186 71.28801431 -76.875 72.9375 C-77.82020508 73.23342041 -78.76541016 73.52934082 -79.73925781 73.83422852 C-101.17795614 80.375 -101.17795614 80.375 -109.5 80.375 C-109.62375 79.61316406 -109.7475 78.85132813 -109.875 78.06640625 C-111.48039358 70.02940465 -114.19609475 64.72569377 -120.5 59.375 C-121.985 58.88 -121.985 58.88 -123.5 58.375 C-123.5 57.715 -123.5 57.055 -123.5 56.375 C-124.31637939 56.38166183 -125.13275879 56.38832367 -125.97387695 56.39518738 C-133.73899922 56.45577232 -141.50400384 56.50121185 -149.26930237 56.53043652 C-153.25971719 56.5459672 -157.24993366 56.56696901 -161.24023438 56.60131836 C-165.10470474 56.63436916 -168.96898665 56.65194716 -172.83358765 56.65963173 C-174.29408732 56.66509458 -175.75457891 56.67575651 -177.21499634 56.69219017 C-192.66810646 56.85886239 -209.17692411 55.81075796 -221.5 45.375 C-221.5 44.715 -221.5 44.055 -221.5 43.375 C-220.83998993 43.36691315 -220.17997986 43.35882629 -219.49996948 43.35049438 C-140.19774608 43.36101643 -140.19774608 43.36101643 -64.671875 21.64453125 C-60.04189639 19.5503057 -55.35659851 17.86194199 -50.5 16.375 C-50.5 15.715 -50.5 15.055 -50.5 14.375 C-46.90203359 12.44652992 -43.29556533 10.53449919 -39.6875 8.625 C-38.18026367 7.81675781 -38.18026367 7.81675781 -36.64257812 6.9921875 C-12.43482918 -5.77331355 -12.43482918 -5.77331355 0 0 Z " fill="#08B5FC" transform="translate(438.5,305.625)"/>
<path d="M0 0 C0.66 0.33 1.32 0.66 2 1 C1.39414063 1.69222656 0.78828125 2.38445312 0.1640625 3.09765625 C-6.59189069 10.98653082 -12.39140151 19.26490618 -18 28 C-18.33 27.01 -18.66 26.02 -19 25 C-14.27154326 16.0408188 -7.1448798 7.1448798 0 0 Z " fill="#021F3F" transform="translate(72,100)"/>
<path d="M0 0 C2.85511491 0.28400085 5.7088449 0.57695652 8.5625 0.875 C9.36236328 0.95363281 10.16222656 1.03226562 10.98632812 1.11328125 C15.86418518 1.63093139 20.28284517 2.60232449 25 4 C27.47234041 4.41764249 29.95212726 4.79361697 32.4375 5.125 C34.29181641 5.37636719 34.29181641 5.37636719 36.18359375 5.6328125 C37.11300781 5.75398438 38.04242188 5.87515625 39 6 C39 6.33 39 6.66 39 7 C32.12530057 7.24818409 25.70222292 6.30038624 18.9375 5.125 C17.88755859 4.95097656 16.83761719 4.77695312 15.75585938 4.59765625 C10.38653548 3.68531047 5.19615026 2.63623455 0 1 C0 0.67 0 0.34 0 0 Z " fill="#03619D" transform="translate(195,489)"/>
</svg>
