<svg id="svg" version="1.1" xmlns="http://www.w3.org/2000/svg" xmlns:xlink="http://www.w3.org/1999/xlink" width="400" height="400" viewBox="0, 0, 400,400"><g id="svgg"><path id="path0" d="M191.000 3.622 C 189.240 3.786,184.596 4.202,180.681 4.548 C 176.765 4.894,173.395 5.279,173.192 5.405 C 172.989 5.531,171.242 5.802,169.311 6.008 C 164.050 6.569,149.585 9.777,143.200 11.800 C 117.959 19.796,100.066 29.032,78.939 44.968 C 69.730 51.914,53.903 67.426,48.000 75.290 C 47.670 75.729,46.674 77.014,45.787 78.144 C 37.104 89.206,32.046 97.034,25.587 109.400 C 21.524 117.181,16.527 128.716,14.586 134.800 C 14.200 136.010,13.664 137.450,13.396 138.000 C 13.128 138.550,12.793 139.540,12.651 140.200 C 12.407 141.343,11.435 144.716,10.136 148.939 C 9.808 150.005,9.392 151.715,9.213 152.739 C 9.033 153.762,8.592 155.860,8.233 157.400 C 6.604 164.390,6.373 165.533,6.176 167.600 C 6.061 168.810,5.709 171.060,5.394 172.600 C 5.079 174.140,4.634 177.830,4.405 180.800 C 4.176 183.770,3.821 187.460,3.615 189.000 C 3.142 192.539,3.135 206.832,3.604 210.800 C 3.799 212.450,4.153 216.140,4.392 219.000 C 4.630 221.860,5.076 225.460,5.384 227.000 C 5.691 228.540,6.057 231.116,6.198 232.725 C 6.338 234.334,6.685 236.314,6.968 237.125 C 7.250 237.936,7.604 239.590,7.753 240.800 C 7.902 242.010,8.275 243.810,8.580 244.800 C 8.886 245.790,9.527 248.130,10.004 250.000 C 10.481 251.870,11.202 254.480,11.605 255.800 C 12.009 257.120,12.522 258.830,12.746 259.600 C 14.531 265.737,17.765 274.071,21.285 281.600 C 21.953 283.030,22.908 285.100,23.407 286.200 C 24.803 289.276,31.948 302.235,33.884 305.200 C 45.113 322.407,64.775 344.429,76.080 352.464 C 77.114 353.199,80.354 355.625,83.280 357.856 C 87.850 361.341,90.599 363.196,99.200 368.604 C 105.238 372.401,121.424 380.331,128.200 382.813 C 129.300 383.216,132.270 384.292,134.800 385.203 C 144.676 388.762,159.718 392.495,169.400 393.790 C 171.600 394.085,174.570 394.512,176.000 394.740 C 187.619 396.592,213.105 396.526,224.200 394.615 C 225.960 394.312,228.660 393.954,230.200 393.819 C 233.014 393.573,234.170 393.355,243.000 391.398 C 264.935 386.536,290.287 375.805,307.614 364.049 C 310.578 362.038,311.430 361.432,317.200 357.230 C 324.201 352.132,336.686 341.158,341.200 336.135 C 341.970 335.278,343.680 333.397,345.000 331.956 C 347.199 329.554,348.127 328.476,351.505 324.400 C 354.011 321.375,362.382 310.041,363.814 307.733 C 371.154 295.904,374.600 289.507,378.795 279.927 C 380.367 276.337,381.813 273.040,382.008 272.600 C 383.798 268.576,388.506 254.324,389.342 250.400 C 389.872 247.912,390.913 243.617,391.449 241.708 C 391.772 240.558,392.134 238.668,392.254 237.508 C 392.374 236.349,392.718 234.590,393.019 233.600 C 393.320 232.610,393.754 229.910,393.984 227.600 C 394.214 225.290,394.622 222.320,394.890 221.000 C 395.717 216.934,395.585 181.481,394.728 177.400 C 394.358 175.640,393.939 172.697,393.797 170.861 C 393.655 169.024,393.284 166.684,392.973 165.661 C 392.663 164.637,392.411 163.350,392.415 162.800 C 392.421 161.798,391.317 156.876,389.992 152.000 C 389.603 150.570,389.059 148.410,388.782 147.200 C 388.505 145.990,388.148 144.730,387.988 144.400 C 387.829 144.070,387.203 142.180,386.597 140.200 C 385.391 136.261,383.565 130.887,382.792 129.000 C 382.522 128.340,382.154 127.440,381.976 127.000 C 378.148 117.566,371.307 103.886,366.853 96.755 C 366.494 96.180,365.674 94.830,365.031 93.755 C 364.389 92.680,363.295 91.080,362.601 90.200 C 361.907 89.320,360.554 87.430,359.594 86.000 C 357.729 83.224,354.651 79.128,352.634 76.740 C 351.955 75.937,350.140 73.745,348.600 71.871 C 345.642 68.269,331.315 53.873,327.595 50.766 C 326.388 49.757,323.870 47.767,322.000 46.345 C 320.130 44.922,317.078 42.597,315.217 41.179 C 312.221 38.895,307.851 35.951,300.800 31.468 C 298.574 30.052,284.149 22.400,283.706 22.400 C 283.575 22.400,281.292 21.387,278.633 20.149 C 275.975 18.912,272.900 17.574,271.800 17.176 C 270.700 16.779,267.730 15.709,265.200 14.798 C 255.085 11.157,240.537 7.501,230.859 6.167 C 228.582 5.854,226.565 5.502,226.378 5.386 C 226.191 5.271,222.834 4.911,218.919 4.587 C 215.003 4.262,209.910 3.826,207.600 3.616 C 202.815 3.182,195.700 3.184,191.000 3.622 M219.200 27.783 C 326.857 39.594,398.735 140.132,372.782 242.601 C 345.261 351.262,223.985 407.187,123.000 357.786 C 22.614 308.678,-7.322 182.688,60.560 95.000 C 97.375 47.443,159.290 21.209,219.200 27.783 M180.794 64.406 C 177.751 67.449,178.474 72.000,182.000 72.000 C 184.914 72.000,185.916 69.566,184.300 66.414 C 183.015 63.907,181.920 63.280,180.794 64.406 M220.489 63.868 C 219.036 64.453,217.761 68.777,218.577 70.355 C 220.044 73.192,224.415 72.154,224.391 68.974 C 224.375 66.808,222.261 63.348,221.126 63.632 C 221.057 63.649,220.770 63.756,220.489 63.868 M145.449 90.100 C 137.167 103.069,137.758 111.550,146.996 112.316 C 155.258 113.001,158.480 105.991,154.036 97.000 C 149.337 87.493,147.868 86.313,145.449 90.100 M252.369 89.700 C 250.397 92.414,246.405 100.824,246.150 102.804 C 245.051 111.329,256.238 115.987,261.237 109.085 C 263.840 105.492,263.643 102.398,260.416 96.192 C 255.858 87.426,254.701 86.493,252.369 89.700 M200.308 93.500 C 199.969 93.885,199.015 95.280,198.189 96.600 C 195.995 100.105,188.047 111.952,180.209 123.400 C 146.243 173.014,140.933 190.071,152.194 213.400 C 173.609 257.766,236.641 254.180,253.361 207.645 C 261.091 186.130,255.620 171.941,218.411 117.000 C 212.749 108.640,206.989 100.000,205.612 97.800 C 202.375 92.631,201.615 92.015,200.308 93.500 M110.064 105.723 C 107.051 109.353,107.777 114.160,111.337 114.160 C 114.385 114.160,115.574 111.543,114.050 108.187 C 112.807 105.450,111.144 104.422,110.064 105.723 M289.846 106.418 C 286.735 110.116,288.567 115.396,292.488 114.029 C 295.954 112.821,294.845 105.200,291.203 105.200 C 291.020 105.200,290.410 105.748,289.846 106.418 M128.263 123.769 C 123.389 129.029,124.104 135.992,129.520 135.999 C 135.018 136.005,135.808 129.765,131.026 124.100 C 129.712 122.544,129.431 122.510,128.263 123.769 M271.103 124.100 C 266.711 130.810,267.519 135.800,272.999 135.800 C 277.450 135.800,278.785 132.333,276.262 127.324 C 274.120 123.070,272.457 122.031,271.103 124.100 M205.346 139.785 C 206.851 141.180,207.200 142.388,207.200 146.204 C 207.200 150.456,207.740 151.152,212.000 152.397 C 222.842 155.565,229.754 163.807,225.567 168.576 C 223.208 171.263,220.524 171.196,216.775 168.357 C 211.060 164.029,207.608 163.457,206.628 166.675 C 205.327 170.952,199.923 170.990,197.768 166.738 C 196.232 163.706,192.811 164.452,189.973 168.438 C 185.733 174.392,193.949 184.020,198.435 178.356 C 200.683 175.518,206.400 176.014,206.400 179.047 C 206.400 180.441,208.257 181.633,211.959 182.617 C 234.227 188.536,234.384 216.216,212.186 222.582 C 207.600 223.897,207.200 224.355,207.200 228.284 C 207.200 238.251,197.877 238.481,197.234 228.529 C 196.944 224.034,196.926 224.014,192.035 222.635 C 178.753 218.889,171.061 208.764,177.965 204.112 C 180.349 202.505,181.616 202.804,186.000 206.005 C 192.733 210.922,196.342 211.651,197.987 208.425 C 200.033 204.415,203.985 204.414,206.453 208.424 C 207.854 210.701,208.941 210.956,211.554 209.624 C 218.159 206.254,217.968 198.696,211.200 195.632 C 208.559 194.437,208.009 194.564,206.000 196.830 C 202.981 200.234,199.996 199.913,197.984 195.968 C 196.975 193.990,196.138 193.475,192.214 192.416 C 170.395 186.524,171.252 157.269,193.400 151.968 C 196.638 151.193,197.200 150.426,197.200 146.780 C 197.200 142.595,197.507 141.354,198.886 139.976 C 200.491 138.371,203.717 138.275,205.346 139.785 M109.602 154.490 C 104.414 160.059,106.053 167.780,112.179 166.630 C 115.826 165.946,116.610 162.386,114.178 157.557 C 112.108 153.445,111.164 152.813,109.602 154.490 M288.012 154.388 C 284.587 157.813,283.744 163.446,286.314 165.734 C 291.088 169.985,295.822 163.955,292.586 157.745 C 290.354 153.463,289.537 152.863,288.012 154.388 M81.595 174.590 C 75.204 176.640,74.845 178.894,74.766 217.509 L 74.742 229.619 81.724 243.309 C 92.013 263.486,93.732 266.284,97.907 269.653 C 106.613 276.679,125.210 289.489,134.400 294.791 C 143.398 299.982,142.941 298.822,143.200 317.086 C 143.382 329.892,143.465 331.237,144.111 331.883 C 145.473 333.244,192.841 333.101,194.210 331.732 C 195.089 330.854,195.062 306.067,194.176 300.102 C 192.444 288.435,186.433 276.826,177.422 267.744 C 169.539 259.799,164.239 257.038,151.400 254.186 C 139.930 251.638,135.861 248.631,124.787 234.519 C 112.624 219.018,112.568 218.953,110.614 218.007 C 104.224 214.913,97.300 222.122,100.138 228.914 C 101.250 231.574,114.346 247.820,122.780 257.000 C 127.055 261.654,127.814 262.853,127.203 263.994 C 124.635 268.793,113.672 261.151,103.398 247.400 C 90.553 230.208,91.497 232.667,92.223 218.294 C 92.537 212.083,92.973 203.490,93.191 199.200 C 94.021 182.918,93.716 179.694,91.075 176.861 C 88.900 174.528,84.829 173.552,81.595 174.590 M315.997 174.351 C 308.764 176.713,308.315 179.393,310.195 209.000 C 310.531 214.280,310.849 221.390,310.902 224.800 L 311.000 231.000 309.225 233.600 C 293.734 256.294,282.531 267.303,277.049 265.219 C 274.518 264.257,275.087 262.745,279.991 257.400 C 288.637 247.977,301.370 232.339,302.810 229.374 C 306.364 222.057,297.887 214.127,291.225 218.536 C 290.294 219.152,287.129 222.838,283.368 227.684 C 266.388 249.568,264.648 250.945,249.367 254.601 C 235.065 258.023,226.630 263.890,218.341 276.181 C 210.117 288.377,208.403 295.360,208.401 316.671 C 208.400 332.307,208.413 332.402,210.529 332.399 C 211.008 332.398,221.865 332.443,234.657 332.499 C 257.042 332.596,257.945 332.571,258.757 331.838 C 259.581 331.093,259.600 330.786,259.610 318.038 C 259.624 299.609,259.398 300.210,268.289 294.960 C 277.250 289.669,287.210 282.874,300.274 273.138 C 309.358 266.369,309.678 265.909,322.045 241.800 L 328.200 229.800 328.063 218.600 C 327.746 192.621,327.360 181.459,326.728 180.000 C 324.906 175.796,319.803 173.109,315.997 174.351 " stroke="none" fill="#04c3fa" fill-rule="evenodd"></path><path id="path1" d="M186.200 27.424 C 92.853 36.459,24.000 110.289,24.000 201.347 C 24.000 315.031,134.460 399.215,245.531 370.178 C 362.010 339.728,414.914 205.862,349.730 106.517 C 314.526 52.862,249.302 21.316,186.200 27.424 M184.300 66.414 C 185.916 69.566,184.914 72.000,182.000 72.000 C 178.474 72.000,177.751 67.449,180.794 64.406 C 181.920 63.280,183.015 63.907,184.300 66.414 M222.060 64.032 C 226.216 66.256,224.138 73.409,219.818 71.752 C 217.262 70.771,218.298 64.339,221.126 63.632 C 221.196 63.614,221.616 63.795,222.060 64.032 M150.438 90.500 C 152.952 94.377,155.988 100.808,156.248 102.804 C 157.425 111.860,144.987 116.149,140.539 108.220 C 138.620 104.798,139.059 101.625,142.287 95.600 C 146.979 86.841,147.752 86.357,150.438 90.500 M257.070 90.282 C 259.602 94.241,262.284 99.737,262.793 102.012 C 264.717 110.610,253.928 116.090,248.113 109.468 C 245.242 106.197,245.397 102.991,248.758 96.200 C 253.224 87.176,254.501 86.267,257.070 90.282 M202.477 93.300 C 202.824 93.575,204.234 95.600,205.612 97.800 C 206.989 100.000,212.749 108.640,218.411 117.000 C 255.620 171.941,261.091 186.130,253.361 207.645 C 236.641 254.180,173.609 257.766,152.194 213.400 C 140.933 190.071,146.243 173.014,180.209 123.400 C 188.047 111.952,195.995 100.105,198.189 96.600 C 200.642 92.682,201.178 92.269,202.477 93.300 M112.630 105.887 C 115.902 109.159,115.120 114.160,111.337 114.160 C 108.410 114.160,107.285 111.414,108.824 108.023 C 110.183 105.026,111.199 104.456,112.630 105.887 M292.186 105.450 C 295.222 106.615,295.447 112.998,292.488 114.029 C 288.567 115.396,286.735 110.116,289.846 106.418 C 290.925 105.135,291.138 105.048,292.186 105.450 M131.026 124.100 C 135.808 129.765,135.018 136.005,129.520 135.999 C 125.194 135.994,123.625 131.990,126.083 127.225 C 128.419 122.696,129.346 122.110,131.026 124.100 M274.190 123.847 C 278.983 128.640,278.269 135.800,272.999 135.800 C 267.519 135.800,266.711 130.810,271.103 124.100 C 271.794 123.044,273.266 122.924,274.190 123.847 M198.886 139.976 C 197.507 141.354,197.200 142.595,197.200 146.780 C 197.200 150.426,196.638 151.193,193.400 151.968 C 171.252 157.269,170.395 186.524,192.214 192.416 C 196.138 193.475,196.975 193.990,197.984 195.968 C 199.996 199.913,202.981 200.234,206.000 196.830 C 208.009 194.564,208.559 194.437,211.200 195.632 C 217.968 198.696,218.159 206.254,211.554 209.624 C 208.941 210.956,207.854 210.701,206.453 208.424 C 203.985 204.414,200.033 204.415,197.987 208.425 C 196.342 211.651,192.733 210.922,186.000 206.005 C 181.616 202.804,180.349 202.505,177.965 204.112 C 171.061 208.764,178.753 218.889,192.035 222.635 C 196.926 224.014,196.944 224.034,197.234 228.529 C 197.877 238.481,207.200 238.251,207.200 228.284 C 207.200 224.355,207.600 223.897,212.186 222.582 C 234.384 216.216,234.227 188.536,211.959 182.617 C 208.257 181.633,206.400 180.441,206.400 179.047 C 206.400 176.014,200.683 175.518,198.435 178.356 C 193.949 184.020,185.733 174.392,189.973 168.438 C 192.811 164.452,196.232 163.706,197.768 166.738 C 199.923 170.990,205.327 170.952,206.628 166.675 C 207.608 163.457,211.060 164.029,216.775 168.357 C 220.524 171.196,223.208 171.263,225.567 168.576 C 229.754 163.807,222.842 155.565,212.000 152.397 C 207.740 151.152,207.200 150.456,207.200 146.204 C 207.200 142.388,206.851 141.180,205.346 139.785 C 203.717 138.275,200.491 138.371,198.886 139.976 M112.190 154.247 C 115.175 157.232,116.427 162.956,114.576 165.156 C 111.786 168.471,106.400 166.455,106.400 162.095 C 106.400 157.648,110.302 152.359,112.190 154.247 M290.524 154.316 C 291.986 155.931,294.000 160.465,294.000 162.140 C 294.000 167.384,286.994 168.556,284.922 163.659 C 283.385 160.025,288.289 151.846,290.524 154.316 M88.673 175.139 C 93.611 177.671,94.144 180.509,93.191 199.200 C 91.387 234.619,91.170 230.307,95.034 235.907 C 106.936 253.158,113.670 260.469,121.000 264.096 C 124.600 265.877,126.209 265.851,127.203 263.994 C 127.814 262.853,127.055 261.654,122.780 257.000 C 114.346 247.820,101.250 231.574,100.138 228.914 C 97.300 222.122,104.224 214.913,110.614 218.007 C 112.568 218.953,112.624 219.018,124.787 234.519 C 135.861 248.631,139.930 251.638,151.400 254.186 C 164.239 257.038,169.539 259.799,177.422 267.744 C 186.433 276.826,192.444 288.435,194.176 300.102 C 195.062 306.067,195.089 330.854,194.210 331.732 C 192.841 333.101,145.473 333.244,144.111 331.883 C 143.465 331.237,143.382 329.892,143.200 317.086 C 142.941 298.822,143.398 299.982,134.400 294.791 C 125.210 289.489,106.613 276.679,97.907 269.653 C 93.732 266.284,92.013 263.486,81.724 243.309 L 74.742 229.619 74.766 217.509 C 74.809 196.770,75.208 182.814,75.824 180.572 C 77.269 175.308,83.699 172.589,88.673 175.139 M322.322 175.160 C 324.130 176.082,325.849 177.971,326.728 180.000 C 327.360 181.459,327.746 192.621,328.063 218.600 L 328.200 229.800 322.045 241.800 C 309.678 265.909,309.358 266.369,300.274 273.138 C 287.210 282.874,277.250 289.669,268.289 294.960 C 259.398 300.210,259.624 299.609,259.610 318.038 C 259.600 330.786,259.581 331.093,258.757 331.838 C 257.945 332.571,257.042 332.596,234.657 332.499 C 221.865 332.443,211.008 332.398,210.529 332.399 C 208.413 332.402,208.400 332.307,208.401 316.671 C 208.403 295.360,210.117 288.377,218.341 276.181 C 226.630 263.890,235.065 258.023,249.367 254.601 C 264.648 250.945,266.388 249.568,283.368 227.684 C 287.129 222.838,290.294 219.152,291.225 218.536 C 297.887 214.127,306.364 222.057,302.810 229.374 C 301.370 232.339,288.637 247.977,279.991 257.400 C 275.087 262.745,274.518 264.257,277.049 265.219 C 282.531 267.303,293.734 256.294,309.225 233.600 L 311.000 231.000 310.902 224.800 C 310.849 221.390,310.531 214.280,310.195 209.000 C 309.238 193.932,308.985 182.064,309.582 180.255 C 311.267 175.150,317.453 172.676,322.322 175.160 " stroke="none" fill="#040443" fill-rule="evenodd"></path></g></svg>