<svg width="799" height="240" viewBox="0 0 799 240" fill="none" xmlns="http://www.w3.org/2000/svg">
<rect width="240" height="240" rx="120" fill="url(#paint0_radial_17_1303)"/>
<path d="M60 102H84V174H60V102Z" fill="white"/>
<path d="M156 102H180V174H156V102Z" fill="white"/>
<rect x="108" y="90" width="24" height="84" fill="white"/>
<rect x="180" y="66" width="24" height="120" transform="rotate(90 180 66)" fill="white"/>
<path d="M305.232 174.5V99.62H320.928V112.004H321.648C322.416 110.084 323.328 108.26 324.384 106.532C325.536 104.804 326.88 103.316 328.416 102.068C330.048 100.724 331.92 99.716 334.032 99.044C336.24 98.276 338.784 97.892 341.664 97.892C346.752 97.892 351.264 99.14 355.2 101.636C359.136 104.132 362.016 107.972 363.84 113.156H364.272C365.616 108.932 368.208 105.332 372.048 102.356C375.888 99.38 380.832 97.892 386.88 97.892C394.368 97.892 400.176 100.436 404.304 105.524C408.432 110.516 410.496 117.668 410.496 126.98V174.5H394.8V128.852C394.8 123.092 393.696 118.772 391.488 115.892C389.28 112.916 385.776 111.428 380.976 111.428C378.96 111.428 377.04 111.716 375.216 112.292C373.392 112.772 371.76 113.54 370.32 114.596C368.976 115.652 367.872 116.996 367.008 118.628C366.144 120.26 365.712 122.132 365.712 124.244V174.5H350.016V128.852C350.016 117.236 345.456 111.428 336.336 111.428C334.416 111.428 332.496 111.716 330.576 112.292C328.752 112.772 327.12 113.54 325.68 114.596C324.24 115.652 323.088 116.996 322.224 118.628C321.36 120.26 320.928 122.132 320.928 124.244V174.5H305.232ZM462.789 88.388V174.5H446.517V88.388H416.565V73.988H492.741V88.388H462.789ZM508.603 73.988H553.099C561.451 73.988 567.979 76.34 572.683 81.044C577.483 85.748 579.883 92.036 579.883 99.908C579.883 103.652 579.355 106.868 578.299 109.556C577.243 112.148 575.899 114.308 574.267 116.036C572.635 117.668 570.763 118.916 568.651 119.78C566.539 120.548 564.475 121.028 562.459 121.22V122.084C564.475 122.18 566.683 122.66 569.083 123.524C571.579 124.388 573.883 125.78 575.995 127.7C578.107 129.524 579.883 131.924 581.323 134.9C582.763 137.78 583.483 141.332 583.483 145.556C583.483 149.588 582.811 153.38 581.467 156.932C580.219 160.484 578.443 163.556 576.139 166.148C573.835 168.74 571.099 170.804 567.931 172.34C564.763 173.78 561.307 174.5 557.563 174.5H508.603V73.988ZM524.875 160.532H552.811C557.035 160.532 560.347 159.428 562.747 157.22C565.147 155.012 566.347 151.844 566.347 147.716V142.82C566.347 138.692 565.147 135.524 562.747 133.316C560.347 131.108 557.035 130.004 552.811 130.004H524.875V160.532ZM524.875 116.468H550.075C554.107 116.468 557.227 115.46 559.435 113.444C561.643 111.332 562.747 108.356 562.747 104.516V99.908C562.747 96.068 561.643 93.14 559.435 91.124C557.227 89.012 554.107 87.956 550.075 87.956H524.875V116.468ZM599.205 174.5V161.252H612.885V87.236H599.205V73.988H642.981V87.236H629.157V161.252H642.981V174.5H599.205ZM663.431 174.5V73.988H679.703V160.1H720.599V174.5H663.431ZM737.259 174.5V73.988H753.531V160.1H794.427V174.5H737.259Z" fill="white"/>
<defs>
<radialGradient id="paint0_radial_17_1303" cx="0" cy="0" r="1" gradientUnits="userSpaceOnUse" gradientTransform="translate(120) rotate(90) scale(156)">
<stop stop-color="#68E4FF"/>
<stop offset="1" stop-color="#00B7DF"/>
</radialGradient>
</defs>
</svg>
