<svg xmlns="http://www.w3.org/2000/svg" width="500" height="500" viewBox="0 0 500 500" version="1.1">
    <path
        d="M 233.823 42.020 C 206.719 44.059, 176.814 52.642, 153 65.217 C 62.639 112.931, 19.772 218.243, 51.484 314.614 C 76.562 390.826, 142.899 446.092, 221.801 456.508 C 236.228 458.413, 264.373 458.408, 277.804 456.499 C 357.145 445.221, 422.877 390.398, 447.450 315.010 C 472.013 239.652, 452.573 158.521, 396.526 102.474 C 353.746 59.694, 293.998 37.494, 233.823 42.020 M 237 82.662 C 195.143 86.757, 162.235 101.594, 133.199 129.464 C 108.580 153.096, 92.313 182.534, 84.927 216.823 C 81.979 230.507, 81.211 259.525, 83.412 274 C 85.282 286.295, 90.929 307.500, 92.018 306.317 C 92.432 305.868, 103.222 273.100, 115.995 233.500 C 128.769 193.900, 139.803 160.375, 140.515 159 C 143.586 153.070, 150.657 149, 157.885 149 C 164.404 149, 167.676 150.318, 172.293 154.804 C 176.571 158.961, 175.956 157.208, 195.168 220 C 201.311 240.075, 206.598 256.808, 206.918 257.185 C 207.238 257.562, 214.475 236.212, 223 209.741 C 232.001 181.794, 239.606 159.867, 241.137 157.450 C 248.732 145.460, 268.697 146.548, 275.291 159.311 C 279.582 167.618, 280.225 165.067, 251.610 253.353 C 233.310 309.816, 224.301 336.227, 222.568 338.500 C 216.425 346.554, 202.873 348.484, 195.330 342.379 C 193.295 340.732, 190.830 338.285, 189.853 336.942 C 188.876 335.599, 181.483 313.125, 173.424 287 C 165.365 260.875, 158.481 238.961, 158.126 238.303 C 157.770 237.644, 148.965 263.519, 138.559 295.803 C 128.154 328.086, 119.442 354.881, 119.201 355.347 C 118.959 355.813, 124.553 361.905, 131.631 368.884 C 167.420 404.173, 214.283 421.415, 262.847 417.162 C 304.586 413.506, 338.328 397.836, 367.511 368.555 C 374.666 361.375, 382.007 353.363, 383.823 350.750 L 387.124 346 332.012 346 C 283.238 346, 276.533 345.814, 273.700 344.383 C 266.355 340.672, 262 334.002, 262 326.464 C 262 323.126, 271.704 291.834, 297.058 213.422 C 316.339 153.787, 331.800 104.486, 331.415 103.863 C 330.373 102.177, 313.097 94.329, 302.922 90.921 C 282.712 84.149, 256.004 80.804, 237 82.662 M 338.559 217.250 C 323.235 264.688, 310.492 304.063, 310.241 304.750 C 309.881 305.739, 320.023 306, 358.853 306 L 407.920 306 409.967 299.371 C 415.367 281.889, 416.433 273.748, 416.433 250 C 416.433 230.371, 416.144 226.160, 414.166 217 C 409.071 193.405, 398.076 168.599, 384.874 150.921 C 378.334 142.164, 368.315 131, 366.995 131 C 366.679 131, 353.883 169.813, 338.559 217.250"
        stroke="none" fill="#fbfbfb" fill-rule="evenodd" />
    <path
        d="M 218.564 3.625 C 164.142 10.595, 113.766 35.259, 74.912 73.958 C 4.105 144.484, -17.729 247.865, 18.553 340.817 C 38.828 392.761, 77.481 437.292, 127 465.758 C 186.346 499.871, 259.667 507.452, 325.500 486.281 C 389.460 465.711, 442.922 419.278, 472.547 358.565 C 484.204 334.674, 491.465 311.045, 495.672 283.305 C 497.931 268.413, 497.931 231.587, 495.672 216.695 C 489.829 178.170, 476.625 143.455, 456.208 112.935 C 415.256 51.718, 351.718 12.486, 279.030 3.536 C 263.665 1.644, 233.688 1.688, 218.564 3.625 M 233.823 42.020 C 206.719 44.059, 176.814 52.642, 153 65.217 C 62.639 112.931, 19.772 218.243, 51.484 314.614 C 76.562 390.826, 142.899 446.092, 221.801 456.508 C 236.228 458.413, 264.373 458.408, 277.804 456.499 C 357.145 445.221, 422.877 390.398, 447.450 315.010 C 472.013 239.652, 452.573 158.521, 396.526 102.474 C 353.746 59.694, 293.998 37.494, 233.823 42.020 M 237 82.662 C 195.143 86.757, 162.235 101.594, 133.199 129.464 C 108.580 153.096, 92.313 182.534, 84.927 216.823 C 81.979 230.507, 81.211 259.525, 83.412 274 C 85.282 286.295, 90.929 307.500, 92.018 306.317 C 92.432 305.868, 103.222 273.100, 115.995 233.500 C 128.769 193.900, 139.803 160.375, 140.515 159 C 143.586 153.070, 150.657 149, 157.885 149 C 164.404 149, 167.676 150.318, 172.293 154.804 C 176.571 158.961, 175.956 157.208, 195.168 220 C 201.311 240.075, 206.598 256.808, 206.918 257.185 C 207.238 257.562, 214.475 236.212, 223 209.741 C 232.001 181.794, 239.606 159.867, 241.137 157.450 C 248.732 145.460, 268.697 146.548, 275.291 159.311 C 279.582 167.618, 280.225 165.067, 251.610 253.353 C 233.310 309.816, 224.301 336.227, 222.568 338.500 C 216.425 346.554, 202.873 348.484, 195.330 342.379 C 193.295 340.732, 190.830 338.285, 189.853 336.942 C 188.876 335.599, 181.483 313.125, 173.424 287 C 165.365 260.875, 158.481 238.961, 158.126 238.303 C 157.770 237.644, 148.965 263.519, 138.559 295.803 C 128.154 328.086, 119.442 354.881, 119.201 355.347 C 118.959 355.813, 124.553 361.905, 131.631 368.884 C 167.420 404.173, 214.283 421.415, 262.847 417.162 C 304.586 413.506, 338.328 397.836, 367.511 368.555 C 374.666 361.375, 382.007 353.363, 383.823 350.750 L 387.124 346 332.012 346 C 283.238 346, 276.533 345.814, 273.700 344.383 C 266.355 340.672, 262 334.002, 262 326.464 C 262 323.126, 271.704 291.834, 297.058 213.422 C 316.339 153.787, 331.800 104.486, 331.415 103.863 C 330.373 102.177, 313.097 94.329, 302.922 90.921 C 282.712 84.149, 256.004 80.804, 237 82.662 M 338.559 217.250 C 323.235 264.688, 310.492 304.063, 310.241 304.750 C 309.881 305.739, 320.023 306, 358.853 306 L 407.920 306 409.967 299.371 C 415.367 281.889, 416.433 273.748, 416.433 250 C 416.433 230.371, 416.144 226.160, 414.166 217 C 409.071 193.405, 398.076 168.599, 384.874 150.921 C 378.334 142.164, 368.315 131, 366.995 131 C 366.679 131, 353.883 169.813, 338.559 217.250"
        stroke="none" fill="#6140e6" fill-rule="evenodd" />
</svg>