<svg width="100%" height="100%" viewBox="0 0 2363 2363" version="1.1" xmlns="http://www.w3.org/2000/svg"
    xmlns:xlink="http://www.w3.org/1999/xlink" xml:space="preserve" xmlns:serif="http://www.serif.com/"
    style="fill-rule:evenodd;clip-rule:evenodd;stroke-linejoin:round;stroke-miterlimit:2;">
    <g>
        <path id="ring_gradient"
            d="M254.745,1181.1c0,511.271 415.087,926.358 926.357,926.358c511.271,-0 926.358,-415.087 926.358,-926.358c-0,-511.27 -415.087,-926.357 -926.358,-926.357c-511.27,0 -926.357,415.087 -926.357,926.357Z"
            style="fill:url(#_Linear1);" />
        <path id="ring"
            d="M1181.1,406.032c-427.772,0 -775.07,347.298 -775.07,775.07c0,427.773 347.298,775.07 775.07,775.07c427.773,0 775.07,-347.297 775.07,-775.07c0,-427.772 -347.297,-775.07 -775.07,-775.07Zm0,150c344.986,0 625.07,280.085 625.07,625.07c0,344.986 -280.084,625.07 -625.07,625.07c-344.985,0 -625.07,-280.084 -625.07,-625.07c0,-344.985 280.085,-625.07 625.07,-625.07Z"
            style="fill:#fff;" />
        <path id="n"
            d="M683.292,1611.67c-0,0 89.24,-275.832 156.401,-483.42c-0,0 110.533,357.732 110.533,357.732c9.657,31.252 38.453,52.641 71.162,52.858c32.709,0.216 61.785,-20.791 71.854,-51.912l189.046,-584.323c12.741,-39.384 -8.888,-81.703 -48.272,-94.445c-39.384,-12.741 -81.703,8.888 -94.445,48.272c-0,0 -62.827,194.192 -116.043,358.678c0,-0 -110.534,-357.732 -110.534,-357.732c-9.656,-31.252 -38.452,-52.641 -71.161,-52.858c-32.709,-0.216 -61.786,20.791 -71.854,51.912l-229.404,709.065c-12.741,39.384 8.888,81.703 48.272,94.445c39.384,12.742 81.703,-8.888 94.445,-48.272Z"
            style="fill:#fff;" />
        <path id="l"
            d="M1508.22,582.49l-277.675,858.27c-7.385,22.826 -3.404,47.808 10.709,67.208c14.114,19.401 36.658,30.878 60.649,30.878l519.733,0c41.394,0 75,-33.606 75,-75c0,-41.393 -33.606,-75 -75,-75l-416.641,0c0,0 245.942,-760.183 245.942,-760.183c12.742,-39.383 -8.888,-81.703 -48.272,-94.444c-39.384,-12.742 -81.703,8.888 -94.445,48.271Z"
            style="fill:#fff;" />
    </g>
    <defs>
        <linearGradient id="_Linear1" x1="0" y1="0" x2="1" y2="0" gradientUnits="userSpaceOnUse"
            gradientTransform="matrix(1.13446e-13,-1852.71,1852.71,1.13446e-13,1181.1,2107.46)">
            <stop offset="0" style="stop-color:#620edf;stop-opacity:1" />
            <stop offset="1" style="stop-color:#5e72eb;stop-opacity:1" />
        </linearGradient>
    </defs>
</svg>