<svg version="1.1" xmlns="http://www.w3.org/2000/svg" width="213" height="213">
<path d="M0 0 C70.29 0 140.58 0 213 0 C213 70.29 213 140.58 213 213 C142.71 213 72.42 213 0 213 C0 142.71 0 72.42 0 0 Z " fill="#020101" transform="translate(0,0)"/>
<path d="M0 0 C0 0.66 0 1.32 0 2 C0.86882812 2.08378906 1.73765625 2.16757813 2.6328125 2.25390625 C6.52497921 3.1163237 8.698361 4.55717295 11.875 6.9375 C12.84179688 7.64777344 13.80859375 8.35804687 14.8046875 9.08984375 C15.89136719 10.03537109 15.89136719 10.03537109 17 11 C17 11.66 17 12.32 17 13 C17.89332031 13.36158203 17.89332031 13.36158203 18.8046875 13.73046875 C21.43713009 15.25278876 22.48929521 16.76473991 24.125 19.3125 C24.62257813 20.07175781 25.12015625 20.83101562 25.6328125 21.61328125 C30.11992176 29.44649199 30.13999358 37.07649782 30.0625 45.875 C30.05798828 46.84953125 30.05347656 47.8240625 30.04882812 48.828125 C30.03710906 51.21881434 30.02070219 53.6093744 30 56 C30.66 56 31.32 56 32 56 C32.14695312 56.76183594 32.29390625 57.52367187 32.4453125 58.30859375 C34.1759669 66.27557179 36.71130322 72.88007138 42.6875 78.62109375 C44 80 44 80 44 82 C36.43623474 82.11690395 28.87256548 82.20521884 21.30809689 82.25906086 C17.79385442 82.28492955 14.28023908 82.3198973 10.76635742 82.37719727 C-19.14289902 82.85267032 -19.14289902 82.85267032 -31 77 C-31 76.34 -31 75.68 -31 75 C-31.88365234 74.58814453 -31.88365234 74.58814453 -32.78515625 74.16796875 C-38.99349938 70.89408057 -43.28910054 65.84747793 -47 60 C-47 59.34 -47 58.68 -47 58 C-47.66 58 -48.32 58 -49 58 C-50.76989025 51.90057742 -51.33663255 46.39970739 -51.3125 40.0625 C-51.32861328 39.22009766 -51.34472656 38.37769531 -51.36132812 37.50976562 C-51.36986654 26.41837063 -47.55206269 18.71935648 -39.92578125 10.86328125 C-29.77989191 1.28400353 -13.87045448 -4.62348483 0 0 Z " fill="#FDC478" transform="translate(114,112)"/>
<path d="M0 0 C3.09728249 1.34548616 4.85423023 2.73195968 6.9375 5.375 C8.77947884 7.63455591 10.25143944 9.18558626 12.625 10.9375 C15.85565616 13.74306982 17.46471567 17.03742258 19 21 C19 21.66 19 22.32 19 23 C19.66 23 20.32 23 21 23 C21.81690177 25.22763988 22.62861872 27.4569486 23.4375 29.6875 C23.66759766 30.31333984 23.89769531 30.93917969 24.13476562 31.58398438 C28.28223025 43.06464733 28.10180677 55.22975108 25 67 C24.34 67 23.68 67 23 67 C22.67 69.31 22.34 71.62 22 74 C21.34 74 20.68 74 20 74 C19.9175 74.70125 19.835 75.4025 19.75 76.125 C18.81990995 79.6903452 17.23313631 82.09015572 15 85 C14.34 85 13.68 85 13 85 C12.78085938 85.5465625 12.56171875 86.093125 12.3359375 86.65625 C10.56733474 89.75906186 8.16907889 92.03897662 5.625 94.5 C5.09986816 95.01755859 4.57473633 95.53511719 4.03369141 96.06835938 C1.79488036 98.27456961 -0.45562131 100.46871633 -2.70507812 102.6640625 C-4.34914407 104.27193233 -5.98716614 105.88578633 -7.625 107.5 C-8.13337402 107.99177734 -8.64174805 108.48355469 -9.16552734 108.99023438 C-11.68850594 111.47804054 -13.67259139 113.68928675 -15 117 C-15.66 117 -16.32 117 -17 117 C-19.12888539 124.67202093 -20.54593375 132.04601192 -21 140 C-21.99 140 -22.98 140 -24 140 C-27 135.77777778 -27 135.77777778 -27 133 C-27.89589844 132.80148438 -28.79179688 132.60296875 -29.71484375 132.3984375 C-33.79055502 130.66347361 -35.37963455 128.29756335 -37.5625 124.625 C-37.94599609 124.00230225 -38.32949219 123.37960449 -38.72460938 122.73803711 C-47.81099857 107.61135155 -50.41408093 91.29572761 -46.8125 74 C-45.36800923 68.47898959 -43.11598017 63.7663412 -40 59 C-39.34 59 -38.68 59 -38 59 C-37.79673096 58.14116211 -37.59346191 57.28232422 -37.3840332 56.39746094 C-35.63190346 52.09641357 -33.1973657 49.77549518 -29.85546875 46.640625 C-28.60863107 45.42978314 -27.36188935 44.21884247 -26.11523438 43.0078125 C-24.157363 41.13040829 -22.19536772 39.25748597 -20.23022461 37.38769531 C-10.88718589 28.46307198 -3.10709383 20.87567915 -1.75 7.4375 C-1.06393245 1.06393245 -1.06393245 1.06393245 0 0 Z " fill="#FDC67D" transform="translate(72,11)"/>
<path d="M0 0 C3.10397409 1.47733755 5.17797385 3.01650604 7.625 5.4375 C14.01443669 11.09872883 20.78452143 11.88566855 29.0625 12.75 C37.4697479 13.83864255 41.95139128 17.56054401 47.4375 23.75 C51 28.88 51 28.88 51 32 C51.66 32 52.32 32 53 32 C53 43.22 53 54.44 53 66 C45.8534375 66.0928125 45.8534375 66.0928125 38.5625 66.1875 C37.0782251 66.21481201 35.5939502 66.24212402 34.06469727 66.27026367 C24.87579665 66.32784522 16.56281857 65.67211393 9 60 C1.75265956 52.39913076 -0.61430874 45.61068267 -0.390625 35.15625 C-0.38496521 34.14655151 -0.37930542 33.13685303 -0.37347412 32.09655762 C-0.351228 28.89720623 -0.30105313 25.69900825 -0.25 22.5 C-0.22991982 20.32032877 -0.21167172 18.14063984 -0.1953125 15.9609375 C-0.1514021 10.64023684 -0.08460904 5.32020086 0 0 Z " fill="#FCC67D" transform="translate(118,46)"/>
<path d="M0 0 C3 0 3 0 4.68359375 1.609375 C5.26238281 2.31578125 5.84117187 3.0221875 6.4375 3.75 C8.31437301 6.00619893 10.08371194 8.07673595 12.25 10.0625 C16.14589777 14.37581539 17.53922628 19.32275943 17.28515625 25.01171875 C16.61507455 29.68393225 15.24179841 33.03760623 11.5 35.9375 C9 37 9 37 6 37 C6 37.66 6 38.32 6 39 C1.4879296 39.58250089 -2.38680925 39.94908953 -6.41015625 37.58203125 C-9.84567351 34.65778879 -12.2594845 32.58510968 -13 28 C-13.66 28 -14.32 28 -15 28 C-15.91647638 15.59701966 -15.91647638 15.59701966 -11.63671875 10.59375 C-9.09671214 8.12042615 -6.49025382 5.75380673 -3.76953125 3.48046875 C-1.91034896 1.96941068 -1.91034896 1.96941068 0 0 Z " fill="#FBC47A" transform="translate(170,128)"/>
<path d="M0 0 C10.10249289 0.60738914 17.71367182 1.24466679 25 9 C31 15.76923077 31 15.76923077 31 20 C31.66 20 32.32 20 33 20 C33 31.22 33 42.44 33 54 C25.8534375 54.0928125 25.8534375 54.0928125 18.5625 54.1875 C17.0782251 54.21481201 15.5939502 54.24212402 14.06469727 54.27026367 C6.69222132 54.31646273 0.81571068 53.87573175 -6 51 C-6 50.67 -6 50.34 -6 50 C-4.02145742 49.80602524 -2.0421352 49.61998679 -0.0625 49.4375 C1.59072266 49.28087891 1.59072266 49.28087891 3.27734375 49.12109375 C4.62505859 49.06115234 4.62505859 49.06115234 6 49 C6.33 49.33 6.66 49.66 7 50 C12.29434221 50.92943589 17.57482179 51.28218863 22.9375 51.5625 C24.10635742 51.62727539 24.10635742 51.62727539 25.29882812 51.69335938 C27.19907117 51.79828077 29.09951669 51.8995245 31 52 C30.76094902 48.03413657 30.51233199 44.0689923 30.25537109 40.10424805 C30.12758659 38.1030087 30.00707723 36.10130906 29.88671875 34.09960938 C29.43465566 27.19695377 28.7496466 20.69717668 27 14 C26.34 14 25.68 14 25 14 C25 13.34 25 12.68 25 12 C23.68 12.33 22.36 12.66 21 13 C21 11.68 21 10.36 21 9 C20.34 9 19.68 9 19 9 C18.67 8.34 18.34 7.68 18 7 C15.67377689 6.62020847 13.33824592 6.29692012 11 6 C3.6236831 4.74589128 3.6236831 4.74589128 1.265625 1.92578125 C0.84796875 1.29027344 0.4303125 0.65476563 0 0 Z " fill="#EFCB9A" transform="translate(138,58)"/>
<path d="M0 0 C1.32 0.33 2.64 0.66 4 1 C3.43490723 1.55461914 2.86981445 2.10923828 2.28759766 2.68066406 C-0.27184428 5.19851046 -2.82347264 7.72413455 -5.375 10.25 C-6.26445313 11.12269531 -7.15390625 11.99539062 -8.0703125 12.89453125 C-8.92109375 13.73886719 -9.771875 14.58320312 -10.6484375 15.453125 C-11.43395996 16.22817383 -12.21948242 17.00322266 -13.02880859 17.80175781 C-14.83611246 19.81723515 -15.94965361 21.52453574 -17 24 C-17.66 24 -18.32 24 -19 24 C-21.12888539 31.67202093 -22.54593375 39.04601192 -23 47 C-23.99 47 -24.98 47 -26 47 C-29 42.77777778 -29 42.77777778 -29 40 C-29.88945313 39.81695312 -30.77890625 39.63390625 -31.6953125 39.4453125 C-36.11919314 37.51051837 -37.50790623 34.94092638 -39.875 30.875 C-40.2771875 30.21628906 -40.679375 29.55757812 -41.09375 28.87890625 C-42.07799392 27.2619341 -43.0411575 25.63216301 -44 24 C-43.01 24 -42.02 24 -41 24 C-40.67 24.99 -40.34 25.98 -40 27 C-39.34 27 -38.68 27 -38 27 C-38 27.66 -38 28.32 -38 29 C-37.34 29 -36.68 29 -36 29 C-35.67 29.66 -35.34 30.32 -35 31 C-33.11235097 31.68472665 -33.11235097 31.68472665 -30.9375 32.125 C-30.20402344 32.29257813 -29.47054687 32.46015625 -28.71484375 32.6328125 C-27.86599609 32.81457031 -27.86599609 32.81457031 -27 33 C-26.34582006 31.69164013 -25.69963452 30.37924468 -25.0625 29.0625 C-24 27 -24 27 -22 24 C-21.34 24 -20.68 24 -20 24 C-20 23.01 -20 22.02 -20 21 C-18.8125 19.625 -18.8125 19.625 -17 18 C-15.29413425 16.37347684 -13.6222454 14.70993434 -12 13 C-12 12.34 -12 11.68 -12 11 C-10.68 11 -9.36 11 -8 11 C-7.71125 10.21625 -7.4225 9.4325 -7.125 8.625 C-6 6 -6 6 -4 4 C-3.01 4 -2.02 4 -1 4 C-0.67 2.68 -0.34 1.36 0 0 Z " fill="#DAB27D" transform="translate(74,104)"/>
<path d="M0 0 C6.34920501 5.44217572 10.10091271 12.67619191 11 21 C11.10939698 24.62640124 11.0944504 28.24740118 11.0625 31.875 C11.05798828 32.84953125 11.05347656 33.8240625 11.04882812 34.828125 C11.03710906 37.21881434 11.02070219 39.6093744 11 42 C11.66 42 12.32 42 13 42 C13.14695313 42.75023437 13.29390625 43.50046875 13.4453125 44.2734375 C15.09718332 51.8112848 17.65007897 57.63700872 22 64 C20.68 64 19.36 64 18 64 C18 63.34 18 62.68 18 62 C16.02 62.495 16.02 62.495 14 63 C14 63.66 14 64.32 14 65 C12.35 65 10.7 65 9 65 C10.85837734 60.22131541 10.85837734 60.22131541 12.15234375 58.19921875 C13.34936088 55.09359367 12.59351516 53.22756618 11.6875 50.0625 C9.62966188 42.69711561 8.73798998 35.91958235 8.28125 28.27734375 C8.05795802 25.67537193 7.63514599 23.50383999 7 21 C6.93451508 19.41788427 6.91421619 17.83329919 6.9375 16.25 C6.94652344 15.45078125 6.95554688 14.6515625 6.96484375 13.828125 C6.97644531 13.22484375 6.98804688 12.6215625 7 12 C6.34 12 5.68 12 5 12 C1 5.25 1 5.25 1 3 C0.34 2.67 -0.32 2.34 -1 2 C-0.67 1.34 -0.34 0.68 0 0 Z " fill="#E6B980" transform="translate(133,126)"/>
<path d="M0 0 C1.35439668 2.70879335 1.06501451 5.00933268 1 8 C0.505 7.01 0.505 7.01 0 6 C-0.66 6 -1.32 6 -2 6 C-1.34 7.32 -0.68 8.64 0 10 C-0.66 10.66 -1.32 11.32 -2 12 C-2.64767793 14.57061311 -2.64767793 14.57061311 -3 17 C-3.928125 17.020625 -4.85625 17.04125 -5.8125 17.0625 C-9.00696214 17.62844359 -9.00696214 17.62844359 -10.06640625 19.625 C-10.79974771 21.38218533 -11.40775925 23.19037549 -12 25 C-16.875 24.125 -16.875 24.125 -18 23 C-18.45375 23.825 -18.9075 24.65 -19.375 25.5 C-19.91125 26.325 -20.4475 27.15 -21 28 C-21.66 28 -22.32 28 -23 28 C-23.12375 28.639375 -23.2475 29.27875 -23.375 29.9375 C-23.58125 30.618125 -23.7875 31.29875 -24 32 C-24.99 32.495 -24.99 32.495 -26 33 C-26.66 32.67 -27.32 32.34 -28 32 C-28 32.99 -28 33.98 -28 35 C-29.32 34.67 -30.64 34.34 -32 34 C-31.13721436 33.14768799 -30.27442871 32.29537598 -29.38549805 31.41723633 C-26.17677575 28.24479508 -22.97474312 25.06567323 -19.7746582 21.88452148 C-18.39039909 20.51030145 -17.00434779 19.13788418 -15.61645508 17.76733398 C-13.61843194 15.79365079 -11.62700658 13.8135109 -9.63671875 11.83203125 C-9.01786301 11.22349808 -8.39900726 10.6149649 -7.76139832 9.98799133 C-4.63606414 6.86347063 -2.07181154 3.95764945 0 0 Z " fill="#F9D49C" transform="translate(67,31)"/>
<path d="M0 0 C0.66 0 1.32 0 2 0 C1.835 0.804375 1.67 1.60875 1.5 2.4375 C0.96808161 4.7284443 0.96808161 4.7284443 1 6 C1 6.99 1 7.98 1 9 C0.34 9 -0.32 9 -1 9 C-1.144375 9.639375 -1.28875 10.27875 -1.4375 10.9375 C-2 13 -2 13 -3 14 C-3.20699563 15.49496842 -3.36679259 16.9966592 -3.5 18.5 C-3.88888889 22.88888889 -3.88888889 22.88888889 -5 24 C-5.12685806 26.63746756 -5.18520617 29.23709166 -5.1875 31.875 C-5.19974609 32.60847656 -5.21199219 33.34195313 -5.22460938 34.09765625 C-5.23509566 37.93563514 -5.17768617 39.73347074 -3 43 C-2.34 43 -1.68 43 -1 43 C-0.94608007 44.79133978 -0.90724429 46.58313899 -0.875 48.375 C-0.85179687 49.37273437 -0.82859375 50.37046875 -0.8046875 51.3984375 C-1 54 -1 54 -3 56 C-3.65601744 54.48353179 -4.2992664 52.96153825 -4.9375 51.4375 C-5.29714844 50.59058594 -5.65679688 49.74367187 -6.02734375 48.87109375 C-10.34739201 36.11914406 -9.37787716 18.34207716 -3.6875 6.19921875 C-2.52596716 4.07744144 -1.32315379 2.02395462 0 0 Z " fill="#E3C093" transform="translate(32,70)"/>
<path d="M0 0 C3.09728249 1.34548616 4.85423023 2.73195968 6.9375 5.375 C8.79841007 7.65884418 10.29331265 9.21827918 12.6875 11 C15.79243966 13.68535322 16.60054899 16.16992355 18 20 C16 21 16 21 12.4375 20.0625 C10.5546875 19.234375 10.5546875 19.234375 9 18 C8.04260357 15.2048426 8.04927553 13.00580749 8 10 C7.34 10 6.68 10 6 10 C6 9.34 6 8.68 6 8 C2.32966073 11.27708863 0.30718811 14.71522208 -2 19 C-2.66 19 -3.32 19 -4 19 C-3.52570278 16.01998162 -3.04581304 13.04105713 -2.5625 10.0625 C-2.42779297 9.21236328 -2.29308594 8.36222656 -2.15429688 7.48632812 C-2.02216797 6.67744141 -1.89003906 5.86855469 -1.75390625 5.03515625 C-1.63345947 4.2862915 -1.5130127 3.53742676 -1.38891602 2.76586914 C-1 1 -1 1 0 0 Z " fill="#E3C69F" transform="translate(72,11)"/>
<path d="M0 0 C0.33 0 0.66 0 1 0 C1 11.22 1 22.44 1 34 C-6.1465625 34.0928125 -6.1465625 34.0928125 -13.4375 34.1875 C-14.9217749 34.21481201 -16.4060498 34.24212402 -17.93530273 34.27026367 C-25.30777868 34.31646273 -31.18428932 33.87573175 -38 31 C-38 30.67 -38 30.34 -38 30 C-36.02145742 29.80602524 -34.0421352 29.61998679 -32.0625 29.4375 C-30.96035156 29.33308594 -29.85820312 29.22867188 -28.72265625 29.12109375 C-27.82417969 29.08113281 -26.92570313 29.04117188 -26 29 C-25.67 29.33 -25.34 29.66 -25 30 C-19.70584879 30.92940236 -14.42466822 31.28193668 -9.0625 31.5625 C-6.401875 31.706875 -3.74125 31.85125 -1 32 C-0.67 21.44 -0.34 10.88 0 0 Z " fill="#AB9066" transform="translate(170,78)"/>
<path d="M0 0 C0.99 0.66 1.98 1.32 3 2 C3 2.66 3 3.32 3 4 C-4.7884635 4.04629055 -12.57689492 4.08185242 -20.36546135 4.10362434 C-23.98180873 4.11407249 -27.59806216 4.12825032 -31.21435547 4.15087891 C-34.70268811 4.1725708 -38.19093024 4.18456085 -41.6793251 4.18975449 C-43.66139971 4.19526169 -45.64343779 4.21088034 -47.62545776 4.22659302 C-48.82655182 4.22674408 -50.02764587 4.22689514 -51.26513672 4.22705078 C-52.32658905 4.231492 -53.38804138 4.23593323 -54.48165894 4.24050903 C-57 4 -57 4 -59 2 C-39.53 2 -20.06 2 0 2 C0 1.34 0 0.68 0 0 Z " fill="#A4835C" transform="translate(155,190)"/>
<path d="M0 0 C0 3.22188585 -0.53252107 4.22697084 -2 7 C-2.72387082 8.74363045 -3.43181952 10.49394279 -4.125 12.25 C-4.47820312 13.14203125 -4.83140625 14.0340625 -5.1953125 14.953125 C-5.46085937 15.62859375 -5.72640625 16.3040625 -6 17 C-6.33 15.68 -6.66 14.36 -7 13 C-7.33 13 -7.66 13 -8 13 C-10.40906156 18.6465356 -10.26372326 23.91586277 -10.1875 29.9375 C-10.18685547 30.90107422 -10.18621094 31.86464844 -10.18554688 32.85742188 C-10.1538761 38.00568196 -9.88199662 42.92675544 -9 48 C-8.34 48 -7.68 48 -7 48 C-7.33 49.32 -7.66 50.64 -8 52 C-8.495 50.515 -8.495 50.515 -9 49 C-9.66 49 -10.32 49 -11 49 C-12.76989025 42.90057742 -13.33663255 37.39970739 -13.3125 31.0625 C-13.32861328 30.22009766 -13.34472656 29.37769531 -13.36132812 28.50976562 C-13.36718412 20.90282348 -11.94536056 13.7360302 -7.0625 7.6875 C-6.54558594 7.04167969 -6.02867188 6.39585938 -5.49609375 5.73046875 C-3.75501003 3.7166304 -1.9566008 1.80609304 0 0 Z " fill="#BBA27C" transform="translate(76,121)"/>
<path d="M0 0 C-0.25 2.375 -0.25 2.375 -1 5 C-2.3287985 5.67566025 -3.6628133 6.34109641 -5 7 C-6.73442288 8.70377665 -6.73442288 8.70377665 -8.25 10.625 C-8.77078125 11.25664063 -9.2915625 11.88828125 -9.828125 12.5390625 C-10.21484375 13.02117187 -10.6015625 13.50328125 -11 14 C-11.66 13.67 -12.32 13.34 -13 13 C-11.35 11.35 -9.7 9.7 -8 8 C-10.2806707 6.78702351 -10.2806707 6.78702351 -13 6 C-14.34136367 6.65035814 -15.67532254 7.3162955 -17 8 C-19.25 7.125 -19.25 7.125 -21 6 C-18.12709804 1.69064706 -14.94721426 1.69019571 -10.06640625 0.5625 C-6.57468611 -0.07801936 -3.53015952 -0.24069269 0 0 Z " fill="#F7DAAC" transform="translate(107,112)"/>
<path d="M0 0 C2 1 2 1 3 3 C2.34 3.61875 1.68 4.2375 1 4.875 C-1.2284549 6.75637427 -1.2284549 6.75637427 -1 9 C-2.98 9.66 -4.96 10.32 -7 11 C-5.75023244 7.34683329 -5.32901247 6.21934164 -2 4 C-0.80767387 1.94996045 -0.80767387 1.94996045 0 0 Z M-10 10 C-9.01 10.33 -8.02 10.66 -7 11 C-8.625 16.75 -8.625 16.75 -12 19 C-12.19535478 21.01866606 -12.38867354 23.03762783 -12.55859375 25.05859375 C-13 27 -13 27 -15.4375 28.9375 C-19.17332493 31.94438348 -19.34265506 35.40839652 -20 40 C-20.33 40 -20.66 40 -21 40 C-21.32641542 34.45093785 -21.47528272 30.6337103 -18 26 C-18 25.67 -18 25.34 -18 25 C-17.71125 24.484375 -17.4225 23.96875 -17.125 23.4375 C-15.56162728 20.05019243 -14.84757534 16.63246575 -14 13 C-12.68 13 -11.36 13 -10 13 C-10 12.01 -10 11.02 -10 10 Z " fill="#F8D199" transform="translate(49,53)"/>
<path d="M0 0 C0.99 0 1.98 0 3 0 C4.42857143 8.57142857 4.42857143 8.57142857 2 12 C1.34 11.01 0.68 10.02 0 9 C-0.763125 9.78375 -1.52625 10.5675 -2.3125 11.375 C-7.04761905 16 -7.04761905 16 -12 16 C-10.85700353 8.9991466 -7.42254549 6.28155155 -2 2 C-1.34 1.34 -0.68 0.68 0 0 Z " fill="#F9D198" transform="translate(170,128)"/>
<path d="M0 0 C1.98 0.99 1.98 0.99 4 2 C4 2.66 4 3.32 4 4 C4.66 4 5.32 4 6 4 C6 4.66 6 5.32 6 6 C6.66 6 7.32 6 8 6 C8.33 6.66 8.66 7.32 9 8 C10.88764903 8.68472665 10.88764903 8.68472665 13.0625 9.125 C14.16271484 9.37636719 14.16271484 9.37636719 15.28515625 9.6328125 C15.85105469 9.75398437 16.41695312 9.87515625 17 10 C17.33 9.34 17.66 8.68 18 8 C18 8.99 18 9.98 18 11 C18.66 11 19.32 11 20 11 C20 12.98 20 14.96 20 17 C12.30327706 17.29602781 12.30327706 17.29602781 9 15 C7.29230963 12.6674759 5.75315864 10.39298554 4.25 7.9375 C3.83878906 7.28716797 3.42757812 6.63683594 3.00390625 5.96679688 C0 1.17152461 0 1.17152461 0 0 Z " fill="#EFC47F" transform="translate(30,127)"/>
<path d="M0 0 C0.66 0 1.32 0 2 0 C2.81690177 2.22763988 3.62861872 4.4569486 4.4375 6.6875 C4.66759766 7.31333984 4.89769531 7.93917969 5.13476562 8.58398438 C9.28223025 20.06464733 9.10180677 32.22975108 6 44 C5.67 44 5.34 44 5 44 C4.97494385 43.18845459 4.9498877 42.37690918 4.92407227 41.54077148 C4.80754183 37.83954284 4.685075 34.13853319 4.5625 30.4375 C4.52318359 29.16068359 4.48386719 27.88386719 4.44335938 26.56835938 C4.40146484 25.32763672 4.35957031 24.08691406 4.31640625 22.80859375 C4.27974854 21.67220459 4.24309082 20.53581543 4.20532227 19.36499023 C3.99195699 15.86818455 3.54045723 12.46008025 3 9 C2.34 9 1.68 9 1 9 C0.67 6.03 0.34 3.06 0 0 Z " fill="#B19164" transform="translate(91,34)"/>
<path d="M0 0 C0.33 0 0.66 0 1 0 C0.98952637 0.64437012 0.97905273 1.28874023 0.96826172 1.95263672 C0.92619326 4.92671669 0.90051454 7.90073372 0.875 10.875 C0.85824219 11.88820313 0.84148438 12.90140625 0.82421875 13.9453125 C0.75780684 24.30557114 2.30334595 32.37938276 7.171875 41.5546875 C8 44 8 44 7.140625 46.3203125 C6.76421875 46.87460938 6.3878125 47.42890625 6 48 C4.68 47.01 3.36 46.02 2 45 C2.309375 43.824375 2.309375 43.824375 2.625 42.625 C2.810625 41.325625 2.810625 41.325625 3 40 C2.34 39.34 1.68 38.68 1 38 C1 37.01 1 36.02 1 35 C0.34 35 -0.32 35 -1 35 C-0.96519531 34.09507813 -0.96519531 34.09507813 -0.9296875 33.171875 C-0.91164063 32.37265625 -0.89359375 31.5734375 -0.875 30.75 C-0.85179687 29.96109375 -0.82859375 29.1721875 -0.8046875 28.359375 C-1.01926418 25.76728871 -1.83458295 24.29412805 -3 22 C-3 20.68 -3 19.36 -3 18 C-2.34 18 -1.68 18 -1 18 C-1.01160156 17.11957031 -1.02320312 16.23914063 -1.03515625 15.33203125 C-1.04417969 14.17058594 -1.05320312 13.00914063 -1.0625 11.8125 C-1.07410156 10.66394531 -1.08570312 9.51539062 -1.09765625 8.33203125 C-1.01192832 5.40699414 -0.67849023 2.83683709 0 0 Z " fill="#392719" transform="translate(24,86)"/>
<path d="M0 0 C0.99 0.495 0.99 0.495 2 1 C2 11.89 2 22.78 2 34 C2.33 34 2.66 34 3 34 C3.03738281 34.98742187 3.07476562 35.97484375 3.11328125 36.9921875 C3.17902344 38.27351563 3.24476562 39.55484375 3.3125 40.875 C3.37050781 42.15117188 3.42851563 43.42734375 3.48828125 44.7421875 C3.65714844 45.81726563 3.82601562 46.89234375 4 48 C4.99 48.66 5.98 49.32 7 50 C7.70052461 52.663063 7.77744818 55.24035737 8 58 C3.51464994 54.15541424 0.47727367 49.40890675 -0.34875488 43.5090332 C-0.46020725 40.71613756 -0.45041531 37.95070313 -0.390625 35.15625 C-0.38496521 34.14655151 -0.37930542 33.13685303 -0.37347412 32.09655762 C-0.351228 28.89720623 -0.30105313 25.69900825 -0.25 22.5 C-0.22991982 20.32032877 -0.21167172 18.14063984 -0.1953125 15.9609375 C-0.1514021 10.64023684 -0.08460904 5.32020086 0 0 Z " fill="#BB9B6A" transform="translate(118,46)"/>
<path d="M0 0 C0.66 0.33 1.32 0.66 2 1 C1.8125 3.3125 1.8125 3.3125 1 6 C-1.89548041 8.20970874 -3.33157745 9 -7 9 C-7 9.66 -7 10.32 -7 11 C-15.4690583 11.92017937 -15.4690583 11.92017937 -19.22265625 9.6640625 C-20.91890579 8.18027954 -22.49407433 6.67546697 -24 5 C-20.25 3.875 -20.25 3.875 -18 5 C-18 5.66 -18 6.32 -18 7 C-13.38 7 -8.76 7 -4 7 C-3.67 5.68 -3.34 4.36 -3 3 C-2.67 3.66 -2.34 4.32 -2 5 C-1.34 5 -0.68 5 0 5 C-0.185625 4.360625 -0.37125 3.72125 -0.5625 3.0625 C-0.706875 2.381875 -0.85125 1.70125 -1 1 C-0.67 0.67 -0.34 0.34 0 0 Z " fill="#E3B881" transform="translate(183,156)"/>
<path d="M0 0 C0.33 0 0.66 0 1 0 C1.14695313 0.75023437 1.29390625 1.50046875 1.4453125 2.2734375 C3.09718332 9.8112848 5.65007897 15.63700872 10 22 C8.68 22 7.36 22 6 22 C6 21.34 6 20.68 6 20 C4.68 20.33 3.36 20.66 2 21 C2 21.66 2 22.32 2 23 C0.35 23 -1.3 23 -3 23 C-2.03798279 20.52624146 -1.07997011 18.14731335 0.1875 15.8125 C0.455625 15.214375 0.72375 14.61625 1 14 C0.67 13.34 0.34 12.68 0 12 C-0.07065617 9.95944995 -0.08421976 7.91665743 -0.0625 5.875 C-0.05347656 4.77929688 -0.04445312 3.68359375 -0.03515625 2.5546875 C-0.02355469 1.71164063 -0.01195312 0.86859375 0 0 Z " fill="#E8B875" transform="translate(145,168)"/>
<path d="M0 0 C0.5703125 1.87109375 0.5703125 1.87109375 1 4 C-0.48344723 6.71965325 -1.80800641 7.88960368 -4.5 9.4375 C-7.16265342 10.82877957 -7.16265342 10.82877957 -8.4375 13.5 C-10.44013051 16.70420882 -12.65835624 17.36472752 -16 19 C-17.19232613 21.05003955 -17.19232613 21.05003955 -18 23 C-18.99 23.33 -19.98 23.66 -21 24 C-19.62448071 19.82500836 -17.77422864 17.41874407 -14.6484375 14.35546875 C-13.37226562 13.09379883 -13.37226562 13.09379883 -12.0703125 11.80664062 C-11.18085937 10.94232422 -10.29140625 10.07800781 -9.375 9.1875 C-8.4778125 8.30384766 -7.580625 7.42019531 -6.65625 6.50976562 C-4.44411002 4.33292575 -2.22526927 2.16340336 0 0 Z " fill="#302110" transform="translate(78,104)"/>
<path d="M0 0 C0.66 0.66 1.32 1.32 2 2 C-4.93 8.93 -11.86 15.86 -19 23 C-19.33 22.01 -19.66 21.02 -20 20 C-19.34 20 -18.68 20 -18 20 C-17.87625 19.38125 -17.7525 18.7625 -17.625 18.125 C-16.50840303 14.3285703 -12.76016744 11.76016744 -10 9 C-9.484375 8.4225 -8.96875 7.845 -8.4375 7.25 C-6.69524203 5.73499307 -5.25120518 5.38813882 -3 5 C-2.87625 4.360625 -2.7525 3.72125 -2.625 3.0625 C-2.315625 2.0415625 -2.315625 2.0415625 -2 1 C-1.34 0.67 -0.68 0.34 0 0 Z " fill="#190D05" transform="translate(62,35)"/>
<path d="M0 0 C0.99 0.33 1.98 0.66 3 1 C3 1.99 3 2.98 3 4 C3.99 4 4.98 4 6 4 C6 4.99 6 5.98 6 7 C7.98 7 9.96 7 12 7 C11.67 8.32 11.34 9.64 11 11 C9.68 11 8.36 11 7 11 C7 10.34 7 9.68 7 9 C6.01 9.33 5.02 9.66 4 10 C4.33 10.66 4.66 11.32 5 12 C2.32423308 10.99382318 1.2214892 10.45785454 -0.046875 7.8359375 C-0.27890625 7.02382812 -0.5109375 6.21171875 -0.75 5.375 C-0.99234375 4.55773437 -1.2346875 3.74046875 -1.484375 2.8984375 C-1.65453125 2.27195312 -1.8246875 1.64546875 -2 1 C-1.34 0.67 -0.68 0.34 0 0 Z " fill="#F3BF76" transform="translate(126,96)"/>
<path d="M0 0 C0.33 0 0.66 0 1 0 C1 1.65 1 3.3 1 5 C1.99 4.67 2.98 4.34 4 4 C5 6 5 6 4.4375 7.8125 C3.85450626 10.72746869 4.75461367 12.3627113 6 15 C6.66 15 7.32 15 8 15 C8 16.98 8 18.96 8 21 C7.34 20.67 6.68 20.34 6 20 C6 19.34 6 18.68 6 18 C4.68 17.67 3.36 17.34 2 17 C2 15.02 2 13.04 2 11 C1.34 11 0.68 11 0 11 C-0.38909985 9.54536519 -0.76088029 8.08608793 -1.125 6.625 C-1.33382812 5.81289062 -1.54265625 5.00078125 -1.7578125 4.1640625 C-1.83773437 3.44992188 -1.91765625 2.73578125 -2 2 C-1.34 1.34 -0.68 0.68 0 0 Z " fill="#F4C889" transform="translate(67,158)"/>
<path d="M0 0 C0.33 0.66 0.66 1.32 1 2 C2.98 1.67 4.96 1.34 7 1 C5.87548273 3.9719385 4.77706209 6.33440687 3 9 C2.34 9 1.68 9 1 9 C0.71125 9.639375 0.4225 10.27875 0.125 10.9375 C-1 13 -1 13 -3 14 C-3 13.34 -3 12.68 -3 12 C-3.66 11.67 -4.32 11.34 -5 11 C-4.731875 10.484375 -4.46375 9.96875 -4.1875 9.4375 C-2.67650593 6.33598585 -1.34427274 3.17737194 0 0 Z " fill="#ECBC77" transform="translate(84,87)"/>
<path d="M0 0 C0 0.66 0 1.32 0 2 C0.928125 2.103125 1.85625 2.20625 2.8125 2.3125 C6.03254358 3.0070192 7.02579865 3.47740939 9 6 C4.92956503 6.18501977 2.55947131 5.89096914 -1 4 C-2.99110401 3.61709538 -4.99100513 3.27395385 -7 3 C-7 2.01 -7 1.02 -7 0 C-9.04174058 0.31201674 -11.08338913 0.62463569 -13.125 0.9375 C-14.26195313 1.11152344 -15.39890625 1.28554687 -16.5703125 1.46484375 C-19.71732669 1.95589266 -22.85930783 2.47018719 -26 3 C-19.93790203 -2.57713013 -7.46482951 -2.4882765 0 0 Z " fill="#A88F6D" transform="translate(114,112)"/>
<path d="M0 0 C3.23475448 1.61737724 4.70572021 2.47629223 7 5 C6 8 6 8 4 9 C4 8.34 4 7.68 4 7 C3.01 7 2.02 7 1 7 C1 16.9 1 26.8 1 37 C0.67 37 0.34 37 0 37 C0 24.79 0 12.58 0 0 Z " fill="#EFC891" transform="translate(119,47)"/>
<path d="M0 0 C2.73922932 0 3.14336348 0.04778783 6 1 C6 1.66 6 2.32 6 3 C6.66 3 7.32 3 8 3 C8 3.99 8 4.98 8 6 C8.928125 6.20625 9.85625 6.4125 10.8125 6.625 C14 8 14 8 15.875 11.125 C16.24625 12.07375 16.6175 13.0225 17 14 C15.35 13.67 13.7 13.34 12 13 C12 12.34 12 11.68 12 11 C11.41605469 10.73058594 10.83210938 10.46117187 10.23046875 10.18359375 C7.99415374 8.99689769 6.23570747 7.70202394 4.3125 6.0625 C3.71050781 5.55847656 3.10851562 5.05445313 2.48828125 4.53515625 C1 3 1 3 0 0 Z " fill="#D3AC74" transform="translate(71,176)"/>
<path d="M0 0 C0 3.38023517 -0.87455622 5.83468937 -2 9 C-2.99 8.67 -3.98 8.34 -5 8 C-5.45375 8.825 -5.9075 9.65 -6.375 10.5 C-6.91125 11.325 -7.4475 12.15 -8 13 C-8.66 13 -9.32 13 -10 13 C-10.12375 13.639375 -10.2475 14.27875 -10.375 14.9375 C-10.58125 15.618125 -10.7875 16.29875 -11 17 C-11.66 17.33 -12.32 17.66 -13 18 C-13.66 17.67 -14.32 17.34 -15 17 C-15 17.99 -15 18.98 -15 20 C-16.32 19.67 -17.64 19.34 -19 19 C-12.73 12.73 -6.46 6.46 0 0 Z " fill="#CCAE8A" transform="translate(54,46)"/>
<path d="M0 0 C0.33 0 0.66 0 1 0 C1.3690205 14.78132118 1.3690205 14.78132118 -1 21 C-1.66 21 -2.32 21 -3 21 C-3.33 21.99 -3.66 22.98 -4 24 C-5.25664978 21.09399739 -6 19.20395416 -6 16 C-5.01 15.67 -4.02 15.34 -3 15 C-2.855625 14.195625 -2.71125 13.39125 -2.5625 12.5625 C-2 10 -2 10 -1 9 C-0.76807135 7.48530552 -0.58784762 5.96245438 -0.4375 4.4375 C-0.35371094 3.61121094 -0.26992187 2.78492187 -0.18359375 1.93359375 C-0.12300781 1.29550781 -0.06242187 0.65742187 0 0 Z " fill="#EDC081" transform="translate(95,64)"/>
<path d="M0 0 C0.66 0 1.32 0 2 0 C6.0608655 6.03328589 7.47638314 11.27652185 7.4375 18.4375 C7.43492188 19.13552734 7.43234375 19.83355469 7.4296875 20.55273438 C7.32297717 24.20578454 7.07228957 25.89156564 5 29 C4.94392578 27.69289063 4.94392578 27.69289063 4.88671875 26.359375 C4.37908002 17.16215574 2.91217609 8.73652827 0 0 Z " fill="#1B0B04" transform="translate(94,38)"/>
<path d="M0 0 C3.76933082 1.25644361 4.73494205 2.78507904 7 6 C8.25 8.8125 8.25 8.8125 9 11 C7 12 7 12 3.4375 11 C0 9 0 9 -1 5.4375 C-1 2 -1 2 0 0 Z " fill="#E8B97A" transform="translate(81,20)"/>
<path d="M0 0 C0.33 0.66 0.66 1.32 1 2 C0.67 2.66 0.34 3.32 0 4 C0.66 4 1.32 4 2 4 C1.43393721 8.69023454 0.81462495 13.34500026 0 18 C-0.33 17.34 -0.66 16.68 -1 16 C-1.66 16 -2.32 16 -3 16 C-3.08133791 14.08404032 -3.13934367 12.16708068 -3.1875 10.25 C-3.22230469 9.18265625 -3.25710937 8.1153125 -3.29296875 7.015625 C-2.97082786 3.69972145 -2.22851086 2.40983327 0 0 Z " fill="#F3C78F" transform="translate(158,140)"/>
<path d="M0 0 C7.42857143 -0.28571429 7.42857143 -0.28571429 11 2 C11 1.34 11 0.68 11 0 C11.99 0 12.98 0 14 0 C14 0.66 14 1.32 14 2 C14.66 2 15.32 2 16 2 C16 2.66 16 3.32 16 4 C10.39 4 4.78 4 -1 4 C-0.67 2.68 -0.34 1.36 0 0 Z " fill="#F6C272" transform="translate(153,106)"/>
<path d="M0 0 C4.76698303 4.08598546 8.03149846 9.00075722 10 15 C9.6328125 17.8125 9.6328125 17.8125 9 20 C6.8480563 16.77208445 6.79913557 15.71599191 7 12 C6.34 12 5.68 12 5 12 C1 5.25 1 5.25 1 3 C0.34 2.67 -0.32 2.34 -1 2 C-0.67 1.34 -0.34 0.68 0 0 Z " fill="#CAA774" transform="translate(133,126)"/>
<path d="M0 0 C0.66 0 1.32 0 2 0 C1.835 0.804375 1.67 1.60875 1.5 2.4375 C0.96808161 4.7284443 0.96808161 4.7284443 1 6 C1 6.99 1 7.98 1 9 C0.34 9 -0.32 9 -1 9 C-1.33 10.32 -1.66 11.64 -2 13 C-2.99 13 -3.98 13 -5 13 C-5 14.65 -5 16.3 -5 18 C-5.66 18 -6.32 18 -7 18 C-5.79662881 11.10796502 -3.67864914 5.93919307 0 0 Z " fill="#C9AC83" transform="translate(32,70)"/>
<path d="M0 0 C0.33 0 0.66 0 1 0 C1.03738281 1.09957031 1.07476562 2.19914063 1.11328125 3.33203125 C1.55668514 15.93890792 1.55668514 15.93890792 5 28 C5.66 28.33 6.32 28.66 7 29 C6.01 30.32 5.02 31.64 4 33 C2.40861915 28.82262526 1.78721942 25.46839215 2 21 C1.34 21 0.68 21 0 21 C0 14.07 0 7.14 0 0 Z " fill="#3D2A1B" transform="translate(144,147)"/>
<path d="M0 0 C2.60662244 0.25496307 5.20905522 0.52820293 7.8125 0.8125 C8.55048828 0.88275391 9.28847656 0.95300781 10.04882812 1.02539062 C15.54974762 1.64766659 15.54974762 1.64766659 18.01171875 3.57421875 C18.50091797 4.27998047 18.50091797 4.27998047 19 5 C16.77252674 5.13563775 14.54265677 5.23227853 12.3125 5.3125 C11.07113281 5.37050781 9.82976562 5.42851563 8.55078125 5.48828125 C4.14441915 4.88234587 2.77478705 3.36900531 0 0 Z " fill="#C7AB8A" transform="translate(138,58)"/>
<path d="M0 0 C1.58624235 0.42683239 3.1689098 0.86696158 4.75 1.3125 C6.07257813 1.67794922 6.07257813 1.67794922 7.421875 2.05078125 C10.05772505 3.02125331 11.85407326 4.21005644 14 6 C11.22899606 7.38550197 9.0665294 7.1877467 6 7 C5.01 6.34 4.02 5.68 3 5 C2.01 5.33 1.02 5.66 0 6 C0 4.02 0 2.04 0 0 Z " fill="#F4CD9F" transform="translate(128,55)"/>
<path d="M0 0 C2.68863169 2.61181364 5.24322221 5.22922153 7.625 8.125 C9.35087132 10.21421265 11.03907374 12.14228039 13 14 C8.37830422 12.67951549 4.6270657 11.20531388 1 8 C0.1892132 5.2337862 0.09728501 2.91855038 0 0 Z " fill="#29160D" transform="translate(67,172)"/>
<path d="M0 0 C0.66 1.32 1.32 2.64 2 4 C1.38125 4.9075 0.7625 5.815 0.125 6.75 C-1.44389611 9.14948817 -2.80443821 11.40961612 -4 14 C-4.66 13.67 -5.32 13.34 -6 13 C-6.35281338 8.8029908 -5.64185432 6.93477927 -3 3.6875 C-2.443125 2.99011719 -1.88625 2.29273438 -1.3125 1.57421875 C-0.6628125 0.79498047 -0.6628125 0.79498047 0 0 Z " fill="#E9C999" transform="translate(58,42)"/>
<path d="M0 0 C1.03115279 3.26913624 0.9638984 5.86041348 0.5625 9.25 C0.46066406 10.14203125 0.35882813 11.0340625 0.25390625 11.953125 C0.17011719 12.62859375 0.08632812 13.3040625 0 14 C-1.65 14 -3.3 14 -5 14 C-5.33 13.01 -5.66 12.02 -6 11 C-5.34 10.67 -4.68 10.34 -4 10 C-3.34227572 6.97065509 -3.34227572 6.97065509 -3 4 C-2.34 4 -1.68 4 -1 4 C-0.67 2.68 -0.34 1.36 0 0 Z " fill="#F9D5A8" transform="translate(71,26)"/>
<path d="M0 0 C0.66 0.99 1.32 1.98 2 3 C2.66 3 3.32 3 4 3 C4.05391993 4.79133978 4.09275571 6.58313899 4.125 8.375 C4.14820313 9.37273437 4.17140625 10.37046875 4.1953125 11.3984375 C4 14 4 14 2 16 C0.68 12.37 -0.64 8.74 -2 5 C-1.34 5 -0.68 5 0 5 C0 3.35 0 1.7 0 0 Z " fill="#E7BC83" transform="translate(27,110)"/>
<path d="M0 0 C3.33717549 1.3809002 5.22301036 2.8201238 7 6 C6.6875 8.25 6.6875 8.25 6 10 C4.35 10 2.7 10 1 10 C0.22157062 6.59437148 -0.09978121 3.49234244 0 0 Z " fill="#0B0406" transform="translate(41,142)"/>
<path d="M0 0 C0.8971875 0.309375 0.8971875 0.309375 1.8125 0.625 C1.4825 1.285 1.1525 1.945 0.8125 2.625 C1.4725 3.285 2.1325 3.945 2.8125 4.625 C0.1725 5.615 -2.4675 6.605 -5.1875 7.625 C-5.1875 6.635 -5.1875 5.645 -5.1875 4.625 C-6.5075 4.955 -7.8275 5.285 -9.1875 5.625 C-3.21691176 -0.55147059 -3.21691176 -0.55147059 0 0 Z " fill="#CBB490" transform="translate(86.1875,115.375)"/>
<path d="M0 0 C0 0.66 0 1.32 0 2 C1.32 2 2.64 2 4 2 C4 2.66 4 3.32 4 4 C-4.91 4 -13.82 4 -23 4 C-23 3.67 -23 3.34 -23 3 C-16.73 3 -10.46 3 -4 3 C-4 2.34 -4 1.68 -4 1 C-2 0 -2 0 0 0 Z " fill="#F2C27E" transform="translate(151,188)"/>
<path d="M0 0 C0 0.66 0 1.32 0 2 C-0.8971875 2.309375 -0.8971875 2.309375 -1.8125 2.625 C-4.80115041 4.50358026 -5.5278368 6.85492408 -7 10 C-7.99 10.495 -7.99 10.495 -9 11 C-9.66 10.67 -10.32 10.34 -11 10 C-11 10.66 -11 11.32 -11 12 C-11.99 11.67 -12.98 11.34 -14 11 C-12.83528482 9.83528482 -11.66968898 8.67143879 -10.5 7.51171875 C-9.46350877 6.46712993 -8.44353994 5.40597888 -7.4375 4.33203125 C-3.32155582 0 -3.32155582 0 0 0 Z " fill="#C8AE8E" transform="translate(173,128)"/>
<path d="M0 0 C1.98 0.99 1.98 0.99 4 2 C4 2.66 4 3.32 4 4 C4.66 4 5.32 4 6 4 C6 4.66 6 5.32 6 6 C6.66 6 7.32 6 8 6 C8.33 7.98 8.66 9.96 9 12 C9.66 12 10.32 12 11 12 C11 12.99 11 13.98 11 15 C10.34 15 9.68 15 9 15 C7.36697465 12.71553313 5.85535606 10.44263497 4.375 8.0625 C3.74464844 7.0734668 3.74464844 7.0734668 3.1015625 6.06445312 C0 1.15532417 0 1.15532417 0 0 Z " fill="#C7A672" transform="translate(30,127)"/>
<path d="M0 0 C-0.70125 0.350625 -1.4025 0.70125 -2.125 1.0625 C-5.78804241 3.53107206 -8.26396369 6.56820188 -11 10 C-11.66 9.67 -12.32 9.34 -13 9 C-11.35 7.35 -9.7 5.7 -8 4 C-8.99 3.34 -9.98 2.68 -11 2 C-11 1.34 -11 0.68 -11 0 C-3.375 -1.125 -3.375 -1.125 0 0 Z " fill="#FCD499" transform="translate(107,116)"/>
<path d="M0 0 C0.99 0 1.98 0 3 0 C3 0.66 3 1.32 3 2 C3.66 2 4.32 2 5 2 C5.66 3.98 6.32 5.96 7 8 C6.01 8.99 5.02 9.98 4 11 C3.32591692 9.73308493 2.66099503 8.46129251 2 7.1875 C1.62875 6.47980469 1.2575 5.77210937 0.875 5.04296875 C0 3 0 3 0 0 Z " fill="#FACD89" transform="translate(160,70)"/>
<path d="M0 0 C2 1 2 1 3 3 C2.34 3.61875 1.68 4.2375 1 4.875 C-1.2284549 6.75637427 -1.2284549 6.75637427 -1 9 C-2.98 9.66 -4.96 10.32 -7 11 C-5.75023244 7.34683329 -5.32901247 6.21934164 -2 4 C-0.80767387 1.94996045 -0.80767387 1.94996045 0 0 Z M-10 10 C-9.01 10.33 -8.02 10.66 -7 11 C-7.99 12.32 -8.98 13.64 -10 15 C-10 13.35 -10 11.7 -10 10 Z " fill="#F9D39E" transform="translate(49,53)"/>
<path d="M0 0 C2.97 0.495 2.97 0.495 6 1 C6 1.66 6 2.32 6 3 C6.99 3.33 7.98 3.66 9 4 C9 4.33 9 4.66 9 5 C11.64 5.33 14.28 5.66 17 6 C17 6.33 17 6.66 17 7 C8.56583956 7.91638765 8.56583956 7.91638765 4.77734375 5.69921875 C3.04779881 4.21117084 1.46386291 2.74984938 0 1 C0 0.67 0 0.34 0 0 Z " fill="#B59469" transform="translate(159,160)"/>
<path d="M0 0 C1.36421031 2.72842061 0.87807211 4.60953318 0.5625 7.625 C0.46066406 8.62789062 0.35882813 9.63078125 0.25390625 10.6640625 C0.17011719 11.43492187 0.08632813 12.20578125 0 13 C-0.99 13 -1.98 13 -3 13 C-6 8.77777778 -6 8.77777778 -6 6 C-4.35 6 -2.7 6 -1 6 C-1.020625 5.195625 -1.04125 4.39125 -1.0625 3.5625 C-1 1 -1 1 0 0 Z " fill="#A68D6B" transform="translate(51,138)"/>
<path d="M0 0 C3.80635497 3.20760251 7.54563567 6.40746109 11 10 C10.67 10.66 10.34 11.32 10 12 C6.22699642 10.9802693 5.19793856 10.34127338 3.1875 6.875 C2.795625 5.92625 2.40375 4.9775 2 4 C1.01 4.495 1.01 4.495 0 5 C0 3.35 0 1.7 0 0 Z " fill="#D7B07A" transform="translate(173,130)"/>
<path d="M0 0 C0.66 0 1.32 0 2 0 C1.34580901 5.06998019 -0.8546409 9.41990777 -3 14 C-3.66 13.67 -4.32 13.34 -5 13 C-4.25 6.375 -4.25 6.375 -2 3 C-1.34 3 -0.68 3 0 3 C0 2.01 0 1.02 0 0 Z " fill="#E6B87E" transform="translate(54,125)"/>
<path d="M0 0 C0.66 0.33 1.32 0.66 2 1 C0.68 2.32 -0.64 3.64 -2 5 C-2.66 4.67 -3.32 4.34 -4 4 C-2.68 2.68 -1.36 1.36 0 0 Z M-5 5 C-5 8 -5 8 -6.375 9.6875 C-8 11 -8 11 -10 11 C-10.33 12.98 -10.66 14.96 -11 17 C-11.99 17 -12.98 17 -14 17 C-11.75216109 11.82620318 -9.83454463 8.22302975 -5 5 Z " fill="#FBCA85" transform="translate(104,117)"/>
<path d="M0 0 C-0.875 6.875 -0.875 6.875 -2 8 C-3.99958364 8.04080783 -6.00045254 8.04254356 -8 8 C-6.48291727 4.46014029 -4.24676932 0 0 0 Z " fill="#F6D3A6" transform="translate(81,120)"/>
<path d="M0 0 C2.38672669 2.96283313 4.7353371 5.94270509 7 9 C6.01 9.66 5.02 10.32 4 11 C3.01 10.34 2.02 9.68 1 9 C0.01 9.495 0.01 9.495 -1 10 C-0.67 6.7 -0.34 3.4 0 0 Z " fill="#20100A" transform="translate(121,98)"/>
<path d="M0 0 C0.9075 0.185625 1.815 0.37125 2.75 0.5625 C5.68314324 0.95734621 7.2644657 0.94691572 10 0 C9.67 0.66 9.34 1.32 9 2 C9.66868314 5.11332248 9.66868314 5.11332248 12.0625 6.1875 C12.701875 6.455625 13.34125 6.72375 14 7 C12 8 12 8 9.94140625 7.36328125 C2.08573404 3.89337021 2.08573404 3.89337021 0 0 Z " fill="#443426" transform="translate(124,50)"/>
<path d="M0 0 C3.0109362 2.0072908 3.63016497 2.83884224 5 6 C5.66 6 6.32 6 7 6 C7 7.65 7 9.3 7 11 C6.34 11 5.68 11 5 11 C3.2734375 9.03125 3.2734375 9.03125 1.375 6.5 C0.74335938 5.6646875 0.11171875 4.829375 -0.5390625 3.96875 C-1.02117187 3.3190625 -1.50328125 2.669375 -2 2 C-1.34 1.34 -0.68 0.68 0 0 Z " fill="#23190E" transform="translate(153,183)"/>
<path d="M0 0 C0 0.33 0 0.66 0 1 C-0.91523438 0.98839844 -1.83046875 0.97679688 -2.7734375 0.96484375 C-3.96195313 0.95582031 -5.15046875 0.94679688 -6.375 0.9375 C-8.15003906 0.92009766 -8.15003906 0.92009766 -9.9609375 0.90234375 C-12.91921521 0.78533407 -12.91921521 0.78533407 -15 2 C-17.625 1.0625 -17.625 1.0625 -20 0 C-20 -0.33 -20 -0.66 -20 -1 C-12.88221482 -2.12067256 -6.97579243 -1.7958955 0 0 Z " fill="#E1B77A" transform="translate(152,109)"/>
<path d="M0 0 C0.91007813 0.00902344 1.82015625 0.01804687 2.7578125 0.02734375 C3.45648438 0.03894531 4.15515625 0.05054687 4.875 0.0625 C4.545 1.3825 4.215 2.7025 3.875 4.0625 C2.555 4.0625 1.235 4.0625 -0.125 4.0625 C-0.125 3.4025 -0.125 2.7425 -0.125 2.0625 C-1.115 2.3925 -2.105 2.7225 -3.125 3.0625 C-2.795 3.7225 -2.465 4.3825 -2.125 5.0625 C-6 3.3125 -6 3.3125 -7.125 1.0625 C-4.60024538 -0.19987731 -2.81299534 -0.03606404 0 0 Z " fill="#E2B166" transform="translate(133.125,102.9375)"/>
<path d="M0 0 C1.32 0.66 2.64 1.32 4 2 C3.52820313 2.36996094 3.05640625 2.73992188 2.5703125 3.12109375 C0.43645018 5.67429718 0.31260041 7.78845328 -0.125 11.0625 C-0.92462312 16.84924623 -0.92462312 16.84924623 -2 19 C-2.66 19 -3.32 19 -4 19 C-3.52570278 16.01998162 -3.04581304 13.04105713 -2.5625 10.0625 C-2.42779297 9.21236328 -2.29308594 8.36222656 -2.15429688 7.48632812 C-2.02216797 6.67744141 -1.89003906 5.86855469 -1.75390625 5.03515625 C-1.63345947 4.2862915 -1.5130127 3.53742676 -1.38891602 2.76586914 C-1 1 -1 1 0 0 Z " fill="#94826C" transform="translate(72,11)"/>
<path d="M0 0 C1.27917156 2.55834311 1.03127808 4.16001288 0.8125 7 C0.72935547 8.3303125 0.72935547 8.3303125 0.64453125 9.6875 C0 12 0 12 -2.05078125 13.3125 C-3.01564453 13.6528125 -3.01564453 13.6528125 -4 14 C-4.38338879 8.76035318 -3.26296201 5.61644249 -1 1 C-0.67 0.67 -0.34 0.34 0 0 Z " fill="#F3D1A1" transform="translate(69,132)"/>
<path d="M0 0 C0.33 0 0.66 0 1 0 C2.33333333 5.33333333 3.66666667 10.66666667 5 16 C1.125 14.25 1.125 14.25 0 12 C-0.07065617 9.95944995 -0.08421976 7.91665743 -0.0625 5.875 C-0.05347656 4.77929688 -0.04445312 3.68359375 -0.03515625 2.5546875 C-0.02355469 1.71164063 -0.01195312 0.86859375 0 0 Z " fill="#B99B68" transform="translate(145,168)"/>
<path d="M0 0 C0.33 0 0.66 0 1 0 C1.25 2.25 1.25 2.25 1 5 C0.071875 5.86625 0.071875 5.86625 -0.875 6.75 C-3.97204525 10.02922438 -4.29267962 13.64439556 -5 18 C-5.33 18 -5.66 18 -6 18 C-6.56540084 8.38818565 -6.56540084 8.38818565 -3 4 C-2.34 3.67 -1.68 3.34 -1 3 C-0.67 2.01 -0.34 1.02 0 0 Z " fill="#F8CE8D" transform="translate(34,75)"/>
<path d="M0 0 C0.99 0 1.98 0 3 0 C3.36256858 1.4562672 3.71479793 2.91511185 4.0625 4.375 C4.35833984 5.59316406 4.35833984 5.59316406 4.66015625 6.8359375 C5 9 5 9 4 11 C3.34 10.67 2.68 10.34 2 10 C2 8.68 2 7.36 2 6 C1.34 6 0.68 6 0 6 C0 4.02 0 2.04 0 0 Z " fill="#FCCF8A" transform="translate(120,54)"/>
<path d="M0 0 C1.35439668 2.70879335 1.06501451 5.00933268 1 8 C0.67 7.34 0.34 6.68 0 6 C-0.66 6 -1.32 6 -2 6 C-1.67 7.32 -1.34 8.64 -1 10 C-5.75 11.125 -5.75 11.125 -8 10 C-7.59007812 9.52949219 -7.18015625 9.05898438 -6.7578125 8.57421875 C-6.21898437 7.95160156 -5.68015625 7.32898437 -5.125 6.6875 C-4.59132812 6.07261719 -4.05765625 5.45773438 -3.5078125 4.82421875 C-1.8359553 2.86501788 -1.8359553 2.86501788 0 0 Z " fill="#C5AC8A" transform="translate(67,31)"/>
<path d="M0 0 C3.33161397 2.98696425 5.34826557 5.82719722 7 10 C6.6875 12.375 6.6875 12.375 6 14 C5.34 13.67 4.68 13.34 4 13 C3.3671875 10.93359375 3.3671875 10.93359375 2.875 8.4375 C2.70742187 7.61121094 2.53984375 6.78492187 2.3671875 5.93359375 C2.24601563 5.29550781 2.12484375 4.65742187 2 4 C1.34 4 0.68 4 0 4 C0 2.68 0 1.36 0 0 Z " fill="#D4B88A" transform="translate(163,68)"/>
<path d="M0 0 C2.5 1.375 2.5 1.375 5 3 C5 3.66 5 4.32 5 5 C5.66 5 6.32 5 7 5 C7.33 7.64 7.66 10.28 8 13 C7.34 13 6.68 13 6 13 C5.81824219 12.45730469 5.63648438 11.91460937 5.44921875 11.35546875 C5.07216797 10.28232422 5.07216797 10.28232422 4.6875 9.1875 C4.44386719 8.47980469 4.20023438 7.77210937 3.94921875 7.04296875 C2.93081271 4.85109073 1.71034576 3.67201868 0 2 C0 1.34 0 0.68 0 0 Z " fill="#ECBD84" transform="translate(126,120)"/>
<path d="M0 0 C0.33 0 0.66 0 1 0 C1 4.95 1 9.9 1 15 C0.01 15 -0.98 15 -2 15 C-1.34 10.05 -0.68 5.1 0 0 Z " fill="#332316" transform="translate(62,145)"/>
<path d="M0 0 C0.66 0.33 1.32 0.66 2 1 C2.625 3.5625 2.625 3.5625 3 6 C2.071875 6.12375 2.071875 6.12375 1.125 6.25 C-1.18437567 6.81258459 -1.18437567 6.81258459 -2.25 9.0625 C-2.4975 9.701875 -2.745 10.34125 -3 11 C-3.66 11 -4.32 11 -5 11 C-3.55049545 7.2089881 -1.84827434 3.6125362 0 0 Z " fill="#2D210F" transform="translate(92,85)"/>
<path d="M0 0 C0 3.22188585 -0.53252107 4.22697084 -2 7 C-2.72387082 8.74363045 -3.43181952 10.49394279 -4.125 12.25 C-4.47820312 13.14203125 -4.83140625 14.0340625 -5.1953125 14.953125 C-5.46085937 15.62859375 -5.72640625 16.3040625 -6 17 C-7.30249153 13.40144968 -6.69931441 11.41900527 -5.25 7.9375 C-4.73179688 6.65166016 -4.73179688 6.65166016 -4.203125 5.33984375 C-3.03735083 3.07264009 -1.90347394 1.66827457 0 0 Z " fill="#D6B78C" transform="translate(76,121)"/>
<path d="M0 0 C0.66 0 1.32 0 2 0 C5.07692308 6.4 5.07692308 6.4 4.6875 9.4375 C4.460625 9.953125 4.23375 10.46875 4 11 C3.67 10.34 3.34 9.68 3 9 C2.34 9 1.68 9 1 9 C0.67 6.03 0.34 3.06 0 0 Z " fill="#C6A376" transform="translate(91,34)"/>
<path d="M0 0 C0.66 0.66 1.32 1.32 2 2 C-1.465 4.97 -1.465 4.97 -5 8 C-5.3125 5.6875 -5.3125 5.6875 -5 3 C-2.5 1.1875 -2.5 1.1875 0 0 Z " fill="#170A06" transform="translate(40,57)"/>
<path d="M0 0 C1.33332095 2.6666419 0.67102033 4.16680303 0 7 C-0.33 7 -0.66 7 -1 7 C-1.33 9.97 -1.66 12.94 -2 16 C-2.33 16 -2.66 16 -3 16 C-3.08133791 14.08404032 -3.13934367 12.16708068 -3.1875 10.25 C-3.22230469 9.18265625 -3.25710937 8.1153125 -3.29296875 7.015625 C-2.97082786 3.69972145 -2.22851086 2.40983327 0 0 Z " fill="#A58A68" transform="translate(158,140)"/>
<path d="M0 0 C2.71232939 4.06849409 2.30699887 6.16476784 2 11 C1.34 11.66 0.68 12.32 0 13 C-0.96661363 9.87819599 -0.98988909 7.47916205 -0.5625 4.25 C-0.46066406 3.45078125 -0.35882813 2.6515625 -0.25390625 1.828125 C-0.17011719 1.22484375 -0.08632812 0.6215625 0 0 Z " fill="#D3B07D" transform="translate(185,144)"/>
<path d="M0 0 C1.65 0 3.3 0 5 0 C5.33 2.97 5.66 5.94 6 9 C2.91910327 6.22719294 1.31224548 3.93673644 0 0 Z " fill="#CEA970" transform="translate(120,95)"/>
<path d="M0 0 C2.475 0.99 2.475 0.99 5 2 C4.67 3.32 4.34 4.64 4 6 C3.34 6 2.68 6 2 6 C1.67 6.99 1.34 7.98 1 9 C-0.25664978 6.09399739 -1 4.20395416 -1 1 C-0.67 0.67 -0.34 0.34 0 0 Z " fill="#DDB06C" transform="translate(90,79)"/>
<path d="M0 0 C0.66 0 1.32 0 2 0 C1.67 1.98 1.34 3.96 1 6 C0.34 6 -0.32 6 -1 6 C-1 7.32 -1 8.64 -1 10 C-1.66 10 -2.32 10 -3 10 C-2.49287967 6.28111761 -1.88391785 3.26545761 0 0 Z " fill="#442A15" transform="translate(55,128)"/>
<path d="M0 0 C0.99 0.33 1.98 0.66 3 1 C3.8125 2.9375 3.8125 2.9375 4 5 C3.34 5.66 2.68 6.32 2 7 C0.68 6.01 -0.64 5.02 -2 4 C-1.34 2.68 -0.68 1.36 0 0 Z " fill="#1D1008" transform="translate(28,127)"/>
<path d="M0 0 C0.99 0.33 1.98 0.66 3 1 C1.79618552 3.49361571 0.54571278 5.68143083 -1 8 C-1.66 7.67 -2.32 7.34 -3 7 C-3 5.35 -3 3.7 -3 2 C-2.01 2 -1.02 2 0 2 C0 1.34 0 0.68 0 0 Z " fill="#EDBA6C" transform="translate(123,118)"/>
<path d="M0 0 C1.6396875 0.0928125 1.6396875 0.0928125 3.3125 0.1875 C3.3125 1.1775 3.3125 2.1675 3.3125 3.1875 C0.0125 3.1875 -3.2875 3.1875 -6.6875 3.1875 C-3.6875 0.1875 -3.6875 0.1875 0 0 Z " fill="#ECD2AB" transform="translate(103.6875,111.8125)"/>
<path d="M0 0 C0.66 1.32 1.32 2.64 2 4 C0.25 6.0625 0.25 6.0625 -2 8 C-3.32 7.67 -4.64 7.34 -6 7 C-4.02 4.69 -2.04 2.38 0 0 Z " fill="#382514" transform="translate(85,96)"/>
<path d="M0 0 C1.32 0 2.64 0 4 0 C4.33 1.32 4.66 2.64 5 4 C1.25 5.125 1.25 5.125 -1 4 C-0.67 2.68 -0.34 1.36 0 0 Z " fill="#EBC89A" transform="translate(35,66)"/>
<path d="M0 0 C3.82946843 1.45255699 5.12050295 3.42895561 7 7 C5.35 7 3.7 7 2 7 C1.34 4.69 0.68 2.38 0 0 Z " fill="#4C3520" transform="translate(41,142)"/>
<path d="M0 0 C0.66 0 1.32 0 2 0 C1.34 1.98 0.68 3.96 0 6 C-1.32 6 -2.64 6 -4 6 C-3.67 4.68 -3.34 3.36 -3 2 C-2.01 2 -1.02 2 0 2 C0 1.34 0 0.68 0 0 Z " fill="#F4D19F" transform="translate(162,138)"/>
<path d="M0 0 C0 3.38023517 -0.87455622 5.83468937 -2 9 C-3.65 8.67 -5.3 8.34 -7 8 C-6.02133662 6.85373678 -5.04205413 5.70800212 -4.0625 4.5625 C-3.51722656 3.92441406 -2.97195312 3.28632812 -2.41015625 2.62890625 C-1.63204305 1.73008851 -0.84063472 0.84063472 0 0 Z " fill="#BEA585" transform="translate(54,46)"/>
<path d="M0 0 C2.99693138 0.99897713 4.02709413 1.65130253 6 4 C6 4.66 6 5.32 6 6 C4.02 6 2.04 6 0 6 C-1.125 2.25 -1.125 2.25 0 0 Z " fill="#C5A46E" transform="translate(81,20)"/>
<path d="M0 0 C0.66 0.33 1.32 0.66 2 1 C1.8125 3.375 1.8125 3.375 1 6 C-1.5625 7.3125 -1.5625 7.3125 -4 8 C-3.67 6.35 -3.34 4.7 -3 3 C-2.67 3.66 -2.34 4.32 -2 5 C-1.34 5 -0.68 5 0 5 C-0.2784375 4.0409375 -0.2784375 4.0409375 -0.5625 3.0625 C-0.706875 2.381875 -0.85125 1.70125 -1 1 C-0.67 0.67 -0.34 0.34 0 0 Z " fill="#CDA574" transform="translate(183,156)"/>
<path d="M0 0 C0.99 0 1.98 0 3 0 C1.87548273 2.9719385 0.77706209 5.33440687 -1 8 C-1.66 8 -2.32 8 -3 8 C-3 7.01 -3 6.02 -3 5 C-2.34 5 -1.68 5 -1 5 C-0.67 3.35 -0.34 1.7 0 0 Z " fill="#D0B074" transform="translate(88,88)"/>
<path d="M0 0 C4.21878192 -0.19622241 7.17010894 0.19769832 11 2 C11 2.33 11 2.66 11 3 C3.49230769 3.36923077 3.49230769 3.36923077 1 1.5 C0.67 1.005 0.34 0.51 0 0 Z " fill="#201309" transform="translate(137,56)"/>
<path d="M0 0 C0.66 0 1.32 0 2 0 C3.49524178 2.2727675 4.78399715 4.5679943 6 7 C4.35 7 2.7 7 1 7 C0.67 4.69 0.34 2.38 0 0 Z " fill="#3A2913" transform="translate(155,156)"/>
<path d="M0 0 C1.73662334 3.22515763 2.8905928 6.51329166 4 10 C2.68 9.34 1.36 8.68 0 8 C0 5.36 0 2.72 0 0 Z " fill="#2D1B0B" transform="translate(117,88)"/>
<path d="M0 0 C0.66 0.33 1.32 0.66 2 1 C0.68 3.31 -0.64 5.62 -2 8 C-2.66 6.68 -3.32 5.36 -4 4 C-2.66666667 2.66666667 -1.33333333 1.33333333 0 0 Z " fill="#22140B" transform="translate(30,71)"/>
<path d="M0 0 C2.64 0 5.28 0 8 0 C8.33 0.99 8.66 1.98 9 3 C2.84765625 2.4140625 2.84765625 2.4140625 1 2 C0.67 1.34 0.34 0.68 0 0 Z " fill="#F1C78A" transform="translate(87,188)"/>
<path d="M0 0 C2.125 0.375 2.125 0.375 4 1 C2.35 2.65 0.7 4.3 -1 6 C-1.625 4.125 -1.625 4.125 -2 2 C-1.34 1.34 -0.68 0.68 0 0 Z " fill="#1B0E08" transform="translate(156,138)"/>
<path d="M0 0 C1.98 0.99 1.98 0.99 4 2 C3.34 3.65 2.68 5.3 2 7 C1.34 7 0.68 7 0 7 C0 4.69 0 2.38 0 0 Z " fill="#F7C16E" transform="translate(121,87)"/>
<path d="M0 0 C0.66 0 1.32 0 2 0 C1.1875 3.4375 1.1875 3.4375 0 7 C-0.99 7.33 -1.98 7.66 -3 8 C-2.67 6.02 -2.34 4.04 -2 2 C-1.34 2 -0.68 2 0 2 C0 1.34 0 0.68 0 0 Z " fill="#FABF73" transform="translate(92,72)"/>
<path d="M0 0 C3.16115776 1.36983503 3.9927092 1.9890638 6 5 C4.0625 5.5625 4.0625 5.5625 2 6 C1.67 5.67 1.34 5.34 1 5 C0.67 5 0.34 5 0 5 C0 3.35 0 1.7 0 0 Z " fill="#CEB896" transform="translate(119,47)"/>
<path d="M0 0 C2.31 0.66 4.62 1.32 7 2 C6.34 2.66 5.68 3.32 5 4 C2.375 3.625 2.375 3.625 0 3 C0 2.01 0 1.02 0 0 Z " fill="#150806" transform="translate(76,185)"/>
<path d="M0 0 C1.32 0.66 2.64 1.32 4 2 C4 2.99 4 3.98 4 5 C1.525 4.01 1.525 4.01 -1 3 C-0.67 2.01 -0.34 1.02 0 0 Z " fill="#E1B577" transform="translate(179,137)"/>
<path d="M0 0 C0.98120464 3.05263664 0.98120464 4.94736336 0 8 C-0.66 8 -1.32 8 -2 8 C-2.33 5.69 -2.66 3.38 -3 1 C-2.01 1.33 -1.02 1.66 0 2 C0 1.34 0 0.68 0 0 Z " fill="#F4BC70" transform="translate(47,135)"/>
<path d="M0 0 C1.98 0.99 1.98 0.99 4 2 C4 2.66 4 3.32 4 4 C4.66 4 5.32 4 6 4 C5.67 4.99 5.34 5.98 5 7 C2.47411298 4.63707344 1.11179163 3.33537489 0 0 Z " fill="#D1B181" transform="translate(30,127)"/>
<path d="M0 0 C0.33 2.31 0.66 4.62 1 7 C-0.98 5.35 -2.96 3.7 -5 2 C-1.125 0 -1.125 0 0 0 Z " fill="#322113" transform="translate(178,128)"/>
<path d="M0 0 C5.53846154 0.61538462 5.53846154 0.61538462 7.875 2.5625 C8.431875 3.2740625 8.431875 3.2740625 9 4 C6.1875 4.25 6.1875 4.25 3 4 C1.125 2 1.125 2 0 0 Z " fill="#D7B07D" transform="translate(114,114)"/>
</svg>
