<svg version="1.1" xmlns="http://www.w3.org/2000/svg" width="400" height="400">
<path d="M0 0 C132 0 264 0 400 0 C400 132 400 264 400 400 C268 400 136 400 0 400 C0 268 0 136 0 0 Z " fill="#000000" transform="translate(0,0)"/>
<path d="M0 0 C3.03770647 0.7101132 4.16869606 1.78339617 6.28125 4.0625 C6.97089844 4.79726562 7.66054687 5.53203125 8.37109375 6.2890625 C10.78979495 8.99095136 13.20321906 11.69407834 15.5703125 14.44140625 C20.77670597 20.45645232 26.17258925 26.30842303 31.53125 32.1875 C34.99762651 35.99729462 38.44399634 39.81961569 41.80078125 43.7265625 C42.89396771 44.9766784 44.0181628 46.20019183 45.16796875 47.3984375 C47.9034306 50.31881402 49.28425118 51.8440625 49.96875 55.875 C49.40625 58.5625 49.40625 58.5625 46.40625 60.5625 C43.39620291 60.75771739 40.47892167 60.83537804 37.46850586 60.82128906 C36.55444473 60.8247937 35.64038361 60.82829834 34.69862366 60.83190918 C31.67270345 60.84072269 28.64701639 60.83487913 25.62109375 60.828125 C23.52266902 60.82947164 21.42424459 60.83141217 19.32582092 60.83392334 C14.92673779 60.83687399 10.52773582 60.83257838 6.12866211 60.82324219 C0.48014596 60.81184071 -5.16818029 60.81841195 -10.81668949 60.83038712 C-15.14970846 60.8376013 -19.48268213 60.83531994 -23.81570244 60.83013153 C-25.89899149 60.82879417 -27.98228462 60.83044574 -30.06556892 60.83509064 C-32.9722909 60.84014937 -35.87870169 60.83245516 -38.78540039 60.82128906 C-39.65246613 60.82533752 -40.51953186 60.82938599 -41.41287231 60.83355713 C-47.36522077 60.79102923 -47.36522077 60.79102923 -49.59375 58.5625 C-50.03515625 55.8046875 -50.03515625 55.8046875 -49.59375 52.5625 C-47.95939094 50.345919 -46.46514068 48.59634029 -44.53125 46.6875 C-43.50844056 45.6282546 -42.4863039 44.56835913 -41.46484375 43.5078125 C-40.96710449 43.00024414 -40.46936523 42.49267578 -39.95654297 41.96972656 C-38.26620529 40.22427576 -36.67323335 38.40844876 -35.09375 36.5625 C-31.6869765 32.6316075 -28.16372215 28.81053427 -24.640625 24.984375 C-22.08819857 22.20755943 -19.56391712 19.41269283 -17.09375 16.5625 C-16.56007812 15.9540625 -16.02640625 15.345625 -15.4765625 14.71875 C-14.41568038 13.50379786 -13.35799193 12.28598254 -12.31152344 11.05859375 C-10.87711893 9.38132186 -9.42423937 7.72148656 -7.96875 6.0625 C-7.51306641 5.52109375 -7.05738281 4.9796875 -6.58789062 4.421875 C-4.49910934 2.06934339 -3.11827684 0.67625281 0 0 Z " fill="#B8B8B8" transform="translate(199.59375,153.4375)"/>
<path d="M0 0 C0.91230881 -0.0049649 1.82461761 -0.00992981 2.76457214 -0.01504517 C5.79105373 -0.02968441 8.81748293 -0.03647117 11.84399414 -0.04199219 C13.94145205 -0.04774149 16.03890993 -0.05349925 18.1363678 -0.05926514 C22.53720343 -0.06977967 26.93802076 -0.07561961 31.33886719 -0.07910156 C36.98623221 -0.08459204 42.63335681 -0.10863005 48.28064632 -0.13707352 C52.6137005 -0.15566752 56.94669635 -0.16090373 61.27978706 -0.16243744 C63.36226277 -0.16547103 65.44473728 -0.17352319 67.527174 -0.18662262 C70.43627273 -0.20361804 73.34477845 -0.201819 76.25390625 -0.1953125 C77.11894775 -0.20452728 77.98398926 -0.21374207 78.87524414 -0.22323608 C84.7526176 -0.18191638 84.7526176 -0.18191638 86.94420719 1.53053665 C88.19165039 3.16113281 88.19165039 3.16113281 88.06665039 5.61816406 C87.12710694 8.34871221 86.15483645 9.7536588 84.19165039 11.84863281 C83.56000977 12.53570312 82.92836914 13.22277344 82.27758789 13.93066406 C81.58922852 14.66671875 80.90086914 15.40277344 80.19165039 16.16113281 C78.73086683 17.78393055 77.27262412 19.40901831 75.81665039 21.03613281 C74.27512398 22.74459271 72.73345686 24.45292565 71.19165039 26.16113281 C69.71233809 27.80683525 68.23317093 29.45266816 66.75415039 31.09863281 C63.53842617 34.67353042 60.3062513 38.23286404 57.06665039 41.78613281 C54.12777299 45.01707257 51.20147578 48.25680138 48.31665039 51.53613281 C47.76235352 52.16132813 47.20805664 52.78652344 46.63696289 53.43066406 C45.00633179 55.31439712 45.00633179 55.31439712 43.19165039 58.22363281 C42.53165039 58.86300781 41.87165039 59.50238281 41.19165039 60.16113281 C36.97536277 60.08158022 34.81639402 59.69011961 31.56665039 56.93847656 C30.78290039 56.00132812 29.99915039 55.06417969 29.19165039 54.09863281 C28.76287598 53.5976709 28.33410156 53.09670898 27.89233398 52.58056641 C26.64455557 51.11944455 25.41758005 49.64063425 24.19165039 48.16113281 C23.0712296 46.86549203 21.94674816 45.57334173 20.81665039 44.28613281 C20.27008789 43.65707031 19.72352539 43.02800781 19.16040039 42.37988281 C16.58556099 39.47807968 13.95253289 36.63244291 11.31665039 33.78613281 C1.0047593 22.64026233 1.0047593 22.64026233 -3.80834961 17.16113281 C-4.98010742 15.85982422 -4.98010742 15.85982422 -6.17553711 14.53222656 C-6.92061523 13.66726562 -7.66569336 12.80230469 -8.43334961 11.91113281 C-9.10624023 11.14285156 -9.77913086 10.37457031 -10.47241211 9.58300781 C-11.80834961 7.16113281 -11.80834961 7.16113281 -11.64428711 3.92675781 C-11.23049805 2.55777344 -11.23049805 2.55777344 -10.80834961 1.16113281 C-7.45904826 -0.51351786 -3.6837581 0.00474926 0 0 Z " fill="#DCDDDC" transform="translate(95.808349609375,151.8388671875)"/>
<path d="M0 0 C0.86706573 0.00247742 1.73413147 0.00495483 2.62747192 0.00750732 C3.53978073 0.00239639 4.45208954 -0.00271454 5.39204407 -0.00798035 C8.41858414 -0.02192124 11.44489764 -0.02091619 14.47146606 -0.01861572 C16.56892482 -0.02250022 18.66638279 -0.02683437 20.76383972 -0.03160095 C25.16469877 -0.03907287 29.5654776 -0.03876488 33.96633911 -0.0335083 C39.61372619 -0.02771277 45.2607854 -0.0446421 50.90811825 -0.06785297 C55.24118478 -0.0825652 59.5741719 -0.08346543 63.90725899 -0.08034325 C65.9897279 -0.08085774 68.07220112 -0.08611927 70.15464592 -0.09615517 C73.06377508 -0.10845346 75.9722598 -0.10176764 78.88137817 -0.09014893 C79.74641968 -0.09779266 80.61146118 -0.1054364 81.50271606 -0.11331177 C87.38011309 -0.06126965 87.38011309 -0.06126965 89.55361271 1.63905048 C90.81912231 3.28216553 90.81912231 3.28216553 90.98318481 5.94622803 C89.24203496 10.93596619 85.88196604 13.9627481 82.19412231 17.65716553 C80.78390347 19.10114652 79.37504058 20.54645304 77.96755981 21.99310303 C77.27307739 22.7030542 76.57859497 23.41300537 75.86306763 24.14447021 C72.72950156 27.42176411 69.78100823 30.85049549 66.81912231 34.28216553 C65.32342004 35.95269014 63.82407965 37.61997384 62.31912231 39.28216553 C59.59056667 42.30670009 56.87564818 45.34084671 54.19412231 48.40716553 C53.63466919 49.03751709 53.07521606 49.66786865 52.49880981 50.31732178 C51.31301518 51.70442573 50.17619245 53.13411967 49.07693481 54.59075928 C44.74093201 60.15047843 44.74093201 60.15047843 40.31912231 60.78216553 C35.38094264 58.66580281 33.09928218 55.42659988 29.81912231 51.28216553 C28.33042552 49.60539493 26.82998421 47.93899205 25.31912231 46.28216553 C22.68731787 43.36727623 20.07625306 40.43943342 17.50662231 37.46966553 C14.34835715 33.84023726 11.08967905 30.30998529 7.81912231 26.78216553 C3.8939662 22.54634626 -0.02023089 18.30821583 -3.77462769 13.91888428 C-5.04048743 12.44556419 -6.35787417 11.0168943 -7.68087769 9.59466553 C-9.18087769 7.28216553 -9.18087769 7.28216553 -9.05587769 4.59466553 C-7.22638623 -0.24041903 -4.77805748 0.04288575 0 0 Z " fill="#DFDFDF" transform="translate(224.18087768554688,151.71783447265625)"/>
<path d="M0 0 C1.20446777 0.01047363 2.40893555 0.02094727 3.64990234 0.03173828 C5.60283203 0.04140625 5.60283203 0.04140625 7.59521484 0.05126953 C8.9754258 0.06798149 10.35563413 0.08491139 11.73583984 0.10205078 C13.12385436 0.11208072 14.51187574 0.12120655 15.89990234 0.12939453 C19.3037201 0.15303215 22.70719491 0.18598211 26.11083984 0.22705078 C26.11083984 0.88705078 26.11083984 1.54705078 26.11083984 2.22705078 C26.63645508 1.9010791 27.16207031 1.57510742 27.70361328 1.23925781 C30.80621632 -0.06534586 33.2642168 0.00117239 36.62646484 0.03173828 C38.50205078 0.04140625 38.50205078 0.04140625 40.41552734 0.05126953 C41.71748047 0.06802734 43.01943359 0.08478516 44.36083984 0.10205078 C45.67826172 0.11107422 46.99568359 0.12009766 48.35302734 0.12939453 C51.60581446 0.15296545 54.85823573 0.18587056 58.11083984 0.22705078 C57.68560168 1.83451134 57.24513859 3.43794914 56.79833984 5.03955078 C56.55470703 5.93287109 56.31107422 6.82619141 56.06005859 7.74658203 C55.05912638 10.36218678 54.38828037 11.6143446 52.11083984 13.22705078 C49.93432617 13.56762695 49.93432617 13.56762695 47.44287109 13.52001953 C46.55019531 13.51035156 45.65751953 13.50068359 44.73779297 13.49072266 C43.34463867 13.45301758 43.34463867 13.45301758 41.92333984 13.41455078 C40.5127832 13.39424805 40.5127832 13.39424805 39.07373047 13.37353516 C36.75218946 13.33818174 34.43180331 13.28883752 32.11083984 13.22705078 C32.44083984 11.24705078 32.77083984 9.26705078 33.11083984 7.22705078 C38.72083984 7.22705078 44.33083984 7.22705078 50.11083984 7.22705078 C50.11083984 6.56705078 50.11083984 5.90705078 50.11083984 5.22705078 C44.17083984 5.22705078 38.23083984 5.22705078 32.11083984 5.22705078 C31.45083984 8.19705078 30.79083984 11.16705078 30.11083984 14.22705078 C37.70083984 14.22705078 45.29083984 14.22705078 53.11083984 14.22705078 C52.11083984 19.22705078 52.11083984 19.22705078 51.11083984 20.22705078 C48.92747027 20.31495267 46.74127093 20.33399143 44.55615234 20.32470703 C43.89880096 20.32329208 43.24144958 20.32187714 42.56417847 20.32041931 C40.45468668 20.31480655 38.34529966 20.30226415 36.23583984 20.28955078 C34.82047681 20.28453635 33.40511209 20.27997335 31.98974609 20.27587891 C28.3634147 20.26446758 24.73714106 20.24574306 21.11083984 20.22705078 C20.12083984 20.22705078 19.13083984 20.22705078 18.11083984 20.22705078 C10.77750651 20.22705078 3.44417318 20.22705078 -3.88916016 20.22705078 C-3.88916016 19.56705078 -3.88916016 18.90705078 -3.88916016 18.22705078 C-4.21916016 18.88705078 -4.54916016 19.54705078 -4.88916016 20.22705078 C-6.86916016 20.22705078 -8.84916016 20.22705078 -10.88916016 20.22705078 C-6.38880219 0.50207758 -6.38880219 0.50207758 0 0 Z " fill="#0F0D0E" transform="translate(137.88916015625,227.77294921875)"/>
<path d="M0 0 C1.25361328 0.00966797 2.50722656 0.01933594 3.79882812 0.02929688 C5.10916016 0.05443359 6.41949219 0.07957031 7.76953125 0.10546875 C9.10480288 0.12051908 10.44009062 0.13420688 11.77539062 0.14648438 C15.04467701 0.18189181 18.31315218 0.23127985 21.58203125 0.29296875 C21.28197299 1.86652351 20.97776819 3.43928786 20.671875 5.01171875 C20.50292725 5.88763672 20.33397949 6.76355469 20.15991211 7.66601562 C18.0353094 17.32411665 18.0353094 17.32411665 13.58203125 20.29296875 C11.3137207 20.52001953 11.3137207 20.52001953 8.6953125 20.48828125 C7.75751953 20.48183594 6.81972656 20.47539062 5.85351562 20.46875 C4.38881836 20.44361328 4.38881836 20.44361328 2.89453125 20.41796875 C1.90646484 20.40894531 0.91839844 20.39992187 -0.09960938 20.390625 C-2.5393064 20.36705305 -4.97851572 20.33414897 -7.41796875 20.29296875 C-7.41796875 19.30296875 -7.41796875 18.31296875 -7.41796875 17.29296875 C-7.74796875 18.28296875 -8.07796875 19.27296875 -8.41796875 20.29296875 C-10.06796875 20.29296875 -11.71796875 20.29296875 -13.41796875 20.29296875 C-12.88226401 16.32875366 -12.02425845 12.47925112 -11.04296875 8.60546875 C-10.80835938 7.67347656 -10.57375 6.74148437 -10.33203125 5.78125 C-8.29950581 0.24826409 -5.66576043 -0.07691078 0 0 Z " fill="#8F8F8F" transform="translate(318.41796875,227.70703125)"/>
<path d="M0 0 C1.25683594 0.00322266 2.51367188 0.00644531 3.80859375 0.00976562 C5.12730469 0.01814453 6.44601563 0.02652344 7.8046875 0.03515625 C9.14452961 0.04017136 10.4843735 0.04473424 11.82421875 0.04882812 C15.10941956 0.06064539 18.39453147 0.07712008 21.6796875 0.09765625 C21.25444934 1.70511681 20.81398624 3.30855461 20.3671875 4.91015625 C20.12355469 5.80347656 19.87992188 6.69679687 19.62890625 7.6171875 C18.62797404 10.23279225 17.95712802 11.48495007 15.6796875 13.09765625 C13.50317383 13.43823242 13.50317383 13.43823242 11.01171875 13.390625 C10.11904297 13.38095703 9.22636719 13.37128906 8.30664062 13.36132812 C6.91348633 13.32362305 6.91348633 13.32362305 5.4921875 13.28515625 C4.55181641 13.27162109 3.61144531 13.25808594 2.64257812 13.24414062 C0.32103712 13.20878721 -1.99934903 13.15944299 -4.3203125 13.09765625 C-3.9903125 11.11765625 -3.6603125 9.13765625 -3.3203125 7.09765625 C2.2896875 7.09765625 7.8996875 7.09765625 13.6796875 7.09765625 C13.6796875 6.43765625 13.6796875 5.77765625 13.6796875 5.09765625 C7.7396875 5.09765625 1.7996875 5.09765625 -4.3203125 5.09765625 C-4.9803125 8.06765625 -5.6403125 11.03765625 -6.3203125 14.09765625 C1.2696875 14.09765625 8.8596875 14.09765625 16.6796875 14.09765625 C15.6796875 19.09765625 15.6796875 19.09765625 14.6796875 20.09765625 C12.53409923 20.1854123 10.38564329 20.20460844 8.23828125 20.1953125 C6.93310547 20.19208984 5.62792969 20.18886719 4.28320312 20.18554688 C2.8945306 20.17719026 1.50585873 20.1687253 0.1171875 20.16015625 C-1.27538906 20.15514291 -2.66796731 20.15057972 -4.06054688 20.14648438 C-7.4805112 20.13465059 -10.90039094 20.11816505 -14.3203125 20.09765625 C-12.37683174 9.46149257 -12.37683174 9.46149257 -10.3203125 5.03515625 C-9.8253125 3.93494141 -9.8253125 3.93494141 -9.3203125 2.8125 C-7.19208954 -0.83706984 -3.82695115 -0.01723852 0 0 Z " fill="#F9F7F8" transform="translate(174.3203125,227.90234375)"/>
<path d="M0 0 C1.16257324 0.01047363 2.32514648 0.02094727 3.52294922 0.03173828 C5.40820312 0.04140625 5.40820312 0.04140625 7.33154297 0.05126953 C9.30960938 0.07640625 9.30960938 0.07640625 11.32763672 0.10205078 C12.66747393 0.11208096 14.00731823 0.12120674 15.34716797 0.12939453 C18.63250244 0.15303003 21.91748137 0.18597844 25.20263672 0.22705078 C24.32763672 4.10205078 24.32763672 4.10205078 23.20263672 5.22705078 C21.42192426 5.31431301 19.63780532 5.33404119 17.85498047 5.32470703 C16.77539062 5.32148438 15.69580078 5.31826172 14.58349609 5.31494141 C13.4471875 5.3065625 12.31087891 5.29818359 11.14013672 5.28955078 C9.99996094 5.28503906 8.85978516 5.28052734 7.68505859 5.27587891 C4.85753321 5.26404826 2.03011032 5.24756488 -0.79736328 5.22705078 C-0.79736328 5.88705078 -0.79736328 6.54705078 -0.79736328 7.22705078 C7.12263672 7.22705078 15.04263672 7.22705078 23.20263672 7.22705078 C20.84366236 16.66294822 20.84366236 16.66294822 19.20263672 19.22705078 C16.3843948 20.63617174 14.0301239 20.33888631 10.88232422 20.32470703 C9.62548828 20.32148438 8.36865234 20.31826172 7.07373047 20.31494141 C5.75501953 20.3065625 4.43630859 20.29818359 3.07763672 20.28955078 C1.7377946 20.28453568 0.39795071 20.27997279 -0.94189453 20.27587891 C-4.22709534 20.26406164 -7.51220725 20.24758696 -10.79736328 20.22705078 C-10.46736328 19.48455078 -10.13736328 18.74205078 -9.79736328 17.97705078 C-8.56953457 15.08821766 -8.56953457 15.08821766 -8.79736328 11.22705078 C-7.99267578 8.93798828 -7.99267578 8.93798828 -6.92236328 6.60205078 C-6.57431641 5.82603516 -6.22626953 5.05001953 -5.86767578 4.25048828 C-4.25464355 1.2010332 -3.50932719 0.28483804 0 0 Z " fill="#B1AFB0" transform="translate(39.79736328125,227.77294921875)"/>
<path d="M0 0 C1.30195313 0.00322266 2.60390625 0.00644531 3.9453125 0.00976562 C5.32552149 0.01812159 6.70572982 0.02658654 8.0859375 0.03515625 C9.47395676 0.04017124 10.86197772 0.04473415 12.25 0.04882812 C15.65368882 0.06064649 19.05729189 0.07712191 22.4609375 0.09765625 C21.70385656 3.06014689 20.93110124 6.01692327 20.1484375 8.97265625 C19.93509766 9.81441406 19.72175781 10.65617188 19.50195312 11.5234375 C19.28603516 12.32910156 19.07011719 13.13476562 18.84765625 13.96484375 C18.65389404 14.70847168 18.46013184 15.45209961 18.26049805 16.21826172 C17.4609375 18.09765625 17.4609375 18.09765625 14.4609375 20.09765625 C11.55004883 20.32470703 11.55004883 20.32470703 8.04296875 20.29296875 C6.78935547 20.28652344 5.53574219 20.28007812 4.24414062 20.2734375 C2.27864258 20.24830078 2.27864258 20.24830078 0.2734375 20.22265625 C-1.06184237 20.21262264 -2.39712939 20.20349745 -3.73242188 20.1953125 C-7.00148265 20.17170917 -10.27018278 20.13878219 -13.5390625 20.09765625 C-12.86613827 15.95385969 -12.18381813 12.20392118 -10.0546875 8.55078125 C-5.97991392 6.19703005 -1.89565602 6.67990915 2.7109375 6.84765625 C3.64679688 6.86570313 4.58265625 6.88375 5.546875 6.90234375 C7.85260765 6.94939952 10.15624695 7.01511912 12.4609375 7.09765625 C11.8009375 9.07765625 11.1409375 11.05765625 10.4609375 13.09765625 C11.1209375 13.42765625 11.7809375 13.75765625 12.4609375 14.09765625 C13.1209375 11.12765625 13.7809375 8.15765625 14.4609375 5.09765625 C6.8709375 5.09765625 -0.7190625 5.09765625 -8.5390625 5.09765625 C-8.5390625 3.77765625 -8.5390625 2.45765625 -8.5390625 1.09765625 C-5.66887809 -0.33743596 -3.20362527 -0.01392881 0 0 Z " fill="#B8B8B8" transform="translate(244.5390625,227.90234375)"/>
<path d="M0 0 C1.20970459 0.00523682 2.41940918 0.01047363 3.66577148 0.01586914 C4.97094727 0.0190918 6.27612305 0.02231445 7.62084961 0.02563477 C9.00952213 0.03399138 10.39819401 0.04245634 11.78686523 0.05102539 C13.17944179 0.05603873 14.57202005 0.06060193 15.96459961 0.06469727 C19.38456394 0.07653105 22.80444367 0.09301659 26.22436523 0.11352539 C24.30350794 10.68916178 24.30350794 10.68916178 22.16186523 15.17602539 C21.82026367 15.90950195 21.47866211 16.64297852 21.12670898 17.39868164 C20.22436523 19.11352539 20.22436523 19.11352539 19.22436523 20.11352539 C17.15174447 20.20119651 15.07616229 20.22048412 13.00170898 20.21118164 C11.74165039 20.20795898 10.4815918 20.20473633 9.18334961 20.20141602 C7.84285415 20.19305942 6.50235936 20.18459446 5.16186523 20.17602539 C3.81746582 20.17101199 2.47306464 20.16644881 1.12866211 20.16235352 C-2.17281417 20.15052027 -5.4742028 20.1340351 -8.77563477 20.11352539 C-8.49221865 15.93313765 -8.16100617 12.92132313 -6.35375977 9.13305664 C-2.33641402 5.98613581 1.53214059 6.57606418 6.47436523 6.80102539 C7.41022461 6.82358398 8.34608398 6.84614258 9.31030273 6.86938477 C11.61662198 6.92821944 13.91967361 7.01035393 16.22436523 7.11352539 C15.89436523 9.09352539 15.56436523 11.07352539 15.22436523 13.11352539 C17.49904588 9.92468245 17.49904588 9.92468245 19.22436523 5.11352539 C11.30436523 5.11352539 3.38436523 5.11352539 -4.77563477 5.11352539 C-3.53338287 0.14451781 -3.53338287 0.14451781 0 0 Z " fill="#B4B3B4" transform="translate(103.775634765625,227.886474609375)"/>
<path d="M0 0 C1.25159912 0.00523682 2.50319824 0.01047363 3.79272461 0.01586914 C4.78942421 0.01799156 4.78942421 0.01799156 5.80625916 0.02015686 C7.93590735 0.02577021 10.06545175 0.03832485 12.19506836 0.05102539 C13.63582205 0.05603868 15.07657739 0.06060188 16.51733398 0.06469727 C20.05577938 0.07574394 23.59416375 0.09301747 27.13256836 0.11352539 C26.7073302 1.72098595 26.2668671 3.32442375 25.82006836 4.92602539 C25.57643555 5.8193457 25.33280273 6.71266602 25.08178711 7.63305664 C24.07368423 10.26739954 23.44662141 11.51380335 21.13256836 13.11352539 C18.68066406 13.45410156 18.68066406 13.45410156 15.80834961 13.40649414 C14.78032227 13.39682617 13.75229492 13.3871582 12.69311523 13.37719727 C11.08533203 13.33949219 11.08533203 13.33949219 9.44506836 13.30102539 C8.36161133 13.28749023 7.2781543 13.27395508 6.16186523 13.26000977 C3.48493431 13.22463182 0.80899998 13.17526728 -1.86743164 13.11352539 C-2.01180664 14.08290039 -2.15618164 15.05227539 -2.30493164 16.05102539 C-2.86743164 19.11352539 -2.86743164 19.11352539 -3.86743164 20.11352539 C-5.53360279 20.15416371 -7.20131259 20.15624639 -8.86743164 20.11352539 C-5.33571225 0.21124787 -5.33571225 0.21124787 0 0 Z " fill="#B0AFAF" transform="translate(70.867431640625,227.886474609375)"/>
<path d="M0 0 C5.91607087 -0.71619521 5.91607087 -0.71619521 8.70263672 1.125 C10.37147145 2.68372919 11.91228529 4.30063906 13.4375 6 C13.97826172 6.57234375 14.51902344 7.1446875 15.07617188 7.734375 C16.40062987 9.14087906 17.70265599 10.56844799 19 12 C20.28932365 9.47158608 21.47629143 6.93418664 22.5625 4.3125 C24 1 24 1 25 0 C26.66617115 -0.04063832 28.33388095 -0.042721 30 0 C28.33333333 6.66666667 26.66666667 13.33333333 25 20 C21.92245691 20.43193587 19.97287243 20.68966461 17 20 C14.9220673 18.18558891 13.35889097 16.22911381 11.67578125 14.046875 C9.42364255 11.29601094 7.04843746 9.7844512 4 8 C2.68 11.96 1.36 15.92 0 20 C-1.98 20 -3.96 20 -6 20 C-4.38808348 13.14078075 -2.64031672 6.53792711 0 0 Z " fill="#B5B4B4" transform="translate(204,228)"/>
<path d="M0 0 C0.3449145 1.33038449 0.67516582 2.66457061 1 4 C1.24878906 4.7940625 1.49757812 5.588125 1.75390625 6.40625 C2 9 2 9 0.59375 10.95703125 C-0.44265625 11.87548828 -0.44265625 11.87548828 -1.5 12.8125 C-4.27606035 15.38683971 -6.91133632 17.93626106 -9.375 20.8125 C-13.04975916 25.08704743 -16.85395346 29.23634935 -20.66796875 33.38671875 C-23.92933037 37.04141041 -26.99877602 40.49724604 -29 45 C-29.73080266 43.02253397 -30.39421747 41.01927511 -31 39 C-30.67 38.34 -30.34 37.68 -30 37 C-30.495 35.515 -30.495 35.515 -31 34 C-30.57589844 33.5875 -30.15179688 33.175 -29.71484375 32.75 C-25.99808246 29.09041965 -22.49290042 25.32594108 -19.08984375 21.375 C-15.91422529 17.76607285 -12.63251871 14.25610524 -9.35083008 10.74365234 C-6.10781688 7.25675943 -3.0192163 3.68278032 0 0 Z " fill="#0B0B0B" transform="translate(178,165)"/>
<path d="M0 0 C1.20970459 0.00523682 2.41940918 0.01047363 3.66577148 0.01586914 C4.97094727 0.0190918 6.27612305 0.02231445 7.62084961 0.02563477 C9.00952213 0.03399138 10.39819401 0.04245634 11.78686523 0.05102539 C13.17944179 0.05603873 14.57202005 0.06060193 15.96459961 0.06469727 C19.38456394 0.07653105 22.80444367 0.09301659 26.22436523 0.11352539 C25.84936523 2.55102539 25.84936523 2.55102539 25.22436523 5.11352539 C22.57978145 6.43581729 20.54675222 6.21029733 17.59936523 6.17602539 C16.59647461 6.16700195 15.59358398 6.15797852 14.56030273 6.14868164 C13.78944336 6.13708008 13.01858398 6.12547852 12.22436523 6.11352539 C12.12124023 6.93852539 12.01811523 7.76352539 11.91186523 8.61352539 C11.10790468 12.70641551 9.76084365 16.23892764 8.22436523 20.11352539 C6.24436523 20.11352539 4.26436523 20.11352539 2.22436523 20.11352539 C2.70064498 18.15448794 3.18047946 16.19631442 3.66186523 14.23852539 C3.92870117 13.14797852 4.19553711 12.05743164 4.47045898 10.93383789 C5.22436523 8.11352539 5.22436523 8.11352539 6.22436523 6.11352539 C2.59436523 6.11352539 -1.03563477 6.11352539 -4.77563477 6.11352539 C-3.58223285 0.14651581 -3.58223285 0.14651581 0 0 Z " fill="#F2F1F1" transform="translate(272.775634765625,227.886474609375)"/>
<path d="M0 0 C6 6 6 6 6.25 8.9375 C6.1675 9.948125 6.085 10.95875 6 12 C2.17687355 14.54875097 -0.89902399 14.26671414 -5.3269043 14.22705078 C-6.60040237 14.22748886 -6.60040237 14.22748886 -7.89962769 14.22793579 C-10.70792841 14.22654163 -13.51596433 14.21097636 -16.32421875 14.1953125 C-18.27049108 14.19158268 -20.21676528 14.18873556 -22.16304016 14.18673706 C-27.28737567 14.17909819 -32.41159793 14.15944748 -37.53588867 14.1373291 C-42.76414457 14.11687617 -47.99241876 14.10773652 -53.22070312 14.09765625 C-63.48051852 14.07620186 -73.74024985 14.04206282 -84 14 C-83.67 13.34 -83.34 12.68 -83 12 C-56.6 12 -30.2 12 -3 12 C-2.67 9.03 -2.34 6.06 -2 3 C-1.34 2.01 -0.68 1.02 0 0 Z " fill="#979797" transform="translate(243,200)"/>
<path d="M0 0 C1.16257324 0.01047363 2.32514648 0.02094727 3.52294922 0.03173828 C5.40820312 0.04140625 5.40820312 0.04140625 7.33154297 0.05126953 C9.30960938 0.07640625 9.30960938 0.07640625 11.32763672 0.10205078 C12.66747393 0.11208096 14.00731823 0.12120674 15.34716797 0.12939453 C18.63250244 0.15303003 21.91748137 0.18597844 25.20263672 0.22705078 C24.54263672 1.87705078 23.88263672 3.52705078 23.20263672 5.22705078 C15.61263672 5.55705078 8.02263672 5.88705078 0.20263672 6.22705078 C-1.44736328 10.84705078 -3.09736328 15.46705078 -4.79736328 20.22705078 C-6.77736328 20.22705078 -8.75736328 20.22705078 -10.79736328 20.22705078 C-6.2991033 0.511273 -6.2991033 0.511273 0 0 Z " fill="#EAE8E9" transform="translate(137.79736328125,227.77294921875)"/>
<path d="M0 0 C1.25361328 0.00966797 2.50722656 0.01933594 3.79882812 0.02929688 C5.10916016 0.05443359 6.41949219 0.07957031 7.76953125 0.10546875 C9.10480288 0.12051908 10.44009062 0.13420688 11.77539062 0.14648438 C15.04467701 0.18189181 18.31315218 0.23127985 21.58203125 0.29296875 C20.70703125 4.16796875 20.70703125 4.16796875 19.58203125 5.29296875 C17.80131879 5.38023098 16.01719985 5.39995916 14.234375 5.390625 C13.15478516 5.38740234 12.07519531 5.38417969 10.96289062 5.38085938 C9.82658203 5.37248047 8.69027344 5.36410156 7.51953125 5.35546875 C6.37935547 5.35095703 5.23917969 5.34644531 4.06445312 5.34179688 C1.23692774 5.32996622 -1.59049515 5.31348285 -4.41796875 5.29296875 C-4.41796875 6.61296875 -4.41796875 7.93296875 -4.41796875 9.29296875 C1.85203125 9.29296875 8.12203125 9.29296875 14.58203125 9.29296875 C12.58203125 11.29296875 12.58203125 11.29296875 10.64257812 11.41235352 C9.86978516 11.35362061 9.09699219 11.2948877 8.30078125 11.234375 C7.45902344 11.17830078 6.61726563 11.12222656 5.75 11.06445312 C4.42935547 10.96100586 4.42935547 10.96100586 3.08203125 10.85546875 C1.34280314 10.72687282 -0.39677849 10.60294673 -2.13671875 10.484375 C-2.90951172 10.42451416 -3.68230469 10.36465332 -4.47851562 10.30297852 C-6.50152133 10.14648511 -6.50152133 10.14648511 -8.41796875 11.29296875 C-9.07796875 10.96296875 -9.73796875 10.63296875 -10.41796875 10.29296875 C-9.81354991 3.88612904 -9.81354991 3.88612904 -8.27612305 1.58081055 C-5.52206255 -0.32796216 -3.32073663 -0.04507787 0 0 Z " fill="#E8E6E7" transform="translate(43.41796875,227.70703125)"/>
<path d="M0 0 C1.20970459 0.00523682 2.41940918 0.01047363 3.66577148 0.01586914 C4.97094727 0.0190918 6.27612305 0.02231445 7.62084961 0.02563477 C9.00952213 0.03399138 10.39819401 0.04245634 11.78686523 0.05102539 C13.17944179 0.05603873 14.57202005 0.06060193 15.96459961 0.06469727 C19.38456394 0.07653105 22.80444367 0.09301659 26.22436523 0.11352539 C25.91427639 1.71815988 25.60120236 3.3222177 25.28686523 4.92602539 C25.02583008 6.26600586 25.02583008 6.26600586 24.75952148 7.63305664 C24.22436523 10.11352539 24.22436523 10.11352539 23.22436523 13.11352539 C20.74936523 12.61852539 20.74936523 12.61852539 18.22436523 12.11352539 C18.55436523 9.80352539 18.88436523 7.49352539 19.22436523 5.11352539 C11.30436523 5.11352539 3.38436523 5.11352539 -4.77563477 5.11352539 C-3.53338287 0.14451781 -3.53338287 0.14451781 0 0 Z " fill="#E8E6E7" transform="translate(103.775634765625,227.886474609375)"/>
<path d="M0 0 C2.58445773 -0.1081866 5.16437352 -0.18737237 7.75 -0.25 C8.47960937 -0.28351563 9.20921875 -0.31703125 9.9609375 -0.3515625 C13.50942931 -0.41608053 15.58486379 -0.29349165 18.51953125 1.78125 C20.40322734 4.60430905 20.15375124 6.55160774 19.5625 9.828125 C18.65050165 13.34945197 17.38183235 16.63553863 16 20 C14.02 20 12.04 20 10 20 C10.2165625 19.24074219 10.433125 18.48148438 10.65625 17.69921875 C11.07390625 16.20841797 11.07390625 16.20841797 11.5 14.6875 C11.7784375 13.70136719 12.056875 12.71523437 12.34375 11.69921875 C13.11812196 8.97712797 13.11812196 8.97712797 13 6 C6.07 5.505 6.07 5.505 -1 5 C-0.67 3.35 -0.34 1.7 0 0 Z " fill="#E9E9E9" transform="translate(351,228)"/>
<path d="M0 0 C0.99 0.99 1.98 1.98 3 3 C5.8028729 3.5060736 5.8028729 3.5060736 8.98046875 3.51171875 C10.72553711 3.56489258 10.72553711 3.56489258 12.50585938 3.61914062 C13.72080078 3.64169922 14.93574219 3.66425781 16.1875 3.6875 C17.41404297 3.72166016 18.64058594 3.75582031 19.90429688 3.79101562 C22.93610678 3.8735941 25.96762379 3.94271369 29 4 C28.125 8.875 28.125 8.875 27 10 C24.85441173 10.08775605 22.70595579 10.10695219 20.55859375 10.09765625 C19.25341797 10.09443359 17.94824219 10.09121094 16.60351562 10.08789062 C15.2148431 10.07953401 13.82617123 10.07106905 12.4375 10.0625 C11.04492344 10.05748666 9.65234519 10.05292347 8.25976562 10.04882812 C4.8398013 10.03699434 1.41992156 10.0205088 -2 10 C-1.34 6.7 -0.68 3.4 0 0 Z " fill="#A2A0A1" transform="translate(162,238)"/>
<path d="M0 0 C1.30195313 0.00322266 2.60390625 0.00644531 3.9453125 0.00976562 C5.32552149 0.01812159 6.70572982 0.02658654 8.0859375 0.03515625 C9.47395676 0.04017124 10.86197772 0.04473415 12.25 0.04882812 C15.65368882 0.06064649 19.05729189 0.07712191 22.4609375 0.09765625 C21.4709375 3.39765625 20.4809375 6.69765625 19.4609375 10.09765625 C18.8009375 10.09765625 18.1409375 10.09765625 17.4609375 10.09765625 C17.1309375 10.75765625 16.8009375 11.41765625 16.4609375 12.09765625 C15.8009375 11.76765625 15.1409375 11.43765625 14.4609375 11.09765625 C14.4609375 9.11765625 14.4609375 7.13765625 14.4609375 5.09765625 C6.8709375 5.09765625 -0.7190625 5.09765625 -8.5390625 5.09765625 C-8.5390625 3.77765625 -8.5390625 2.45765625 -8.5390625 1.09765625 C-5.66887809 -0.33743596 -3.20362527 -0.01392881 0 0 Z " fill="#E8E7E8" transform="translate(244.5390625,227.90234375)"/>
<path d="M0 0 C4.96868973 3.87800174 8.93084526 8.20295766 13 13 C14.31014331 14.50205884 15.6225618 16.00213693 16.9375 17.5 C17.95833333 18.66666667 18.97916667 19.83333333 20 21 C19.01 22.32 18.02 23.64 17 25 C13.40025921 24.4278886 11.82208174 23.15017443 9.36328125 20.5078125 C8.37424805 19.45013672 8.37424805 19.45013672 7.36523438 18.37109375 C6.68783203 17.62988281 6.01042969 16.88867188 5.3125 16.125 C4.62349609 15.39152344 3.93449219 14.65804687 3.22460938 13.90234375 C-1.86376728 8.40869816 -1.86376728 8.40869816 -3 5 C-2.01 5 -1.02 5 0 5 C0 3.35 0 1.7 0 0 Z " fill="#0B0B0B" transform="translate(220,165)"/>
<path d="M0 0 C1.20970459 0.00523682 2.41940918 0.01047363 3.66577148 0.01586914 C4.97094727 0.0190918 6.27612305 0.02231445 7.62084961 0.02563477 C9.00952213 0.03399138 10.39819401 0.04245634 11.78686523 0.05102539 C13.17944179 0.05603873 14.57202005 0.06060193 15.96459961 0.06469727 C19.38456394 0.07653105 22.80444367 0.09301659 26.22436523 0.11352539 C21.92517674 4.92125603 21.92517674 4.92125603 18.82080078 5.77294922 C17.60324097 5.79651489 17.60324097 5.79651489 16.36108398 5.82055664 C15.47485352 5.84956055 14.58862305 5.87856445 13.67553711 5.90844727 C12.76352539 5.91424805 11.85151367 5.92004883 10.91186523 5.92602539 C9.98051758 5.95116211 9.04916992 5.97629883 8.08959961 6.00219727 C5.80076337 6.06088537 3.51383098 6.09729707 1.22436523 6.11352539 C0.89436523 6.77352539 0.56436523 7.43352539 0.22436523 8.11352539 C6.49436523 8.11352539 12.76436523 8.11352539 19.22436523 8.11352539 C19.22436523 8.44352539 19.22436523 8.77352539 19.22436523 9.11352539 C11.30436523 9.11352539 3.38436523 9.11352539 -4.77563477 9.11352539 C-4.44563477 8.12352539 -4.11563477 7.13352539 -3.77563477 6.11352539 C-3.77563477 5.24727539 -3.77563477 4.38102539 -3.77563477 3.48852539 C-3.77563477 0.03497223 -3.47063999 0.14195159 0 0 Z " fill="#F6F5F6" transform="translate(70.775634765625,227.886474609375)"/>
<path d="M0 0 C0.66 0.66 1.32 1.32 2 2 C1.19175781 2.86882812 0.38351562 3.73765625 -0.44921875 4.6328125 C-1.52872487 5.79680171 -2.6081475 6.96086835 -3.6875 8.125 C-4.21794922 8.69476563 -4.74839844 9.26453125 -5.29492188 9.8515625 C-7.87063129 12.63269659 -10.34688412 15.42045437 -12.68359375 18.40625 C-15 21 -15 21 -18.375 21.375 C-23.76929068 19.32888974 -27.42133067 15.15733865 -30 10 C-29.34 9.34 -28.68 8.68 -28 8 C-21.53846154 8.46153846 -21.53846154 8.46153846 -19 11 C-18.375 13.125 -18.375 13.125 -18 15 C-15.69 14.34 -13.38 13.68 -11 13 C-10.34 10.03 -9.68 7.06 -9 4 C-6.525 4.495 -6.525 4.495 -4 5 C-2.68 3.35 -1.36 1.7 0 0 Z " fill="#A2A2A2" transform="translate(283,191)"/>
<path d="M0 0 C0.33 0.99 0.66 1.98 1 3 C2.65 2.67 4.3 2.34 6 2 C5.55090939 3.48199902 5.09043436 4.96055236 4.625 6.4375 C4.24214844 7.67306641 4.24214844 7.67306641 3.8515625 8.93359375 C3 11 3 11 1 12 C-1.10528933 12.08543895 -3.21331157 12.10714725 -5.3203125 12.09765625 C-6.57714844 12.09443359 -7.83398438 12.09121094 -9.12890625 12.08789062 C-10.44761719 12.07951172 -11.76632813 12.07113281 -13.125 12.0625 C-14.46484211 12.05748489 -15.804686 12.05292201 -17.14453125 12.04882812 C-20.42973206 12.03701086 -23.71484397 12.02053617 -27 12 C-26.34 9.03 -25.68 6.06 -25 3 C-24.67 3.66 -24.34 4.32 -24 5 C-23.34 5 -22.68 5 -22 5 C-21.67 6.32 -21.34 7.64 -21 9 C-14.73 8.67 -8.46 8.34 -2 8 C-7.94 7.67 -13.88 7.34 -20 7 C-19.67 6.34 -19.34 5.68 -19 5 C-13.06 5.33 -7.12 5.66 -1 6 C-0.67 4.02 -0.34 2.04 0 0 Z " fill="#969595" transform="translate(258,236)"/>
<path d="M0 0 C1.25361328 0.00966797 2.50722656 0.01933594 3.79882812 0.02929688 C5.10916016 0.05443359 6.41949219 0.07957031 7.76953125 0.10546875 C9.10480288 0.12051908 10.44009062 0.13420688 11.77539062 0.14648438 C15.04467701 0.18189181 18.31315218 0.23127985 21.58203125 0.29296875 C21.58203125 0.95296875 21.58203125 1.61296875 21.58203125 2.29296875 C20.59203125 2.29296875 19.60203125 2.29296875 18.58203125 2.29296875 C18.58203125 2.95296875 18.58203125 3.61296875 18.58203125 4.29296875 C15.65716795 5.13488657 13.07461469 5.41116188 10.03515625 5.390625 C9.19082031 5.38740234 8.34648437 5.38417969 7.4765625 5.38085938 C6.60386719 5.37248047 5.73117187 5.36410156 4.83203125 5.35546875 C3.94386719 5.35095703 3.05570312 5.34644531 2.140625 5.34179688 C-0.04564204 5.33004275 -2.23177054 5.31361124 -4.41796875 5.29296875 C-4.74796875 7.27296875 -5.07796875 9.25296875 -5.41796875 11.29296875 C-6.73796875 10.96296875 -8.05796875 10.63296875 -9.41796875 10.29296875 C-9.78239409 3.85478781 -9.78239409 3.85478781 -8.30737305 1.58081055 C-5.52862494 -0.31321921 -3.33558781 -0.04527947 0 0 Z " fill="#F4F3F3" transform="translate(318.41796875,227.70703125)"/>
<path d="M0 0 C6.27 0 12.54 0 19 0 C18.34 2.64 17.68 5.28 17 8 C10.73 8 4.46 8 -2 8 C-1 2 -1 2 0 0 Z " fill="#040304" transform="translate(314,234)"/>
<path d="M0 0 C6.41868512 -0.3633218 6.41868512 -0.3633218 9 1.25 C10 3 10 3 9.6875 5.1875 C9.3471875 6.0846875 9.3471875 6.0846875 9 7 C7.35 7.33 5.7 7.66 4 8 C2.68 11.96 1.36 15.92 0 20 C-1.98 20 -3.96 20 -6 20 C-4.38808348 13.14078075 -2.64031672 6.53792711 0 0 Z " fill="#F4F4F4" transform="translate(204,228)"/>
<path d="M0 0 C7.92 0 15.84 0 24 0 C22 5 22 5 19.6484375 6.3359375 C14.26148043 7.3164329 9.07140925 6.94575437 3.625 6.625 C1.94857422 6.53992188 1.94857422 6.53992188 0.23828125 6.453125 C-2.50851688 6.31226356 -5.25431568 6.16091224 -8 6 C-7.67 4.35 -7.34 2.7 -7 1 C-6.67 1.66 -6.34 2.32 -6 3 C-5.38125 2.835 -4.7625 2.67 -4.125 2.5 C-2 2 -2 2 0 2 C0 1.34 0 0.68 0 0 Z " fill="#B3B0B1" transform="translate(39,235)"/>
<path d="M0 0 C7.59 0 15.18 0 23 0 C22.67 1.65 22.34 3.3 22 5 C19.49502996 6.25248502 17.79146726 6.11374406 14.9921875 6.09765625 C14.00605469 6.09443359 13.01992187 6.09121094 12.00390625 6.08789062 C10.97136719 6.07951172 9.93882812 6.07113281 8.875 6.0625 C7.31458984 6.05573242 7.31458984 6.05573242 5.72265625 6.04882812 C3.14838038 6.03701952 0.57421854 6.02055075 -2 6 C-1.34 4.02 -0.68 2.04 0 0 Z " fill="#9C9B9B" transform="translate(136,242)"/>
<path d="M0 0 C7.59 0 15.18 0 23 0 C20 5 20 5 19 6 C17.5112814 6.08669432 16.018555 6.10703494 14.52734375 6.09765625 C13.62822266 6.09443359 12.72910156 6.09121094 11.80273438 6.08789062 C10.85720703 6.07951172 9.91167969 6.07113281 8.9375 6.0625 C7.98810547 6.05798828 7.03871094 6.05347656 6.06054688 6.04882812 C3.70696935 6.0370011 1.35351523 6.02052025 -1 6 C-0.67 4.02 -0.34 2.04 0 0 Z " fill="#CDCCCD" transform="translate(171,235)"/>
<path d="M0 0 C0.66 0 1.32 0 2 0 C2 1.65 2 3.3 2 5 C9.59 5 17.18 5 25 5 C24.34 7.97 23.68 10.94 23 14 C17.06 14 11.12 14 5 14 C5 13.67 5 13.34 5 13 C12.92 12.505 12.92 12.505 21 12 C21.66 10.35 22.32 8.7 23 7 C19.72815192 7.08084703 16.45817221 7.19368874 13.1875 7.3125 C12.25873047 7.33505859 11.32996094 7.35761719 10.37304688 7.38085938 C9.48037109 7.41630859 8.58769531 7.45175781 7.66796875 7.48828125 C6.84578857 7.51446533 6.0236084 7.54064941 5.17651367 7.56762695 C2.49781235 8.09976156 1.63292815 8.83737271 0 11 C-0.74386068 13.30988315 -1.42190703 15.64315944 -2 18 C-2.99 18 -3.98 18 -5 18 C-3.75971762 11.82777121 -2.10396411 5.93317878 0 0 Z " fill="#232222" transform="translate(234,228)"/>
<path d="M0 0 C0.99 0.33 1.98 0.66 3 1 C1.68 4.96 0.36 8.92 -1 13 C-1.66 13 -2.32 13 -3 13 C-3.33 13.66 -3.66 14.32 -4 15 C-10.6 15 -17.2 15 -24 15 C-24 14.34 -24 13.68 -24 13 C-15.585 12.505 -15.585 12.505 -7 12 C-6.01 9.36 -5.02 6.72 -4 4 C-10.27 4 -16.54 4 -23 4 C-23 3.67 -23 3.34 -23 3 C-15.41 2.67 -7.82 2.34 0 2 C0 1.34 0 0.68 0 0 Z " fill="#BABABA" transform="translate(337,230)"/>
<path d="M0 0 C1.98 0 3.96 0 6 0 C4.27068234 7.00897689 2.16032658 13.50288191 -1 20 C-2.65 20 -4.3 20 -6 20 C-4.85210257 12.90116066 -2.88549626 6.58341381 0 0 Z " fill="#9B9B9B" transform="translate(302,228)"/>
<path d="M0 0 C1.98 0 3.96 0 6 0 C2.08333333 16.91666667 2.08333333 16.91666667 -1 20 C-2.66617115 20.04063832 -4.33388095 20.042721 -6 20 C-4.38808348 13.14078075 -2.64031672 6.53792711 0 0 Z " fill="#939393" transform="translate(343,228)"/>
<path d="M0 0 C0.33 0.66 0.66 1.32 1 2 C-0.25289227 5.41697891 -2.25096517 7.655235 -5 10 C-9.08460026 11.34200755 -13.02821591 10.88696574 -17.25 10.5625 C-17.99507812 10.51029297 -18.74015625 10.45808594 -19.5078125 10.40429688 C-21.33894861 10.2751783 -23.16953813 10.13834886 -25 10 C-25.5625 8.0625 -25.5625 8.0625 -26 6 C-24.39827416 4.39827416 -22.66396918 4.85342933 -20.44921875 4.82421875 C-19.52302734 4.80037109 -18.59683594 4.77652344 -17.64257812 4.75195312 C-15.68446117 4.70924469 -13.7260622 4.67785347 -11.76757812 4.65820312 C-6.13905783 4.5918076 -6.13905783 4.5918076 -1.33203125 1.95703125 C-0.89246094 1.31121094 -0.45289062 0.66539062 0 0 Z " fill="#9B999A" transform="translate(97,228)"/>
<path d="M0 0 C0.66 0.33 1.32 0.66 2 1 C3.81171098 1.15306901 5.6283794 1.24946661 7.4453125 1.31640625 C8.52167969 1.35830078 9.59804687 1.40019531 10.70703125 1.44335938 C12.39892578 1.50233398 12.39892578 1.50233398 14.125 1.5625 C15.26066406 1.60568359 16.39632812 1.64886719 17.56640625 1.69335938 C20.37747768 1.7996604 23.18863945 1.90169405 26 2 C25.01 4.97 24.02 7.94 23 11 C17.06 11 11.12 11 5 11 C5 10.67 5 10.34 5 10 C10.61 10 16.22 10 22 10 C22.33 8.02 22.66 6.04 23 4 C19.74899223 4.0810513 16.49983665 4.19387649 13.25 4.3125 C12.32960938 4.33505859 11.40921875 4.35761719 10.4609375 4.38085938 C9.57148437 4.41630859 8.68203125 4.45175781 7.765625 4.48828125 C6.54020996 4.52755737 6.54020996 4.52755737 5.29003906 4.56762695 C2.54005383 5.08684058 1.09770527 6.19083451 -1 8 C-1.66 7.67 -2.32 7.34 -3 7 C-2.01 4.69 -1.02 2.38 0 0 Z " fill="#262425" transform="translate(97,231)"/>
<path d="M0 0 C0 0.66 0 1.32 0 2 C1.48113281 2.07347656 1.48113281 2.07347656 2.9921875 2.1484375 C4.91417969 2.26058594 4.91417969 2.26058594 6.875 2.375 C8.15117187 2.44460937 9.42734375 2.51421875 10.7421875 2.5859375 C14 3 14 3 16 5 C10.72 5 5.44 5 0 5 C-0.66 7.64 -1.32 10.28 -2 13 C-3.65 13.33 -5.3 13.66 -7 14 C-7.31416607 8.76389884 -6.77647622 5.48507697 -4 1 C-2 0 -2 0 0 0 Z " fill="#E9E7E8" transform="translate(170,228)"/>
<path d="M0 0 C3.96 0 7.92 0 12 0 C12 0.66 12 1.32 12 2 C12.66 2 13.32 2 14 2 C14.33 1.34 14.66 0.68 15 0 C15.66 0.33 16.32 0.66 17 1 C16.36843005 6.05255964 14.86540627 10.29593201 13 15 C11.02 15 9.04 15 7 15 C7.47627975 13.04096255 7.95611423 11.08278903 8.4375 9.125 C8.70433594 8.03445312 8.97117187 6.94390625 9.24609375 5.8203125 C10 3 10 3 11 1 C7.37 1 3.74 1 0 1 C0 0.67 0 0.34 0 0 Z " fill="#B6B4B5" transform="translate(268,233)"/>
<path d="M0 0 C8.91 0 17.82 0 27 0 C27 0.99 27 1.98 27 3 C23.09567879 4.50848774 20.9845855 5.12966528 17 4 C14.24682026 3.77609683 11.50694671 3.58606338 8.75 3.4375 C8.00492188 3.39431641 7.25984375 3.35113281 6.4921875 3.30664062 C4.661651 3.20103275 2.83084824 3.10005799 1 3 C0.67 2.01 0.34 1.02 0 0 Z " fill="#FAF8F9" transform="translate(103,228)"/>
<path d="M0 0 C9.24 0 18.48 0 28 0 C27.34 1.32 26.68 2.64 26 4 C23.375 4.75 23.375 4.75 21 5 C20.67 4.34 20.34 3.68 20 3 C13.73 3 7.46 3 1 3 C0.67 2.01 0.34 1.02 0 0 Z " fill="#F8F7F7" transform="translate(239,228)"/>
<path d="M0 0 C2.97 0.495 2.97 0.495 6 1 C6.33 1.99 6.66 2.98 7 4 C6.31164062 4.67095703 6.31164062 4.67095703 5.609375 5.35546875 C2.79896076 8.12455336 0.17474411 10.76534363 -2.1875 13.9375 C-3.0846875 14.9584375 -3.0846875 14.9584375 -4 16 C-5.32 16 -6.64 16 -8 16 C-8.33 14.35 -8.66 12.7 -9 11 C-8.01 10.34 -7.02 9.68 -6 9 C-5.34 9.33 -4.68 9.66 -4 10 C-3.67 9.34 -3.34 8.68 -3 8 C-2.34 8 -1.68 8 -1 8 C-1 7.01 -1 6.02 -1 5 C-0.34 4.34 0.32 3.68 1 3 C0.34 2.67 -0.32 2.34 -1 2 C-0.67 1.34 -0.34 0.68 0 0 Z " fill="#C8C8C8" transform="translate(290,176)"/>
<path d="M0 0 C1.49828872 3.88235819 0.43110582 6.43449288 -0.9375 10.25 C-1.31777344 11.32765625 -1.69804687 12.4053125 -2.08984375 13.515625 C-2.39019531 14.33546875 -2.69054687 15.1553125 -3 16 C-4.98 16 -6.96 16 -9 16 C-8.7834375 15.25234375 -8.566875 14.5046875 -8.34375 13.734375 C-8.0653125 12.74953125 -7.786875 11.7646875 -7.5 10.75 C-7.2215625 9.77546875 -6.943125 8.8009375 -6.65625 7.796875 C-5.84771134 4.82976587 -5.84771134 4.82976587 -6 1 C-5.34 1 -4.68 1 -4 1 C-3.67 1.66 -3.34 2.32 -3 3 C-2.01 2.01 -1.02 1.02 0 0 Z " fill="#D0D0D0" transform="translate(370,232)"/>
<path d="M0 0 C6.6 0 13.2 0 20 0 C19.67 1.65 19.34 3.3 19 5 C16.2079699 4.8595017 13.41650204 4.71284617 10.625 4.5625 C9.8309375 4.52318359 9.036875 4.48386719 8.21875 4.44335938 C2.2265625 4.11328125 2.2265625 4.11328125 0 3 C0 2.01 0 1.02 0 0 Z " fill="#C8C6C7" transform="translate(237,235)"/>
<path d="M0 0 C6.6 0 13.2 0 20 0 C19.67 1.65 19.34 3.3 19 5 C13.06 4.67 7.12 4.34 1 4 C0.67 2.68 0.34 1.36 0 0 Z " fill="#CBC9CA" transform="translate(100,235)"/>
<path d="M0 0 C0.66 0.66 1.32 1.32 2 2 C0.68 6.62 -0.64 11.24 -2 16 C-2.99 16 -3.98 16 -5 16 C-4.01 12.7 -3.02 9.4 -2 6 C-9.92 6 -17.84 6 -26 6 C-26 5.34 -26 4.68 -26 4 C-24.92516357 3.97812622 -24.92516357 3.97812622 -23.82861328 3.95581055 C-20.59352017 3.88151 -17.35947981 3.78479139 -14.125 3.6875 C-12.99707031 3.66494141 -11.86914062 3.64238281 -10.70703125 3.61914062 C-9.63066406 3.58369141 -8.55429687 3.54824219 -7.4453125 3.51171875 C-5.95281982 3.47244263 -5.95281982 3.47244263 -4.43017578 3.43237305 C-3.22723877 3.21834839 -3.22723877 3.21834839 -2 3 C-1.34 2.01 -0.68 1.02 0 0 Z " fill="#282627" transform="translate(65,229)"/>
<path d="M0 0 C1.16781006 0.00523682 2.33562012 0.01047363 3.53881836 0.01586914 C4.79887695 0.0190918 6.05893555 0.02231445 7.35717773 0.02563477 C8.6976732 0.03399136 10.03816799 0.04245632 11.37866211 0.05102539 C12.72306153 0.05603879 14.06746271 0.06060197 15.41186523 0.06469727 C18.71334151 0.07653051 22.01473014 0.09301568 25.31616211 0.11352539 C24.98616211 0.77352539 24.65616211 1.43352539 24.31616211 2.11352539 C18.47336405 3.15970207 12.73735197 3.238709 6.81616211 3.17602539 C5.99374023 3.17151367 5.17131836 3.16700195 4.32397461 3.16235352 C2.32133815 3.15071028 0.31873984 3.13278095 -1.68383789 3.11352539 C-1.68383789 3.77352539 -1.68383789 4.43352539 -1.68383789 5.11352539 C-2.67383789 5.44352539 -3.66383789 5.77352539 -4.68383789 6.11352539 C-3.61397665 0.15286993 -3.61397665 0.15286993 0 0 Z " fill="#F8F6F7" transform="translate(39.683837890625,227.886474609375)"/>
<path d="M0 0 C9.24 0 18.48 0 28 0 C24.53867696 3.46132304 23.90314854 3.3933211 19.23828125 3.51171875 C18.12001953 3.54716797 17.00175781 3.58261719 15.84960938 3.61914062 C14.68236328 3.64169922 13.51511719 3.66425781 12.3125 3.6875 C11.13365234 3.72166016 9.95480469 3.75582031 8.74023438 3.79101562 C5.82691775 3.87357925 2.91390534 3.94270322 0 4 C0 2.68 0 1.36 0 0 Z " fill="#F8F6F7" transform="translate(135,228)"/>
<path d="M0 0 C1.46484375 1.26953125 2.9296875 2.5390625 4.39453125 3.80859375 C6.10712971 5.20871231 6.10712971 5.20871231 9 6 C9.33 6.99 9.66 7.98 10 9 C10.99 9 11.98 9 13 9 C13.66 10.65 14.32 12.3 15 14 C15.66 13.67 16.32 13.34 17 13 C17 14.65 17 16.3 17 18 C13 18 13 18 11.16894531 16.53125 C10.25773926 15.52578125 10.25773926 15.52578125 9.328125 14.5 C8.66425781 13.778125 8.00039062 13.05625 7.31640625 12.3125 C6.63449219 11.549375 5.95257813 10.78625 5.25 10 C4.55261719 9.236875 3.85523437 8.47375 3.13671875 7.6875 C1.41460248 5.80024929 -0.2969158 3.90441534 -2 2 C-1.34 1.34 -0.68 0.68 0 0 Z " fill="#B5B5B5" transform="translate(102,176)"/>
<path d="M0 0 C0.33 1.32 0.66 2.64 1 4 C1.57073242 3.67854004 2.14146484 3.35708008 2.72949219 3.02587891 C5.10556758 1.95230161 6.74114872 1.69680791 9.328125 1.5859375 C10.12734375 1.54726562 10.9265625 1.50859375 11.75 1.46875 C12.575 1.4378125 13.4 1.406875 14.25 1.375 C15.51070312 1.31699219 15.51070312 1.31699219 16.796875 1.2578125 C18.86423382 1.16384164 20.93208627 1.08084436 23 1 C23.33 1.99 23.66 2.98 24 4 C14.595 4.495 14.595 4.495 5 5 C4.67 5.66 4.34 6.32 4 7 C10.27 7 16.54 7 23 7 C23 7.33 23 7.66 23 8 C15.08 8 7.16 8 -1 8 C-0.67 7.01 -0.34 6.02 0 5 C0.03874921 3.33378384 0.0450286 1.66605828 0 0 Z " fill="#E3E1E2" transform="translate(67,229)"/>
<path d="M0 0 C0.99 0 1.98 0 3 0 C1.375 6.75 1.375 6.75 -2 9 C-4.04296875 9.1953125 -4.04296875 9.1953125 -6.1875 9.125 C-8.0746875 9.063125 -8.0746875 9.063125 -10 9 C-9.67 8.34 -9.34 7.68 -9 7 C-8.34 7.33 -7.68 7.66 -7 8 C-6.67 7.01 -6.34 6.02 -6 5 C-12.93 4.67 -19.86 4.34 -27 4 C-27 3.67 -27 3.34 -27 3 C-18.75 3 -10.5 3 -2 3 C-1.67 2.34 -1.34 1.68 -1 1 C-0.67 0.67 -0.34 0.34 0 0 Z " fill="#8D8A8B" transform="translate(59,239)"/>
<path d="M0 0 C12.01939655 9.70797414 12.01939655 9.70797414 13.875 15.9375 C13.91625 16.618125 13.9575 17.29875 14 18 C11 17 11 17 9 15 C8.01 15.495 8.01 15.495 7 16 C5 11.25 5 11.25 5 9 C4.34 8.67 3.68 8.34 3 8 C0.375 6.0625 0.375 6.0625 -2 4 C-2 3.34 -2 2.68 -2 2 C-1.34 2 -0.68 2 0 2 C0 1.34 0 0.68 0 0 Z " fill="#C4C4C4" transform="translate(219,174)"/>
<path d="M0 0 C0.66 1.32 1.32 2.64 2 4 C0.68 3.34 -0.64 2.68 -2 2 C-1.34 1.34 -0.68 0.68 0 0 Z M-3 3 C-2.34 3.66 -1.68 4.32 -1 5 C-1.6496875 5.5259375 -1.6496875 5.5259375 -2.3125 6.0625 C-4.24118338 8.05600891 -4.24118338 8.05600891 -5.3125 11.375 C-7.3286543 15.70599814 -9.20813265 17.21929728 -13 20 C-13.66 19.34 -14.32 18.68 -15 18 C-12.832705 14.10728568 -10.32586971 10.96290186 -7.3125 7.6875 C-6.50425781 6.80449219 -5.69601563 5.92148438 -4.86328125 5.01171875 C-4.24839844 4.34785156 -3.63351563 3.68398437 -3 3 Z " fill="#D9D9D9" transform="translate(188,164)"/>
<path d="M0 0 C0.66 0.66 1.32 1.32 2 2 C1.01 1.67 0.02 1.34 -1 1 C-0.67 0.67 -0.34 0.34 0 0 Z M-7 3 C-5.68 4.32 -4.36 5.64 -3 7 C-3.33 7.99 -3.66 8.98 -4 10 C-5.65 10.33 -7.3 10.66 -9 11 C-9 11.99 -9 12.98 -9 14 C-7.68 14.66 -6.36 15.32 -5 16 C-7.375 16.625 -7.375 16.625 -10 17 C-12 15 -12 15 -12.4375 12.25 C-11.83839921 7.79953698 -10.06348779 6.21666218 -7 3 Z " fill="#A4A4A4" transform="translate(162,197)"/>
<path d="M0 0 C0.66 0.66 1.32 1.32 2 2 C1.72185092 6.10439497 0.31911985 8.22456348 -2.4375 11.1875 C-3.05496094 11.86167969 -3.67242187 12.53585938 -4.30859375 13.23046875 C-5.52377066 14.50177392 -6.75644225 15.75644225 -8 17 C-8.99 16.67 -9.98 16.34 -11 16 C-10.67 14.02 -10.34 12.04 -10 10 C-9.34 10 -8.68 10 -8 10 C-7.34 9.34 -6.68 8.68 -6 8 C-4.68252676 7.30251417 -3.35085807 6.63040043 -2 6 C-2 4.35 -2 2.7 -2 1 C-1.34 0.67 -0.68 0.34 0 0 Z " fill="#9D9D9D" transform="translate(147,192)"/>
<path d="M0 0 C4.13937592 3.30015998 7.58662205 6.17324411 10 11 C6.67438135 12.76062164 5.40826005 13.10784228 1.6875 12.125 C0.800625 11.75375 -0.08625 11.3825 -1 11 C-0.835 9.9275 -0.67 8.855 -0.5 7.75 C0.08810915 3.96971248 0.08810915 3.96971248 0 0 Z " fill="#E6E6E6" transform="translate(209,163)"/>
<path d="M0 0 C0.33 0.66 0.66 1.32 1 2 C2.65 2 4.3 2 6 2 C5.01 5.3 4.02 8.6 3 12 C1.02 12 -0.96 12 -3 12 C-2.01 8.04 -1.02 4.08 0 0 Z " fill="#A6A4A5" transform="translate(130,236)"/>
<path d="M0 0 C8.58 0 17.16 0 26 0 C26 0.66 26 1.32 26 2 C25.01 2 24.02 2 23 2 C23 2.66 23 3.32 23 4 C22.01 4.33 21.02 4.66 20 5 C19.01 4.34 18.02 3.68 17 3 C15.07255631 2.6373883 15.07255631 2.6373883 12.98828125 2.5859375 C12.23095703 2.54726562 11.47363281 2.50859375 10.69335938 2.46875 C9.90767578 2.4378125 9.12199219 2.406875 8.3125 2.375 C7.11657227 2.31699219 7.11657227 2.31699219 5.89648438 2.2578125 C3.93136525 2.16367506 1.9657146 2.08075368 0 2 C0 1.34 0 0.68 0 0 Z " fill="#F9F8F9" transform="translate(314,228)"/>
<path d="M0 0 C0.66 0.66 1.32 1.32 2 2 C0.09332956 4.15549693 -1.82431955 6.29909904 -3.75 8.4375 C-4.55824219 9.35499023 -4.55824219 9.35499023 -5.3828125 10.29101562 C-5.91132813 10.87431641 -6.43984375 11.45761719 -6.984375 12.05859375 C-7.46616211 12.59798584 -7.94794922 13.13737793 -8.44433594 13.69311523 C-10.25695055 15.21585943 -11.6906441 15.59695204 -14 16 C-13.67 15.01 -13.34 14.02 -13 13 C-12.34 13 -11.68 13 -11 13 C-10.34 10.03 -9.68 7.06 -9 4 C-7.35 4.33 -5.7 4.66 -4 5 C-2.68 3.35 -1.36 1.7 0 0 Z " fill="#A3A3A3" transform="translate(283,191)"/>
<path d="M0 0 C1.59440475 3.18880951 0.90786761 5.70897992 0 9 C1.65 9.33 3.3 9.66 5 10 C5 9.34 5 8.68 5 8 C6.32 8 7.64 8 9 8 C7.48601545 11.78496138 6.9855604 12.0072198 3 14 C0.03 10.7 -2.94 7.4 -6 4 C-4.60804085 1.2160817 -2.84424221 1.02101003 0 0 Z " fill="#AFAFAF" transform="translate(247,184)"/>
<path d="M0 0 C0.66 0.99 1.32 1.98 2 3 C3.32 2.67 4.64 2.34 6 2 C5.01 5.3 4.02 8.6 3 12 C1.02 12 -0.96 12 -3 12 C-2.01 8.04 -1.02 4.08 0 0 Z " fill="#ACACAC" transform="translate(201,236)"/>
<path d="M0 0 C0.83789062 0.16371094 1.67578125 0.32742187 2.5390625 0.49609375 C6.20517307 1.02987283 9.67239385 1.09743025 13.375 1.0625 C14.62023437 1.05347656 15.86546875 1.04445312 17.1484375 1.03515625 C18.08945313 1.02355469 19.03046875 1.01195312 20 1 C20 1.99 20 2.98 20 4 C13.4 4 6.8 4 0 4 C0 2.68 0 1.36 0 0 Z " fill="#ACAAAB" transform="translate(170,237)"/>
<path d="M0 0 C0.103125 0.639375 0.20625 1.27875 0.3125 1.9375 C0.539375 2.618125 0.76625 3.29875 1 4 C1.99 4.33 2.98 4.66 4 5 C3.34 7.97 2.68 10.94 2 14 C0.35 14 -1.3 14 -3 14 C-2.28547412 9.23649415 -1.20465156 4.65798604 0 0 Z " fill="#A9A8A9" transform="translate(308,234)"/>
<path d="M0 0 C0.66 0.66 1.32 1.32 2 2 C3.92901141 2.45974503 3.92901141 2.45974503 6.1328125 2.6328125 C7.34130859 2.75849609 7.34130859 2.75849609 8.57421875 2.88671875 C9.83685547 3.00466797 9.83685547 3.00466797 11.125 3.125 C12.39923828 3.25455078 12.39923828 3.25455078 13.69921875 3.38671875 C15.79869727 3.59902557 17.89926242 3.80053603 20 4 C20 4.33 20 4.66 20 5 C18.74703125 5.03738281 17.4940625 5.07476562 16.203125 5.11328125 C14.55205379 5.17894885 12.90101345 5.24539593 11.25 5.3125 C10.0125 5.34633789 10.0125 5.34633789 8.75 5.38085938 C2.79314143 5.61548917 2.79314143 5.61548917 -2 9 C-2.125 5.625 -2.125 5.625 -2 2 C-1.34 1.34 -0.68 0.68 0 0 Z " fill="#B1B0B0" transform="translate(99,236)"/>
<path d="M0 0 C1.98 0 3.96 0 6 0 C5.34 2.31 4.68 4.62 4 7 C3.34 7 2.68 7 2 7 C1.67 7.99 1.34 8.98 1 10 C0.01 10 -0.98 10 -2 10 C-1.125 2.25 -1.125 2.25 0 0 Z " fill="#DDDBDC" transform="translate(343,228)"/>
<path d="M0 0 C1.4540625 0.0309375 1.4540625 0.0309375 2.9375 0.0625 C2.2775 2.3725 1.6175 4.6825 0.9375 7.0625 C0.2775 7.0625 -0.3825 7.0625 -1.0625 7.0625 C-1.0625 8.0525 -1.0625 9.0425 -1.0625 10.0625 C-2.0525 10.3925 -3.0425 10.7225 -4.0625 11.0625 C-5.721714 7.744072 -4.63509528 4.66985024 -4.0625 1.0625 C-3.0625 0.0625 -3.0625 0.0625 0 0 Z " fill="#D7D6D6" transform="translate(305.0625,227.9375)"/>
<path d="M0 0 C0 1.65 0 3.3 0 5 C-5.28497409 5.44041451 -5.28497409 5.44041451 -8 5 C-10.5 2.5 -10.5 2.5 -12 0 C-10.56359829 -0.19573608 -9.12580496 -0.38127816 -7.6875 -0.5625 C-6.88699219 -0.66691406 -6.08648437 -0.77132812 -5.26171875 -0.87890625 C-3 -1 -3 -1 0 0 Z " fill="#A09F9F" transform="translate(229,243)"/>
<path d="M0 0 C7.92 0 15.84 0 24 0 C24 0.66 24 1.32 24 2 C19.04515817 3.38489368 14.25410852 2.89120615 9.1875 2.5625 C7.86202148 2.48418945 7.86202148 2.48418945 6.50976562 2.40429688 C4.33949592 2.27525381 2.16969307 2.13840044 0 2 C0 1.34 0 0.68 0 0 Z " fill="#C8C6C7" transform="translate(39,235)"/>
<path d="M0 0 C3.45925163 1.2491742 6.14693203 2.67527795 9 5 C9.33 4.34 9.66 3.68 10 3 C10.66 3.33 11.32 3.66 12 4 C12.33 3.34 12.66 2.68 13 2 C13.99 2.66 14.98 3.32 16 4 C14.4375 6.0625 14.4375 6.0625 12 8 C8.5625 8.1875 8.5625 8.1875 5 7 C2.96568987 4.86397436 1.45098568 2.56095629 0 0 Z " fill="#959595" transform="translate(256,204)"/>
<path d="M0 0 C0.99 0.33 1.98 0.66 3 1 C1.77065985 4.68802044 0.06140622 5.72356973 -3 8 C-3.33 6.68 -3.66 5.36 -4 4 C-10.27 4 -16.54 4 -23 4 C-23 3.67 -23 3.34 -23 3 C-15.41 2.67 -7.82 2.34 0 2 C0 1.34 0 0.68 0 0 Z " fill="#B2B1B2" transform="translate(337,230)"/>
<path d="M0 0 C4.75 0.75 4.75 0.75 7 3 C6.625 5.625 6.625 5.625 6 8 C5.01 7.67 4.02 7.34 3 7 C2.01 7.33 1.02 7.66 0 8 C-0.33 6.35 -0.66 4.7 -1 3 C-0.34 3 0.32 3 1 3 C0.67 2.01 0.34 1.02 0 0 Z " fill="#EBEBEB" transform="translate(177,152)"/>
<path d="M0 0 C0.99 0.66 1.98 1.32 3 2 C1.35 7.28 -0.3 12.56 -2 18 C-2.99 17.67 -3.98 17.34 -5 17 C-3.35 11.39 -1.7 5.78 0 0 Z " fill="#151414" transform="translate(340,228)"/>
<path d="M0 0 C0.33 0.66 0.66 1.32 1 2 C1.66 2.33 2.32 2.66 3 3 C1.35 7.95 -0.3 12.9 -2 18 C-2.99 18 -3.98 18 -5 18 C-3.36959185 11.98922864 -1.72852643 5.98336072 0 0 Z " fill="#1A1819" transform="translate(130,228)"/>
<path d="M0 0 C0.78375 0.04125 1.5675 0.0825 2.375 0.125 C1.80155063 2.99224686 1.5135485 3.9864515 -0.625 6.125 C-1.615 7.61 -1.615 7.61 -2.625 9.125 C-3.615 8.465 -4.605 7.805 -5.625 7.125 C-4.53409091 0.21590909 -4.53409091 0.21590909 0 0 Z " fill="#E9E9E9" transform="translate(220.625,151.875)"/>
<path d="M0 0 C0.33 0.66 0.66 1.32 1 2 C1.66 2 2.32 2 3 2 C3.33 3.32 3.66 4.64 4 6 C8.95 6 13.9 6 19 6 C19 6.66 19 7.32 19 8 C16.39472895 8.10792837 13.79391689 8.18724878 11.1875 8.25 C10.44951172 8.28351563 9.71152344 8.31703125 8.95117188 8.3515625 C3.51271677 8.44999608 3.51271677 8.44999608 0.98828125 6.234375 C0 4 0 4 0 0 Z " fill="#A4A3A4" transform="translate(233,239)"/>
<path d="M0 0 C0.33 1.32 0.66 2.64 1 4 C3.88167681 4.80652508 6.56031547 5.17515006 9.546875 5.31640625 C10.39121094 5.35830078 11.23554687 5.40019531 12.10546875 5.44335938 C13.41451172 5.50233398 13.41451172 5.50233398 14.75 5.5625 C15.63816406 5.60568359 16.52632812 5.64886719 17.44140625 5.69335938 C19.62745963 5.79913615 21.81362089 5.90122546 24 6 C22 8 22 8 20.06054688 8.11938477 C19.28775391 8.06065186 18.51496094 8.00191895 17.71875 7.94140625 C16.87699219 7.88533203 16.03523438 7.82925781 15.16796875 7.77148438 C14.28753906 7.70251953 13.40710937 7.63355469 12.5 7.5625 C10.76077189 7.43390407 9.02119026 7.30997798 7.28125 7.19140625 C6.12206055 7.10161499 6.12206055 7.10161499 4.93945312 7.01000977 C2.91644742 6.85351636 2.91644742 6.85351636 1 8 C0.34 7.67 -0.32 7.34 -1 7 C-0.67 4.69 -0.34 2.38 0 0 Z " fill="#D8D6D7" transform="translate(34,231)"/>
<path d="M0 0 C0.99 0.495 0.99 0.495 2 1 C2 2.65 2 4.3 2 6 C1.34 6 0.68 6 0 6 C0 4.02 0 2.04 0 0 Z M9.44921875 0.828125 C11.19687771 0.94773664 12.94314681 1.08921836 14.6875 1.25 C15.58017578 1.31574219 16.47285156 1.38148438 17.39257812 1.44921875 C19.59718985 1.6142699 21.79846902 1.79850717 24 2 C24 2.33 24 2.66 24 3 C16.08 3.495 16.08 3.495 8 4 C8 4.66 8 5.32 8 6 C5.03 5.505 5.03 5.505 2 5 C3.72537426 1.11225714 5.46732937 0.72209123 9.44921875 0.828125 Z " fill="#878686" transform="translate(96,240)"/>
<path d="M0 0 C1.29065057 3.8719517 0.22324098 6.44232601 -0.9375 10.1875 C-1.13279297 10.84169922 -1.32808594 11.49589844 -1.52929688 12.16992188 C-2.01182563 13.78227407 -2.50490205 15.39146289 -3 17 C-3.99 16.67 -4.98 16.34 -6 16 C-5.79503906 15.25234375 -5.59007812 14.5046875 -5.37890625 13.734375 C-5.10949219 12.74953125 -4.84007812 11.7646875 -4.5625 10.75 C-4.29566406 9.77546875 -4.02882813 8.8009375 -3.75390625 7.796875 C-3.2993692 6.11061321 -2.87935604 4.41373018 -2.52734375 2.703125 C-2.35332031 2.14109375 -2.17929687 1.5790625 -2 1 C-1.34 0.67 -0.68 0.34 0 0 Z " fill="#1C1B1C" transform="translate(308,231)"/>
<path d="M0 0 C0.78375 0.04125 1.5675 0.0825 2.375 0.125 C1.715 2.435 1.055 4.745 0.375 7.125 C-1.5625 7.6875 -1.5625 7.6875 -3.625 8.125 C-4.625 7.125 -4.625 7.125 -4.8125 4.6875 C-4.54653904 1.05270021 -3.63803315 0.17323967 0 0 Z " fill="#E0E0E0" transform="translate(231.625,227.875)"/>
<path d="M0 0 C0.99 0.66 1.98 1.32 3 2 C2.75 3.875 2.75 3.875 2 6 C-0.14668494 7.38495802 -1.43871412 8 -4 8 C-4.33 6.35 -4.66 4.7 -5 3 C-4.01 2.34 -3.02 1.68 -2 1 C-1.34 1.33 -0.68 1.66 0 2 C0 1.34 0 0.68 0 0 Z " fill="#B9B9B9" transform="translate(286,184)"/>
<path d="M0 0 C0.66 1.32 1.32 2.64 2 4 C3.32 4 4.64 4 6 4 C5.1875 6.4375 5.1875 6.4375 4 9 C3.01 9.33 2.02 9.66 1 10 C0.34 10.66 -0.32 11.32 -1 12 C-1.14285714 3.42857143 -1.14285714 3.42857143 0 0 Z " fill="#CACACA" transform="translate(203,229)"/>
<path d="M0 0 C0.66 1.32 1.32 2.64 2 4 C1.67 4.33 1.34 4.66 1 5 C5.42682491 6.0390378 9.78934632 6.31592951 14.3125 6.5625 C15.05306641 6.60568359 15.79363281 6.64886719 16.55664062 6.69335938 C18.37091464 6.79870432 20.1854355 6.89978316 22 7 C22 7.33 22 7.66 22 8 C11.11 8.495 11.11 8.495 0 9 C-1.125 3.375 -1.125 3.375 0 0 Z " fill="#C8C5C6" transform="translate(66,231)"/>
<path d="M0 0 C2.5 1.8125 2.5 1.8125 5 4 C5 4.99 5 5.98 5 7 C1.6875 7.25 1.6875 7.25 -2 7 C-3.9375 5 -3.9375 5 -5 3 C-4.360625 2.87625 -3.72125 2.7525 -3.0625 2.625 C-2.0415625 2.315625 -2.0415625 2.315625 -1 2 C-0.67 1.34 -0.34 0.68 0 0 Z " fill="#C8C8C8" transform="translate(214,232)"/>
<path d="M0 0 C0.78375 0.04125 1.5675 0.0825 2.375 0.125 C2.705 1.115 3.035 2.105 3.375 3.125 C2.715 3.125 2.055 3.125 1.375 3.125 C1.045 4.115 0.715 5.105 0.375 6.125 C-1.935 6.125 -4.245 6.125 -6.625 6.125 C-3.85227273 0.18344156 -3.85227273 0.18344156 0 0 Z " fill="#EFEFEF" transform="translate(199.625,153.875)"/>
<path d="M0 0 C0.33 0.99 0.66 1.98 1 3 C-5.27 3 -11.54 3 -18 3 C-18 2.34 -18 1.68 -18 1 C-15.37504621 0.83257698 -12.75004205 0.6660283 -10.125 0.5 C-9.00544922 0.42845703 -9.00544922 0.42845703 -7.86328125 0.35546875 C-2.2265625 0 -2.2265625 0 0 0 Z " fill="#EBEAEB" transform="translate(90,230)"/>
<path d="M0 0 C4.62 0 9.24 0 14 0 C13.67 0.66 13.34 1.32 13 2 C10.05859375 2.6328125 10.05859375 2.6328125 6.4375 3.125 C5.23996094 3.29257813 4.04242188 3.46015625 2.80859375 3.6328125 C1.88175781 3.75398437 0.95492188 3.87515625 0 4 C0 2.68 0 1.36 0 0 Z " fill="#F9F8F9" transform="translate(351,228)"/>
<path d="M0 0 C0.99 0.33 1.98 0.66 3 1 C3 1.66 3 2.32 3 3 C3.66 3 4.32 3 5 3 C5.33 4.32 5.66 5.64 6 7 C4.35 7.33 2.7 7.66 1 8 C-2 4.25 -2 4.25 -2 2 C-1.34 2 -0.68 2 0 2 C0 1.34 0 0.68 0 0 Z " fill="#E7E7E7" transform="translate(90,160)"/>
<path d="M0 0 C1.46484375 1.26953125 2.9296875 2.5390625 4.39453125 3.80859375 C6.10712971 5.20871231 6.10712971 5.20871231 9 6 C9.6875 8.0625 9.6875 8.0625 10 10 C9.01 10.33 8.02 10.66 7 11 C4.03 8.03 1.06 5.06 -2 2 C-1.34 1.34 -0.68 0.68 0 0 Z " fill="#BFBFBF" transform="translate(102,176)"/>
<path d="M0 0 C-0.99 1.485 -0.99 1.485 -2 3 C-5.0390625 3.29296875 -5.0390625 3.29296875 -8.625 3.1875 C-9.81351563 3.16042969 -11.00203125 3.13335937 -12.2265625 3.10546875 C-13.59941406 3.05326172 -13.59941406 3.05326172 -15 3 C-14.67 2.34 -14.34 1.68 -14 1 C-11.6015625 0.33203125 -11.6015625 0.33203125 -8.625 -0.1875 C-7.64789063 -0.36667969 -6.67078125 -0.54585937 -5.6640625 -0.73046875 C-3 -1 -3 -1 0 0 Z " fill="#9B999A" transform="translate(191,245)"/>
<path d="M0 0 C0.66 0.66 1.32 1.32 2 2 C1.34 3.65 0.68 5.3 0 7 C-0.66 7 -1.32 7 -2 7 C-2.33 7.66 -2.66 8.32 -3 9 C-3.66 8.67 -4.32 8.34 -5 8 C-5 6.02 -5 4.04 -5 2 C-3.35 2 -1.7 2 0 2 C0 1.34 0 0.68 0 0 Z " fill="#D3D3D3" transform="translate(264,231)"/>
<path d="M0 0 C0.66 1.32 1.32 2.64 2 4 C2.99 4 3.98 4 5 4 C4.67 5.65 4.34 7.3 4 9 C2.02 9 0.04 9 -2 9 C-1.34 6.03 -0.68 3.06 0 0 Z " fill="#969696" transform="translate(363,239)"/>
<path d="M0 0 C0.33 0.66 0.66 1.32 1 2 C-4.28 2 -9.56 2 -15 2 C-15 1.34 -15 0.68 -15 0 C-13.25093341 -0.19601608 -11.50068154 -0.38147403 -9.75 -0.5625 C-8.77546875 -0.66691406 -7.8009375 -0.77132812 -6.796875 -0.87890625 C-4.21340534 -0.99076038 -2.40387135 -0.92074889 0 0 Z " fill="#EBEAEA" transform="translate(332,231)"/>
<path d="M0 0 C0.66 0.33 1.32 0.66 2 1 C-0.31 3.64 -2.62 6.28 -5 9 C-7.35953094 6.64046906 -7.49141413 5.22104383 -8 2 C-7.236875 1.855625 -6.47375 1.71125 -5.6875 1.5625 C-2.91827092 1.0367406 -2.91827092 1.0367406 0 0 Z " fill="#B3B3B3" transform="translate(160,183)"/>
<path d="M0 0 C1.01423522 3.04270565 1.47379119 4.84139207 1 8 C-1.5 9.8125 -1.5 9.8125 -4 11 C-4.8125 8.875 -4.8125 8.875 -5 6 C-3.55576519 3.69892439 -1.89127865 1.98353614 0 0 Z " fill="#C3C3C3" transform="translate(173,180)"/>
<path d="M0 0 C0.33 0.66 0.66 1.32 1 2 C1.51046875 1.81566406 2.0209375 1.63132813 2.546875 1.44140625 C5.94266536 0.83038028 8.85084167 1.4024473 12.25 1.9375 C14.14492187 2.22947266 14.14492187 2.22947266 16.078125 2.52734375 C17.04234375 2.68332031 18.0065625 2.83929688 19 3 C19 3.33 19 3.66 19 4 C12.73 4 6.46 4 0 4 C0 2.68 0 1.36 0 0 Z " fill="#969696" transform="translate(95,244)"/>
<path d="M0 0 C0.66 0.66 1.32 1.32 2 2 C1.67 3.32 1.34 4.64 1 6 C5.62 6 10.24 6 15 6 C15 6.33 15 6.66 15 7 C13.95199219 7.03738281 12.90398437 7.07476562 11.82421875 7.11328125 C10.44527695 7.17894515 9.06637229 7.24539235 7.6875 7.3125 C6.65206055 7.34633789 6.65206055 7.34633789 5.59570312 7.38085938 C1.23210764 7.61274126 0.22799347 7.77200653 -3 11 C-2.01 7.37 -1.02 3.74 0 0 Z " fill="#4B4A4B" transform="translate(349,227)"/>
<path d="M0 0 C1.70884005 1.62339805 3.37446717 3.29319053 5 5 C5 5.66 5 6.32 5 7 C2.69 7.33 0.38 7.66 -2 8 C-2.20086443 4.28400809 -2.1519437 3.22791555 0 0 Z " fill="#A2A2A2" transform="translate(243,200)"/>
<path d="M0 0 C1.21236328 0.04060547 1.21236328 0.04060547 2.44921875 0.08203125 C3.06410156 0.11683594 3.67898438 0.15164062 4.3125 0.1875 C4.6425 0.8475 4.9725 1.5075 5.3125 2.1875 C2.66791621 3.50979189 0.63488699 3.28427194 -2.3125 3.25 C-3.31539063 3.24097656 -4.31828125 3.23195312 -5.3515625 3.22265625 C-6.12242187 3.21105469 -6.89328125 3.19945312 -7.6875 3.1875 C-5.26849268 0.20484049 -3.789448 -0.16475861 0 0 Z " fill="#BFBEBE" transform="translate(292.6875,230.8125)"/>
<path d="M0 0 C2.62187494 1.04874998 3.79371361 1.64931313 5.25 4.125 C5.4975 4.74375 5.745 5.3625 6 6 C4.35 6.66 2.7 7.32 1 8 C0.34 7.34 -0.32 6.68 -1 6 C-0.625 2.875 -0.625 2.875 0 0 Z " fill="#DADADA" transform="translate(213,168)"/>
<path d="M0 0 C0.66 0 1.32 0 2 0 C1.34 2.31 0.68 4.62 0 7 C-1.98 7 -3.96 7 -6 7 C-5.67 5.35 -5.34 3.7 -5 2 C-3.68 2 -2.36 2 -1 2 C-0.67 1.34 -0.34 0.68 0 0 Z " fill="#999999" transform="translate(281,241)"/>
<path d="M0 0 C0.66 0.33 1.32 0.66 2 1 C1.34 2.98 0.68 4.96 0 7 C-1.65 6.67 -3.3 6.34 -5 6 C-5 4.35 -5 2.7 -5 1 C-3.68 1.33 -2.36 1.66 -1 2 C-0.67 1.34 -0.34 0.68 0 0 Z " fill="#C3C1C2" transform="translate(127,234)"/>
<path d="M0 0 C0.66 0.99 1.32 1.98 2 3 C3.65 2.01 5.3 1.02 7 0 C6.34 1.65 5.68 3.3 5 5 C4.34 5 3.68 5 3 5 C2.67 5.99 2.34 6.98 2 8 C1.01 8 0.02 8 -1 8 C-0.67 5.36 -0.34 2.72 0 0 Z " fill="#ABAAAB" transform="translate(278,236)"/>
<path d="M0 0 C1 2 1 2 1 5 C0.67 5.99 0.34 6.98 0 8 C-3.16115776 6.63016497 -3.9927092 6.0109362 -6 3 C-4.02 2.01 -2.04 1.02 0 0 Z " fill="#BEBEBE" transform="translate(247,184)"/>
<path d="M0 0 C0.33 0.99 0.66 1.98 1 3 C2.65 2.67 4.3 2.34 6 2 C5.34 3.65 4.68 5.3 4 7 C2.35 7 0.7 7 -1 7 C-0.67 4.69 -0.34 2.38 0 0 Z " fill="#959494" transform="translate(63,241)"/>
<path d="M0 0 C0.33 0 0.66 0 1 0 C1 1.98 1 3.96 1 6 C1.99 6 2.98 6 4 6 C4 5.01 4 4.02 4 3 C4.66 3.33 5.32 3.66 6 4 C5.25 6.4375 5.25 6.4375 4 9 C1.9375 9.875 1.9375 9.875 0 10 C-0.33 9.67 -0.66 9.34 -1 9 C-0.91062197 7.47480724 -0.75462854 5.95318071 -0.5625 4.4375 C-0.46066406 3.61121094 -0.35882813 2.78492188 -0.25390625 1.93359375 C-0.17011719 1.29550781 -0.08632813 0.65742188 0 0 Z " fill="#BABABA" transform="translate(300,232)"/>
<path d="M0 0 C6.93 0 13.86 0 21 0 C21 0.99 21 1.98 21 3 C20.34644531 2.84660156 19.69289063 2.69320312 19.01953125 2.53515625 C15.24507841 1.86620406 11.51094004 1.64592703 7.6875 1.4375 C6.94693359 1.39431641 6.20636719 1.35113281 5.44335938 1.30664062 C3.62908536 1.20129568 1.8145645 1.10021684 0 1 C0 0.67 0 0.34 0 0 Z " fill="#F4F2F3" transform="translate(104,230)"/>
<path d="M0 0 C4.6875 3.61328125 4.6875 3.61328125 6 5 C6 5.99 6 6.98 6 8 C3.0280615 6.87548273 0.66559313 5.77706209 -2 4 C-2 3.34 -2 2.68 -2 2 C-1.34 2 -0.68 2 0 2 C0 1.34 0 0.68 0 0 Z " fill="#D6D6D6" transform="translate(219,174)"/>
<path d="M0 0 C2.97 0.495 2.97 0.495 6 1 C5.67 2.32 5.34 3.64 5 5 C3.02 5 1.04 5 -1 5 C-0.67 3.35 -0.34 1.7 0 0 Z " fill="#929292" transform="translate(199,243)"/>
<path d="M0 0 C-0.33 0.66 -0.66 1.32 -1 2 C-6.94 1.67 -12.88 1.34 -19 1 C-19 0.67 -19 0.34 -19 0 C-16.39619004 -0.19476139 -13.79224467 -0.38108614 -11.1875 -0.5625 C-10.44951172 -0.61857422 -9.71152344 -0.67464844 -8.95117188 -0.73242188 C-5.63211484 -0.95769724 -3.18767436 -1.06255812 0 0 Z " fill="#C5C3C4" transform="translate(120,238)"/>
<path d="M0 0 C0.99 0 1.98 0 3 0 C4.125 3.75 4.125 3.75 3 6 C1.35 5.67 -0.3 5.34 -2 5 C-2 2 -2 2 0 0 Z " fill="#060606" transform="translate(217,164)"/>
<path d="M0 0 C1.65 0.99 3.3 1.98 5 3 C4.67 4.32 4.34 5.64 4 7 C2.35 7.33 0.7 7.66 -1 8 C-0.67 5.36 -0.34 2.72 0 0 Z " fill="#ADAAAB" transform="translate(121,238)"/>
<path d="M0 0 C0.66 0.33 1.32 0.66 2 1 C1.67 1.99 1.34 2.98 1 4 C0.34 4 -0.32 4 -1 4 C-1.33 4.99 -1.66 5.98 -2 7 C-2.99 7.33 -3.98 7.66 -5 8 C-5 5.69 -5 3.38 -5 1 C-3.68 1.33 -2.36 1.66 -1 2 C-0.67 1.34 -0.34 0.68 0 0 Z " fill="#BFBEBF" transform="translate(345,235)"/>
<path d="M0 0 C0.33 0.66 0.66 1.32 1 2 C2.32 1.67 3.64 1.34 5 1 C5.33 1.66 5.66 2.32 6 3 C5.67 3.99 5.34 4.98 5 6 C3.35 6.33 1.7 6.66 0 7 C0 4.69 0 2.38 0 0 Z " fill="#C2C0C1" transform="translate(163,235)"/>
<path d="M0 0 C0.99 0.33 1.98 0.66 3 1 C2.34 2.98 1.68 4.96 1 7 C-0.98 7.33 -2.96 7.66 -5 8 C-5 6.68 -5 5.36 -5 4 C-3.35 3.67 -1.7 3.34 0 3 C0 2.01 0 1.02 0 0 Z " fill="#E3E2E2" transform="translate(193,228)"/>
<path d="M0 0 C-1 3 -1 3 -3 4 C-5.6723621 4.13415472 -8.32250488 4.04318541 -11 4 C-10.67 3.34 -10.34 2.68 -10 2 C-9.34 2.33 -8.68 2.66 -8 3 C-7.67 2.34 -7.34 1.68 -7 1 C-4.51587793 0.17195931 -2.64779693 0 0 0 Z " fill="#939192" transform="translate(60,244)"/>
<path d="M0 0 C1.32 0.66 2.64 1.32 4 2 C2.35 3.65 0.7 5.3 -1 7 C-1.66 6.34 -2.32 5.68 -3 5 C-2.01 3.35 -1.02 1.7 0 0 Z " fill="#CFCFCF" transform="translate(176,177)"/>
<path d="M0 0 C1.65 0.99 3.3 1.98 5 3 C4.67 4.65 4.34 6.3 4 8 C2.68 7.67 1.36 7.34 0 7 C0 4.69 0 2.38 0 0 Z " fill="#CFCDCE" transform="translate(309,231)"/>
<path d="M0 0 C2.0625 0.4375 2.0625 0.4375 4 1 C3.67 2.65 3.34 4.3 3 6 C1.68 6 0.36 6 -1 6 C-1.042721 4.33388095 -1.04063832 2.66617115 -1 1 C-0.67 0.67 -0.34 0.34 0 0 Z " fill="#E6E5E6" transform="translate(302,228)"/>
<path d="M0 0 C4.455 0.99 4.455 0.99 9 2 C8.67 2.66 8.34 3.32 8 4 C5.03 4 2.06 4 -1 4 C-0.67 2.68 -0.34 1.36 0 0 Z " fill="#969596" transform="translate(30,244)"/>
<path d="M0 0 C0.433125 0.495 0.86625 0.99 1.3125 1.5 C2.99740483 3.33218192 2.99740483 3.33218192 6 3 C5.67 4.32 5.34 5.64 5 7 C3.35 7 1.7 7 0 7 C0 4.69 0 2.38 0 0 Z " fill="#A9A6A7" transform="translate(162,238)"/>
<path d="M0 0 C1.485 0.99 1.485 0.99 3 2 C3.99 2.33 4.98 2.66 6 3 C5.67 3.99 5.34 4.98 5 6 C3 6.75 3 6.75 1 7 C0 6 0 6 -0.0625 2.9375 C-0.041875 1.968125 -0.02125 0.99875 0 0 Z " fill="#B4B4B4" transform="translate(364,237)"/>
<path d="M0 0 C0.99 0.66 1.98 1.32 3 2 C2.34 4.31 1.68 6.62 1 9 C0.01 9 -0.98 9 -2 9 C-1.34 6.03 -0.68 3.06 0 0 Z " fill="#191718" transform="translate(231,237)"/>
<path d="M0 0 C2.97 0.495 2.97 0.495 6 1 C5.6875 2.9375 5.6875 2.9375 5 5 C4.01 5.33 3.02 5.66 2 6 C1.34 5.67 0.68 5.34 0 5 C0 3.35 0 1.7 0 0 Z " fill="#D1CFD0" transform="translate(131,233)"/>
<path d="M0 0 C4.62 0 9.24 0 14 0 C14.33 0.66 14.66 1.32 15 2 C11.25 3.125 11.25 3.125 9 2 C7.46331135 1.77532169 5.92031946 1.59203195 4.375 1.4375 C3.55773437 1.35371094 2.74046875 1.26992187 1.8984375 1.18359375 C1.27195313 1.12300781 0.64546875 1.06242188 0 1 C0 0.67 0 0.34 0 0 Z " fill="#F3F1F2" transform="translate(175,230)"/>
<path d="M0 0 C1.98 0 3.96 0 6 0 C5.1875 1.9375 5.1875 1.9375 4 4 C3.01 4.33 2.02 4.66 1 5 C0.67 3.35 0.34 1.7 0 0 Z " fill="#F2F0F1" transform="translate(343,228)"/>
<path d="M0 0 C2.31 0 4.62 0 7 0 C7.33 0.66 7.66 1.32 8 2 C8.66 2.33 9.32 2.66 10 3 C9.67 3.33 9.34 3.66 9 4 C5.5625 3.75 5.5625 3.75 2 3 C1.34 2.01 0.68 1.02 0 0 Z " fill="#888888" transform="translate(128,208)"/>
<path d="M0 0 C1.98 0.99 3.96 1.98 6 3 C5.01 4.32 4.02 5.64 3 7 C3 6.34 3 5.68 3 5 C1.68 4.34 0.36 3.68 -1 3 C-0.67 2.01 -0.34 1.02 0 0 Z " fill="#D2D2D2" transform="translate(105,176)"/>
<path d="M0 0 C1.9375 0.75 1.9375 0.75 4 2 C4.75 4.125 4.75 4.125 5 6 C3.02 5.34 1.04 4.68 -1 4 C-1 1 -1 1 0 0 Z " fill="#EAEAEA" transform="translate(203,157)"/>
<path d="M0 0 C0.66 0.66 1.32 1.32 2 2 C0 4 0 4 -3.625 4.125 C-4.73875 4.08375 -5.8525 4.0425 -7 4 C-7.33 3.34 -7.66 2.68 -8 2 C-6.865625 1.855625 -5.73125 1.71125 -4.5625 1.5625 C-1.19222799 1.38828522 -1.19222799 1.38828522 0 0 Z " fill="#939192" transform="translate(123,244)"/>
<path d="M0 0 C0.99 1.485 0.99 1.485 2 3 C2.99 2.01 3.98 1.02 5 0 C5.66 0.33 6.32 0.66 7 1 C6.34 2.65 5.68 4.3 5 6 C3.35 6 1.7 6 0 6 C0 4.02 0 2.04 0 0 Z " fill="#A5A5A5" transform="translate(339,239)"/>
<path d="M0 0 C0.61875 0.33 1.2375 0.66 1.875 1 C3.91018344 2.14193235 3.91018344 2.14193235 6 2 C5.67 2.99 5.34 3.98 5 5 C2.4375 6.1875 2.4375 6.1875 0 7 C0 4.69 0 2.38 0 0 Z " fill="#C7C7C7" transform="translate(226,233)"/>
<path d="M0 0 C0.99 0.66 1.98 1.32 3 2 C2.67 3.32 2.34 4.64 2 6 C0.68 6 -0.64 6 -2 6 C-2 4.68 -2 3.36 -2 2 C-1.34 2 -0.68 2 0 2 C0 1.34 0 0.68 0 0 Z " fill="#E6E6E6" transform="translate(211,229)"/>
<path d="M0 0 C0.66 0 1.32 0 2 0 C2 0.99 2 1.98 2 3 C2.66 3.66 3.32 4.32 4 5 C2.35 5.66 0.7 6.32 -1 7 C-1.625 4.625 -1.625 4.625 -2 2 C-1.34 1.34 -0.68 0.68 0 0 Z " fill="#E7E5E6" transform="translate(312,228)"/>
<path d="M0 0 C0.66 0.66 1.32 1.32 2 2 C1.625 4.625 1.625 4.625 1 7 C0.01 6.67 -0.98 6.34 -2 6 C-2 4.35 -2 2.7 -2 1 C-1.34 0.67 -0.68 0.34 0 0 Z " fill="#B0B0B0" transform="translate(147,192)"/>
<path d="M0 0 C0.66 0.33 1.32 0.66 2 1 C2 1.66 2 2.32 2 3 C2.99 2.67 3.98 2.34 5 2 C5.66 3.65 6.32 5.3 7 7 C4 7 4 7 2.61328125 5.6875 C1.40885417 4.125 0.20442708 2.5625 -1 1 C-0.67 0.67 -0.34 0.34 0 0 Z " fill="#B5B5B5" transform="translate(235,179)"/>
<path d="M0 0 C2.475 0.99 2.475 0.99 5 2 C5 2.66 5 3.32 5 4 C2.36 4 -0.28 4 -3 4 C-2.01 2.68 -1.02 1.36 0 0 Z " fill="#8F8E8F" transform="translate(224,244)"/>
<path d="M0 0 C2 3 2 3 2 5 C2.66 5 3.32 5 4 5 C3.67 5.66 3.34 6.32 3 7 C1.68 7 0.36 7 -1 7 C-0.67 4.69 -0.34 2.38 0 0 Z " fill="#D6D4D5" transform="translate(165,230)"/>
<path d="M0 0 C0.66 1.32 1.32 2.64 2 4 C2.66 4 3.32 4 4 4 C2.25 7.875 2.25 7.875 0 9 C0 6.03 0 3.06 0 0 Z " fill="#D7D7D7" transform="translate(203,229)"/>
<path d="M0 0 C0.33 0.99 0.66 1.98 1 3 C-1.57784846 5.64752004 -3.91648098 7.94432065 -7 10 C-5.33248852 6.05860922 -2.77289351 3.2107188 0 0 Z " fill="#1F1F1F" transform="translate(314,159)"/>
<path d="M0 0 C0.33 0.99 0.66 1.98 1 3 C3.00016466 4.20882096 3.00016466 4.20882096 5 5 C5 5.33 5 5.66 5 6 C3.02 6 1.04 6 -1 6 C-0.67 4.02 -0.34 2.04 0 0 Z " fill="#959394" transform="translate(161,242)"/>
<path d="M0 0 C-0.1875 1.875 -0.1875 1.875 -1 4 C-3.5625 5.25 -3.5625 5.25 -6 6 C-5.67 4.35 -5.34 2.7 -5 1 C-2 0 -2 0 0 0 Z " fill="#A8A5A6" transform="translate(135,241)"/>
<path d="M0 0 C1.65 0 3.3 0 5 0 C4.67 0.99 4.34 1.98 4 3 C2.35 3.33 0.7 3.66 -1 4 C-0.67 2.68 -0.34 1.36 0 0 Z " fill="#F0F0F0" transform="translate(229,228)"/>
<path d="M0 0 C1.32 0.66 2.64 1.32 4 2 C2.71034824 3.37562854 1.37310707 4.70766393 0 6 C-0.66 6 -1.32 6 -2 6 C-1.49396008 3.83125748 -1.00016187 2.00032373 0 0 Z " fill="#898989" transform="translate(268,206)"/>
<path d="M0 0 C0.99 0.33 1.98 0.66 3 1 C-0.465 3.97 -0.465 3.97 -4 7 C-4 4 -4 4 -2 1.8125 C-1.34 1.214375 -0.68 0.61625 0 0 Z " fill="#0F0F0F" transform="translate(277,201)"/>
<path d="M0 0 C0.66 0.33 1.32 0.66 2 1 C1.3125 2.9375 1.3125 2.9375 0 5 C-2.625 5.75 -2.625 5.75 -5 6 C-3.35 4.02 -1.7 2.04 0 0 Z " fill="#B2B2B2" transform="translate(167,187)"/>
<path d="M0 0 C0.93065133 2.60582371 1.14917407 3.64198224 0.0625 6.25 C-0.4634375 7.11625 -0.4634375 7.11625 -1 8 C-1.66 7.67 -2.32 7.34 -3 7 C-1.125 1.125 -1.125 1.125 0 0 Z " fill="#151515" transform="translate(305,240)"/>
<path d="M0 0 C0.66 0.33 1.32 0.66 2 1 C1.34 2.32 0.68 3.64 0 5 C-0.99 5 -1.98 5 -3 5 C-3.33 5.66 -3.66 6.32 -4 7 C-4 5.35 -4 3.7 -4 2 C-3.01 2.495 -3.01 2.495 -2 3 C-1.34 2.01 -0.68 1.02 0 0 Z " fill="#C7C6C7" transform="translate(337,234)"/>
<path d="M0 0 C0.66 0 1.32 0 2 0 C2.33 0.99 2.66 1.98 3 3 C2.67 3.66 2.34 4.32 2 5 C0.68 5 -0.64 5 -2 5 C-1.125 1.125 -1.125 1.125 0 0 Z " fill="#DAD8D9" transform="translate(101,228)"/>
<path d="M0 0 C1.485 0.99 1.485 0.99 3 2 C2.34 3.65 1.68 5.3 1 7 C0.34 7 -0.32 7 -1 7 C-0.67 4.69 -0.34 2.38 0 0 Z " fill="#252324" transform="translate(340,228)"/>
<path d="M0 0 C1.98 0.66 3.96 1.32 6 2 C5.67 2.66 5.34 3.32 5 4 C3.35 3.67 1.7 3.34 0 3 C0 2.01 0 1.02 0 0 Z " fill="#8C8C8C" transform="translate(151,210)"/>
<path d="M0 0 C1.32 0 2.64 0 4 0 C3.6875 1.875 3.6875 1.875 3 4 C2.01 4.66 1.02 5.32 0 6 C-0.38218767 4.34385343 -0.71395102 2.67542976 -1 1 C-0.67 0.67 -0.34 0.34 0 0 Z " fill="#C3C3C3" transform="translate(153,184)"/>
<path d="M0 0 C0.66 0 1.32 0 2 0 C2.6875 1.8125 2.6875 1.8125 3 4 C1.5625 5.75 1.5625 5.75 0 7 C-1.125 2.25 -1.125 2.25 0 0 Z " fill="#E8E8E8" transform="translate(85,153)"/>
</svg>
