<svg width="256" height="256" viewBox="0 0 256 256" fill="none" xmlns="http://www.w3.org/2000/svg">
<g clip-path="url(#clip0_741_46)">
<path d="M256 128C256 198.692 198.692 256 128 256C57.3075 256 0 198.692 0 128C0 57.3075 57.3075 0 128 0C198.692 0 256 57.3075 256 128Z" fill="#5E12A0"/>
<path d="M214.502 66.6224C212.565 59.1713 206.352 51.6894 195.158 43.407C186.178 36.7871 176.645 33 169.049 33C167.542 33 166.158 33.1539 164.774 33.4311C161.33 34.1392 158.285 36.664 156.347 40.4819C154.011 44.9772 153.457 51.0428 154.964 54.7068C155.517 55.846 156.194 57.2316 157.024 58.494C149.705 62.9893 145.553 64.2516 145 64.4055C164.067 70.8714 179.936 84.3881 189.869 102L189.992 100.306C190.392 95.657 191.775 90.3001 193.712 84.8191C195.65 85.3734 197.587 85.6505 199.525 85.6505C204.63 85.6505 209.059 83.526 211.826 79.7389C214.625 75.8901 215.732 70.8406 214.502 66.6224Z" fill="#5E12A0"/>
<path d="M194.705 80.6747C207.258 84.1948 212.353 74.314 210.696 67.6755C208.916 61.0368 203.115 54.2747 192.925 46.6481C182.734 39.0214 172.39 35.9337 165.761 37.3232C159.13 38.7435 157.228 49.0565 158.885 53.0088C159.56 54.5526 161.095 56.8066 163.152 59.3695C160.543 61.1912 158.057 62.6116 156 63.8776C168.677 69.6516 179.695 78.6986 187.983 90C188.934 86.2018 190.316 82.8053 191.574 79.8411C192.495 79.9646 193.6 80.2424 194.705 80.6747Z" fill="url(#paint0_radial_741_46)"/>
<path d="M123 219C165.519 219 200 183.641 200 140C200 96.3586 165.519 61 123 61C80.4812 61 46 96.3586 46 140C46 183.641 80.4812 219 123 219Z" fill="url(#paint1_radial_741_46)"/>
<path opacity="0.6" d="M204.632 61.4659C194.186 50.0386 185.365 47.0413 174.798 44.6059C166.558 42.6077 168.733 37.7683 178.78 38.7674C173.971 37.0502 169.438 36.613 166.129 37.3311C159.514 38.7674 157.614 49.1955 159.237 53.192C159.911 54.7531 161.443 57.0324 163.495 59.6238C159.789 62.184 156.634 64.0573 154 65.4623C155.225 66.0243 156.756 66.7424 158.533 67.7416C163.219 70.3018 168.304 74.5792 168.304 74.5792C160.616 67.7416 162.239 64.5881 172.837 56.8762C176.145 54.4409 182.179 54.7219 187.815 57.7192C193.452 60.7166 200.067 68.2723 200.067 68.2723L193.727 80.8236C194.125 80.9797 194.554 81.1047 194.952 81.2608C198.934 82.416 202.089 82.1038 204.57 81.1047C207.541 79.2938 215.107 73.0181 204.632 61.4659Z" fill="#A98698"/>
<path d="M174.108 51.6802C176.896 52.8173 180.52 54.7843 184.95 57.7346C190.247 61.2383 194.831 65.1721 197.743 68.2762C192.88 74.7303 189.689 83.5815 187.738 89.7899C188.698 91.2033 189.813 92.5865 190.805 94C191.765 90.4962 193.438 85.2718 195.668 80.0779C196.225 80.2315 196.907 80.2315 197.619 80.2315C199.292 80.2315 201.244 79.955 202.761 78.6949C203.877 77.8651 205.115 76.2977 204.991 73.5009C204.991 70.8271 202.916 67.4464 198.579 63.3896C195.512 60.4392 191.362 57.2122 187.18 54.2618C175.224 46.2404 166.86 43.9968 163.112 47.8078C160.603 50.3279 160.882 53.432 161.718 55.6755C157.257 58.6259 153.509 60.7466 151 62.1296C152.673 62.6828 154.19 63.3896 155.863 64.0965C160.324 61.6378 166.736 57.581 174.108 51.6802ZM200.376 71.7798C200.778 72.4867 200.934 73.1936 200.934 73.5931C200.934 74.8532 200.531 75.2835 200.252 75.56C199.695 75.9903 198.579 76.2669 197.619 76.2669C198.425 74.5766 199.416 73.1628 200.376 71.7798ZM166.024 50.8197C166.426 50.3894 167.541 50.1128 169.369 50.3894C167.975 51.5265 166.581 52.51 165.187 53.4935C165.063 52.51 165.187 51.5265 166.024 50.8197Z" fill="#5E12A0"/>
<path d="M123 57C78.2336 57 42 94.1617 42 140C42 185.838 78.2641 223 123 223C167.736 223 204 185.838 204 140C204 94.1617 167.584 57 123 57ZM123 218.37C80.7325 218.37 46.5101 183.325 46.5101 140C46.5101 96.676 80.7325 61.6298 123 61.6298C165.268 61.6298 199.49 96.676 199.49 140C199.49 183.325 165.146 218.37 123 218.37Z" fill="#5E12A0"/>
<path opacity="0.6" d="M123 219C165.519 219 200 183.641 200 140C200 96.3586 165.519 61 123 61C80.4812 61 46 96.3586 46 140C46 183.641 80.4812 219 123 219Z" fill="url(#paint2_linear_741_46)"/>
<path opacity="0.6" d="M122.313 209.35C80.3803 202.442 51.9455 161.952 58.8017 118.965C61.8319 99.9383 71.1673 83.7182 84.3593 72C65.1375 83.4406 50.8436 103.3 46.987 127.569C40.2533 170.587 68.688 211.045 110.468 217.953C133.822 221.901 156.38 214.437 173 199.759C158.309 208.486 140.433 212.31 122.313 209.35Z" fill="#A98698"/>
<path opacity="0.6" d="M135.177 62.0372C115.672 58.7992 96.7213 63.3015 81.222 73.3238C80.9447 73.6013 80.6674 73.8789 80.6674 73.8789C86.6144 70.2092 95.3347 66.9712 95.3347 66.9712C72.9331 80.2314 66 95.3108 66 95.3108C74.7203 78.1036 100.326 65.9844 120.386 65.1518C140.446 64.3192 153.604 70.3634 169.626 83.4694C185.681 96.7297 195.356 123.805 194.401 145.237C193.569 166.669 182.507 184 182.507 184C190.118 173.978 194.678 166.669 197.575 159.176C198.129 156.924 198.684 154.674 198.961 152.268C205.894 109.435 177.391 68.9448 135.177 62.0372Z" fill="url(#paint3_linear_741_46)"/>
<path d="M196 139C196 180.392 163.3 214 123.076 214C82.8216 214 50 180.392 50 139H196Z" fill="url(#paint4_linear_741_46)"/>
<g opacity="0.6">
<path opacity="0.6" d="M190.264 139.267C190.264 179.543 159.16 212.491 120.089 214.031C121.039 214.031 122.02 214.031 122.97 214.031C163.297 214.031 196.025 180.529 196.025 139.267H190.264Z" fill="url(#paint5_linear_741_46)"/>
</g>
<g opacity="0.7">
<path opacity="0.7" d="M60.1184 139.267H49.7914C49.7914 180.529 82.5499 214.031 122.847 214.031C124.624 214.031 126.279 214.031 127.934 213.877C90.119 211.074 60.1184 178.681 60.1184 139.267Z" fill="url(#paint6_linear_741_46)"/>
</g>
<path d="M196 139.768C196 131.074 181.425 126.088 162.042 124.374C148.017 123.221 133.87 124.654 117.642 129.796C103.617 134.065 90.9707 133.349 81.7539 132.227C61.2685 129.796 50 129.516 50 139.768C50 154.601 79.1511 173.111 122.878 166.691C145.016 163.42 156.438 156.72 169.482 152.17C183.63 147.309 196 147.465 196 139.768Z" fill="url(#paint7_linear_741_46)"/>
<path d="M147 104C153.623 104 159 98.411 159 91.5153C159 84.6197 153.623 79 147 79C140.376 79 135 84.5894 135 91.5153C135 98.4416 140.376 104 147 104Z" fill="white"/>
<path d="M167 114C169.749 114 172 111.535 172 108.5C172 105.465 169.778 103 167 103C164.251 103 162 105.465 162 108.5C162 111.535 164.251 114 167 114Z" fill="white"/>
<g opacity="0.6">
<path opacity="0.6" d="M185.882 81.6844C185.759 81.6844 185.606 81.6844 185.606 81.6844C184.779 81.5304 184.227 80.699 184.381 79.7136C185.606 73.2472 190.846 67.027 191.122 66.7499C191.674 66.0417 192.777 66.0417 193.328 66.596C194.003 67.1503 194.003 68.2896 193.451 68.8438C193.328 68.9978 188.487 74.7561 187.384 80.3911C187.261 81.2533 186.556 81.6844 185.882 81.6844Z" fill="url(#paint8_linear_741_46)"/>
</g>
<path opacity="0.2" d="M118 199C120.19 199 122 197.219 122 195C122 192.781 120.222 191 118 191C115.81 191 114 192.781 114 195C114 197.219 115.778 199 118 199Z" fill="#5E12A0"/>
<g opacity="0.4">
<path opacity="0.6" d="M115.707 197.28C114.206 195.74 114.206 193.185 115.707 191.645C115.983 191.368 116.258 191.214 116.534 190.937C115.983 191.091 115.584 191.368 115.155 191.768C113.653 193.308 113.653 195.864 115.155 197.403C116.381 198.666 118.312 198.943 119.844 198.112C118.464 198.697 116.81 198.389 115.707 197.28Z" fill="url(#paint9_linear_741_46)"/>
</g>
<path opacity="0.3" d="M119 194C119.555 194 120 193.556 120 193C120 192.444 119.555 192 119 192C118.444 192 118 192.444 118 193C118.036 193.556 118.482 194 119 194Z" fill="#5E12A0"/>
<path opacity="0.2" d="M138 197C140.19 197 142 195.219 142 193C142 190.781 140.222 189 138 189C135.81 189 134 190.781 134 193C134.032 195.219 135.81 197 138 197Z" fill="#5E12A0"/>
<g opacity="0.4">
<path opacity="0.6" d="M135.779 195.309C134.277 193.77 134.277 191.214 135.779 189.674C136.055 189.397 136.33 189.244 136.606 188.966C136.055 189.12 135.656 189.397 135.228 189.798C133.726 191.337 133.726 193.893 135.228 195.433C136.453 196.695 138.384 196.972 139.916 196.141C138.537 196.726 136.882 196.418 135.779 195.309Z" fill="url(#paint10_linear_741_46)"/>
</g>
<path opacity="0.3" d="M139.5 192C139.778 192 140 191.556 140 191C140 190.445 139.778 190 139.5 190C139.223 190 139 190.445 139 191C139 191.556 139.223 192 139.5 192Z" fill="#5E12A0"/>
<path opacity="0.2" d="M128 206C129.659 206 131 204.656 131 203C131 201.344 129.659 200 128 200C126.34 200 125 201.344 125 203C125 204.656 126.34 206 128 206Z" fill="#5E12A0"/>
<g opacity="0.4">
<path opacity="0.6" d="M126.433 204.732C125.329 203.592 125.329 201.622 126.433 200.513C126.555 200.359 126.831 200.236 126.984 200.082C126.586 200.236 126.31 200.513 126.034 200.79C124.931 201.929 124.931 203.9 126.034 205.009C126.984 205.994 128.363 206.148 129.62 205.439C128.486 205.871 127.26 205.594 126.433 204.732Z" fill="url(#paint11_linear_741_46)"/>
</g>
<path opacity="0.3" d="M129 202C129.556 202 130 201.778 130 201.5C130 201.223 129.556 201 129 201C128.444 201 128 201.223 128 201.5C128 201.75 128.444 202 129 202Z" fill="#5E12A0"/>
<path opacity="0.2" d="M146 204C147.659 204 149 202.656 149 201C149 199.344 147.659 198 146 198C144.341 198 143 199.344 143 201C143 202.656 144.341 204 146 204Z" fill="#5E12A0"/>
<g opacity="0.4">
<path opacity="0.6" d="M144.176 202.637C143.072 201.498 143.072 199.527 144.176 198.419C144.298 198.265 144.574 198.142 144.727 197.988C144.328 198.142 144.053 198.419 143.777 198.696C142.674 199.835 142.674 201.806 143.777 202.914C144.727 203.9 146.106 204.054 147.363 203.346C146.259 203.746 145.003 203.469 144.176 202.637Z" fill="url(#paint12_linear_741_46)"/>
</g>
<path opacity="0.3" d="M146.5 200C146.777 200 147 199.778 147 199.5C147 199.222 146.777 199 146.5 199C146.223 199 146 199.222 146 199.5C146 199.778 146.223 200 146.5 200Z" fill="#5E12A0"/>
<path opacity="0.2" d="M101.5 197C105.08 197 108 194.09 108 190.5C108 186.91 105.112 184 101.5 184C97.8891 184 95 186.91 95 190.5C95.0314 194.09 97.92 197 101.5 197Z" fill="#5E12A0"/>
<g opacity="0.4">
<path opacity="0.6" d="M97.964 194.879C95.4819 192.354 95.4819 188.258 97.964 185.733C98.3624 185.302 98.7918 185.025 99.3432 184.748C98.5154 185.025 97.8412 185.579 97.1367 186.164C94.6545 188.689 94.6545 192.784 97.1367 195.309C99.1895 197.434 102.377 197.834 104.828 196.295C102.499 197.28 99.7416 196.849 97.964 194.879Z" fill="url(#paint13_linear_741_46)"/>
</g>
<path opacity="0.3" d="M103.5 189C104.333 189 105 188.348 105 187.5C105 186.684 104.333 186 103.5 186C102.666 186 102 186.652 102 187.5C102 188.348 102.666 189 103.5 189Z" fill="#5E12A0"/>
<path opacity="0.2" d="M158 181C161.304 181 164 178.091 164 174.5C164 170.909 161.333 168 158 168C154.696 168 152 170.909 152 174.5C152 178.091 154.696 181 158 181Z" fill="#5E12A0"/>
<g opacity="0.4">
<path opacity="0.6" d="M154.349 178.958C151.867 176.433 151.867 172.338 154.349 169.813C154.747 169.381 155.177 169.104 155.728 168.827C154.901 169.104 154.227 169.659 153.522 170.243C151.04 172.768 151.04 176.864 153.522 179.389C155.575 181.514 158.762 181.914 161.213 180.375C158.915 181.36 156.28 180.929 154.349 178.958Z" fill="url(#paint14_linear_741_46)"/>
</g>
<path opacity="0.3" d="M160.5 173C161.334 173 162 172.348 162 171.5C162 170.685 161.334 170 160.5 170C159.667 170 159 170.652 159 171.5C159 172.315 159.667 173 160.5 173Z" fill="#5E12A0"/>
</g>
<defs>
<radialGradient id="paint0_radial_741_46" cx="0" cy="0" r="1" gradientUnits="userSpaceOnUse" gradientTransform="translate(208.18 58.7845) scale(61.597 63.1003)">
<stop stop-color="#FFEAFF" stop-opacity="0.6"/>
<stop offset="0.6807" stop-color="#A087C9"/>
<stop offset="1" stop-color="#10002F"/>
</radialGradient>
<radialGradient id="paint1_radial_741_46" cx="0" cy="0" r="1" gradientUnits="userSpaceOnUse" gradientTransform="translate(173.972 85.5291) scale(150.625 154.535)">
<stop stop-color="#FFEAFF" stop-opacity="0.6"/>
<stop offset="0.6807" stop-color="#A087C9"/>
<stop offset="1" stop-color="#10002F"/>
</radialGradient>
<linearGradient id="paint2_linear_741_46" x1="110.226" y1="217.91" x2="136.131" y2="62.1355" gradientUnits="userSpaceOnUse">
<stop stop-color="#81FFFF"/>
<stop offset="0.6202" stop-color="white" stop-opacity="0"/>
</linearGradient>
<linearGradient id="paint3_linear_741_46" x1="178.084" y1="86.9945" x2="113.025" y2="145.569" gradientUnits="userSpaceOnUse">
<stop offset="0.2888" stop-color="white"/>
<stop offset="0.7796" stop-color="white" stop-opacity="0"/>
</linearGradient>
<linearGradient id="paint4_linear_741_46" x1="50" y1="176.494" x2="195.999" y2="176.494" gradientUnits="userSpaceOnUse">
<stop stop-color="#0002E9"/>
<stop offset="0.9952" stop-color="#FF00C7"/>
</linearGradient>
<linearGradient id="paint5_linear_741_46" x1="203.346" y1="146.263" x2="122.064" y2="221.332" gradientUnits="userSpaceOnUse">
<stop offset="0.2888" stop-color="white"/>
<stop offset="0.7796" stop-color="white" stop-opacity="0"/>
</linearGradient>
<linearGradient id="paint6_linear_741_46" x1="49.7914" y1="176.642" x2="127.946" y2="176.642" gradientUnits="userSpaceOnUse">
<stop stop-color="#000292"/>
<stop offset="0.9952" stop-color="#7D00C7"/>
</linearGradient>
<linearGradient id="paint7_linear_741_46" x1="50.1599" y1="145.998" x2="196.019" y2="145.998" gradientUnits="userSpaceOnUse">
<stop stop-color="#000292"/>
<stop offset="0.9952" stop-color="#BE00C7"/>
</linearGradient>
<linearGradient id="paint8_linear_741_46" x1="193.719" y1="66.188" x2="182.874" y2="83.4099" gradientUnits="userSpaceOnUse">
<stop offset="0.2888" stop-color="white"/>
<stop offset="0.7796" stop-color="white" stop-opacity="0"/>
</linearGradient>
<linearGradient id="paint9_linear_741_46" x1="114.014" y1="194.77" x2="119.835" y2="194.77" gradientUnits="userSpaceOnUse">
<stop offset="0.2888" stop-color="white"/>
<stop offset="0.7796" stop-color="white" stop-opacity="0"/>
</linearGradient>
<linearGradient id="paint10_linear_741_46" x1="134.085" y1="192.798" x2="139.907" y2="192.798" gradientUnits="userSpaceOnUse">
<stop offset="0.2888" stop-color="white"/>
<stop offset="0.7796" stop-color="white" stop-opacity="0"/>
</linearGradient>
<linearGradient id="paint11_linear_741_46" x1="125.176" y1="202.984" x2="129.546" y2="202.984" gradientUnits="userSpaceOnUse">
<stop offset="0.2888" stop-color="white"/>
<stop offset="0.7796" stop-color="white" stop-opacity="0"/>
</linearGradient>
<linearGradient id="paint12_linear_741_46" x1="142.867" y1="200.873" x2="147.238" y2="200.873" gradientUnits="userSpaceOnUse">
<stop offset="0.2888" stop-color="white"/>
<stop offset="0.7796" stop-color="white" stop-opacity="0"/>
</linearGradient>
<linearGradient id="paint13_linear_741_46" x1="95.207" y1="190.978" x2="104.713" y2="190.978" gradientUnits="userSpaceOnUse">
<stop offset="0.2888" stop-color="white"/>
<stop offset="0.7796" stop-color="white" stop-opacity="0"/>
</linearGradient>
<linearGradient id="paint14_linear_741_46" x1="151.67" y1="175.067" x2="161.177" y2="175.067" gradientUnits="userSpaceOnUse">
<stop offset="0.2888" stop-color="white"/>
<stop offset="0.7796" stop-color="white" stop-opacity="0"/>
</linearGradient>
<clipPath id="clip0_741_46">
<rect width="256" height="256" fill="white"/>
</clipPath>
</defs>
</svg>
