<?xml version="1.0" standalone="no"?>
<!DOCTYPE svg PUBLIC "-//W3C//DTD SVG 20010904//EN"
 "http://www.w3.org/TR/2001/REC-SVG-20010904/DTD/svg10.dtd">
<svg version="1.0" xmlns="http://www.w3.org/2000/svg"
 width="512.000000pt" height="512.000000pt" viewBox="0 0 512.000000 512.000000"
 preserveAspectRatio="xMidYMid meet">

<g transform="translate(0.000000,512.000000) scale(0.100000,-0.100000)"
fill="#000000" stroke="none">
<path d="M2255 5109 c-123 -15 -310 -55 -441 -95 -398 -120 -739 -323 -1043
-619 -395 -385 -643 -856 -743 -1412 -20 -115 -23 -159 -23 -423 0 -264 3
-308 23 -423 81 -449 262 -849 539 -1192 97 -120 296 -316 413 -407 338 -262
724 -432 1157 -510 115 -20 159 -23 423 -23 264 0 308 3 423 23 357 64 691
195 972 380 159 104 256 182 399 321 390 381 638 855 738 1408 20 115 23 159
23 423 0 264 -3 308 -23 423 -78 433 -248 819 -510 1157 -91 117 -287 316
-407 413 -342 276 -744 459 -1186 537 -103 19 -169 23 -389 26 -146 1 -301 -2
-345 -7z m514 -703 l205 -205 -204 -685 c-112 -378 -207 -686 -210 -686 -3 0
-98 309 -210 686 l-203 686 204 204 c112 112 206 204 209 204 3 0 97 -92 209
-204z m-763 -724 l83 -277 -324 -325 c-366 -368 -375 -379 -375 -505 0 -131
-6 -123 523 -651 528 -526 519 -518 647 -518 130 0 118 -10 652 528 524 528
518 520 518 641 0 118 -7 127 -371 491 l-331 331 81 274 c45 151 84 281 87
289 6 17 820 -791 896 -890 116 -152 170 -313 170 -510 0 -203 -57 -368 -181
-522 -32 -40 -272 -285 -532 -543 -524 -519 -538 -531 -729 -597 -92 -32 -100
-33 -260 -33 -160 0 -168 1 -260 33 -195 67 -201 72 -765 637 -565 564 -570
570 -637 765 -32 92 -33 100 -33 260 0 160 1 168 33 260 66 190 80 208 571
702 245 246 447 445 450 443 2 -3 42 -130 87 -283z"/>
</g>
</svg>
