<?xml version="1.0" encoding="UTF-8"?>
<svg version="1.1" xmlns="http://www.w3.org/2000/svg" width="512" height="512" viewBox="0 0 512 512">
<path d="M0 0 C1.15601951 -0.00226556 2.31203902 -0.00453111 3.50308943 -0.00686532 C7.33845516 -0.01314523 11.173785 -0.01237985 15.00915527 -0.0115509 C17.77499524 -0.01400566 20.54083276 -0.01792184 23.30667114 -0.02172852 C30.01829243 -0.02999591 36.72990493 -0.0327816 43.44153088 -0.03334089 C48.90490511 -0.03381802 54.36827646 -0.03588252 59.83164978 -0.03904152 C75.36432446 -0.04783823 90.89699225 -0.05246256 106.42966944 -0.05171105 C107.26510875 -0.05167109 108.10054806 -0.05163113 108.96130371 -0.05158997 C109.79777827 -0.05154909 110.63425282 -0.0515082 111.49607509 -0.05146609 C125.03491318 -0.05106013 138.57372339 -0.0606196 152.11255342 -0.07472833 C166.05629137 -0.08914285 180.00001577 -0.0959957 193.94376135 -0.09513456 C201.75506615 -0.09480428 209.56634174 -0.09747617 217.37763977 -0.10831261 C224.03131545 -0.11748481 230.68494868 -0.11953846 237.33862799 -0.11280318 C240.72356335 -0.10957117 244.10835221 -0.1104778 247.49328995 -0.11815643 C287.58031575 -0.20313086 323.74780156 3.77927692 354.14001465 32.38371277 C379.55086672 58.69141844 385.98234702 90.73327284 385.92997742 126.33744812 C385.93337575 128.07147739 385.93337575 128.07147739 385.93684274 129.84053755 C385.94312265 133.67590328 385.94235726 137.51123312 385.94152832 141.34660339 C385.94398308 144.11244336 385.94789926 146.87828088 385.95170593 149.64411926 C385.95997332 156.35574055 385.96275901 163.06735305 385.96331831 169.778979 C385.96379543 175.24235323 385.96585993 180.70572458 385.96901894 186.1690979 C385.97781564 201.70177258 385.98243998 217.23444038 385.98168846 232.76711756 C385.98162853 234.02027652 385.98162853 234.02027652 385.98156738 235.29875183 C385.98150606 236.55346367 385.98150606 236.55346367 385.9814435 237.83352321 C385.98103754 251.3723613 385.99059702 264.91117151 386.00470575 278.45000154 C386.01912026 292.39373949 386.02597312 306.33746389 386.02511197 320.28120947 C386.0247817 328.09251427 386.02745359 335.90378986 386.03829002 343.71508789 C386.04746223 350.36876357 386.04951588 357.0223968 386.0427806 363.67607611 C386.03954859 367.06101147 386.04045522 370.44580033 386.04813385 373.83073807 C386.13310827 413.91776387 382.1507005 450.08524968 353.54626465 480.47746277 C327.23855897 505.88831484 295.19670458 512.31979514 259.5925293 512.26742554 C257.85850003 512.27082387 257.85850003 512.27082387 256.08943987 512.27429086 C252.25407414 512.28057077 248.41874429 512.27980538 244.58337402 512.27897644 C241.81753406 512.2814312 239.05169654 512.28534738 236.28585815 512.28915405 C229.57423687 512.29742144 222.86262437 512.30020713 216.15099841 512.30076643 C210.68762419 512.30124355 205.22425283 512.30330805 199.76087952 512.30646706 C184.22820484 512.31526376 168.69553704 512.3198881 153.16285986 512.31913658 C152.32742055 512.31909663 151.49198124 512.31905667 150.63122559 512.3190155 C149.79475103 512.31897462 148.95827647 512.31893374 148.0964542 512.31889162 C134.55761612 512.31848566 121.01880591 512.32804514 107.47997588 512.34215387 C93.53623793 512.35656838 79.59251353 512.36342124 65.64876795 512.36256009 C57.83746315 512.36222982 50.02618756 512.36490171 42.21488953 512.37573814 C35.56121385 512.38491035 28.90758061 512.386964 22.2539013 512.38022872 C18.86896595 512.37699671 15.48417709 512.37790334 12.09923935 512.38558197 C-27.98778646 512.47055639 -64.15527226 508.48814862 -94.54748535 479.88371277 C-119.95833742 453.57600709 -126.38981772 421.5341527 -126.33744812 385.92997742 C-126.33971368 384.77395791 -126.34197923 383.61793839 -126.34431344 382.42688799 C-126.35059335 378.59152226 -126.34982797 374.75619241 -126.34899902 370.92082214 C-126.35145378 368.15498218 -126.35536996 365.38914466 -126.35917664 362.62330627 C-126.36744403 355.91168499 -126.37022972 349.20007249 -126.37078901 342.48844653 C-126.37126614 337.02507231 -126.37333064 331.56170095 -126.37648964 326.09832764 C-126.38528635 310.56565296 -126.38991068 295.03298516 -126.38915917 279.50030798 C-126.38911921 278.66486867 -126.38907925 277.82942936 -126.38903809 276.96867371 C-126.38899721 276.13219915 -126.38895632 275.29572459 -126.38891421 274.43390232 C-126.38850825 260.89506424 -126.39806772 247.35625403 -126.41217645 233.817424 C-126.42659097 219.87368605 -126.43344382 205.92996165 -126.43258268 191.98621607 C-126.4322524 184.17491127 -126.43492429 176.36363568 -126.44576073 168.55233765 C-126.45493294 161.89866197 -126.45698658 155.24502873 -126.4502513 148.59134942 C-126.44701929 145.20641407 -126.44792592 141.82162521 -126.45560455 138.43668747 C-126.54057898 98.34966166 -122.5581712 62.18217586 -93.95373535 31.78996277 C-67.64602968 6.3791107 -35.60417528 -0.0523696 0 0 Z " fill="#252437" transform="translate(126.2037353515625,-0.1337127685546875)"/>
<path d="M0 0 C1.3500444 0.99862835 2.68480783 2.01839846 4 3.0625 C4.61101562 3.51238281 5.22203125 3.96226563 5.8515625 4.42578125 C15.67172004 12.1045388 21.76272159 23.94234835 24 36.0625 C24.29058257 39.70134352 24.31088878 43.32733622 24.31884766 46.9765625 C24.32889328 48.0408699 24.3389389 49.10517731 24.34928894 50.20173645 C24.38002018 53.6969858 24.39712823 57.1921589 24.4140625 60.6875 C24.43278222 63.11987967 24.45235623 65.55225291 24.4727478 67.98461914 C24.52398992 74.36973264 24.56365812 80.75486717 24.60089111 87.14007568 C24.64098038 93.6624468 24.69205027 100.184731 24.7421875 106.70703125 C24.83885304 119.49212529 24.92366103 132.27726926 25 145.0625 C35.72350687 147.58157325 35.72350687 147.58157325 46.65625 148.4609375 C48.59177734 148.46673828 48.59177734 148.46673828 50.56640625 148.47265625 C51.86449219 148.46105469 53.16257813 148.44945312 54.5 148.4375 C56.44712891 148.45490234 56.44712891 148.45490234 58.43359375 148.47265625 C59.72394531 148.46878906 61.01429688 148.46492187 62.34375 148.4609375 C64.04821289 148.45586182 64.04821289 148.45586182 65.78710938 148.45068359 C71.95361322 148.12003071 78.00191387 146.44157751 84 145.0625 C83.99555878 143.74420197 83.99111755 142.42590393 83.98654175 141.06765747 C83.94593158 128.62092388 83.91598483 116.1742038 83.89637566 103.7274189 C83.88595538 97.32899328 83.87182821 90.93062131 83.84912109 84.53222656 C83.82733017 78.35306142 83.81541817 72.17394777 83.81024551 65.99474716 C83.80656098 63.64174464 83.79936607 61.28874481 83.78853989 58.93576431 C83.77394203 55.63045495 83.77202554 52.32535614 83.77294922 49.02001953 C83.76575867 48.05544327 83.75856812 47.090867 83.75115967 46.09706116 C83.79728259 30.76271111 88.78964926 17.3726292 99.55078125 6.24609375 C112.19883929 -5.03024507 126.28932316 -8.88445503 142.95458984 -8.11669922 C156.08741865 -6.96612673 168.17959969 0.56991305 177 10.0625 C188.90142631 25.75074377 190.84171549 42.99143763 188.43359375 62.0703125 C183.4195997 96.9894453 165.70496565 128.93754856 138 151.0625 C128.32116725 158.30000716 117.988848 164.07337715 107 169.0625 C105.453125 169.77019531 105.453125 169.77019531 103.875 170.4921875 C100.61904986 171.85731243 97.36544233 172.9933083 94 174.0625 C93.28295898 174.29098633 92.56591797 174.51947266 91.82714844 174.75488281 C70.08051507 181.38747136 44.05510362 181.77407952 22 176.0625 C20.85015625 175.79566406 19.7003125 175.52882813 18.515625 175.25390625 C-15.14093909 166.68747308 -44.44323033 143.8190233 -62.1484375 114.13720703 C-76.14568605 89.98843049 -85.94536976 59.68682908 -79.875 31.625 C-75.4300608 16.82231875 -67.25903193 5.98080212 -54 -1.9375 C-36.77372689 -11.07913747 -16.49376193 -10.55935097 0 0 Z " fill="#FDFDFD" transform="translate(202,98.9375)"/>
<path d="M0 0 C2.66798301 2.62961449 5.00619875 5.25127497 7.25 8.25 C11.28576764 13.36759889 15.76676342 17.95836145 20.375 22.5625 C21.08946289 23.27760742 21.80392578 23.99271484 22.54003906 24.72949219 C25.95394222 28.29038797 25.95394222 28.29038797 30 31 C30.00364563 32.28515503 30.00729126 33.57031006 30.01104736 34.89440918 C30.04802213 47.01817198 30.10582235 59.14168137 30.18390274 71.26525116 C30.22337642 77.49780821 30.25556567 83.73022399 30.27099609 89.96289062 C30.28616305 95.980132 30.32061021 101.99698499 30.36830902 108.01405334 C30.38312225 110.30726237 30.39104098 112.60052685 30.39188385 114.89378357 C30.39425532 118.11124867 30.42135129 121.32764204 30.45410156 124.54492188 C30.4490712 125.48863647 30.44404083 126.43235107 30.43885803 127.40466309 C30.54816594 134.36618838 32.14938338 139.69660087 36.74609375 145.0234375 C37.30425781 145.46945312 37.86242187 145.91546875 38.4375 146.375 C38.99308594 146.83648437 39.54867187 147.29796875 40.12109375 147.7734375 C45.80780566 151.48576087 51.39261673 151.73312258 58 151 C64.10631439 149.25384503 68.66835769 145.36882487 72 140 C73.83675951 135.40271724 74.30349549 131.2395181 74.31884766 126.34228516 C74.32889328 125.60013763 74.3389389 124.85799011 74.34928894 124.09335327 C74.37999488 121.65859702 74.39712068 119.22395009 74.4140625 116.7890625 C74.43278431 115.09368965 74.45235847 113.39832602 74.4727478 111.70297241 C74.52396808 107.25447028 74.56364772 102.80593798 74.60089111 98.3572998 C74.64099427 93.81234331 74.69205776 89.26751125 74.7421875 84.72265625 C74.83882707 75.81519171 74.92326999 66.90765674 75 58 C76.02126984 58.34552917 77.04253967 58.69105835 78.09475708 59.04705811 C79.45262116 59.50380954 80.81052316 59.96044827 82.16845703 60.41699219 C82.83943924 60.64434052 83.51042145 60.87168884 84.20173645 61.10592651 C89.37849196 62.84264194 94.52152615 64.20541974 99.875 65.25 C100.638125 65.40984375 101.40125 65.5696875 102.1875 65.734375 C112.69317572 67.8711226 123.05049201 68.24110974 133.75 68.25 C134.8454866 68.25101212 134.8454866 68.25101212 135.96310425 68.25204468 C152.80320972 68.22740747 168.58034302 66.68204544 184.5546875 61.0859375 C188.04988189 59.98427759 191.37397235 59.47703798 195 59 C195.00546844 60.40155334 195.00546844 60.40155334 195.01104736 61.8314209 C195.04807006 70.65882118 195.10592185 79.48587497 195.18390274 88.31301117 C195.22332667 92.8506154 195.25553997 97.38802706 195.27099609 101.92578125 C195.28619634 106.30915936 195.32070112 110.69200784 195.36830902 115.07514954 C195.38308822 116.74314253 195.39103902 118.41121116 195.39188385 120.07926941 C195.30387406 133.50764439 195.30387406 133.50764439 201.74609375 145.0234375 C202.58333984 145.69246094 202.58333984 145.69246094 203.4375 146.375 C203.99308594 146.83648437 204.54867187 147.29796875 205.12109375 147.7734375 C210.80780566 151.48576087 216.39261673 151.73312258 223 151 C229.10631439 149.25384503 233.66835769 145.36882487 237 140 C239.29965952 134.61236068 239.24410072 129.75196811 239.16015625 124.0065918 C239.15113029 122.52003586 239.15113029 122.52003586 239.141922 121.00344849 C239.12875686 118.85744791 239.11163856 116.71146871 239.09100342 114.56552696 C239.05231175 109.9959664 239.05026214 105.42662417 239.04620361 100.8569231 C239.03847507 92.35613011 239.0168332 83.85608738 238.92822266 75.35571289 C238.86791656 69.43501961 238.85644619 63.51595337 238.87692261 57.59501076 C238.87564836 55.34437666 238.85643099 53.09367605 238.81863403 50.84335899 C238.51965921 32.29452364 238.51965921 32.29452364 242.2016449 27.65977478 C244.69772328 25.39213237 247.094233 23.69049981 250 22 C256.56017402 15.90776707 262.08663325 9.52761547 267.28515625 2.2734375 C267.85105469 1.52320313 268.41695313 0.77296875 269 0 C269.33 0 269.66 0 270 0 C270.09369591 17.76840312 270.16410238 35.53674158 270.20724869 53.30533886 C270.22782023 61.55675228 270.25583653 69.80801166 270.30175781 78.05932617 C270.34179215 85.25631916 270.36747206 92.4532005 270.37635398 99.65030175 C270.38154085 103.45649919 270.39361692 107.26237741 270.42292023 111.06847191 C270.45035279 114.66116547 270.45838983 118.25341259 270.45243073 121.84620094 C270.45403197 123.77248499 270.47540756 125.69872199 270.49768066 127.62487793 C270.42482867 143.24582601 264.97793088 156.3796967 254.40234375 167.828125 C241.60816187 179.39489756 227.77521907 182.67100876 211 182 C198.04701826 181.00361679 185.43033433 173.68684863 177 164 C168.75798681 152.51753718 164.81362436 142.01438361 164.90234375 127.8828125 C164.90446617 126.5970784 164.90446617 126.5970784 164.90663147 125.28536987 C164.91219978 122.5652101 164.92474636 119.84513462 164.9375 117.125 C164.9425191 115.27343869 164.94708129 113.42187609 164.95117188 111.5703125 C164.96215883 107.04684285 164.97940148 102.52343568 165 98 C163.87456787 98.16226074 162.74913574 98.32452148 161.58959961 98.49169922 C156.90389904 99.07464009 152.28325508 99.14435363 147.56640625 99.1328125 C146.25034645 99.13424759 146.25034645 99.13424759 144.90769958 99.13571167 C143.06305875 99.13638828 141.21841547 99.13457042 139.3737793 99.13037109 C136.57400071 99.12502197 133.774383 99.1303305 130.97460938 99.13671875 C129.17187465 99.13605775 127.36914003 99.13477614 125.56640625 99.1328125 C124.32849083 99.13584885 124.32849083 99.13584885 123.06556702 99.13894653 C109.16759238 99.08379619 109.16759238 99.08379619 105 97 C105.02618408 98.16345947 105.05236816 99.32691895 105.0793457 100.52563477 C105.171044 104.91459294 105.22767596 109.30346987 105.2746582 113.69311523 C105.29953382 115.5793286 105.33344733 117.46544838 105.37719727 119.35131836 C105.7382942 135.3372922 104.31161601 149.01107495 94 162 C93.55011719 162.61101562 93.10023438 163.22203125 92.63671875 163.8515625 C86.31580451 171.93521056 77.61525641 176.82153484 68 180 C66.14375 180.61875 66.14375 180.61875 64.25 181.25 C49.46746926 184.55818732 34.68577438 180.74851316 22 173 C10.01166144 164.31685758 2.49417284 151.54899247 0 137 C-0.27943266 132.50409627 -0.25290834 128.01891363 -0.22705078 123.515625 C-0.22648578 122.16470854 -0.22680496 120.81379147 -0.22793579 119.46287537 C-0.22850684 115.81671658 -0.21679298 112.17069085 -0.20278788 108.52456284 C-0.19023892 104.70624221 -0.18910675 100.88791814 -0.18673706 97.06958008 C-0.18053449 89.84850153 -0.16414031 82.62748393 -0.14403808 75.40643215 C-0.12164092 67.1815024 -0.11067607 58.95656966 -0.10064721 50.73161697 C-0.07977293 33.8210428 -0.04462086 16.91052785 0 0 Z " fill="#FDFDFD" transform="translate(121,239)"/>
<path d="M0 0 C5.49871394 3.73959147 8.64506242 7.76719615 11 14 C11.51497002 17.10326267 11.50902544 20.12176927 11.45410156 23.26171875 C11.45468567 24.15046188 11.45526978 25.03920502 11.45587158 25.95487976 C11.45310487 28.86616306 11.42208035 31.77639757 11.390625 34.6875 C11.38315757 36.71630291 11.37746701 38.74511306 11.37347412 40.77392578 C11.35825735 46.09397563 11.31900965 51.41358338 11.2746582 56.73345947 C11.23362002 62.16990174 11.21544488 67.60641598 11.1953125 73.04296875 C11.15251155 83.69550593 11.08430828 94.34771609 11 105 C5.46703989 102.37031591 1.44451776 98.15538877 -3 94 C-3.69738281 93.36835938 -4.39476562 92.73671875 -5.11328125 92.0859375 C-17.83288624 80.10554803 -27.00391288 62.97004997 -31 46 C-31.27585938 44.98292969 -31.55171875 43.96585938 -31.8359375 42.91796875 C-33.5248032 36.13926469 -34.32610196 29.58773679 -34.4375 22.625 C-34.45965576 21.88830078 -34.48181152 21.15160156 -34.50463867 20.39257812 C-34.4785878 13.78905495 -32.3879478 8.72501399 -28.03515625 3.7578125 C-19.342141 -3.43759418 -10.45095711 -5.9156361 0 0 Z " fill="#21202E" transform="translate(185,124)"/>
<path d="M0 0 C5.31293085 3.61324323 9.29377944 7.69307756 11 14 C13.92757091 39.18376344 3.95074499 65.42811328 -11.3984375 85.0078125 C-24.69870457 100.30511667 -24.69870457 100.30511667 -32 105 C-32.66 105 -33.32 105 -34 105 C-34.09281176 93.2733075 -34.16382189 81.54670285 -34.20724869 69.81971741 C-34.22809479 64.37398271 -34.2563583 58.9284999 -34.30175781 53.48291016 C-34.34532136 48.22444188 -34.36915949 42.96621542 -34.37950897 37.70758057 C-34.38688146 35.70457149 -34.40127822 33.70157516 -34.42292023 31.69866943 C-34.45209378 28.88606499 -34.45595017 26.07445093 -34.45410156 23.26171875 C-34.46848267 22.43956375 -34.48286377 21.61740875 -34.49768066 20.77033997 C-34.44994801 14.02810308 -32.4977727 8.85034101 -28.03515625 3.7578125 C-19.342141 -3.43759418 -10.45095711 -5.9156361 0 0 Z " fill="#28293D" transform="translate(350,124)"/>
</svg>
