<svg width="512" height="513.375" viewBox="0 0 512 513.375" fill="none" xmlns="http://www.w3.org/2000/svg">
  <g clip-path="url(#clip0_2540_156)">
    <path d="M256.001 512.62c141.385 0 256.001 -114.615 256.001 -256.001C512 115.235 397.385 0.62 256.001 0.62S0 115.235 0 256.62c0 141.385 114.615 256.001 256.001 256.001" fill="#111111"/>
    <path d="M256.352 396.145c-65.445 0.488 -120.457 -53.374 -120.218 -120.616 0.239 -65.628 54.17 -119.25 120.309 -119.125 65.706 0.125 118.852 53.419 119.444 118.75 0.604 67.515 -54.465 121.23 -119.524 120.991zm-0.546 -208.328c-48.48 0.182 -88.155 39.606 -88.211 88.268 -0.057 48.743 39.549 88.621 88.166 88.678 48.81 0.067 88.451 -39.493 88.713 -88.179 0.273 -49.914 -40.688 -88.849 -88.678 -88.78z" fill="white"/>
    <path d="M280.985 276.483c-0.147 13.892 -11.388 24.918 -25.258 24.77 -13.983 -0.158 -24.907 -11.458 -24.69 -25.555 0.205 -13.688 11.48 -24.519 25.361 -24.393 13.722 0.125 24.724 11.402 24.586 25.178" fill="white"/>
    <path d="M135.156 146.471h241.699v-29.39H135.156z" fill="#FF6700"/>
  </g>
  <defs>
    <clipPath id="clip0_2540_156">
      <path width="4096" height="4105.1" fill="white" d="M0 0.953h512v513.137H0z"/>
    </clipPath>
  </defs>
</svg>