<svg width="50" height="51" viewBox="0 0 50 51" fill="none" xmlns="http://www.w3.org/2000/svg">
    <path d="M25 49.0049C38.2548 49.0049 49 38.2597 49 25.0049C49 11.75 38.2548 1.00488 25 1.00488C11.7452 1.00488 1 11.75 1 25.0049C1 38.2597 11.7452 49.0049 25 49.0049Z"
          fill="#181F2C"/>
    <path d="M30.3798 30.2282C29.975 29.3482 29.5198 28.4559 29.4694 27.4864C29.3979 26.1167 30.1359 24.8591 30.7612 23.6428C30.9536 23.2687 31.1368 22.8906 31.3114 22.5078C29.5301 20.75 28.0844 18.6443 27.0726 16.3423C26.1559 18.0251 25.4837 19.8439 25.1024 21.7276H24.4004C23.4453 17.0074 20.6637 12.6927 16.7834 9.91318C15.3588 8.89316 15.6915 11.3177 15.7207 12.0758C15.7722 13.4263 15.9234 14.7722 16.1707 16.1001C16.6597 18.7233 17.5249 21.2745 18.7416 23.6422C19.3669 24.8586 20.1049 26.1162 20.0333 27.4859C19.9824 28.4554 19.5277 29.3482 19.1229 30.2276C18.3866 31.8279 17.7877 33.4939 17.3359 35.1993C17.2454 35.5415 17.1601 35.8987 17.226 36.2461C17.3079 36.6794 17.6113 37.032 17.9228 37.3404C19.3502 38.7555 21.2037 39.722 23.1682 40.077C23.5856 40.1525 24.1084 40.1542 24.3242 39.7842C24.567 39.3677 24.2046 38.8478 23.8055 38.5824C23.4064 38.3163 22.7101 37.8766 22.7353 37.6582C22.8063 37.2156 23.9217 38.1078 24.6523 38.1879C24.6529 38.1879 24.6535 38.1879 24.6535 38.1879C24.6752 38.1903 24.697 38.192 24.7182 38.1926C24.7187 38.1926 24.7193 38.1926 24.7199 38.1926C24.7245 38.1926 24.7291 38.1926 24.7331 38.1926C24.7394 38.1926 24.7451 38.1932 24.7514 38.1932C24.7571 38.1932 24.7634 38.1932 24.7697 38.1926C24.7743 38.1926 24.7789 38.1926 24.7834 38.1926C24.784 38.1926 24.7846 38.1926 24.7852 38.1926C24.8064 38.192 24.8281 38.1903 24.8499 38.1879C24.8504 38.1879 24.851 38.1879 24.851 38.1879C25.5822 38.1078 26.697 37.2156 26.768 37.6582C26.7938 37.8766 26.0969 38.3169 25.6979 38.5824C25.2988 38.8484 24.9363 39.3677 25.1791 39.7842C25.395 40.1542 25.9177 40.1525 26.3351 40.077C28.2997 39.722 30.1531 38.7555 31.5805 37.3404C31.8914 37.032 32.1949 36.6794 32.2774 36.2461C32.3432 35.8981 32.2579 35.5409 32.1674 35.1993C31.7151 33.4945 31.1162 31.8291 30.3798 30.2282Z"
          fill="#E73747"/>
    <path d="M34.4711 17.5372C34.3622 16.9055 34.2343 16.2781 34.0874 15.6562H27.6289C28.9777 19.0014 31.1475 21.9521 33.8729 24.0627C35.2625 25.1386 34.938 22.5813 34.9095 21.7818C34.8598 20.3579 34.7124 18.9377 34.4711 17.5372Z"
          fill="white"/>
    <rect x="0.5" y="0.504883" width="49" height="49" rx="24.5" stroke="#222937"/>
</svg>
