<svg width="114" height="114" viewBox="0 0 114 114" fill="none" xmlns="http://www.w3.org/2000/svg">
<rect width="114" height="114" fill="#00252F"/>
<path fill-rule="evenodd" clip-rule="evenodd" d="M54.6934 11.7348C55.161 12.3582 55.161 12.425 55.161 31.2172V50.0762L54.6489 51.3676C53.5801 53.9949 53.1348 54.3066 38.7957 62.5449C31.6262 66.6863 25.1692 70.4492 24.4122 70.9168C23.6774 71.3844 23.0094 71.7852 22.9426 71.7852C22.8758 71.7852 21.7403 72.3863 20.4489 73.1434C19.1575 73.8781 17.777 74.5461 17.3762 74.5906C16.4188 74.7465 15.5059 74.0563 15.1942 72.943C15.0161 72.3641 14.9715 66.4191 15.0161 53.75L15.0829 35.3809L15.7954 33.8891C16.1739 33.0652 16.9309 31.9742 17.4653 31.4398C18.111 30.7941 21.5622 28.7012 27.8856 25.0496C40.8442 17.5906 43.8723 15.8316 46.5887 14.2285C51.309 11.4008 52.1774 11 53.2461 11.0445C54.0254 11.0891 54.3149 11.2449 54.6934 11.7348ZM71.0247 16.0366L71.0276 16.0383L71.0296 16.0395C74.3908 17.9812 78.9303 20.6036 83.1043 23.0012C89.5391 26.6973 95.3059 30.0816 95.9516 30.527C97.3543 31.4621 98.579 33.1766 99.1579 35.0246C99.5586 36.3605 99.5809 37.1844 99.5586 54.3734C99.5586 67.6883 99.4918 72.5422 99.2915 73.0988C99.1356 73.5219 98.7571 74.0563 98.4008 74.3234C97.8887 74.702 97.6661 74.7465 96.9536 74.5461C95.5954 74.1898 62.8649 55.1973 61.7739 54.1285C61.2395 53.6164 60.5047 52.5477 60.104 51.7461L59.3915 50.2988L59.3247 31.9297C59.2801 21.8211 59.3247 13.2488 59.3915 12.8703C59.6141 11.6457 60.2821 11 61.3508 11C62.1301 11 63.0207 11.4231 66.8504 13.6274C67.7336 14.1354 69.2065 14.9863 71.0247 16.0366ZM18.2348 79.5935C18.6236 79.9823 18.6236 79.9823 18.9348 80.2016C19.246 80.4208 21.7625 82.0941 24.7684 83.8309C27.7743 85.5676 31.7375 87.8609 33.5633 88.9297C34.2341 89.3176 35.2686 89.9197 36.4954 90.6336C38.6486 91.8867 41.3942 93.4846 43.8055 94.8746C47.6129 97.0789 51.3758 99.3277 52.2219 99.9066C53.9809 101.109 55.495 101.621 57.3875 101.621C59.2133 101.621 60.7497 101.064 63.4215 99.4391C64.6239 98.7043 67.3403 97.1012 69.411 95.8988C81.8352 88.618 95.7048 80.3486 96.0407 80.1125C96.4002 79.8597 96.5847 79.73 96.6685 79.7776C96.7568 79.8277 96.7338 80.0741 96.6864 80.5801C96.6864 81.159 96.5082 81.5598 95.9516 82.1164C95.5508 82.5395 90.2516 85.7457 83.5497 89.5977L81.7857 90.617L81.7835 90.6182C75.7573 94.1003 69.0917 97.9518 66.3161 99.5727C63.2657 101.354 60.3266 102.935 59.77 103.091C58.434 103.491 55.9626 103.491 54.7379 103.068C54.1813 102.868 51.1086 101.198 47.8801 99.3055L46.1988 98.3312C42.4144 96.1381 35.9414 92.3869 30.5575 89.2859C24.2563 85.6566 18.868 82.4281 18.6008 82.1164C17.8438 81.2926 17.1009 80.2838 17.4571 79.5935C17.4665 79.5753 17.4756 79.5576 17.4844 79.5405C17.6115 79.2936 17.6792 79.162 17.7634 79.1505C17.8596 79.1372 17.9773 79.2803 18.2293 79.5868L18.2348 79.5935ZM26.4938 62.0398L26.4948 33.6538L38.0402 26.9876C39.7532 25.9985 41.2785 25.5098 42.616 25.5215C43.9536 25.5331 44.9978 25.9981 45.7487 26.9162C46.4996 27.8343 46.875 29.172 46.8749 30.9292C46.8749 32.9027 46.4993 34.8497 45.7484 36.7702C44.9974 38.6906 43.9531 40.456 42.6155 42.0664C42.5912 42.0952 42.5667 42.124 42.5423 42.1526L47.8951 49.6828L39.412 54.5809L34.7925 47.7999L33.6044 48.4859L33.6041 57.9343L26.4938 62.0398ZM33.6046 42.4032L36.843 40.5334C37.4296 40.1946 37.9107 39.7952 38.2862 39.3351C38.6851 38.8344 38.9784 38.3001 39.1662 37.7321C39.3774 37.1506 39.483 36.5354 39.483 35.8866C39.483 35.2919 39.3775 34.8527 39.1663 34.5691C38.9786 34.245 38.6735 34.0967 38.2511 34.1243C37.8522 34.1114 37.336 34.2878 36.7024 34.6536L33.6048 36.4421L33.6046 42.4032ZM66.572 21.2969L66.5729 49.6828L77.2753 55.8623C79.1053 56.9189 80.7848 57.5372 82.3137 57.7171C83.8426 57.897 85.1745 57.6929 86.3096 57.1047C87.4446 56.4895 88.3133 55.4906 88.9155 54.1082C89.5409 52.7121 89.8536 50.9868 89.8535 48.9322C89.8535 46.8505 89.5407 44.7641 88.9152 42.6727C88.3128 40.5948 87.4441 38.6063 86.3089 36.7073C85.1738 34.7813 83.8418 33.0255 82.3128 31.4398C80.7839 29.8542 79.1044 28.533 77.2744 27.4763L66.572 21.2969ZM74.0782 46.555L77.1013 48.3005C77.8657 48.7419 78.5607 48.981 79.1861 49.0177C79.8116 49.0274 80.356 48.8686 80.8193 48.5414C81.2825 48.2141 81.6416 47.7185 81.8964 47.0546C82.1512 46.3637 82.2785 45.5316 82.2785 44.5584C82.2785 43.5852 82.151 42.6195 81.8962 41.6613C81.6414 40.6761 81.2823 39.7524 80.8189 38.8901C80.3556 38.0279 79.8112 37.254 79.1858 36.5684C78.5603 35.8558 77.8653 35.2789 77.1009 34.8375L74.0778 33.092L74.0782 46.555Z" fill="white"/>
<path d="M49.1989 87.3559L52.6191 76.598L56.4293 63.1457L65.509 68.3874L62.054 78.9631L58.2786 92.5977L49.1989 87.3559ZM31.6707 77.2367L54.4112 74.9157L58.2624 80.3425L40.3997 82.2761L31.6707 77.2367ZM60.3322 80.6048L56.4106 75.2591L73.7823 73.1637L82.5114 78.2031L60.3322 80.6048Z" fill="white"/>
</svg>
