<svg width="512" height="512" viewBox="0 0 512 512" fill="none" xmlns="http://www.w3.org/2000/svg">
<rect width="512" height="512" fill="#00252F"/>
<path fill-rule="evenodd" clip-rule="evenodd" d="M245.641 52.7036C247.741 55.5036 247.741 55.8036 247.741 140.204V224.904L245.441 230.704C240.641 242.504 238.641 243.904 174.241 280.904C142.041 299.504 113.041 316.404 109.641 318.504C106.341 320.604 103.341 322.404 103.041 322.404C102.741 322.404 97.6405 325.104 91.8405 328.504C86.0405 331.804 79.8405 334.804 78.0405 335.004C73.7405 335.704 69.6405 332.604 68.2405 327.604C67.4405 325.004 67.2405 298.304 67.4405 241.404L67.7405 158.904L70.9405 152.204C72.6405 148.504 76.0405 143.604 78.4405 141.204C81.3405 138.304 96.8406 128.904 125.241 112.504C183.441 79.0036 197.041 71.1036 209.241 63.9036C230.441 51.2036 234.341 49.4035 239.141 49.6035C242.641 49.8035 243.941 50.5036 245.641 52.7036ZM300.241 61.2036C304.21 63.4867 310.831 67.3121 319.005 72.034C334.102 80.7551 354.492 92.5344 373.241 103.304C402.141 119.904 428.041 135.104 430.941 137.104C437.241 141.304 442.741 149.004 445.341 157.304C447.141 163.304 447.241 167.004 447.141 244.204C447.141 304.004 446.841 325.804 445.941 328.304C445.241 330.204 443.541 332.604 441.941 333.804C439.641 335.504 438.641 335.704 435.441 334.804C429.341 333.204 282.341 247.904 277.441 243.104C275.041 240.804 271.741 236.004 269.941 232.404L266.741 225.904L266.441 143.404C266.241 98.0036 266.441 59.5035 266.741 57.8035C267.741 52.3035 270.741 49.4036 275.541 49.4036C279.041 49.4036 283.041 51.3036 300.241 61.2036ZM81.8971 357.473C82.9275 358.504 83.3498 358.926 83.8102 359.301C84.1298 359.562 84.4679 359.8 85.0405 360.204C86.4383 361.188 97.7405 368.704 111.241 376.504C124.741 384.304 142.541 394.604 150.741 399.404C153.747 401.142 158.381 403.839 163.877 407.038L163.91 407.057L163.919 407.062C173.588 412.689 185.914 419.863 196.741 426.104C213.841 436.004 230.741 446.104 234.541 448.704C242.441 454.104 249.241 456.404 257.741 456.404C265.941 456.404 272.841 453.904 284.841 446.604C290.241 443.304 302.441 436.104 311.741 430.704C367.541 398.004 429.832 360.864 431.341 359.804C432.955 358.668 433.784 358.086 434.16 358.299C434.557 358.524 434.453 359.631 434.241 361.904C434.241 364.504 433.441 366.304 430.941 368.804C429.141 370.704 405.341 385.104 375.241 402.404L367.288 406.999L367.246 407.023C340.198 422.652 310.297 439.93 297.841 447.204C284.141 455.204 270.941 462.304 268.441 463.004C262.441 464.804 251.341 464.804 245.841 462.904C243.341 462.004 229.541 454.504 215.041 446.004C213.893 445.338 212.616 444.599 211.224 443.792L207.476 441.62C190.478 431.77 161.415 414.927 137.241 401.004C108.941 384.704 84.7405 370.204 83.5405 368.804C80.1405 365.104 76.8038 360.573 78.4038 357.473C78.4461 357.391 78.4869 357.311 78.5265 357.235C79.0971 356.126 79.4013 355.535 79.7797 355.483C80.2116 355.423 80.7401 356.066 81.8718 357.443L81.8965 357.473L81.8971 357.473ZM118.99 278.635L118.994 151.147L170.847 121.207C178.541 116.765 185.391 114.57 191.398 114.623C197.406 114.675 202.095 116.763 205.468 120.887C208.84 125.01 210.526 131.018 210.526 138.91C210.526 147.774 208.839 156.518 205.466 165.143C202.094 173.768 197.403 181.697 191.396 188.93C191.324 189.015 191.253 189.099 191.181 189.183C191.143 189.228 191.105 189.273 191.067 189.317L215.108 223.137L177.008 245.135L156.261 214.68L150.925 217.761L150.924 260.196L118.99 278.635ZM150.926 190.442L165.47 182.045C168.105 180.523 170.266 178.729 171.952 176.663C173.744 174.414 175.061 172.015 175.904 169.464C176.853 166.852 177.327 164.089 177.327 161.175C177.327 158.504 176.853 156.531 175.905 155.258C175.062 153.802 173.692 153.136 171.795 153.26C170.003 153.202 167.684 153.994 164.839 155.637L150.927 163.67L150.926 190.442ZM298.99 95.6491L298.994 223.137L347.061 250.89C355.28 255.636 362.823 258.413 369.689 259.221C376.556 260.029 382.538 259.112 387.636 256.47C392.734 253.707 396.635 249.221 399.34 243.012C402.149 236.742 403.553 228.993 403.553 219.766C403.552 210.416 402.148 201.046 399.338 191.653C396.633 182.32 392.731 173.39 387.633 164.861C382.535 156.211 376.552 148.325 369.686 141.203C362.819 134.082 355.276 128.148 347.057 123.402L298.99 95.6491ZM332.702 209.089L346.279 216.929C349.713 218.911 352.834 219.985 355.643 220.15C358.452 220.193 360.897 219.48 362.978 218.01C365.058 216.541 366.671 214.315 367.815 211.333C368.96 208.23 369.532 204.493 369.532 200.122C369.531 195.751 368.959 191.414 367.814 187.111C366.67 182.686 365.057 178.537 362.976 174.664C360.895 170.792 358.45 167.316 355.641 164.237C352.832 161.037 349.711 158.445 346.278 156.463L332.7 148.624L332.702 209.089Z" fill="white"/>
<path d="M220.964 392.335L236.324 344.019L253.437 283.602L294.216 307.144L278.699 354.641L261.743 415.877L220.964 392.335ZM142.24 346.888L244.373 336.464L261.67 360.836L181.445 369.521L142.24 346.888ZM270.966 362.014L253.353 338.006L331.374 328.595L370.578 351.228L270.966 362.014Z" fill="white"/>
</svg>
