<svg width="400" height="400" viewBox="0 0 400 400" fill="none" xmlns="http://www.w3.org/2000/svg">
<rect width="400" height="400" fill="black"/>
<path fill-rule="evenodd" clip-rule="evenodd" d="M256.022 80H96V103.882L118.173 126.168H240.692C244.892 126.168 248.986 128.398 252.15 132.164C255.319 135.936 257.229 140.89 257.229 145.559C257.229 150.251 255.301 155.469 252.085 159.495C248.863 163.528 244.776 165.873 240.692 165.873H118.173L96 188.159V211.58H257.792L258.348 211.421C285.546 203.631 305 174.815 305 145.559C305 115.57 284.591 87.2698 256.522 80.1271L256.022 80ZM121.807 221.276L196.141 295.99V321H143.319L97.3831 274.829V221.276H121.807ZM303.618 295.99L229.283 221.276H204.86V274.829L250.796 321H303.618V295.99Z" fill="#D2D9E1"/>
</svg>
