<svg xmlns="http://www.w3.org/2000/svg" width="259.6" height="259.6" viewBox="0 0 259.6 259.6"><defs><style>.a{fill:#ea328a;}</style></defs><circle cx="129.8" cy="129.8" r="129.8"/><path class="a" d="M187.1,162h-9.2l-.6-1.2s-5-10.9-17.4-13.7c11.9-3.5,20-11.1,24-19.9h9.2a30.8,30.8,0,0,0,2.8-12.6,57.3,57.3,0,0,0-1.3-12.6c-3.9-17.5-16.8-29.8-42.2-32.2h-.2l-2.7-.2H70.6v57.7H61.4V162h9.2v28.8h34.8V166.1h0V162h26.3c11.4,0,15,6.7,22.3,23.3q1.2,2.5,2.4,5.4h43.9C195.7,179.4,189.1,166,187.1,162Zm-81.7-60h35.2c7.2,0,13.9,5.4,13.9,12.6s-6.7,12.6-13.9,12.6H105.4Z"/><path class="a" d="M155.4,63.1V55.4h8.4v-34H134V55.3h-8.4v7h17.2A125.2,125.2,0,0,1,155.4,63.1Z"/><polygon class="a" points="113.3 62.4 113.3 55.4 121.7 55.4 121.7 41.1 91.9 41.1 91.9 55.3 83.5 55.3 83.5 62.4 105.4 62.4 113.3 62.4"/><polygon class="a" points="112.4 120.2 123.9 120.2 123.9 109 112.4 109 112.4 120.2"/><path class="a" d="M150,193.6l-1.1-2.4c-8.8-19.9-10.5-22.1-17.3-22.1H112.4v28.8H96.8v6.7h29.8V179.3h11.6v47.8H168V197.8H151.8Z"/></svg>