<svg xmlns="http://www.w3.org/2000/svg" width="138.9" height="205.7" viewBox="0 0 138.9 205.7"><defs><style>.a{fill:#ea328a;}</style></defs><path class="a" d="M125.7,140.6h-9.2l-.6-1.2s-5-10.9-17.4-13.7c11.9-3.5,20-11.1,24-19.9h9.2a30.8,30.8,0,0,0,2.8-12.6,57.3,57.3,0,0,0-1.3-12.6C129.3,63.1,116.4,50.8,91,48.4h-.2l-2.7-.2H9.2v57.7H0v34.8H9.2v28.8H44V144.7h0v-4.1H70.3c11.4,0,15,6.7,22.3,23.3q1.2,2.5,2.4,5.4h43.9C134.3,158,127.7,144.6,125.7,140.6ZM44,80.6H79.2c7.2,0,13.9,5.4,13.9,12.6s-6.7,12.6-13.9,12.6H44Z"/><path class="a" d="M94,41.7V34h8.4V0H72.6V33.9H64.2v7H81.4A125.2,125.2,0,0,1,94,41.7Z"/><polygon class="a" points="51.9 41 51.9 34 60.3 34 60.3 19.7 30.5 19.7 30.5 33.9 22.1 33.9 22.1 41 44 41 51.9 41"/><polygon class="a" points="51 98.8 62.5 98.8 62.5 87.6 51 87.6 51 98.8"/><path class="a" d="M88.6,172.2l-1.1-2.4c-8.8-19.9-10.5-22.1-17.3-22.1H51v28.8H35.4v6.7H65.2V157.9H76.8v47.8h29.8V176.4H90.4Z"/></svg>