<svg viewBox="0 0 48 48" fill="none" xmlns="http://www.w3.org/2000/svg">
    <circle cx="24" cy="24" r="24" fill="white" />
    <path opacity="0.32" fill-rule="evenodd" clip-rule="evenodd"
        d="M24 44C35.0457 44 44 35.0457 44 24C44 12.9543 35.0457 4 24 4C12.9543 4 4 12.9543 4 24C4 35.0457 12.9543 44 24 44ZM45 24C45 35.598 35.598 45 24 45C12.402 45 3 35.598 3 24C3 12.402 12.402 3 24 3C35.598 3 45 12.402 45 24Z"
        fill="#026EF4" />
    <path fill-rule="evenodd" clip-rule="evenodd"
        d="M23.9996 14.3794V14.3801C24.4198 14.3801 24.8338 14.49 25.198 14.6987L27.6093 16.0797C27.954 16.2774 28.0053 16.5906 28.0053 16.7602C28.0053 16.9298 27.954 17.2436 27.6093 17.4407L21.5953 20.8824L16.799 18.1349L22.8012 14.698C23.1647 14.49 23.5794 14.3794 23.9996 14.3794ZM23.9996 12C23.1716 12 22.3436 12.2122 21.6015 12.6373L12 18.1349L21.5946 23.6306L21.5953 23.6301L23.9983 25.0067L26.3985 23.6327L23.999 22.2586L30.0075 18.8176C30.3688 18.6102 30.7815 18.501 31.1989 18.501C31.6164 18.501 32.029 18.6102 32.391 18.8176L33.6005 19.5104L36 18.1363L33.5908 16.7568C32.8507 16.3324 32.0248 16.1209 31.1989 16.1209C30.9163 16.1209 30.6338 16.1457 30.3548 16.1952C30.1995 15.3299 29.6842 14.5195 28.809 14.0182L26.3977 12.6373C25.6558 12.2123 24.8281 12.0001 23.9996 12ZM23.9989 27.7569L12 20.8852V23.634L24.0003 30.5058L35.9978 23.634L35.9999 20.8865L23.9989 27.7569ZM23.9989 33.2512L12 26.3794V29.1282L24.0003 36L35.9978 29.1282L35.9999 26.3808L23.9989 33.2512Z"
        fill="#026EF4" />
</svg>