<svg width="256" height="256" viewBox="0 0 256 256" fill="none" xmlns="http://www.w3.org/2000/svg">
<circle cx="128" cy="128" r="128" fill="black"/>
<g clip-path="url(#clip0_524_472)">
<mask id="mask0_524_472" style="mask-type:luminance" maskUnits="userSpaceOnUse" x="28" y="28" width="200" height="200">
<path d="M228 28H28V228H228V28Z" fill="white"/>
</mask>
<g mask="url(#mask0_524_472)">
<path fill-rule="evenodd" clip-rule="evenodd" d="M150.385 37.363C137.901 24.879 117.66 24.879 105.176 37.363L37.363 105.176C24.879 117.66 24.879 137.901 37.363 150.385L105.176 218.198C117.66 230.682 137.901 230.682 150.385 218.198L218.198 150.385C230.682 137.901 230.682 117.66 218.198 105.176L150.385 37.363ZM191.716 95.956C191.716 78.3009 177.403 63.9885 159.748 63.9885H95.8132C78.158 63.9885 63.8457 78.3009 63.8457 95.956V159.891C63.8457 177.546 78.158 191.858 95.8132 191.858H159.748C177.403 191.858 191.716 177.546 191.716 159.891V95.956Z" fill="white"/>
<path d="M118.739 73.6691C123.733 68.6754 131.829 68.6754 136.822 73.6691L182.031 118.878C187.024 123.871 187.024 131.968 182.031 136.961L136.822 182.17C131.829 187.163 123.733 187.163 118.739 182.17L73.5304 136.961C68.5368 131.968 68.5368 123.871 73.5304 118.878L118.739 73.6691Z" fill="white"/>
</g>
</g>
<defs>
<clipPath id="clip0_524_472">
<rect width="200" height="200" fill="white" transform="translate(28 28)"/>
</clipPath>
</defs>
</svg>
