<?xml version="1.0" encoding="utf-8"?>
<!-- Generator: Adobe Illustrator 26.3.1, SVG Export Plug-In . SVG Version: 6.00 Build 0)  -->
<svg version="1.1" id="Layer_1" xmlns="http://www.w3.org/2000/svg" xmlns:xlink="http://www.w3.org/1999/xlink" x="0px" y="0px"
	 viewBox="0 0 720 720" style="enable-background:new 0 0 720 720;" xml:space="preserve">
<style type="text/css">
	.st0{fill:#6AFF52;}
	.st1{fill:#279262;}
	.st2{fill:url(#SVGID_1_);}
	.st3{fill:#073320;}
	.st4{fill:#FFFFFF;}
</style>
<g>
	<path class="st0" d="M360,2.7C162.7,2.7,2.7,162.7,2.7,360s160,357.3,357.3,357.3s357.3-160,357.3-357.3S557.3,2.7,360,2.7z
		 M598.4,598.4C534.7,662,450,697.1,360,697.1S185.3,662,121.6,598.4C58,534.7,22.9,450,22.9,360c0-90,35.1-174.7,98.7-238.4
		C185.3,58,270,22.9,360,22.9S534.7,58,598.4,121.6C662,185.3,697.1,270,697.1,360C697.1,450,662,534.7,598.4,598.4z"/>
	<path d="M598.4,121.6C534.7,58,450,22.9,360,22.9S185.3,58,121.6,121.6C58,185.3,22.9,270,22.9,360c0,90,35.1,174.7,98.7,238.4
		C185.3,662,270,697.1,360,697.1s174.7-35.1,238.4-98.7C662,534.7,697.1,450,697.1,360C697.1,270,662,185.3,598.4,121.6z"/>
	<g>
		<path class="st1" d="M446.8,355.2c-22.8,1.1-37.6,20.2-55.7,46.1c38.7-39.8,76-40.6,110.2-17.8
			C481.3,364.8,463.4,354.4,446.8,355.2z"/>
		<path class="st0" d="M528.5,320.7c0-6.4-2.9-12.7-4.9-18.9C499.2,236.2,442.2,180.7,367,181c-2.3,0-5.4,0-8.5,0.3
			c-2.3,0-7.5,0.3-10.6,0.3c-70.2,1.6-117.9,44.4-147.3,108.7c-1.8,4.4-5.4,15.8-7.2,20.8c-4.6,19.2-2,33.1,21.8,23.1
			c-5.5,10.9-7.2,21.3-8,32.7c3.4-2.1,6.8-4,10.2-5.6c7.3-3.6,14.8-6,23.3-6.6c-35.7,20.9-50.9,64-40.4,101.4
			c6.3,22.5,21.9,42.9,47.9,55.2c-4.4,0.3-9.4,0-16.9-1.3c3.4,12.5,7.8,24.1,13,30.3c9.8,11.7,22.8,29,31.4,38.3
			c7.8,9.9,27.2,29.9,35.3,36c20.5,15.8,34,23.3,48.8,23.6c15.8,0.3,32.2-7.8,49.3-22c11.2-9.5,25.2-23.6,37.4-38.1
			c8.7-10.6,18.6-23.9,30.6-38.6c6.4-8,9.9-20.8,12.2-29.1c-5.5,1.1-11.4,1.6-16.9,1.3c25.9-12.5,40.7-31.2,47.2-51.6
			c12.9-40.6-7.4-87.8-39.7-104.9c8.1,0.6,16.7,3.3,24.7,7.3c3,1.5,6,3.2,8.8,4.9c-1.3-21-4.9-25.7-8-32.7
			C521,341.8,528.2,339.9,528.5,320.7z M362.4,518.3c12.4,9.8,12.1,17.4,12.5,25.9l-12.5-6.4V518.3z M361.6,570.1
			c12.7,0,25.1-2.6,37-8.3c-20.8,24.1-53.2,23.9-74.4,0C335.9,567.6,348.6,570.1,361.6,570.1z M452.2,532.9
			c-1.3,3.1-3.6,5.2-6.4,7.2c-5.7,3.9-11.9,6.4-18.6,7.5c-5.7,0.8-11.1,1.1-16.6-1.1c-2.6-0.8-4.7-2-6.4-4.2
			c-3.4-4.2-2.6-9.4,0.5-12.7c2.8-3.1,6.4-5.2,10.6-6.7c6-2.7,12.2-3.9,18.9-3.6c3.9-0.3,8,0.5,11.9,1.9c1.3,0.5,2.8,1.3,3.9,2
			C453,525.5,453.8,529.1,452.2,532.9z M268.6,532.9c-1.6-3.6-0.8-6.7,2.3-9.4c2.3-2,5.2-2.8,8.3-3.6c3.3-0.3,5.8-0.3,8.7-0.3
			c8.3,0,16.1,1.9,23.3,5.7c2,1.1,3.6,2.3,5.2,3.9c4.4,4.7,3.9,11.4-1.6,15.3c-3.4,2.3-7.2,3.4-11.4,3.6
			c-10.9,0.5-20.8-2.6-29.6-9.1C271.8,537.5,270,535.4,268.6,532.9z M357.4,518.3v19.4l-12.5,6.4
			C345.5,535.7,345.2,528.1,357.4,518.3z M274.4,355.2c22.8,1.1,37.6,20.2,55.7,46.1c-38.6-39.8-75.6-40.6-110.2-17.8
			C239.9,364.8,257.8,354.4,274.4,355.2z M233.2,393.1c8.3-5.5,18.4-5.2,26.9-5.2c29.6,1.6,58.6,21.3,70.8,48.5
			c7.2,16.3,12.2,54.7,8.3,63.8c-2.6,5.7-3.6,5.9-19.7,5.9c-33,0.3-81.6-18.9-98-55.7C213.5,432.5,210.7,408.4,233.2,393.1z
			 M499,450.3c-16.3,36.8-65,56-98,55.7c-16.1,0-17.1-0.2-19.7-5.9c-3.9-9.1,1.1-47.4,8.3-63.8c12.2-27.2,41.2-46.9,70.8-48.5
			c8.6,0,18.6-0.3,26.9,5.2C509.8,408.4,507,432.5,499,450.3z M501.3,383.5c-34.2-22.8-71.5-22-110.2,17.8
			c18.1-25.9,33-45.1,55.7-46.1C463.4,354.4,481.3,364.8,501.3,383.5z"/>
		<path class="st1" d="M330.1,401.3c-18.1-25.9-33-45.1-55.7-46.1c-16.6-0.8-34.5,9.6-54.4,28.3
			C254.5,360.7,291.5,361.5,330.1,401.3z"/>
		<linearGradient id="SVGID_1_" gradientUnits="userSpaceOnUse" x1="360.1378" y1="146.2101" x2="356.8659" y2="424.3181">
			<stop  offset="0" style="stop-color:#6AFF52"/>
			<stop  offset="4.492691e-02" style="stop-color:#4ED259"/>
			<stop  offset="8.665247e-02" style="stop-color:#39AF5E"/>
			<stop  offset="0.1208" style="stop-color:#2C9A61"/>
			<stop  offset="0.1432" style="stop-color:#279262"/>
			<stop  offset="1" style="stop-color:#000000"/>
		</linearGradient>
		<path class="st2" d="M539.6,168.9c13.8,11.9,28.5-0.5,28-11.9c-1.3-21.8-34.5-20-32.2,2.8c-20.5,8-41.5,21.8-58,43.6
			c-56-51.1-167.8-60.2-235.5,0c-15.5-20-34.5-35-57.5-43.3c1.3-12.5-7.8-19.1-16.5-18.6c-7.8,0.3-15.3,5.7-15.5,16.6
			c0.5,17.1,20.2,19.2,27.5,11.1c10.1,9.4,33.2,29.8,38.3,55.2c-41.8,49.8-53.7,104-45.7,161c-17.4,33.2-14.8,75.7,30.8,108.9
			c-2.8,0-5.9-0.5-9.9-1.6c3.1,4.7,5.5,10.6,8.6,15c3.4,4.7,9.6,10.1,12.7,14.8c127.3,175.6,161.5,175.8,289.6,2.6
			c4.4-5.9,10.1-10.9,15.3-17.7c2.6-3.1,5.7-9.6,8-14c-2.3,0.3-5.9,1.1-10.1,0.5c30.3-15.5,54.4-55.7,30.3-108.7
			c10.9-76.5-15.8-122.1-46.6-161.2C505.7,203.9,520.7,184.8,539.6,168.9z M505.2,334.5c3.1,7,6.7,11.7,8,32.7
			c-2.8-1.8-5.7-3.4-8.8-4.9c-8-3.9-16.6-6.7-24.7-7.3c32.3,17.1,52.6,64.3,39.7,104.9c-6.5,20.4-21.3,39.2-47.2,51.6
			c5.5,0.3,11.4-0.3,16.9-1.3c-2.3,8.3-5.7,21-12.2,29.1c-11.9,14.8-21.8,28-30.6,38.6c-12.2,14.5-26.2,28.5-37.4,38.1
			c-17.1,14.2-33.5,22.3-49.3,22c-14.8-0.3-28.3-7.8-48.8-23.6c-8-6.2-27.5-26.2-35.3-36c-8.6-9.4-21.6-26.7-31.4-38.3
			c-5.2-6.2-9.6-17.8-13-30.3c7.5,1.3,12.5,1.6,16.9,1.3c-26-12.3-41.6-32.7-47.9-55.2c-10.5-37.4,4.7-80.5,40.4-101.4
			c-8.5,0.5-16,3-23.3,6.6c-3.4,1.7-6.8,3.6-10.2,5.6c0.8-11.4,2.6-21.8,8-32.7c-23.9,10.1-26.4-3.9-21.8-23.1
			c1.9-4.9,5.5-16.3,7.2-20.8c29.3-64.3,77-107.1,147.3-108.7c3.1,0,8.3-0.3,10.6-0.3c3.1-0.3,6.2-0.3,8.5-0.3
			c75.2-0.3,132.3,55.2,156.6,120.9c2,6.2,4.9,12.5,4.9,18.9C528.2,339.9,521,341.8,505.2,334.5z"/>
		<path d="M339.2,500.2c3.9-9.1-1.1-47.4-8.3-63.8c-12.2-27.2-41.2-46.9-70.8-48.5c-8.6,0-18.6-0.3-26.9,5.2
			c-22.5,15.3-19.7,39.4-11.7,57.3c16.3,36.8,65,56,98,55.7C335.6,506.1,336.7,505.9,339.2,500.2z M292.8,468.8
			c-3.4,4.1-7.5,5.9-12.5,6.2c-2.3-0.3-4.7-0.5-5.7-2.6c-1.3-2.3-0.3-4.4,1.3-6.2c3.1-3.9,7.2-5.9,12.2-6.2c2.3,0,4.4,0.5,5.7,2.6
			C295.2,464.9,294.2,467,292.8,468.8z M295.2,428.1c-1.1,3.4-2.6,6.4-4.9,9.4c-9.4,11.6-21.8,17.6-37.1,18.6c-3.9,0-7.8-0.5-11.4-2
			c-8.8-3.6-12.7-11.7-10.1-20.8c1.1-3.6,2.6-6.7,4.9-9.6c9.9-12.2,22.8-18.4,38.6-18.6c3.4,0,6.7,0.8,9.9,2
			C294.3,410.7,298.1,418.7,295.2,428.1z"/>
		<path d="M487.3,393.1c-8.3-5.5-18.4-5.2-26.9-5.2c-29.6,1.6-58.6,21.3-70.8,48.5c-7.2,16.3-12.2,54.7-8.3,63.8
			c2.6,5.7,3.6,5.9,19.7,5.9c33,0.3,81.6-18.9,98-55.7C507,432.5,509.8,408.4,487.3,393.1z M475.4,463.9c-0.3,1.1-0.8,1.9-1.3,2.6
			c-3.4,3.8-7.5,5.7-12.2,6.1c-2.6,0-4.9-0.5-5.9-2.8c-1.1-2.3-0.3-4.4,1.3-5.9c3.4-4.2,7.8-6.2,13.3-6.2c0.8,0,1.6,0.3,2,0.5
			C475.1,459.3,476.2,461.3,475.4,463.9z M475.4,426.6c-1.3,4.9-3.6,9.1-6.7,13c-9.4,10-21,16-34,17.1c-4.7,0-8.3-0.3-11.9-1.6
			c-8.8-3.4-13-11.1-10.6-20.2c0.8-2.8,1.9-5.7,3.4-8.3c9.6-14,22.8-21.6,39.9-22c3.1,0,6.2,0.5,9.4,1.9
			C473.3,409.7,477.5,417.5,475.4,426.6z"/>
		<path class="st3" d="M357.4,518.3c-12.2,9.8-11.9,17.4-12.5,25.9l12.5-6.4V518.3z"/>
		<path class="st3" d="M362.4,518.3v19.4l12.5,6.4C374.5,535.7,374.7,528.1,362.4,518.3z"/>
		<path class="st1" d="M311.2,525.3c-7.2-3.9-15-5.7-23.3-5.7c-2.8,0-5.4,0-8.7,0.3c-3.1,0.8-6,1.6-8.3,3.6
			c-3.1,2.7-3.9,5.7-2.3,9.4c1.3,2.6,3.2,4.6,5.2,6.2c8.8,6.5,18.7,9.6,29.6,9.1c4.2-0.3,8-1.3,11.4-3.6c5.5-3.9,6-10.6,1.6-15.3
			C314.8,527.6,313.3,526.4,311.2,525.3z"/>
		<path class="st1" d="M449.9,523.2c-1.1-0.7-2.6-1.5-3.9-2c-3.9-1.3-8-2.1-11.9-1.9c-6.7-0.3-12.9,1-18.9,3.6
			c-4.2,1.5-7.8,3.6-10.6,6.7c-3.1,3.4-3.9,8.6-0.5,12.7c1.8,2.1,3.9,3.4,6.4,4.2c5.5,2.1,10.9,1.9,16.6,1.1
			c6.7-1.1,12.9-3.6,18.6-7.5c2.8-2,5.1-4.2,6.4-7.2C453.8,529.1,453,525.5,449.9,523.2z"/>
		<path class="st3" d="M324.2,561.8c21.2,23.9,53.6,24.1,74.4,0c-11.9,5.7-24.3,8.3-37,8.3C348.6,570.1,335.9,567.6,324.2,561.8z"/>
		<path class="st4" d="M464.8,406.3c-3.2-1.3-6.3-1.9-9.4-1.9c-17.1,0.4-30.3,8-39.9,22c-1.5,2.6-2.6,5.5-3.4,8.3
			c-2.4,9.1,1.8,16.9,10.6,20.2c3.6,1.3,7.2,1.6,11.9,1.6c13-1.1,24.6-7.1,34-17.1c3.1-3.9,5.4-8,6.7-13
			C477.5,417.5,473.3,409.7,464.8,406.3z"/>
		<path class="st4" d="M472.5,458.2c-0.4-0.3-1.2-0.5-2-0.5c-5.5,0-9.9,2-13.3,6.2c-1.6,1.5-2.4,3.6-1.3,5.9c1,2.3,3.4,2.8,5.9,2.8
			c4.7-0.4,8.8-2.3,12.2-6.1c0.5-0.7,1.1-1.5,1.3-2.6C476.2,461.3,475.1,459.3,472.5,458.2z"/>
		<path class="st4" d="M285.2,407c-3.2-1.2-6.5-2-9.9-2c-15.8,0.3-28.7,6.4-38.6,18.6c-2.4,2.9-3.9,6-4.9,9.6
			c-2.7,9.1,1.2,17.1,10.1,20.8c3.6,1.5,7.5,2,11.4,2c15.3-1.1,27.7-7.1,37.1-18.6c2.4-2.9,3.9-6,4.9-9.4
			C298.1,418.7,294.3,410.7,285.2,407z"/>
		<path class="st4" d="M288.2,460.1c-4.9,0.3-9.1,2.3-12.2,6.2c-1.6,1.8-2.7,3.9-1.3,6.2c1.1,2,3.4,2.3,5.7,2.6
			c4.9-0.3,9.1-2.1,12.5-6.2c1.3-1.8,2.4-3.9,1.1-6.2C292.6,460.6,290.5,460.1,288.2,460.1z"/>
	</g>
</g>
</svg>
