<?xml version="1.0" encoding="UTF-8"?>
<svg version="1.1" xmlns="http://www.w3.org/2000/svg" width="1181" height="1181">
<path d="M0 0 C1.54104608 0.0022227 3.08209222 0.0043992 4.62313843 0.00653076 C25.83318883 0.04717624 46.91900036 0.2100106 67.97790527 3.03387451 C70.23844945 3.33601728 72.5004479 3.62544953 74.76269531 3.91455078 C168.98441609 16.10868865 258.89487527 50.08081732 379.0625 136.3125 C379.99618408 137.09753906 379.99618408 137.09753906 380.94873047 137.8984375 C388.92993223 144.61586019 396.69021717 151.53870705 404.30273438 158.67041016 C406.2092609 160.44944698 408.12754556 162.21525613 410.046875 163.98046875 C417.5966343 170.95050801 424.77897901 178.03886633 431.6171875 185.71435547 C433.82425106 188.15480109 436.09089837 190.53803384 438.35107422 192.92919922 C443.67474364 198.56993908 448.83226953 204.26459994 453.671875 210.33203125 C455.51146099 212.62550201 457.37389985 214.8868461 459.265625 217.13671875 C493.64203886 258.10843955 521.72518169 305.3490479 543.0625 354.3125 C543.7419165 355.86976807 543.7419165 355.86976807 544.43505859 357.45849609 C565.8123317 407.00057634 579.52410514 459.05030074 586.875 512.4375 C586.97454987 513.15108673 587.07409973 513.86467346 587.17666626 514.59988403 C590.63896152 539.76550942 591.4397187 564.88820056 591.375 590.25 C591.3727773 591.79104608 591.3706008 593.33209222 591.36846924 594.87313843 C591.32782376 616.08318883 591.1649894 637.16900036 588.34112549 658.22790527 C588.03898272 660.48844945 587.74955047 662.7504479 587.46044922 665.01269531 C575.26631135 759.23441609 541.29418268 849.14487527 455.0625 969.3125 C454.53914063 969.93495605 454.01578125 970.55741211 453.4765625 971.19873047 C446.7764783 979.15933178 439.87686531 986.90619776 432.76074219 994.49658203 C430.86731505 996.52120984 428.98459001 998.55554185 427.1015625 1000.58984375 C420.67999351 1007.50136643 414.2895568 1014.27962098 407.16015625 1020.46875 C405.16542244 1022.22203558 403.29600882 1024.04157153 401.4375 1025.9375 C397.81766711 1029.60749224 393.97439583 1032.95854069 390.0625 1036.3125 C389.0191862 1037.21965539 387.97624621 1038.12724081 386.93359375 1039.03515625 C379.40233579 1045.57097092 371.73239447 1051.88075308 363.82373047 1057.95458984 C362.13500226 1059.2566007 360.45980407 1060.57449123 358.78515625 1061.89453125 C337.58879747 1078.38693349 314.51660352 1093.26854974 291.0625 1106.3125 C289.99789551 1106.90579102 288.93329102 1107.49908203 287.83642578 1108.11035156 C271.26633445 1117.28683366 254.43550891 1125.74168125 237.0625 1133.3125 C235.50523193 1133.9919165 235.50523193 1133.9919165 233.91650391 1134.68505859 C184.37442366 1156.0623317 132.32469926 1169.77410514 78.9375 1177.125 C78.22391327 1177.22454987 77.51032654 1177.32409973 76.77511597 1177.42666626 C51.60949058 1180.88896152 26.48679944 1181.6897187 1.125 1181.625 C-0.41604608 1181.6227773 -1.95709222 1181.6206008 -3.49813843 1181.61846924 C-24.70818883 1181.57782376 -45.79400036 1181.4149894 -66.85290527 1178.59112549 C-69.11344945 1178.28898272 -71.3754479 1177.99955047 -73.63769531 1177.71044922 C-167.85941609 1165.51631135 -257.76987527 1131.54418268 -377.9375 1045.3125 C-378.55995605 1044.78914063 -379.18241211 1044.26578125 -379.82373047 1043.7265625 C-387.78433178 1037.0264783 -395.53119776 1030.12686531 -403.12158203 1023.01074219 C-405.14620984 1021.11731505 -407.18054185 1019.23459001 -409.21484375 1017.3515625 C-416.12636643 1010.92999351 -422.90462098 1004.5395568 -429.09375 997.41015625 C-430.84703558 995.41542244 -432.66657153 993.54600882 -434.5625 991.6875 C-438.23249224 988.06766711 -441.58354069 984.22439583 -444.9375 980.3125 C-445.84465539 979.2691862 -446.75224081 978.22624621 -447.66015625 977.18359375 C-454.19597092 969.65233579 -460.50575308 961.98239447 -466.57958984 954.07373047 C-467.8816007 952.38500226 -469.19949123 950.70980407 -470.51953125 949.03515625 C-487.01193349 927.83879747 -501.89354974 904.76660352 -514.9375 881.3125 C-515.82743652 879.71559326 -515.82743652 879.71559326 -516.73535156 878.08642578 C-525.91183366 861.51633445 -534.36668125 844.68550891 -541.9375 827.3125 C-542.39044434 826.27432129 -542.84338867 825.23614258 -543.31005859 824.16650391 C-564.6873317 774.62442366 -578.39910514 722.57469926 -585.75 669.1875 C-585.84954987 668.47391327 -585.94909973 667.76032654 -586.05166626 667.02511597 C-589.51396152 641.85949058 -590.3147187 616.73679944 -590.25 591.375 C-590.2477773 589.83395392 -590.2456008 588.29290778 -590.24346924 586.75186157 C-590.20282376 565.54181117 -590.0399894 544.45599964 -587.21612549 523.39709473 C-586.91398272 521.13655055 -586.62455047 518.8745521 -586.33544922 516.61230469 C-574.14131135 422.39058391 -540.16918268 332.48012473 -453.9375 212.3125 C-453.41414062 211.69004395 -452.89078125 211.06758789 -452.3515625 210.42626953 C-445.63278722 202.4434607 -438.7084067 194.68184751 -431.57519531 187.06787109 C-429.8090292 185.174798 -428.0565146 183.26962706 -426.3046875 181.36328125 C-419.02953335 173.47810449 -411.56728421 165.97606989 -403.58642578 158.80859375 C-401.84027569 157.224287 -400.11915108 155.61603922 -398.40234375 154 C-392.41265402 148.36245316 -386.38140687 142.87902713 -379.953125 137.73828125 C-377.64825493 135.88423421 -375.37305735 134.00871689 -373.109375 132.10546875 C-332.13562701 97.73277933 -284.90051846 69.64962934 -235.9375 48.3125 C-234.89932129 47.85955566 -233.86114258 47.40661133 -232.79150391 46.93994141 C-183.24942366 25.5626683 -131.19969926 11.85089486 -77.8125 4.5 C-77.09891327 4.40045013 -76.38532654 4.30090027 -75.65011597 4.19833374 C-50.48449058 0.73603848 -25.36179944 -0.0647187 0 0 Z " fill="#000000" transform="translate(589.9375,-0.3125)"/>
<path d="M0 0 C1.54104608 0.0022227 3.08209222 0.0043992 4.62313843 0.00653076 C25.83318883 0.04717624 46.91900036 0.2100106 67.97790527 3.03387451 C70.23844945 3.33601728 72.5004479 3.62544953 74.76269531 3.91455078 C168.98441609 16.10868865 258.89487527 50.08081732 379.0625 136.3125 C379.99618408 137.09753906 379.99618408 137.09753906 380.94873047 137.8984375 C388.92993223 144.61586019 396.69021717 151.53870705 404.30273438 158.67041016 C406.2092609 160.44944698 408.12754556 162.21525613 410.046875 163.98046875 C417.5966343 170.95050801 424.77897901 178.03886633 431.6171875 185.71435547 C433.82425106 188.15480109 436.09089837 190.53803384 438.35107422 192.92919922 C443.67474364 198.56993908 448.83226953 204.26459994 453.671875 210.33203125 C455.51146099 212.62550201 457.37389985 214.8868461 459.265625 217.13671875 C493.64203886 258.10843955 521.72518169 305.3490479 543.0625 354.3125 C543.7419165 355.86976807 543.7419165 355.86976807 544.43505859 357.45849609 C565.8123317 407.00057634 579.52410514 459.05030074 586.875 512.4375 C586.97454987 513.15108673 587.07409973 513.86467346 587.17666626 514.59988403 C590.63896152 539.76550942 591.4397187 564.88820056 591.375 590.25 C591.3727773 591.79104608 591.3706008 593.33209222 591.36846924 594.87313843 C591.32782376 616.08318883 591.1649894 637.16900036 588.34112549 658.22790527 C588.03898272 660.48844945 587.74955047 662.7504479 587.46044922 665.01269531 C575.26631135 759.23441609 541.29418268 849.14487527 455.0625 969.3125 C454.53914063 969.93495605 454.01578125 970.55741211 453.4765625 971.19873047 C446.7764783 979.15933178 439.87686531 986.90619776 432.76074219 994.49658203 C430.86731505 996.52120984 428.98459001 998.55554185 427.1015625 1000.58984375 C420.67999351 1007.50136643 414.2895568 1014.27962098 407.16015625 1020.46875 C405.16542244 1022.22203558 403.29600882 1024.04157153 401.4375 1025.9375 C397.81766711 1029.60749224 393.97439583 1032.95854069 390.0625 1036.3125 C389.0191862 1037.21965539 387.97624621 1038.12724081 386.93359375 1039.03515625 C379.40233579 1045.57097092 371.73239447 1051.88075308 363.82373047 1057.95458984 C362.13500226 1059.2566007 360.45980407 1060.57449123 358.78515625 1061.89453125 C337.58879747 1078.38693349 314.51660352 1093.26854974 291.0625 1106.3125 C289.99789551 1106.90579102 288.93329102 1107.49908203 287.83642578 1108.11035156 C271.26633445 1117.28683366 254.43550891 1125.74168125 237.0625 1133.3125 C235.50523193 1133.9919165 235.50523193 1133.9919165 233.91650391 1134.68505859 C184.37442366 1156.0623317 132.32469926 1169.77410514 78.9375 1177.125 C78.22391327 1177.22454987 77.51032654 1177.32409973 76.77511597 1177.42666626 C51.60949058 1180.88896152 26.48679944 1181.6897187 1.125 1181.625 C-0.41604608 1181.6227773 -1.95709222 1181.6206008 -3.49813843 1181.61846924 C-24.70818883 1181.57782376 -45.79400036 1181.4149894 -66.85290527 1178.59112549 C-69.11344945 1178.28898272 -71.3754479 1177.99955047 -73.63769531 1177.71044922 C-167.85941609 1165.51631135 -257.76987527 1131.54418268 -377.9375 1045.3125 C-378.55995605 1044.78914063 -379.18241211 1044.26578125 -379.82373047 1043.7265625 C-387.78433178 1037.0264783 -395.53119776 1030.12686531 -403.12158203 1023.01074219 C-405.14620984 1021.11731505 -407.18054185 1019.23459001 -409.21484375 1017.3515625 C-416.12636643 1010.92999351 -422.90462098 1004.5395568 -429.09375 997.41015625 C-430.84703558 995.41542244 -432.66657153 993.54600882 -434.5625 991.6875 C-438.23249224 988.06766711 -441.58354069 984.22439583 -444.9375 980.3125 C-445.84465539 979.2691862 -446.75224081 978.22624621 -447.66015625 977.18359375 C-454.19597092 969.65233579 -460.50575308 961.98239447 -466.57958984 954.07373047 C-467.8816007 952.38500226 -469.19949123 950.70980407 -470.51953125 949.03515625 C-487.01193349 927.83879747 -501.89354974 904.76660352 -514.9375 881.3125 C-515.82743652 879.71559326 -515.82743652 879.71559326 -516.73535156 878.08642578 C-525.91183366 861.51633445 -534.36668125 844.68550891 -541.9375 827.3125 C-542.39044434 826.27432129 -542.84338867 825.23614258 -543.31005859 824.16650391 C-564.6873317 774.62442366 -578.39910514 722.57469926 -585.75 669.1875 C-585.84954987 668.47391327 -585.94909973 667.76032654 -586.05166626 667.02511597 C-589.51396152 641.85949058 -590.3147187 616.73679944 -590.25 591.375 C-590.2477773 589.83395392 -590.2456008 588.29290778 -590.24346924 586.75186157 C-590.20282376 565.54181117 -590.0399894 544.45599964 -587.21612549 523.39709473 C-586.91398272 521.13655055 -586.62455047 518.8745521 -586.33544922 516.61230469 C-574.14131135 422.39058391 -540.16918268 332.48012473 -453.9375 212.3125 C-453.41414062 211.69004395 -452.89078125 211.06758789 -452.3515625 210.42626953 C-445.63278722 202.4434607 -438.7084067 194.68184751 -431.57519531 187.06787109 C-429.8090292 185.174798 -428.0565146 183.26962706 -426.3046875 181.36328125 C-419.02953335 173.47810449 -411.56728421 165.97606989 -403.58642578 158.80859375 C-401.84027569 157.224287 -400.11915108 155.61603922 -398.40234375 154 C-392.41265402 148.36245316 -386.38140687 142.87902713 -379.953125 137.73828125 C-377.64825493 135.88423421 -375.37305735 134.00871689 -373.109375 132.10546875 C-332.13562701 97.73277933 -284.90051846 69.64962934 -235.9375 48.3125 C-234.89932129 47.85955566 -233.86114258 47.40661133 -232.79150391 46.93994141 C-183.24942366 25.5626683 -131.19969926 11.85089486 -77.8125 4.5 C-77.09891327 4.40045013 -76.38532654 4.30090027 -75.65011597 4.19833374 C-50.48449058 0.73603848 -25.36179944 -0.0647187 0 0 Z M-125.9375 45.3125 C-126.85869629 45.52374512 -127.77989258 45.73499023 -128.72900391 45.95263672 C-134.49613845 47.29516419 -140.22298648 48.7620246 -145.9375 50.3125 C-147.26201172 50.66900635 -147.26201172 50.66900635 -148.61328125 51.03271484 C-222.18230136 71.05840791 -292.50962392 107.16264195 -351.18457031 155.86376953 C-353.68761324 157.93244039 -356.22170376 159.96232215 -358.75 162 C-363.35523356 165.76854698 -367.76623534 169.72038304 -372.13671875 173.7578125 C-373.58025974 175.07451516 -375.02744992 176.38851539 -376.51977539 177.6496582 C-383.36847115 183.45907571 -389.63833289 189.86296372 -395.97387695 196.21850586 C-397.99514268 198.2451298 -400.02169574 200.26635547 -402.04882812 202.28710938 C-408.22253584 208.45730006 -414.33318421 214.61230782 -419.9375 221.3125 C-420.90966814 222.43124566 -421.88360731 223.54845497 -422.859375 224.6640625 C-429.80987758 232.68732315 -436.50766522 240.86604487 -442.9375 249.3125 C-443.46037598 249.99876465 -443.98325195 250.6850293 -444.52197266 251.39208984 C-464.3555886 277.56168821 -481.63476006 305.2807593 -496.9375 334.3125 C-497.42718262 335.23981934 -497.91686523 336.16713867 -498.42138672 337.12255859 C-516.82648281 372.25183695 -531.157924 409.88381959 -540.9375 448.3125 C-541.22963379 449.44429688 -541.52176758 450.57609375 -541.82275391 451.7421875 C-553.60504094 497.68996499 -559.09056324 544.25264446 -559.125 591.625 C-559.12608765 592.41690735 -559.12717529 593.2088147 -559.1282959 594.02471924 C-559.12525833 613.44238386 -557.95253368 632.69631821 -555.875 652 C-555.77034424 652.97974792 -555.66568848 653.95949585 -555.55786133 654.96893311 C-553.96826262 669.58670135 -551.79735771 684.01463208 -548.9375 698.4375 C-548.77627655 699.25302338 -548.6150531 700.06854675 -548.44894409 700.90878296 C-545.26395029 716.83577511 -541.56465933 732.7311711 -536.75 748.25 C-536.46084717 749.18634277 -536.17169434 750.12268555 -535.8737793 751.08740234 C-518.20627177 807.59578497 -493.39095909 861.97285588 -458.9375 910.3125 C-458.18218994 911.38443604 -458.18218994 911.38443604 -457.41162109 912.47802734 C-450.11411004 922.83281618 -442.47641335 932.81254657 -434.38623047 942.55957031 C-432.31755961 945.06261324 -430.28767785 947.59670376 -428.25 950.125 C-424.48145302 954.73023356 -420.52961696 959.14123534 -416.4921875 963.51171875 C-415.17548484 964.95525974 -413.86148461 966.40244992 -412.6003418 967.89477539 C-406.79092429 974.74347115 -400.38703628 981.01333289 -394.03149414 987.34887695 C-392.0048702 989.37014268 -389.98364453 991.39669574 -387.96289062 993.42382812 C-381.79269994 999.59753584 -375.63769218 1005.70818421 -368.9375 1011.3125 C-367.81875434 1012.28466814 -366.70154503 1013.25860731 -365.5859375 1014.234375 C-357.56267685 1021.18487758 -349.38395513 1027.88266522 -340.9375 1034.3125 C-340.25123535 1034.83537598 -339.5649707 1035.35825195 -338.85791016 1035.89697266 C-312.68831179 1055.7305886 -284.9692407 1073.00976006 -255.9375 1088.3125 C-254.546521 1089.04702393 -254.546521 1089.04702393 -253.12744141 1089.79638672 C-217.9941214 1108.20360033 -180.36684126 1122.52065295 -141.9375 1132.3125 C-140.95652344 1132.56692871 -139.97554688 1132.82135742 -138.96484375 1133.08349609 C-92.9172492 1144.9481061 -46.13154462 1150.46546569 1.375 1150.5 C2.56286102 1150.50163147 2.56286102 1150.50163147 3.77471924 1150.5032959 C23.39526859 1150.50022659 42.81198098 1149.26272081 62.3125 1147.125 C63.30974091 1147.01645691 64.30698181 1146.90791382 65.33444214 1146.79608154 C100.95021344 1142.87418798 135.99171362 1135.47947694 170.0625 1124.3125 C171.1649707 1123.95317383 172.26744141 1123.59384766 173.40332031 1123.22363281 C225.34649562 1106.15968565 275.46878509 1082.09609626 320.0625 1050.3125 C321.13443604 1049.55718994 321.13443604 1049.55718994 322.22802734 1048.78662109 C332.58281618 1041.48911004 342.56254657 1033.85141335 352.30957031 1025.76123047 C354.81261324 1023.69255961 357.34670376 1021.66267785 359.875 1019.625 C364.48023356 1015.85645302 368.89123534 1011.90461696 373.26171875 1007.8671875 C374.70525974 1006.55048484 376.15244992 1005.23648461 377.64477539 1003.9753418 C384.49347115 998.16592429 390.76333289 991.76203628 397.09887695 985.40649414 C399.12014268 983.3798702 401.14669574 981.35864453 403.17382812 979.33789062 C409.34753584 973.16769994 415.45818421 967.01269218 421.0625 960.3125 C422.03466814 959.19375434 423.00860731 958.07654503 423.984375 956.9609375 C430.93487758 948.93767685 437.63266522 940.75895513 444.0625 932.3125 C444.58537598 931.62623535 445.10825195 930.9399707 445.64697266 930.23291016 C459.1927454 912.35984892 471.90219722 893.7748462 483.0625 874.3125 C483.40764648 873.71695313 483.75279297 873.12140625 484.10839844 872.5078125 C500.052623 844.95061125 513.86154332 816.39296069 524.87890625 786.51513672 C526.04905548 783.34887897 527.24205623 780.1919366 528.4375 777.03515625 C533.55250926 763.36942798 537.68782362 749.60111286 541.26269531 735.45751953 C542.02652214 732.45397336 542.8178403 729.45910311 543.6171875 726.46484375 C550.06537157 702.01357856 554.1660942 677.48551056 556.875 652.375 C556.9802298 651.4018988 557.08545959 650.42879761 557.19387817 649.4262085 C559.23377019 630.32112464 560.30032682 611.40194026 560.3125 592.1875 C560.31317474 591.21539581 560.31384949 590.24329163 560.31454468 589.24172974 C560.25865188 537.86998261 553.21907522 486.71739365 539.0625 437.3125 C538.60351318 435.70737549 538.60351318 435.70737549 538.13525391 434.06982422 C529.56774112 404.51633877 518.51177683 375.98568926 505.0625 348.3125 C504.57958496 347.30574219 504.09666992 346.29898437 503.59912109 345.26171875 C489.94690268 316.85416444 473.63845559 289.77180838 455.0625 264.3125 C454.57281738 263.6412207 454.08313477 262.96994141 453.57861328 262.27832031 C444.20983362 249.49625297 434.27228939 237.19015904 424 225.125 C423.57847656 224.62790527 423.15695312 224.13081055 422.72265625 223.61865234 C413.50006224 212.88510821 403.65338473 202.73790454 393.63378906 192.75341797 C391.7963424 190.92139005 389.9643835 189.08399395 388.1328125 187.24609375 C382.27903409 181.38866209 376.40502232 175.6456552 370.0625 170.3125 C368.94397405 169.34007908 367.8267593 168.36614765 366.7109375 167.390625 C358.68767685 160.44012242 350.50895513 153.74233478 342.0625 147.3125 C341.03310303 146.52818604 341.03310303 146.52818604 339.98291016 145.72802734 C322.10984892 132.1822546 303.5248462 119.47280278 284.0625 108.3125 C283.46695313 107.96735352 282.87140625 107.62220703 282.2578125 107.26660156 C250.79521828 89.06276936 218.19863177 74.50290639 184.10308838 62.05844116 C182.15932384 61.34789415 180.21803009 60.6309151 178.27685547 59.91333008 C170.82656271 57.1933738 163.36077092 54.87580989 155.6875 52.875 C154.56811035 52.57988525 153.4487207 52.28477051 152.29541016 51.98071289 C149.99272455 51.37609983 147.68917824 50.77475485 145.38476562 50.17675781 C142.31052843 49.37702239 139.24107572 48.56098783 136.171875 47.7421875 C111.73054294 41.31267355 87.22183794 37.20743081 62.125 34.5 C61.1518988 34.3947702 60.17879761 34.28954041 59.1762085 34.18112183 C40.07112464 32.14122981 21.15194026 31.07467318 1.9375 31.0625 C0.96539581 31.06182526 -0.00670837 31.06115051 -1.00827026 31.06045532 C-43.0965436 31.10624764 -84.91774119 35.88407782 -125.9375 45.3125 Z " fill="#FEFEFE" transform="translate(589.9375,-0.3125)"/>
<path d="M0 0 C150.84404389 0 150.84404389 0 174 7 C175.15749756 7.33161133 175.15749756 7.33161133 176.33837891 7.66992188 C195.73374194 13.27547422 214.52019625 21.86628548 230 35 C231.16868011 35.95775252 232.33798838 36.91473888 233.5078125 37.87109375 C250.23745878 51.70458267 263.15831086 68.36101108 272.15039062 88.14160156 C272.94297523 89.87526651 273.7747482 91.59086645 274.609375 93.3046875 C277.94637473 100.47751681 280.20882347 107.74464964 282.25 115.375 C282.49637207 116.2832251 282.74274414 117.1914502 282.99658203 118.12719727 C286.64338921 132.43089743 287.41003567 146.75403207 287.375 161.4375 C287.37478851 162.26227844 287.37457703 163.08705688 287.37435913 163.93682861 C287.3236768 183.85378281 285.15844401 203.28669515 278 222 C277.71640625 222.74942871 277.4328125 223.49885742 277.140625 224.27099609 C264.27642531 257.71927803 241.25239289 285.28776364 210 303 C209.06945801 303.53318848 209.06945801 303.53318848 208.12011719 304.07714844 C147.11484294 338.43495757 61.63325374 325 0 325 C0 217.75 0 110.5 0 0 Z " fill="#FDFDFD" transform="translate(767,428)"/>
<path d="M0 0 C0.5352832 0.41862305 1.07056641 0.83724609 1.62207031 1.26855469 C29.35410331 23.1844964 47.96678408 55.05685915 52.28344727 90.31518555 C56.04659555 125.12515393 47.13975023 161.45931577 25.26025391 189.21630859 C6.70305663 212.12860308 -15.53112367 227.07183668 -43.5 236.25 C-44.60166504 236.61967896 -44.60166504 236.61967896 -45.72558594 236.99682617 C-57.74970218 240.7828262 -70.15995439 241.41376758 -82.6875 241.375 C-83.38587982 241.37412384 -84.08425964 241.37324768 -84.80380249 241.37234497 C-96.25886438 241.32514162 -107.02675026 240.46304079 -118 237 C-118.78616699 236.75330566 -119.57233398 236.50661133 -120.38232422 236.25244141 C-155.73774127 224.80917211 -184.2715634 201.00348542 -201.68188477 168.07006836 C-217.81080823 135.86538202 -220.87978084 98.53860164 -209.56640625 64.25 C-197.20724713 29.49139054 -172.13785202 1.27736622 -139 -15 C-94.16222103 -35.55151805 -39.14397422 -30.71928686 0 0 Z " fill="#FDFDFD" transform="translate(672,102)"/>
<path d="M0 0 C20.79 0 41.58 0 63 0 C63.33 14.19 63.66 28.38 64 43 C68.95 43.99 73.9 44.98 79 46 C82.48612254 47.16372741 85.76351365 48.32513948 89.125 49.75 C89.97263916 50.10143066 90.82027832 50.45286133 91.69360352 50.81494141 C117.5543854 61.72568862 137.55450482 78.9839374 149 105 C150.69351786 109.56934695 151.85340762 114.26879774 153 119 C153.33644531 120.051875 153.33644531 120.051875 153.6796875 121.125 C155.91249277 128.22103866 155 134.0073335 155 142 C132.56 142 110.12 142 87 142 C86.01 138.04 85.02 134.08 84 130 C82.43798832 126.45381131 80.94513638 123.30168682 79 120 C78.60425781 119.31292969 78.20851563 118.62585938 77.80078125 117.91796875 C70.69720135 107.10260836 57.45804634 100.58166454 45.1875 97.75 C27.12812022 94.90256938 7.73291322 96.07328094 -8 106 C-14.75938744 111.06954058 -18.36419169 118.09257507 -21 126 C-22.04191367 135.90477422 -21.01986962 143.87257039 -15 152 C-2.5304736 164.42308496 17.93876392 167.10386217 34.375 170.5625 C36.50415706 171.02162487 38.63306504 171.4819064 40.76171875 171.94335938 C50.5087476 174.04466786 60.26759781 176.06162444 70.05522156 177.96502686 C79.40873571 179.79069627 88.56182277 181.62742754 97.5625 184.8125 C99.03323975 185.31898071 99.03323975 185.31898071 100.53369141 185.83569336 C112.94271435 190.23144579 124.61860864 195.80416472 135 204 C135.75539063 204.58007812 136.51078125 205.16015625 137.2890625 205.7578125 C150.71980962 216.78856357 157.81247961 232.22244335 161 249 C161.185625 249.89460937 161.37125 250.78921875 161.5625 251.7109375 C164.88863497 276.71634502 160.17024749 303.12794817 145.01953125 323.6875 C143.05541071 326.1638396 141.03840005 328.58475288 139 331 C138.236875 332.010625 137.47375 333.02125 136.6875 334.0625 C125.29608526 346.51358123 110.29626984 354.39862968 95 361 C94.10023438 361.39058594 93.20046875 361.78117187 92.2734375 362.18359375 C83.58339193 365.64077906 72.43414222 369 63 369 C63 382.86 63 396.72 63 411 C42.21 411 21.42 411 0 411 C0 396.81 0 382.62 0 368 C-7.92 366.515 -7.92 366.515 -16 365 C-18.93638999 364.17596341 -21.67058217 363.3729753 -24.5 362.3125 C-25.19448242 362.05831299 -25.88896484 361.80412598 -26.60449219 361.54223633 C-55.49876342 350.63670535 -78.25964792 332.07509341 -91.16992188 303.84301758 C-91.44384766 303.23482178 -91.71777344 302.62662598 -92 302 C-92.53496094 300.82050781 -93.06992187 299.64101563 -93.62109375 298.42578125 C-98.53316256 286.22214286 -99 274.02448546 -99 261 C-65.34 261.495 -65.34 261.495 -31 262 C-30.01 266.29 -29.02 270.58 -28 275 C-25.05524081 283.17988664 -21.88282766 289.59590913 -16 296 C-15.17628906 296.90492188 -15.17628906 296.90492188 -14.3359375 297.828125 C0.82488497 312.65500865 21.2988916 314.32222007 41.32397461 314.38720703 C51.13946088 314.27311074 59.0323934 313.04609869 68 309 C69.0415625 308.54238281 70.083125 308.08476563 71.15625 307.61328125 C80.483928 303.03720266 85.71844775 297.00354265 89.2734375 287.296875 C91.83563963 279.19701021 92.51576357 271.19592216 88.5625 263.4375 C87.70956563 261.95762241 86.85558849 260.4783447 86 259 C85.67 258.01 85.34 257.02 85 256 C83.14221619 254.91132939 83.14221619 254.91132939 81 254 C79.77955173 253.20846538 78.56616742 252.40595263 77.359375 251.59375 C72.87530007 248.76998351 68.28185237 247.09823083 63.25 245.5 C61.86711792 245.05346069 61.86711792 245.05346069 60.45629883 244.59790039 C46.62407974 240.21161382 32.72377571 237.08260077 18.4503479 234.5005188 C-11.20002927 229.13550312 -43.94517251 222.82884414 -67 202 C-67.76828125 201.32453125 -68.5365625 200.6490625 -69.328125 199.953125 C-79.42116303 190.54668819 -85.06135424 179.06914276 -89 166 C-89.3196875 165.05640625 -89.639375 164.1128125 -89.96875 163.140625 C-96.61712011 140.36380149 -92.10567695 114.11636743 -81.1484375 93.51953125 C-76.85613387 86.22603524 -71.87856882 80.06193702 -66 74 C-65.47277344 73.39929688 -64.94554687 72.79859375 -64.40234375 72.1796875 C-51.38946244 57.86884616 -31.3540651 49.59990217 -13 45 C-11.83726562 44.63648438 -10.67453125 44.27296875 -9.4765625 43.8984375 C-6 43 -6 43 0 43 C0 28.81 0 14.62 0 0 Z " fill="#FDFDFD" transform="translate(559,385)"/>
<path d="M0 0 C23.1 0 46.2 0 70 0 C70.01458252 6.22762207 70.02916504 12.45524414 70.04418945 18.87158203 C70.09455061 39.45914682 70.16099927 60.04663654 70.23571491 80.63412666 C70.2806181 93.11496255 70.32004539 105.59577026 70.34643555 118.07666016 C70.36945998 128.95912915 70.40290762 139.84150854 70.44870156 150.7239064 C70.4725738 156.48229339 70.49134186 162.24059196 70.49761391 167.99902725 C70.50369192 173.42778557 70.52378945 178.85631783 70.55427551 184.28499222 C70.56301235 186.26899135 70.56678743 188.25302008 70.56500816 190.23703766 C70.55825063 201.25683636 71.06639614 211.30769831 74 222 C74.30368232 223.14152369 74.30368232 223.14152369 74.61349964 224.30610847 C76.94323743 232.55458029 80.0375573 240.00397898 85 247 C85.43828125 247.63292969 85.8765625 248.26585937 86.328125 248.91796875 C94.66076072 259.7647618 108.88770204 265.07825743 122 267 C140.15506269 268.39536052 159.31388075 266.51628787 174.3125 255.3125 C188.13542855 243.46111094 194.02392686 224.62823165 196 207 C196.37880259 200.22069821 196.31172463 193.42321173 196.31884766 186.63574219 C196.3281597 184.59458525 196.33833025 182.55343208 196.34928894 180.51228333 C196.3764591 175.00284702 196.39169966 169.4934361 196.40471697 163.98395061 C196.42040461 158.21438899 196.44717674 152.44487877 196.4727478 146.675354 C196.51943616 135.76411354 196.55622827 124.85286329 196.58942068 113.94157434 C196.62771249 101.51344741 196.67710408 89.08537224 196.72740483 76.65728903 C196.83057676 51.1048929 196.91841991 25.55247482 197 0 C220.1 0 243.2 0 267 0 C267.04524274 26.28742498 267.08204487 52.57481816 267.10362434 78.86227226 C267.11391283 91.06949132 267.12792648 103.27668436 267.15087891 115.48388672 C267.1708874 126.13048608 267.18373406 136.7770666 267.18817699 147.42368424 C267.19077179 153.05477682 267.1968195 158.6858155 267.21146011 164.31689072 C267.22516219 169.63066939 267.22919746 174.94437261 267.22621536 180.25816727 C267.22675993 182.19535484 267.23066143 184.13254526 267.23841095 186.06971741 C267.29556634 201.11082609 266.73088235 216.22050379 263.3125 230.9375 C263.14588867 231.66437012 262.97927734 232.39124023 262.80761719 233.14013672 C258.06997558 252.69648626 249.8357793 271.4511519 237 287 C236.38769531 287.77601563 235.77539062 288.55203125 235.14453125 289.3515625 C219.58003619 308.13515356 196.44850501 318.99885014 173 324 C171.79472656 324.26683594 170.58945312 324.53367187 169.34765625 324.80859375 C130.08782159 333.13885308 87.83922574 328.52345461 53.3125 307.6875 C32.2891968 293.73509758 18.43475645 274.55829935 10 251 C9.32130859 249.17855469 9.32130859 249.17855469 8.62890625 247.3203125 C5.30852468 237.99959746 3.33431823 228.79585541 2 219 C1.83648104 217.85398095 1.67296207 216.7079619 1.50448799 215.527215 C-0.02891013 204.16328725 -0.27324676 192.98066075 -0.22705078 181.52709961 C-0.22648514 179.53446966 -0.22680619 177.5418393 -0.22793579 175.54920959 C-0.22850436 170.19497766 -0.2168313 164.84083725 -0.20278788 159.48662639 C-0.19019691 153.8706108 -0.18910347 148.25459259 -0.18673706 142.63856506 C-0.18054669 132.02848741 -0.16416928 121.41845148 -0.14403808 110.80839211 C-0.12160259 98.7187537 -0.1106665 86.62911319 -0.10064721 74.53945911 C-0.07980062 49.69294435 -0.04315528 24.84648672 0 0 Z " fill="#FDFDFD" transform="translate(149,428)"/>
<path d="M0 0 C68.51985625 0 68.51985625 0 79.9375 3.625 C80.78868408 3.88933838 81.63986816 4.15367676 82.5168457 4.42602539 C93.90952278 8.09841767 103.87322056 13.15417206 113 21 C113.65097656 21.49628906 114.30195312 21.99257813 114.97265625 22.50390625 C131.11893709 35.31179105 139.66686407 56.47076492 144 76 C144.36931641 77.65128906 144.36931641 77.65128906 144.74609375 79.3359375 C150.05621279 108.99936108 145.61548992 143.62404656 129.25 169.3125 C112.23644226 193.21015624 90.28531073 203.69650424 62 209 C41.54 209 21.08 209 0 209 C0 140.03 0 71.06 0 0 Z " fill="#000000" transform="translate(837,486)"/>
<path d="M0 0 C1.23298828 -0.01160156 2.46597656 -0.02320312 3.73632812 -0.03515625 C20.03234333 0.01649515 35.23985665 4.46134106 47.5625 15.375 C48.16578125 15.85066406 48.7690625 16.32632813 49.390625 16.81640625 C56.48334491 22.9346759 61.32660313 33.4314125 63.5625 42.375 C63.5625 46.335 63.5625 50.295 63.5625 54.375 C51.6825 54.375 39.8025 54.375 27.5625 54.375 C26.5725 50.415 26.5725 50.415 25.5625 46.375 C21.43025091 41.06210831 16.03245613 38.76452599 9.5625 37.375 C-0.43008497 36.77623017 -9.43562319 36.42216015 -18.4375 41.375 C-19.16066406 41.65988281 -19.88382813 41.94476563 -20.62890625 42.23828125 C-22.60838497 43.2334488 -22.60838497 43.2334488 -23.22265625 45.36328125 C-23.35994141 46.51376953 -23.35994141 46.51376953 -23.5 47.6875 C-23.61472656 48.44675781 -23.72945312 49.20601562 -23.84765625 49.98828125 C-23.22694943 53.60020378 -21.12576533 54.9689782 -18.4375 57.375 C-8.40888489 63.25036844 3.18508298 66.43807746 14.19140625 69.97412109 C32.98939508 76.04260227 51.38018553 83.96777812 61.4765625 101.98828125 C65.97722286 111.88002039 66.09617209 124.05520139 63.875 134.65625 C62.95538843 137.07789381 61.91370171 139.16775745 60.5625 141.375 C60.12679687 142.13554687 59.69109375 142.89609375 59.2421875 143.6796875 C50.47573966 157.90720121 36.85982056 165.99268736 20.875 170.05859375 C0.86350856 174.08868578 -20.43427396 171.75345873 -37.74902344 160.55517578 C-48.49497422 153.04419746 -55.19330092 142.6074729 -58.875 130.125 C-59.4375 126.375 -59.4375 126.375 -59.4375 116.375 C-47.5575 116.375 -35.6775 116.375 -23.4375 116.375 C-22.7775 119.015 -22.1175 121.655 -21.4375 124.375 C-18.45313255 129.62748672 -13.98455868 131.53179663 -8.4375 133.375 C-4.97914374 133.92901016 -1.62250505 133.99524637 1.875 133.9375 C3.25051025 133.92541504 3.25051025 133.92541504 4.65380859 133.91308594 C11.98096376 133.69822853 18.37189875 132.59082164 24.5625 128.375 C26.77009465 125.89996547 27.49969413 124.74398447 28.0625 121.4375 C27.38543242 117.29046105 25.70526565 116.10728197 22.5625 113.375 C19.5016563 111.68231653 19.5016563 111.68231653 16.125 110.375 C15.51664307 110.12572754 14.90828613 109.87645508 14.28149414 109.61962891 C5.72394495 106.15787634 -2.94887574 103.07930373 -11.8125 100.5 C-27.90449388 95.5939043 -45.85767435 87.82757071 -54.96875 72.859375 C-56.2400028 70.39077944 -57.39662339 67.9489507 -58.4375 65.375 C-58.80230469 64.48296875 -59.16710937 63.5909375 -59.54296875 62.671875 C-62.35632588 52.30299545 -61.80029065 39.50929735 -56.98046875 29.91015625 C-47.80710551 14.83797208 -34.56515756 5.3799481 -17.53808594 0.95727539 C-11.7142383 -0.13641568 -5.90712191 -0.05540813 0 0 Z " fill="#010101" transform="translate(588.4375,123.625)"/>
</svg>
