<?xml version="1.0" encoding="UTF-8"?><svg id="a" xmlns="http://www.w3.org/2000/svg" xmlns:xlink="http://www.w3.org/1999/xlink" viewBox="0 0 512.1 515.82"><defs><style>.h{fill:none;}.i{fill:url(#g);}.j{fill:url(#e);}.k{fill:url(#c);}.l{clip-path:url(#d);}.m{clip-path:url(#f);}.n{clip-path:url(#b);}</style><clipPath id="b"><path class="h" d="M258.97,31.79l-.18,290.13,201.06,99.58S353.54,39.97,351.26,31.81h-37.27l4.05,23.97.15.06h-39.84l.09-.09-1.32-23.97h-18.15Z"/></clipPath><linearGradient id="c" x1="477.74" y1="-3060.75" x2="486.54" y2="-3055.67" gradientTransform="translate(-250761.83 39924.96) rotate(-90) scale(82.13 -82.13)" gradientUnits="userSpaceOnUse"><stop offset=".51" stop-color="#0b2993"/><stop offset=".61" stop-color="#0934a3"/><stop offset=".81" stop-color="#0453cf"/><stop offset="1" stop-color="#0075ff"/></linearGradient><clipPath id="d"><path class="h" d="M240.38,31.79l-1.32,23.97.12.09h-39.8l.15-.06,4.05-23.97h-37.19s0,.03,0,.05h-.02L57.74,421.5l201.05-99.58.18-290.13h-18.59Z"/></clipPath><linearGradient id="e" x1="484.36" y1="-3058.38" x2="493.04" y2="-3053.36" gradientTransform="translate(-276252.44 44370.6) rotate(-90) scale(90.44 -90.44)" gradientUnits="userSpaceOnUse"><stop offset=".27" stop-color="#0b2993"/><stop offset=".41" stop-color="#073fb2"/><stop offset=".76" stop-color="#0075ff"/><stop offset=".96" stop-color="#153dc8"/></linearGradient><clipPath id="f"><path class="h" d="M57.74,421.5l-15.93,45.8c-1.02,2.94-.55,6.21,1.26,8.76,1.79,2.53,4.72,4.04,7.85,4.04h415.73c3.13,0,6.05-1.51,7.86-4.04,1.81-2.55,2.27-5.82,1.25-8.76l-15.92-45.8-201.06-99.58-201.05,99.58Z"/></clipPath><linearGradient id="g" x1="281.02" y1="527.07" x2="147.67" y2="-229.19" gradientUnits="userSpaceOnUse"><stop offset="0" stop-color="#0b2993"/><stop offset=".15" stop-color="#073fb2"/><stop offset=".53" stop-color="#0075ff"/></linearGradient></defs><g class="n"><rect class="k" x="258.79" y="31.8" width="201.06" height="389.71"/></g><g class="l"><rect class="j" x="57.74" y="31.79" width="201.23" height="389.71"/></g><g class="m"><rect class="i" x="40.79" y="321.92" width="436" height="158.19"/></g></svg>