<?xml version="1.0" encoding="UTF-8"?><svg id="a" xmlns="http://www.w3.org/2000/svg" xmlns:xlink="http://www.w3.org/1999/xlink" viewBox="0 0 827.49 264.32"><defs><style>.h{fill:none;}.i{fill:url(#g);}.j{fill:url(#e);}.k{fill:url(#c);}.l{fill:#fff;}.m{clip-path:url(#d);}.n{clip-path:url(#f);}.o{clip-path:url(#b);}</style><clipPath id="b"><path class="h" d="M136.42,14.79l-.09,145.98,101.16,50.1S184,18.9,182.85,14.8h-18.75l2.04,12.06.08.03h-20.04l.05-.05-.66-12.06h-9.13Z"/></clipPath><linearGradient id="c" x1="4140.16" y1="-3306.21" x2="4144.59" y2="-3303.66" gradientTransform="translate(-271226.54 340385.53) rotate(-90) scale(82.13 -82.13)" gradientUnits="userSpaceOnUse"><stop offset=".51" stop-color="#0b2993"/><stop offset=".61" stop-color="#0934a3"/><stop offset=".81" stop-color="#0453cf"/><stop offset="1" stop-color="#0075ff"/></linearGradient><clipPath id="d"><path class="h" d="M127.06,14.79l-.66,12.06.06.05h-20.03l.08-.03,2.04-12.06h-18.71s0,.02,0,.03h0l-54.65,196.05,101.16-50.1.09-145.98h-9.36Z"/></clipPath><linearGradient id="e" x1="4146.05" y1="-3309.77" x2="4150.42" y2="-3307.24" gradientTransform="translate(-299158.11 375259.46) rotate(-90) scale(90.44 -90.44)" gradientUnits="userSpaceOnUse"><stop offset=".27" stop-color="#0b2993"/><stop offset=".41" stop-color="#073fb2"/><stop offset=".76" stop-color="#0075ff"/><stop offset=".96" stop-color="#153dc8"/></linearGradient><clipPath id="f"><path class="h" d="M35.17,210.87l-8.01,23.04c-.51,1.48-.28,3.12.63,4.41.9,1.27,2.37,2.03,3.95,2.03h209.18c1.57,0,3.05-.76,3.95-2.03.91-1.28,1.14-2.93.63-4.41l-8.01-23.04-101.16-50.1-101.16,50.1Z"/></clipPath><linearGradient id="g" x1="147.51" y1="263.99" x2="80.42" y2="-116.53" gradientUnits="userSpaceOnUse"><stop offset="0" stop-color="#0b2993"/><stop offset=".15" stop-color="#073fb2"/><stop offset=".53" stop-color="#0075ff"/></linearGradient></defs><g class="o"><rect class="k" x="136.33" y="14.79" width="101.16" height="196.08"/></g><g class="m"><rect class="j" x="35.17" y="14.79" width="101.25" height="196.08"/></g><g class="n"><rect class="i" x="26.64" y="160.77" width="219.37" height="79.59"/></g><path class="l" d="M293.35,182.32c14.53,15.48,37.27,29.06,66.64,29.06s42.32-14.84,42.32-28.74c0-18.95-22.42-24.63-48.01-31.27-34.43-8.53-74.85-18.63-74.85-63.17,0-34.74,30.64-61.59,76.75-61.59,32.85,0,59.38,10.42,78.96,29.37l-21.16,27.48c-16.42-16.42-38.85-24-60.95-24s-35.69,10.42-35.69,26.21,21.48,21.79,46.43,28.11c34.74,8.84,76.11,19.58,76.11,65.38,0,35.06-24.63,65.06-81.48,65.06-38.85,0-66.96-13.58-85.59-33.48l20.53-28.42Z"/><path class="l" d="M605.07,148.53h-109.59v91.91h-36.95V29.78h36.95v86.22h109.59V29.78h36.95v210.66h-36.95v-91.91Z"/><path class="l" d="M727.29,184.22l-39.79,56.22h-36.95l55.9-78.33-52.74-74.22h37.27l36.32,51.79,36-51.79h37.27l-52.74,74.22,56.22,78.33h-37.27l-39.48-56.22Z"/></svg>