<svg xmlns="http://www.w3.org/2000/svg" width="69" height="69" viewBox="0 0 69 69" fill="none"><path d="M34.3398 0C53.3048 0.000222654 68.6787 15.3748 68.6787 34.3398C68.6785 51.1485 56.6013 65.1341 40.6514 68.0977V39.1768L40.1885 38.917L21.1348 28.2344V24.7842L34.457 17.0771C42.2776 21.4433 46.9141 23.8408 49.6094 25.1494C50.9826 25.8162 51.8576 26.2034 52.3955 26.4258C52.6642 26.5369 52.8515 26.6077 52.9766 26.6523C53.0389 26.6746 53.0869 26.6909 53.1221 26.7021C53.1394 26.7077 53.1543 26.7123 53.166 26.7158C53.1718 26.7176 53.178 26.7194 53.1826 26.7207C53.1845 26.7212 53.1868 26.7213 53.1885 26.7217L53.1914 26.7227L53.1934 26.7236C53.1941 26.7235 53.1992 26.7058 53.4336 25.8496L53.1943 26.7236L54.3398 27.0371V19.6582L53.8721 19.3994C50.0921 17.3118 45.334 14.8513 41.5273 12.915C39.6232 11.9465 37.9544 11.1081 36.7617 10.5117C36.1656 10.2137 35.6878 9.97569 35.3594 9.8125C35.1953 9.73096 35.0674 9.66759 34.9814 9.625C34.9388 9.60385 34.9057 9.58702 34.8838 9.57617C34.8733 9.57099 34.8648 9.56716 34.8594 9.56445C34.8567 9.56309 34.8539 9.56122 34.8525 9.56055H34.8516L34.8506 9.55957L34.417 9.3457L33.998 9.58594C32.4157 10.4944 27.6178 13.2491 23.2158 15.7764C21.015 17.0399 18.9131 18.2468 17.3613 19.1377C16.5857 19.583 15.9473 19.95 15.5029 20.2051C15.2808 20.3326 15.1064 20.4322 14.9883 20.5C14.9292 20.5339 14.8839 20.5607 14.8535 20.5781C14.8385 20.5867 14.827 20.5933 14.8193 20.5977C14.8155 20.5998 14.8125 20.6014 14.8105 20.6025L14.8086 20.6035L14.8076 20.6045L14.3525 20.8652V32.5547L14.8154 32.8135L33.543 43.3115V68.6689C14.9459 68.2457 0.000259318 53.0385 0 34.3398C0 15.3747 15.3747 0 34.3398 0ZM14.3525 46.875L14.8164 47.1348L28.4609 54.7715L29.8096 55.5264V47.2949L29.3457 47.0352L15.7012 39.3945L14.3525 38.6396V46.875ZM34.9912 22.7197L29.6113 25.7363L28.2051 26.5254L29.6104 27.3164L47.5566 37.4141V45.4971L44.8105 47.0342L44.3467 47.2939V55.5244L45.6953 54.7715L53.875 50.1973L54.3389 49.9385V33.0732L53.875 32.8135C50.6818 31.0259 46.1825 28.5024 42.4814 26.4258C40.6311 25.3876 38.9803 24.4609 37.792 23.7939C37.1979 23.4605 36.7186 23.1921 36.3887 23.0068C36.224 22.9144 36.0963 22.8425 36.0098 22.7939C35.9665 22.7697 35.9333 22.7507 35.9111 22.7383C35.9002 22.7321 35.8913 22.7277 35.8857 22.7246C35.8831 22.7231 35.8812 22.7215 35.8799 22.7207L35.8779 22.7197L35.4346 22.4707L34.9912 22.7197ZM53.2812 25.7988L53.2695 25.7949C53.2263 25.7794 53.1748 25.7567 53.1113 25.7324C53.1806 25.7589 53.236 25.7827 53.2812 25.7988Z" fill="#F5F6F1"></path></svg>
