<?xml version="1.0" encoding="UTF-8"?>
<svg id="Layer_2" data-name="Layer 2" xmlns="http://www.w3.org/2000/svg" viewBox="0 0 202.34 202.34">
  <defs>
    <style>
      .cls-1 {
        fill: #fd684e;
      }

      .cls-2 {
        fill: #fef1ec;
      }
    </style>
  </defs>
  <g id="Layer_1-2" data-name="Layer 1">
    <g>
      <circle class="cls-1" cx="101.17" cy="101.17" r="101.17"/>
      <g>
        <path class="cls-2" d="M42.97,108.42c.05-2,1.8-3.54,3.8-3.54h4.14c2,0,3.75,1.54,3.8,3.54s-1.59,3.73-3.63,3.73h-4.48c-2.04,0-3.69-1.68-3.63-3.73Z"/>
        <path class="cls-2" d="M50.82,79.33c1.04-1.71,3.33-2.16,5.06-1.16l3.59,2.07c1.73,1,2.48,3.21,1.52,4.97-.98,1.8-3.25,2.43-5.01,1.41l-3.88-2.24c-1.77-1.02-2.35-3.3-1.28-5.05Z"/>
        <path class="cls-2" d="M72.15,58.06c1.76-.95,3.97-.21,4.97,1.52l2.07,3.59c1,1.73,.54,4.02-1.16,5.06s-4.03,.49-5.05-1.28l-2.24-3.88c-1.02-1.77-.39-4.03,1.41-5.01Z"/>
        <path class="cls-2" d="M101.27,50.32c2,.05,3.54,1.8,3.54,3.8v4.14c0,2-1.54,3.75-3.54,3.8s-3.73-1.59-3.73-3.63v-4.48c0-2.04,1.68-3.69,3.73-3.63Z"/>
        <path class="cls-2" d="M130.35,58.16c1.71,1.04,2.16,3.33,1.16,5.06l-2.07,3.59c-1,1.73-3.21,2.48-4.97,1.52-1.8-.98-2.43-3.25-1.41-5.01l2.24-3.88c1.02-1.77,3.3-2.35,5.05-1.28Z"/>
        <path class="cls-2" d="M151.62,79.5c.95,1.76,.21,3.97-1.52,4.97l-3.59,2.07c-1.73,1-4.02,.54-5.06-1.16-1.07-1.75-.49-4.03,1.28-5.05l3.88-2.24c1.77-1.02,4.03-.39,5.01,1.41Z"/>
        <path class="cls-2" d="M159.37,108.61c-.05,2-1.8,3.54-3.8,3.54h-4.14c-2,0-3.75-1.54-3.8-3.54s1.59-3.73,3.63-3.73h4.48c2.04,0,3.69,1.68,3.63,3.73Z"/>
        <path class="cls-2" d="M71.22,84.59c7.13-8.61,17.9-14.09,29.95-14.09,15.65,0,29.14,9.24,35.3,22.57h-54.27c-1.59,0-3.11-.63-4.24-1.75l-6.74-6.73Z"/>
        <path class="cls-2" d="M138.8,99.25h-59.17c-1.59,0-3.12-.63-4.24-1.76l-7.89-7.89c-3.05,5.27-4.88,11.34-5.15,17.8h77.64c-.12-2.78-.53-5.56-1.2-8.16Z"/>
        <path class="cls-2" d="M62.35,113.6c.12,2.78,.5,5.48,1.17,8.08l.16,.08h59.03c1.59,0,3.12,.63,4.24,1.76l7.89,7.89c3.05-5.27,4.88-11.34,5.15-17.8H62.35Z"/>
        <path class="cls-2" d="M42.97,127.94H119.68c1.67,0,3.27,.7,4.4,1.92l3.09,3.34H48.24c-2.91,0-5.27-2.36-5.27-5.27h0Z"/>
        <path class="cls-2" d="M142.93,127.94h16.44c0,2.91-2.37,5.27-5.28,5.27h-13.26s1.54-2.63,2.11-5.27Z"/>
        <path class="cls-2" d="M53.67,139.33l95,.17h0c0,2.91-2.36,5.26-5.27,5.26l-84.46-.15c-2.91,0-5.27-2.37-5.27-5.28h0Z"/>
      </g>
    </g>
  </g>
</svg>