<svg version="1.1" xmlns="http://www.w3.org/2000/svg" width="400" height="400">
<path d="M0 0 C132 0 264 0 400 0 C400 132 400 264 400 400 C268 400 136 400 0 400 C0 268 0 136 0 0 Z " fill="#F2F3F7" transform="translate(0,0)"/>
<path d="M0 0 C1.13759766 -0.01224609 2.27519531 -0.02449219 3.44726562 -0.03710938 C19.53290053 -0.06463756 35.27479777 3.13316612 48.828125 12.10546875 C50.62837515 13.31115465 50.62837515 13.31115465 53.125 14.125 C56.7874559 15.72145513 59.91597928 18.19014368 62.5625 21.1875 C62.5625 22.1775 62.5625 23.1675 62.5625 24.1875 C63.2225 24.1875 63.8825 24.1875 64.5625 24.1875 C66.69140625 26.34765625 66.69140625 26.34765625 69.125 29.25 C69.93066406 30.18972656 70.73632812 31.12945312 71.56640625 32.09765625 C73.80848213 35.56826686 74.2719147 38.10401191 74.5625 42.1875 C75.2225 42.1875 75.8825 42.1875 76.5625 42.1875 C78.45155772 50.6207934 79.99690638 58.49367162 79.5625 67.1875 C70.72889726 68.47552244 61.90245655 68.298869 53 68.25 C51.40299619 68.24497543 49.80599086 68.24041421 48.20898438 68.23632812 C44.32678467 68.22539728 40.44465949 68.20818533 36.5625 68.1875 C35.90641992 66.9296986 35.25659078 65.6686355 34.609375 64.40625 C34.24682617 63.70435547 33.88427734 63.00246094 33.51074219 62.27929688 C32.3079667 59.62600635 31.85128386 57.0753386 31.5625 54.1875 C30.9025 54.1875 30.2425 54.1875 29.5625 54.1875 C29.2325 53.135625 28.9025 52.08375 28.5625 51 C26.18580369 45.40910487 21.16748418 43.42796866 15.9375 40.9375 C2.00099563 36.53649862 -17.60380695 37.90112579 -31.1328125 43.25390625 C-35.68313932 45.79772364 -38.85483402 49.16904648 -40.4375 54.1875 C-41.14871564 59.4121995 -40.77191731 64.40194452 -38.4375 69.1875 C-36.60465557 70.31266085 -36.60465557 70.31266085 -34.4375 71.1875 C-33.2309375 72.425 -33.2309375 72.425 -32 73.6875 C-28.25567175 77.34050318 -24.95210326 78.10887503 -19.9375 79 C-15.78539583 79.76550593 -12.19809689 81.04359362 -8.3125 82.6875 C-3.21182364 84.7590852 1.32908247 85.68803753 6.75 86.1875 C12.60899546 86.7338527 16.90419438 88.01978833 22.00390625 90.9609375 C26.20637593 92.97555655 30.68790453 93.56865936 35.23828125 94.44921875 C39.71345931 95.44311846 43.4983491 97.11861159 47.5625 99.1875 C48.84640625 99.77724609 48.84640625 99.77724609 50.15625 100.37890625 C55.22607501 102.75725063 58.67698273 105.09195477 62.5625 109.1875 C63.77379192 109.88611793 65.00445212 110.5519643 66.25 111.1875 C69.92196315 113.40453436 70.23756791 114.31462159 71.5625 118.1875 C72.5525 118.6515625 72.5525 118.6515625 73.5625 119.125 C76.5442426 120.70905076 76.5709151 123.08053399 77.5625 126.1875 C78.5525 126.5175 79.5425 126.8475 80.5625 127.1875 C87.95694035 138.88328147 88.43861723 160.84921019 85.75 174.0625 C85.37621302 175.44365615 84.97951348 176.81877476 84.5625 178.1875 C84.32144531 179.05246094 84.08039063 179.91742188 83.83203125 180.80859375 C82.68897805 184.80637879 81.51751659 188.50499029 79.5625 192.1875 C78.9025 192.1875 78.2425 192.1875 77.5625 192.1875 C76.47335342 194.22057361 75.60818963 195.89508636 75.25 198.1875 C74.22452816 201.17069081 72.03387685 202.33396736 69.5625 204.1875 C69.2325 204.8475 68.9025 205.5075 68.5625 206.1875 C67.9025 206.1875 67.2425 206.1875 66.5625 206.1875 C66.5625 206.8475 66.5625 207.5075 66.5625 208.1875 C59.31879904 214.79780899 52.08773249 219.60871755 42.5625 222.1875 C41.07798259 222.62190947 39.59362059 223.0568502 38.109375 223.4921875 C36.46962649 223.95623339 34.82899068 224.41715491 33.1875 224.875 C32.05610596 225.19754761 32.05610596 225.19754761 30.90185547 225.52661133 C18.78035462 228.74160078 6.1919702 228.3245365 -6.25 228.25 C-7.73242034 228.24496824 -9.21484236 228.24040834 -10.69726562 228.23632812 C-14.2773795 228.2254707 -17.85742843 228.20830135 -21.4375 228.1875 C-21.4375 227.5275 -21.4375 226.8675 -21.4375 226.1875 C-23.12359375 226.00380859 -23.12359375 226.00380859 -24.84375 225.81640625 C-29.61564168 225.21991979 -34.25481856 224.20415216 -38.9375 223.125 C-39.75992188 222.93873047 -40.58234375 222.75246094 -41.4296875 222.56054688 C-43.4330717 222.10629115 -45.4354003 221.64738401 -47.4375 221.1875 C-47.4375 220.5275 -47.4375 219.8675 -47.4375 219.1875 C-48.675 218.81625 -48.675 218.81625 -49.9375 218.4375 C-56.6705678 216.03283293 -61.518225 213.48518077 -66.4375 208.1875 C-67.57928765 207.2865159 -68.72543437 206.39103886 -69.875 205.5 C-74.20408882 201.86394514 -76.96242353 197.22831509 -79.4375 192.1875 C-79.4375 191.5275 -79.4375 190.8675 -79.4375 190.1875 C-80.0975 190.1875 -80.7575 190.1875 -81.4375 190.1875 C-84.52217498 184.79290561 -85.99393705 180.39738129 -86.4375 174.1875 C-87.0975 174.1875 -87.7575 174.1875 -88.4375 174.1875 C-90.32739379 169.31679813 -90.8389447 164.96358662 -91.0625 159.8125 C-91.10117188 159.07644531 -91.13984375 158.34039062 -91.1796875 157.58203125 C-91.27307998 155.78422594 -91.3563371 153.98589892 -91.4375 152.1875 C-90.2309375 152.13851562 -89.024375 152.08953125 -87.78125 152.0390625 C-86.16664694 151.96396468 -84.55206461 151.88841997 -82.9375 151.8125 C-81.75027344 151.76609375 -81.75027344 151.76609375 -80.5390625 151.71875 C-76.68473041 151.52919268 -73.12948829 151.19694681 -69.40625 150.15625 C-65.05488922 148.96190797 -60.92441857 148.96140825 -56.4375 149.0625 C-55.66277344 149.07152344 -54.88804687 149.08054688 -54.08984375 149.08984375 C-52.20559157 149.11310612 -50.32150168 149.1489636 -48.4375 149.1875 C-48.0971875 151.105625 -48.0971875 151.105625 -47.75 153.0625 C-46.71686968 157.82847345 -44.79886458 161.76651825 -42.4609375 166.0234375 C-41.4375 168.1875 -41.4375 168.1875 -41.4375 171.1875 C-40.4475 171.5175 -39.4575 171.8475 -38.4375 172.1875 C-37.75 174.25 -37.75 174.25 -37.4375 176.1875 C-36.7775 176.1875 -36.1175 176.1875 -35.4375 176.1875 C-35.4375 176.8475 -35.4375 177.5075 -35.4375 178.1875 C-34.7775 178.1875 -34.1175 178.1875 -33.4375 178.1875 C-33.4375 178.8475 -33.4375 179.5075 -33.4375 180.1875 C-32.81875 180.47625 -32.2 180.765 -31.5625 181.0625 C-29.4375 182.1875 -29.4375 182.1875 -27.4375 184.1875 C-25.36875966 184.8300235 -25.36875966 184.8300235 -23.4375 185.1875 C-23.4375 185.8475 -23.4375 186.5075 -23.4375 187.1875 C-14.80337942 189.68245634 -6.26962158 189.41326198 2.625 189.3125 C4.17382234 189.30245008 5.72265099 189.29332779 7.27148438 189.28515625 C11.03531428 189.26330207 14.79883623 189.22888343 18.5625 189.1875 C18.5625 188.5275 18.5625 187.8675 18.5625 187.1875 C19.27535156 186.9915625 19.98820312 186.795625 20.72265625 186.59375 C27.93774613 184.34085518 32.39178376 181.57472895 36.5625 175.1875 C36.8925 174.1975 37.2225 173.2075 37.5625 172.1875 C38.2225 172.1875 38.8825 172.1875 39.5625 172.1875 C39.706875 171.259375 39.85125 170.33125 40 169.375 C40.5625 166.1875 40.5625 166.1875 41.5625 163.1875 C41.81466543 158.06013633 41.81715868 153.91154676 39.5625 149.1875 C37.02807594 146.95933014 37.02807594 146.95933014 34.5625 145.1875 C34.5625 144.5275 34.5625 143.8675 34.5625 143.1875 C33.675625 142.919375 32.78875 142.65125 31.875 142.375 C28.5625 141.1875 28.5625 141.1875 26.25 139.75 C18.9644247 135.51420041 10.79873396 134.37206834 2.5625 133.1875 C2.5625 132.5275 2.5625 131.8675 2.5625 131.1875 C1.43328125 131.04054687 1.43328125 131.04054687 0.28125 130.890625 C-7.56672837 129.78581251 -15.11941522 128.12138698 -22.7734375 126.12109375 C-25.61991701 125.39581805 -28.42797516 124.78511503 -31.3125 124.25 C-36.45046069 123.13856258 -40.8309175 120.6424628 -45.4375 118.1875 C-47.18590935 117.33008212 -48.93588875 116.47585764 -50.6875 115.625 C-57.30696473 112.28936989 -61.82145216 108.92637029 -66.4375 103.1875 C-67.9225 102.1975 -67.9225 102.1975 -69.4375 101.1875 C-70.4788413 99.54634611 -71.47449897 97.87581478 -72.4375 96.1875 C-74.20352304 93.63482972 -76.00858127 91.11302313 -77.81640625 88.58984375 C-85.61648597 77.03068946 -84.70992022 58.30856918 -82.265625 45.109375 C-80.81794429 40.0015204 -78.24549099 35.65868565 -75.4375 31.1875 C-75.03789063 30.52105469 -74.63828125 29.85460937 -74.2265625 29.16796875 C-73.1875 27.5 -73.1875 27.5 -71.4375 25.1875 C-70.7775 25.1875 -70.1175 25.1875 -69.4375 25.1875 C-69.19 24.61 -68.9425 24.0325 -68.6875 23.4375 C-67.25450012 20.85810021 -65.65325324 19.12628408 -63.4375 17.1875 C-62.7775 17.1875 -62.1175 17.1875 -61.4375 17.1875 C-61.4375 16.5275 -61.4375 15.8675 -61.4375 15.1875 C-59.7875 14.8575 -58.1375 14.5275 -56.4375 14.1875 C-56.4375 13.5275 -56.4375 12.8675 -56.4375 12.1875 C-55.4475 12.1875 -54.4575 12.1875 -53.4375 12.1875 C-53.4375 11.5275 -53.4375 10.8675 -53.4375 10.1875 C-45.65304041 5.88556181 -37.4008488 4.02815591 -28.6875 2.6171875 C-26.41290914 2.28832807 -26.41290914 2.28832807 -24.4375 1.1875 C-16.3471215 0.01026226 -8.15776629 0.00460631 0 0 Z " fill="#D1D5DB" transform="translate(197.4375,89.8125)"/>
<path d="M0 0 C9.9 1.98 9.9 1.98 20 4 C20 4.33 20 4.66 20 5 C14.55152932 5.21793883 10.12895301 5.09820805 5 3 C4.05125 2.62875 3.1025 2.2575 2.125 1.875 C1.073125 1.441875 1.073125 1.441875 0 1 C0 0.67 0 0.34 0 0 Z " fill="#E3E4E8" transform="translate(156,312)"/>
<path d="M0 0 C0.66 0.33 1.32 0.66 2 1 C1.16855469 1.70576172 1.16855469 1.70576172 0.3203125 2.42578125 C-0.76636719 3.35970703 -0.76636719 3.35970703 -1.875 4.3125 C-2.59429687 4.92738281 -3.31359375 5.54226562 -4.0546875 6.17578125 C-6.19179331 8.0412324 -6.19179331 8.0412324 -8 11 C-8.66 11 -9.32 11 -10 11 C-8.55922954 7.63820226 -6.75249979 5.40843732 -4 3 C-3.34 3 -2.68 3 -2 3 C-2 2.34 -2 1.68 -2 1 C-1.34 0.67 -0.68 0.34 0 0 Z " fill="#DADEE3" transform="translate(138,104)"/>
</svg>