<?xml version="1.0" encoding="utf-8"?>
<!-- Generator: Adobe Illustrator 26.3.1, SVG Export Plug-In . SVG Version: 6.00 Build 0)  -->
<svg version="1.1" id="Layer_1" xmlns="http://www.w3.org/2000/svg" xmlns:xlink="http://www.w3.org/1999/xlink" x="0px" y="0px"
	 viewBox="0 0 776.1 776.1" style="enable-background:new 0 0 776.1 776.1;" xml:space="preserve">
<style type="text/css">
	.st0{fill:url(#SVGID_1_);}
	.st1{fill:#FFFFFF;}
</style>
<g>
	<circle cx="388" cy="388" r="388"/>
</g>
<linearGradient id="SVGID_1_" gradientUnits="userSpaceOnUse" x1="0" y1="388.0315" x2="776.063" y2="388.0315">
	<stop  offset="0" style="stop-color:#00FF41"/>
	<stop  offset="1" style="stop-color:#ADFF00"/>
</linearGradient>
<path class="st0" d="M388,62c44,0,86.7,8.6,126.9,25.6c38.8,16.4,73.7,39.9,103.7,69.9c30,30,53.5,64.8,69.9,103.7
	c17,40.2,25.6,82.9,25.6,126.9s-8.6,86.7-25.6,126.9c-16.4,38.8-39.9,73.7-69.9,103.7c-30,30-64.8,53.5-103.7,69.9
	c-40.2,17-82.9,25.6-126.9,25.6s-86.7-8.6-126.9-25.6c-38.8-16.4-73.7-39.9-103.7-69.9c-30-30-53.5-64.8-69.9-103.7
	C70.6,474.8,62,432.1,62,388s8.6-86.7,25.6-126.9c16.4-38.8,39.9-73.7,69.9-103.7c30-30,64.8-53.5,103.7-69.9
	C301.3,70.6,344,62,388,62 M388,0C173.7,0,0,173.7,0,388s173.7,388,388,388c214.3,0,388-173.7,388-388S602.3,0,388,0L388,0z"/>
<g>
	<g>
		<g>
			<path class="st1" d="M427.1,611.5l74.9-43.2l0,0l66.8-38.6l-66.7-38.5c-0.1,0-0.1,0-0.2,0l-2.8,1.6l0,0l-111,64.1
				c-0.1,0-0.1,0-0.2,0L179.1,436.3l0,67.5c0,6,3.2,11.5,8.3,14.4l192.3,111c5.1,3,11.5,3,16.6,0L427.1,611.5z"/>
			<path class="st1" d="M388,634.7c-3.4,0-6.9-0.9-9.9-2.6L185.8,521c-6.1-3.5-9.9-10.1-9.9-17.2l0-73L388,553.3l112.3-64.8
				c1-0.6,2.3-0.6,3.4,0l71.4,41.2l-146.4,84.5l-1.6-2.8l1.6,2.8L397.9,632C394.9,633.8,391.5,634.7,388,634.7z M182.3,441.8l0,62
				c0,4.8,2.6,9.3,6.7,11.7l192.3,111c4.1,2.4,9.3,2.4,13.5,0l167.6-96.8L502,494.9l-112.3,64.8c-1,0.6-2.3,0.6-3.3,0L182.3,441.8z
				 M500.5,494C500.5,494,500.5,494,500.5,494L500.5,494z M503.5,494L503.5,494C503.5,494,503.5,494,503.5,494z"/>
		</g>
		<g>
			<path class="st1" d="M295.2,272.7l92.8-53.6c0.1,0,0.1,0,0.2,0L597,339.7l0-67.5c0-5.9-3.2-11.4-8.3-14.4l-192.2-111
				c-5.2-3-11.6-3-16.8,0l-58.4,33.7l0,0l-47.2,27.2l0,0l-26.3,15.2l-2,1.2l0,0l-38.5,22.2l66.8,38.6L295.2,272.7L295.2,272.7z"/>
			<path class="st1" d="M600.2,345.2L388,222.7l-114,65.8l-73.1-42.2L378,144.1c6.2-3.6,13.8-3.6,20,0l192.2,111
				c6.1,3.5,9.9,10.1,9.9,17.2L600.2,345.2z M388,215.9c0.6,0,1.2,0.1,1.7,0.5l204.1,117.8l0-62c0-4.8-2.6-9.3-6.7-11.6l-192.2-111
				c-4.2-2.4-9.4-2.4-13.6,0l-167.6,96.7l60.4,34.9l112.3-64.8C386.9,216.1,387.4,215.9,388,215.9z M389.6,221.9L389.6,221.9
				C389.5,221.9,389.5,221.9,389.6,221.9z"/>
		</g>
		<g>
			<path class="st1" d="M179.1,300l0,67.6c0,5.9,3.1,11.3,8.2,14.3L379.8,493c5.1,2.9,11.4,2.9,16.5,0l58.5-33.8L179.1,300z"/>
			<path class="st1" d="M388,498.3c-3.4,0-6.8-0.9-9.8-2.6L185.7,384.6c-6.1-3.5-9.8-10-9.8-17l0-73.1l285.3,164.7l-63.3,36.6
				C394.8,497.5,391.4,498.3,388,498.3z M182.3,305.5l0,62.1c0,4.7,2.5,9.1,6.6,11.5l192.5,111.1c4.1,2.4,9.2,2.4,13.3,0l53.8-31
				L182.3,305.5z"/>
		</g>
		<g>
			<path class="st1" d="M379.7,283.1l-58.5,33.7L597,476.1l0-67.5c0-5.9-3.2-11.4-8.3-14.4l-192.3-111
				C391.2,280.2,384.9,280.2,379.7,283.1z"/>
			<path class="st1" d="M600.2,481.6L314.9,316.9l63.2-36.5c6.1-3.5,13.7-3.5,19.8,0l192.3,111c6.1,3.5,9.9,10.1,9.9,17.2
				L600.2,481.6z M327.6,316.9l266.2,153.7l0-62c0-4.8-2.6-9.3-6.7-11.7l-192.3-111c-4.2-2.4-9.3-2.4-13.5,0L327.6,316.9z"/>
		</g>
	</g>
</g>
</svg>
