<svg width="512" height="512" viewBox="0 0 512 512" fill="none" xmlns="http://www.w3.org/2000/svg">
<circle cx="256" cy="256" r="256" fill="white"/>
<path fill-rule="evenodd" clip-rule="evenodd" d="M256 499.2C390.317 499.2 499.2 390.317 499.2 256C499.2 121.683 390.317 12.8 256 12.8C121.683 12.8 12.8 121.683 12.8 256C12.8 390.317 121.683 499.2 256 499.2ZM256 512C397.386 512 512 397.386 512 256C512 114.614 397.386 0 256 0C114.614 0 0 114.614 0 256C0 397.386 114.614 512 256 512Z" fill="#1F7A55"/>
<path d="M409.59 96.2792C373.047 96.2792 337.486 96.3228 301.91 96.25C293.078 96.2355 286.239 99.5403 280.937 106.616C265.236 127.595 249.374 148.443 233.57 169.349C226.203 179.118 218.836 188.872 211.367 198.772C210.576 197.782 209.961 197.039 209.375 196.268C194.758 176.905 180.023 157.629 165.582 138.15C160.764 131.657 154.92 128.556 146.703 128.643C123.181 128.92 99.659 128.745 76.1517 128.745H71.6699C72.8563 130.346 73.6032 131.394 74.3795 132.428C104.888 172.624 135.381 212.835 165.978 252.959C167.75 255.303 167.838 256.715 166.022 259.117C135.528 299.328 105.137 339.626 74.731 379.895C74.0426 380.827 73.3982 381.788 72.3583 383.258H76.8401C100.347 383.258 123.869 383.156 147.377 383.331C154.846 383.374 160.427 380.637 164.85 374.712C179.599 354.985 194.479 335.375 209.316 315.721C209.931 314.92 210.634 314.178 211.411 313.26C212.216 314.279 212.831 315.022 213.417 315.779C235.841 345.508 258.323 375.207 280.644 404.994C286.107 412.273 293.049 415.767 302.174 415.738C335.685 415.622 369.195 415.695 402.706 415.695H408.858C368.39 362.104 328.391 309.14 288.318 256.089C328.713 202.877 368.961 149.84 409.59 96.2792ZM352.923 386.665C353.275 387.131 353.641 387.582 354.505 388.674C337.178 388.674 320.628 388.717 304.078 388.557C302.862 388.543 301.368 387.174 300.504 386.053C281.669 361.216 262.892 336.336 244.116 311.455C230.758 293.737 217.401 276.005 204.043 258.273C203.472 257.501 202.93 256.715 202.301 255.812C212.363 242.491 222.351 229.228 232.355 215.98C255.013 185.989 277.714 156.013 300.314 125.964C301.881 123.882 303.463 123.14 306.04 123.154C322.093 123.271 338.145 123.213 354.783 123.213C353.949 124.479 353.436 125.367 352.821 126.182C320.789 168.402 288.772 210.651 256.653 252.813C254.822 255.215 254.69 256.715 256.594 259.233C288.772 301.657 320.833 344.168 352.923 386.665Z" fill="#1F7A55"/>
</svg>
