<?xml version="1.0" standalone="no"?>
<!DOCTYPE svg PUBLIC "-//W3C//DTD SVG 20010904//EN"
 "http://www.w3.org/TR/2001/REC-SVG-20010904/DTD/svg10.dtd">
<svg version="1.0" xmlns="http://www.w3.org/2000/svg"
 width="321.000000pt" height="321.000000pt" viewBox="0 0 321.000000 321.000000"
 preserveAspectRatio="xMidYMid meet">

<g transform="translate(0.000000,321.000000) scale(0.100000,-0.100000)"
fill="#000000" stroke="none">
<path d="M810 2264 c-19 -3 -73 -19 -120 -36 -76 -28 -93 -40 -161 -107 -75
-75 -100 -117 -133 -216 -42 -129 2 -319 99 -424 87 -95 171 -126 340 -124
135 1 201 15 300 64 73 36 160 117 189 176 10 21 26 52 35 68 12 23 16 58 15
160 0 123 -2 133 -29 190 -42 86 -123 164 -220 210 -73 34 -87 38 -180 40 -55
2 -116 1 -135 -1z m26 -164 c8 0 26 -12 39 -26 30 -32 34 -107 9 -157 -20 -40
-90 -114 -126 -133 -33 -17 -89 -18 -110 -1 -63 51 -64 149 -1 239 32 47 123
93 161 82 8 -2 20 -4 28 -4z"/>
<path d="M2335 2211 c-132 -37 -171 -59 -245 -135 -129 -132 -178 -292 -134
-437 35 -116 50 -143 109 -204 69 -72 117 -95 239 -119 91 -19 87 -19 261 14
103 20 228 95 287 172 137 179 123 433 -33 589 -54 54 -133 100 -209 122 -62
18 -209 17 -275 -2z m98 -179 c23 -22 27 -34 27 -77 0 -86 -52 -164 -143 -214
-43 -24 -56 -25 -92 -9 -43 19 -69 72 -62 127 9 76 74 180 113 181 7 0 25 7
40 15 37 19 81 11 117 -23z"/>
<path d="M1456 879 c-57 -16 -72 -51 -36 -84 17 -15 45 -18 207 -22 201 -4
235 2 241 43 4 29 -16 43 -79 53 -71 13 -299 19 -333 10z"/>
</g>
</svg>
