<svg id="svg" version="1.1" xmlns="http://www.w3.org/2000/svg" xmlns:xlink="http://www.w3.org/1999/xlink" width="400" height="400" viewBox="0, 0, 400,400"><g id="svgg"><path id="path0" d="M105.600 117.383 C 104.170 117.688,101.470 118.058,99.600 118.204 C 96.928 118.414,95.601 118.758,93.400 119.809 C 91.860 120.545,89.465 121.349,88.078 121.595 C 86.638 121.851,84.270 122.721,82.559 123.622 C 80.911 124.490,79.229 125.200,78.821 125.200 C 78.414 125.200,77.122 125.920,75.951 126.800 C 74.780 127.680,73.635 128.400,73.407 128.400 C 71.722 128.400,54.400 147.878,54.400 149.773 C 54.400 149.999,53.787 151.178,53.039 152.392 C 52.213 153.732,51.483 155.623,51.182 157.200 C 50.910 158.630,50.190 160.880,49.582 162.201 C 46.836 168.168,46.717 185.772,49.383 191.799 C 49.911 192.994,50.624 195.457,50.966 197.273 C 51.413 199.642,51.932 201.051,52.805 202.267 C 53.474 203.199,54.294 204.735,54.627 205.681 C 54.960 206.626,55.657 208.030,56.174 208.800 C 56.692 209.570,57.360 210.679,57.658 211.265 C 59.318 214.529,68.708 222.932,72.313 224.380 C 73.035 224.670,74.259 225.411,75.033 226.026 C 75.925 226.735,77.497 227.384,79.321 227.795 C 80.904 228.152,83.190 228.897,84.400 229.449 C 90.248 232.119,115.857 232.203,123.600 229.578 C 125.470 228.944,128.428 228.136,130.173 227.782 C 132.104 227.390,134.506 226.523,136.307 225.569 C 137.936 224.706,139.569 224.000,139.936 224.000 C 140.972 224.000,148.457 219.506,151.693 216.941 C 156.633 213.025,160.137 209.092,163.363 203.841 C 163.782 203.159,164.709 201.697,165.422 200.593 C 166.135 199.490,166.935 197.780,167.199 196.793 C 167.463 195.807,168.301 193.885,169.062 192.522 C 170.194 190.493,170.512 189.390,170.818 186.433 C 171.023 184.446,171.374 182.051,171.597 181.110 C 172.254 178.344,172.536 169.286,172.062 166.200 C 171.825 164.660,171.353 161.510,171.013 159.200 C 170.561 156.137,170.027 154.242,169.038 152.200 C 168.292 150.660,167.464 148.680,167.197 147.800 C 166.931 146.920,166.220 145.570,165.618 144.800 C 165.016 144.030,164.199 142.773,163.803 142.006 C 162.228 138.959,154.222 130.614,151.253 128.924 C 150.234 128.344,148.950 127.460,148.400 126.960 C 147.850 126.460,146.545 125.686,145.499 125.240 C 144.454 124.793,142.924 123.967,142.099 123.404 C 141.275 122.842,139.357 122.009,137.838 121.555 C 136.319 121.101,134.397 120.280,133.567 119.731 C 132.548 119.056,131.123 118.615,129.177 118.371 C 127.593 118.172,125.644 117.810,124.848 117.568 C 122.523 116.859,108.677 116.726,105.600 117.383 M300.400 121.998 C 299.190 122.159,297.030 122.772,295.600 123.359 C 294.170 123.947,291.237 124.693,289.083 125.017 C 286.508 125.404,284.383 125.997,282.883 126.748 C 281.627 127.376,279.700 128.109,278.600 128.376 C 274.982 129.255,265.402 135.144,263.541 137.632 C 263.024 138.325,260.699 140.806,258.375 143.146 C 253.675 147.879,249.833 152.839,248.968 155.291 C 248.654 156.179,247.862 157.842,247.207 158.987 C 246.553 160.132,245.736 162.401,245.394 164.030 C 245.051 165.660,244.328 167.960,243.787 169.141 C 241.245 174.693,241.343 191.192,243.948 196.298 C 244.410 197.204,245.036 199.375,245.340 201.123 C 245.665 202.998,246.397 205.263,247.125 206.650 C 247.803 207.943,248.819 209.990,249.383 211.200 C 251.811 216.413,258.199 223.866,263.200 227.319 C 264.410 228.155,265.975 229.255,266.678 229.765 C 267.381 230.274,268.706 230.811,269.623 230.957 C 270.540 231.104,272.098 231.779,273.085 232.458 C 274.471 233.412,275.938 233.903,279.539 234.616 C 282.103 235.124,284.957 235.812,285.882 236.146 C 291.408 238.137,304.313 237.976,312.000 235.819 C 313.210 235.479,316.431 234.922,319.158 234.582 C 323.290 234.065,324.555 233.735,326.758 232.600 C 328.211 231.851,330.300 231.040,331.400 230.797 C 332.500 230.554,334.210 229.871,335.200 229.279 C 336.190 228.688,337.533 227.971,338.184 227.686 C 338.835 227.401,340.365 226.421,341.584 225.507 C 342.803 224.593,344.784 223.115,345.988 222.223 C 349.062 219.942,353.953 215.250,354.639 213.925 C 354.956 213.312,355.783 212.164,356.477 211.373 C 357.586 210.111,361.200 204.207,361.200 203.659 C 361.200 203.547,362.020 201.779,363.023 199.731 C 364.560 196.593,364.967 195.237,365.611 191.104 C 366.031 188.407,366.560 185.571,366.787 184.803 C 367.545 182.237,367.301 171.735,366.403 168.309 C 365.965 166.636,365.422 163.963,365.196 162.369 C 364.934 160.527,364.367 158.728,363.641 157.435 C 363.011 156.316,362.182 154.410,361.798 153.200 C 361.414 151.990,360.436 150.100,359.626 149.000 C 358.816 147.900,357.626 146.280,356.982 145.400 C 352.379 139.108,344.078 132.221,337.200 128.986 C 335.990 128.417,333.830 127.352,332.400 126.620 C 330.919 125.861,328.595 125.087,327.000 124.821 C 325.460 124.564,323.235 123.915,322.055 123.378 C 318.378 121.706,307.696 121.026,300.400 121.998 M103.800 138.594 C 110.165 140.333,112.200 143.432,112.200 151.382 L 112.200 157.033 110.277 160.907 C 109.220 163.038,108.173 164.893,107.951 165.030 C 107.729 165.168,107.013 166.027,106.359 166.940 C 93.853 184.414,75.790 183.747,75.265 165.791 C 74.982 156.109,79.820 145.732,86.100 142.549 C 87.234 141.975,88.639 141.152,89.223 140.720 C 90.058 140.103,97.849 137.841,99.800 137.649 C 100.020 137.628,101.820 138.053,103.800 138.594 M299.635 144.100 C 302.257 145.438,305.220 148.135,306.263 150.134 C 307.375 152.262,306.866 163.111,305.574 164.833 C 305.010 165.585,304.050 167.387,303.441 168.837 C 300.651 175.481,286.202 186.657,281.407 185.879 C 277.177 185.192,271.562 180.308,270.065 176.014 C 268.919 172.727,269.786 163.792,271.557 160.636 C 272.185 159.516,272.822 158.060,272.971 157.400 C 273.848 153.535,280.153 147.083,284.226 145.884 C 285.340 145.556,287.301 144.728,288.582 144.044 C 291.991 142.225,296.000 142.245,299.635 144.100 M181.535 290.123 C 172.962 292.084,171.601 300.484,179.482 302.798 C 181.049 303.259,221.188 304.216,225.000 303.884 C 236.281 302.902,236.133 293.820,224.800 291.626 C 217.433 290.199,185.982 289.107,181.535 290.123 " stroke="none" fill="#0b0b0b" fill-rule="evenodd"></path><path id="path1" d="M177.600 0.400 C 177.600 0.641,175.933 0.800,173.400 0.800 C 169.933 0.800,169.200 0.905,169.200 1.400 C 169.200 1.895,168.465 2.000,164.987 2.000 C 161.612 2.000,160.729 2.119,160.545 2.600 C 160.376 3.040,159.682 3.200,157.945 3.200 C 156.207 3.200,155.513 3.360,155.345 3.800 C 155.176 4.239,154.484 4.400,152.757 4.400 C 150.929 4.400,150.400 4.535,150.400 5.000 C 150.400 5.465,149.871 5.600,148.043 5.600 C 146.316 5.600,145.624 5.761,145.455 6.200 C 145.294 6.622,144.636 6.800,143.241 6.800 C 142.011 6.800,141.029 7.028,140.657 7.400 C 140.327 7.730,139.609 8.000,139.061 8.000 C 137.653 8.000,136.800 8.394,136.800 9.043 C 136.800 9.413,136.330 9.600,135.400 9.600 C 134.422 9.600,134.000 9.781,134.000 10.200 C 134.000 10.644,133.533 10.800,132.200 10.800 C 130.867 10.800,130.400 10.956,130.400 11.400 C 130.400 11.844,129.933 12.000,128.600 12.000 C 127.267 12.000,126.800 12.156,126.800 12.600 C 126.800 13.015,126.383 13.200,125.443 13.200 C 124.605 13.200,123.997 13.430,123.855 13.800 C 123.703 14.196,123.077 14.400,122.013 14.400 C 120.846 14.400,120.400 14.566,120.400 15.000 C 120.400 15.375,120.021 15.600,119.387 15.600 C 118.831 15.600,118.271 15.870,118.145 16.200 C 118.016 16.535,117.422 16.800,116.800 16.800 C 116.178 16.800,115.584 17.065,115.455 17.400 C 115.329 17.730,114.764 18.000,114.200 18.000 C 113.636 18.000,113.071 18.270,112.945 18.600 C 112.818 18.930,112.267 19.200,111.720 19.200 C 111.062 19.200,110.654 19.471,110.516 20.000 C 110.368 20.567,109.970 20.800,109.153 20.800 C 108.395 20.800,108.000 21.005,108.000 21.400 C 108.000 21.815,107.583 22.000,106.649 22.000 C 105.906 22.000,105.074 22.270,104.800 22.600 C 104.526 22.930,103.964 23.200,103.551 23.200 C 103.138 23.200,102.800 23.470,102.800 23.800 C 102.800 24.175,102.421 24.400,101.787 24.400 C 101.231 24.400,100.678 24.654,100.559 24.964 C 100.439 25.274,99.905 25.637,99.371 25.772 C 98.837 25.906,98.400 26.192,98.400 26.408 C 98.400 26.623,98.040 26.800,97.600 26.800 C 97.156 26.800,96.800 27.067,96.800 27.400 C 96.800 27.800,96.400 28.000,95.600 28.000 C 94.940 28.000,94.400 28.189,94.400 28.421 C 94.400 28.652,93.860 29.030,93.200 29.260 C 92.540 29.490,92.000 29.931,92.000 30.239 C 92.000 30.548,91.640 30.800,91.200 30.800 C 90.756 30.800,90.400 31.067,90.400 31.400 C 90.400 31.800,90.000 32.000,89.200 32.000 C 88.400 32.000,88.000 32.200,88.000 32.600 C 88.000 32.930,87.730 33.200,87.400 33.200 C 87.070 33.200,86.800 33.470,86.800 33.800 C 86.800 34.200,86.400 34.400,85.600 34.400 C 84.800 34.400,84.400 34.600,84.400 35.000 C 84.400 35.330,84.124 35.600,83.787 35.600 C 83.451 35.600,83.071 35.870,82.945 36.200 C 82.818 36.530,82.464 36.800,82.157 36.800 C 81.851 36.800,81.600 37.070,81.600 37.400 C 81.600 37.759,81.231 38.000,80.681 38.000 C 80.151 38.000,79.347 38.500,78.781 39.183 C 78.242 39.834,77.575 40.374,77.300 40.383 C 77.025 40.392,76.800 40.760,76.800 41.200 C 76.800 41.822,76.533 42.000,75.600 42.000 C 74.800 42.000,74.400 42.200,74.400 42.600 C 74.400 42.933,74.044 43.200,73.600 43.200 C 73.156 43.200,72.800 43.467,72.800 43.800 C 72.800 44.130,72.530 44.400,72.200 44.400 C 71.870 44.400,71.600 44.670,71.600 45.000 C 71.600 45.330,71.330 45.600,71.000 45.600 C 70.670 45.600,70.400 45.870,70.400 46.200 C 70.400 46.530,70.130 46.800,69.800 46.800 C 69.470 46.800,69.200 47.050,69.200 47.357 C 69.200 47.663,68.782 48.018,68.270 48.147 C 67.213 48.412,63.200 52.050,63.200 52.744 C 63.200 52.995,62.840 53.200,62.400 53.200 C 61.956 53.200,61.600 53.467,61.600 53.800 C 61.600 54.130,61.330 54.400,61.000 54.400 C 60.670 54.400,60.400 54.670,60.400 55.000 C 60.400 55.330,60.130 55.600,59.800 55.600 C 59.470 55.600,59.200 55.870,59.200 56.200 C 59.200 56.530,58.930 56.800,58.600 56.800 C 58.270 56.800,58.000 57.070,58.000 57.400 C 58.000 57.730,57.730 58.000,57.400 58.000 C 57.070 58.000,56.800 58.270,56.800 58.600 C 56.800 58.930,56.530 59.200,56.200 59.200 C 55.870 59.200,55.600 59.470,55.600 59.800 C 55.600 60.130,55.330 60.400,55.000 60.400 C 54.670 60.400,54.400 60.670,54.400 61.000 C 54.400 61.330,54.130 61.600,53.800 61.600 C 53.467 61.600,53.200 61.956,53.200 62.400 C 53.200 62.933,52.933 63.200,52.400 63.200 C 51.960 63.200,51.600 63.380,51.600 63.600 C 51.600 63.821,50.880 64.700,50.000 65.554 C 49.120 66.408,48.400 67.267,48.400 67.464 C 48.400 67.661,48.040 68.130,47.600 68.507 C 47.160 68.884,46.800 69.464,46.800 69.796 C 46.800 70.128,46.530 70.400,46.200 70.400 C 45.870 70.400,45.600 70.670,45.600 71.000 C 45.600 71.330,45.330 71.600,45.000 71.600 C 44.670 71.600,44.400 71.870,44.400 72.200 C 44.400 72.530,44.130 72.800,43.800 72.800 C 43.467 72.800,43.200 73.156,43.200 73.600 C 43.200 74.044,42.933 74.400,42.600 74.400 C 42.268 74.400,42.000 74.755,42.000 75.197 C 42.000 75.635,41.640 76.218,41.200 76.493 C 40.760 76.768,40.392 77.174,40.383 77.396 C 40.374 77.618,39.834 78.242,39.183 78.781 C 38.500 79.347,38.000 80.151,38.000 80.681 C 38.000 81.231,37.759 81.600,37.400 81.600 C 37.070 81.600,36.800 81.851,36.800 82.157 C 36.800 82.464,36.530 82.818,36.200 82.945 C 35.870 83.071,35.600 83.451,35.600 83.787 C 35.600 84.124,35.330 84.400,35.000 84.400 C 34.600 84.400,34.400 84.800,34.400 85.600 C 34.400 86.400,34.200 86.800,33.800 86.800 C 33.470 86.800,33.200 87.070,33.200 87.400 C 33.200 87.730,32.930 88.000,32.600 88.000 C 32.200 88.000,32.000 88.400,32.000 89.200 C 32.000 90.000,31.800 90.400,31.400 90.400 C 31.067 90.400,30.800 90.756,30.800 91.200 C 30.800 91.640,30.533 92.000,30.208 92.000 C 29.882 92.000,29.506 92.437,29.372 92.971 C 29.237 93.505,28.874 94.039,28.564 94.159 C 28.250 94.279,28.000 94.913,28.000 95.587 C 28.000 96.399,27.801 96.800,27.400 96.800 C 27.070 96.800,26.800 97.048,26.800 97.351 C 26.800 97.654,26.530 98.126,26.200 98.400 C 25.870 98.674,25.600 99.236,25.600 99.649 C 25.600 100.062,25.330 100.400,25.000 100.400 C 24.600 100.400,24.400 100.800,24.400 101.600 C 24.400 102.400,24.200 102.800,23.800 102.800 C 23.470 102.800,23.200 103.141,23.200 103.557 C 23.200 103.974,22.930 104.418,22.600 104.545 C 22.270 104.671,22.000 105.209,22.000 105.738 C 22.000 106.268,21.730 106.926,21.400 107.200 C 21.070 107.474,20.800 108.306,20.800 109.049 C 20.800 110.133,20.642 110.400,20.000 110.400 C 19.384 110.400,19.200 110.667,19.200 111.557 C 19.200 112.217,18.942 112.813,18.600 112.945 C 18.270 113.071,18.000 113.611,18.000 114.145 C 18.000 114.678,17.730 115.218,17.400 115.345 C 17.049 115.479,16.800 116.079,16.800 116.787 C 16.800 117.599,16.601 118.000,16.200 118.000 C 15.800 118.000,15.600 118.400,15.600 119.200 C 15.600 120.000,15.400 120.400,15.000 120.400 C 14.585 120.400,14.400 120.817,14.400 121.757 C 14.400 122.595,14.170 123.203,13.800 123.345 C 13.404 123.497,13.200 124.123,13.200 125.187 C 13.200 126.354,13.034 126.800,12.600 126.800 C 12.156 126.800,12.000 127.267,12.000 128.600 C 12.000 129.933,11.844 130.400,11.400 130.400 C 10.956 130.400,10.800 130.867,10.800 132.200 C 10.800 133.533,10.644 134.000,10.200 134.000 C 9.758 134.000,9.600 134.461,9.600 135.753 C 9.600 137.170,9.447 137.547,8.800 137.716 C 8.224 137.867,8.000 138.262,8.000 139.129 C 8.000 139.791,7.793 140.402,7.540 140.487 C 7.286 140.571,6.991 141.705,6.883 143.005 C 6.775 144.306,6.442 145.615,6.143 145.914 C 5.845 146.213,5.600 147.267,5.600 148.257 C 5.600 149.324,5.356 150.302,5.000 150.657 C 4.633 151.024,4.400 152.004,4.400 153.180 C 4.400 154.400,4.181 155.284,3.800 155.600 C 3.406 155.927,3.200 156.820,3.200 158.206 C 3.200 159.711,3.028 160.380,2.600 160.545 C 2.120 160.729,2.000 161.607,2.000 164.938 C 2.000 168.151,1.863 169.216,1.400 169.600 C 0.945 169.978,0.800 171.003,0.800 173.849 C 0.800 176.083,0.638 177.600,0.400 177.600 C 0.138 177.600,0.000 185.333,0.000 200.000 C 0.000 214.667,0.138 222.400,0.400 222.400 C 0.638 222.400,0.800 223.917,0.800 226.151 C 0.800 228.997,0.945 230.022,1.400 230.400 C 1.858 230.780,2.000 231.819,2.000 234.800 C 2.000 237.781,2.142 238.820,2.600 239.200 C 2.995 239.528,3.200 240.422,3.200 241.820 C 3.200 243.174,3.417 244.160,3.800 244.543 C 4.177 244.919,4.400 245.903,4.400 247.184 C 4.400 248.629,4.575 249.292,5.000 249.455 C 5.416 249.615,5.600 250.264,5.600 251.566 C 5.600 252.601,5.864 253.796,6.187 254.224 C 6.510 254.651,6.780 255.731,6.787 256.624 C 6.794 257.516,7.064 258.596,7.387 259.024 C 7.710 259.451,7.980 260.312,7.987 260.937 C 7.996 261.732,8.241 262.138,8.800 262.284 C 9.447 262.453,9.600 262.830,9.600 264.247 C 9.600 265.539,9.758 266.000,10.200 266.000 C 10.644 266.000,10.800 266.467,10.800 267.800 C 10.800 269.133,10.956 269.600,11.400 269.600 C 11.842 269.600,12.000 270.062,12.000 271.357 C 12.000 272.550,12.193 273.188,12.600 273.345 C 12.971 273.487,13.200 274.095,13.200 274.938 C 13.200 275.688,13.470 276.526,13.800 276.800 C 14.130 277.074,14.400 277.816,14.400 278.449 C 14.400 279.205,14.606 279.600,15.000 279.600 C 15.401 279.600,15.600 280.001,15.600 280.813 C 15.600 281.521,15.849 282.121,16.200 282.255 C 16.530 282.382,16.800 282.922,16.800 283.455 C 16.800 283.989,17.070 284.529,17.400 284.655 C 17.730 284.782,18.000 285.322,18.000 285.855 C 18.000 286.389,18.270 286.929,18.600 287.055 C 18.942 287.187,19.200 287.783,19.200 288.443 C 19.200 289.333,19.384 289.600,20.000 289.600 C 20.642 289.600,20.800 289.867,20.800 290.951 C 20.800 291.694,21.070 292.526,21.400 292.800 C 21.730 293.074,22.000 293.816,22.000 294.449 C 22.000 295.205,22.206 295.600,22.600 295.600 C 22.933 295.600,23.200 295.956,23.200 296.400 C 23.200 296.844,23.467 297.200,23.800 297.200 C 24.200 297.200,24.400 297.600,24.400 298.400 C 24.400 299.200,24.600 299.600,25.000 299.600 C 25.330 299.600,25.600 299.947,25.600 300.371 C 25.600 300.796,25.870 301.413,26.200 301.743 C 26.530 302.073,26.800 302.541,26.800 302.784 C 26.800 303.027,27.070 303.329,27.400 303.455 C 27.730 303.582,28.000 304.122,28.000 304.655 C 28.000 305.189,28.270 305.729,28.600 305.855 C 28.930 305.982,29.200 306.338,29.200 306.647 C 29.200 306.955,29.560 307.516,30.000 307.893 C 30.440 308.270,30.800 308.808,30.800 309.089 C 30.800 309.370,31.070 309.600,31.400 309.600 C 31.800 309.600,32.000 310.000,32.000 310.800 C 32.000 311.600,32.200 312.000,32.600 312.000 C 32.930 312.000,33.200 312.270,33.200 312.600 C 33.200 312.930,33.470 313.200,33.800 313.200 C 34.201 313.200,34.400 313.601,34.400 314.413 C 34.400 315.121,34.649 315.721,35.000 315.855 C 35.330 315.982,35.600 316.336,35.600 316.643 C 35.600 316.949,35.870 317.200,36.200 317.200 C 36.530 317.200,36.800 317.470,36.800 317.800 C 36.800 318.130,37.070 318.400,37.400 318.400 C 37.775 318.400,38.000 318.779,38.000 319.413 C 38.000 319.969,38.270 320.529,38.600 320.655 C 38.930 320.782,39.200 321.136,39.200 321.443 C 39.200 321.749,39.470 322.000,39.800 322.000 C 40.130 322.000,40.400 322.270,40.400 322.600 C 40.400 322.933,40.756 323.200,41.200 323.200 C 41.816 323.200,42.000 323.467,42.000 324.357 C 42.000 325.017,42.258 325.613,42.600 325.745 C 42.930 325.871,43.200 326.251,43.200 326.587 C 43.200 326.924,43.470 327.200,43.800 327.200 C 44.130 327.200,44.400 327.470,44.400 327.800 C 44.400 328.130,44.670 328.400,45.000 328.400 C 45.330 328.400,45.600 328.670,45.600 329.000 C 45.600 329.330,45.870 329.600,46.200 329.600 C 46.530 329.600,46.800 329.870,46.800 330.200 C 46.800 330.530,46.984 330.800,47.209 330.800 C 47.433 330.800,47.833 331.295,48.098 331.900 C 48.362 332.505,49.618 334.058,50.889 335.352 C 52.160 336.645,53.200 337.860,53.200 338.052 C 53.200 338.243,53.470 338.400,53.800 338.400 C 54.130 338.400,54.400 338.670,54.400 339.000 C 54.400 339.330,54.670 339.600,55.000 339.600 C 55.330 339.600,55.600 339.870,55.600 340.200 C 55.600 340.530,55.870 340.800,56.200 340.800 C 56.530 340.800,56.800 341.070,56.800 341.400 C 56.800 341.730,57.070 342.000,57.400 342.000 C 57.730 342.000,58.000 342.270,58.000 342.600 C 58.000 342.930,58.270 343.200,58.600 343.200 C 58.930 343.200,59.200 343.470,59.200 343.800 C 59.200 344.130,59.470 344.400,59.800 344.400 C 60.130 344.400,60.400 344.670,60.400 345.000 C 60.400 345.330,60.670 345.600,61.000 345.600 C 61.330 345.600,61.600 345.887,61.600 346.237 C 61.600 346.588,61.960 346.969,62.400 347.084 C 62.840 347.199,63.200 347.542,63.200 347.847 C 63.200 348.151,63.470 348.400,63.800 348.400 C 64.130 348.400,64.400 348.670,64.400 349.000 C 64.400 349.330,64.580 349.600,64.800 349.600 C 65.020 349.600,65.525 349.915,65.922 350.300 C 67.471 351.801,69.379 353.200,69.877 353.200 C 70.165 353.200,70.400 353.470,70.400 353.800 C 70.400 354.130,70.670 354.400,71.000 354.400 C 71.330 354.400,71.600 354.670,71.600 355.000 C 71.600 355.330,71.870 355.600,72.200 355.600 C 72.530 355.600,72.800 355.876,72.800 356.213 C 72.800 356.549,73.115 356.944,73.500 357.090 C 73.885 357.236,74.438 357.590,74.729 357.878 C 75.019 358.165,75.604 358.400,76.029 358.400 C 76.453 358.400,76.800 358.670,76.800 359.000 C 76.800 359.330,77.070 359.600,77.400 359.600 C 77.730 359.600,78.000 359.870,78.000 360.200 C 78.000 360.530,78.251 360.800,78.557 360.800 C 78.864 360.800,79.218 361.070,79.345 361.400 C 79.471 361.730,80.031 362.000,80.587 362.000 C 81.221 362.000,81.600 362.225,81.600 362.600 C 81.600 362.930,81.851 363.200,82.157 363.200 C 82.464 363.200,82.818 363.470,82.945 363.800 C 83.071 364.130,83.451 364.400,83.787 364.400 C 84.124 364.400,84.400 364.670,84.400 365.000 C 84.400 365.400,84.800 365.600,85.600 365.600 C 86.400 365.600,86.800 365.800,86.800 366.200 C 86.800 366.530,87.049 366.800,87.353 366.800 C 87.658 366.800,88.001 367.160,88.116 367.600 C 88.254 368.129,88.662 368.400,89.320 368.400 C 89.867 368.400,90.418 368.670,90.545 369.000 C 90.671 369.330,91.051 369.600,91.387 369.600 C 91.724 369.600,92.000 369.777,92.000 369.992 C 92.000 370.208,92.437 370.494,92.971 370.628 C 93.505 370.763,94.039 371.126,94.159 371.436 C 94.279 371.750,94.913 372.000,95.587 372.000 C 96.399 372.000,96.800 372.199,96.800 372.600 C 96.800 372.930,97.076 373.200,97.413 373.200 C 97.749 373.200,98.129 373.470,98.255 373.800 C 98.382 374.130,98.916 374.400,99.443 374.400 C 100.027 374.400,100.400 374.634,100.400 375.000 C 100.400 375.400,100.800 375.600,101.600 375.600 C 102.400 375.600,102.800 375.800,102.800 376.200 C 102.800 376.530,103.141 376.800,103.557 376.800 C 103.974 376.800,104.418 377.070,104.545 377.400 C 104.679 377.750,105.278 378.000,105.984 378.000 C 106.760 378.000,107.372 378.287,107.693 378.800 C 107.996 379.286,108.626 379.600,109.296 379.600 C 110.011 379.600,110.400 379.812,110.400 380.200 C 110.400 380.595,110.795 380.800,111.557 380.800 C 112.217 380.800,112.813 381.058,112.945 381.400 C 113.071 381.730,113.611 382.000,114.145 382.000 C 114.678 382.000,115.218 382.270,115.345 382.600 C 115.479 382.951,116.079 383.200,116.787 383.200 C 117.599 383.200,118.000 383.399,118.000 383.800 C 118.000 384.200,118.400 384.400,119.200 384.400 C 120.000 384.400,120.400 384.600,120.400 385.000 C 120.400 385.431,120.840 385.600,121.957 385.600 C 122.972 385.600,123.595 385.809,123.745 386.200 C 123.887 386.572,124.496 386.800,125.345 386.800 C 126.193 386.800,126.802 387.028,126.945 387.400 C 127.097 387.796,127.723 388.000,128.787 388.000 C 129.894 388.000,130.400 388.174,130.400 388.553 C 130.400 389.107,131.559 389.584,132.929 389.595 C 133.329 389.598,133.927 389.870,134.257 390.200 C 134.587 390.530,135.455 390.800,136.186 390.800 C 136.998 390.800,137.604 391.033,137.745 391.400 C 137.888 391.773,138.498 392.000,139.359 392.000 C 140.120 392.000,141.013 392.270,141.343 392.600 C 141.683 392.940,142.660 393.200,143.600 393.200 C 144.540 393.200,145.517 393.460,145.857 393.800 C 146.225 394.167,147.205 394.400,148.386 394.400 C 149.731 394.400,150.384 394.581,150.545 395.000 C 150.710 395.431,151.385 395.600,152.945 395.600 C 154.504 395.600,155.179 395.769,155.345 396.200 C 155.514 396.642,156.212 396.800,157.987 396.800 C 159.865 396.800,160.400 396.933,160.400 397.400 C 160.400 397.895,161.135 398.000,164.613 398.000 C 167.988 398.000,168.871 398.119,169.055 398.600 C 169.240 399.080,170.116 399.200,173.443 399.200 C 175.948 399.200,177.600 399.359,177.600 399.600 C 177.600 399.862,185.333 400.000,200.000 400.000 C 214.667 400.000,222.400 399.862,222.400 399.600 C 222.400 399.359,224.071 399.200,226.613 399.200 C 229.988 399.200,230.871 399.081,231.055 398.600 C 231.240 398.120,232.116 398.000,235.443 398.000 C 238.871 398.000,239.600 397.895,239.600 397.400 C 239.600 396.933,240.135 396.800,242.013 396.800 C 243.788 396.800,244.486 396.642,244.655 396.200 C 244.821 395.769,245.496 395.600,247.055 395.600 C 248.615 395.600,249.290 395.431,249.455 395.000 C 249.616 394.581,250.269 394.400,251.614 394.400 C 252.795 394.400,253.775 394.167,254.143 393.800 C 254.496 393.446,255.474 393.200,256.522 393.200 C 257.616 393.200,258.494 392.969,258.800 392.600 C 259.074 392.270,259.912 392.000,260.662 392.000 C 261.505 392.000,262.113 391.771,262.255 391.400 C 262.406 391.008,263.029 390.800,264.055 390.800 C 265.082 390.800,265.705 390.592,265.855 390.200 C 265.984 389.864,266.580 389.600,267.210 389.600 C 268.740 389.600,269.600 389.225,269.600 388.557 C 269.600 388.163,270.128 388.000,271.400 388.000 C 272.733 388.000,273.200 387.844,273.200 387.400 C 273.200 386.981,273.622 386.800,274.600 386.800 C 275.578 386.800,276.000 386.619,276.000 386.200 C 276.000 385.756,276.467 385.600,277.800 385.600 C 279.133 385.600,279.600 385.444,279.600 385.000 C 279.600 384.605,279.995 384.400,280.757 384.400 C 281.417 384.400,282.013 384.142,282.145 383.800 C 282.271 383.470,282.836 383.200,283.400 383.200 C 283.964 383.200,284.529 382.930,284.655 382.600 C 284.787 382.258,285.383 382.000,286.043 382.000 C 286.805 382.000,287.200 381.795,287.200 381.400 C 287.200 381.000,287.600 380.800,288.400 380.800 C 289.200 380.800,289.600 380.600,289.600 380.200 C 289.600 379.796,290.004 379.600,290.837 379.600 C 291.738 379.600,292.132 379.383,292.284 378.800 C 292.442 378.197,292.830 378.000,293.859 378.000 C 294.704 378.000,295.313 377.771,295.455 377.400 C 295.582 377.070,296.026 376.800,296.443 376.800 C 296.859 376.800,297.200 376.530,297.200 376.200 C 297.200 375.800,297.600 375.600,298.400 375.600 C 299.200 375.600,299.600 375.400,299.600 375.000 C 299.600 374.625,299.979 374.400,300.613 374.400 C 301.169 374.400,301.729 374.130,301.855 373.800 C 301.982 373.470,302.342 373.200,302.655 373.200 C 302.969 373.200,303.329 372.930,303.455 372.600 C 303.582 372.270,304.122 372.000,304.655 372.000 C 305.189 372.000,305.722 371.746,305.841 371.436 C 305.961 371.126,306.495 370.763,307.029 370.628 C 307.563 370.494,308.000 370.208,308.000 369.992 C 308.000 369.777,308.360 369.600,308.800 369.600 C 309.244 369.600,309.600 369.333,309.600 369.000 C 309.600 368.621,309.982 368.400,310.637 368.400 C 311.338 368.400,311.743 368.141,311.884 367.600 C 311.999 367.160,312.342 366.800,312.647 366.800 C 312.951 366.800,313.200 366.530,313.200 366.200 C 313.200 365.805,313.595 365.600,314.357 365.600 C 315.017 365.600,315.613 365.342,315.745 365.000 C 315.871 364.670,316.251 364.400,316.587 364.400 C 316.924 364.400,317.200 364.130,317.200 363.800 C 317.200 363.470,317.470 363.200,317.800 363.200 C 318.130 363.200,318.400 362.930,318.400 362.600 C 318.400 362.225,318.779 362.000,319.413 362.000 C 319.969 362.000,320.529 361.730,320.655 361.400 C 320.782 361.070,321.136 360.800,321.443 360.800 C 321.749 360.800,322.000 360.530,322.000 360.200 C 322.000 359.870,322.270 359.600,322.600 359.600 C 322.930 359.600,323.200 359.330,323.200 359.000 C 323.200 358.625,323.579 358.400,324.213 358.400 C 324.769 358.400,325.322 358.148,325.440 357.839 C 325.559 357.531,326.003 357.188,326.428 357.077 C 326.852 356.966,327.200 356.588,327.200 356.237 C 327.200 355.887,327.470 355.600,327.800 355.600 C 328.130 355.600,328.400 355.330,328.400 355.000 C 328.400 354.670,328.670 354.400,329.000 354.400 C 329.330 354.400,329.600 354.130,329.600 353.800 C 329.600 353.470,329.787 353.200,330.016 353.200 C 330.546 353.200,332.734 351.671,333.881 350.500 C 334.365 350.005,334.846 349.600,334.948 349.600 C 335.344 349.600,338.400 346.440,338.400 346.031 C 338.400 345.794,338.670 345.600,339.000 345.600 C 339.330 345.600,339.600 345.330,339.600 345.000 C 339.600 344.670,339.870 344.400,340.200 344.400 C 340.530 344.400,340.800 344.130,340.800 343.800 C 340.800 343.470,341.070 343.200,341.400 343.200 C 341.730 343.200,342.000 342.930,342.000 342.600 C 342.000 342.270,342.270 342.000,342.600 342.000 C 342.930 342.000,343.200 341.730,343.200 341.400 C 343.200 341.070,343.470 340.800,343.800 340.800 C 344.130 340.800,344.400 340.530,344.400 340.200 C 344.400 339.870,344.670 339.600,345.000 339.600 C 345.330 339.600,345.600 339.330,345.600 339.000 C 345.600 338.670,345.794 338.400,346.031 338.400 C 346.420 338.400,349.600 335.353,349.600 334.981 C 349.600 334.897,350.140 334.275,350.800 333.600 C 351.460 332.925,352.000 332.103,352.000 331.774 C 352.000 331.444,352.270 331.071,352.600 330.945 C 352.930 330.818,353.200 330.464,353.200 330.157 C 353.200 329.851,353.470 329.600,353.800 329.600 C 354.130 329.600,354.400 329.330,354.400 329.000 C 354.400 328.670,354.670 328.400,355.000 328.400 C 355.330 328.400,355.600 328.130,355.600 327.800 C 355.600 327.470,355.876 327.200,356.213 327.200 C 356.549 327.200,356.944 326.885,357.090 326.500 C 357.236 326.115,357.590 325.562,357.878 325.271 C 358.165 324.981,358.400 324.396,358.400 323.971 C 358.400 323.547,358.670 323.200,359.000 323.200 C 359.330 323.200,359.600 322.930,359.600 322.600 C 359.600 322.270,359.870 322.000,360.200 322.000 C 360.530 322.000,360.800 321.749,360.800 321.443 C 360.800 321.136,361.070 320.782,361.400 320.655 C 361.730 320.529,362.000 319.969,362.000 319.413 C 362.000 318.779,362.225 318.400,362.600 318.400 C 362.930 318.400,363.200 318.130,363.200 317.800 C 363.200 317.470,363.470 317.200,363.800 317.200 C 364.130 317.200,364.400 316.924,364.400 316.587 C 364.400 316.251,364.670 315.871,365.000 315.745 C 365.342 315.613,365.600 315.017,365.600 314.357 C 365.600 313.595,365.805 313.200,366.200 313.200 C 366.530 313.200,366.800 312.951,366.800 312.647 C 366.800 312.342,367.160 311.999,367.600 311.884 C 368.141 311.743,368.400 311.338,368.400 310.637 C 368.400 309.982,368.621 309.600,369.000 309.600 C 369.333 309.600,369.600 309.244,369.600 308.800 C 369.600 308.360,369.777 308.000,369.992 308.000 C 370.208 308.000,370.494 307.563,370.628 307.029 C 370.763 306.495,371.126 305.961,371.436 305.841 C 371.746 305.722,372.000 305.189,372.000 304.655 C 372.000 304.122,372.270 303.582,372.600 303.455 C 372.930 303.329,373.200 302.969,373.200 302.655 C 373.200 302.342,373.470 301.982,373.800 301.855 C 374.130 301.729,374.400 301.169,374.400 300.613 C 374.400 299.979,374.625 299.600,375.000 299.600 C 375.400 299.600,375.600 299.200,375.600 298.400 C 375.600 297.600,375.800 297.200,376.200 297.200 C 376.533 297.200,376.800 296.844,376.800 296.400 C 376.800 295.956,377.067 295.600,377.400 295.600 C 377.773 295.600,378.000 295.222,378.000 294.600 C 378.000 294.050,378.360 293.240,378.800 292.800 C 379.244 292.356,379.600 291.467,379.600 290.800 C 379.600 290.000,379.800 289.600,380.200 289.600 C 380.600 289.600,380.800 289.200,380.800 288.400 C 380.800 287.600,381.000 287.200,381.400 287.200 C 381.800 287.200,382.000 286.800,382.000 286.000 C 382.000 285.200,382.200 284.800,382.600 284.800 C 382.995 284.800,383.200 284.405,383.200 283.643 C 383.200 282.983,383.458 282.387,383.800 282.255 C 384.151 282.121,384.400 281.521,384.400 280.813 C 384.400 280.001,384.599 279.600,385.000 279.600 C 385.394 279.600,385.600 279.205,385.600 278.449 C 385.600 277.816,385.870 277.074,386.200 276.800 C 386.530 276.526,386.800 275.688,386.800 274.938 C 386.800 274.095,387.029 273.487,387.400 273.345 C 387.807 273.188,388.000 272.550,388.000 271.357 C 388.000 270.122,388.165 269.600,388.557 269.600 C 389.225 269.600,389.600 268.740,389.600 267.210 C 389.600 266.580,389.864 265.984,390.200 265.855 C 390.592 265.705,390.800 265.082,390.800 264.055 C 390.800 263.029,391.008 262.406,391.400 262.255 C 391.730 262.129,392.006 261.524,392.013 260.913 C 392.020 260.301,392.290 259.451,392.613 259.024 C 392.973 258.548,393.200 257.347,393.200 255.924 C 393.200 254.125,393.336 253.600,393.800 253.600 C 394.252 253.600,394.400 253.116,394.400 251.643 C 394.400 250.272,394.580 249.617,395.000 249.455 C 395.431 249.290,395.600 248.616,395.600 247.062 C 395.600 245.626,395.802 244.730,396.200 244.400 C 396.619 244.052,396.800 243.129,396.800 241.338 C 396.800 239.429,396.953 238.716,397.400 238.545 C 397.874 238.363,398.000 237.533,398.000 234.606 C 398.000 231.798,398.146 230.777,398.600 230.400 C 399.059 230.019,399.200 228.975,399.200 225.951 C 399.200 223.584,399.360 222.000,399.600 222.000 C 399.862 222.000,400.000 214.333,400.000 199.800 C 400.000 185.267,399.862 177.600,399.600 177.600 C 399.362 177.600,399.200 176.083,399.200 173.849 C 399.200 171.003,399.055 169.978,398.600 169.600 C 398.146 169.223,398.000 168.203,398.000 165.400 C 398.000 162.597,397.854 161.577,397.400 161.200 C 396.983 160.854,396.800 159.935,396.800 158.194 C 396.800 156.333,396.645 155.626,396.200 155.455 C 395.766 155.289,395.600 154.609,395.600 153.000 C 395.600 151.391,395.434 150.711,395.000 150.545 C 394.569 150.379,394.400 149.704,394.400 148.145 C 394.400 146.585,394.231 145.910,393.800 145.745 C 393.384 145.585,393.200 144.936,393.200 143.634 C 393.200 142.599,392.936 141.404,392.613 140.976 C 392.290 140.549,392.020 139.699,392.013 139.087 C 392.006 138.476,391.730 137.871,391.400 137.745 C 391.008 137.594,390.800 136.971,390.800 135.945 C 390.800 134.918,390.592 134.295,390.200 134.145 C 389.806 133.993,389.600 133.368,389.600 132.320 C 389.600 131.062,389.431 130.681,388.800 130.516 C 388.153 130.347,388.000 129.970,388.000 128.553 C 388.000 127.261,387.842 126.800,387.400 126.800 C 386.966 126.800,386.800 126.354,386.800 125.187 C 386.800 124.123,386.596 123.497,386.200 123.345 C 385.830 123.203,385.600 122.595,385.600 121.757 C 385.600 120.817,385.415 120.400,385.000 120.400 C 384.600 120.400,384.400 120.000,384.400 119.200 C 384.400 118.400,384.200 118.000,383.800 118.000 C 383.399 118.000,383.200 117.599,383.200 116.787 C 383.200 116.079,382.951 115.479,382.600 115.345 C 382.258 115.213,382.000 114.617,382.000 113.957 C 382.000 113.195,381.795 112.800,381.400 112.800 C 381.000 112.800,380.800 112.400,380.800 111.600 C 380.800 110.800,380.600 110.400,380.200 110.400 C 379.800 110.400,379.600 110.000,379.600 109.196 C 379.600 108.487,379.271 107.711,378.800 107.307 C 378.356 106.927,378.000 106.127,378.000 105.511 C 378.000 104.790,377.789 104.400,377.400 104.400 C 377.067 104.400,376.800 104.044,376.800 103.600 C 376.800 103.156,376.533 102.800,376.200 102.800 C 375.800 102.800,375.600 102.400,375.600 101.600 C 375.600 100.800,375.400 100.400,375.000 100.400 C 374.634 100.400,374.400 100.027,374.400 99.443 C 374.400 98.916,374.130 98.382,373.800 98.255 C 373.470 98.129,373.200 97.749,373.200 97.413 C 373.200 97.076,372.930 96.800,372.600 96.800 C 372.200 96.800,372.000 96.400,372.000 95.600 C 372.000 94.940,371.811 94.400,371.579 94.400 C 371.348 94.400,370.970 93.860,370.740 93.200 C 370.510 92.540,370.159 92.000,369.961 92.000 C 369.762 92.000,369.600 91.724,369.600 91.387 C 369.600 91.051,369.330 90.671,369.000 90.545 C 368.670 90.418,368.400 89.867,368.400 89.320 C 368.400 88.662,368.129 88.254,367.600 88.116 C 367.160 88.001,366.800 87.658,366.800 87.353 C 366.800 87.049,366.530 86.800,366.200 86.800 C 365.800 86.800,365.600 86.400,365.600 85.600 C 365.600 84.800,365.400 84.400,365.000 84.400 C 364.670 84.400,364.400 84.124,364.400 83.787 C 364.400 83.451,364.130 83.071,363.800 82.945 C 363.470 82.818,363.200 82.464,363.200 82.157 C 363.200 81.851,362.930 81.600,362.600 81.600 C 362.225 81.600,362.000 81.221,362.000 80.587 C 362.000 80.031,361.730 79.471,361.400 79.345 C 361.070 79.218,360.800 78.864,360.800 78.557 C 360.800 78.251,360.530 78.000,360.200 78.000 C 359.870 78.000,359.600 77.730,359.600 77.400 C 359.600 77.070,359.330 76.800,359.000 76.800 C 358.670 76.800,358.400 76.453,358.400 76.029 C 358.400 75.604,358.165 75.019,357.878 74.729 C 357.590 74.438,357.236 73.885,357.090 73.500 C 356.944 73.115,356.549 72.800,356.213 72.800 C 355.876 72.800,355.600 72.530,355.600 72.200 C 355.600 71.870,355.330 71.600,355.000 71.600 C 354.670 71.600,354.400 71.330,354.400 71.000 C 354.400 70.670,354.130 70.400,353.800 70.400 C 353.470 70.400,353.200 70.149,353.200 69.843 C 353.200 69.536,352.930 69.182,352.600 69.055 C 352.270 68.929,352.000 68.556,352.000 68.226 C 352.000 67.897,351.460 67.075,350.800 66.400 C 350.140 65.725,349.600 64.999,349.600 64.786 C 349.600 64.574,349.330 64.400,349.000 64.400 C 348.670 64.400,348.400 64.130,348.400 63.800 C 348.400 63.470,348.151 63.200,347.847 63.200 C 347.542 63.200,347.199 62.840,347.084 62.400 C 346.969 61.960,346.588 61.600,346.237 61.600 C 345.887 61.600,345.600 61.330,345.600 61.000 C 345.600 60.670,345.330 60.400,345.000 60.400 C 344.670 60.400,344.400 60.130,344.400 59.800 C 344.400 59.470,344.130 59.200,343.800 59.200 C 343.470 59.200,343.200 58.930,343.200 58.600 C 343.200 58.270,342.930 58.000,342.600 58.000 C 342.270 58.000,342.000 57.730,342.000 57.400 C 342.000 57.070,341.730 56.800,341.400 56.800 C 341.070 56.800,340.800 56.530,340.800 56.200 C 340.800 55.870,340.530 55.600,340.200 55.600 C 339.870 55.600,339.600 55.330,339.600 55.000 C 339.600 54.670,339.330 54.400,339.000 54.400 C 338.670 54.400,338.400 54.130,338.400 53.800 C 338.400 53.470,338.230 53.200,338.023 53.200 C 337.815 53.200,336.546 52.121,335.203 50.803 C 333.859 49.484,332.319 48.295,331.780 48.159 C 331.241 48.024,330.800 47.663,330.800 47.357 C 330.800 47.050,330.530 46.800,330.200 46.800 C 329.870 46.800,329.600 46.530,329.600 46.200 C 329.600 45.870,329.330 45.600,329.000 45.600 C 328.670 45.600,328.400 45.330,328.400 45.000 C 328.400 44.670,328.130 44.400,327.800 44.400 C 327.470 44.400,327.200 44.130,327.200 43.800 C 327.200 43.470,326.924 43.200,326.587 43.200 C 326.251 43.200,325.871 42.930,325.745 42.600 C 325.618 42.270,325.067 42.000,324.520 42.000 C 323.862 42.000,323.454 41.729,323.316 41.200 C 323.201 40.760,322.903 40.392,322.653 40.383 C 322.404 40.374,321.758 39.834,321.219 39.183 C 320.653 38.500,319.849 38.000,319.319 38.000 C 318.769 38.000,318.400 37.759,318.400 37.400 C 318.400 37.070,318.130 36.800,317.800 36.800 C 317.470 36.800,317.200 36.530,317.200 36.200 C 317.200 35.870,316.924 35.600,316.587 35.600 C 316.251 35.600,315.871 35.330,315.745 35.000 C 315.613 34.658,315.017 34.400,314.357 34.400 C 313.595 34.400,313.200 34.195,313.200 33.800 C 313.200 33.470,312.930 33.200,312.600 33.200 C 312.270 33.200,312.000 32.930,312.000 32.600 C 312.000 32.200,311.600 32.000,310.800 32.000 C 310.000 32.000,309.600 31.800,309.600 31.400 C 309.600 31.070,309.370 30.800,309.089 30.800 C 308.808 30.800,308.270 30.440,307.893 30.000 C 307.516 29.560,306.955 29.200,306.647 29.200 C 306.338 29.200,305.982 28.930,305.855 28.600 C 305.729 28.270,305.169 28.000,304.613 28.000 C 304.056 28.000,303.600 27.823,303.600 27.608 C 303.600 27.392,302.704 26.807,301.608 26.308 C 300.513 25.808,299.613 25.175,299.608 24.900 C 299.603 24.613,299.089 24.400,298.400 24.400 C 297.600 24.400,297.200 24.200,297.200 23.800 C 297.200 23.434,296.827 23.200,296.243 23.200 C 295.716 23.200,295.182 22.930,295.055 22.600 C 294.921 22.249,294.321 22.000,293.613 22.000 C 292.801 22.000,292.400 21.801,292.400 21.400 C 292.400 20.981,291.978 20.800,291.000 20.800 C 289.867 20.800,289.600 20.648,289.600 20.000 C 289.600 19.384,289.333 19.200,288.443 19.200 C 287.783 19.200,287.187 18.942,287.055 18.600 C 286.929 18.270,286.389 18.000,285.855 18.000 C 285.322 18.000,284.782 17.730,284.655 17.400 C 284.529 17.070,283.964 16.800,283.400 16.800 C 282.836 16.800,282.271 16.530,282.145 16.200 C 282.013 15.858,281.417 15.600,280.757 15.600 C 279.995 15.600,279.600 15.395,279.600 15.000 C 279.600 14.566,279.154 14.400,277.987 14.400 C 276.923 14.400,276.297 14.196,276.145 13.800 C 276.013 13.456,275.415 13.200,274.745 13.200 C 274.074 13.200,273.477 12.944,273.345 12.600 C 273.188 12.193,272.550 12.000,271.357 12.000 C 270.062 12.000,269.600 11.842,269.600 11.400 C 269.600 10.956,269.133 10.800,267.800 10.800 C 266.467 10.800,266.000 10.644,266.000 10.200 C 266.000 9.811,265.610 9.600,264.889 9.600 C 264.273 9.600,263.473 9.244,263.093 8.800 C 262.683 8.321,261.913 8.000,261.175 8.000 C 260.497 8.000,259.673 7.730,259.343 7.400 C 258.975 7.033,257.995 6.800,256.814 6.800 C 255.469 6.800,254.816 6.619,254.655 6.200 C 254.489 5.766,253.809 5.600,252.200 5.600 C 250.591 5.600,249.911 5.434,249.745 5.000 C 249.577 4.562,248.888 4.400,247.200 4.400 C 245.512 4.400,244.823 4.238,244.655 3.800 C 244.486 3.358,243.788 3.200,242.013 3.200 C 240.135 3.200,239.600 3.067,239.600 2.600 C 239.600 2.105,238.865 2.000,235.387 2.000 C 232.012 2.000,231.129 1.881,230.945 1.400 C 230.760 0.920,229.884 0.800,226.557 0.800 C 224.052 0.800,222.400 0.641,222.400 0.400 C 222.400 0.138,214.667 0.000,200.000 0.000 C 185.333 0.000,177.600 0.138,177.600 0.400 M124.848 117.568 C 125.644 117.810,127.593 118.172,129.177 118.371 C 131.123 118.615,132.548 119.056,133.567 119.731 C 134.397 120.280,136.319 121.101,137.838 121.555 C 139.357 122.009,141.275 122.842,142.099 123.404 C 142.924 123.967,144.454 124.793,145.499 125.240 C 146.545 125.686,147.850 126.460,148.400 126.960 C 148.950 127.460,150.234 128.344,151.253 128.924 C 154.222 130.614,162.228 138.959,163.803 142.006 C 164.199 142.773,165.016 144.030,165.618 144.800 C 166.220 145.570,166.931 146.920,167.197 147.800 C 167.464 148.680,168.292 150.660,169.038 152.200 C 170.027 154.242,170.561 156.137,171.013 159.200 C 171.353 161.510,171.825 164.660,172.062 166.200 C 172.536 169.286,172.254 178.344,171.597 181.110 C 171.374 182.051,171.023 184.446,170.818 186.433 C 170.512 189.390,170.194 190.493,169.062 192.522 C 168.301 193.885,167.463 195.807,167.199 196.793 C 166.935 197.780,166.135 199.490,165.422 200.593 C 164.709 201.697,163.782 203.159,163.363 203.841 C 160.137 209.092,156.633 213.025,151.693 216.941 C 148.457 219.506,140.972 224.000,139.936 224.000 C 139.569 224.000,137.936 224.706,136.307 225.569 C 134.506 226.523,132.104 227.390,130.173 227.782 C 128.428 228.136,125.470 228.944,123.600 229.578 C 115.857 232.203,90.248 232.119,84.400 229.449 C 83.190 228.897,80.904 228.152,79.321 227.795 C 77.497 227.384,75.925 226.735,75.033 226.026 C 74.259 225.411,73.035 224.670,72.313 224.380 C 68.708 222.932,59.318 214.529,57.658 211.265 C 57.360 210.679,56.692 209.570,56.174 208.800 C 55.657 208.030,54.960 206.626,54.627 205.681 C 54.294 204.735,53.474 203.199,52.805 202.267 C 51.932 201.051,51.413 199.642,50.966 197.273 C 50.624 195.457,49.911 192.994,49.383 191.799 C 46.717 185.772,46.836 168.168,49.582 162.201 C 50.190 160.880,50.910 158.630,51.182 157.200 C 51.483 155.623,52.213 153.732,53.039 152.392 C 53.787 151.178,54.400 149.999,54.400 149.773 C 54.400 147.878,71.722 128.400,73.407 128.400 C 73.635 128.400,74.780 127.680,75.951 126.800 C 77.122 125.920,78.414 125.200,78.821 125.200 C 79.229 125.200,80.911 124.490,82.559 123.622 C 84.270 122.721,86.638 121.851,88.078 121.595 C 89.465 121.349,91.860 120.545,93.400 119.809 C 95.601 118.758,96.928 118.414,99.600 118.204 C 101.470 118.058,104.170 117.688,105.600 117.383 C 108.677 116.726,122.523 116.859,124.848 117.568 M317.455 122.004 C 318.805 122.224,320.875 122.842,322.055 123.378 C 323.235 123.915,325.460 124.564,327.000 124.821 C 328.595 125.087,330.919 125.861,332.400 126.620 C 333.830 127.352,335.990 128.417,337.200 128.986 C 344.078 132.221,352.379 139.108,356.982 145.400 C 357.626 146.280,358.816 147.900,359.626 149.000 C 360.436 150.100,361.414 151.990,361.798 153.200 C 362.182 154.410,363.011 156.316,363.641 157.435 C 364.367 158.728,364.934 160.527,365.196 162.369 C 365.422 163.963,365.965 166.636,366.403 168.309 C 367.301 171.735,367.545 182.237,366.787 184.803 C 366.560 185.571,366.031 188.407,365.611 191.104 C 364.967 195.237,364.560 196.593,363.023 199.731 C 362.020 201.779,361.200 203.547,361.200 203.659 C 361.200 204.207,357.586 210.111,356.477 211.373 C 355.783 212.164,354.956 213.312,354.639 213.925 C 353.953 215.250,349.062 219.942,345.988 222.223 C 344.784 223.115,342.803 224.593,341.584 225.507 C 340.365 226.421,338.835 227.401,338.184 227.686 C 337.533 227.971,336.190 228.688,335.200 229.279 C 334.210 229.871,332.500 230.554,331.400 230.797 C 330.300 231.040,328.211 231.851,326.758 232.600 C 324.555 233.735,323.290 234.065,319.158 234.582 C 316.431 234.922,313.210 235.479,312.000 235.819 C 304.313 237.976,291.408 238.137,285.882 236.146 C 284.957 235.812,282.103 235.124,279.539 234.616 C 275.938 233.903,274.471 233.412,273.085 232.458 C 272.098 231.779,270.540 231.104,269.623 230.957 C 268.706 230.811,267.381 230.274,266.678 229.765 C 265.975 229.255,264.410 228.155,263.200 227.319 C 258.199 223.866,251.811 216.413,249.383 211.200 C 248.819 209.990,247.803 207.943,247.125 206.650 C 246.397 205.263,245.665 202.998,245.340 201.123 C 245.036 199.375,244.410 197.204,243.948 196.298 C 241.343 191.192,241.245 174.693,243.787 169.141 C 244.328 167.960,245.051 165.660,245.394 164.030 C 245.736 162.401,246.553 160.132,247.207 158.987 C 247.862 157.842,248.654 156.179,248.968 155.291 C 249.833 152.839,253.675 147.879,258.375 143.146 C 260.699 140.806,263.024 138.325,263.541 137.632 C 265.402 135.144,274.982 129.255,278.600 128.376 C 279.700 128.109,281.627 127.376,282.883 126.748 C 284.383 125.997,286.508 125.404,289.083 125.017 C 291.237 124.693,294.170 123.947,295.600 123.359 C 299.627 121.705,311.194 120.988,317.455 122.004 M94.843 138.811 C 92.336 139.429,89.808 140.287,89.223 140.720 C 88.639 141.152,87.234 141.975,86.100 142.549 C 79.820 145.732,74.982 156.109,75.265 165.791 C 75.790 183.747,93.853 184.414,106.359 166.940 C 107.013 166.027,107.729 165.168,107.951 165.030 C 108.173 164.893,109.220 163.038,110.277 160.907 L 112.200 157.033 112.200 151.382 C 112.200 143.432,110.165 140.333,103.800 138.594 C 99.572 137.438,100.508 137.416,94.843 138.811 M288.582 144.044 C 287.301 144.728,285.340 145.556,284.226 145.884 C 280.153 147.083,273.848 153.535,272.971 157.400 C 272.822 158.060,272.185 159.516,271.557 160.636 C 269.786 163.792,268.919 172.727,270.065 176.014 C 271.562 180.308,277.177 185.192,281.407 185.879 C 286.202 186.657,300.651 175.481,303.441 168.837 C 304.050 167.387,305.010 165.585,305.574 164.833 C 306.866 163.111,307.375 152.262,306.263 150.134 C 303.032 143.944,294.363 140.959,288.582 144.044 M215.600 290.618 C 227.000 291.565,230.131 292.385,231.985 294.906 C 235.112 299.157,231.902 303.283,225.000 303.884 C 221.188 304.216,181.049 303.259,179.482 302.798 C 171.601 300.484,172.962 292.084,181.535 290.123 C 184.417 289.464,205.388 289.769,215.600 290.618 " stroke="none" fill="#fbfbfb" fill-rule="evenodd"></path></g></svg>