<?xml version="1.0" standalone="no"?>
<!DOCTYPE svg PUBLIC "-//W3C//DTD SVG 20010904//EN"
 "http://www.w3.org/TR/2001/REC-SVG-20010904/DTD/svg10.dtd">
<svg version="1.0" xmlns="http://www.w3.org/2000/svg"
 width="386.000000pt" height="386.000000pt" viewBox="0 0 386.000000 386.000000"
 preserveAspectRatio="xMidYMid meet">

<g transform="translate(0.000000,386.000000) scale(0.100000,-0.100000)"
fill="#000000" stroke="none">
<path d="M1700 3665 c-759 -104 -1358 -678 -1495 -1432 -22 -122 -30 -366 -16
-488 33 -284 126 -542 274 -769 604 -921 1882 -1068 2681 -306 253 242 427
559 503 919 24 114 27 146 27 341 0 195 -3 227 -27 341 -114 536 -439 967
-917 1213 -196 101 -361 153 -579 181 -129 18 -323 17 -451 0z m548 -979 c3
-65 4 -68 25 -62 12 3 43 6 70 6 l47 0 0 65 0 65 90 0 90 0 0 -70 c0 -38 2
-70 4 -70 2 0 42 -7 89 -15 175 -30 273 -89 323 -192 25 -50 29 -70 29 -144 0
-75 -4 -92 -30 -144 -18 -36 -46 -72 -72 -91 l-41 -31 57 -24 c129 -53 191
-152 191 -302 -1 -269 -147 -400 -482 -433 l-68 -7 0 -68 0 -69 -90 0 -89 0
-3 68 -3 67 -67 3 -67 3 -3 -68 -3 -68 -92 -3 -93 -3 0 71 0 70 -140 0 -140 0
0 85 0 85 75 0 75 0 0 520 0 520 -75 0 -75 0 0 85 0 85 140 0 140 0 0 70 0 71
93 -3 92 -3 3 -69z m-898 -461 l0 -145 145 0 145 0 0 -150 0 -150 -145 0 -145
0 0 -145 0 -145 -150 0 -150 0 0 145 0 145 -145 0 -145 0 0 150 0 150 145 0
145 0 0 145 0 145 150 0 150 0 0 -145z"/>
<path d="M2268 2403 c-16 -4 -18 -21 -18 -179 l0 -174 103 0 c111 0 206 19
247 49 50 36 72 81 68 137 -5 64 -34 105 -92 132 -63 30 -248 51 -308 35z"/>
<path d="M2250 1658 l0 -201 133 6 c265 13 367 68 367 199 0 135 -123 197
-392 198 l-108 0 0 -202z"/>
<path d="M1060 1930 l0 -140 140 0 140 0 0 140 0 140 -140 0 -140 0 0 -140z"/>
</g>
</svg>
