<?xml version="1.0" standalone="no"?>
<!DOCTYPE svg PUBLIC "-//W3C//DTD SVG 20010904//EN"
 "http://www.w3.org/TR/2001/REC-SVG-20010904/DTD/svg10.dtd">
<svg version="1.0" xmlns="http://www.w3.org/2000/svg"
 width="256.000000pt" height="256.000000pt" viewBox="0 0 256.000000 256.000000"
 preserveAspectRatio="xMidYMid meet">
<metadata>
Created by potrace 1.10, written by Peter Selinger 2001-2011
</metadata>
<g transform="translate(0.000000,256.000000) scale(0.100000,-0.100000)"
fill="#000000" stroke="none">
<path d="M882 2498 c-7 -7 -12 -9 -12 -5 0 11 -135 -51 -226 -103 -145 -84
-303 -226 -403 -362 -98 -135 -184 -335 -215 -498 -20 -103 -21 -196 -3 -203
18 -7 16 -79 -2 -101 -33 -40 14 -285 87 -453 83 -193 254 -404 422 -522 144
-102 326 -180 503 -218 115 -25 380 -24 497 0 372 79 676 298 864 622 78 136
140 327 151 470 l4 50 -14 -50 c-8 -27 -17 -60 -19 -72 -8 -41 -59 -198 -68
-207 -4 -6 -8 -16 -8 -23 0 -8 -15 -37 -33 -66 -18 -29 -39 -66 -46 -84 -7
-18 -18 -31 -25 -30 -6 1 -10 -5 -8 -14 1 -9 -4 -19 -13 -23 -8 -3 -15 -12
-15 -19 0 -8 -7 -20 -15 -27 -8 -7 -12 -17 -8 -24 3 -6 3 -8 -2 -4 -10 10 -56
-43 -48 -55 3 -6 2 -7 -4 -4 -5 3 -28 -11 -51 -31 -23 -20 -55 -47 -72 -60
-17 -13 -28 -28 -24 -33 3 -5 0 -8 -8 -7 -8 2 -12 -4 -10 -16 3 -16 1 -18 -10
-8 -11 9 -24 4 -62 -23 -185 -131 -457 -215 -698 -215 -700 0 -1231 528 -1239
1230 0 63 2 122 5 130 3 8 7 34 9 57 2 23 6 46 10 49 4 4 4 17 1 29 -3 13 -1
26 5 29 6 4 11 15 11 24 0 9 7 30 15 45 8 15 10 25 5 22 -6 -4 -6 4 0 20 15
40 113 239 121 245 3 3 17 23 31 45 68 108 239 276 336 330 20 11 41 25 47 32
15 16 173 99 218 113 20 6 37 16 37 21 0 12 -4 11 -18 -3z"/>
<path d="M1180 2494 c-386 -49 -696 -225 -887 -506 -105 -152 -196 -378 -208
-517 -5 -48 -3 -44 14 31 76 347 271 623 561 796 177 106 396 163 621 164 138
0 185 -6 306 -38 200 -53 356 -139 512 -281 267 -244 408 -613 372 -970 -18
-178 -66 -351 -95 -340 -8 3 -25 -1 -39 -8 -24 -12 -26 -11 -36 14 -5 14 -12
35 -14 46 -3 11 -5 4 -6 -16 0 -19 5 -44 13 -54 12 -17 17 -17 45 -5 17 7 34
10 37 7 8 -8 -78 -168 -123 -230 -20 -27 -39 -45 -41 -39 -2 8 -9 9 -21 2 -10
-5 -21 -6 -25 -3 -3 3 -6 -7 -6 -22 l0 -29 20 22 c21 22 30 27 30 16 0 -3 -28
-36 -62 -72 l-62 -67 58 55 c128 122 245 311 300 489 76 243 74 501 -8 738
-118 344 -406 632 -748 749 -152 51 -388 83 -508 68z"/>
<path d="M1015 2410 c-4 -6 -11 -8 -16 -5 -15 10 -22 -24 -9 -40 14 -17 60
-21 60 -5 0 5 -10 9 -21 7 -29 -3 -35 19 -9 33 28 15 53 -5 47 -37 -3 -14 0
-20 7 -17 6 3 2 -2 -8 -10 -31 -25 -140 -18 -183 11 -19 13 -33 18 -31 11 6
-21 89 -58 129 -58 48 0 97 18 109 40 13 24 13 33 0 25 -5 -3 -7 0 -4 8 11 30
-54 64 -71 37z"/>
<path d="M1486 2404 c-54 -53 32 -118 132 -100 85 16 182 16 217 2 19 -8 36
-20 36 -25 5 -40 2 -46 -18 -49 -17 -3 -21 1 -17 12 11 28 -36 46 -120 44 -45
0 -73 -5 -68 -10 12 -12 40 -13 75 -3 15 4 27 3 27 -2 0 -5 13 -8 29 -5 20 3
30 -1 35 -13 5 -15 2 -17 -21 -12 -16 3 -37 9 -48 13 -19 6 -19 6 -4 -11 9 -9
32 -17 51 -18 25 -1 37 -7 44 -21 11 -25 53 -32 86 -15 23 12 23 12 4 -10 -22
-25 -11 -28 15 -5 22 20 49 12 49 -16 0 -22 -16 -27 -23 -7 -2 6 -8 9 -13 4
-4 -4 0 -15 10 -25 16 -16 18 -16 30 0 11 15 13 11 12 -28 -1 -38 4 -50 27
-70 18 -15 41 -24 62 -24 36 0 54 -15 37 -32 -6 -6 -15 -3 -26 8 -20 20 -34
11 -16 -11 28 -34 81 -5 60 34 -8 16 -20 21 -55 21 -57 0 -75 24 -75 99 0 30
-3 51 -7 48 -3 -4 -11 1 -18 10 -9 12 -28 16 -81 15 l-69 -1 29 23 c17 13 26
28 22 34 -10 17 9 15 24 -3 6 -8 8 -20 4 -27 -5 -10 -4 -10 5 -2 17 16 -4 56
-27 52 -9 -2 -27 8 -39 22 -19 23 -28 25 -102 25 -62 0 -78 3 -66 11 28 21 15
24 -17 4 -18 -11 -40 -20 -48 -20 -8 1 -3 8 13 16 30 16 37 27 10 17 -10 -4
-14 -2 -10 4 4 6 -2 13 -13 16 -21 5 -27 -7 -9 -18 16 -10 -18 -31 -56 -33
-42 -3 -80 26 -71 55 12 39 66 36 66 -3 0 -17 -22 -18 -38 -2 -9 9 -12 9 -12
0 0 -21 35 -33 56 -18 17 13 17 15 1 40 -20 30 -57 35 -81 10z"/>
<path d="M1255 2360 c-9 -14 -33 -233 -45 -410 -18 -269 -52 -513 -89 -641
-19 -65 -19 -67 0 -95 34 -52 26 -72 -66 -157 -46 -43 -99 -84 -119 -92 -32
-14 -37 -13 -79 11 -33 18 -52 38 -68 71 -13 26 -25 41 -27 35 -7 -22 7 -59
35 -94 28 -33 28 -33 3 -17 -36 23 -49 57 -61 151 -23 200 43 528 165 815 49
116 27 110 -38 -10 -52 -96 -105 -221 -153 -362 -55 -161 -93 -345 -72 -345
10 0 10 0 14 45 1 17 4 30 5 30 1 0 4 9 5 20 6 46 28 125 52 185 3 8 7 21 9
28 1 8 5 21 9 30 5 15 7 15 15 2 4 -9 1 -47 -8 -90 -10 -50 -16 -132 -16 -245
-1 -151 1 -174 19 -209 41 -80 149 -99 235 -42 39 26 71 27 52 3 -9 -12 -13
-47 -5 -47 8 0 43 86 43 105 0 12 19 37 44 58 54 45 61 65 41 112 -18 46 -19
55 -2 55 35 0 73 -81 69 -145 -1 -11 6 -27 14 -36 27 -30 9 -55 -50 -68 -62
-14 -102 -41 -151 -102 -43 -54 -51 -102 -9 -54 14 17 29 35 32 40 18 27 124
85 156 85 16 0 16 -60 0 -77 -6 -6 -14 -37 -18 -68 -8 -72 -16 -86 -88 -163
-49 -53 -57 -67 -52 -90 10 -46 13 -52 27 -52 17 0 17 40 0 58 -17 17 -8 33
56 101 50 52 52 53 71 36 11 -10 20 -21 20 -25 0 -3 -25 -17 -56 -29 -30 -13
-53 -25 -51 -27 2 -3 25 5 51 16 50 21 91 27 81 11 -3 -5 -41 -21 -85 -36 -44
-15 -80 -31 -80 -35 0 -15 73 -16 103 -2 46 23 57 4 58 -102 1 -50 5 -125 9
-166 4 -41 5 94 3 300 -2 206 -6 376 -9 379 -11 11 -2 18 21 13 29 -5 32 4 8
31 -17 17 -18 58 -21 481 -4 479 4 834 19 819 9 -9 42 -314 59 -543 5 -80 12
-172 15 -205 7 -89 41 -238 65 -285 12 -23 19 -44 16 -47 -3 -3 -8 2 -12 11
-4 10 -17 16 -36 16 -51 0 -98 -72 -98 -152 l0 -26 30 26 c20 18 26 29 19 38
-6 8 -5 13 6 17 8 4 12 12 9 20 -3 8 6 18 21 25 36 16 36 16 19 -23 -21 -51
-3 -83 99 -176 98 -91 131 -109 192 -109 93 0 137 55 153 190 9 75 7 226 -3
268 -3 14 -2 21 4 18 8 -6 20 -63 37 -186 3 -25 7 -89 8 -143 2 -53 6 -100 9
-103 18 -18 29 59 24 176 -5 144 -33 289 -84 435 -37 107 -200 445 -214 445
-18 0 -8 -40 35 -136 108 -245 159 -458 160 -679 1 -141 0 -153 -24 -200 -21
-41 -32 -53 -67 -64 -56 -20 -112 -3 -167 51 -41 41 -25 33 22 -10 32 -29 94
-48 117 -35 13 8 10 10 -17 11 -47 2 -84 23 -149 84 -12 12 -19 13 -22 5 -3
-7 -24 6 -51 33 -52 50 -59 81 -25 125 20 24 21 32 11 68 -6 23 -18 69 -26
102 -22 85 -42 234 -66 497 -27 289 -46 453 -54 467 -9 14 -33 14 -41 1z m-28
-870 c-3 -118 -2 -202 4 -205 5 -4 9 -11 9 -16 0 -6 -5 -7 -12 -3 -8 5 -9 2
-4 -12 6 -16 3 -15 -18 5 -19 18 -31 22 -52 17 -23 -6 -25 -5 -19 11 17 41 44
157 60 254 33 211 39 202 32 -51z m13 -680 c0 -56 -3 -70 -15 -70 -8 0 -15 6
-15 13 0 20 22 127 26 127 2 0 4 -31 4 -70z"/>
<path d="M734 2321 c-23 -10 -44 -26 -47 -34 -4 -11 5 -8 30 9 40 27 129 34
151 12 6 -6 14 -9 18 -6 9 10 -52 38 -83 38 -15 0 -46 -9 -69 -19z"/>
<path d="M1436 2301 c-13 -20 25 -43 108 -65 536 -148 846 -698 691 -1229 -44
-154 -105 -255 -235 -392 -47 -49 -67 -74 -45 -56 56 47 152 156 190 216 148
232 189 528 110 801 -49 167 -130 297 -266 430 -132 128 -255 200 -429 250
-47 13 -90 31 -96 39 -13 17 -20 19 -28 6z"/>
<path d="M783 2290 c-13 -5 -23 -11 -23 -12 0 -7 149 -2 156 5 4 4 -6 7 -23 7
-17 0 -43 2 -59 5 -16 2 -39 0 -51 -5z"/>
<path d="M1090 2285 c-7 -8 -22 -15 -34 -15 -43 0 -219 -69 -298 -116 -168
-101 -328 -285 -404 -464 -35 -84 -65 -184 -63 -216 0 -11 10 17 22 61 45 163
126 302 252 433 128 135 296 234 453 267 59 13 102 36 102 57 0 13 -16 9 -30
-7z"/>
<path d="M645 2280 c-3 -5 -1 -10 4 -10 6 0 11 -6 11 -14 0 -17 27 -46 42 -46
7 0 2 10 -10 23 -12 13 -22 31 -22 40 0 19 -15 23 -25 7z"/>
<path d="M734 2265 c-3 -8 -3 -19 1 -25 9 -15 59 -12 81 6 18 15 18 15 -6 9
-48 -13 -65 -11 -64 8 2 21 -5 22 -12 2z"/>
<path d="M715 2211 c-3 -6 -20 -11 -36 -11 -18 0 -28 -4 -24 -10 9 -15 51 -12
65 5 7 9 10 18 7 21 -3 3 -8 1 -12 -5z"/>
<path d="M569 2194 c-10 -12 -9 -13 6 -8 13 5 16 4 11 -4 -5 -8 -2 -10 9 -6 8
4 22 1 30 -6 9 -7 18 -10 21 -7 10 10 -5 25 -35 35 -23 8 -32 7 -42 -4z"/>
<path d="M530 2171 c-12 -24 -13 -71 -1 -71 5 0 11 20 13 45 2 25 2 45 1 45
-1 0 -7 -9 -13 -19z"/>
<path d="M620 2097 c-30 -24 -73 -64 -96 -89 -37 -40 -45 -44 -77 -40 -27 3
-37 10 -41 26 -2 12 -4 9 -3 -9 2 -27 5 -30 35 -30 17 0 32 -1 32 -3 0 -2 -15
-22 -34 -45 -18 -23 -46 -64 -61 -91 -27 -47 -29 -48 -44 -29 -36 45 -77 29
-53 -20 10 -21 11 -21 11 6 1 35 26 31 26 -3 0 -17 -7 -26 -25 -30 -17 -4 -21
-8 -12 -14 7 -4 23 -1 37 8 l24 16 -24 -53 c-14 -28 -25 -58 -25 -65 0 -7 -4
-10 -10 -7 -5 3 -10 21 -10 40 0 19 -5 46 -11 62 -14 38 -14 120 1 139 7 8 11
17 8 20 -7 7 -38 -60 -38 -83 0 -10 7 -47 16 -83 13 -53 13 -70 3 -95 -7 -16
-12 -33 -11 -37 3 -12 -38 -30 -54 -24 -9 3 -12 1 -9 -4 21 -33 102 18 90 56
-6 17 -5 17 4 3 8 -13 7 -29 -5 -60 -18 -52 -45 -219 -45 -281 0 -22 -12 -23
-29 -2 -8 8 -23 20 -34 25 -12 6 0 -9 26 -33 42 -40 47 -49 53 -104 3 -32 9
-71 11 -86 5 -24 3 -27 -13 -21 -16 6 -16 4 3 -18 11 -13 25 -41 31 -61 10
-35 10 -37 -8 -27 -10 5 -19 14 -19 20 0 6 -8 8 -19 4 -10 -3 -24 1 -31 10
-17 20 -5 32 15 15 18 -15 30 -7 22 15 -9 23 -46 18 -57 -7 -6 -16 -9 -18 -9
-6 -1 9 12 29 29 45 16 15 30 32 30 37 0 6 -6 1 -14 -10 -8 -10 -18 -16 -22
-12 -4 4 -1 15 7 24 8 10 13 20 12 23 -1 3 0 16 3 28 9 34 -14 89 -57 139 -44
50 -56 84 -41 111 10 17 11 17 18 -2 8 -24 44 -65 56 -65 5 0 6 5 3 11 -4 6 2
17 12 24 14 10 19 22 15 44 -6 43 -26 57 -62 44 -63 -24 -39 30 27 59 24 11
42 22 39 25 -10 10 -96 -28 -106 -47 -6 -11 -13 -59 -17 -109 -5 -75 -3 -92
11 -106 9 -9 16 -23 16 -31 0 -15 20 -55 32 -64 4 -3 10 -25 14 -48 6 -38 5
-42 -15 -42 -29 0 -38 26 -17 49 16 17 16 19 -4 24 -14 3 -20 13 -20 31 0 14
-4 26 -8 26 -13 0 5 -140 32 -236 182 -665 895 -1024 1561 -787 39 14 80 26
92 27 11 0 19 4 17 8 -3 4 10 15 28 24 18 9 63 36 100 60 55 35 66 46 61 64
-3 11 -8 19 -11 16 -2 -3 -13 -1 -24 5 -30 16 -36 0 -8 -21 22 -17 23 -19 7
-25 -22 -9 -47 1 -47 19 0 7 8 24 18 36 15 18 29 23 70 24 30 1 50 5 49 11 -6
18 -65 17 -99 -1 -18 -10 -36 -18 -40 -19 -14 0 -21 -16 -20 -44 1 -31 -13
-33 -47 -7 -11 8 -13 8 -7 -2 6 -10 1 -11 -21 -7 l-28 5 30 -14 c17 -9 40 -15
52 -16 29 0 53 -10 53 -21 0 -13 -48 -11 -109 6 l-53 14 23 -25 c12 -13 31
-24 40 -24 12 0 16 -5 13 -15 -4 -8 -10 -13 -14 -10 -5 3 -10 0 -12 -7 -6 -17
-28 0 -28 21 0 39 -61 66 -88 39 -20 -20 -13 -32 7 -14 30 27 71 -2 71 -49 0
-10 -12 -13 -42 -12 -40 2 -44 5 -54 37 -10 30 -12 31 -18 14 -6 -19 -10 -20
-41 -10 l-35 11 33 17 c17 9 59 27 92 40 33 12 106 53 162 90 57 37 107 68
113 68 5 0 10 6 10 13 0 7 25 37 55 67 l55 54 0 -42 c0 -24 7 -59 15 -80 15
-34 15 -38 -2 -50 -10 -7 -27 -10 -38 -8 -64 18 -71 18 -39 1 24 -12 30 -21
26 -37 -3 -15 -11 -19 -28 -15 -19 3 -24 0 -24 -15 0 -15 4 -18 22 -12 21 6
22 5 8 -12 -9 -12 -4 -10 12 5 15 13 25 28 22 32 -2 5 13 25 36 45 25 22 40
44 39 58 -1 20 -2 20 -7 1 -3 -13 -12 10 -23 60 l-18 80 33 40 c77 95 142 234
171 369 17 76 18 78 30 50 13 -33 42 -60 52 -50 4 3 17 -4 30 -16 13 -12 23
-17 23 -11 0 15 -37 46 -48 39 -11 -7 -38 21 -29 30 3 3 14 1 25 -5 11 -6 28
-8 37 -5 24 9 37 51 25 75 -14 26 -50 25 -50 -1 0 -21 20 -28 21 -7 0 6 4 1
10 -11 5 -13 7 -28 3 -33 -7 -12 -41 -11 -49 1 -10 17 5 68 29 98 21 25 48 80
29 57 -56 -65 -84 -108 -81 -127 2 -11 -3 -23 -11 -26 -11 -4 -13 4 -7 39 5
24 8 55 8 68 0 14 3 19 7 12 10 -15 111 91 111 116 0 13 -5 10 -19 -12 -24
-38 -96 -106 -88 -82 10 26 -1 20 -17 -10 -14 -27 -14 -24 -15 52 -1 87 -23
235 -40 275 -11 24 -11 24 -5 -5 3 -16 12 -68 20 -115 73 -444 -164 -878 -580
-1064 -131 -58 -274 -96 -287 -75 -7 11 -9 11 -9 -3 0 -10 -5 -18 -11 -18 -6
0 -9 -6 -7 -12 5 -15 66 -29 70 -16 2 6 22 13 46 18 23 4 39 3 36 -1 -3 -5 2
-9 11 -9 8 0 39 -12 67 -26 29 -15 61 -24 74 -21 13 2 24 1 24 -4 0 -4 -15
-11 -33 -14 -25 -5 -51 1 -95 19 -59 25 -85 27 -132 9 -8 -4 -19 -7 -25 -7 -5
-1 -12 -19 -15 -41 l-5 -40 -130 1 c-218 3 -227 4 -222 25 3 11 1 17 -4 13 -5
-3 -9 6 -9 20 0 16 -9 32 -25 42 -25 17 -37 15 -130 -13 -51 -15 -111 -15
-124 1 -10 12 -10 16 -2 16 7 0 9 5 6 10 -4 6 -11 8 -16 4 -7 -4 -9 5 -7 22 2
15 10 29 18 32 12 4 13 2 3 -9 -7 -7 -13 -16 -13 -21 0 -4 6 -5 13 -3 17 6 50
-21 42 -35 -5 -8 -1 -11 11 -8 27 5 28 30 3 62 -24 30 -26 30 -151 10 -50 -8
-75 1 -58 21 10 12 10 21 0 44 -17 43 -38 57 -102 71 -40 9 -58 18 -61 31 -6
21 12 26 29 9 8 -8 19 -7 36 1 19 8 31 8 48 -1 12 -6 20 -14 17 -16 -2 -3 11
-21 30 -42 58 -61 63 -68 63 -80 0 -15 9 -15 48 -1 38 13 106 -3 125 -31 8
-11 16 -17 20 -14 3 3 16 3 28 -1 21 -7 21 -8 -11 -21 -18 -8 -30 -17 -27 -21
4 -3 12 -1 19 4 42 33 149 19 186 -25 22 -25 23 -25 17 -4 -5 16 -2 22 9 22 9
0 16 4 16 8 0 14 -57 38 -145 62 -95 26 -233 92 -318 154 -178 127 -327 343
-382 552 -40 155 -42 365 -4 519 50 202 198 424 369 557 19 15 33 27 30 28 -3
0 -30 -20 -60 -43z m-425 -699 c-2 -31 -40 -37 -55 -8 -11 21 -6 40 11 40 5 0
9 -6 9 -14 0 -8 5 -18 11 -22 9 -5 10 1 5 21 -6 24 -5 27 7 17 7 -6 13 -22 12
-34z m-11 -206 c18 -53 19 -62 7 -62 -5 0 -13 15 -17 33 -3 17 -15 43 -25 56
-11 13 -19 31 -19 39 0 29 38 -17 54 -66z m-4 -237 c0 -15 17 -47 40 -76 22
-28 40 -55 40 -60 0 -15 -17 -10 -24 6 -3 8 -13 15 -22 15 -10 0 -14 5 -10 15
3 9 -3 19 -14 25 -10 6 -24 27 -30 48 -13 48 -13 52 5 52 9 0 15 -9 15 -25z
m108 -60 c5 -11 10 -24 10 -29 0 -5 5 -12 10 -15 13 -8 64 -111 55 -111 -4 0
2 -7 14 -15 19 -13 83 -98 83 -110 0 -2 23 -26 51 -53 42 -39 49 -50 36 -55
-11 -4 -25 2 -38 16 -17 17 -21 18 -16 5 7 -21 -13 -24 -31 -6 -17 17 -16 -33
1 -51 10 -10 8 -12 -8 -9 -17 3 -20 10 -18 43 2 30 0 36 -7 25 -8 -11 -9 -2
-4 31 l6 47 -41 -11 c-35 -9 -43 -8 -61 8 -14 12 -17 22 -10 29 6 6 16 2 30
-14 16 -18 20 -20 20 -7 0 10 5 17 11 17 5 0 8 4 5 9 -3 5 -16 7 -29 4 -21 -5
-21 -5 -4 13 18 19 19 19 32 0 8 -10 16 -24 18 -30 3 -8 8 -7 17 1 11 10 6 19
-25 48 -33 29 -46 35 -85 35 -42 0 -70 13 -70 31 0 9 27 6 36 -4 4 -4 22 -7
41 -7 32 0 32 1 16 19 -10 11 -24 27 -31 36 -7 8 -18 13 -23 9 -5 -3 1 -14 13
-24 28 -22 19 -36 -14 -19 -12 7 -29 15 -37 19 -21 9 -27 32 -6 24 21 -9 66
33 58 54 -6 13 -8 13 -14 -4 -6 -16 -8 -15 -8 9 -1 15 -6 27 -11 27 -6 0 -15
11 -20 24 -5 13 -19 28 -32 32 -22 7 -22 7 -3 14 22 8 67 -21 83 -55z m54
-225 c-12 -11 -23 -20 -26 -20 -3 0 -10 9 -16 20 -10 18 -8 20 27 20 l37 0
-22 -20z m62 -116 c4 -9 4 -19 1 -22 -6 -6 -35 18 -35 29 0 16 28 10 34 -7z
m356 -184 c0 -6 -7 -10 -16 -10 -22 0 -75 39 -69 51 7 11 85 -27 85 -41z
m-141 -2 c8 3 12 -1 9 -9 -6 -19 -39 -24 -49 -7 -14 21 -10 29 9 20 9 -5 23
-7 31 -4z m121 -78 c-8 -5 -10 -10 -4 -10 7 0 14 -6 17 -14 7 -17 -18 -15 -36
3 -9 9 -9 14 3 21 8 5 20 10 25 10 6 0 3 -5 -5 -10z m318 -90 c9 -26 8 -31 -9
-40 -13 -8 -25 -7 -39 0 -27 14 -25 26 3 25 12 0 22 5 22 10 0 6 -16 10 -35
11 -47 1 -52 2 -45 14 3 6 26 10 50 10 39 0 44 -3 53 -30z m501 19 c35 -12 39
-23 14 -37 -12 -7 -22 -4 -37 9 -22 21 -47 22 -53 2 -2 -6 5 -13 17 -15 28 -4
30 -22 3 -26 -13 -2 -27 5 -37 20 -15 22 -23 48 -10 35 4 -3 16 0 28 8 25 18
33 18 75 4z m-611 -21 c19 -19 14 -30 -10 -22 -29 8 -31 10 -23 23 8 14 18 14
33 -1z"/>
<path d="M2031 2114 c-1 -32 33 -74 60 -74 12 0 12 2 -1 10 -11 7 -4 10 27 10
55 0 71 -24 53 -84 -9 -29 -9 -41 -1 -44 6 -2 8 -8 5 -13 -3 -6 0 -23 6 -40
14 -32 54 -49 72 -31 18 18 38 -6 38 -45 0 -40 -23 -54 -48 -29 -15 15 -15 18
-2 26 9 6 17 5 22 -3 4 -6 10 -8 13 -5 12 12 -5 28 -29 28 -15 0 -27 -9 -34
-26 -9 -19 -9 -24 0 -18 8 5 9 2 5 -10 -4 -9 -3 -14 2 -11 5 3 12 1 16 -4 9
-16 65 -8 65 8 0 8 2 12 5 9 3 -3 -2 -29 -10 -59 l-15 -54 5 45 c4 28 3 41 -3
35 -10 -10 -24 -110 -14 -101 3 3 14 -8 24 -24 10 -17 28 -35 41 -40 12 -5 16
-9 10 -9 -17 -1 -17 -21 0 -21 8 0 33 -14 56 -31 24 -17 45 -28 48 -25 6 6
-35 42 -71 63 -22 13 -12 18 28 13 11 -1 15 3 12 9 -4 6 -22 11 -40 11 -30 0
-59 21 -79 56 -4 7 0 34 8 60 17 57 19 94 5 94 -5 0 -7 6 -4 14 7 17 -8 46
-42 83 -22 24 -28 26 -46 14 -23 -14 -33 -9 -24 14 8 22 36 30 57 16 12 -7 19
-7 19 -1 0 18 -49 35 -62 22 -22 -22 -27 -12 -12 24 8 20 10 33 5 29 -6 -3
-11 0 -11 8 0 8 -10 27 -21 42 -22 27 -41 29 -89 10 -11 -4 -16 2 -18 20 -2
33 26 45 44 20 12 -16 14 -17 14 -2 0 26 -35 40 -54 21 -9 -8 -17 -21 -17 -27
-1 -7 -5 2 -9 18 l-8 30 -1 -31z m217 -237 c2 -11 -3 -17 -16 -17 -26 0 -34
11 -20 27 14 17 32 12 36 -10z"/>
<path d="M457 2123 c-4 -3 3 -11 14 -17 33 -17 23 -31 -21 -31 -22 -1 -44 -5
-49 -10 -7 -7 7 -10 39 -10 61 0 75 12 59 48 -12 26 -29 34 -42 20z"/>
<path d="M523 2071 c10 -38 -61 -69 -91 -39 -9 9 -12 9 -12 0 0 -13 32 -32 54
-32 18 0 86 57 86 72 0 6 -8 4 -17 -3 -10 -8 -14 -9 -10 -2 4 6 2 15 -4 19 -9
5 -10 0 -6 -15z"/>
<path d="M868 1992 c-105 -140 -183 -280 -252 -448 -109 -267 -138 -514 -78
-670 25 -66 93 -165 163 -237 49 -51 60 -57 77 -48 28 15 38 44 13 36 -16 -5
-21 2 -31 45 -11 47 -22 61 -34 42 -2 -4 4 -27 15 -51 36 -82 18 -67 -98 78
-93 116 -105 148 -110 278 -5 125 6 212 44 345 34 123 109 305 120 295 2 -3
-9 -47 -26 -98 -89 -281 -122 -496 -88 -589 33 -91 101 -164 164 -176 36 -7
40 -13 21 -34 -7 -8 -4 -7 7 2 15 12 44 18 105 20 82 3 84 2 91 -22 5 -19 7
-21 8 -6 1 20 1 20 16 0 18 -24 19 -35 3 -33 -7 1 -20 1 -28 0 -23 -2 19 -31
46 -31 28 0 39 14 53 75 18 75 41 115 75 136 27 16 28 19 10 19 -51 0 -99 -66
-110 -153 l-7 -50 -29 57 -29 57 -97 -7 c-87 -6 -102 -4 -138 14 -48 25 -101
81 -121 131 -9 20 -18 70 -21 113 -14 218 117 650 272 892 20 32 35 60 33 62
-2 2 -19 -18 -39 -44z"/>
<path d="M361 2007 c-1 -30 26 -104 35 -94 3 3 0 16 -7 29 -7 12 -16 39 -20
58 -6 31 -7 32 -8 7z"/>
<path d="M1708 1945 c149 -228 245 -434 283 -610 7 -33 16 -62 21 -65 7 -6 16
-74 21 -180 7 -128 -40 -247 -145 -366 -34 -38 -64 -70 -67 -72 -4 -1 -5 15
-3 35 3 28 -3 48 -20 73 -13 19 -27 40 -31 46 -4 7 5 11 24 12 17 0 43 8 57
18 29 18 93 86 88 92 -2 2 2 22 9 45 18 64 5 77 -16 16 -23 -65 -76 -121 -139
-148 -44 -19 -54 -20 -134 -9 l-88 12 -42 55 c-51 68 -91 96 -158 110 -44 10
-54 9 -70 -5 -16 -15 -16 -19 -4 -33 14 -16 28 -78 41 -173 5 -43 4 -48 -19
-64 -15 -9 -26 -23 -26 -31 0 -11 9 -8 36 12 l36 27 66 -66 c36 -36 59 -66 51
-66 -8 0 -52 12 -98 25 -100 29 -91 28 -91 13 1 -7 25 -30 54 -50 49 -34 54
-35 69 -20 27 27 29 7 2 -22 -14 -15 -25 -30 -25 -34 1 -4 -23 -67 -52 -139
-39 -99 -57 -133 -70 -133 -11 0 -20 10 -24 28 -21 94 -70 218 -90 226 -19 7
-19 8 20 -92 19 -48 39 -105 46 -127 16 -51 29 -67 52 -63 15 2 31 32 63 115
61 156 79 187 124 220 22 15 43 34 46 42 4 9 -20 41 -65 86 -67 67 -71 74 -81
135 -11 71 -7 92 18 88 47 -8 112 -100 113 -160 0 -15 7 -33 15 -42 14 -13 20
-13 58 0 79 28 149 -1 187 -77 11 -21 24 -39 28 -39 27 0 140 128 200 225 98
161 100 349 6 640 -52 158 -194 416 -283 515 -30 32 -29 30 7 -25z m-332 -988
c4 -4 17 -7 29 -7 28 0 135 -110 135 -139 0 -11 -4 -31 -10 -45 -6 -17 -6 -26
0 -26 6 0 10 6 10 13 0 25 35 47 66 42 16 -3 49 -7 74 -9 90 -8 120 -33 120
-101 0 -50 -23 -64 -34 -20 -4 14 -11 23 -16 20 -6 -3 -10 -2 -10 3 0 21 -85
47 -155 47 -62 0 -70 2 -73 20 -14 96 -39 132 -117 165 -41 17 -69 50 -40 46
8 -1 18 -5 21 -9z"/>
<path d="M303 1933 c-24 -9 -13 -20 17 -15 25 4 30 1 30 -17 0 -12 5 -19 10
-16 6 3 10 2 10 -4 0 -20 -18 -20 -35 -1 -10 11 -24 20 -32 20 -23 0 -14 -15
17 -28 17 -8 28 -18 24 -23 -8 -13 -31 -11 -47 6 -18 17 -31 7 -16 -12 17 -19
63 -16 83 6 15 17 16 25 6 55 -11 36 -31 44 -67 29z"/>
<path d="M2335 1723 c-4 -21 -9 -45 -11 -54 -5 -18 21 -57 32 -47 4 4 1 14 -5
22 -16 19 5 32 25 15 9 -7 13 -23 10 -41 -4 -25 -2 -27 10 -17 16 13 10 44
-14 71 -12 15 -18 16 -30 5 -13 -10 -14 -6 -8 36 8 55 0 64 -9 10z"/>
<path d="M204 1728 c3 -16 9 -39 12 -52 5 -21 3 -24 -14 -19 -51 13 -87 -56
-58 -111 9 -18 16 -23 21 -16 4 7 2 17 -4 23 -17 17 -14 74 5 81 29 11 54 6
54 -10 0 -13 -3 -14 -14 -5 -10 9 -15 8 -19 -3 -8 -20 3 -27 24 -15 25 13 27
106 3 135 -15 18 -15 18 -10 -8z"/>
<path d="M2338 1445 c-23 -50 47 -102 82 -60 11 13 8 14 -20 9 -22 -5 -35 -3
-41 7 -14 23 -11 28 16 23 14 -2 25 0 25 6 0 5 -12 10 -26 10 -19 0 -25 4 -20
15 9 25 -4 17 -16 -10z"/>
<path d="M2370 1461 c0 -5 8 -8 18 -7 11 1 25 -15 40 -44 12 -24 23 -40 23
-35 3 27 -5 52 -24 73 -20 22 -57 30 -57 13z"/>
<path d="M74 1290 c0 -69 1 -97 3 -62 2 34 2 90 0 125 -2 34 -3 6 -3 -63z"/>
<path d="M296 1322 c-8 -13 -3 -92 6 -92 6 0 7 100 1 100 -1 0 -4 -4 -7 -8z"/>
<path d="M300 1178 c0 -52 44 -212 79 -291 114 -253 371 -467 647 -537 44 -11
88 -30 101 -42 25 -23 29 -18 13 13 -13 23 -52 44 -100 54 -42 8 -173 56 -180
65 -3 4 -28 18 -56 32 -83 41 -197 134 -262 212 -23 29 -131 190 -130 195 1 4
-6 22 -14 41 -15 36 -30 71 -33 80 -1 3 -7 18 -14 35 -7 16 -13 41 -14 56 -1
15 -5 25 -9 22 -5 -2 -9 12 -9 31 -2 48 -3 53 -11 62 -5 4 -8 -9 -8 -28z"/>
<path d="M1430 1153 c0 -5 16 -24 34 -43 31 -29 35 -30 33 -12 0 11 -4 19 -8
16 -4 -2 -14 4 -21 14 -16 22 -38 36 -38 25z"/>
<path d="M2353 1033 c-7 -2 -13 -11 -13 -19 0 -12 4 -12 21 -2 17 11 22 10 34
-6 9 -11 12 -30 9 -45 -4 -20 -3 -23 5 -11 16 23 13 48 -9 70 -21 21 -26 22
-47 13z"/>
<path d="M2321 1005 c-1 -31 14 -47 40 -43 28 4 37 33 13 42 -14 5 -15 4 -4
-9 10 -13 9 -15 -7 -15 -11 0 -25 10 -31 23 -10 20 -11 21 -11 2z"/>
<path d="M2326 918 c-9 -12 -15 -32 -15 -43 1 -17 2 -17 6 -2 5 19 18 22 28 7
3 -5 11 -10 17 -10 6 0 3 9 -7 20 -22 24 -12 39 15 22 22 -13 27 -3 8 16 -18
18 -35 15 -52 -10z"/>
<path d="M978 889 c-19 -20 -23 -29 -13 -29 14 0 52 47 44 55 -2 2 -16 -10
-31 -26z"/>
<path d="M1389 763 c5 -10 33 -40 62 -68 58 -56 47 -33 -19 39 -44 48 -59 58
-43 29z"/>
<path d="M2260 763 c0 -17 21 -28 29 -15 4 7 12 8 21 1 13 -8 12 -12 -4 -24
-11 -8 -33 -15 -50 -15 -20 0 -27 -3 -20 -10 16 -16 74 1 91 27 15 22 14 25
-3 38 -23 17 -64 16 -64 -2z"/>
<path d="M820 700 c-11 -11 -20 -30 -20 -42 1 -22 2 -22 22 6 12 15 35 34 52
42 l31 13 -32 1 c-20 0 -41 -8 -53 -20z"/>
<path d="M2158 672 c-16 -9 -28 -23 -28 -30 0 -9 8 -7 26 7 29 23 64 28 64 10
0 -6 -9 -9 -20 -6 -14 3 -20 0 -20 -10 0 -12 7 -14 35 -9 39 8 45 -2 17 -27
-22 -20 -73 -22 -90 -5 -9 9 -12 8 -12 -4 0 -16 36 -35 47 -24 3 3 14 1 24 -4
14 -8 22 -4 38 19 12 16 21 33 21 39 0 5 7 15 15 22 20 17 19 26 -4 26 -13 0
-17 -5 -13 -16 3 -10 -4 -7 -20 8 -29 26 -44 27 -80 4z"/>
<path d="M1884 543 c-20 -18 -34 -27 -103 -65 -20 -11 -40 -24 -45 -29 -6 -5
-19 -9 -30 -9 -12 0 -30 -7 -41 -16 -19 -14 -83 -36 -115 -39 -9 -1 -34 -8
-55 -16 -22 -7 -44 -13 -49 -14 -5 0 -11 -5 -13 -11 -9 -28 159 17 272 74 63
31 215 129 215 138 0 9 -18 3 -36 -13z"/>
<path d="M2022 509 c7 -20 69 -33 79 -17 6 9 1 16 -14 21 -13 5 -23 4 -25 -2
-3 -8 -10 -7 -24 0 -16 9 -19 8 -16 -2z"/>
<path d="M1700 281 c0 -12 46 -41 54 -34 11 12 6 20 -19 31 -31 14 -35 15 -35
3z"/>
</g>
</svg>
