<svg width="264" height="264" viewBox="0 0 264 264" fill="none" xmlns="http://www.w3.org/2000/svg">
<circle cx="132" cy="132" r="132" fill="#FDE5F2"/>
<g clip-path="url(#clip0_258_828)">
<path d="M116.023 84.9849C114.157 84.7183 114.068 84.6294 114.956 84.5406C116.645 84.274 120.554 84.6295 123.309 85.2514C129.706 86.762 135.482 90.6716 141.613 97.5133L143.212 99.3793L145.522 99.0239C155.385 97.4245 165.515 98.6685 173.956 102.578C176.266 103.644 179.909 105.777 180.353 106.31C180.531 106.488 180.797 107.643 180.975 108.798C181.597 112.974 181.331 116.084 179.998 118.483C179.287 119.816 179.287 120.171 179.731 121.326C180.087 122.215 181.153 122.837 182.13 122.837C184.263 122.837 186.484 119.46 187.55 114.751L187.995 112.885L188.794 113.774C193.326 118.838 196.88 125.858 197.413 130.834L197.591 132.167L196.791 131.011C195.458 128.968 194.215 127.635 192.526 126.48C189.505 124.436 186.306 123.814 177.865 123.37C170.224 122.926 165.87 122.304 161.605 120.882C154.319 118.483 150.587 115.373 141.968 103.911C138.147 98.8462 135.748 96.0917 133.349 93.7815C128.107 88.7168 122.864 86.0511 116.023 84.9849Z" fill="#FF007A"/>
<path d="M182.219 96.2693C182.397 92.8928 182.841 90.6715 183.819 88.6278C184.174 87.8281 184.529 87.1173 184.618 87.1173C184.707 87.1173 184.529 87.7393 184.263 88.4501C183.552 90.4049 183.463 93.1594 183.908 96.2693C184.529 100.268 184.796 100.801 189.061 105.155C191.016 107.198 193.326 109.775 194.215 110.841L195.725 112.796L194.215 111.375C192.349 109.597 188.084 106.221 187.106 105.777C186.484 105.421 186.395 105.421 185.951 105.866C185.596 106.221 185.507 106.754 185.507 109.331C185.418 113.329 184.885 115.817 183.552 118.394C182.841 119.727 182.752 119.46 183.374 117.95C183.819 116.795 183.908 116.262 183.908 112.441C183.908 104.71 183.019 102.845 177.599 99.7346C176.266 98.935 173.956 97.7798 172.623 97.1579C171.201 96.5359 170.135 96.0028 170.224 96.0028C170.402 95.825 175.644 97.3356 177.688 98.2241C180.798 99.4681 181.331 99.5569 181.686 99.4681C181.953 99.2015 182.13 98.4907 182.219 96.2693Z" fill="#FF007A"/>
<path d="M119.666 109.509C115.934 104.355 113.535 96.3583 114.068 90.405L114.246 88.5391L115.134 88.7168C116.734 88.9833 119.488 90.0496 120.821 90.8493C124.375 92.9818 125.975 95.914 127.485 103.2C127.929 105.333 128.551 107.82 128.818 108.62C129.262 109.953 130.95 113.063 132.372 115.018C133.35 116.439 132.728 117.15 130.506 116.972C127.13 116.617 122.598 113.507 119.666 109.509Z" fill="#FF007A"/>
<path d="M177.688 148.16C160.095 141.052 153.875 134.921 153.875 124.525C153.875 123.015 153.964 121.771 153.964 121.771C154.053 121.771 154.675 122.304 155.474 122.926C159.029 125.769 163.027 127.013 174.134 128.612C180.62 129.59 184.352 130.301 187.729 131.456C198.48 135.01 205.144 142.296 206.743 152.159C207.188 155.002 206.921 160.422 206.21 163.266C205.588 165.487 203.811 169.574 203.367 169.663C203.278 169.663 203.1 169.219 203.1 168.508C202.923 164.776 201.057 161.222 197.947 158.468C194.215 155.269 189.417 152.87 177.688 148.16Z" fill="#FF007A"/>
<path d="M165.248 151.093C165.071 149.76 164.626 148.071 164.36 147.361L163.916 146.028L164.715 147.005C165.87 148.338 166.759 149.937 167.559 152.159C168.181 153.847 168.181 154.38 168.181 157.135C168.181 159.8 168.092 160.422 167.559 161.933C166.67 164.332 165.604 166.02 163.827 167.886C160.628 171.174 156.452 172.951 150.499 173.75C149.432 173.839 146.411 174.106 143.746 174.284C137.082 174.639 132.639 175.35 128.64 176.771C128.107 176.949 127.574 177.127 127.485 177.038C127.308 176.86 130.062 175.261 132.283 174.195C135.393 172.684 138.592 171.884 145.612 170.641C149.077 170.107 152.631 169.397 153.52 169.041C162.316 166.287 166.67 159.445 165.248 151.093Z" fill="#FF007A"/>
<path d="M173.334 165.398C171.024 160.333 170.491 155.535 171.735 151.004C171.912 150.559 172.09 150.115 172.268 150.115C172.445 150.115 172.979 150.382 173.512 150.737C174.578 151.448 176.799 152.692 182.486 155.802C189.683 159.711 193.771 162.732 196.614 166.198C199.102 169.219 200.612 172.684 201.323 176.949C201.767 179.348 201.501 185.124 200.879 187.523C198.924 195.075 194.481 201.118 187.995 204.583C187.018 205.116 186.218 205.471 186.129 205.471C186.04 205.471 186.396 204.583 186.929 203.517C189.061 198.985 189.328 194.631 187.728 189.744C186.751 186.723 184.707 183.08 180.62 176.949C175.733 169.841 174.578 167.975 173.334 165.398Z" fill="#FF007A"/>
<path d="M107.137 192.588C113.713 187.079 121.798 183.169 129.262 181.925C132.461 181.392 137.792 181.57 140.724 182.369C145.434 183.613 149.699 186.279 151.92 189.567C154.053 192.765 155.03 195.52 156.007 201.651C156.363 204.05 156.807 206.538 156.896 207.071C157.607 210.27 159.028 212.758 160.806 214.09C163.56 216.134 168.358 216.223 173.067 214.446C173.867 214.179 174.578 213.913 174.578 214.002C174.756 214.179 172.357 215.779 170.757 216.578C168.536 217.733 166.759 218.089 164.36 218.089C160.095 218.089 156.452 215.867 153.519 211.425C152.897 210.536 151.654 207.959 150.587 205.56C147.477 198.363 145.878 196.231 142.235 193.832C139.036 191.788 134.949 191.344 131.839 192.854C127.752 194.809 126.685 200.051 129.529 203.25C130.684 204.583 132.816 205.649 134.593 205.916C137.881 206.36 140.724 203.783 140.724 200.496C140.724 198.363 139.925 197.119 137.792 196.142C134.949 194.898 131.839 196.32 131.928 199.074C131.928 200.229 132.461 200.94 133.616 201.473C134.327 201.828 134.327 201.828 133.794 201.74C131.217 201.207 130.595 198.008 132.639 195.964C135.127 193.476 140.369 194.542 142.146 198.008C142.857 199.429 142.946 202.273 142.324 204.05C140.813 207.959 136.548 210.003 132.194 208.848C129.262 208.048 128.018 207.249 124.464 203.606C118.244 197.208 115.845 195.964 106.96 194.631L105.271 194.365L107.137 192.588Z" fill="#FF007A"/>
<path fill-rule="evenodd" clip-rule="evenodd" d="M60.4 49.6208C81.1031 74.7666 113.002 113.863 114.601 115.995C115.934 117.772 115.401 119.46 113.18 120.704C111.936 121.415 109.359 122.126 108.115 122.126C106.693 122.126 105.005 121.415 103.85 120.26C103.05 119.46 99.5848 114.396 91.7656 102.223C85.8124 92.8929 80.7477 85.1626 80.6588 85.0737C80.3034 84.896 80.3034 84.896 91.1436 104.266C97.9854 116.439 100.207 120.793 100.207 121.326C100.207 122.481 99.8514 123.103 98.4297 124.703C96.0306 127.368 94.9644 130.389 94.1647 136.698C93.2761 143.718 90.8771 148.693 84.0353 157.135C80.0368 162.111 79.4149 162.999 78.4375 165.043C77.1935 167.531 76.8381 168.952 76.6604 172.151C76.4827 175.528 76.8381 177.66 77.8155 180.859C78.704 183.702 79.6814 185.568 82.0805 189.211C84.1241 192.41 85.3681 194.809 85.3681 195.697C85.3681 196.408 85.5458 196.408 88.7446 195.697C96.3861 193.92 102.695 190.899 106.16 187.167C108.293 184.857 108.826 183.613 108.826 180.415C108.826 178.371 108.737 177.927 108.204 176.683C107.315 174.728 105.627 173.128 101.984 170.641C97.1857 167.353 95.1421 164.687 94.609 161.133C94.1647 158.112 94.6978 156.068 97.3634 150.471C100.118 144.695 100.829 142.296 101.273 136.432C101.54 132.7 101.984 131.189 103.05 130.034C104.205 128.79 105.183 128.346 107.937 127.99C112.469 127.368 115.401 126.213 117.711 123.992C119.755 122.126 120.643 120.26 120.732 117.506L120.821 115.462L119.666 114.218C115.49 109.42 57.6455 45.8 57.379 45.8C57.2901 45.8 58.7118 47.4883 60.4 49.6208ZM87.6783 175.972C88.6557 174.284 88.1226 172.151 86.5232 171.085C85.0127 170.107 82.7025 170.552 82.7025 171.884C82.7025 172.24 82.8802 172.595 83.4133 172.773C84.213 173.217 84.3018 173.662 83.6799 174.639C83.0579 175.616 83.0579 176.505 83.8576 177.127C85.1015 178.104 86.7898 177.571 87.6783 175.972Z" fill="#FF007A"/>
<path fill-rule="evenodd" clip-rule="evenodd" d="M123.664 129.234C121.532 129.856 119.488 132.167 118.866 134.477C118.511 135.898 118.688 138.475 119.31 139.275C120.288 140.519 121.176 140.874 123.664 140.874C128.551 140.874 132.728 138.742 133.172 136.165C133.616 134.033 131.75 131.1 129.173 129.768C127.841 129.057 125.086 128.79 123.664 129.234ZM129.351 133.677C130.062 132.611 129.795 131.456 128.462 130.656C126.063 129.146 122.42 130.39 122.42 132.7C122.42 133.855 124.286 135.099 126.063 135.099C127.219 135.099 128.818 134.388 129.351 133.677Z" fill="#FF007A"/>
</g>
<defs>
<clipPath id="clip0_258_828">
<rect width="149.542" height="172.2" fill="white" transform="translate(57.3789 45.8)"/>
</clipPath>
</defs>
</svg>
