<svg width="300" height="315" viewBox="0 0 20 21" fill="none" xmlns="http://www.w3.org/2000/svg">
    <rect y="0.476807" width="20" height="20" rx="10" fill="white"></rect>
    <g clip-path="url(#clip0_4080_4724)">
        <path d="M8.63969 15.4193L7.24805 15.0669L6.73566 17.0903L8.12731 17.4427L8.63969 15.4193Z" fill="#664AED"></path>
        <path d="M11.0506 16.0284L9.65894 15.676L9.14655 17.6995L10.5382 18.0519L11.0506 16.0284Z" fill="#146AF4"></path>
        <path d="M14.1224 3.88194L12.7307 3.52954L12.2183 5.55297L13.61 5.90537L14.1224 3.88194Z" fill="#146AF4"></path>
        <path d="M11.7217 3.26695L10.3301 2.91455L9.81769 4.93798L11.2093 5.29038L11.7217 3.26695Z" fill="#664AED"></path>
        <path d="M11.6993 16.1999L4.5127 14.3768L4.94425 12.6682L12.1309 14.4913C12.7474 14.6499 13.3639 14.3064 13.5048 13.7339C13.6457 13.1614 13.267 12.5714 12.6505 12.4128L8.15886 11.2767L8.59042 9.56812L13.0821 10.7042C14.7026 11.1182 15.7154 12.6859 15.3279 14.1919C14.9404 15.6979 13.3111 16.605 11.6905 16.1911L11.6993 16.1999Z" fill="#9077ED"></path>
        <path d="M11.2075 5.29595L8.85962 4.70142L6.29338 14.8357L8.64125 15.4302L11.2075 5.29595Z" fill="#664AED"></path>
        <path d="M11.9555 11.3293L7.46386 10.1931L7.89541 8.48454L12.3871 9.62067C13.0036 9.77919 13.6201 9.43572 13.761 8.86325C13.9019 8.29078 13.5232 7.7007 12.9067 7.54217L6.63599 5.95688L7.06754 4.24829L13.3382 5.83358C14.9588 6.24752 15.9716 7.8152 15.5841 9.32122C15.1966 10.8272 13.5672 11.7344 11.9467 11.3205L11.9555 11.3293Z" fill="#6FF1E1"></path>
        <path d="M11.1972 5.28936L8.84937 4.69482L8.3586 6.63288L10.7065 7.22742L11.1972 5.28936Z" fill="#664AED"></path>
    </g>
    <defs>
        <clipPath id="clip0_4080_4724">
            <rect width="16" height="16" fill="white" transform="translate(2 2.47681)"></rect>
        </clipPath>
    </defs>
</svg>