<svg width="161" height="129" viewBox="0 0 161 129" fill="none" xmlns="http://www.w3.org/2000/svg">
<path fill-rule="evenodd" clip-rule="evenodd" d="M160.241 0H0V112.353H15.9419V128.295H80.4688V112.353H95.6827V128.295H128.357V112.353H144.299V96.4107H160.241V0ZM24.2925 119.944V104.002H24.3043V103.999H40.2463H40.2655V8.35054H40.2774V8.34757H56.2193V24.2895H72.1183V8.35054H72.1301V8.34757H72.1924H88.0721H88.1343V56.1734H104.033V8.35054H104.045V8.34757H119.987V24.2895V40.2314V56.1734V72.1153V88.0572V103.999H120.006V88.0602H120.018V88.0572H135.948V8.35054H135.96V8.34757H151.902V88.0572H151.89V88.0602H135.96V103.999H135.948V104.002H120.018V119.941H120.006V119.944H104.033V104.002H88.1225V88.0602H88.1343V88.0572H104.033V72.1183H88.1343V88.0572H88.1225V88.0602H88.0721V103.999H88.0602V104.002H72.1301V119.941H72.1183V119.944H24.2925ZM56.2193 40.2344H72.1183V103.999H56.2193V88.0572V72.1153V56.1734V40.2344ZM24.2925 103.999V104.002H8.35054V8.35054H8.3624V8.34757H24.3043V24.2895V40.2314V56.1734V72.1153V88.0572V103.999H24.2925Z" fill="black"/>
</svg>
