<svg width="256" height="256" viewBox="0 0 256 256" fill="none" xmlns="http://www.w3.org/2000/svg">
<g clip-path="url(#clip0_741_46)">
<circle cx="128" cy="128" r="128" fill="black"/>
<path fill-rule="evenodd" clip-rule="evenodd" d="M208.241 64H48V176.353H63.9419V192.295H128.469V176.353H143.683V192.295H176.357V176.353H192.299V160.411H208.241V64ZM72.2925 183.944V168.002H72.3043V167.999H88.2463H88.2655V72.3505H88.2774V72.3476H104.219V88.2895H120.118V72.3505H120.13V72.3476H120.192H136.072H136.134V120.173H152.033V72.3505H152.045V72.3476H167.987V88.2895V104.231V120.173V136.115V152.057V167.999H168.006V152.06H168.018V152.057H183.948V72.3505H183.96V72.3476H199.902V152.057H199.89V152.06H183.96V167.999H183.948V168.002H168.018V183.941H168.006V183.944H152.033V168.002H136.122V152.06H136.134V152.057H152.033V136.118H136.134V152.057H136.122V152.06H136.072V167.999H136.06V168.002H120.13V183.941H120.118V183.944H72.2925ZM104.219 104.234H120.118V167.999H104.219V152.057V136.115V120.173V104.234ZM72.2925 167.999V168.002H56.3505V72.3505H56.3624V72.3476H72.3043V88.2895V104.231V120.173V136.115V152.057V167.999H72.2925Z" fill="white"/>
</g>
<defs>
<clipPath id="clip0_741_46">
<rect width="256" height="256" fill="white"/>
</clipPath>
</defs>
</svg>
