<?xml version="1.0" encoding="UTF-8"?>
<svg xmlns="http://www.w3.org/2000/svg" xmlns:xlink="http://www.w3.org/1999/xlink" width="300px" height="300px" viewBox="0 0 300 300" version="1.1">
<g id="surface1">
<path style=" stroke:none;fill-rule:nonzero;fill:rgb(0%,0%,0%);fill-opacity:1;" d="M 149.996094 0 C 232.839844 0 300 67.15625 300 149.996094 C 300 232.839844 232.84375 300 150.003906 300 C 67.160156 300 0 232.84375 0 150.003906 C 0 67.160156 67.15625 0 149.996094 0 Z M 149.996094 0 "/>
<path style=" stroke:none;fill-rule:evenodd;fill:rgb(100%,100%,100%);fill-opacity:1;" d="M 130.609375 28.125 C 72.226562 39.152344 28.125 89.527344 28.125 150 C 28.125 210.472656 72.226562 260.847656 130.609375 271.875 L 130.609375 260.242188 C 78.6875 249.386719 39.746094 204.152344 39.746094 150 C 39.746094 95.847656 78.6875 50.609375 130.609375 39.757812 Z M 178.984375 39.804688 L 178.984375 28.167969 C 237.257812 39.277344 281.25 89.601562 281.25 150 C 281.25 210.398438 237.257812 260.722656 178.984375 271.832031 L 178.984375 260.195312 C 230.792969 249.261719 269.625 204.078125 269.625 150 C 269.625 95.921875 230.792969 50.738281 178.984375 39.804688 Z M 178.984375 39.804688 "/>
<path style=" stroke:none;fill-rule:nonzero;fill:rgb(100%,100%,100%);fill-opacity:1;" d="M 167.363281 145.515625 C 176.722656 147.417969 183.980469 151.085938 189.136719 156.523438 C 194.296875 161.820312 196.875 168.613281 196.875 176.902344 L 196.875 189.945312 C 196.875 199.863281 193.515625 207.878906 186.796875 213.996094 C 180.082031 219.972656 171.261719 222.960938 160.347656 222.960938 L 156.566406 222.960938 L 156.566406 243.75 L 143.613281 243.75 L 143.613281 222.960938 L 139.652344 222.960938 C 132.457031 222.960938 126.097656 221.261719 120.578125 217.867188 C 115.0625 214.335938 110.742188 209.441406 107.625 203.191406 C 104.625 196.804688 103.125 189.46875 103.125 181.183594 L 116.082031 181.183594 C 116.082031 189.605469 118.242188 196.46875 122.558594 201.765625 C 126.996094 206.929688 132.816406 209.511719 140.011719 209.511719 L 159.988281 209.511719 C 167.0625 209.511719 172.761719 207.746094 177.082031 204.210938 C 181.402344 200.542969 183.558594 195.789062 183.558594 189.945312 L 183.558594 176.902344 C 183.558594 172.28125 181.941406 168.34375 178.699219 165.082031 C 175.582031 161.820312 171.261719 159.714844 165.746094 158.765625 L 133.355469 152.648438 C 124.238281 150.882812 117.160156 147.214844 112.121094 141.644531 C 107.085938 136.074219 104.5625 129.074219 104.5625 120.652344 L 104.5625 109.648438 C 104.5625 99.726562 107.804688 91.847656 114.28125 86.003906 C 120.878906 80.027344 129.578125 77.039062 140.375 77.039062 L 143.613281 77.039062 L 143.613281 56.25 L 156.566406 56.25 L 156.566406 77.039062 L 160.707031 77.039062 C 170.902344 77.039062 179.121094 80.570312 185.359375 87.636719 C 191.597656 94.566406 194.714844 103.734375 194.714844 115.148438 L 181.757812 115.148438 C 181.757812 107.675781 179.839844 101.699219 176 97.214844 C 172.164062 92.730469 167.0625 90.488281 160.707031 90.488281 L 140.375 90.488281 C 133.535156 90.488281 128.078125 92.253906 124 95.789062 C 119.917969 99.183594 117.878906 103.804688 117.878906 109.648438 L 117.878906 120.652344 C 117.878906 125.40625 119.378906 129.417969 122.378906 132.675781 C 125.496094 135.9375 129.757812 138.113281 135.15625 139.199219 Z M 167.363281 145.515625 "/>
</g>
</svg>
