<?xml version="1.0" encoding="utf-8"?>
<!-- Generator: Adobe Illustrator 26.3.1, SVG Export Plug-In . SVG Version: 6.00 Build 0)  -->
<svg version="1.1" id="Layer_1" xmlns="http://www.w3.org/2000/svg" xmlns:xlink="http://www.w3.org/1999/xlink" x="0px" y="0px"
	 viewBox="0 0 776.1 776.1" style="enable-background:new 0 0 776.1 776.1;" xml:space="preserve">
<style type="text/css">
	.st0{fill:url(#SVGID_1_);}
	.st1{fill:#FFFFFF;}
</style>
<g>
	<circle cx="388" cy="388" r="388"/>
</g>
<linearGradient id="SVGID_1_" gradientUnits="userSpaceOnUse" x1="0" y1="388.0315" x2="776.063" y2="388.0315">
	<stop  offset="0" style="stop-color:#00FF41"/>
	<stop  offset="1" style="stop-color:#ADFF00"/>
</linearGradient>
<path class="st0" d="M388,62c44,0,86.7,8.6,126.9,25.6c38.8,16.4,73.7,39.9,103.7,69.9c30,30,53.5,64.8,69.9,103.7
	c17,40.2,25.6,82.9,25.6,126.9s-8.6,86.7-25.6,126.9c-16.4,38.8-39.9,73.7-69.9,103.7c-30,30-64.8,53.5-103.7,69.9
	c-40.2,17-82.9,25.6-126.9,25.6s-86.7-8.6-126.9-25.6c-38.8-16.4-73.7-39.9-103.7-69.9c-30-30-53.5-64.8-69.9-103.7
	C70.6,474.8,62,432.1,62,388s8.6-86.7,25.6-126.9c16.4-38.8,39.9-73.7,69.9-103.7c30-30,64.8-53.5,103.7-69.9
	C301.3,70.6,344,62,388,62 M388,0C173.7,0,0,173.7,0,388s173.7,388,388,388c214.3,0,388-173.7,388-388S602.3,0,388,0L388,0z"/>
<g>
	<path class="st1" d="M336.5,287.1c0-14.5,5.3-38.8,40.6-38.8h17.1v-68.9l-1.4-0.6c-0.5-0.2-12.4-5.4-41.5-5.4
		c-30.7,0-56.3,9.4-74.1,27.3c-18.3,18.3-28,45.2-28,77.9v55.8h-67v81h67v187.6h87.3V415.3h102.4v187.8h87.3V334.3H336.5V287.1z"/>
	<path class="st1" d="M482.9,269.2c32.6,0,54.5-22.4,54.5-55.9c0-32.2-21.9-53.8-54.5-53.8c-33,0-55.2,21.9-55.2,54.5
		C427.7,247,449.9,269.2,482.9,269.2z"/>
</g>
</svg>
