<svg xmlns="http://www.w3.org/2000/svg" height="64pt" preserveAspectRatio="xMidYMid meet" viewBox="0 0 64 64" width="64pt"><script xmlns=""/><g transform="matrix(.1 0 0 -.1 0 64)"><path d="m167 472c-60-61-66-75-42-106 19-25 19-67 0-92-8-10-15-26-15-34 0-17 109-130 126-130 6 0 25 7 40 15 36 19 52 19 88 0 43-23 53-19 112 39 56 57 63 78 39 110-19 25-19 67 0 92 24 32 18 47-43 107s-75 66-106 42c-25-19-67-19-92 0-32 24-47 18-107-43zm245-60c45-46 68-76 68-92 0-32-128-160-160-160s-160 128-160 160 128 160 160 160c16 0 46-23 92-68z"/><path d="m293 380c-23-10-43-39-43-65 0-23 45-65 70-65 26 0 70 43 70 68 0 44-55 79-97 62z"/></g></svg>