<svg width="500" height="476" viewBox="0 0 500 476" fill="none" xmlns="http://www.w3.org/2000/svg">
<path d="M500 0.0434169C445.93 0.0434169 393.312 0.108435 340.673 7.1285e-05C327.605 -0.0216015 317.484 4.89812 309.639 15.4311C286.408 46.6616 262.938 77.697 239.554 108.819C228.654 123.362 217.753 137.882 206.701 152.62C205.531 151.146 204.62 150.041 203.753 148.892C182.126 120.067 160.324 91.3726 138.956 62.3744C131.826 52.7083 123.18 48.092 111.022 48.222C76.2179 48.6338 41.4138 48.3737 6.63142 48.3737H0C1.75537 50.7578 2.86061 52.3182 4.00919 53.857C49.1505 113.696 94.2701 173.556 139.541 233.286C142.164 236.775 142.294 238.878 139.606 242.454C94.4868 302.314 49.5189 362.304 4.5293 422.251C3.51075 423.638 2.55721 425.069 1.01855 427.258H7.64997C42.4324 427.258 77.2365 427.106 112.019 427.366C123.071 427.431 131.328 423.356 137.873 414.536C159.696 385.169 181.714 355.976 203.667 326.717C204.577 325.525 205.617 324.42 206.766 323.055C207.958 324.572 208.868 325.677 209.735 326.804C242.913 371.06 276.179 415.273 309.206 459.615C317.289 470.451 327.562 475.653 341.063 475.61C390.647 475.436 440.231 475.545 489.815 475.545H498.916C439.039 395.767 379.854 316.921 320.562 237.946C380.331 158.732 439.884 79.7776 500 0.0434169ZM416.154 432.329C416.674 433.022 417.216 433.694 418.494 435.32C392.857 435.32 368.369 435.385 343.88 435.146C342.081 435.125 339.871 433.088 338.592 431.419C310.723 394.445 282.94 357.406 255.158 320.367C235.394 293.992 215.629 267.594 195.865 241.197C195.02 240.048 194.218 238.878 193.286 237.534C208.174 217.703 222.954 197.959 237.756 178.237C271.281 133.591 304.872 88.9669 338.311 44.2342C340.629 41.135 342.97 40.0297 346.784 40.0514C370.536 40.2248 394.287 40.1381 418.906 40.1381C417.671 42.0236 416.912 43.3457 416.002 44.5593C368.607 107.41 321.234 170.305 273.708 233.069C270.999 236.645 270.804 238.878 273.622 242.627C321.234 305.782 368.672 369.066 416.154 432.329Z" fill="url(#paint0_linear_2754_377)"/>
<defs>
<linearGradient id="paint0_linear_2754_377" x1="1.82744e-07" y1="237.805" x2="498.991" y2="260.248" gradientUnits="userSpaceOnUse">
<stop stop-color="#207B56"/>
<stop offset="1" stop-color="#99BEB2"/>
</linearGradient>
</defs>
</svg>