<svg width="512" height="512" viewBox="0 0 512 512" fill="none" xmlns="http://www.w3.org/2000/svg">
<rect width="512" height="512" rx="256" fill="#1F7A55"/>
<path d="M424.96 97.3044C388.418 97.3044 352.856 97.3478 317.28 97.2754C308.449 97.261 301.609 100.545 296.307 107.575C280.606 128.419 264.744 149.133 248.941 169.905C241.573 179.612 234.206 189.303 226.737 199.14C225.946 198.156 225.331 197.418 224.745 196.652C210.128 177.413 195.394 158.261 180.952 138.906C176.134 132.455 170.29 129.374 162.073 129.461C138.551 129.735 115.029 129.562 91.5218 129.562H87.04C88.2264 131.153 88.9734 132.195 89.7496 133.222C120.258 173.16 150.752 213.113 181.348 252.979C183.12 255.308 183.208 256.711 181.392 259.098C150.898 299.051 120.507 339.091 90.1011 379.102C89.4127 380.028 88.7683 380.982 87.7284 382.443H92.2102C115.718 382.443 139.24 382.342 162.747 382.516C170.217 382.559 175.797 379.839 180.22 373.952C194.969 354.352 209.849 334.867 224.686 315.339C225.301 314.543 226.004 313.806 226.781 312.894C227.586 313.907 228.201 314.645 228.787 315.397C251.211 344.935 273.693 374.444 296.014 404.04C301.477 411.272 308.419 414.744 317.544 414.715C351.055 414.599 384.566 414.672 418.076 414.672H424.228C383.76 361.425 343.761 308.801 303.688 256.089C344.083 203.219 384.331 150.522 424.96 97.3044ZM368.293 385.828C368.645 386.291 369.011 386.739 369.875 387.824C352.549 387.824 335.998 387.868 319.448 387.709C318.232 387.694 316.738 386.334 315.874 385.221C297.039 360.543 278.262 335.822 259.486 311.101C246.128 293.496 232.771 275.878 219.414 258.259C218.842 257.492 218.3 256.711 217.671 255.814C227.733 242.579 237.721 229.401 247.725 216.238C270.383 186.439 293.085 156.655 315.684 126.799C317.251 124.73 318.833 123.993 321.411 124.007C337.463 124.123 353.515 124.065 370.154 124.065C369.319 125.324 368.806 126.206 368.191 127.016C336.159 168.965 304.143 210.943 272.023 252.835C270.192 255.221 270.061 256.711 271.965 259.214C304.143 301.366 336.203 343.604 368.293 385.828Z" fill="white"/>
</svg>
