<svg width="1866" height="1866" viewBox="0 0 1866 1866" fill="none" xmlns="http://www.w3.org/2000/svg">
<circle cx="933" cy="933" r="881" fill="#E86837"/>
<path d="M630.341 438.679C623.94 442.33 614.339 447.799 615.768 447.799H615.784C628.197 454.836 640.299 461.656 652.199 468.368C679.216 483.609 705.114 498.212 730.842 513.095C759.101 529.455 787.314 545.907 815.512 562.344C851.99 583.613 888.483 604.881 925.07 625.963C928.752 628.092 935.557 628.511 939.099 626.507C968.741 609.744 998.166 592.577 1027.59 575.425C1036.2 570.407 1044.8 565.389 1053.41 560.371C1064.54 553.893 1075.66 547.414 1086.78 540.936C1114.02 525.058 1141.25 509.196 1168.56 493.443C1180.53 486.56 1192.58 479.802 1204.62 473.044C1216.04 466.643 1227.46 460.227 1238.82 453.718C1248.04 448.435 1247.59 446.789 1237.77 441.056C1221.29 431.455 1204.89 421.745 1188.62 411.802C1171.81 401.548 1153.26 398.985 1136.48 407.98C1091.99 431.859 1047.85 456.374 1003.7 480.905C981.621 493.163 959.56 505.421 937.437 517.601C934.827 519.046 930.321 520.024 928.084 518.766C900.959 503.541 873.911 488.207 846.847 472.873C810.059 452.024 773.27 431.175 736.326 410.606C719.081 400.989 700.345 398.876 682.059 409.021C668.854 416.339 655.804 423.92 642.738 431.501C639.709 433.257 636.679 435.013 633.65 436.768C632.749 437.296 631.599 437.949 630.325 438.663L630.341 438.679Z" fill="white"/>
<path d="M933.164 653.415C925.365 653.415 917.799 651.364 912.3 648.195C876.552 627.594 840.618 606.652 805.786 586.347L804.31 585.974L801.343 583.752C774.031 567.828 745.803 551.376 718.009 535.281C692.577 520.568 667.114 506.198 640.175 491.004L639.615 490.693C628.041 484.168 616.265 477.519 604.209 470.698C597.762 467.467 592.775 461.594 590.849 454.308C589.745 450.129 587.322 435.696 602.656 425.318C603.899 424.479 605.437 423.501 607.503 422.273C610.61 420.409 614.339 418.281 617.399 416.54L617.648 416.401C618.937 415.67 619.994 415.065 620.848 414.567L630.574 408.928C643.297 401.548 656.456 393.92 669.662 386.587C694.348 372.9 722.483 373.475 748.863 388.203C785.885 408.835 823.28 430.026 859.463 450.517L859.975 450.812C883.528 464.158 907.794 477.907 931.844 491.439C952.009 480.315 971.942 469.238 991.299 458.487C1034.77 434.345 1079.71 409.378 1124.41 385.391C1148.16 372.652 1176.44 374.314 1202.01 389.912C1216.65 398.845 1232.59 408.322 1250.72 418.886C1257.37 422.755 1271.19 430.818 1271.13 447.83C1271.07 464.764 1256.93 472.873 1251.62 475.918C1240.06 482.568 1228.44 489.077 1217.21 495.369L1216.66 495.664C1205.04 502.174 1193.05 508.901 1181.4 515.628C1154.22 531.303 1126.86 547.243 1100.38 562.67L1099.71 563.059C1088.58 569.537 1077.45 576.031 1066.32 582.509C1057.71 587.512 1049.12 592.53 1040.53 597.533L1039.82 597.952C1011.09 614.7 981.419 632.022 951.745 648.801C946.044 652.032 939.534 653.384 933.164 653.384V653.415ZM826.62 539.149L828.453 540.221C862.508 560.076 897.65 580.567 932.621 600.748C960.212 585.073 987.866 568.947 1014.68 553.302L1015.4 552.883C1023.77 548.004 1032.14 543.111 1040.53 538.232C1051.44 531.894 1062.33 525.54 1073.22 519.201L1073.89 518.813C1100.62 503.23 1128.26 487.135 1155.78 471.258C1167.88 464.282 1180.2 457.384 1192.1 450.704L1192.64 450.409C1194.41 449.414 1196.22 448.404 1198 447.395C1190.06 442.672 1182.53 438.12 1175.29 433.708C1165.22 427.555 1156.24 426.514 1148.63 430.6C1104.28 454.401 1059.49 479.274 1016.19 503.339C994.624 515.317 972.346 527.699 949.85 540.081C941.476 544.726 927.432 547.802 915.578 541.138C888.623 526.006 861.28 510.517 834.854 495.525L834.124 495.105C798.05 474.66 760.748 453.531 723.913 432.993C709.542 424.976 700.267 428.27 694.534 431.439C685.322 436.551 676.016 441.879 666.85 447.177C693.369 462.138 718.491 476.322 743.705 490.895C771.39 506.928 799.463 523.287 826.635 539.133L826.62 539.149ZM940.668 496.426C940.668 496.426 940.668 496.426 940.684 496.426C940.684 496.426 940.684 496.426 940.668 496.426Z" fill="white"/>
<path d="M886.402 1287.2C886.293 1301.37 886.2 1315.54 886.2 1329.7L886.153 1329.73H886.557C886.557 1344.35 886.619 1358.97 886.681 1373.59C886.852 1412.18 887.008 1450.76 886.013 1489.3C885.64 1503.7 891.093 1511.04 902.046 1516.99C903.926 1518 905.79 1519.02 907.655 1520.05C914.086 1523.58 920.503 1527.1 927.168 1530.1C930.15 1531.42 934.765 1531.76 937.53 1530.35C942.362 1527.91 947.022 1525.14 951.683 1522.38C956.794 1519.35 961.906 1516.3 967.219 1513.71C975.997 1509.44 978.374 1503.6 978.607 1493.87C979.632 1449.7 979.119 1405.52 978.607 1361.33C977.721 1285.32 976.851 1209.32 983.764 1133.44C984.836 1121.65 986.126 1109.59 989.575 1098.36C997.607 1072.1 1006.32 1046 1016.02 1020.32C1033.91 972.924 1061.47 931.366 1094.24 892.899C1127.8 853.5 1166.4 820.347 1211.16 794.371C1226.88 785.236 1242.61 776.086 1258.31 766.935H1258.36V766.904C1284.96 751.415 1311.54 735.941 1338.17 720.514C1383.49 694.258 1428.83 668.065 1474.28 641.996C1479.68 638.873 1482.49 636.496 1482.49 628.713C1482.29 622.98 1482.34 617.232 1482.39 611.499C1482.45 604.042 1482.51 596.569 1482.03 589.143C1481.75 585.088 1478.53 579.962 1475.1 577.647C1465.81 571.401 1455.85 566.026 1445.74 561.148C1442.1 559.408 1436.23 558.258 1433.17 559.983C1407.94 574.291 1382.89 588.895 1357.84 603.498C1345.11 610.909 1332.39 618.319 1319.65 625.699C1306.13 633.529 1292.55 641.266 1278.99 648.987C1252.95 663.824 1226.93 678.661 1201.27 694.134L1198.3 695.936C1167.35 714.61 1136.26 733.378 1107.35 754.941C1072.37 781.057 1041.78 812.268 1014.34 846.572C983.05 885.675 956.033 927.14 936.815 973.499C936.116 975.177 933.77 977.274 932.325 977.181C930.803 977.088 929.109 974.773 928.162 973.064C927.711 972.241 927.572 971.231 927.416 970.205C927.292 969.258 927.152 968.294 926.764 967.487C903.413 919.108 875.309 873.775 839.996 833.117C791.385 777.111 733.825 732.974 668.807 697.07C616.824 668.36 565.618 638.221 514.428 608.097C487.349 592.157 460.255 576.217 433.051 560.48C429.649 558.522 423.637 558.087 420.188 559.734C409.794 564.752 399.727 570.625 390.281 577.258C386.63 579.822 383.213 585.197 382.902 589.532C381.939 602.644 381.845 615.958 382.917 629.086C383.368 634.601 387.034 639.526 390.996 641.856C408.427 652.141 426.045 662.146 443.662 672.135C457.132 679.779 470.586 687.423 483.978 695.191C504.159 706.905 524.247 718.774 544.35 730.628C578.451 750.762 612.552 770.881 647.057 790.316C706.544 823.796 755.419 869.098 795.626 923.427C834.636 976.171 861.156 1035.55 875.511 1099.51C881.881 1127.82 884.724 1157.3 885.718 1186.36C886.868 1219.91 886.619 1253.52 886.371 1287.12L886.402 1287.2Z" fill="white"/>
<path d="M933.118 1556.88C926.826 1556.88 920.984 1555.42 916.743 1553.53C909.068 1550.08 902.077 1546.24 895.319 1542.53L893.968 1541.78C892.6 1541.02 891.218 1540.28 889.835 1539.53C869.405 1528.44 859.773 1511.8 860.379 1488.64C861.373 1450.43 861.203 1411.42 861.032 1373.69C860.97 1359.02 860.907 1344.37 860.907 1329.7H880.187L860.566 1329.69C860.566 1315.72 860.674 1301.57 860.768 1287.88V1287C861.016 1254.25 861.265 1220.38 860.131 1187.29C859.043 1155.98 855.905 1129.12 850.529 1105.18C836.765 1043.81 811.364 987.823 775.041 938.714C735.549 885.349 688.274 842.952 634.52 812.703C599.828 793.175 565.09 772.668 531.502 752.844L530.849 752.456C511.29 740.912 491.078 728.981 471.145 717.407C457.816 709.67 444.206 701.949 431.047 694.476L430.876 694.383C413.523 684.533 395.579 674.342 378.008 663.979C366.403 657.159 358.495 644.591 357.408 631.214C356.289 617.434 356.274 602.799 357.361 587.714C358.262 575.736 365.424 563.432 375.6 556.301C386.009 548.968 397.288 542.365 409.08 536.679C420.172 531.35 434.931 532.018 445.853 538.295C473.289 554.157 500.819 570.36 527.447 586.036C577.659 615.585 629.548 646.129 681.22 674.668C752.53 714.051 810.804 760.394 859.369 816.354C886.666 847.783 910.793 882.832 932.605 922.759C948.871 892.355 969.301 861.905 994.36 830.585C1025.35 791.839 1057.3 760.379 1092.03 734.434C1121.96 712.109 1154.04 692.752 1185.06 674.015L1188.03 672.229C1213.91 656.631 1240.45 641.499 1266.11 626.864L1266.31 626.755C1279.58 619.189 1293.32 611.375 1306.82 603.545C1319.54 596.181 1332.25 588.786 1344.94 581.375C1369.67 566.958 1395.18 552.09 1420.52 537.72C1432.59 530.9 1447.2 533.432 1456.85 538.077C1469.38 544.12 1480.02 550.102 1489.39 556.394C1499.48 563.183 1506.78 575.627 1507.6 587.388C1508.16 595.824 1508.08 603.871 1508.02 611.655C1507.97 617.061 1507.93 622.592 1508.11 627.827V628.728C1508.11 652.063 1492.84 660.888 1487.09 664.212C1446.61 687.423 1403.39 712.342 1351 742.699C1324.93 757.8 1298.89 772.963 1272.85 788.126L1271.19 789.089C1255.47 798.24 1239.75 807.39 1224.01 816.541C1183.18 840.248 1146.08 871.538 1113.74 909.523C1079.28 949.993 1055.15 989.19 1039.97 1029.38C1031.07 1052.98 1022.59 1077.99 1014.06 1105.88C1011.34 1114.7 1010.25 1125.05 1009.27 1135.77C1002.49 1210.33 1003.37 1286.93 1004.23 1361.01C1004.74 1404.73 1005.25 1449.87 1004.23 1494.48C1004.05 1501.93 1003.51 1524.58 978.405 1536.78C974.086 1538.89 969.565 1541.57 964.795 1544.41C959.762 1547.39 954.666 1550.42 949.073 1553.25C943.884 1555.86 938.338 1556.87 933.102 1556.87L933.118 1556.88ZM921.59 1498.47C925.226 1500.46 928.737 1502.37 932.201 1504.12C934.252 1502.94 936.349 1501.7 938.509 1500.43C943.185 1497.65 947.923 1494.83 953.019 1492.19C953.998 1448.85 953.485 1404.54 952.988 1361.68C952.118 1286.27 951.217 1208.32 958.239 1131.16C959.42 1118.18 960.911 1104.39 965.059 1090.89C973.915 1061.98 982.739 1035.95 992.03 1011.31C1009.32 965.514 1036.37 921.361 1074.73 876.323C1110.86 833.894 1152.42 798.877 1198.28 772.248C1213.79 763.237 1229.28 754.227 1244.77 745.2L1247.07 743.864C1273.13 728.686 1299.2 713.507 1325.3 698.391C1375.69 669.199 1417.62 645.01 1456.72 622.576C1456.69 618.661 1456.72 614.855 1456.75 611.344C1456.8 606.124 1456.83 601.137 1456.69 596.336C1451.39 593.012 1445.47 589.718 1438.78 586.362C1416.02 599.335 1393.07 612.711 1370.81 625.683C1358.02 633.141 1345.27 640.567 1332.51 647.962C1318.86 655.87 1305.06 663.731 1291.72 671.343L1291.51 671.452C1266.11 685.931 1239.86 700.892 1214.53 716.164L1211.58 717.951C1181.6 736.05 1150.6 754.755 1122.72 775.557C1091.52 798.845 1062.64 827.338 1034.4 862.651C1001.15 904.194 976.991 943.686 960.523 983.395C956.22 993.742 944.614 1003.75 930.71 1002.85C920.456 1002.21 911.57 996.073 905.759 985.555C903.74 981.873 902.854 978.455 902.404 976.047C878.509 927.062 851.772 885.83 820.67 850.005C776.113 798.675 722.39 756.013 656.441 719.597C604.163 690.716 551.947 660.002 501.471 630.298C476.629 615.678 451.011 600.609 425.548 585.834C419.535 588.988 413.725 592.452 408.194 596.165C407.697 605.176 407.681 613.938 408.163 622.281C424.087 631.618 440.4 640.877 456.215 649.857L456.355 649.935C469.638 657.47 483.356 665.269 496.888 673.114C516.976 684.782 537.266 696.76 556.903 708.349L558.021 709.017C591.346 728.686 625.649 748.929 659.672 768.085C719.765 801.906 772.447 849.073 816.257 908.28C856.853 963.152 885.205 1025.64 900.555 1093.99C906.645 1121.07 910.171 1151.04 911.368 1185.58C912.533 1219.73 912.284 1254.14 912.036 1287.42V1288.3C911.989 1293.52 911.958 1298.8 911.911 1304.12H912.176V1329.75C912.176 1344.34 912.238 1358.93 912.3 1373.5C912.471 1411.61 912.642 1451.01 911.632 1489.99C911.601 1491.48 911.678 1492.41 911.756 1492.91C912.16 1493.22 912.921 1493.75 914.257 1494.48C915.889 1495.36 917.535 1496.26 919.182 1497.16L921.559 1498.47H921.59ZM903.693 978.641C903.693 978.641 903.74 978.735 903.755 978.766C903.74 978.719 903.708 978.672 903.693 978.641ZM404.046 619.811C404.046 619.811 404.139 619.858 404.186 619.889C404.139 619.858 404.093 619.826 404.046 619.811ZM405.273 598.138C405.273 598.138 405.149 598.232 405.071 598.278C405.134 598.232 405.196 598.185 405.273 598.138Z" fill="white"/>
<path d="M1161.84 1401.4C1160.66 1404.38 1159.32 1259.67 1162.57 1190.74C1165.6 1126.28 1188.42 1067.89 1230.12 1017.03C1258.48 982.448 1294.11 958.352 1331.98 936.415C1345.28 928.709 1358.57 921.003 1371.86 913.298L1371.96 913.251C1406.34 893.319 1440.73 873.386 1475.15 853.5C1476.12 852.926 1477.29 852.677 1478.94 852.304C1479.11 852.258 1479.29 852.227 1479.5 852.18C1481 851.838 1482.46 852.972 1482.46 854.51C1482.46 860.694 1482.53 866.83 1482.57 872.905C1482.71 890.538 1482.84 907.798 1482.11 925.043C1481.73 933.696 1479.17 943.484 1474.26 950.351C1467.92 959.206 1459.11 967.114 1449.79 972.815C1435.13 981.795 1420.2 990.371 1405.27 998.947C1383.03 1011.72 1360.82 1024.47 1339.47 1038.55C1301.67 1063.48 1276.79 1099.23 1262.9 1142.76C1256.11 1163.98 1253.4 1185.3 1253.67 1207.37C1253.84 1222.54 1253.76 1237.7 1253.67 1252.86C1253.57 1270.7 1253.48 1288.55 1253.79 1306.38C1254.3 1335.84 1223.58 1364.74 1215.81 1370.14C1212.56 1372.41 1210.31 1374.06 1208.43 1375.46C1200.86 1381.02 1199.12 1382.31 1161.85 1401.35H1161.82L1161.84 1401.4Z" fill="white"/>
<path d="M1182.06 1419.89C1179.8 1420.98 1177.43 1422.3 1175.23 1423.57C1169.56 1426.85 1162.88 1427.89 1156.48 1426.52H1156.37C1153.2 1425.82 1137.35 1421.4 1135.98 1401.53C1135.89 1400.25 1135.81 1398.4 1135.72 1396.01C1135.58 1391.78 1135.44 1385.87 1135.32 1378.42C1135.07 1362.89 1134.91 1342.71 1134.88 1321.59C1134.85 1295.8 1134.97 1231.28 1136.93 1189.52C1140.21 1119.61 1164.9 1056.1 1210.28 1000.76C1242.64 961.303 1283.45 934.877 1319.1 914.23L1358.97 891.128C1393.44 871.134 1427.86 851.201 1462.27 831.315C1466.63 828.783 1470.66 827.882 1473.33 827.292C1480.34 825.722 1487.76 826.608 1493.98 830.228C1502.82 835.37 1508.02 844.521 1508.05 854.479C1508.05 860.616 1508.11 866.69 1508.16 872.734V872.842C1508.3 890.274 1508.44 908.28 1507.68 926.161C1507.06 940.703 1502.46 954.965 1495.06 965.296C1486.97 976.606 1475.63 987.062 1463.14 994.705C1448.05 1003.93 1432.76 1012.71 1417.97 1021.21C1396.38 1033.61 1374.18 1046.36 1353.53 1059.99C1322.13 1080.7 1299.84 1111.19 1287.26 1150.59C1281.62 1168.22 1279.01 1186.71 1279.24 1207.13C1279.41 1222.69 1279.33 1238.12 1279.24 1253.05V1253.24C1279.15 1270.57 1279.05 1288.5 1279.36 1305.98C1280.09 1347.94 1240.93 1383.89 1230.4 1391.23C1227.47 1393.26 1225.45 1394.75 1223.67 1396.07C1215.11 1402.38 1211.92 1404.49 1182.11 1419.8C1182.06 1419.81 1182.03 1419.86 1182.02 1419.89H1182.06ZM1457.03 893.598C1432.94 907.549 1408.87 921.501 1384.81 935.452L1344.83 958.616C1311.55 977.88 1277.03 1000.27 1249.94 1033.3C1211.71 1079.92 1190.92 1133.3 1188.17 1191.95C1186.1 1235.9 1185.95 1312.79 1186.38 1359.5C1189.32 1357.73 1190.97 1356.53 1193.23 1354.86C1195.27 1353.36 1197.68 1351.58 1201.16 1349.15C1207.76 1344.45 1228.44 1322.76 1228.17 1306.87C1227.85 1288.81 1227.96 1270.59 1228.05 1252.96V1252.75C1228.13 1238.03 1228.2 1222.82 1228.05 1207.69C1227.75 1181.69 1231.16 1157.91 1238.49 1134.98C1254.71 1084.13 1283.95 1044.5 1325.37 1017.17C1347.33 1002.68 1370.23 989.516 1392.39 976.793C1406.99 968.403 1421.97 959.812 1436.43 950.956C1443.1 946.871 1449.29 941.216 1453.44 935.436C1454.78 933.572 1456.32 928.911 1456.53 923.94C1456.95 913.888 1457.08 903.836 1457.08 893.583L1457.03 893.598ZM1488.01 875.686C1488.01 875.686 1487.95 875.717 1487.92 875.732C1487.95 875.717 1487.98 875.701 1488.01 875.686Z" fill="white"/>
<path d="M718.522 1401.39C681.251 1382.34 679.511 1381.07 671.945 1375.49C670.066 1374.11 667.813 1372.44 664.566 1370.17C656.798 1364.77 626.068 1335.87 626.581 1306.42C626.892 1288.58 626.798 1270.73 626.705 1252.89C626.628 1237.73 626.55 1222.57 626.705 1207.41C626.969 1185.31 624.266 1164.01 617.477 1142.79C603.588 1099.26 578.7 1063.51 540.901 1038.58C519.555 1024.5 497.339 1011.73 475.107 998.978C460.177 990.402 445.247 981.826 430.581 972.846C421.26 967.145 412.451 959.237 406.112 950.382C401.203 943.515 398.624 933.712 398.267 925.074C397.537 907.845 397.661 890.584 397.801 872.951C397.847 866.861 397.894 860.725 397.909 854.541C397.909 853.003 399.385 851.885 400.877 852.211C401.063 852.258 401.25 852.289 401.436 852.335C403.083 852.708 404.248 852.957 405.227 853.531C439.639 873.417 474.035 893.35 508.416 913.282L508.509 913.329C521.807 921.035 535.091 928.74 548.389 936.446C586.25 958.367 621.889 982.479 650.257 1017.06C691.971 1067.93 714.778 1126.31 717.807 1190.77C721.054 1259.7 719.718 1404.42 718.537 1401.43H718.506L718.522 1401.39Z" fill="white"/>
<path d="M698.325 1419.89C698.325 1419.89 698.279 1419.81 698.232 1419.8C668.419 1404.49 665.234 1402.38 656.674 1396.07C654.887 1394.75 652.852 1393.26 649.947 1391.23C639.413 1383.89 600.248 1347.94 600.978 1305.98C601.289 1288.5 601.195 1270.57 601.102 1253.24V1253.05C601.025 1238.12 600.931 1222.68 601.102 1207.13C601.335 1186.71 598.71 1168.22 593.086 1150.59C580.517 1111.18 558.223 1080.7 526.81 1059.99C506.163 1046.36 483.962 1033.61 462.367 1021.21C447.577 1012.73 432.29 1003.93 417.205 994.705C404.714 987.062 393.373 976.606 385.279 965.296C377.884 954.965 373.285 940.703 372.664 926.161C371.903 908.28 372.042 890.274 372.182 872.842V872.734C372.229 866.69 372.275 860.616 372.291 854.479C372.306 844.536 377.526 835.37 386.366 830.228C392.581 826.624 400.007 825.738 407.013 827.292C409.686 827.882 413.709 828.783 418.075 831.315C452.502 851.201 486.899 871.149 521.372 891.128L561.237 914.23C596.892 934.877 637.72 961.303 670.066 1000.76C715.446 1056.1 740.117 1119.61 743.41 1189.52C745.368 1231.28 745.492 1295.79 745.461 1321.59C745.43 1342.69 745.274 1362.87 745.026 1378.42C744.902 1385.87 744.762 1391.78 744.622 1396.01C744.544 1398.4 744.451 1400.27 744.358 1401.53C743.006 1421.4 727.144 1425.81 723.975 1426.49H723.866C717.465 1427.87 710.785 1426.83 705.114 1423.56C702.908 1422.28 700.547 1420.96 698.279 1419.87L698.325 1419.89ZM423.901 923.955C424.118 928.911 425.656 933.572 426.992 935.452C431.125 941.231 437.324 946.886 444.004 950.972C458.468 959.827 473.445 968.419 488.048 976.808C510.202 989.532 533.102 1002.69 555.07 1017.19C596.504 1044.51 625.726 1084.16 641.946 1134.99C649.279 1157.94 652.697 1181.73 652.386 1207.7C652.215 1222.83 652.293 1238.04 652.386 1252.77V1252.97C652.479 1270.59 652.572 1288.83 652.262 1306.88C651.982 1322.77 672.676 1344.46 679.278 1349.17C682.758 1351.59 685.166 1353.38 687.202 1354.87C689.47 1356.55 691.117 1357.75 694.053 1359.52C694.488 1312.82 694.333 1235.93 692.266 1191.96C689.516 1133.32 668.73 1079.93 630.496 1033.31C603.417 1000.28 568.881 977.896 535.603 958.631L495.63 935.467C471.565 921.516 447.5 907.565 423.404 893.614C423.404 903.883 423.528 913.935 423.947 923.971L423.901 923.955ZM392.472 875.732C392.472 875.732 392.41 875.701 392.379 875.686C392.41 875.701 392.441 875.717 392.472 875.732Z" fill="white"/>
</svg>
