<svg width="255" height="255" viewBox="0 0 255 255" fill="none" xmlns="http://www.w3.org/2000/svg">
<g clip-path="url(#clip0_1323_338)">
<mask id="mask0_1323_338" style="mask-type:luminance" maskUnits="userSpaceOnUse" x="0" y="0" width="255" height="255">
<path d="M255 0H0V255H255V0Z" fill="white"/>
</mask>
<g mask="url(#mask0_1323_338)">
<mask id="mask1_1323_338" style="mask-type:luminance" maskUnits="userSpaceOnUse" x="0" y="0" width="255" height="255">
<path d="M255 0H0V255H255V0Z" fill="white"/>
</mask>
<g mask="url(#mask1_1323_338)">
<path d="M127.5 255C197.916 255 255 197.916 255 127.5C255 57.0837 197.916 0 127.5 0C57.0837 0 0 57.0837 0 127.5C0 197.916 57.0837 255 127.5 255Z" fill="black"/>
<path d="M216.61 127.609C216.61 78.8957 176.941 39.4072 128.014 39.4072C79.0881 39.4072 39.4089 78.8957 39.4089 127.609C39.4089 137.68 41.1085 147.354 44.2276 156.37C44.2477 156.41 44.4176 156.927 44.4176 156.927C45.6773 160.918 39.429 162.48 39.429 164.869C39.429 168.611 52.6053 168.102 52.6053 172.452C52.6053 176.243 39.5689 177.418 39.5689 181.24C39.5689 186.523 68.431 184.682 68.8009 189.221C69.0807 192.724 58.8736 192.942 58.8136 196.685C58.7137 202.666 98.2027 200.704 98.2027 204.685C98.2027 207.701 80.2376 206.606 80.2376 210.169C80.2376 213.731 103.881 215.98 129.944 215.98C156.007 215.98 173.982 213.095 173.982 209.98C173.982 206.865 157.206 207.501 157.556 204.695C158.156 199.789 195.395 202.298 195.395 196.614C195.395 193.62 185.159 192.923 185.489 189.698C185.959 185.141 216.61 185.817 216.61 181.08C216.61 177.359 201.415 176.442 201.444 172.571C201.464 168.62 216.61 168.789 216.509 165.087C216.43 162.242 209.733 162.311 211.832 156.28C214.93 147.294 216.63 137.651 216.63 127.609H216.61ZM188.458 152.658C185.379 159.595 178.46 158.201 177.681 161.117C176.871 164.132 186.209 164.571 186.209 167.725C186.209 171.556 157.746 170.024 158.026 175.08C158.206 178.264 178.24 178.801 177.861 182.126C177.311 186.942 146.819 184.534 146.519 189.151C146.299 192.534 161.405 192.654 161.436 195.74C161.466 198.336 149.578 199.749 126.805 199.749C100.872 199.749 88.2555 198.356 89.6951 195.461C91.0346 192.753 113.998 193.252 113.768 188.992C113.539 184.743 72.9897 185.986 71.77 181.856C70.7503 178.423 85.0963 177.716 85.0064 174.452C84.9164 171.129 66.6415 171.884 66.2416 167.854C65.9817 165.218 75.789 165.375 75.369 162.052C75.0591 159.635 71.0103 159.973 68.6109 154.987C64.7419 146.657 62.5626 137.382 62.5626 127.599C62.5626 91.6141 91.8746 62.4356 128.024 62.4356C164.174 62.4356 193.486 91.6141 193.486 127.599C193.486 136.476 191.696 144.935 188.467 152.648L188.458 152.658Z" fill="white"/>
</g>
</g>
</g>
<defs>
<clipPath id="clip0_1323_338">
<rect width="255" height="255" fill="white"/>
</clipPath>
</defs>
</svg>
