<svg width="257" height="256" viewBox="0 0 257 256" fill="none" xmlns="http://www.w3.org/2000/svg">
<path d="M256.332 128C256.332 198.692 199.024 256 128.332 256C57.6397 256 0.332031 198.692 0.332031 128C0.332031 57.3076 57.6397 1.16825e-05 128.332 1.16825e-05C199.024 1.16825e-05 256.332 57.3076 256.332 128Z" fill="#F3CE92"/>
<path d="M128.332 23.9948C70.9831 23.9948 24.3264 70.6515 24.3264 128C24.3264 185.349 70.9831 232.006 128.332 232.006C185.681 232.006 232.337 185.349 232.337 128C232.337 70.6515 185.681 23.9948 128.332 23.9948ZM128.332 241.121C65.9571 241.121 15.2109 190.375 15.2109 128C15.2109 65.6256 65.9571 14.8793 128.332 14.8793C190.707 14.8793 241.453 65.6256 241.453 128C241.453 190.375 190.707 241.121 128.332 241.121Z" fill="#282425"/>
<path d="M135.74 118.61H108.803H89.1993H73.5391V123.537V128.001V132.464V137.391H89.1993H108.803H135.74H136.096V128.001V118.61H135.74Z" fill="#282425"/>
<path d="M126.406 64.93H89.1992V105.997H108.803V83.8904H128.642C141.244 83.8904 152.01 88.5208 159.775 97.2814C166.899 105.319 170.822 116.228 170.822 128C170.822 139.772 166.899 150.682 159.775 158.719C152.01 167.48 141.244 172.11 128.642 172.11H108.803V150.003H89.1992V191.07H126.406C165.899 191.07 189.477 167.492 189.477 128C189.477 88.5076 165.899 64.93 126.406 64.93Z" fill="#282425"/>
</svg>
