<svg width="373" height="373" viewBox="0 0 373 373" fill="none" xmlns="http://www.w3.org/2000/svg">
<rect width="373" height="373" rx="186.5" fill="url(#paint0_linear_20887_1192)"/>
<path fill-rule="evenodd" clip-rule="evenodd" d="M276.46 276.425C276.482 276.583 276.491 276.746 276.496 276.909C276.5 278.175 275.849 279.354 274.771 280.018L188.379 333.289C187.211 334.007 185.741 334.012 184.578 333.293L98.8832 280.686C97.8048 280.022 97.1487 278.848 97.153 277.582C97.153 277.473 97.1577 277.36 97.1711 277.252C97.1576 277.135 97.153 277.022 97.153 276.905L97.1478 211.178C97.1478 211.099 97.1523 211.019 97.1568 210.944C97.0939 209.991 97.4083 209.026 98.0822 208.278C99.2324 207.004 101.115 206.711 102.593 207.572L186.8 256.443L270.231 208.044C270.366 207.96 270.51 207.894 270.653 207.831C271.264 207.359 272.028 207.079 272.864 207.079C274.864 207.079 276.49 208.704 276.49 210.706L276.496 275.915C276.496 276.09 276.482 276.257 276.46 276.425ZM104.405 271.168L129.296 256.13L104.401 221.867L104.405 271.168ZM133.574 262.021C126.668 266.191 107.753 277.619 107.753 277.619L174.817 318.794L133.574 262.021ZM199.296 318.038L265.896 276.968L240.162 261.495L199.296 318.038ZM244.426 255.595L269.243 270.516L269.239 221.261L244.426 255.595ZM184.981 263.772L113.792 222.451L186.797 322.947L259.125 222.869L188.621 263.772C187.497 264.424 186.104 264.424 184.981 263.772ZM100.651 193.537C98.7057 193.47 97.1463 191.874 97.1461 189.91L97.1394 104.477C97.1393 104.264 97.1574 104.055 97.1933 103.855C97.1574 103.658 97.1393 103.458 97.1393 103.253C97.1347 101.987 97.7906 100.809 98.869 100.148L185.265 47.1615C186.424 46.447 187.889 46.4471 189.048 47.1574L274.743 99.4757C275.826 100.136 276.482 101.314 276.482 102.58C276.482 102.635 276.477 102.685 276.477 102.739C276.477 102.793 276.482 102.848 276.482 102.906L276.489 189.463C276.489 190.992 275.536 192.304 274.197 192.835L188.547 239.951C187.459 240.548 186.138 240.548 185.051 239.951L100.651 193.537ZM104.392 109.65L104.397 178.394L135.208 128.177L104.392 109.65ZM269.23 108.998L238.13 127.789L269.236 178.482L269.23 108.998ZM234.337 121.605C242.312 116.787 265.869 102.555 265.869 102.555L196.755 60.3571L234.337 121.605ZM176.329 61.1469L107.752 103.207L139 121.998L176.329 61.1469ZM106.667 188.569L186.798 232.634L266.914 188.564L186.785 57.9753L106.667 188.569Z" fill="url(#paint1_linear_20887_1192)"/>
<path fill-rule="evenodd" clip-rule="evenodd" d="M276.46 276.425C276.482 276.583 276.491 276.746 276.496 276.909C276.5 278.175 275.849 279.354 274.771 280.018L188.379 333.289C187.211 334.007 185.741 334.012 184.578 333.293L98.8832 280.686C97.8048 280.022 97.1487 278.848 97.153 277.582C97.153 277.473 97.1577 277.36 97.1711 277.252C97.1576 277.135 97.153 277.022 97.153 276.905L97.1478 211.178C97.1478 211.099 97.1523 211.019 97.1568 210.944C97.0939 209.991 97.4083 209.026 98.0822 208.278C99.2324 207.004 101.115 206.711 102.593 207.572L186.8 256.443L270.231 208.044C270.366 207.96 270.51 207.894 270.653 207.831C271.264 207.359 272.028 207.079 272.864 207.079C274.864 207.079 276.49 208.704 276.49 210.706L276.496 275.915C276.496 276.09 276.482 276.257 276.46 276.425ZM104.405 271.168L129.296 256.13L104.401 221.867L104.405 271.168ZM133.574 262.021C126.668 266.191 107.753 277.619 107.753 277.619L174.817 318.794L133.574 262.021ZM199.296 318.038L265.896 276.968L240.162 261.495L199.296 318.038ZM244.426 255.595L269.243 270.516L269.239 221.261L244.426 255.595ZM184.981 263.772L113.792 222.451L186.797 322.947L259.125 222.869L188.621 263.772C187.497 264.424 186.104 264.424 184.981 263.772ZM100.651 193.537C98.7057 193.47 97.1463 191.874 97.1461 189.91L97.1394 104.477C97.1393 104.264 97.1574 104.055 97.1933 103.855C97.1574 103.658 97.1393 103.458 97.1393 103.253C97.1347 101.987 97.7906 100.809 98.869 100.148L185.265 47.1615C186.424 46.447 187.889 46.4471 189.048 47.1574L274.743 99.4757C275.826 100.136 276.482 101.314 276.482 102.58C276.482 102.635 276.477 102.685 276.477 102.739C276.477 102.793 276.482 102.848 276.482 102.906L276.489 189.463C276.489 190.992 275.536 192.304 274.197 192.835L188.547 239.951C187.459 240.548 186.138 240.548 185.051 239.951L100.651 193.537ZM104.392 109.65L104.397 178.394L135.208 128.177L104.392 109.65ZM269.23 108.998L238.13 127.789L269.236 178.482L269.23 108.998ZM234.337 121.605C242.312 116.787 265.869 102.555 265.869 102.555L196.755 60.3571L234.337 121.605ZM176.329 61.1469L107.752 103.207L139 121.998L176.329 61.1469ZM106.667 188.569L186.798 232.634L266.914 188.564L186.785 57.9753L106.667 188.569Z" fill="#0E0B31"/>
<circle cx="185.999" cy="185.999" r="175.465" stroke="#0E0B31" stroke-width="6.5275"/>
<defs>
<linearGradient id="paint0_linear_20887_1192" x1="25.8445" y1="245.051" x2="348.902" y2="127.57" gradientUnits="userSpaceOnUse">
<stop stop-color="#29BCFA"/>
<stop offset="0.43" stop-color="#6464E4"/>
<stop offset="1" stop-color="#B45AFA"/>
</linearGradient>
<linearGradient id="paint1_linear_20887_1192" x1="185.481" y1="328.821" x2="274.843" y2="104.412" gradientUnits="userSpaceOnUse">
<stop stop-color="#29BCFA"/>
<stop offset="0.43" stop-color="#6464E4"/>
<stop offset="1" stop-color="#B45AFA"/>
</linearGradient>
</defs>
</svg>
