<svg width="240" height="240" viewBox="0 0 240 240" fill="none" xmlns="http://www.w3.org/2000/svg">
<path fill-rule="evenodd" clip-rule="evenodd" d="M5 119.428C5.01229 183.272 56.7851 235.005 120 235.005C183.238 235.005 234.413 183.839 235 121.182C234.988 56.7307 183.798 5.57968 120.555 5.00475C56.7921 4.43031 5.58757 56.1299 5 119.428ZM240 121.205C240 54.005 186.6 0.604952 120.6 0.00495214C54 -0.595048 0.6 53.405 0 119.405C0 186.005 54 240.005 120 240.005C186 240.005 239.4 186.605 240 121.205Z" fill="#072146"/>
<path fill-rule="evenodd" clip-rule="evenodd" d="M73.6275 26.3323C87.7273 19.0783 103.612 15 120.407 15C136.464 15 151.689 18.7276 165.318 25.3948L162.682 30.7845C149.85 24.5073 135.524 21 120.407 21C104.596 21 89.6494 24.8369 76.3725 31.6677L73.6275 26.3323ZM176.631 32.482C188.368 40.0843 198.512 49.8816 206.461 61.2844L201.539 64.7156C194.037 53.9534 184.458 44.7001 173.369 37.518L176.631 32.482ZM31.4701 64.3877C39.2384 52.1984 49.404 41.6897 61.3028 33.5262L64.6972 38.4738C53.4631 46.1812 43.8642 56.1041 36.5299 67.6123L31.4701 64.3877ZM214.386 74.6637C221.19 88.3405 225 103.651 225 119.81C225 136.531 220.92 152.344 213.665 166.378L208.335 163.622C215.164 150.413 219 135.542 219 119.81C219 104.606 215.418 90.2077 209.014 77.3363L214.386 74.6637ZM15 119.529C15 103.498 18.7046 88.2961 25.3314 74.6866L30.7259 77.3134C24.4864 90.1273 21 104.433 21 119.529C21 135.369 24.8382 150.339 31.6682 163.629L26.3318 166.371C19.0788 152.259 15 136.351 15 119.529ZM206.463 178.713C198.533 190.116 188.385 199.916 176.629 207.519L173.371 202.481C184.476 195.298 194.056 186.045 201.537 175.287L206.463 178.713ZM62.3201 207.486C50.9938 199.83 41.2049 190.039 33.5158 178.682L38.4842 175.318C45.7464 186.044 54.9903 195.289 65.6799 202.514L62.3201 207.486ZM119.684 225C103.205 225 87.6033 221.303 73.7135 214.71L76.2865 209.29C89.3854 215.508 104.11 219 119.684 219C135.117 219 149.715 215.571 162.724 209.459L165.276 214.889C151.481 221.37 136.013 225 119.684 225Z" fill="#072146"/>
<path fill-rule="evenodd" clip-rule="evenodd" d="M127.447 116.305L128.462 110.049L128.951 107.468L153.473 111.988C155.924 112.44 158.279 110.834 158.734 108.401C159.189 105.968 157.571 103.629 155.121 103.177L131.001 98.7308C132.272 94.5611 133.428 90.3982 134.574 86.2683C136.213 80.3653 137.833 74.5298 139.744 68.8385C141.282 65.2741 143.846 61.7097 146.41 59.1637C150 55.5993 154.615 56.1085 157.692 60.1821C158.462 60.9459 159.103 61.7097 159.744 62.4735C160.385 63.2373 161.026 64.0011 161.795 64.7649C163.846 66.8017 166.41 67.3109 168.462 65.7833C170 64.2557 170 61.7097 170 59.6729C170 58.6545 168.974 57.6361 168.462 57.1269C165.385 53.5626 160.769 52.035 156.154 52.035C145.385 51.5258 138.205 56.6177 132.051 64.7649C125.897 72.9121 123.333 82.0776 120.769 91.2432C120.172 92.7264 119.748 94.2096 119.296 95.7935C119.226 96.0378 119.156 96.2845 119.084 96.5339L108.098 94.5087C105.647 94.0569 103.292 95.6632 102.837 98.0964C102.382 100.53 104 102.868 106.45 103.32L116.821 105.232L116.154 108.047L114.806 113.975L87.5868 108.957C85.1363 108.506 82.781 110.112 82.3261 112.545C81.8711 114.978 83.4888 117.317 85.9393 117.769L112.816 122.723L112.564 123.832L110.527 131.416L84.2904 126.58C81.8399 126.128 79.4846 127.734 79.0296 130.168C78.5747 132.601 80.1924 134.939 82.6429 135.391L109.037 140.257C107.266 148.066 105.32 155.742 103.338 163.559C102.825 165.581 102.31 167.613 101.795 169.66C100.256 175.261 97.6923 180.862 93.0769 184.935C88.9744 187.991 84.8718 187.481 81.7949 183.408C80.7692 181.371 79.2308 179.334 77.6923 177.807C76.1538 177.298 73.5897 176.788 72.5641 177.298C71.0256 178.316 70 180.862 70 182.899C70 184.426 71.5385 186.463 73.0769 187.481C77.6923 191.046 83.8462 191.555 89.4872 190.537C99.2308 189.009 106.41 182.899 110.513 174.242C113.59 167.623 116.154 160.494 118.718 153.365C120.125 150.013 121.068 146.354 121.972 142.641L130.122 144.144C132.573 144.596 134.928 142.989 135.383 140.556C135.838 138.123 134.22 135.784 131.77 135.332L124.226 133.942C124.27 133.796 124.314 133.651 124.359 133.507L125.897 125.869L126.013 125.156L150.18 129.611C152.63 130.063 154.986 128.457 155.441 126.023C155.896 123.59 154.278 121.252 151.827 120.8L127.447 116.305ZM92.4953 91.5171C90.0449 91.0654 87.6896 92.6718 87.2347 95.1049C86.7797 97.538 88.3973 99.8767 90.8477 100.328C93.2981 100.78 95.6534 99.1738 96.1083 96.7407C96.5633 94.3076 94.9456 91.9689 92.4953 91.5171ZM146.232 147.175C148.683 147.626 151.038 146.02 151.493 143.587C151.948 141.154 150.33 138.815 147.88 138.363C145.429 137.912 143.074 139.518 142.619 141.951C142.164 144.384 143.782 146.723 146.232 147.175Z" fill="#072146"/>
</svg>
