<svg width="288" height="288" viewBox="0 0 288 288" fill="none" xmlns="http://www.w3.org/2000/svg">
<circle cx="144" cy="144" r="144" fill="white"/>
<path fill-rule="evenodd" clip-rule="evenodd" d="M6 143.313C6.01475 219.926 68.1422 282.006 144 282.006C219.886 282.006 281.295 220.607 282 145.419C281.986 68.0769 220.557 6.69562 144.665 6.00569C68.1505 5.31637 6.70509 67.3559 6 143.313ZM288 145.446C288 64.806 223.92 0.725943 144.72 0.00594257C64.8 -0.714057 0.72 64.086 0 143.286C0 223.206 64.8 288.006 144 288.006C223.2 288.006 287.28 223.926 288 145.446Z" fill="#072146"/>
<path fill-rule="evenodd" clip-rule="evenodd" d="M88.353 31.5988C105.273 22.8939 124.334 18 144.489 18C163.757 18 182.027 22.4731 198.382 30.4738L195.218 36.9414C179.82 29.4088 162.629 25.2 144.489 25.2C125.515 25.2 107.579 29.8043 91.647 38.0012L88.353 31.5988ZM211.957 38.9784C226.042 48.1012 238.215 59.8579 247.753 73.5413L241.847 77.6587C232.844 64.7441 221.349 53.6401 208.043 45.0216L211.957 38.9784ZM37.7641 77.2652C47.0861 62.638 59.2849 50.0276 73.5634 40.2315L77.6366 46.1685C64.1557 55.4175 52.637 67.325 43.8359 81.1348L37.7641 77.2652ZM257.263 89.5965C265.428 106.009 270 124.382 270 143.772C270 163.837 265.104 182.813 256.398 199.653L250.002 196.347C258.197 180.496 262.8 162.651 262.8 143.772C262.8 125.528 258.501 108.249 250.817 92.8035L257.263 89.5965ZM18 143.435C18 124.197 22.4455 105.955 30.3977 89.624L36.8711 92.776C29.3837 108.153 25.2 125.319 25.2 143.435C25.2 162.443 29.8059 180.407 38.0019 196.354L31.5981 199.646C22.8945 182.71 18 163.622 18 143.435ZM247.756 214.455C238.24 228.139 226.062 239.899 211.955 249.023L208.045 242.977C221.371 234.358 232.867 223.254 241.844 210.345L247.756 214.455ZM74.7841 248.983C61.1926 239.796 49.4458 228.046 40.219 214.418L46.181 210.382C54.8956 223.253 65.9883 234.347 78.8159 243.017L74.7841 248.983ZM143.621 270C123.846 270 105.124 265.564 88.4563 257.652L91.5437 251.148C107.262 258.609 124.932 262.8 143.621 262.8C162.14 262.8 179.658 258.685 195.269 251.35L198.331 257.867C181.778 265.644 163.216 270 143.621 270Z" fill="#072146"/>
<path fill-rule="evenodd" clip-rule="evenodd" d="M152.937 139.567L154.154 132.058L154.741 128.961L184.168 134.386C187.108 134.928 189.935 133.001 190.481 130.081C191.027 127.161 189.085 124.355 186.145 123.813L157.201 118.477C158.726 113.473 160.113 108.478 161.489 103.522C163.456 96.4383 165.4 89.4357 167.692 82.6062C169.538 78.3289 172.615 74.0517 175.692 70.9965C180 66.7192 185.538 67.3303 189.231 72.2186C190.154 73.1351 190.923 74.0517 191.692 74.9682C192.462 75.8848 193.231 76.8013 194.154 77.7179C196.615 80.162 199.692 80.7731 202.154 78.94C204 77.1069 204 74.0517 204 71.6075C204 70.3855 202.769 69.1634 202.154 68.5523C198.462 64.2751 192.923 62.442 187.385 62.442C174.462 61.8309 165.846 67.9413 158.462 77.7179C151.077 87.4945 148 98.4932 144.923 109.492C144.206 111.272 143.698 113.052 143.155 114.952C143.072 115.245 142.987 115.541 142.901 115.841L129.717 113.41C126.777 112.868 123.95 114.796 123.404 117.716C122.858 120.635 124.8 123.442 127.74 123.984L140.185 126.278L139.385 129.656L137.767 136.77L105.104 130.749C102.164 130.207 99.3372 132.134 98.7913 135.054C98.2453 137.974 100.187 140.78 103.127 141.322L135.379 147.268L135.077 148.598L132.633 157.7L101.148 151.896C98.2079 151.354 95.3815 153.281 94.8356 156.201C94.2896 159.121 96.2308 161.927 99.1714 162.469L130.845 168.308C128.719 177.68 126.384 186.89 124.006 196.271C123.39 198.698 122.772 201.136 122.154 203.592C120.308 210.313 117.231 217.034 111.692 221.923C106.769 225.589 101.846 224.978 98.1538 220.089C96.9231 217.645 95.0769 215.201 93.2308 213.368C91.3846 212.757 88.3077 212.146 87.0769 212.757C85.2308 213.979 84 217.034 84 219.478C84 221.312 85.8462 223.756 87.6923 224.978C93.2308 229.255 100.615 229.866 107.385 228.644C119.077 226.811 127.692 219.478 132.615 209.091C136.308 201.147 139.385 192.593 142.462 184.038C144.15 180.016 145.282 175.625 146.367 171.17L156.146 172.973C159.087 173.515 161.913 171.587 162.459 168.667C163.005 165.748 161.064 162.941 158.124 162.399L149.071 160.73C149.124 160.556 149.177 160.382 149.231 160.208L151.077 151.042L151.216 150.187L180.216 155.533C183.157 156.076 185.983 154.148 186.529 151.228C187.075 148.308 185.134 145.502 182.193 144.96L152.937 139.567ZM110.994 109.821C108.054 109.279 105.228 111.206 104.682 114.126C104.136 117.046 106.077 119.852 109.017 120.394C111.958 120.936 114.784 119.009 115.33 116.089C115.876 113.169 113.935 110.363 110.994 109.821ZM175.479 176.61C178.419 177.152 181.246 175.224 181.792 172.304C182.337 169.385 180.396 166.578 177.456 166.036C174.515 165.494 171.689 167.422 171.143 170.341C170.597 173.261 172.538 176.067 175.479 176.61Z" fill="#072146"/>
</svg>
