<svg xmlns="http://www.w3.org/2000/svg" width="256" height="237" viewBox="0 0 256 237" fill="none">
  <path fill-rule="evenodd" clip-rule="evenodd" d="M167.617 236.069H88.8438C80.1618 236.068 71.6332 233.781 64.1159 229.437C56.5986 225.093 50.3577 218.847 46.0209 211.325L6.63018 143.112C2.28672 135.589 3.79717e-07 127.055 0 118.368C-3.79718e-07 109.681 2.28672 101.147 6.63018 93.6242L46.0209 25.4109C50.3576 17.8896 56.5986 11.6432 64.1159 7.2996C71.6332 2.95595 80.1618 0.668247 88.8438 0.666996L167.617 0.666992C176.3 0.671694 184.828 2.96065 192.346 7.30388C199.864 11.6471 206.107 17.8917 210.448 25.4109L249.831 93.6242C254.174 101.147 256.461 109.681 256.461 118.368C256.461 127.055 254.174 135.589 249.831 143.112L210.448 211.325C206.107 218.844 199.864 225.089 192.346 229.433C184.828 233.776 176.3 236.065 167.617 236.069ZM169.081 123.692C168.11 122.11 167.596 120.289 167.596 118.432C167.596 116.575 168.11 114.755 169.081 113.172L195.326 70.3494C196.259 68.8241 196.769 67.0779 196.803 65.2902C196.837 63.5026 196.394 61.7381 195.521 60.1782C194.647 58.6183 193.373 57.3193 191.831 56.4148C190.289 55.5104 188.533 55.0331 186.745 55.0321H162.52C160.801 55.0312 159.11 55.4709 157.61 56.3093C156.109 57.1477 154.848 58.3569 153.948 59.8213L132.397 95.0214L145.095 115.734H150.763C151.504 115.734 152.214 116.029 152.738 116.553C153.262 117.077 153.556 117.787 153.556 118.528C153.556 119.269 153.262 119.98 152.738 120.504C152.214 121.028 151.504 121.322 150.763 121.322H144.96L132.397 141.819L153.948 177.012C154.848 178.476 156.109 179.685 157.61 180.524C159.11 181.362 160.801 181.802 162.52 181.801H186.745C188.533 181.8 190.289 181.322 191.831 180.418C193.373 179.514 194.647 178.215 195.521 176.655C196.394 175.095 196.837 173.33 196.803 171.543C196.769 169.755 196.259 168.009 195.326 166.483L169.081 123.692ZM136.646 121.336H119.773C119.032 121.336 118.321 121.042 117.797 120.518C117.273 119.994 116.979 119.284 116.979 118.543C116.979 117.802 117.273 117.091 117.797 116.567C118.321 116.043 119.032 115.749 119.773 115.749H136.718C136.466 114.842 136.09 113.975 135.601 113.171L128.417 101.469L102.875 59.8359C101.973 58.3709 100.711 57.1613 99.2089 56.3229C97.7067 55.4845 96.0149 55.0452 94.2946 55.0467H70.0695C68.2812 55.0466 66.5249 55.5233 64.9822 56.4278C63.4394 57.3322 62.1659 58.6317 61.2925 60.1922C60.4191 61.7527 59.9779 63.5178 60.0138 65.3058C60.0496 67.0937 60.5614 68.8397 61.4967 70.3639L87.7411 113.187C88.708 114.771 89.2198 116.591 89.2198 118.447C89.2198 120.303 88.708 122.123 87.7411 123.707L61.4967 166.53C60.5614 168.054 60.0496 169.8 60.0138 171.588C59.9779 173.376 60.4191 175.141 61.2925 176.702C62.1659 178.262 63.4394 179.562 64.9822 180.466C66.5249 181.371 68.2812 181.847 70.0695 181.847H94.2946C96.0149 181.849 97.7067 181.409 99.2089 180.571C100.711 179.732 101.973 178.523 102.875 177.058L128.417 135.424L135.601 123.723C136.049 122.975 136.4 122.173 136.646 121.336Z" fill="#197FDE"/>
</svg>