<svg width="500" height="500" viewBox="0 0 500 500" fill="none" xmlns="http://www.w3.org/2000/svg">
<g clip-path="url(#clip0_62_2)">
<circle cx="250" cy="250" r="250" fill="#1980DE"/>
<path d="M322.356 259.72C320.634 256.914 319.723 253.686 319.723 250.395C319.723 247.103 320.634 243.875 322.356 241.07L368.882 165.154C370.536 162.45 371.44 159.354 371.5 156.185C371.561 153.016 370.776 149.888 369.227 147.123C367.678 144.357 365.42 142.055 362.686 140.451C359.952 138.848 356.84 138.002 353.67 138H310.724C307.677 137.998 304.68 138.778 302.019 140.264C299.359 141.751 297.124 143.894 295.528 146.49L257.322 208.892L279.835 245.612H289.881C291.195 245.612 292.455 246.134 293.384 247.062C294.312 247.991 294.834 249.251 294.834 250.564C294.834 251.878 294.312 253.138 293.384 254.066C292.455 254.995 291.195 255.517 289.881 255.517H279.594L257.322 291.855L295.528 354.242C297.124 356.838 299.359 358.982 302.019 360.468C304.68 361.955 307.677 362.734 310.724 362.733H353.67C356.84 362.731 359.952 361.885 362.686 360.281C365.42 358.678 367.678 356.375 369.227 353.61C370.776 350.844 371.561 347.716 371.5 344.547C371.44 341.378 370.536 338.282 368.882 335.578L322.356 259.72Z" fill="#FCFCFC"/>
<path d="M264.856 255.543H234.943C233.63 255.543 232.37 255.021 231.441 254.092C230.512 253.163 229.991 251.904 229.991 250.59C229.991 249.277 230.512 248.017 231.441 247.088C232.37 246.16 233.63 245.638 234.943 245.638H264.984C264.537 244.03 263.871 242.492 263.003 241.067L250.268 220.323L204.987 146.516C203.389 143.919 201.151 141.775 198.488 140.288C195.825 138.802 192.826 138.023 189.776 138.026H146.83C143.66 138.026 140.546 138.871 137.812 140.474C135.077 142.078 132.819 144.381 131.271 147.148C129.722 149.914 128.94 153.043 129.004 156.213C129.067 159.383 129.974 162.478 131.633 165.18L178.158 241.096C179.872 243.904 180.779 247.13 180.779 250.421C180.779 253.711 179.872 256.937 178.158 259.746L131.633 335.661C129.974 338.363 129.067 341.458 129.004 344.628C128.94 347.798 129.722 350.927 131.271 353.693C132.819 356.46 135.077 358.764 137.812 360.367C140.546 361.97 143.66 362.815 146.83 362.815H189.776C192.826 362.818 195.825 362.039 198.488 360.553C201.151 359.066 203.389 356.922 204.987 354.325L250.268 280.518L263.003 259.774C263.797 258.448 264.42 257.026 264.856 255.543V255.543Z" fill="#FCFCFC"/>
</g>
<defs>
<clipPath id="clip0_62_2">
<rect width="500" height="500" fill="white"/>
</clipPath>
</defs>
</svg>
