<svg width="1024" height="1024" viewBox="0 0 1024 1024" fill="none" xmlns="http://www.w3.org/2000/svg">
<g clip-path="url(#clip0_5682_1235)">
<circle cx="512" cy="512" r="512" fill="#335DE5"/>
<path d="M595.715 564.045C531.762 603.434 446.161 623.719 359.467 619.387C286.576 615.842 226.795 589.845 190.647 547.108C158.87 508.9 146.556 458.482 154.897 400.482C157.725 381.207 163.519 362.476 172.077 344.944L173.269 342.482C203.273 285.201 247.801 236.655 302.471 201.62C357.14 166.586 420.067 146.271 485.059 142.674C550.05 139.078 614.866 152.324 673.127 181.109C731.388 209.894 781.087 253.226 817.332 306.84C853.577 360.455 875.12 422.503 879.839 486.88C884.558 551.257 872.292 615.742 844.247 673.991C816.202 732.239 773.346 782.243 719.895 819.08C666.444 855.918 604.241 878.32 539.408 884.081L543.381 929.28C616.172 922.851 686.018 897.729 746.038 856.388C806.059 815.047 854.183 758.915 885.67 693.52C917.157 628.126 930.921 555.725 925.604 483.451C920.288 411.177 896.076 341.523 855.353 281.351C814.63 221.179 758.801 172.565 693.366 140.298C627.932 108.031 555.149 93.2246 482.187 97.3372C409.226 101.45 338.604 124.339 277.278 163.751C215.952 203.163 166.039 257.737 132.454 322.098L130.865 325.347C120.248 347.104 113.08 370.354 109.614 394.278C99.6834 464.982 115.076 527.906 155.294 576.354C199.287 629.332 270.886 660.844 356.786 664.979C461.354 670.199 565.327 641.937 639.111 589.943L595.715 564.045Z" fill="white"/>
<path d="M683.196 615.444C641.587 651.288 544.864 716.28 384.386 725.143C204.742 734.99 129.866 677.088 129.17 676.497L114.672 694.222L129.27 676.793L99.9746 711.652C103.152 714.311 174.95 771.819 343.571 771.819C357.375 771.819 371.873 771.819 386.968 770.637C580.912 759.904 687.467 676.005 724.607 640.161L683.196 615.444Z" fill="white"/>
<path d="M761.063 662.324C736.459 694.395 706.174 721.756 671.688 743.072C550.138 820.865 395.519 830.909 287.276 825.493L284.992 870.889C303.165 871.775 320.643 872.169 337.624 872.169C642.889 872.169 766.227 734.308 800.686 685.071L760.964 661.93" fill="white"/>
<path d="M749.437 490.442C769.673 490.442 786.077 474.175 786.077 454.109C786.077 434.043 769.673 417.776 749.437 417.776C729.2 417.776 712.796 434.043 712.796 454.109C712.796 474.175 729.2 490.442 749.437 490.442Z" fill="white"/>
</g>
<defs>
<clipPath id="clip0_5682_1235">
<rect width="1024" height="1024" fill="white"/>
</clipPath>
</defs>
</svg>
