<?xml version="1.0" encoding="UTF-8"?>
<svg id="Layer_1" data-name="Layer 1" xmlns="http://www.w3.org/2000/svg" viewBox="0 0 512 513">
  <defs>
    <style>
      .cls-1 {
        fill: #fff;
      }

      .cls-2 {
        fill: #e50913;
      }
    </style>
  </defs>
  <circle cx="256" cy="256.5" r="239.89"/>
  <g>
    <path class="cls-1" d="m347.3,244.12c0,13.97-3.21,26.79-9.62,38.48-6.41,11.45-16.26,20.72-29.54,27.83-13.28,7.1-29.77,10.65-49.47,10.65h-36.42v86.58h-58.75v-241.17h95.16c19.24,0,35.5,3.32,48.78,9.96,13.28,6.64,23.25,15.8,29.89,27.49,6.64,11.68,9.97,25.08,9.97,40.19Zm-93.1,30.23c11.22,0,19.58-2.63,25.08-7.9,5.5-5.27,8.24-12.71,8.24-22.33s-2.75-17.06-8.24-22.33c-5.5-5.27-13.86-7.9-25.08-7.9h-31.95v60.46h31.95Z"/>
    <path class="cls-2" d="m348.5,105.36h-185v38.81h185v-38.81Z"/>
  </g>
</svg>