<svg width="48" height="49" viewBox="0 0 48 49" fill="none" xmlns="http://www.w3.org/2000/svg">
<path d="M47.9059 24.0343C47.9059 37.2892 37.1895 48.0343 23.9701 48.0343C10.7507 48.0343 0.0342407 37.2892 0.0342407 24.0343C0.0342407 10.7795 10.7507 0.0343323 23.9701 0.0343323C37.1895 0.0343323 47.9059 10.7795 47.9059 24.0343Z" fill="#B8BFFB"/>
<path d="M46.6553 24.0342C46.6552 11.467 36.4949 1.28516 23.9697 1.28516C11.4447 1.28534 1.28524 11.4671 1.28516 24.0342C1.28516 36.6013 11.4447 46.783 23.9697 46.7832V48.0684C10.7316 48.0682 0 37.3079 0 24.0342C8.01872e-05 10.7606 10.7316 0.000182951 23.9697 0C37.208 0 47.9403 10.7605 47.9404 24.0342L47.9326 24.6543C47.6047 37.6416 37.0013 48.0684 23.9697 48.0684V46.7832C36.495 46.7832 46.6553 36.6014 46.6553 24.0342Z" fill="black"/>
<rect x="12.9811" y="12.0814" width="1.28526" height="4.75546" rx="0.642629" fill="black"/>
<rect x="12.9811" y="31.1032" width="1.28526" height="4.75546" rx="0.642629" fill="black"/>
<rect x="15.166" y="12.0814" width="1.28526" height="4.75546" rx="0.642629" fill="black"/>
<rect x="15.166" y="31.1032" width="1.28526" height="4.75546" rx="0.642629" fill="black"/>
<rect x="17.351" y="12.0814" width="1.28526" height="23.7773" rx="0.642629" fill="black"/>
<rect x="17.351" y="6.4263" width="1.28526" height="4.75546" rx="0.642629" fill="black"/>
<rect x="17.351" y="36.7584" width="1.28526" height="4.75546" rx="0.642629" fill="black"/>
<rect x="19.5359" y="12.0814" width="1.28526" height="23.7773" rx="0.642629" fill="black"/>
<rect x="19.5359" y="6.4263" width="1.28526" height="4.75546" rx="0.642629" fill="black"/>
<rect x="19.5359" y="36.7584" width="1.28526" height="4.75546" rx="0.642629" fill="black"/>
<rect x="21.7209" y="12.0814" width="1.28526" height="4.75546" rx="0.642629" fill="black"/>
<rect x="21.7209" y="31.1032" width="1.28526" height="4.75546" rx="0.642629" fill="black"/>
<rect x="21.7209" y="17.7366" width="1.28526" height="4.75546" rx="0.642629" fill="black"/>
<rect x="21.7209" y="25.5335" width="1.28526" height="4.75546" rx="0.642629" fill="black"/>
<rect x="28.2757" y="17.7366" width="1.28526" height="4.75546" rx="0.642629" fill="black"/>
<rect x="28.2757" y="25.5335" width="1.28526" height="4.75546" rx="0.642629" fill="black"/>
<rect x="23.9058" y="12.0814" width="1.28526" height="4.75546" rx="0.642629" fill="black"/>
<rect x="23.9058" y="31.1032" width="1.28526" height="4.75546" rx="0.642629" fill="black"/>
<rect x="23.9058" y="21.5923" width="1.28526" height="4.75546" rx="0.642629" fill="black"/>
<rect x="26.0907" y="6.4263" width="1.28526" height="4.75546" rx="0.642629" fill="black"/>
<rect x="26.0907" y="36.7584" width="1.28526" height="4.75546" rx="0.642629" fill="black"/>
<rect x="26.0907" y="12.0814" width="1.28526" height="4.75546" rx="0.642629" fill="black"/>
<rect x="26.0907" y="31.1032" width="1.28526" height="4.75546" rx="0.642629" fill="black"/>
<rect x="26.0907" y="21.5923" width="1.28526" height="4.75546" rx="0.642629" fill="black"/>
<rect x="28.2757" y="12.0814" width="1.28526" height="4.75546" rx="0.642629" fill="black"/>
<rect x="28.2757" y="31.1032" width="1.28526" height="4.75546" rx="0.642629" fill="black"/>
<rect x="28.2757" y="6.4263" width="1.28526" height="4.75546" rx="0.642629" fill="black"/>
<rect x="28.2757" y="36.7584" width="1.28526" height="4.75546" rx="0.642629" fill="black"/>
<rect x="30.4606" y="12.0814" width="1.28526" height="23.7773" rx="0.642629" fill="black"/>
<rect x="32.6456" y="14.4592" width="1.28526" height="19.0218" rx="0.642629" fill="black"/>
<rect x="34.8305" y="16.8369" width="1.28526" height="4.75546" rx="0.642629" fill="black"/>
<rect x="34.8305" y="26.3478" width="1.28526" height="4.75546" rx="0.642629" fill="black"/>
</svg>
