
<?xml version="1.0" encoding="UTF-8"?>
<!DOCTYPE svg PUBLIC "-//W3C//DTD SVG 1.1//EN" "http://www.w3.org/Graphics/SVG/1.1/DTD/svg11.dtd">
<!-- Creator: CorelDRAW -->
<svg xmlns="http://www.w3.org/2000/svg" xml:space="preserve" width="375.755mm" height="66.683mm" version="1.1" style="shape-rendering:geometricPrecision; text-rendering:geometricPrecision; image-rendering:optimizeQuality; fill-rule:evenodd; clip-rule:evenodd"
viewBox="0 0 37575.5 6668.3"
 xmlns:xlink="http://www.w3.org/1999/xlink"
 xmlns:xodm="http://www.corel.com/coreldraw/odm/2003">
 <defs>
  <style type="text/css">
   <![CDATA[
    .fil0 {fill:#FEFEFE}
    .fil1 {fill:#FEFEFE;fill-rule:nonzero}
    .fil2 {fill:url(#id0)}
   ]]>
  </style>
  <linearGradient id="id0" gradientUnits="userSpaceOnUse" x1="17051.56" y1="-4918.93" x2="-5141.41" y2="17839.34">
   <stop offset="0" style="stop-opacity:1; stop-color:#00F6D6"/>
   <stop offset="1" style="stop-opacity:1; stop-color:#DCFE86"/>
  </linearGradient>
 </defs>
 <g id="Layer_x0020_1">
  <metadata id="CorelCorpID_0Corel-Layer"/>
  <g id="_2405116829216">
   <path class="fil0" d="M4058.62 2786.02l-314.54 183.66c-2.25,1.26 -4.48,2.56 -6.67,3.9l-7.6 4.43 0 0.42c-57.1,38.24 -90.82,101.87 -90.82,171.44l0 371.89c0,69.58 33.72,133.2 90.82,171.44l0 1.87 111.12 65.01 219.89 126.8 1.15 0.63c32.06,17.52 68.45,26.87 105.01,26.57 36.55,0.3 72.94,-9.05 105.01,-26.57l1.15 -0.63 219.26 -126.44 111.74 -65.37 0 -1.86c57.1,-38.25 90.82,-101.87 90.82,-171.45l0 -371.89c0,-69.58 -33.72,-133.2 -90.82,-171.44l0 -0.42 -7.6 -4.43c-2.19,-1.34 -4.41,-2.64 -6.67,-3.9l-314.53 -183.66c-32.68,-19.47 -70.39,-29.12 -108.36,-28.44 -37.98,-0.68 -75.69,8.97 -108.36,28.44z"/>
   <path class="fil0" d="M27462.99 5317.46l253.1 0c78.15,0 90.3,-12.27 90.3,-91.13l0 -2330.43c0,-92.18 35.31,-144.87 124.58,-179.46 234.34,-81.54 490.32,-109.47 736.12,-109.47l209.91 0c78.15,0 90.31,-12.26 90.31,-91.12l0 -205.63c0,-78.86 -12.16,-91.13 -90.31,-91.13l-197.64 0c-375.93,0 -757.42,48.37 -1108.69,189.04 -161.86,64.84 -197.98,113.44 -197.98,288.45l0 2529.75c0,78.86 12.15,91.13 90.3,91.13z"/>
   <path class="fil0" d="M29541.2 5317.46l253.21 0c78.15,0 90.42,-12.27 90.42,-91.13l0 -2916.34c0,-78.86 -12.27,-91.25 -90.42,-91.25l-253.21 0c-78.15,0 -90.19,12.39 -90.19,91.25l0 2916.34c0,78.86 12.04,91.13 90.19,91.13z"/>
   <path class="fil0" d="M36388.85 5324.7c574.03,0 1178.4,-210.41 1178.4,-887.56 0,-695.38 -541.96,-793.76 -1113.45,-846.45 -355.79,-32.83 -849.35,-52.92 -849.35,-531.11 0,-411.6 400.48,-490.11 731.61,-490.11 348.72,0 641.76,85.4 794.24,419.89 43.76,63.44 46.19,71.04 121.22,39.84l199.14 -82.83c72.36,-30.14 81.85,-55.61 46.31,-127.23 -223.22,-472.23 -685.18,-605.77 -1172.61,-605.77 -564.77,0 -1119.81,207.73 -1119.81,858.01 0,716.17 557.36,807.42 1131.39,864.08 346.64,34.23 837.31,64.03 837.31,525.27 0,435.55 -452.58,513.71 -796.09,513.71 -370.15,0 -703.94,-91.83 -844.49,-467.79 -28.83,-65.43 -41.34,-79.1 -109.41,-55.61l-204.82 70.8c-65.3,23.36 -78.03,47.31 -52.91,112.86 204.82,532.98 692.36,690 1223.32,690z"/>
   <path class="fil0" d="M33940.89 2647.75l-655.31 918.29 -80.23 114.15c-31.26,45.44 -31.49,102.69 0.11,148.49l22.12 32.13 294.54 411.83 509.89 711.62 197.17 276.54 26.4 36.1 199.48 278.4 197.41 276.66c76.18,109 107.09,112.86 236.88,112.86l234.92 0c120.64,0 156.07,-20.8 87.87,-129.8l-406.15 -561.37 -17.37 -30.15 -1056.71 -1460.97c-15.05,-20.8 -15.05,-47.9 -0.12,-68.7l989.33 -1380.36c65.53,-99.3 38.44,-123.61 -75.6,-123.61l-241.28 0c-130.49,0 -154.34,3.98 -230.52,112.86l-226.69 312.64c-1.97,6.2 -2.43,7.13 -6.14,12.39z"/>
   <path class="fil0" d="M31577.99 5320.5c582.25,0 1026.14,-199.55 1225.05,-775.88 32.77,-78.63 10.77,-95.45 -58.47,-124.31l-202.03 -58.06c-81.63,-26.06 -97.95,-22.79 -127.13,57.24 -124.57,397.58 -420.27,552.15 -819.94,552.15 -489.75,0 -822.96,-245.11 -822.96,-759.76l0 -889.9c0,-517.56 331.48,-753.91 822.96,-753.91 400.82,0 678.81,139.5 813.58,533.45 29.4,76.29 45.61,88.79 125.38,59.23l198.91 -65.07c73.29,-26.05 80.47,-52.34 56.85,-127.35 -171.93,-548.64 -632.27,-749 -1177.24,-749 -747.58,0 -1244.5,337.06 -1244.5,1126.25l0 848.66c0,774.59 465.66,1126.26 1209.54,1126.26z"/>
   <path class="fil1" d="M22584.89 5354.05l326.12 0c138.99,0 187.35,-47.89 187.35,-185.49l0 -4056.99c0,-137.6 -48.36,-185.49 -187.35,-185.49l-326.12 0c-139.12,0 -187.36,47.89 -187.36,185.49l0 1145.15c-163.18,-30.48 -416.88,-79.54 -719.05,-79.54 -227.77,0 -425.29,33.76 -592.2,99.75l-0.7 -1.63c-28.39,10.86 -55.84,22.66 -82.35,35.39 -246.11,141.45 -438.49,361.74 -540.69,670.69 -6.43,19.28 -12.27,38.55 -17.87,57.94 -24.65,106.76 -38.9,222.98 -42.75,348.2l-0.82 0 0 36.2 0 557.87 0 69.96 0 69.85c0,328.81 57.35,638.11 290.38,887.95 26.74,28.62 51.39,51.17 82.11,75.23 161.78,126.73 350.65,208.84 552.37,245.87 8.88,1.52 16.35,2.8 25.23,4.09 69.5,10.16 139.7,15.65 209.9,17.99 11.45,0.47 22.89,0.82 37.14,0.93l799.3 0.12c35.63,0 70.67,-2.69 105.01,-7.71 23.01,5.61 50.23,8.18 82.35,8.18zm-187.36 -2448.59l0 1732.57 -790.65 0c-7.24,-0.12 -14.49,-0.35 -21.49,-0.58 -48.01,-1.64 -91.35,-5.14 -130.36,-10.87 -111.9,-16.23 -188.64,-49.99 -240.27,-105.35 -76.27,-81.77 -98,-210.6 -98.11,-399.83 0,-1.05 0,-2.1 0,-3.15l0 -66.7 0 -133.39 0 -530.64 -1.52 0c5.37,-67.75 17.17,-129.42 35.51,-184.91 41,-124.04 114.93,-217.37 223.45,-279.86l0.23 0.58c110.5,-65.06 257.67,-97.41 443.16,-97.41 235.59,0 441.05,49.05 580.05,79.54z"/>
   <path class="fil0" d="M16367.23 3247.12c0,-321.34 262.82,-584.15 584.03,-584.15l279.28 0c321.21,0 584.03,262.81 584.03,584.15l0 215.15 -1447.34 0 0 -215.15zm2110.56 28.03c0,-642.43 -525.63,-1168.05 -1168.06,-1168.05l-430.31 0c-642.42,0 -1168.05,525.62 -1168.05,1168.05l0 679.22 2532.81 0c128.48,0 233.61,-105.12 233.61,-233.61l0 -445.61z"/>
   <path class="fil0" d="M17088.04 4712.9c-357.19,0 -606.45,-115.05 -707.02,-465l-659.6 0 52.44 182.57c181.29,630.98 681.09,923.58 1314.18,923.58 633.08,0 1132.89,-292.6 1314.17,-923.58l52.45 -182.57 -659.6 0c-100.57,349.95 -349.83,465 -707.02,465z"/>
   <rect class="fil0" x="14388.2" y="2126.84" width="722.79" height="3227.33" rx="116.81" ry="163.05"/>
   <rect class="fil0" x="19078.01" y="926.08" width="722.56" height="4428.08" rx="116.82" ry="59.78"/>
   <path class="fil0" d="M12283.38 5354.16l355.08 0c142.39,0 182.1,-41 182.1,-184.77l0 -1563.49 1524.19 -2509.98c57.94,-101.57 48.13,-169.36 -80.36,-169.36l-404.96 0c-198.69,0 -287.93,-16.72 -385.11,173.98l-1004.17 1752.29 -991.56 -1752.29c-97.18,-190.7 -186.42,-173.98 -385.11,-173.98l-436.03 0c-128.37,0 -138.42,67.79 -80.48,169.36l1524.31 2497.3 0 1576.17c0,143.77 39.71,184.77 182.1,184.77z"/>
   <path class="fil1" d="M23819.63 5353.58l1792.38 0c770.68,0 1272.36,-415.94 1272.36,-1168.4 0,-581.11 -263.05,-948.11 -727.93,-1070.52l0 -12.27c379.26,-165.16 574.91,-483.22 574.91,-978.71 0,-721.85 -434.28,-1113.27 -1180.55,-1113.27l-1731.17 0c-85.61,0 -116.22,30.49 -116.22,122.3l0 4098.57c0,91.7 30.61,122.3 116.22,122.3zm324.14 -2410.16l0 -1523.25 1351.9 0c507.75,0 783.06,256.97 783.06,758.53 0,507.75 -275.31,764.72 -783.06,764.72l-1351.9 0zm0 2000.29l0 -1602.68 1455.97 0c526.09,0 819.63,281.38 819.63,801.4 0,525.97 -293.54,801.28 -819.63,801.28l-1455.97 0z"/>
   <path class="fil2" d="M5719.73 6670.04c946.11,0 1342.09,-624.24 1726.06,-1338.19 479.7,-892.29 1292.1,-1746.36 672.79,-2825.46l-1112.84 -1878.51c-307.45,-396.43 -779.56,-626.19 -1286.01,-626.19l-1139.51 0 -833.63 0 -1139.38 0c-597.19,0 -1123.43,310.56 -1418.48,825.45l-971.15 1663.35c-301.09,511.32 -301.09,1179.18 0,1690.75l1071.82 1820.1c306.02,422.46 793.45,668.7 1317.81,668.7 1037.42,0 2075.04,0 3112.52,0zm-3194.95 -812.21l-1244.53 -1232.26c-248.13,-243.58 -351.07,-628.27 -257.93,-962.98l463.22 -1690.22c102.22,-299.15 344.64,-524.82 653.77,-607.63 933,-250.08 1865.99,-499.83 2798.98,-749.9 309.07,-82.82 632.04,-8.64 870.1,199.38l8.25 -2.21 1250.3 1246.74c235.28,244.5 333.02,609.77 248.78,938.84l-458.29 1699.18 -8.17 2.14c-102.1,299.47 -344.51,525.07 -653.59,607.89 -933.05,249.82 -1866.11,499.95 -2799.1,749.96 -309.34,82.89 -631.97,8.7 -869.85,-199.12l-1.94 0.19z"/>
  </g>
 </g>
</svg>
